<?xml version="1.0" encoding="UTF-8" standalone="no"?>
<!-- Created with Inkscape (http://www.inkscape.org/) -->

<svg
   xmlns:dc="http://purl.org/dc/elements/1.1/"
   xmlns:cc="http://creativecommons.org/ns#"
   xmlns:rdf="http://www.w3.org/1999/02/22-rdf-syntax-ns#"
   xmlns:svg="http://www.w3.org/2000/svg"
   xmlns="http://www.w3.org/2000/svg"
   xmlns:sodipodi="http://sodipodi.sourceforge.net/DTD/sodipodi-0.dtd"
   xmlns:inkscape="http://www.inkscape.org/namespaces/inkscape"
   width="32"
   height="32"
   viewBox="0 0 31.999999 32.000001"
   version="1.1"
   id="svg3743"
   inkscape:version="0.92.2 (5c3e80d, 2017-08-06)"
   sodipodi:docname="bath4.svg">
  <title
     id="title3786">bath</title>
  <defs
     id="defs3737" />
  <sodipodi:namedview
     id="base"
     pagecolor="#ffffff"
     bordercolor="#666666"
     borderopacity="1.0"
     inkscape:pageopacity="0.0"
     inkscape:pageshadow="2"
     inkscape:zoom="1"
     inkscape:cx="31.834686"
     inkscape:cy="13.450028"
     inkscape:document-units="px"
     inkscape:current-layer="layer1"
     showgrid="false"
     inkscape:showpageshadow="false"
     units="px"
     inkscape:window-width="1366"
     inkscape:window-height="721"
     inkscape:window-x="-4"
     inkscape:window-y="-4"
     inkscape:window-maximized="1"
     inkscape:pagecheckerboard="false"
     borderlayer="false" />
  <metadata
     id="metadata3740">
    <rdf:RDF>
      <cc:Work
         rdf:about="">
        <dc:format>image/svg+xml</dc:format>
        <dc:type
           rdf:resource="http://purl.org/dc/dcmitype/StillImage" />
        <dc:title>bath</dc:title>
      </cc:Work>
    </rdf:RDF>
  </metadata>
  <g
     inkscape:label="Layer 1"
     inkscape:groupmode="layer"
     id="layer1"
     transform="translate(0,-1090.5196)">
    <g
       id="g3773"
       transform="matrix(0.01276173,0,0,-0.01276173,-10.908851,1128.2995)"
       style="fill:#000000;stroke:none">
      <path
         id="path3765"
         d="m 2138,2809 c -42,-24 -142,-199 -185,-324 -51,-148 -40,-274 47,-532 67,-197 84,-292 75,-413 -8,-122 -13,-164 -26,-221 -6,-26 -12,-53 -13,-60 -1,-8 -6,-29 -10,-47 -14,-58 31,-83 71,-40 25,28 72,121 114,225 90,228 92,367 5,625 -68,203 -81,277 -80,453 1,123 6,151 43,272 12,41 -13,79 -41,62 z"
         inkscape:connector-curvature="0" />
      <path
         id="path3767"
         d="m 1653,2603 c -104,-166 -128,-235 -127,-368 2,-116 25,-199 102,-355 l 47,-95 v -150 c 0,-154 -11,-220 -47,-301 -30,-68 5,-121 54,-82 18,15 90,137 119,205 37,84 50,146 49,235 -1,100 -14,150 -81,311 -59,139 -89,249 -89,326 0,51 18,136 51,247 15,50 7,74 -24,74 -17,0 -32,-13 -54,-47 z"
         inkscape:connector-curvature="0" />
      <path
         id="path3769"
         d="m 2501,2585 c -102,-161 -136,-260 -126,-363 10,-105 33,-188 87,-311 67,-156 77,-228 55,-389 -10,-67 -24,-137 -32,-156 -19,-45 -19,-100 0,-116 29,-24 60,-3 103,72 147,258 157,380 50,628 -113,263 -123,378 -54,595 21,67 22,77 9,90 -28,29 -50,17 -92,-50 z"
         inkscape:connector-curvature="0" />
      <path
         id="path3771"
         d="m 1254,1666 c -66,-44 -132,-119 -171,-192 -50,-94 -62,-140 -59,-224 7,-212 189,-385 519,-495 206,-68 380,-90 647,-82 264,9 428,43 630,131 295,129 433,332 376,553 -33,132 -106,238 -210,305 -61,39 -93,47 -114,26 -21,-21 -13,-43 43,-108 31,-36 70,-94 88,-130 28,-57 32,-75 32,-145 -1,-64 -6,-90 -25,-130 -71,-145 -301,-268 -577,-310 -128,-20 -479,-22 -606,-4 -124,17 -249,55 -361,109 -163,79 -239,162 -265,291 -21,102 21,216 118,319 61,65 76,102 45,114 -32,12 -61,5 -110,-28 z"
         inkscape:connector-curvature="0" />
    </g>
  </g>
</svg>
