<?xml version="1.0" encoding="UTF-8" standalone="no"?>
<svg
   xmlns:dc="http://purl.org/dc/elements/1.1/"
   xmlns:cc="http://creativecommons.org/ns#"
   xmlns:rdf="http://www.w3.org/1999/02/22-rdf-syntax-ns#"
   xmlns:svg="http://www.w3.org/2000/svg"
   xmlns="http://www.w3.org/2000/svg"
   id="svg8"
   version="1.1"
   viewBox="0 0 16.933333 16.933333"
   height="64"
   width="64">
  <defs
     id="defs2" />
  <metadata
     id="metadata5">
    <rdf:RDF>
      <cc:Work
         rdf:about="">
        <dc:format>image/svg+xml</dc:format>
        <dc:type
           rdf:resource="http://purl.org/dc/dcmitype/StillImage" />
        <dc:title></dc:title>
      </cc:Work>
    </rdf:RDF>
  </metadata>
  <g
     transform="translate(0,-280.06667)"
     id="layer1">
    <g
       transform="matrix(0.0264882,0,0,0.0264882,2.1774676,287.52206)"
       id="g965">
      <path
         style="fill:#d6d4d4"
         d="m 63.36,0.24 c 0,-0.08 0,-0.16 0,-0.24 35.04,0 70.081,0 105.12,0 0,0.08 0,0.16 0,0.24 -34.64,0 -69.281,0 -103.92,0 -0.4,0 -0.8,0 -1.2,0 z"
         id="path712" />
      <path
         style="fill:#a19e9f"
         d="m 168.48,0.24 c 0,-0.08 0,-0.16 0,-0.24 17.44,0 34.88,0 52.32,0 0,0.08 0,0.16 0,0.24 -17.44,0 -34.88,0 -52.32,0 z"
         id="path714" />
      <path
         style="fill:#5f5d5e"
         d="m 220.8,0.24 c 0,-0.08 0,-0.16 0,-0.24 34.561,0 69.121,0 103.681,0 C 290.401,0.56 255.28,0.08 220.8,0.24 Z"
         id="path716" />
      <path
         style="fill:#090b0c"
         d="m 376.561,0 c 8.48,0 16.961,0 25.44,0 13.349,14.091 26.841,28.04 40.56,41.76 0,0.08 0,0.16 0,0.24 2.54,2.74 5.182,5.38 7.921,7.92 0,0.08 0,0.16 0,0.24 4.593,4.928 9.556,9.484 13.92,14.64 -14.316,13.523 -28.253,27.428 -42.479,41.04 -1.578,-0.662 -2.222,-2.259 -3.6,-3.12 0,-0.078 -10e-4,-0.158 0,-0.238 -13.762,-14.16 -27.467,-28.374 -41.28,-42.48 -0.08,0 -0.16,0 -0.24,0 -34.16,-0.398 -70,-0.398 -104.16,0 -17.199,0 -34.399,0 -51.6,0 -38.028,0 -77.409,0 -115.44,0 -5.565,0 -11.998,-0.948 -16.56,0 -1.873,0.391 -4.521,3.562 -6.24,5.28 C 68.72,79.365 56.428,92.668 42.243,105.842 28.42,91.82 14.5,77.9 0.48,64.08 20.945,42.544 42.654,22.254 63.12,0.72 c 0.08,0 0.16,0 0.24,0 17.76,-0.16 36.16,0.32 53.52,-0.24 17.2,0 34.4,0 51.6,0 C 237.913,0.395 307.801,0.759 376.561,0 Z"
         id="path718" />
      <path
         style="fill:#5f5d5e"
         d="m 64.56,0.48 c 0,-0.08 0,-0.16 0,-0.24 34.639,0 69.281,0 103.92,0 0,0.08 0,0.16 0,0.24 -17.2,0 -34.4,0 -51.6,0 -17.44,0 -34.88,0 -52.32,0 z"
         id="path720" />
      <path
         style="fill:#2a2a2a"
         d="m 63.36,0.719 c -0.041,-0.521 0.851,-0.108 1.2,-0.239 17.44,0 34.88,0 52.32,0 C 99.52,1.04 81.12,0.56 63.36,0.719 Z"
         id="path722" />
      <path
         style="fill:#2a2a2a"
         d="m 272.642,60 c 34.159,-0.398 69.999,-0.398 104.159,0 -17.279,0 -34.561,0 -51.84,0 -17.44,0 -34.88,0 -52.319,0 z"
         id="path724" />
      <path
         style="fill:#5f5d5e"
         d="m 221.041,60.24 c 0,-0.08 0,-0.16 0,-0.24 17.2,0 34.399,0 51.601,0 17.439,0 34.88,0 52.319,0 0,0.08 0,0.16 0,0.24 -34.64,0 -69.28,0 -103.92,0 z"
         id="path726" />
      <path
         style="fill:#5f5d5e"
         d="m 88.32,60.48 c 9.12,-0.562 19.28,-0.08 28.8,-0.24 0,0.08 0,0.16 0,0.24 -9.6,0 -19.2,0 -28.8,0 z"
         id="path728" />
      <path
         style="fill:#a19e9f"
         d="m 117.12,60.48 c 0,-0.08 0,-0.16 0,-0.24 34.639,0 69.281,0 103.92,0 0,0.08 0,0.16 0,0.24 -17.36,0 -34.72,0 -52.08,0 -17.28,0 -34.56,0 -51.84,0 z"
         id="path730" />
      <path
         style="fill:#d6d4d4"
         d="M 34.56,28.8 C 43.98,19.18 53.5,9.66 63.12,0.24 53.7,9.86 44.18,19.38 34.56,28.8 Z"
         id="path732" />
      <path
         style="fill:#d6d4d4"
         d="M 0,63.36 C 3.1,60.62 5.78,57.46 8.88,54.718 6.02,57.78 3.06,60.74 0,63.601 0,63.521 0,63.44 0,63.36 Z"
         id="path734" />
      <path
         style="fill:#2a2a2a"
         d="M 220.8,0.24 C 255.28,0.08 290.401,0.56 324.48,0 341.839,0 359.201,0 376.559,0 307.8,0.759 237.913,0.395 168.48,0.48 c 0,-0.08 0,-0.16 0,-0.24 17.44,0 34.88,0 52.32,0 z"
         id="path736" />
      <path
         style="fill:#2a2a2a"
         d="m 402.001,0 c 0.16,0 0.319,0 0.479,0 0,0.08 0,0.16 0,0.24 0.07,0.489 0.648,0.47 0.721,0.96 1.898,2.1 3.898,4.1 6,6 0.495,0.865 1.425,1.295 1.92,2.16 1.898,2.1 3.898,4.1 6,6 0.495,0.865 1.425,1.295 1.92,2.16 1.899,2.1 3.899,4.1 6,6 0.495,0.864 1.425,1.295 1.92,2.16 1.899,2.1 3.899,4.1 6,6 0.495,0.864 1.425,1.295 1.92,2.159 1.9,2.101 3.9,4.101 6,6 0.414,0.787 1.268,1.135 1.681,1.92 C 428.842,28.04 415.35,14.091 402.001,0 Z"
         id="path738" />
      <path
         style="fill:#2a2a2a"
         d="m 442.561,42 c 2.222,1.859 4.021,4.142 6.24,6 0.414,0.786 1.268,1.134 1.681,1.92 -2.741,-2.54 -5.381,-5.18 -7.921,-7.92 z"
         id="path740" />
      <path
         style="fill:#2a2a2a"
         d="m 450.48,50.16 c 2.221,1.859 4.02,4.141 6.239,6 0.414,0.786 1.268,1.134 1.681,1.92 1.899,2.102 3.899,4.102 6,6 0.128,0.193 0.251,0.39 0.239,0.72 -0.298,0.502 -0.696,0.902 -1.198,1.2 -0.865,0.495 -1.297,1.425 -2.16,1.92 -2.102,1.9 -4.102,3.9 -6,6 -0.865,0.495 -1.296,1.425 -2.16,1.92 -2.102,1.9 -4.102,3.9 -6,6 -0.865,0.495 -1.295,1.426 -2.16,1.92 -2.101,1.9 -4.101,3.9 -6,6 -0.865,0.495 -1.295,1.427 -2.16,1.921 -2.1,1.899 -4.1,3.899 -6,6.001 -0.865,0.494 -1.295,1.425 -2.16,1.92 -2.1,1.898 -4.1,3.898 -6,6 -0.295,0.104 -0.491,0.307 -0.479,0.72 -0.24,0 -0.48,0 -0.721,0 -0.331,-0.708 -1.108,-0.972 -1.439,-1.68 -0.414,-0.787 -1.267,-1.135 -1.68,-1.922 1.378,0.861 2.021,2.458 3.6,3.12 14.228,-13.612 28.163,-27.517 42.479,-41.04 -4.365,-5.155 -9.328,-9.712 -13.921,-14.64 z"
         id="path742" />
      <path
         style="fill:#2a2a2a"
         d="m 418.321,102.48 c -2.142,-1.779 -3.86,-3.98 -6.001,-5.762 -0.495,-0.863 -1.424,-1.295 -1.92,-2.158 -1.899,-2.102 -3.899,-4.102 -6,-6 -0.495,-0.865 -1.426,-1.296 -1.92,-2.16 -1.899,-2.102 -3.899,-4.102 -6,-6 -0.495,-0.865 -1.426,-1.295 -1.921,-2.16 -1.898,-2.101 -3.898,-4.101 -6,-6 -0.494,-0.865 -1.425,-1.295 -1.92,-2.16 -1.898,-2.1 -3.898,-4.1 -6,-6 -1.188,-1.371 -2.43,-2.689 -3.6,-4.08 13.815,14.106 27.522,28.32 41.282,42.48 z"
         id="path744" />
      <path
         style="fill:#2a2a2a"
         d="M 63.12,0.719 C 42.654,22.254 20.945,42.544 0.48,64.08 14.5,77.9 28.42,91.82 42.24,105.84 56.425,92.666 68.717,79.363 82.8,65.28 c 1.719,-1.719 4.367,-4.891 6.24,-5.28 4.562,-0.948 10.995,0 16.56,0 38.031,0 77.413,0 115.44,0 0,0.08 0,0.16 0,0.24 -34.64,0 -69.281,0 -103.92,0 -9.52,0.16 -19.68,-0.32 -28.8,0.24 -0.08,0 -0.16,0 -0.24,0 -5.38,5.18 -10.66,10.46 -15.84,15.84 -8.5,8.859 -17.42,17.3 -25.92,26.16 -1.3,1.1 -2.5,2.3 -3.6,3.6 C 28.26,92.221 14.1,78.061 0.24,63.601 20.5,43.54 40.66,23.38 60.72,3.12 c 0.699,-0.901 1.5,-1.701 2.4,-2.401 z"
         id="path746" />
      <path
         style="fill:#d6d4d4"
         d="m 460.801,60 c -1.501,-1.139 -2.578,-2.701 -4.08,-3.84 -0.576,-0.944 -1.584,-1.456 -2.16,-2.4 2.18,1.98 4.26,4.06 6.24,6.24 z"
         id="path748" />
      <path
         style="fill:#d6d4d4"
         d="m 452.881,51.84 c -1.501,-1.139 -2.579,-2.7 -4.08,-3.84 -0.576,-0.943 -1.584,-1.456 -2.16,-2.399 2.18,1.979 4.26,4.059 6.24,6.239 z"
         id="path750" />
      <path
         style="fill:#d6d4d4"
         d="m 444.961,43.68 c -1.501,-1.14 -2.579,-2.701 -4.08,-3.841 -0.576,-0.943 -1.584,-1.456 -2.16,-2.399 2.18,1.98 4.259,4.06 6.24,6.24 z"
         id="path752" />
      <path
         style="fill:#d6d4d4"
         d="m 437.041,35.52 c -1.501,-1.14 -2.579,-2.701 -4.08,-3.84 -0.495,-0.865 -1.425,-1.296 -1.92,-2.16 2.1,1.9 4.1,3.9 6,6 z"
         id="path754" />
      <path
         style="fill:#d6d4d4"
         d="m 429.121,27.36 c -1.502,-1.139 -2.579,-2.701 -4.08,-3.84 -0.495,-0.865 -1.425,-1.295 -1.92,-2.16 2.1,1.9 4.1,3.9 6,6 z"
         id="path756" />
      <path
         style="fill:#d6d4d4"
         d="m 421.201,19.2 c -1.502,-1.139 -2.579,-2.702 -4.08,-3.84 -0.495,-0.865 -1.425,-1.295 -1.92,-2.16 2.1,1.9 4.1,3.9 6,6 z"
         id="path758" />
      <path
         style="fill:#d6d4d4"
         d="m 413.281,11.04 c -1.502,-1.139 -2.579,-2.701 -4.08,-3.84 -0.495,-0.865 -1.425,-1.295 -1.92,-2.16 2.1,1.9 4.1,3.9 6,6 z"
         id="path760" />
      <path
         style="fill:#d6d4d4"
         d="m 405.601,3.12 c -1.182,-0.818 -1.938,-2.062 -3.119,-2.88 0,-0.08 0,-0.16 0,-0.24 0.079,0 0.159,0 0.239,0 0.817,1.182 2.062,1.938 2.88,3.12 z"
         id="path762" />
      <path
         style="fill:#a19e9f"
         d="M 34.56,28.8 C 44.18,19.38 53.7,9.86 63.12,0.24 c 0.08,0 0.16,0 0.24,0 0.4,0 0.8,0 1.2,0 0,0.08 0,0.16 0,0.24 -0.349,0.131 -1.24,-0.28 -1.2,0.239 -0.08,0 -0.16,0 -0.24,0 -0.9,0.699 -1.701,1.5 -2.4,2.4 C 43.3,20.18 26.3,37.66 8.88,54.719 17.3,45.94 26.14,37.58 34.56,28.8 Z"
         id="path764" />
      <path
         style="fill:#a19e9f"
         d="m 403.201,1.2 c -0.071,-0.49 -0.649,-0.471 -0.721,-0.96 1.183,0.817 1.938,2.062 3.119,2.88 0.414,0.786 1.268,1.134 1.682,1.92 -1.502,-1.139 -2.579,-2.701 -4.08,-3.84 z"
         id="path766" />
      <path
         style="fill:#5f5d5e"
         d="m 409.201,7.2 c -2.102,-1.9 -4.102,-3.9 -6,-6 1.501,1.139 2.578,2.701 4.08,3.84 0.495,0.865 1.425,1.295 1.92,2.16 z"
         id="path768" />
      <path
         style="fill:#5f5d5e"
         d="M 8.88,54.719 C 26.3,37.66 43.3,20.18 60.72,3.12 40.66,23.38 20.5,43.54 0.24,63.601 c 13.86,14.46 28.02,28.62 42.48,42.479 1.1,-1.3 2.3,-2.5 3.6,-3.6 -1.059,1.421 -2.542,2.418 -3.6,3.84 -0.16,0 -0.32,0 -0.48,0 C 28.26,92.14 14.18,78.061 0,64.08 0,63.92 0,63.76 0,63.601 3.06,60.74 6.02,57.78 8.88,54.719 Z"
         id="path770" />
      <path
         style="fill:#a19e9f"
         d="m 411.121,9.36 c -0.495,-0.865 -1.425,-1.295 -1.92,-2.16 1.501,1.139 2.578,2.701 4.08,3.84 0.495,0.865 1.425,1.295 1.92,2.16 -1.502,-1.138 -2.579,-2.701 -4.08,-3.84 z"
         id="path772" />
      <path
         style="fill:#5f5d5e"
         d="m 417.121,15.36 c -2.102,-1.9 -4.102,-3.9 -6,-6 1.501,1.139 2.578,2.702 4.08,3.84 0.495,0.865 1.425,1.295 1.92,2.16 z"
         id="path774" />
      <path
         style="fill:#a19e9f"
         d="m 419.041,17.52 c -0.495,-0.865 -1.425,-1.295 -1.92,-2.16 1.501,1.139 2.578,2.702 4.08,3.84 0.495,0.865 1.425,1.295 1.92,2.16 -1.502,-1.139 -2.579,-2.701 -4.08,-3.84 z"
         id="path776" />
      <path
         style="fill:#5f5d5e"
         d="m 425.041,23.52 c -2.101,-1.9 -4.101,-3.9 -6,-6 1.501,1.139 2.578,2.701 4.08,3.84 0.495,0.865 1.425,1.295 1.92,2.16 z"
         id="path778" />
      <path
         style="fill:#a19e9f"
         d="m 426.961,25.68 c -0.495,-0.865 -1.425,-1.296 -1.92,-2.16 1.501,1.139 2.578,2.701 4.08,3.84 0.495,0.865 1.425,1.295 1.92,2.16 -1.502,-1.139 -2.579,-2.701 -4.08,-3.84 z"
         id="path780" />
      <path
         style="fill:#5f5d5e"
         d="m 432.961,31.68 c -2.101,-1.9 -4.101,-3.9 -6,-6 1.501,1.139 2.578,2.7 4.08,3.84 0.495,0.865 1.425,1.295 1.92,2.16 z"
         id="path782" />
      <path
         style="fill:#a19e9f"
         d="m 434.881,33.84 c -0.495,-0.864 -1.425,-1.295 -1.92,-2.159 1.501,1.139 2.579,2.7 4.08,3.84 0.414,0.786 1.266,1.134 1.68,1.92 -1.421,-1.06 -2.418,-2.543 -3.84,-3.601 z"
         id="path784" />
      <path
         style="fill:#5f5d5e"
         d="m 440.881,39.84 c -2.1,-1.899 -4.1,-3.899 -6,-6 1.422,1.06 2.419,2.542 3.84,3.601 0.576,0.943 1.584,1.455 2.16,2.399 z"
         id="path786" />
      <path
         style="fill:#a19e9f"
         d="m 442.561,41.76 c -0.412,-0.786 -1.266,-1.134 -1.68,-1.92 1.501,1.14 2.579,2.702 4.08,3.841 0.414,0.785 1.267,1.134 1.68,1.92 -1.501,-1.14 -2.579,-2.702 -4.08,-3.841 z"
         id="path788" />
      <path
         style="fill:#5f5d5e"
         d="m 442.561,42 c 0,-0.08 0,-0.16 0,-0.24 1.503,1.14 2.579,2.701 4.08,3.841 0.576,0.943 1.584,1.456 2.16,2.399 -2.221,-1.859 -4.02,-4.141 -6.24,-6 z"
         id="path790" />
      <path
         style="fill:#a19e9f"
         d="m 450.48,49.92 c -0.413,-0.786 -1.267,-1.134 -1.681,-1.92 1.501,1.14 2.579,2.701 4.08,3.84 0.414,0.787 1.268,1.135 1.68,1.92 -1.499,-1.138 -2.577,-2.701 -4.079,-3.84 z"
         id="path792" />
      <path
         style="fill:#5f5d5e"
         d="m 450.48,50.16 c 0,-0.08 0,-0.16 0,-0.24 1.502,1.14 2.578,2.702 4.079,3.84 0.576,0.944 1.584,1.456 2.16,2.4 -2.219,-1.859 -4.018,-4.14 -6.239,-6 z"
         id="path794" />
      <path
         style="fill:#a19e9f"
         d="m 458.4,58.08 c -0.413,-0.786 -1.267,-1.134 -1.681,-1.92 1.502,1.139 2.579,2.701 4.08,3.84 1.26,1.46 2.62,2.82 4.08,4.08 0,0.24 0,0.48 0,0.72 -0.08,0 -0.16,0 -0.24,0 0.012,-0.33 -0.111,-0.525 -0.239,-0.72 -1.899,-2.1 -3.899,-4.1 -6,-6 z"
         id="path796" />
      <path
         style="fill:#5f5d5e"
         d="m 464.4,64.08 c -2.101,-1.898 -4.101,-3.898 -6,-6 2.101,1.9 4.101,3.9 6,6 z"
         id="path798" />
      <path
         style="fill:#d6d4d4"
         d="m 221.041,60.48 c 0,-0.08 0,-0.16 0,-0.24 34.64,0 69.28,0 103.92,0 11.755,0 25.582,0 38.16,0 4.328,0 9.159,-0.733 12.72,0 2.312,0.476 2.951,2.678 4.8,3.84 0.495,0.865 1.426,1.295 1.92,2.16 -2.782,-1.564 -3.516,-5.101 -6.72,-5.76 -5.145,-1.061 -13.714,0 -19.439,0 -44.454,0 -91.65,0 -135.361,0 z"
         id="path800" />
      <path
         style="fill:#a19e9f"
         d="m 380.641,64.08 c -1.849,-1.162 -2.487,-3.364 -4.8,-3.84 -3.561,-0.733 -8.392,0 -12.72,0 -12.578,0 -26.405,0 -38.16,0 0,-0.08 0,-0.16 0,-0.24 17.279,0 34.561,0 51.84,0 0.08,0 0.16,0 0.24,0 1.17,1.39 2.41,2.709 3.6,4.08 z"
         id="path802" />
      <path
         style="fill:#5f5d5e"
         d="M 72.24,76.32 C 77.42,70.94 82.7,65.66 88.08,60.48 82.9,65.86 77.62,71.141 72.24,76.32 Z"
         id="path804" />
      <path
         style="fill:#a19e9f"
         d="m 72.24,76.32 c 5.38,-5.18 10.66,-10.46 15.84,-15.84 0.08,0 0.16,0 0.24,0 -13.9,14.1 -27.9,28.1 -42,42 8.5,-8.86 17.42,-17.3 25.92,-26.16 z"
         id="path806" />
      <path
         style="fill:#a19e9f"
         d="m 382.561,66.24 c 1.503,1.139 2.579,2.701 4.08,3.84 0.495,0.865 1.426,1.295 1.92,2.16 -1.58,-1.219 -2.737,-2.861 -4.318,-4.08 -0.416,-0.786 -1.268,-1.134 -1.682,-1.92 z"
         id="path808" />
      <path
         style="fill:#d6d4d4"
         d="m 384.241,68.16 c 1.581,1.219 2.737,2.861 4.318,4.08 0.495,0.865 1.426,1.295 1.921,2.16 -2.179,-1.98 -4.259,-4.06 -6.239,-6.24 z"
         id="path810" />
      <path
         style="fill:#a19e9f"
         d="m 390.48,74.4 c 1.502,1.139 2.578,2.701 4.079,3.84 0.495,0.865 1.426,1.295 1.921,2.16 -1.581,-1.219 -2.738,-2.861 -4.319,-4.08 -0.414,-0.786 -1.266,-1.133 -1.681,-1.92 z"
         id="path812" />
      <path
         style="fill:#d6d4d4"
         d="m 392.161,76.32 c 1.581,1.219 2.738,2.861 4.319,4.08 0.494,0.864 1.425,1.295 1.92,2.16 -2.179,-1.98 -4.259,-4.06 -6.239,-6.24 z"
         id="path814" />
      <path
         style="fill:#a19e9f"
         d="m 398.4,82.561 c 1.502,1.139 2.578,2.7 4.08,3.84 0.494,0.864 1.425,1.295 1.92,2.16 -1.581,-1.22 -2.738,-2.861 -4.319,-4.08 -0.414,-0.787 -1.267,-1.134 -1.681,-1.92 z"
         id="path816" />
      <path
         style="fill:#d6d4d4"
         d="m 400.081,84.48 c 1.581,1.219 2.738,2.86 4.319,4.08 0.494,0.863 1.425,1.295 1.92,2.158 -2.179,-1.978 -4.259,-4.058 -6.239,-6.238 z"
         id="path818" />
      <path
         style="fill:#a19e9f"
         d="m 406.32,90.719 c 1.502,1.141 2.579,2.702 4.08,3.842 0.496,0.863 1.425,1.295 1.92,2.158 -1.581,-1.219 -2.738,-2.859 -4.319,-4.078 -0.414,-0.787 -1.267,-1.134 -1.681,-1.922 z"
         id="path820" />
      <path
         style="fill:#d6d4d4"
         d="m 408.001,92.641 c 1.581,1.219 2.738,2.859 4.319,4.078 0.496,0.865 1.426,1.297 1.921,2.16 -2.18,-1.979 -4.261,-4.059 -6.24,-6.238 z"
         id="path822" />
      <path
         style="fill:#a19e9f"
         d="m 414.241,98.88 c 1.501,1.14 2.578,2.701 4.08,3.84 0.413,0.787 1.266,1.135 1.68,1.922 -1.501,-1.14 -2.579,-2.702 -4.08,-3.842 -0.414,-0.786 -1.267,-1.134 -1.68,-1.92 z"
         id="path824" />
      <path
         style="fill:#d6d4d4"
         d="m 415.921,100.8 c 1.501,1.14 2.579,2.702 4.08,3.842 0.331,0.708 1.108,0.972 1.439,1.68 -0.079,0 -0.159,0 -0.239,0 -1.62,-1.982 -3.661,-3.541 -5.28,-5.522 z"
         id="path826" />
      <path
         style="fill:#d6d4d4"
         d="m 42.72,106.32 c 1.059,-1.422 2.542,-2.419 3.6,-3.84 14.1,-13.9 28.1,-27.9 42,-42 9.6,0 19.2,0 28.8,0 17.28,0 34.56,0 51.84,0 -21.986,0.437 -46.972,0.238 -70.08,0.238 -3.351,0 -7.362,-0.597 -9.84,0 -1.861,0.449 -4.191,3.712 -6,5.521 -13.854,13.854 -26.471,26.12 -40.08,40.08 -0.08,10e-4 -0.16,10e-4 -0.24,10e-4 z"
         id="path828" />
      <path
         style="fill:#5f5d5e"
         d="m 382.561,66.24 c -0.494,-0.865 -1.425,-1.295 -1.92,-2.16 2.102,1.9 4.102,3.9 6,6 -1.501,-1.139 -2.579,-2.701 -4.08,-3.84 z"
         id="path830" />
      <path
         style="fill:#d6d4d4"
         d="m 0,64.561 c 0,-0.08 0,-0.16 0,-0.24 5.54,5.34 10.98,10.779 16.32,16.32 C 10.74,75.42 5.58,69.78 0,64.561 Z"
         id="path832" />
      <path
         style="fill:#a19e9f"
         d="M 16.32,80.641 C 10.98,75.1 5.54,69.66 0,64.32 c 0,-0.08 0,-0.16 0,-0.24 14.18,13.98 28.26,28.061 42.24,42.24 -0.08,0 -0.16,0 -0.24,0 C 33.54,97.66 24.98,89.1 16.32,80.641 Z"
         id="path834" />
      <path
         style="fill:#d6d4d4"
         d="m 424.801,103.681 c -0.657,1.021 -1.743,1.615 -2.399,2.64 -0.08,0 -0.159,0 -0.239,0 -0.013,-0.413 0.185,-0.615 0.479,-0.72 0.864,-0.496 1.294,-1.425 2.159,-1.92 z"
         id="path836" />
      <path
         style="fill:#d6d4d4"
         d="m 426.721,102 c 1.22,-1.581 2.861,-2.737 4.08,-4.318 0.865,-0.495 1.295,-1.427 2.16,-1.922 -1.981,2.18 -4.06,4.261 -6.24,6.24 z"
         id="path838" />
      <path
         style="fill:#d6d4d4"
         d="m 434.881,94.08 c 1.219,-1.581 2.861,-2.738 4.08,-4.32 0.865,-0.494 1.295,-1.425 2.16,-1.92 -1.98,2.181 -4.06,4.261 -6.24,6.24 z"
         id="path840" />
      <path
         style="fill:#d6d4d4"
         d="m 443.041,86.16 c 1.219,-1.581 2.861,-2.739 4.08,-4.32 0.864,-0.495 1.295,-1.425 2.16,-1.92 -1.98,2.181 -4.06,4.261 -6.24,6.24 z"
         id="path842" />
      <path
         style="fill:#d6d4d4"
         d="m 451.201,78.24 c 1.219,-1.581 2.86,-2.739 4.08,-4.32 0.863,-0.495 1.295,-1.425 2.16,-1.92 -1.98,2.181 -4.06,4.26 -6.24,6.24 z"
         id="path844" />
      <path
         style="fill:#d6d4d4"
         d="m 459.361,70.32 c 1.219,-1.581 2.859,-2.739 4.08,-4.32 0.502,-0.298 0.9,-0.698 1.198,-1.2 0.08,0 0.16,0 0.24,0 0,0.08 0,0.16 0,0.24 -1.979,1.619 -3.537,3.661 -5.518,5.28 z"
         id="path846" />
      <path
         style="fill:#a19e9f"
         d="m 461.281,67.92 c 0.863,-0.495 1.295,-1.425 2.16,-1.92 -1.221,1.581 -2.861,2.739 -4.08,4.32 -0.787,0.414 -1.135,1.266 -1.92,1.68 1.139,-1.501 2.702,-2.578 3.84,-4.08 z"
         id="path848" />
      <path
         style="fill:#5f5d5e"
         d="m 455.281,73.92 c 1.898,-2.1 3.898,-4.1 6,-6 -1.14,1.502 -2.701,2.579 -3.84,4.08 -0.865,0.495 -1.295,1.425 -2.16,1.92 z"
         id="path850" />
      <path
         style="fill:#5f5d5e"
         d="m 390.48,74.4 c -0.495,-0.865 -1.426,-1.295 -1.921,-2.16 2.102,1.899 4.102,3.899 6,6 -1.499,-1.138 -2.577,-2.701 -4.079,-3.84 z"
         id="path852" />
      <path
         style="fill:#a19e9f"
         d="m 453.121,75.84 c 0.864,-0.495 1.295,-1.425 2.16,-1.92 -1.219,1.581 -2.861,2.739 -4.08,4.32 -0.786,0.414 -1.134,1.267 -1.92,1.68 1.139,-1.501 2.701,-2.578 3.84,-4.08 z"
         id="path854" />
      <path
         style="fill:#5f5d5e"
         d="m 447.121,81.84 c 1.898,-2.1 3.898,-4.1 6,-6 -1.139,1.502 -2.701,2.579 -3.84,4.08 -0.865,0.495 -1.296,1.424 -2.16,1.92 z"
         id="path856" />
      <path
         style="fill:#5f5d5e"
         d="m 398.4,82.561 c -0.495,-0.865 -1.426,-1.296 -1.92,-2.16 2.101,1.898 4.101,3.898 6,6 -1.501,-1.139 -2.578,-2.702 -4.08,-3.84 z"
         id="path858" />
      <path
         style="fill:#a19e9f"
         d="m 444.961,83.76 c 0.865,-0.494 1.295,-1.425 2.16,-1.92 -1.219,1.581 -2.861,2.739 -4.08,4.32 -0.786,0.414 -1.134,1.267 -1.92,1.68 1.139,-1.501 2.701,-2.578 3.84,-4.08 z"
         id="path860" />
      <path
         style="fill:#5f5d5e"
         d="m 438.961,89.76 c 1.899,-2.1 3.899,-4.1 6,-6 -1.139,1.503 -2.701,2.579 -3.84,4.08 -0.865,0.495 -1.295,1.425 -2.16,1.92 z"
         id="path862" />
      <path
         style="fill:#5f5d5e"
         d="m 406.32,90.719 c -0.495,-0.863 -1.426,-1.295 -1.92,-2.158 2.101,1.898 4.101,3.898 6,6 -1.501,-1.139 -2.578,-2.702 -4.08,-3.842 z"
         id="path864" />
      <path
         style="fill:#a19e9f"
         d="m 436.801,91.68 c 0.865,-0.494 1.295,-1.426 2.16,-1.921 -1.219,1.582 -2.861,2.739 -4.08,4.32 -0.786,0.414 -1.134,1.268 -1.92,1.68 1.139,-1.5 2.701,-2.577 3.84,-4.079 z"
         id="path866" />
      <path
         style="fill:#5f5d5e"
         d="m 430.801,97.681 c 1.9,-2.102 3.9,-4.102 6,-6.001 -1.139,1.502 -2.701,2.578 -3.84,4.079 -0.865,0.496 -1.295,1.427 -2.16,1.922 z"
         id="path868" />
      <path
         style="fill:#5f5d5e"
         d="m 414.241,98.88 c -0.495,-0.863 -1.425,-1.295 -1.921,-2.16 2.141,1.78 3.859,3.981 6.001,5.762 -0.001,0.08 0,0.16 0,0.238 -1.502,-1.139 -2.579,-2.701 -4.08,-3.84 z"
         id="path870" />
      <path
         style="fill:#a19e9f"
         d="m 428.641,99.601 c 0.865,-0.495 1.295,-1.426 2.16,-1.92 -1.219,1.581 -2.86,2.737 -4.08,4.318 -0.786,0.414 -1.134,1.268 -1.92,1.682 1.138,-1.502 2.701,-2.579 3.84,-4.08 z"
         id="path872" />
      <path
         style="fill:#5f5d5e"
         d="m 422.641,105.601 c 1.9,-2.102 3.9,-4.102 6,-6 -1.139,1.501 -2.7,2.578 -3.84,4.08 -0.865,0.495 -1.295,1.424 -2.16,1.92 z"
         id="path874" />
    </g>
  </g>
</svg>
