<?xml version="1.0" encoding="UTF-8" standalone="no"?>
<svg
   xmlns:dc="http://purl.org/dc/elements/1.1/"
   xmlns:cc="http://creativecommons.org/ns#"
   xmlns:rdf="http://www.w3.org/1999/02/22-rdf-syntax-ns#"
   xmlns:svg="http://www.w3.org/2000/svg"
   xmlns="http://www.w3.org/2000/svg"
   id="svg8"
   version="1.1"
   viewBox="0 0 16.933333 16.933333"
   height="64"
   width="64">
  <defs
     id="defs2" />
  <metadata
     id="metadata5">
    <rdf:RDF>
      <cc:Work
         rdf:about="">
        <dc:format>image/svg+xml</dc:format>
        <dc:type
           rdf:resource="http://purl.org/dc/dcmitype/StillImage" />
        <dc:title></dc:title>
      </cc:Work>
    </rdf:RDF>
  </metadata>
  <g
     transform="translate(0,-280.06667)"
     id="layer1">
    <g
       transform="matrix(0.04709014,0,0,0.04709014,3.3436268,281.47544)"
       id="g1446">
      <path
         style="fill:#dcdada"
         d="m 199.2,66.24 c 0.202,-1.824 0.313,1.015 0.24,1.68 -0.08,0 -0.16,0 -0.24,0 0,-0.56 0,-1.12 0,-1.68 z"
         id="path1160" />
      <path
         style="fill:#b2afb0"
         d="m 199.2,67.92 c 0.08,0 0.16,0 0.24,0 0,54.321 0,108.64 0,162.96 -0.559,-53.839 -0.08,-108.721 -0.24,-162.96 z"
         id="path1162" />
      <path
         style="fill:#2e2d2d"
         d="m 0,253.201 c 0.789,3.771 0.378,8.741 0.48,13.199 -0.08,0 -0.16,0 -0.24,0 0,-1.439 0,-2.88 0,-4.32 -0.158,-1.842 0.317,-4.316 -0.24,-5.76 0,-1.04 0,-2.08 0,-3.119 z"
         id="path1164" />
      <path
         style="fill:#5a5757"
         d="m 0,256.32 c 0.558,1.442 0.082,3.918 0.24,5.76 -0.08,0 -0.16,0 -0.24,0 0,-1.92 0,-3.84 0,-5.76 z"
         id="path1166" />
      <path
         style="fill:#b2afb0"
         d="m 0,262.08 c 0.08,0 0.16,0 0.24,0 0,1.44 0,2.881 0,4.32 -0.16,3.762 0.319,8.159 -0.24,11.521 0,-5.28 0,-10.561 0,-15.841 z"
         id="path1168" />
      <path
         style="fill:#b2afb0"
         d="m 54.24,298.32 c -0.808,-0.15 -2.229,0.311 -2.64,-0.238 0.808,0.15 2.229,-0.311 2.64,0.238 z"
         id="path1170" />
      <path
         style="fill:#b2afb0"
         d="m 57.6,298.561 c -0.651,-0.147 -1.905,0.306 -2.16,-0.24 1.12,0 2.24,0 3.36,0 0,0.08 0,0.16 0,0.24 -0.4,0 -0.8,0 -1.2,0 z"
         id="path1172" />
      <path
         style="fill:#5a5757"
         d="m 58.8,298.561 c 0,-0.08 0,-0.16 0,-0.24 0.48,0 0.96,0 1.44,0 0.4,0 0.8,0 1.2,0 0,0.08 0,0.16 0,0.24 -0.4,0 -0.8,0 -1.2,0 -0.48,0 -0.96,0 -1.44,0 z"
         id="path1174" />
      <path
         style="fill:#2e2d2d"
         d="m 61.44,298.561 c 0,-0.08 0,-0.16 0,-0.24 1.603,0.158 3.837,-0.315 5.04,0.24 -0.64,0 -1.28,0 -1.92,0 -1.04,0 -2.08,0 -3.12,0 z"
         id="path1176" />
      <path
         style="fill:#b2afb0"
         d="m 163.681,298.561 c 0.332,-0.547 1.67,-0.09 2.399,-0.24 -0.331,0.548 -1.669,0.089 -2.399,0.24 z"
         id="path1178" />
      <path
         style="fill:#dcdada"
         d="m 57.6,298.561 c 0.4,0 0.8,0 1.2,0 0.48,0 0.96,0 1.44,0 0,0.08 0,0.16 0,0.239 -0.808,-0.152 -2.229,0.309 -2.64,-0.239 z"
         id="path1180" />
      <path
         style="fill:#b2afb0"
         d="m 60.24,298.8 c 0,-0.079 0,-0.159 0,-0.239 0.4,0 0.8,0 1.2,0 1.04,0 2.08,0 3.12,0 0,0.08 0,0.16 0,0.239 -0.48,0 -0.96,0 -1.44,0 -0.96,0 -1.92,0 -2.88,0 z"
         id="path1182" />
      <path
         style="fill:#5a5757"
         d="m 64.56,298.8 c 0,-0.079 0,-0.159 0,-0.239 0.64,0 1.28,0 1.92,0 0.56,0 1.12,0 1.68,0 0,0.08 0,0.16 0,0.239 -0.56,0 -1.12,0 -1.68,0 -0.64,0 -1.28,0 -1.92,0 z"
         id="path1184" />
      <path
         style="fill:#2e2d2d"
         d="m 68.16,298.8 c 0,-0.079 0,-0.159 0,-0.239 2.001,0.157 4.638,-0.317 6.24,0.239 -0.8,0 -1.6,0 -2.4,0 -1.28,0 -2.56,0 -3.84,0 z"
         id="path1186" />
      <path
         style="fill:#b2afb0"
         d="m 159.84,298.8 c 0.41,-0.549 1.832,-0.088 2.641,-0.239 -0.412,0.548 -1.833,0.087 -2.641,0.239 z"
         id="path1188" />
      <path
         style="fill:#dcdada"
         d="m 63.12,298.8 c 0.48,0 0.96,0 1.44,0 0.64,0 1.28,0 1.92,0 0,0.08 0,0.16 0,0.24 -1.045,-0.154 -2.713,0.314 -3.36,-0.24 z"
         id="path1190" />
      <path
         style="fill:#b2afb0"
         d="m 66.48,299.041 c 0,-0.08 0,-0.16 0,-0.24 0.56,0 1.12,0 1.68,0 1.28,0 2.56,0 3.84,0 0,0.08 0,0.16 0,0.24 -0.64,0 -1.28,0 -1.92,0 -1.2,0 -2.4,0 -3.6,0 z"
         id="path1192" />
      <path
         style="fill:#5a5757"
         d="m 72,299.041 c 0,-0.08 0,-0.16 0,-0.24 0.8,0 1.6,0 2.4,0 0.8,0 1.6,0 2.4,0 0,0.08 0,0.16 0,0.24 -0.8,0 -1.6,0 -2.4,0 -0.8,0 -1.6,0 -2.4,0 z"
         id="path1194" />
      <path
         style="fill:#2e2d2d"
         d="m 76.8,299.041 c 0,-0.08 0,-0.16 0,-0.24 2.401,0.158 5.438,-0.317 7.44,0.24 -0.96,0 -1.92,0 -2.88,0 -1.52,0 -3.04,0 -4.56,0 z"
         id="path1196" />
      <path
         style="fill:#2e2d2d"
         d="m 148.561,299.041 c 0.964,-0.556 2.956,-0.084 4.318,-0.24 0,0.08 0,0.16 0,0.24 -0.879,0 -1.76,0 -2.639,0 -0.559,0 -1.12,0 -1.679,0 z"
         id="path1198" />
      <path
         style="fill:#5a5757"
         d="m 152.879,299.041 c 0,-0.08 0,-0.16 0,-0.24 0.4,0 0.802,0 1.201,0 0.479,0 0.959,0 1.439,0 0,0.08 0,0.16 0,0.24 -0.48,0 -0.96,0 -1.439,0 -0.399,0 -0.8,0 -1.201,0 z"
         id="path1200" />
      <path
         style="fill:#b2afb0"
         d="m 155.521,299.041 c 0,-0.08 0,-0.16 0,-0.24 1.04,0 2.08,0 3.12,0 -0.256,0.546 -1.51,0.092 -2.16,0.24 -0.32,0 -0.641,0 -0.96,0 z"
         id="path1202" />
      <path
         style="fill:#dcdada"
         d="m 70.08,299.041 c 0.64,0 1.28,0 1.92,0 0.8,0 1.6,0 2.4,0 0,0.08 0,0.16 0,0.239 -1.363,-0.155 -3.356,0.316 -4.32,-0.239 z"
         id="path1204" />
      <path
         style="fill:#b2afb0"
         d="m 74.4,299.28 c 0,-0.079 0,-0.159 0,-0.239 0.8,0 1.6,0 2.4,0 1.52,0 3.04,0 4.56,0 0,0.08 0,0.16 0,0.239 -0.72,0 -1.44,0 -2.16,0 -1.6,0 -3.2,0 -4.8,0 z"
         id="path1206" />
      <path
         style="fill:#5a5757"
         d="m 81.36,299.28 c 0,-0.079 0,-0.159 0,-0.239 0.96,0 1.92,0 2.88,0 0.72,0 1.44,0 2.16,0 0,0.08 0,0.16 0,0.239 -0.72,0 -1.44,0 -2.16,0 -0.96,0 -1.92,0 -2.88,0 z"
         id="path1208" />
      <path
         style="fill:#2e2d2d"
         d="m 86.4,299.28 c 0,-0.079 0,-0.159 0,-0.239 2.081,0.158 4.798,-0.317 6.48,0.239 -0.72,0 -1.44,0 -2.16,0 -1.44,0 -2.88,0 -4.32,0 z"
         id="path1210" />
      <path
         style="fill:#2e2d2d"
         d="m 141.36,299.28 c 1.441,-0.558 3.918,-0.081 5.76,-0.239 0,0.08 0,0.16 0,0.239 -1.119,0 -2.24,0 -3.358,0 -0.803,0 -1.601,0 -2.402,0 z"
         id="path1212" />
      <path
         style="fill:#5a5757"
         d="m 147.12,299.28 c 0,-0.079 0,-0.159 0,-0.239 0.48,0 0.961,0 1.44,0 0.56,0 1.12,0 1.681,0 0,0.08 0,0.16 0,0.239 -0.561,0 -1.121,0 -1.681,0 -0.479,0 -0.959,0 -1.44,0 z"
         id="path1214" />
      <path
         style="fill:#b2afb0"
         d="m 150.241,299.28 c 0,-0.079 0,-0.159 0,-0.239 0.879,0 1.76,0 2.639,0 0.4,0 0.802,0 1.201,0 0,0.08 0,0.16 0,0.239 -0.801,0 -1.601,0 -2.399,0 -0.482,0 -0.961,0 -1.441,0 z"
         id="path1216" />
      <path
         style="fill:#dcdada"
         d="m 154.081,299.28 c 0,-0.079 0,-0.159 0,-0.239 0.479,0 0.959,0 1.439,0 0.318,0 0.641,0 0.96,0 -0.333,0.546 -1.67,0.089 -2.399,0.239 z"
         id="path1218" />
      <path
         style="fill:#dcdada"
         d="m 79.2,299.28 c 0.72,0 1.44,0 2.16,0 0.96,0 1.92,0 2.88,0 0,0.08 0,0.16 0,0.24 -1.602,-0.157 -3.837,0.317 -5.04,-0.24 z"
         id="path1220" />
      <path
         style="fill:#b2afb0"
         d="m 84.24,299.521 c 0,-0.08 0,-0.16 0,-0.24 0.72,0 1.44,0 2.16,0 1.44,0 2.88,0 4.32,0 0,0.08 0,0.16 0,0.24 -0.64,0 -1.28,0 -1.92,0 -1.52,0 -3.04,0 -4.56,0 z"
         id="path1222" />
      <path
         style="fill:#5a5757"
         d="m 90.72,299.521 c 0,-0.08 0,-0.16 0,-0.24 0.72,0 1.44,0 2.16,0 0.56,0 1.12,0 1.68,0 0,0.08 0,0.16 0,0.24 -0.56,0 -1.12,0 -1.68,0 -0.72,0 -1.44,0 -2.16,0 z"
         id="path1224" />
      <path
         style="fill:#5a5757"
         d="m 139.2,299.521 c 0,-0.08 0,-0.16 0,-0.24 0.721,0 1.44,0 2.16,0 0.801,0 1.6,0 2.4,0 0,0.08 0,0.16 0,0.24 -0.801,0 -1.602,0 -2.4,0 -0.719,0 -1.44,0 -2.16,0 z"
         id="path1226" />
      <path
         style="fill:#b2afb0"
         d="m 143.761,299.521 c 0,-0.08 0,-0.16 0,-0.24 1.118,0 2.239,0 3.358,0 0.48,0 0.961,0 1.44,0 0,0.08 0,0.16 0,0.24 -1.04,0 -2.08,0 -3.12,0 -0.56,0 -1.119,0 -1.678,0 z"
         id="path1228" />
      <path
         style="fill:#dcdada"
         d="m 148.561,299.521 c 0,-0.08 0,-0.16 0,-0.24 0.561,0 1.12,0 1.68,0 0.48,0 0.961,0 1.44,0 -0.569,0.552 -2.155,0.086 -3.12,0.24 z"
         id="path1230" />
      <path
         style="fill:#dcdada"
         d="m 88.8,299.761 c 0,-0.08 0,-0.16 0,-0.24 0.64,0 1.28,0 1.92,0 0.72,0 1.44,0 2.16,0 0,0.08 0,0.16 0,0.24 -1.36,0 -2.72,0 -4.08,0 z"
         id="path1232" />
      <path
         style="fill:#b2afb0"
         d="m 92.88,299.761 c 0,-0.08 0,-0.16 0,-0.24 0.56,0 1.12,0 1.68,0 0.64,0 1.28,0 1.92,0 0,0.08 0,0.16 0,0.24 -1.2,0 -2.4,0 -3.6,0 z"
         id="path1234" />
      <path
         style="fill:#5a5757"
         d="m 96.48,299.761 c 0,-0.08 0,-0.16 0,-0.24 2.561,0.159 5.759,-0.318 7.92,0.24 -2.64,0 -5.28,0 -7.92,0 z"
         id="path1236" />
      <path
         style="fill:#5a5757"
         d="m 129.12,299.761 c 1.922,-0.559 4.879,-0.081 7.2,-0.24 0,0.08 0,0.16 0,0.24 -2.4,0 -4.799,0 -7.2,0 z"
         id="path1238" />
      <path
         style="fill:#b2afb0"
         d="m 136.32,299.761 c 0,-0.08 0,-0.16 0,-0.24 0.96,0 1.921,0 2.88,0 0.721,0 1.44,0 2.16,0 0,0.08 0,0.16 0,0.24 -1.679,0 -3.36,0 -5.04,0 z"
         id="path1240" />
      <path
         style="fill:#dcdada"
         d="m 141.36,299.761 c 0,-0.08 0,-0.16 0,-0.24 0.801,0 1.6,0 2.4,0 0.56,0 1.119,0 1.68,0 0,0.08 0,0.16 0,0.24 -1.359,0 -2.719,0 -4.08,0 z"
         id="path1242" />
      <path
         style="fill:#b2afb0"
         d="m 44.4,23.76 c 0.315,-0.085 0.377,-0.423 0.72,-0.479 -0.495,0.865 -1.425,1.295 -1.92,2.16 -0.582,0.379 -1.062,0.859 -1.44,1.44 -0.944,0.576 -1.456,1.584 -2.4,2.16 0.046,-0.194 0.241,-0.239 0.24,-0.48 1.7,-1.501 3.3,-3.101 4.8,-4.801 z"
         id="path1244" />
      <path
         style="fill:#dcdada"
         d="m 39.6,28.56 c 1.5,-1.7 3.1,-3.3 4.8,-4.8 -1.5,1.7 -3.1,3.3 -4.8,4.8 z"
         id="path1246" />
      <path
         style="fill:#dcdada"
         d="m 28.56,45.36 c 0.295,-1.384 0.855,-2.505 1.68,-3.36 -0.426,1.254 -0.985,2.375 -1.68,3.36 z"
         id="path1248" />
      <path
         style="fill:#b2afb0"
         d="m 1.92,240.24 c 0.7,-0.9 1.5,-1.699 2.4,-2.398 -0.162,0.558 -0.797,0.643 -0.96,1.199 -0.204,-0.045 -0.226,0.094 -0.24,0.24 -0.558,0.162 -0.642,0.797 -1.2,0.959 z"
         id="path1250" />
      <path
         style="fill:#2e2d2d"
         d="m 114.721,0 c 1.119,0 2.238,0 3.359,0 14.654,1.265 27.112,4.727 38.16,9.6 1.465,0.934 3.065,1.733 4.799,2.4 0.027,0.454 0.795,0.167 0.722,0.72 C 148.75,5.811 133.286,1.354 114.721,0 Z"
         id="path1252" />
      <path
         style="fill:#5a5757"
         d="m 162.241,12.96 c 0.695,0.184 1.381,0.38 1.68,0.96 -0.697,-0.184 -1.381,-0.379 -1.68,-0.96 z"
         id="path1254" />
      <path
         style="fill:#2e2d2d"
         d="m 169.2,17.28 c 0.752,0.208 1.325,0.594 1.68,1.2 -0.751,-0.208 -1.325,-0.595 -1.68,-1.2 z"
         id="path1256" />
      <path
         style="fill:#2e2d2d"
         d="m 172.801,19.92 c 1.878,1.002 3.195,2.564 4.8,3.84 1.5,1.7 3.101,3.3 4.8,4.8 1.307,1.575 2.842,2.918 3.84,4.8 -4.073,-4.888 -8.58,-9.341 -13.44,-13.44 z"
         id="path1258" />
      <path
         style="fill:#2e2d2d"
         d="m 188.161,36 c -0.605,-0.354 -0.992,-0.928 -1.201,-1.68 0.605,0.355 0.992,0.928 1.201,1.68 z"
         id="path1260" />
      <path
         style="fill:#2e2d2d"
         d="m 190.32,39.36 c -0.581,-0.458 -1.017,-1.063 -1.2,-1.92 0.582,0.459 1.017,1.063 1.2,1.92 z"
         id="path1262" />
      <path
         style="fill:#090b0c"
         d="m 190.32,39.36 c 0.474,0.166 0.64,0.64 0.72,1.2 0.36,1 0.683,2.039 1.44,2.64 0.106,0.613 0.337,1.104 0.72,1.44 2.922,6.758 5.271,14.089 5.76,23.28 0,54.321 0,108.64 0,162.96 0.771,0.75 2.244,0.797 3.602,0.961 4.943,1.455 9.684,3.115 13.92,5.279 1.059,0.381 2.034,0.846 2.641,1.68 1.996,1.765 3.471,4.051 4.08,7.199 0,11.36 0,22.722 0,34.08 -1,2.922 -2.807,5.035 -4.801,6.961 -0.624,0.735 -1.318,1.401 -2.4,1.681 -0.695,0.184 -1.379,0.38 -1.68,0.96 -0.613,0.105 -1.104,0.337 -1.439,0.72 -16.446,5.953 -38.096,6.704 -58.801,8.399 -0.398,0 -0.799,0 -1.199,0 -1.363,0.156 -3.355,-0.314 -4.319,0.24 -0.479,0 -0.96,0 -1.44,0 -1.842,0.158 -4.316,-0.317 -5.76,0.239 -0.72,0 -1.439,0 -2.16,0 -6.342,-0.021 -12.582,0.058 -18.479,0.479 -2.16,0 -4.32,0 -6.48,0 -6.329,-0.391 -12.958,-0.48 -19.68,-0.479 -0.56,0 -1.12,0 -1.68,0 -1.682,-0.558 -4.399,-0.081 -6.48,-0.239 -0.72,0 -1.44,0 -2.16,0 -2.001,-0.559 -5.039,-0.082 -7.44,-0.24 -0.8,0 -1.6,0 -2.4,0 -1.603,-0.557 -4.239,-0.082 -6.24,-0.239 -0.56,0 -1.12,0 -1.68,0 -1.203,-0.558 -3.438,-0.082 -5.04,-0.24 -0.4,0 -0.8,0 -1.2,0 -21.252,-1.706 -43.362,-2.558 -56.88,-12 -0.213,-0.106 -0.429,-0.211 -0.48,-0.479 -1.208,-1.592 -2.105,-3.494 -2.88,-5.521 0,-0.479 0,-0.96 0,-1.438 1.084,-3.236 0.187,-8.454 0.48,-12.48 -0.102,-4.458 0.309,-9.429 -0.48,-13.199 0,-2.561 0,-5.121 0,-7.681 0.635,-1.205 0.866,-2.813 1.44,-4.08 -0.013,-0.413 0.185,-0.614 0.48,-0.72 0.481,-0.398 1.116,-0.645 1.2,-1.439 0.014,-0.146 0.036,-0.285 0.24,-0.24 1.4,-0.92 2.758,-1.883 4.08,-2.881 0.447,-0.031 0.802,-0.156 0.96,-0.479 4.557,-1.924 9.998,-2.963 15.12,-4.32 0,-49.861 0,-102.124 0,-152.64 0,-8.78 0.058,-16.481 1.92,-23.52 1.794,-6.782 4.624,-12.154 7.68,-17.52 0.148,-0.652 0.476,-1.124 0.96,-1.44 1.058,-1.022 1.899,-2.261 2.64,-3.6 0.016,-0.704 0.548,-0.892 0.96,-1.2 1.435,-1.365 2.725,-2.875 4.08,-4.32 0,-0.08 0,-0.16 0,-0.24 2.461,-2.099 4.855,-4.264 7.2,-6.48 0.789,-0.891 1.743,-1.617 2.88,-2.16 1.601,-0.799 3.041,-1.759 4.32,-2.88 1.366,-0.554 2.54,-1.3 3.6,-2.16 1.156,-0.444 2.363,-0.837 3.12,-1.68 0.774,-0.186 1.418,-0.501 1.92,-0.96 C 76.906,4.906 91.002,1.242 107.52,0 c 2.4,0 4.8,0 7.201,0 18.564,1.354 34.029,5.811 47.039,12.72 0.279,-0.039 0.428,0.053 0.48,0.24 0.299,0.581 0.982,0.776 1.68,0.96 0.561,0.08 1.033,0.246 1.199,0.72 0.459,0.581 1.063,1.017 1.92,1.2 0.885,0.315 1.604,0.798 2.16,1.44 0.354,0.604 0.93,0.992 1.68,1.2 0.828,0.292 1.447,0.793 1.922,1.44 4.859,4.099 9.367,8.552 13.438,13.44 0.353,0.209 0.761,0.359 0.72,0.96 0.209,0.751 0.596,1.325 1.201,1.68 0.483,0.316 0.812,0.788 0.959,1.44 0.185,0.856 0.62,1.461 1.201,1.92 z"
         id="path1264" />
      <path
         style="fill:#2e2d2d"
         d="m 192.48,43.2 c -0.759,-0.601 -1.08,-1.641 -1.44,-2.64 0.701,0.339 0.762,1.318 1.201,1.92 0.127,0.193 0.25,0.39 0.239,0.72 z"
         id="path1266" />
      <path
         style="fill:#2e2d2d"
         d="m 193.2,44.64 c 0.262,0.059 0.163,0.477 0.48,0.48 2.59,6.21 5.062,12.537 5.279,21.12 0,0.56 0,1.12 0,1.68 -0.488,-9.191 -2.837,-16.522 -5.759,-23.28 z"
         id="path1268" />
      <path
         style="fill:#5a5757"
         d="m 199.2,67.92 c 0.16,54.239 -0.318,109.121 0.24,162.96 0.996,0.443 2.5,0.381 3.359,0.961 -0.079,0 -0.159,0 -0.239,0 -1.356,-0.164 -2.83,-0.211 -3.601,-0.961 0,-54.32 0,-108.639 0,-162.96 0,-0.56 0,-1.12 0,-1.68 0.08,0 0.16,0 0.24,0 10e-4,0.56 10e-4,1.12 10e-4,1.68 z"
         id="path1270" />
      <path
         style="fill:#2e2d2d"
         d="m 202.561,231.841 c 0.08,0 0.16,0 0.24,0 3.82,0.578 6.762,2.037 10.08,3.119 0.984,0.694 2.104,1.254 3.359,1.681 0.045,0.194 0.24,0.239 0.239,0.479 -4.234,-2.163 -8.975,-3.824 -13.918,-5.279 z"
         id="path1272" />
      <path
         style="fill:#2e2d2d"
         d="m 219.12,238.8 c 2.166,1.035 3.133,3.27 4.08,5.521 0,0.562 0,1.12 0,1.681 -0.61,-3.151 -2.084,-5.438 -4.08,-7.202 z"
         id="path1274" />
      <path
         style="fill:#2e2d2d"
         d="m 223.2,280.08 c 0,0.24 0,0.48 0,0.721 -0.541,1.299 -1.035,2.644 -1.92,3.601 -0.98,0.779 -1.859,1.66 -2.64,2.642 -0.08,0 -0.16,0 -0.24,0 1.995,-1.929 3.802,-4.043 4.8,-6.964 z"
         id="path1276" />
      <path
         style="fill:#2e2d2d"
         d="m 214.32,289.681 c 0.3,-0.58 0.983,-0.776 1.681,-0.96 -0.066,0.493 -0.642,0.479 -0.961,0.72 -0.192,0.126 -0.39,0.25 -0.72,0.24 z"
         id="path1278" />
      <path
         style="fill:#2e2d2d"
         d="m 154.081,298.8 c 20.705,-1.695 42.354,-2.446 58.801,-8.399 -0.061,0.261 -0.479,0.163 -0.48,0.479 -13.006,4.914 -30.052,5.789 -46.32,7.439 -0.729,0.15 -2.066,-0.307 -2.398,0.24 -0.4,0 -0.801,0 -1.2,0 -0.81,0.152 -2.229,-0.311 -2.642,0.24 -0.398,0 -0.799,0 -1.198,0 -1.04,0 -2.08,0 -3.12,0 -0.484,0.001 -0.963,0.001 -1.443,0.001 z"
         id="path1280" />
      <path
         style="fill:#2e2d2d"
         d="m 120.721,299.761 c 5.896,-0.424 12.138,-0.502 18.479,-0.48 0,0.08 0,0.16 0,0.24 -0.959,0 -1.92,0 -2.88,0 -2.321,0.159 -5.278,-0.318 -7.2,0.24 -2.8,0 -5.599,0 -8.399,0 z"
         id="path1282" />
      <path
         style="fill:#2e2d2d"
         d="m 94.56,299.521 c 0,-0.08 0,-0.16 0,-0.24 6.722,-0.001 13.352,0.09 19.681,0.48 -3.281,0 -6.561,0 -9.841,0 -2.162,-0.559 -5.359,-0.081 -7.92,-0.24 -0.64,0 -1.28,0 -1.92,0 z"
         id="path1284" />
      <path
         style="fill:#2e2d2d"
         d="m 3.36,286.32 c 13.518,9.442 35.628,10.293 56.88,12 -0.48,0 -0.96,0 -1.44,0 -1.12,0 -2.24,0 -3.36,0 -0.4,0 -0.8,0 -1.2,0 -0.411,-0.549 -1.832,-0.088 -2.64,-0.238 -17.664,-1.617 -35.378,-3.184 -47.28,-10.562 -0.162,-0.558 -0.798,-0.642 -0.96,-1.2 z"
         id="path1286" />
      <path
         style="fill:#2e2d2d"
         d="m 0,280.32 c 0.774,2.025 1.671,3.93 2.88,5.521 -0.558,-0.163 -0.643,-0.799 -1.2,-0.961 -0.538,-1.223 -1.231,-2.289 -1.68,-3.601 0,-0.319 0,-0.638 0,-0.959 z"
         id="path1288" />
      <path
         style="fill:#5a5757"
         d="m 0.48,266.4 c -0.293,4.025 0.604,9.244 -0.48,12.48 0,-0.32 0,-0.641 0,-0.961 0.56,-3.36 0.081,-7.76 0.24,-11.521 0.08,0.002 0.16,0.002 0.24,0.002 z"
         id="path1290" />
      <path
         style="fill:#2e2d2d"
         d="m 1.44,241.44 c -0.574,1.267 -0.805,2.875 -1.44,4.08 0,-0.399 0,-0.8 0,-1.2 0.589,-0.85 0.526,-2.354 1.44,-2.88 z"
         id="path1292" />
      <path
         style="fill:#2e2d2d"
         d="m 3.12,239.28 c -0.084,0.796 -0.719,1.041 -1.2,1.44 0,-0.16 0,-0.32 0,-0.48 0.558,-0.162 0.642,-0.797 1.2,-0.96 z"
         id="path1294" />
      <path
         style="fill:#2e2d2d"
         d="m 7.44,236.16 c -1.322,0.998 -2.68,1.961 -4.08,2.881 0.163,-0.558 0.798,-0.643 0.96,-1.199 0.16,0 0.32,0 0.48,0 0.389,-0.731 1.218,-1.022 1.92,-1.44 0.193,-0.129 0.389,-0.252 0.72,-0.242 z"
         id="path1296" />
      <path
         style="fill:#2e2d2d"
         d="m 28.56,45.36 c 0.695,-0.985 1.254,-2.106 1.68,-3.36 1.156,-1.244 1.602,-3.198 2.88,-4.32 -3.056,5.366 -5.886,10.738 -7.68,17.52 -1.862,7.039 -1.92,14.74 -1.92,23.52 0,50.516 0,102.78 0,152.64 -5.122,1.356 -10.563,2.396 -15.12,4.32 0.066,-0.494 0.894,-0.228 0.96,-0.72 3.978,-1.543 8.5,-2.541 12.96,-3.602 0.502,0.102 0.636,-0.164 0.96,-0.24 0,-54.959 0,-109.919 0,-164.879 0.506,-8.213 2.737,-14.702 5.28,-20.879 z"
         id="path1298" />
      <path
         style="fill:#2e2d2d"
         d="m 36.72,32.64 c -0.741,1.339 -1.583,2.578 -2.64,3.6 0.653,-1.427 1.588,-2.572 2.64,-3.6 z"
         id="path1300" />
      <path
         style="fill:#2e2d2d"
         d="m 37.68,31.44 c 0.109,-1.011 1.135,-1.105 1.44,-1.92 1.023,-0.657 1.617,-1.743 2.64,-2.4 -1.355,1.444 -2.645,2.955 -4.08,4.32 z"
         id="path1302" />
      <path
         style="fill:#2e2d2d"
         d="m 48.96,20.4 c -2.344,2.216 -4.739,4.381 -7.2,6.48 0.378,-0.581 0.858,-1.061 1.44,-1.44 0.9,-0.699 1.7,-1.5 2.4,-2.4 1.17,-0.831 1.98,-2.02 3.36,-2.64 z"
         id="path1304" />
      <path
         style="fill:#2e2d2d"
         d="m 56.16,15.36 c -1.279,1.121 -2.719,2.081 -4.32,2.88 1.202,-1.198 2.641,-2.159 4.32,-2.88 z"
         id="path1306" />
      <path
         style="fill:#2e2d2d"
         d="m 59.76,13.2 c 0.493,-0.788 1.644,-0.917 2.4,-1.44 0.193,-0.127 0.39,-0.25 0.72,-0.24 -0.757,0.843 -1.964,1.236 -3.12,1.68 z"
         id="path1308" />
      <path
         style="fill:#dcdada"
         d="m 212.881,234.96 c 1.384,0.295 2.505,0.854 3.359,1.681 -1.254,-0.427 -2.374,-0.986 -3.359,-1.681 z"
         id="path1310" />
      <path
         style="fill:#dcdada"
         d="m 181.681,27.36 c -0.979,-0.779 -1.86,-1.659 -2.642,-2.64 0.982,0.78 1.861,1.66 2.642,2.64 z"
         id="path1312" />
      <path
         style="fill:#b2afb0"
         d="m 181.92,27.84 c -1.301,-1.1 -2.5,-2.3 -3.601,-3.6 0.343,0.057 0.405,0.395 0.72,0.479 0.78,0.98 1.66,1.86 2.642,2.64 -0.001,0.242 0.194,0.287 0.239,0.481 z"
         id="path1314" />
      <path
         style="fill:#dcdada"
         d="m 156.241,9.6 c 1.864,0.534 3.465,1.334 4.799,2.4 -1.733,-0.667 -3.334,-1.466 -4.799,-2.4 z"
         id="path1316" />
      <path
         style="fill:#b2afb0"
         d="m 62.16,11.76 c 0.757,-0.843 1.964,-1.236 3.12,-1.68 -0.06,0.261 -0.478,0.163 -0.48,0.48 -0.502,0.458 -1.146,0.774 -1.92,0.96 -0.33,-0.01 -0.527,0.113 -0.72,0.24 z"
         id="path1318" />
      <path
         style="fill:#5a5757"
         d="m 56.16,15.36 c 0.977,-0.943 2.18,-1.66 3.6,-2.16 -1.06,0.86 -2.234,1.606 -3.6,2.16 z"
         id="path1320" />
      <path
         style="fill:#5a5757"
         d="m 165.12,14.64 c 0.856,0.184 1.461,0.619 1.92,1.2 -0.856,-0.183 -1.461,-0.619 -1.92,-1.2 z"
         id="path1322" />
      <path
         style="fill:#5a5757"
         d="m 45.12,23.28 c 0.241,0 0.286,-0.195 0.48,-0.24 -0.7,0.9 -1.5,1.701 -2.4,2.4 0.495,-0.865 1.425,-1.295 1.92,-2.16 z"
         id="path1324" />
      <path
         style="fill:#5a5757"
         d="m 182.4,28.56 c -1.7,-1.5 -3.3,-3.1 -4.8,-4.8 0.343,0.057 0.404,0.396 0.72,0.48 1.101,1.3 2.3,2.5 3.601,3.6 0.057,0.343 0.394,0.405 0.479,0.72 z"
         id="path1326" />
      <path
         style="fill:#5a5757"
         d="m 39.36,29.04 c 0.944,-0.576 1.457,-1.584 2.4,-2.16 0,0.08 0,0.16 0,0.24 -1.023,0.657 -1.617,1.743 -2.64,2.4 -10e-4,-0.241 0.194,-0.286 0.24,-0.48 z"
         id="path1328" />
      <path
         style="fill:#b2afb0"
         d="m 192.48,43.2 c 0.011,-0.331 -0.112,-0.527 -0.239,-0.72 0.758,0.601 1.079,1.641 1.439,2.64 -0.317,-0.003 -0.221,-0.421 -0.48,-0.48 -0.383,-0.336 -0.614,-0.827 -0.72,-1.44 z"
         id="path1330" />
      <path
         style="fill:#b2afb0"
         d="m 22.32,231.36 c 0.041,-0.278 0.379,-0.261 0.72,-0.239 0.16,-54.877 -0.32,-110.402 0.24,-164.88 0,54.96 0,109.919 0,164.88 -0.324,0.075 -0.458,0.341 -0.96,0.239 z"
         id="path1332" />
      <path
         style="fill:#b2afb0"
         d="m 6.72,236.4 c 0.601,-0.759 1.64,-1.079 2.64,-1.439 -0.066,0.494 -0.894,0.227 -0.96,0.721 -0.158,0.322 -0.513,0.447 -0.96,0.479 -0.331,-0.011 -0.527,0.112 -0.72,0.239 z"
         id="path1334" />
      <path
         style="fill:#b2afb0"
         d="m 1.68,284.88 c 0.557,0.162 0.642,0.798 1.2,0.961 0.051,0.269 0.267,0.373 0.48,0.479 0.163,0.559 0.798,0.643 0.96,1.2 -0.98,-0.778 -1.861,-1.659 -2.64,-2.64 z"
         id="path1336" />
      <path
         style="fill:#5a5757"
         d="m 218.641,287.041 c 0.779,-0.979 1.658,-1.86 2.641,-2.641 0,0.08 0,0.16 0,0.24 -0.9,0.699 -1.701,1.499 -2.4,2.4 -0.081,10e-4 -0.161,10e-4 -0.241,10e-4 z"
         id="path1338" />
      <path
         style="fill:#b2afb0"
         d="m 218.881,287.041 c 0.699,-0.9 1.498,-1.701 2.398,-2.399 -0.698,0.899 -1.497,1.699 -2.398,2.399 z"
         id="path1340" />
      <path
         style="fill:#b2afb0"
         d="m 214.32,289.681 c 0.33,0.011 0.527,-0.113 0.72,-0.24 -0.601,0.76 -1.64,1.08 -2.64,1.439 0.003,-0.316 0.421,-0.219 0.479,-0.479 0.338,-0.383 0.829,-0.614 1.441,-0.72 z"
         id="path1342" />
      <path
         style="fill:#2e2d2d"
         d="M 65.28,10.08 C 76.373,4.853 89.187,1.347 104.16,0 c 1.12,0 2.24,0 3.36,0 -16.518,1.242 -30.614,4.906 -42.72,10.56 0.003,-0.317 0.421,-0.219 0.48,-0.48 z"
         id="path1344" />
    </g>
  </g>
</svg>
