<?xml version="1.0" encoding="UTF-8" standalone="no"?>
<svg
   xmlns:dc="http://purl.org/dc/elements/1.1/"
   xmlns:cc="http://creativecommons.org/ns#"
   xmlns:rdf="http://www.w3.org/1999/02/22-rdf-syntax-ns#"
   xmlns:svg="http://www.w3.org/2000/svg"
   xmlns="http://www.w3.org/2000/svg"
   id="svg8"
   version="1.1"
   viewBox="0 0 16.933333 16.933333"
   height="64"
   width="64">
  <defs
     id="defs2" />
  <metadata
     id="metadata5">
    <rdf:RDF>
      <cc:Work
         rdf:about="">
        <dc:format>image/svg+xml</dc:format>
        <dc:type
           rdf:resource="http://purl.org/dc/dcmitype/StillImage" />
        <dc:title></dc:title>
      </cc:Work>
    </rdf:RDF>
  </metadata>
  <g
     transform="translate(0,-280.06667)"
     id="layer1">
    <g
       transform="matrix(0.0264882,0,0,0.0264882,5.3492194,282.13032)"
       id="g2437">
      <path
         style="fill:#d3d3d3"
         d="m 145.932,-0.465 c 2.801,-0.559 6.64,-0.081 9.84,-0.24 0,0.08 0,0.16 0,0.24 -0.159,0 -0.318,0 -0.479,0 -2.08,0 -4.16,0 -6.24,0 -1.041,0 -2.081,0 -3.121,0 z"
         id="path1845" />
      <path
         style="fill:#949494"
         d="m 155.771,-0.465 c 0,-0.08 0,-0.16 0,-0.24 1.04,0 2.08,0 3.12,0 1.04,0 2.08,0 3.119,0 0,0.08 0,0.16 0,0.24 -2.078,0 -4.158,0 -6.239,0 z"
         id="path1847" />
      <path
         style="fill:#d3d3d3"
         d="m 133.211,-0.225 c 2.722,-0.559 6.479,-0.081 9.601,-0.24 0,0.08 0,0.16 0,0.24 -0.159,0 -0.319,0 -0.479,0 -2,0 -4,0 -6,0 -1.041,0 -2.081,0 -3.122,0 z"
         id="path1849" />
      <path
         style="fill:#949494"
         d="m 142.812,-0.225 c 0,-0.08 0,-0.16 0,-0.24 1.04,0 2.08,0 3.12,0 1.04,0 2.08,0 3.119,0 0,0.08 0,0.16 0,0.24 -2.079,0 -4.159,0 -6.239,0 z"
         id="path1851" />
      <path
         style="fill:#4b4b4b"
         d="m 149.051,-0.225 c 0,-0.08 0,-0.16 0,-0.24 2.08,0 4.16,0 6.24,0 0,0.08 0,0.16 0,0.24 -1.92,0 -3.84,0 -5.76,0 -0.159,0 -0.32,0 -0.48,0 z"
         id="path1853" />
      <path
         style="fill:#252424"
         d="m 155.292,-0.225 c 0,-0.08 0,-0.16 0,-0.24 0.16,0 0.32,0 0.479,0 2.08,0 4.16,0 6.24,0 0.079,0 0.159,0 0.239,0 -1.839,0.559 -4.716,0.082 -6.958,0.24 z"
         id="path1855" />
      <path
         style="fill:#d3d3d3"
         d="m 120.252,0.016 c 2.721,-0.56 6.479,-0.081 9.6,-0.24 0,0.08 0,0.16 0,0.24 -0.08,0 -0.16,0 -0.239,0 -2.079,0 -4.159,0 -6.239,0 -1.041,0 -2.082,0 -3.122,0 z"
         id="path1857" />
      <path
         style="fill:#949494"
         d="m 129.852,0.016 c 0,-0.08 0,-0.16 0,-0.24 1.12,0 2.24,0 3.359,0 1.041,0 2.08,0 3.121,0 0,0.08 0,0.16 0,0.24 -2.16,0 -4.32,0 -6.48,0 z"
         id="path1859" />
      <path
         style="fill:#252424"
         d="m 142.333,0.016 c 0,-0.08 0,-0.16 0,-0.24 0.16,0 0.319,0 0.479,0 2.08,0 4.16,0 6.24,0 0.16,0 0.32,0 0.48,0 -1.922,0.557 -4.879,0.08 -7.199,0.24 z"
         id="path1861" />
      <path
         style="fill:#d3d3d3"
         d="m 107.292,0.255 c 2.801,-0.559 6.639,-0.081 9.839,-0.24 0,0.08 0,0.16 0,0.24 -0.08,0 -0.159,0 -0.239,0 -2.08,0 -4.16,0 -6.24,0 -1.12,0 -2.24,0 -3.36,0 z"
         id="path1863" />
      <path
         style="fill:#949494"
         d="m 117.131,0.255 c 0,-0.08 0,-0.16 0,-0.24 1.041,0 2.08,0 3.121,0 1.039,0 2.08,0 3.119,0 0,0.08 0,0.16 0,0.24 -2.079,0 -4.16,0 -6.24,0 z"
         id="path1865" />
      <path
         style="fill:#4b4b4b"
         d="m 123.372,0.255 c 0,-0.08 0,-0.16 0,-0.24 2.08,0 4.16,0 6.24,0 0,0.08 0,0.16 0,0.24 -2,0 -4,0 -6,0 -0.08,0 -0.16,0 -0.24,0 z"
         id="path1867" />
      <path
         style="fill:#252424"
         d="m 129.612,0.255 c 0,-0.08 0,-0.16 0,-0.24 0.079,0 0.159,0 0.239,0 2.16,0 4.319,0 6.479,0 0.08,0 0.16,0 0.24,0 -1.84,0.559 -4.716,0.082 -6.958,0.24 z"
         id="path1869" />
      <path
         style="fill:#d3d3d3"
         d="m 94.572,0.495 c 2.721,-0.559 6.479,-0.081 9.6,-0.24 0,0.08 0,0.16 0,0.24 -0.16,0 -0.32,0 -0.48,0 -2,0 -4,0 -6,0 -1.04,0 -2.08,0 -3.12,0 z"
         id="path1871" />
      <path
         style="fill:#949494"
         d="m 104.172,0.495 c 0,-0.08 0,-0.16 0,-0.24 1.04,0 2.08,0 3.12,0 1.12,0 2.24,0 3.36,0 0,0.08 0,0.16 0,0.24 -2.16,0 -4.32,0 -6.48,0 z"
         id="path1873" />
      <path
         style="fill:#4b4b4b"
         d="m 110.652,0.495 c 0,-0.08 0,-0.16 0,-0.24 2.08,0 4.16,0 6.24,0 0,0.08 0,0.16 0,0.24 -2,0 -4,0 -6,0 -0.08,0 -0.16,0 -0.24,0 z"
         id="path1875" />
      <path
         style="fill:#252424"
         d="m 116.892,0.495 c 0,-0.08 0,-0.16 0,-0.24 0.08,0 0.159,0 0.239,0 2.08,0 4.16,0 6.24,0 0.08,0 0.16,0 0.24,0 -1.761,0.558 -4.558,0.082 -6.719,0.24 z"
         id="path1877" />
      <path
         style="fill:#949494"
         d="m 91.452,0.735 c 0,-0.08 0,-0.16 0,-0.24 1.04,0 2.08,0 3.12,0 1.04,0 2.08,0 3.12,0 0,0.08 0,0.16 0,0.24 -2.08,0 -4.16,0 -6.24,0 z"
         id="path1879" />
      <path
         style="fill:#4b4b4b"
         d="m 97.692,0.735 c 0,-0.08 0,-0.16 0,-0.24 2,0 4,0 6,0 0,0.08 0,0.16 0,0.24 -1.92,0 -3.84,0 -5.76,0 -0.08,0 -0.16,0 -0.24,0 z"
         id="path1881" />
      <path
         style="fill:#252424"
         d="m 103.692,0.735 c 0,-0.08 0,-0.16 0,-0.24 0.16,0 0.32,0 0.48,0 2.16,0 4.32,0 6.48,0 0.08,0 0.16,0 0.24,0 -1.922,0.559 -4.879,0.082 -7.2,0.24 z"
         id="path1883" />
      <path
         style="fill:#4b4b4b"
         d="m 84.972,0.976 c 0,-0.08 0,-0.16 0,-0.24 2,0 4,0 6,0 0,0.08 0,0.16 0,0.24 -1.92,0 -3.84,0 -5.76,0 -0.08,0 -0.16,0 -0.24,0 z"
         id="path1885" />
      <path
         style="fill:#252424"
         d="m 90.972,0.976 c 0,-0.08 0,-0.16 0,-0.24 0.16,0 0.32,0 0.48,0 2.08,0 4.16,0 6.24,0 0.08,0 0.16,0 0.24,0 -1.842,0.557 -4.719,0.08 -6.96,0.24 z"
         id="path1887" />
      <path
         style="fill:#252424"
         d="m 82.572,2.175 c 0,-0.4 0,-0.8 0,-1.2 0.8,0 1.6,0 2.4,0 0.08,0 0.16,0 0.24,0 -0.894,0.466 -2.862,-0.143 -2.64,1.44 0,-0.08 0,-0.16 0,-0.24 z"
         id="path1889" />
      <path
         style="fill:#4b4b4b"
         d="m 82.332,2.175 c 0.08,0 0.16,0 0.24,0 0,0.08 0,0.16 0,0.24 0,2.4 0,4.8 0,7.2 -0.08,0 -0.16,0 -0.24,0 0,-2.48 0,-4.96 0,-7.44 z"
         id="path1891" />
      <path
         style="fill:#252424"
         d="m 82.332,9.615 c 0.08,0 0.16,0 0.24,0 -0.159,2.801 0.319,6.239 -0.24,8.64 0,-0.08 0,-0.16 0,-0.24 0,-2.64 0,-5.28 0,-7.92 0,-0.159 0,-0.32 0,-0.48 z"
         id="path1893" />
      <path
         style="fill:#949494"
         d="m 82.092,10.095 c 0.08,0 0.16,0 0.24,0 0,2.64 0,5.28 0,7.92 -0.08,0 -0.16,0 -0.24,0 0,-1.36 0,-2.72 0,-4.08 0,-1.28 0,-2.56 0,-3.84 z"
         id="path1895" />
      <path
         style="fill:#d3d3d3"
         d="m 82.092,13.936 c 0,1.36 0,2.72 0,4.08 0,2.479 0,4.96 0,7.439 0,0.16 0,0.32 0,0.48 -0.08,0 -0.16,0 -0.24,0 0.159,-3.92 -0.32,-8.479 0.24,-11.999 z"
         id="path1897" />
      <path
         style="fill:#4b4b4b"
         d="m 82.092,18.016 c 0.08,0 0.16,0 0.24,0 0,0.08 0,0.16 0,0.24 0,2.4 0,4.8 0,7.2 -0.08,0 -0.16,0 -0.24,0 0,-2.48 0,-4.961 0,-7.44 z"
         id="path1899" />
      <path
         style="fill:#252424"
         d="m 82.092,25.455 c 0.08,0 0.16,0 0.24,0 -0.159,2.721 0.319,6.079 -0.24,8.4 0,-0.08 0,-0.16 0,-0.24 0,-2.56 0,-5.12 0,-7.68 0,-0.16 0,-0.32 0,-0.48 z"
         id="path1901" />
      <path
         style="fill:#949494"
         d="m 81.852,25.936 c 0.08,0 0.16,0 0.24,0 0,2.56 0,5.12 0,7.68 -0.08,0 -0.16,0 -0.24,0 0,-1.28 0,-2.56 0,-3.84 0,-1.281 0,-2.561 0,-3.84 z"
         id="path1903" />
      <path
         style="fill:#d3d3d3"
         d="m 81.852,29.775 c 0,1.28 0,2.56 0,3.84 0,2.56 0,5.12 0,7.68 0,0.08 0,0.16 0,0.24 -0.08,0 -0.16,0 -0.24,0 0.159,-3.84 -0.32,-8.319 0.24,-11.76 z"
         id="path1905" />
      <path
         style="fill:#252424"
         d="m 81.852,41.535 c 0,-0.08 0,-0.16 0,-0.24 0.08,0 0.16,0 0.24,0 -0.159,2.721 0.319,6.079 -0.24,8.4 0,-0.08 0,-0.16 0,-0.24 0,-2.64 0,-5.28 0,-7.92 z"
         id="path1907" />
      <path
         style="fill:#949494"
         d="m 81.612,41.535 c 0.08,0 0.16,0 0.24,0 0,2.64 0,5.28 0,7.92 -0.08,0 -0.16,0 -0.24,0 0,-1.28 0,-2.56 0,-3.84 0,-1.36 0,-2.719 0,-4.08 z"
         id="path1909" />
      <path
         style="fill:#d3d3d3"
         d="m 81.612,45.615 c 0,1.28 0,2.56 0,3.84 0,2.56 0,5.12 0,7.68 0,0.08 0,0.16 0,0.24 -0.08,0 -0.16,0 -0.24,0 0.159,-3.84 -0.319,-8.319 0.24,-11.76 z"
         id="path1911" />
      <path
         style="fill:#4b4b4b"
         d="m 81.612,49.455 c 0.08,0 0.16,0 0.24,0 0,0.08 0,0.16 0,0.24 0,2.48 0,4.96 0,7.44 -0.08,0 -0.16,0 -0.24,0 0,-2.56 0,-5.12 0,-7.68 z"
         id="path1913" />
      <path
         style="fill:#252424"
         d="m 81.612,57.375 c 0,-0.08 0,-0.16 0,-0.24 0.08,0 0.16,0 0.24,0 -0.159,2.721 0.319,6.079 -0.24,8.4 0,-0.08 0,-0.16 0,-0.24 0,-2.64 0,-5.28 0,-7.92 z"
         id="path1915" />
      <path
         style="fill:#949494"
         d="m 81.372,57.375 c 0.08,0 0.16,0 0.24,0 0,2.64 0,5.28 0,7.92 -0.08,0 -0.16,0 -0.24,0 0,-1.36 0,-2.72 0,-4.08 0,-1.279 0,-2.56 0,-3.84 z"
         id="path1917" />
      <path
         style="fill:#d3d3d3"
         d="m 81.372,61.215 c 0,1.36 0,2.72 0,4.08 0,2.56 0,5.12 0,7.68 0,0.08 0,0.16 0,0.24 -0.08,0 -0.16,0 -0.24,0 0.16,-3.92 -0.32,-8.479 0.24,-12 z"
         id="path1919" />
      <path
         style="fill:#4b4b4b"
         d="m 81.372,65.295 c 0.08,0 0.16,0 0.24,0 0,0.08 0,0.16 0,0.24 0,2.48 0,4.96 0,7.44 -0.08,0 -0.16,0 -0.24,0 0,-2.559 0,-5.12 0,-7.68 z"
         id="path1921" />
      <path
         style="fill:#252424"
         d="m 81.372,73.215 c 0,-0.08 0,-0.16 0,-0.24 0.08,0 0.16,0 0.24,0 -0.159,2.641 0.319,5.918 -0.24,8.16 0,-2.64 0,-5.28 0,-7.92 z"
         id="path1923" />
      <path
         style="fill:#949494"
         d="m 81.132,73.215 c 0.08,0 0.16,0 0.24,0 0,2.64 0,5.28 0,7.92 -0.08,0 -0.16,0 -0.24,0 0,-1.36 0,-2.72 0,-4.08 0,-1.28 0,-2.56 0,-3.84 z"
         id="path1925" />
      <path
         style="fill:#4b4b4b"
         d="m 81.132,81.135 c 0.08,0 0.16,0 0.24,0 0,1.68 0,3.36 0,5.04 -0.08,0 -0.16,0 -0.24,0 0,-1.68 0,-3.36 0,-5.04 z"
         id="path1927" />
      <path
         style="fill:#d3d3d3"
         d="m 57.852,86.896 c 2.641,-0.559 6.319,-0.081 9.36,-0.24 0,0.08 0,0.16 0,0.24 -0.16,0 -0.32,0 -0.48,0 -1.92,0 -3.84,0 -5.76,0 -1.04,0 -2.08,0 -3.12,0 z"
         id="path1929" />
      <path
         style="fill:#949494"
         d="m 67.212,86.896 c 0,-0.08 0,-0.16 0,-0.24 0.96,0 1.92,0 2.88,0 1.04,0 2.08,0 3.12,0 0,0.08 0,0.16 0,0.24 -2,0 -4,0 -6,0 z"
         id="path1931" />
      <path
         style="fill:#4b4b4b"
         d="m 73.212,86.896 c 0,-0.08 0,-0.16 0,-0.24 2,0 4,0 6,0 0,0.08 0,0.16 0,0.24 -1.92,0 -3.84,0 -5.76,0 -0.08,0 -0.16,0 -0.24,0 z"
         id="path1933" />
      <path
         style="fill:#d3d3d3"
         d="m 45.372,87.135 c 2.641,-0.559 6.319,-0.081 9.36,-0.24 0,0.08 0,0.16 0,0.24 -0.16,0 -0.32,0 -0.48,0 -1.92,0 -3.84,0 -5.76,0 -1.04,0 -2.08,0 -3.12,0 z"
         id="path1935" />
      <path
         style="fill:#949494"
         d="m 54.732,87.135 c 0,-0.08 0,-0.16 0,-0.24 1.04,0 2.08,0 3.12,0 1.04,0 2.08,0 3.12,0 0,0.08 0,0.16 0,0.24 -2.08,0 -4.16,0 -6.24,0 z"
         id="path1937" />
      <path
         style="fill:#4b4b4b"
         d="m 60.972,87.135 c 0,-0.08 0,-0.16 0,-0.24 1.92,0 3.84,0 5.76,0 0,0.08 0,0.16 0,0.24 -1.84,0 -3.68,0 -5.52,0 -0.08,0 -0.16,0 -0.24,0 z"
         id="path1939" />
      <path
         style="fill:#252424"
         d="m 66.732,87.135 c 0,-0.08 0,-0.16 0,-0.24 0.16,0 0.32,0 0.48,0 2,0 4,0 6,0 0.08,0 0.16,0 0.24,0 -1.762,0.559 -4.559,0.082 -6.72,0.24 z"
         id="path1941" />
      <path
         style="fill:#d3d3d3"
         d="m 32.892,87.375 c 2.641,-0.559 6.319,-0.081 9.36,-0.24 0,0.08 0,0.16 0,0.24 -0.08,0 -0.16,0 -0.24,0 -2,0 -4,0 -6,0 -1.04,0 -2.08,0 -3.12,0 z"
         id="path1943" />
      <path
         style="fill:#949494"
         d="m 42.252,87.375 c 0,-0.08 0,-0.16 0,-0.24 1.04,0 2.08,0 3.12,0 1.04,0 2.08,0 3.12,0 0,0.08 0,0.16 0,0.24 -2.08,0 -4.16,0 -6.24,0 z"
         id="path1945" />
      <path
         style="fill:#4b4b4b"
         d="m 48.492,87.375 c 0,-0.08 0,-0.16 0,-0.24 1.92,0 3.84,0 5.76,0 0,0.08 0,0.16 0,0.24 -1.84,0 -3.68,0 -5.52,0 -0.08,0 -0.16,0 -0.24,0 z"
         id="path1947" />
      <path
         style="fill:#252424"
         d="m 54.252,87.375 c 0,-0.08 0,-0.16 0,-0.24 0.16,0 0.32,0 0.48,0 2.08,0 4.16,0 6.24,0 0.08,0 0.16,0 0.24,0 -1.842,0.558 -4.719,0.082 -6.96,0.24 z"
         id="path1949" />
      <path
         style="fill:#d3d3d3"
         d="m 20.412,87.615 c 2.641,-0.559 6.319,-0.081 9.36,-0.24 0,0.08 0,0.16 0,0.24 -0.08,0 -0.16,0 -0.24,0 -2,0 -4,0 -6,0 -1.04,0 -2.08,0 -3.12,0 z"
         id="path1951" />
      <path
         style="fill:#949494"
         d="m 29.772,87.615 c 0,-0.08 0,-0.16 0,-0.24 1.04,0 2.08,0 3.12,0 1.04,0 2.08,0 3.12,0 0,0.08 0,0.16 0,0.24 -2.08,0 -4.16,0 -6.24,0 z"
         id="path1953" />
      <path
         style="fill:#4b4b4b"
         d="m 36.012,87.615 c 0,-0.08 0,-0.16 0,-0.24 2,0 4,0 6,0 0,0.08 0,0.16 0,0.24 -1.92,0 -3.84,0 -5.76,0 -0.08,0 -0.16,0 -0.24,0 z"
         id="path1955" />
      <path
         style="fill:#252424"
         d="m 42.012,87.615 c 0,-0.08 0,-0.16 0,-0.24 0.08,0 0.16,0 0.24,0 2.08,0 4.16,0 6.24,0 0.08,0 0.16,0 0.24,0 -1.762,0.559 -4.559,0.082 -6.72,0.24 z"
         id="path1957" />
      <path
         style="fill:#d3d3d3"
         d="m 7.932,87.855 c 2.721,-0.559 6.479,-0.081 9.6,-0.24 0,0.08 0,0.16 0,0.24 -0.16,0 -0.32,0 -0.48,0 -2,0 -4,0 -6,0 -1.04,0 -2.08,0 -3.12,0 z"
         id="path1959" />
      <path
         style="fill:#949494"
         d="m 17.532,87.855 c 0,-0.08 0,-0.16 0,-0.24 0.96,0 1.92,0 2.88,0 1.04,0 2.08,0 3.12,0 0,0.08 0,0.16 0,0.24 -2,0 -4,0 -6,0 z"
         id="path1961" />
      <path
         style="fill:#4b4b4b"
         d="m 23.532,87.855 c 0,-0.08 0,-0.16 0,-0.24 2,0 4,0 6,0 0,0.08 0,0.16 0,0.24 -1.92,0 -3.84,0 -5.76,0 -0.08,0 -0.16,0 -0.24,0 z"
         id="path1963" />
      <path
         style="fill:#252424"
         d="m 29.532,87.855 c 0,-0.08 0,-0.16 0,-0.24 0.08,0 0.16,0 0.24,0 2.08,0 4.16,0 6.24,0 0.08,0 0.16,0 0.24,0 -1.762,0.558 -4.559,0.082 -6.72,0.24 z"
         id="path1965" />
      <path
         style="fill:#949494"
         d="m 5.052,88.095 c 0,-0.08 0,-0.16 0,-0.24 0.96,0 1.92,0 2.88,0 1.04,0 2.08,0 3.12,0 0,0.08 0,0.16 0,0.24 -2,0 -4,0 -6,0 z"
         id="path1967" />
      <path
         style="fill:#4b4b4b"
         d="m 11.052,88.095 c 0,-0.08 0,-0.16 0,-0.24 2,0 4,0 6,0 0,0.08 0,0.16 0,0.24 -1.92,0 -3.84,0 -5.76,0 -0.08,0 -0.16,0 -0.24,0 z"
         id="path1969" />
      <path
         style="fill:#252424"
         d="m 17.052,88.095 c 0,-0.08 0,-0.16 0,-0.24 0.16,0 0.32,0 0.48,0 2,0 4,0 6,0 0.08,0 0.16,0 0.24,0 -1.762,0.559 -4.559,0.082 -6.72,0.24 z"
         id="path1971" />
      <path
         style="fill:#949494"
         d="m 2.412,116.175 c 0.16,-9.28 -0.32,-19.2 0.24,-28.08 0,23.521 0,47.041 0,70.561 -0.08,0 -0.16,0 -0.24,0 0,-14.161 0,-28.321 0,-42.481 z"
         id="path1973" />
      <path
         style="fill:#252424"
         d="m 242.892,142.095 c 0.08,0 0.159,0 0.239,0 0,0.16 0,0.32 0,0.48 0,7.28 0,14.56 0,21.84 -0.08,0 -0.159,0 -0.239,0 0,-7.439 0,-14.88 0,-22.32 z"
         id="path1975" />
      <path
         style="fill:#949494"
         d="m 243.131,142.575 c 0.08,0 0.16,0 0.24,0 0,7.28 0,14.56 0,21.84 -0.08,0 -0.16,0 -0.24,0 0,-7.28 0,-14.56 0,-21.84 z"
         id="path1977" />
      <path
         style="fill:#4b4b4b"
         d="m 239.292,164.655 c 0,-0.08 0,-0.16 0,-0.24 1.201,0 2.399,0 3.601,0 0.08,0 0.16,0 0.239,0 -0.805,0.555 -2.635,0.085 -3.84,0.24 z"
         id="path1979" />
      <path
         style="fill:#949494"
         d="m 163.452,164.896 c 0,-0.08 0,-0.16 0,-0.24 25.2,0 50.399,0 75.6,0 0,0.08 0,0.16 0,0.24 -14.239,0 -28.479,0 -42.719,0 -10.961,0 -21.92,0 -32.881,0 z"
         id="path1981" />
      <path
         style="fill:#d3d3d3"
         d="m 163.211,228.495 c 0.16,-21.12 -0.319,-42.88 0.24,-63.6 10.961,0 21.92,0 32.881,0 -10.48,0.56 -22,0.08 -32.881,0.24 0,21.2 0,42.4 0,63.6 -0.08,0 -0.16,0 -0.24,0 0,-0.08 0,-0.16 0,-0.24 z"
         id="path1983" />
      <path
         style="fill:#252424"
         d="m 24.492,165.855 c 0,-0.08 0,-0.16 0,-0.24 7.68,0.16 16,-0.32 23.28,0.24 -7.68,0 -15.36,0 -23.04,0 -0.08,0 -0.16,0 -0.24,0 z"
         id="path1985" />
      <path
         style="fill:#949494"
         d="m 24.732,166.095 c 0,-0.08 0,-0.16 0,-0.24 7.68,0 15.36,0 23.04,0 0,0.08 0,0.16 0,0.24 -3.84,0 -7.68,0 -11.52,0 -3.84,0 -7.68,0 -11.52,0 z"
         id="path1987" />
      <path
         style="fill:#4b4b4b"
         d="m 47.772,166.095 c 0,-0.08 0,-0.16 0,-0.24 7.52,0 15.04,0 22.56,0 0,0.08 0,0.16 0,0.24 -7.52,0 -15.04,0 -22.56,0 z"
         id="path1989" />
      <path
         style="fill:#d3d3d3"
         d="m 36.252,166.095 c 3.84,0 7.68,0 11.52,0 7.52,0 15.04,0 22.56,0 0.16,0 0.32,0 0.48,0 0,0.08 0,0.16 0,0.24 -11.44,-0.16 -23.52,0.32 -34.56,-0.24 z"
         id="path1991" />
      <path
         style="fill:#d3d3d3"
         d="m 81.372,166.335 c 0.557,1.363 0.082,3.758 0.24,5.52 -0.557,-1.362 -0.082,-3.757 -0.24,-5.52 z"
         id="path1993" />
      <path
         style="fill:#d3d3d3"
         d="m 81.612,177.855 c 0.08,0 0.16,0 0.24,0 0,0.16 0,0.32 0,0.48 0,3.84 0,7.68 0,11.52 0,1.92 0,3.84 0,5.76 -0.56,-5.44 -0.081,-11.92 -0.24,-17.76 z"
         id="path1995" />
      <path
         style="fill:#4b4b4b"
         d="m 81.852,178.335 c 0.08,0 0.16,0 0.24,0 0,3.76 0,7.52 0,11.28 0,0.08 0,0.16 0,0.24 -0.08,0 -0.16,0 -0.24,0 0,-3.839 0,-7.68 0,-11.52 z"
         id="path1997" />
      <path
         style="fill:#252424"
         d="m 82.092,189.855 c 0,-0.08 0,-0.16 0,-0.24 0.56,3.601 0.081,8.24 0.24,12.24 -0.08,0 -0.16,0 -0.24,0 0,-0.08 0,-0.16 0,-0.24 0,-3.92 0,-7.84 0,-11.76 z"
         id="path1999" />
      <path
         style="fill:#949494"
         d="m 81.852,189.855 c 0.08,0 0.16,0 0.24,0 0,3.92 0,7.84 0,11.76 -0.08,0 -0.16,0 -0.24,0 0,-2 0,-4 0,-6 0,-1.92 0,-3.84 0,-5.76 z"
         id="path2001" />
      <path
         style="fill:#d3d3d3"
         d="m 81.852,201.615 c 0.08,0 0.16,0 0.24,0 0,0.08 0,0.16 0,0.24 0,3.92 0,7.84 0,11.76 0,1.92 0,3.84 0,5.76 -0.56,-5.44 -0.08,-11.919 -0.24,-17.76 z"
         id="path2003" />
      <path
         style="fill:#4b4b4b"
         d="m 82.092,201.855 c 0.08,0 0.16,0 0.24,0 0,3.84 0,7.68 0,11.52 0,0.08 0,0.16 0,0.24 -0.08,0 -0.16,0 -0.24,0 0,-3.92 0,-7.84 0,-11.76 z"
         id="path2005" />
      <path
         style="fill:#949494"
         d="m 82.092,213.615 c 0.08,0 0.16,0 0.24,0 0,3.92 0,7.84 0,11.76 -0.08,0 -0.16,0 -0.24,0 0,-2 0,-4 0,-6 0,-1.919 0,-3.84 0,-5.76 z"
         id="path2007" />
      <path
         style="fill:#d3d3d3"
         d="m 82.092,225.375 c 0.08,0 0.16,0 0.24,0 0,0.24 0,0.48 0,0.72 0,3.76 0,7.52 0,11.28 0,1.92 0,3.84 0,5.76 -0.56,-5.44 -0.081,-11.92 -0.24,-17.76 z"
         id="path2009" />
      <path
         style="fill:#4b4b4b"
         d="m 82.332,226.095 c 0.08,0 0.16,0 0.24,0 0,3.68 0,7.36 0,11.04 0,0.08 0,0.16 0,0.24 -0.08,0 -0.16,0 -0.24,0 0,-3.76 0,-7.52 0,-11.28 z"
         id="path2011" />
      <path
         style="fill:#252424"
         d="m 162.972,228.495 c 0.079,0 0.159,0 0.239,0 0,0.08 0,0.16 0,0.24 0,24.161 0,48.321 0,72.48 -0.559,-23.759 -0.08,-48.56 -0.239,-72.72 z"
         id="path2013" />
      <path
         style="fill:#252424"
         d="m 82.572,237.375 c 0,-0.08 0,-0.16 0,-0.24 0.56,3.601 0.081,8.24 0.24,12.24 -0.08,0 -0.16,0 -0.24,0 0,-0.08 0,-0.16 0,-0.24 0,-3.92 0,-7.84 0,-11.76 z"
         id="path2015" />
      <path
         style="fill:#949494"
         d="m 82.332,237.375 c 0.08,0 0.16,0 0.24,0 0,3.92 0,7.84 0,11.76 -0.08,0 -0.16,0 -0.24,0 0,-2 0,-4 0,-6 0,-1.92 0,-3.84 0,-5.76 z"
         id="path2017" />
      <path
         style="fill:#d3d3d3"
         d="m 82.332,249.135 c 0.08,0 0.16,0 0.24,0 0,0.08 0,0.16 0,0.24 0,3.92 0,7.84 0,11.76 0,1.921 0,3.841 0,5.761 -0.56,-5.441 -0.08,-11.92 -0.24,-17.761 z"
         id="path2019" />
      <path
         style="fill:#4b4b4b"
         d="m 82.572,249.375 c 0.08,0 0.16,0 0.24,0 0,3.76 0,7.521 0,11.28 0,0.16 0,0.32 0,0.479 -0.08,0 -0.16,0 -0.24,0 0,-3.919 0,-7.839 0,-11.759 z"
         id="path2021" />
      <path
         style="fill:#252424"
         d="m 82.812,260.655 c 0.559,3.681 0.08,8.398 0.24,12.479 -0.08,0 -0.16,0 -0.24,0 0,-0.079 0,-0.159 0,-0.239 0,-3.92 0,-7.84 0,-11.761 0,-0.158 0,-0.319 0,-0.479 z"
         id="path2023" />
      <path
         style="fill:#949494"
         d="m 82.572,261.135 c 0.08,0 0.16,0 0.24,0 0,3.921 0,7.841 0,11.761 -0.08,0 -0.16,0 -0.24,0 0,-2 0,-4 0,-6 0,-1.92 0,-3.84 0,-5.761 z"
         id="path2025" />
      <path
         style="fill:#d3d3d3"
         d="m 82.572,272.896 c 0.08,0 0.16,0 0.24,0 0,0.08 0,0.16 0,0.24 0,3.92 0,7.84 0,11.76 0,1.92 0,3.84 0,5.761 -0.56,-5.442 -0.081,-11.922 -0.24,-17.761 z"
         id="path2027" />
      <path
         style="fill:#4b4b4b"
         d="m 82.812,273.135 c 0.08,0 0.16,0 0.24,0 0,3.841 0,7.681 0,11.521 0,0.08 0,0.16 0,0.24 -0.08,0 -0.16,0 -0.24,0 0,-3.92 0,-7.84 0,-11.761 z"
         id="path2029" />
      <path
         style="fill:#252424"
         d="m 83.052,284.896 c 0,-0.08 0,-0.16 0,-0.239 0.56,3.601 0.081,8.239 0.24,12.239 -0.08,0 -0.16,0 -0.24,0 0,-0.08 0,-0.16 0,-0.239 0,-3.922 0,-7.842 0,-11.761 z"
         id="path2031" />
      <path
         style="fill:#949494"
         d="m 82.812,284.896 c 0.08,0 0.16,0 0.24,0 0,3.92 0,7.84 0,11.761 -0.08,0 -0.16,0 -0.24,0 0,-2 0,-4 0,-6 0,-1.922 0,-3.842 0,-5.761 z"
         id="path2033" />
      <path
         style="fill:#d3d3d3"
         d="m 231.612,388.335 c 0.254,-2.386 0.283,1.753 0.239,2.641 -0.08,0 -0.16,0 -0.239,0 0,-0.16 0,-0.32 0,-0.479 0,-0.723 0,-1.441 0,-2.162 z"
         id="path2035" />
      <path
         style="fill:#4b4b4b"
         d="m 14.892,398.655 c -0.4,-2.322 -0.4,-6.318 0,-8.641 0,2.801 0,5.601 0,8.399 0,0.082 0,0.162 0,0.242 z"
         id="path2037" />
      <path
         style="fill:#949494"
         d="m 231.612,390.976 c 0.079,0 0.159,0 0.239,0 0,2.24 0,4.479 0,6.721 -0.08,0 -0.16,0 -0.239,0 0,-2.242 0,-4.481 0,-6.721 z"
         id="path2039" />
      <path
         style="fill:#4b4b4b"
         d="m 127.211,494.176 c 0,-0.08 0,-0.16 0,-0.24 0.801,0 1.601,0 2.4,0 0.079,0 0.159,0 0.239,0 -0.409,0.548 -1.83,0.087 -2.639,0.24 z"
         id="path2041" />
      <path
         style="fill:#949494"
         d="m 119.292,494.415 c 0,-0.08 0,-0.16 0,-0.239 2.561,0 5.121,0 7.681,0 0,0.079 0,0.159 0,0.239 -2.56,0 -5.121,0 -7.681,0 z"
         id="path2043" />
      <path
         style="fill:#d3d3d3"
         d="m 82.092,10.095 c 0.151,-3.049 -0.308,-6.708 0.24,-9.36 2.573,-0.547 6.15,-0.089 9.12,-0.24 0,0.08 0,0.16 0,0.24 -0.16,0 -0.32,0 -0.48,0 -2,0 -4,0 -6,0 -0.8,0 -1.6,0 -2.4,0 -0.276,0.284 -0.271,0.848 -0.24,1.44 0,2.48 0,4.96 0,7.44 0,0.16 0,0.32 0,0.479 -0.08,0.001 -0.16,0.001 -0.24,0.001 z"
         id="path2045" />
      <path
         style="fill:#d3d3d3"
         d="m 2.412,116.175 c -0.425,-5.092 -0.24,-13.966 -0.24,-21.12 0,-3.235 -1.227,-8.691 2.88,-7.2 0,0.08 0,0.16 0,0.24 -0.8,0 -1.6,0 -2.4,0 -0.56,8.881 -0.08,18.8 -0.24,28.08 z"
         id="path2047" />
      <path
         style="fill:#d3d3d3"
         d="m 2.412,158.655 c 0.08,0 0.16,0 0.24,0 0,0.08 0,0.16 0,0.24 0,2.24 0,4.48 0,6.72 6.802,0.558 14.638,0.082 21.84,0.24 0.08,0 0.16,0 0.24,0 0,0.08 0,0.16 0,0.24 -7.362,-0.158 -15.358,0.318 -22.32,-0.24 0,-2.399 0,-4.8 0,-7.2 z"
         id="path2049" />
      <path
         style="fill:#d3d3d3"
         d="m 82.572,301.455 c 0.519,-1.161 0.11,-3.249 0.24,-4.8 0.08,0 0.16,0 0.24,0 0,0.08 0,0.16 0,0.24 -0.241,1.439 0.529,3.889 -0.48,4.56 z"
         id="path2051" />
      <path
         style="fill:#d3d3d3"
         d="m 68.172,308.176 c 1.327,-1.075 3.215,-2.862 5.04,-2.641 -1.614,0.946 -3.236,1.885 -5.04,2.641 z"
         id="path2053" />
      <path
         style="fill:#d3d3d3"
         d="m 39.612,330.017 c 2.38,-2.58 4.86,-5.062 7.44,-7.44 -0.737,1.103 -1.902,1.776 -2.64,2.88 -0.821,0.62 -1.541,1.34 -2.16,2.16 -1.023,0.655 -1.617,1.741 -2.64,2.4 z"
         id="path2055" />
      <path
         style="fill:#d3d3d3"
         d="m 29.052,344.655 c 0.545,-2.256 1.728,-3.872 3.36,-5.04 -0.903,1.817 -2.283,3.157 -3.12,5.04 -0.08,0 -0.16,0 -0.24,0 z"
         id="path2057" />
      <path
         style="fill:#d3d3d3"
         d="m 23.292,355.455 c 0.336,-1.903 0.74,-3.74 2.16,-4.56 -0.511,1.647 -1.492,2.828 -1.92,4.56 -0.08,0 -0.16,0 -0.24,0 z"
         id="path2059" />
      <path
         style="fill:#d3d3d3"
         d="m 19.692,363.615 c -0.171,1.108 -0.484,2.075 -0.96,2.88 0.077,-1.203 0.391,-2.169 0.96,-2.88 z"
         id="path2061" />
      <path
         style="fill:#d3d3d3"
         d="m 26.652,439.695 c -1.491,-1.629 -2.673,-3.566 -3.36,-6 0.261,0.06 0.163,0.478 0.48,0.479 1.035,1.766 2.027,3.574 2.88,5.521 z"
         id="path2063" />
      <path
         style="fill:#d3d3d3"
         d="m 47.532,466.096 c -3.1,-2.501 -5.9,-5.301 -8.4,-8.399 0.489,0.069 0.471,0.648 0.96,0.72 0.249,0.632 0.952,0.809 1.2,1.44 1.26,1.46 2.62,2.819 4.08,4.079 0.82,0.619 1.541,1.338 2.16,2.16 z"
         id="path2065" />
      <path
         style="fill:#d3d3d3"
         d="m 56.892,473.295 c -1.696,-0.544 -3.085,-1.395 -3.84,-2.88 1.443,0.717 2.397,1.924 3.84,2.641 0,0.08 0,0.16 0,0.239 z"
         id="path2067" />
      <path
         style="fill:#d3d3d3"
         d="m 61.932,476.655 c -2.019,-0.381 -3.377,-1.422 -4.32,-2.88 1.581,0.738 2.679,1.961 4.32,2.64 0,0.08 0,0.16 0,0.24 z"
         id="path2069" />
      <path
         style="fill:#d3d3d3"
         d="m 75.852,484.096 c -3.13,-0.55 -5.494,-1.865 -7.44,-3.601 2.676,0.924 4.638,2.562 7.44,3.36 0,0.081 0,0.161 0,0.241 z"
         id="path2071" />
      <path
         style="fill:#d3d3d3"
         d="m 85.452,488.176 c 1.109,0.17 2.076,0.484 2.88,0.96 -1.203,-0.077 -2.169,-0.392 -2.88,-0.96 z"
         id="path2073" />
      <path
         style="fill:#d3d3d3"
         d="m 193.932,469.936 c -1.076,1.725 -2.753,2.848 -4.801,3.601 1.505,-1.298 3.06,-2.542 4.801,-3.601 z"
         id="path2075" />
      <path
         style="fill:#d3d3d3"
         d="m 200.652,464.415 c -0.813,0.866 -1.427,1.934 -2.642,2.4 0.555,-1.048 1.732,-1.469 2.4,-2.4 0.083,0 0.162,0 0.242,0 z"
         id="path2077" />
      <path
         style="fill:#d3d3d3"
         d="m 200.892,464.415 c 1.42,-1.62 2.94,-3.14 4.562,-4.56 -1.422,1.621 -2.942,3.14 -4.562,4.56 z"
         id="path2079" />
      <path
         style="fill:#d3d3d3"
         d="m 205.452,459.615 c 0.721,-0.96 1.383,-1.979 2.399,-2.641 -0.466,1.214 -1.534,1.827 -2.399,2.641 z"
         id="path2081" />
      <path
         style="fill:#d3d3d3"
         d="m 226.572,363.375 c 0.568,0.711 0.884,1.679 0.96,2.88 -0.475,-0.804 -0.789,-1.772 -0.96,-2.88 z"
         id="path2083" />
      <path
         style="fill:#d3d3d3"
         d="m 214.092,339.854 c 1.457,0.942 2.498,2.303 2.88,4.32 -1.04,-1.359 -1.999,-2.799 -2.88,-4.32 z"
         id="path2085" />
      <path
         style="fill:#d3d3d3"
         d="m 204.731,328.097 c 0.945,0.895 2.096,1.584 2.641,2.879 -0.66,-0.459 -1.222,-1.02 -1.681,-1.681 -0.162,-0.558 -0.796,-0.642 -0.96,-1.198 z"
         id="path2087" />
      <path
         style="fill:#d3d3d3"
         d="m 204.731,327.854 c -1.141,-0.938 -2.18,-1.979 -3.119,-3.119 1.14,0.94 2.18,1.98 3.119,3.119 z"
         id="path2089" />
      <path
         style="fill:#d3d3d3"
         d="m 201.372,324.735 c -0.558,-0.162 -0.643,-0.799 -1.199,-0.961 -0.556,-0.162 -0.644,-0.797 -1.2,-0.959 -0.085,-0.315 -0.423,-0.379 -0.479,-0.721 1.292,0.548 1.983,1.696 2.878,2.641 z"
         id="path2091" />
      <path
         style="fill:#d3d3d3"
         d="m 184.333,311.774 c 1.894,0.347 3.203,1.277 4.08,2.641 -1.593,-0.566 -2.488,-1.832 -4.08,-2.398 0,-0.08 0,-0.163 0,-0.243 z"
         id="path2093" />
      <path
         style="fill:#d3d3d3"
         d="m 170.413,304.335 c 3.031,0.646 5.561,1.799 7.438,3.602 -2.649,-0.949 -4.677,-2.524 -7.438,-3.36 0,-0.082 0,-0.162 0,-0.242 z"
         id="path2095" />
      <path
         style="fill:#d3d3d3"
         d="m 163.452,270.976 c 0.561,9.601 0.08,20.239 0.239,30.24 0.595,-0.031 0.408,0.293 0,0.239 -0.558,-9.681 -0.08,-20.397 -0.239,-30.479 z"
         id="path2097" />
      <path
         style="fill:#d3d3d3"
         d="m 239.292,164.655 c 1.205,-0.156 3.035,0.313 3.84,-0.24 0.08,0 0.16,0 0.24,0 -0.601,0.999 -2.953,0.246 -4.32,0.48 0,-0.08 0,-0.16 0,-0.24 0.079,0 0.159,0 0.24,0 z"
         id="path2099" />
      <path
         style="fill:#d3d3d3"
         d="m 195.131,86.416 c 15.521,-0.4 32.721,-0.4 48.24,0 0,18.72 0,37.439 0,56.16 -0.08,0 -0.16,0 -0.24,0 0,-0.16 0,-0.32 0,-0.48 0,-18.48 0,-36.959 0,-55.44 -1.547,-0.532 -4.06,-0.101 -6,-0.24 -14,0 -28,0 -42,0 z"
         id="path2101" />
      <path
         style="fill:#d3d3d3"
         d="m 158.892,-0.705 c 0.917,-0.429 3.392,-0.357 4.319,0 0,20.48 0,40.96 0,61.44 -0.08,0 -0.16,0 -0.239,0 0,-0.08 0,-0.16 0,-0.24 0,-20.32 0,-40.64 0,-60.96 -0.214,-0.186 -0.542,-0.258 -0.96,-0.24 -1.04,0 -2.08,0 -3.12,0 z"
         id="path2103" />
      <path
         style="fill:#4b4b4b"
         d="m 162.012,-0.465 c 0,-0.08 0,-0.16 0,-0.24 0.418,-0.018 0.746,0.054 0.96,0.24 0,20.32 0,40.64 0,60.96 -0.08,0 -0.16,0 -0.24,0 0,-20.16 0,-40.32 0,-60.479 -0.05,-0.27 -0.267,-0.374 -0.479,-0.48 -0.081,-0.001 -0.161,-0.001 -0.241,-0.001 z"
         id="path2105" />
      <path
         style="fill:#252424"
         d="m 162.731,60.495 c 0.08,0 0.16,0 0.24,0 0,0.08 0,0.16 0,0.24 0,8.56 0,17.12 0,25.68 24.24,0.56 49.521,0.08 74.16,0.24 0.08,0 0.16,0 0.24,0 -24.32,0.4 -50.32,0.4 -74.642,0 0.002,-8.719 0.002,-17.44 0.002,-26.16 z"
         id="path2107" />
      <path
         style="fill:#252424"
         d="m 162.972,164.896 c 11.881,-1.113 25.614,-0.164 37.92,-0.48 12.801,0 25.601,0 38.399,0 0,0.08 0,0.16 0,0.24 -0.08,0 -0.16,0 -0.24,0 -25.199,0 -50.398,0 -75.6,0 -0.193,0.045 -0.238,0.24 -0.479,0.24 z"
         id="path2109" />
      <path
         style="fill:#4b4b4b"
         d="m 197.051,321.136 c 0.505,0.295 0.937,0.664 1.441,0.961 0.057,0.342 0.395,0.403 0.479,0.719 -0.745,-0.375 -1.26,-0.98 -1.92,-1.439 0,-0.082 0,-0.162 0,-0.241 z"
         id="path2111" />
      <path
         style="fill:#252424"
         d="m 198.972,322.815 c 0.558,0.162 0.644,0.797 1.2,0.959 0.248,0.633 0.951,0.81 1.199,1.44 -0.899,-0.697 -1.701,-1.498 -2.399,-2.399 z"
         id="path2113" />
      <path
         style="fill:#4b4b4b"
         d="m 201.372,325.216 c -0.248,-0.632 -0.951,-0.809 -1.199,-1.439 0.558,0.162 0.643,0.798 1.199,0.959 1.021,1.222 2.141,2.341 3.359,3.361 0.163,0.557 0.798,0.641 0.96,1.198 -0.631,-0.248 -0.808,-0.951 -1.438,-1.198 -0.86,-1.062 -1.82,-2.022 -2.881,-2.881 z"
         id="path2115" />
      <path
         style="fill:#252424"
         d="m 204.252,328.097 c 0.631,0.247 0.809,0.95 1.438,1.198 0.459,0.661 1.021,1.222 1.681,1.681 0.359,0.36 0.43,1.012 0.961,1.2 0,0.079 0,0.159 0,0.239 -1.436,-1.365 -2.725,-2.875 -4.08,-4.318 z"
         id="path2117" />
      <path
         style="fill:#252424"
         d="m 220.812,350.896 c 0.642,0.801 1.292,1.588 1.44,2.881 -0.615,-0.827 -1.093,-1.788 -1.44,-2.881 z"
         id="path2119" />
      <path
         style="fill:#252424"
         d="m 222.731,433.695 c -0.501,1.897 -1.381,3.419 -2.398,4.8 0.529,-1.79 1.629,-3.01 2.16,-4.8 0.079,0 0.158,0 0.238,0 z"
         id="path2121" />
      <path
         style="fill:#4b4b4b"
         d="m 203.771,461.056 c 1.521,-1.84 3.09,-3.631 4.801,-5.279 -0.216,0.424 -0.579,0.699 -0.721,1.199 -1.017,0.662 -1.681,1.681 -2.399,2.641 -0.709,0.33 -0.972,1.107 -1.681,1.439 z"
         id="path2123" />
      <path
         style="fill:#4b4b4b"
         d="m 196.812,467.535 c 1.579,-1.621 3.25,-3.149 5.04,-4.561 -0.248,0.633 -0.951,0.809 -1.199,1.439 -0.08,0 -0.16,0 -0.24,0 -0.668,0.933 -1.847,1.354 -2.399,2.4 -0.501,0.143 -0.778,0.506 -1.202,0.722 z"
         id="path2125" />
      <path
         style="fill:#252424"
         d="m 173.051,482.896 c 0.986,-0.695 2.107,-1.255 3.361,-1.681 -0.855,0.826 -1.975,1.385 -3.361,1.681 z"
         id="path2127" />
      <path
         style="fill:#252424"
         d="m 47.532,466.096 c -0.619,-0.82 -1.339,-1.541 -2.16,-2.16 -1.26,-1.46 -2.62,-2.819 -4.08,-4.079 -0.249,-0.633 -0.952,-0.81 -1.2,-1.44 3.052,2.789 5.849,5.831 8.88,8.641 -0.504,-0.298 -0.936,-0.667 -1.44,-0.962 z"
         id="path2129" />
      <path
         style="fill:#252424"
         d="m 39.612,330.255 c 0.98,-0.779 1.86,-1.658 2.64,-2.64 0.619,-0.82 1.339,-1.54 2.16,-2.16 1.06,-0.858 2.02,-1.819 2.88,-2.88 0.504,-0.297 0.936,-0.664 1.44,-0.96 -3.533,3.348 -6.938,6.821 -10.32,10.319 0.388,-0.572 0.862,-1.057 1.2,-1.679 z"
         id="path2131" />
      <path
         style="fill:#4b4b4b"
         d="m 82.572,301.455 c 1.009,-0.671 0.239,-3.121 0.48,-4.56 0.08,0 0.16,0 0.24,0 -0.13,1.549 0.278,3.639 -0.24,4.799 -0.24,0 -0.48,0 -0.72,0 -0.044,-0.203 0.093,-0.225 0.24,-0.239 z"
         id="path2133" />
      <path
         style="fill:#252424"
         d="m 70.332,166.095 c 0,-0.08 0,-0.16 0,-0.24 3.846,0.154 8.312,-0.312 11.76,0.24 0,4.08 0,8.16 0,12.24 -0.08,0 -0.16,0 -0.24,0 0,-0.16 0,-0.32 0,-0.48 0,-3.84 0,-7.68 0,-11.52 -3.209,-0.551 -7.434,-0.087 -11.04,-0.24 -0.16,0 -0.32,0 -0.48,0 z"
         id="path2135" />
      <path
         style="fill:#4b4b4b"
         d="m 2.652,158.896 c 0.08,0 0.16,0 0.24,0 0.915,2.211 -1.293,4.929 0,6.48 0.543,0.652 3.572,0.24 5.04,0.24 5.54,0 12.638,0 16.56,0 0,0.08 0,0.16 0,0.24 -7.202,-0.158 -15.038,0.317 -21.84,-0.24 0,-2.241 0,-4.481 0,-6.72 z"
         id="path2137" />
      <path
         style="fill:#252424"
         d="m 79.212,86.655 c 0.602,-0.198 2.066,0.467 1.92,-0.48 0.08,0 0.16,0 0.24,0 0.152,1.112 -1.312,0.608 -2.16,0.72 0,-0.08 0,-0.16 0,-0.24 z"
         id="path2139" />
      <path
         style="fill:#949494"
         d="m 82.332,2.175 c -0.032,-0.592 -0.037,-1.156 0.24,-1.44 0.8,0 1.6,0 2.4,0 0,0.08 0,0.16 0,0.24 -0.8,0 -1.6,0 -2.4,0 0,0.4 0,0.8 0,1.2 -0.08,0 -0.16,0 -0.24,0 z"
         id="path2141" />
      <path
         style="fill:#949494"
         d="m 162.972,60.735 c 0.079,0 0.159,0 0.239,0 0,8.56 0,17.12 0,25.68 10.641,0 21.281,0 31.92,0 14,0 28,0 42,0 0,0.08 0,0.16 0,0.24 -24.639,-0.16 -49.92,0.32 -74.159,-0.24 0,-8.56 0,-17.12 0,-25.68 z"
         id="path2143" />
      <path
         style="fill:#4b4b4b"
         d="m 237.131,86.655 c 0,-0.08 0,-0.16 0,-0.24 1.94,0.139 4.453,-0.292 6,0.24 0,18.479 0,36.96 0,55.439 -0.08,0 -0.159,0 -0.239,0 0,-18.4 0,-36.8 0,-55.2 -1.392,-0.528 -3.735,-0.104 -5.521,-0.24 -0.079,0.001 -0.16,0.001 -0.24,0.001 z"
         id="path2145" />
      <path
         style="fill:#4b4b4b"
         d="m 162.972,164.896 c 0.241,0 0.286,-0.194 0.479,-0.24 0,0.08 0,0.16 0,0.24 -0.561,20.72 -0.08,42.48 -0.24,63.6 -0.08,0 -0.16,0 -0.239,0 0,-21.2 0,-42.401 0,-63.6 z"
         id="path2147" />
      <path
         style="fill:#949494"
         d="m 70.812,166.335 c 0,-0.08 0,-0.16 0,-0.24 3.606,0.153 7.831,-0.311 11.04,0.24 0,3.84 0,7.68 0,11.52 -0.08,0 -0.16,0 -0.24,0 0,-2 0,-4 0,-6 -0.158,-1.762 0.317,-4.157 -0.24,-5.52 -3.52,0 -7.04,0 -10.56,0 z"
         id="path2149" />
      <path
         style="fill:#949494"
         d="m 163.211,228.735 c 0.08,0 0.16,0 0.24,0 0,14.08 0,28.161 0,42.241 0.159,10.08 -0.318,20.799 0.239,30.479 -0.079,0 -0.159,0 -0.239,0 -0.146,-0.014 -0.283,-0.036 -0.24,-0.239 0,-24.16 0,-48.32 0,-72.481 z"
         id="path2151" />
      <path
         style="fill:#949494"
         d="m 44.412,325.455 c 0.737,-1.103 1.902,-1.777 2.64,-2.88 0.08,0 0.16,0 0.24,0 -0.86,1.061 -1.82,2.022 -2.88,2.88 z"
         id="path2153" />
      <path
         style="fill:#949494"
         d="m 204.731,328.097 c -1.22,-1.021 -2.34,-2.141 -3.359,-3.361 0.08,0 0.16,0 0.24,0 0.939,1.142 1.979,2.182 3.119,3.121 0,0.08 0,0.16 0,0.24 z"
         id="path2155" />
      <path
         style="fill:#949494"
         d="m 39.612,330.017 c 1.023,-0.658 1.617,-1.744 2.64,-2.4 -0.78,0.98 -1.66,1.859 -2.64,2.64 0,-0.081 0,-0.16 0,-0.24 z"
         id="path2157" />
      <path
         style="fill:#4b4b4b"
         d="m 39.132,457.695 c -0.296,-0.504 -0.664,-0.937 -0.96,-1.44 0.841,0.52 1.397,1.323 1.92,2.16 -0.489,-0.07 -0.471,-0.649 -0.96,-0.72 z"
         id="path2159" />
      <path
         style="fill:#949494"
         d="m 203.771,461.056 c 0.709,-0.332 0.972,-1.107 1.681,-1.439 0,0.08 0,0.16 0,0.24 -1.619,1.42 -3.141,2.938 -4.561,4.56 -0.08,0 -0.16,0 -0.239,0 0.248,-0.632 0.951,-0.808 1.199,-1.439 0.54,-0.744 1.181,-1.383 1.92,-1.922 z"
         id="path2161" />
      <path
         style="fill:#4b4b4b"
         d="m 45.372,463.936 c -1.46,-1.26 -2.82,-2.619 -4.08,-4.079 1.46,1.258 2.82,2.619 4.08,4.079 z"
         id="path2163" />
      <path
         style="fill:#4b4b4b"
         d="m 136.333,-0.225 c 2,0 4,0 6,0 0,0.08 0,0.16 0,0.24 -1.92,0 -3.84,0 -5.761,0 -0.079,0 -0.159,0 -0.239,0 0,-0.079 0,-0.16 0,-0.24 z"
         id="path2165" />
      <path
         style="fill:#4b4b4b"
         d="m 82.092,33.855 c 0,2.48 0,4.96 0,7.44 -0.08,0 -0.16,0 -0.24,0 0,-2.56 0,-5.12 0,-7.68 0.08,0 0.16,0 0.24,0 0,0.08 0,0.16 0,0.24 z"
         id="path2167" />
      <path
         style="fill:#d3d3d3"
         d="m 70.092,86.655 c 1.588,-1.661 8.684,1.323 10.56,-0.24 1.49,-1.242 -0.827,-7.798 0.48,-9.36 0,1.36 0,2.72 0,4.08 0,1.68 0,3.36 0,5.04 0.146,0.947 -1.318,0.282 -1.92,0.48 -2,0 -4,0 -6,0 -1.04,0 -2.08,0 -3.12,0 z"
         id="path2169" />
      <path
         style="fill:#252424"
         d="m 2.652,88.095 c 0.8,0 1.6,0 2.4,0 2,0 4,0 6,0 0.08,0 0.16,0 0.24,0 -2.321,0.559 -5.679,0.081 -8.4,0.24 0,23.52 0,47.04 0,70.56 -0.08,0 -0.16,0 -0.24,0 0,-0.08 0,-0.16 0,-0.24 0,-23.519 0,-47.04 0,-70.56 z"
         id="path2171" />
      <path
         style="fill:#252424"
         d="m 82.332,226.095 c 0,-0.24 0,-0.48 0,-0.72 0,-3.92 0,-7.84 0,-11.76 0,-0.08 0,-0.16 0,-0.24 0.559,3.76 0.08,8.56 0.24,12.72 -0.08,0 -0.16,0 -0.24,0 z"
         id="path2173" />
      <path
         style="fill:#252424"
         d="m 226.092,362.896 c 0.261,0.061 0.162,0.478 0.479,0.479 0.171,1.108 0.484,2.076 0.96,2.88 0,0.32 0,0.641 0,0.961 -0.631,-1.287 -1.109,-2.731 -1.439,-4.32 z"
         id="path2175" />
      <path
         style="fill:#252424"
         d="m 19.692,363.615 c 0.261,-0.06 0.163,-0.478 0.48,-0.479 -0.33,1.59 -0.808,3.031 -1.44,4.319 0,-0.319 0,-0.64 0,-0.96 0.476,-0.805 0.789,-1.769 0.96,-2.88 z"
         id="path2177" />
      <path
         style="fill:#252424"
         d="m 17.292,372.735 c 0.188,0.988 -0.369,1.23 -0.24,2.16 -0.08,0 -0.16,0 -0.24,0 -0.188,-0.988 0.368,-1.231 0.24,-2.16 0.08,0 0.16,0 0.24,0 z"
         id="path2179" />
      <path
         style="fill:#252424"
         d="m 229.211,373.455 c 0.556,1.364 0.867,2.974 0.961,4.8 -0.492,-1.428 -0.804,-3.035 -0.961,-4.8 z"
         id="path2181" />
      <path
         style="fill:#252424"
         d="m 14.892,386.176 c 0.574,-2.307 0.44,-5.319 1.2,-7.44 -0.393,3.769 -0.817,7.504 -1.2,11.281 0,-1.282 0,-2.562 0,-3.841 z"
         id="path2183" />
      <path
         style="fill:#252424"
         d="m 230.652,381.375 c 0.408,1.031 0.503,2.377 0.479,3.841 0,0.159 0,0.319 0,0.479 -0.368,-1.231 -0.42,-2.779 -0.479,-4.32 z"
         id="path2185" />
      <path
         style="fill:#4b4b4b"
         d="m 231.131,385.216 c 0.709,0.491 -0.228,2.627 0.48,3.119 0,0.721 0,1.439 0,2.16 -0.08,0 -0.16,0 -0.24,0 0.071,-1.752 -0.425,-2.936 -0.24,-4.801 0,-0.159 0,-0.319 0,-0.478 z"
         id="path2187" />
      <path
         style="fill:#d3d3d3"
         d="m 14.892,386.176 c 0,1.279 0,2.56 0,3.841 -0.4,2.32 -0.4,6.316 0,8.64 0,1.2 0,2.399 0,3.6 -0.175,1.376 -0.434,-2.346 -0.48,-3.358 -0.159,-3.504 -0.001,-7.858 0.24,-10.801 0.056,-0.692 -0.12,-3.482 0.24,-1.922 z"
         id="path2189" />
      <path
         style="fill:#252424"
         d="m 231.612,397.695 c 0.188,1.627 -0.328,2.553 -0.24,4.08 -0.184,1.815 -0.218,3.781 -0.72,5.279 0.517,-5.245 0.899,-10.62 0.72,-16.561 0.08,0 0.16,0 0.24,0 0,0.159 0,0.319 0,0.479 0,2.244 0,4.483 0,6.723 z"
         id="path2191" />
      <path
         style="fill:#d3d3d3"
         d="m 231.372,401.775 c -0.088,-1.527 0.428,-2.453 0.24,-4.08 0.079,0 0.159,0 0.239,0 -0.099,1.421 0.306,3.345 -0.479,4.08 z"
         id="path2193" />
      <path
         style="fill:#252424"
         d="m 14.892,398.415 c 0.364,3.236 0.695,6.505 0.96,9.84 -0.65,-1.669 -0.421,-4.218 -0.96,-6 0,-1.199 0,-2.398 0,-3.6 0,-0.08 0,-0.16 0,-0.24 z"
         id="path2195" />
      <path
         style="fill:#010101"
         d="m 230.652,407.056 c 0.354,1.556 -0.755,1.646 -0.479,3.12 -0.647,2.474 -1.182,5.06 -1.68,7.681 -0.354,0.768 -0.688,1.553 -0.722,2.64 -0.472,0.89 -0.888,1.833 -0.96,3.12 -0.281,0.039 -0.202,0.438 -0.239,0.72 -0.474,0.407 -0.646,1.116 -0.721,1.92 -1.089,2.433 -2.101,4.94 -3.12,7.44 -0.08,0 -0.158,0 -0.238,0 -0.531,1.79 -1.631,3.01 -2.16,4.8 -3.459,6.222 -7.51,11.851 -11.76,17.28 -1.712,1.648 -3.279,3.439 -4.802,5.279 -0.739,0.539 -1.381,1.18 -1.92,1.92 -1.79,1.41 -3.461,2.938 -5.04,4.561 -1.105,0.653 -2.072,1.446 -2.88,2.399 -1.74,1.061 -3.296,2.305 -4.8,3.601 -4.204,2.596 -8.297,5.303 -12.721,7.681 -1.254,0.426 -2.375,0.984 -3.359,1.681 -4.624,2.096 -9.493,3.946 -14.399,5.76 -1.03,0.01 -1.769,0.312 -2.399,0.72 -0.744,-0.023 -1.332,0.109 -1.68,0.48 -1.049,0.071 -1.992,0.249 -2.642,0.72 -0.38,0.021 -0.915,-0.115 -0.96,0.24 -1.623,0.137 -3.068,0.45 -4.319,0.96 -0.35,0.131 -1.241,-0.28 -1.2,0.239 -5.188,0.732 -10.423,1.417 -15.84,1.921 -0.801,0 -1.601,0 -2.4,0 -4.326,0.007 -8.713,0.073 -12.719,-0.24 -1.301,-0.06 -2.335,-0.385 -3.84,-0.24 -3.986,-0.654 -8.028,-1.252 -12,-1.92 -0.521,-0.359 -1.351,-0.409 -2.16,-0.479 -1.114,-0.485 -2.401,-0.799 -3.84,-0.96 -0.979,-0.461 -2.115,-0.766 -3.36,-0.96 -1.769,-0.791 -3.69,-1.431 -5.76,-1.92 -2.478,-1.123 -5.105,-2.096 -7.68,-3.12 0,-0.08 0,-0.159 0,-0.239 -2.802,-0.799 -4.764,-2.438 -7.44,-3.36 -2.001,-1.439 -4.306,-2.574 -6.48,-3.84 0,-0.08 0,-0.16 0,-0.24 -1.641,-0.679 -2.739,-1.9 -4.32,-2.64 -0.104,-0.295 -0.307,-0.493 -0.72,-0.48 0,-0.079 0,-0.159 0,-0.239 -1.443,-0.717 -2.397,-1.924 -3.84,-2.641 -1.237,-1.242 -2.64,-2.319 -4.08,-3.359 -3.031,-2.81 -5.828,-5.852 -8.88,-8.641 -0.523,-0.837 -1.079,-1.642 -1.92,-2.16 -4.163,-5.195 -8.05,-10.67 -11.52,-16.56 -0.853,-1.947 -1.845,-3.755 -2.88,-5.521 -1.02,-2.819 -2.236,-5.443 -3.36,-8.16 -0.076,-0.804 -0.248,-1.513 -0.72,-1.92 0.021,-0.341 0.04,-0.68 -0.24,-0.721 -0.009,-1.03 -0.312,-1.767 -0.72,-2.398 0.021,-0.342 0.04,-0.681 -0.24,-0.722 -0.072,-1.047 -0.25,-1.99 -0.72,-2.64 -0.021,-0.779 -0.124,-1.478 -0.48,-1.92 0.018,-0.897 -0.101,-1.659 -0.48,-2.16 -0.208,-1.872 -0.491,-3.669 -0.96,-5.28 -0.265,-3.335 -0.596,-6.604 -0.96,-9.84 0,-2.8 0,-5.6 0,-8.398 0.383,-3.777 0.807,-7.514 1.2,-11.281 0.383,-1.137 0.623,-2.416 0.72,-3.84 0.08,0 0.16,0 0.24,0 -0.128,-0.928 0.429,-1.172 0.24,-2.16 0.615,-1.625 1.08,-3.398 1.44,-5.279 0.632,-1.288 1.11,-2.729 1.44,-4.318 1.052,-2.55 2.124,-5.078 3.12,-7.682 0.08,0 0.16,0 0.24,0 0.428,-1.73 1.409,-2.911 1.92,-4.561 1.373,-1.907 2.437,-4.123 3.6,-6.239 0.08,0 0.16,0 0.24,0 0.837,-1.884 2.217,-3.224 3.12,-5.04 2.036,-2.523 4.06,-5.061 6,-7.68 3.382,-3.498 6.787,-6.974 10.32,-10.32 6.024,-4.936 12.445,-9.475 19.44,-13.439 1.804,-0.756 3.426,-1.693 5.04,-2.641 3.135,-1.186 6.088,-2.553 9.12,-3.84 0.24,0 0.48,0 0.72,0 0.519,-1.161 0.11,-3.25 0.24,-4.801 -0.16,-4 0.319,-8.64 -0.24,-12.239 0,-3.841 0,-7.681 0,-11.521 -0.16,-4.08 0.319,-8.799 -0.24,-12.479 0,-3.761 0,-7.521 0,-11.28 -0.16,-4 0.319,-8.64 -0.24,-12.24 0,-3.68 0,-7.36 0,-11.04 -0.16,-4.16 0.319,-8.959 -0.24,-12.72 0,-3.84 0,-7.68 0,-11.52 -0.16,-4 0.319,-8.64 -0.24,-12.24 0,-3.76 0,-7.52 0,-11.28 0,-4.08 0,-8.16 0,-12.24 -3.448,-0.552 -7.914,-0.086 -11.76,-0.24 -7.52,0 -15.04,0 -22.56,0 -7.28,-0.56 -15.6,-0.08 -23.28,-0.24 -3.922,0 -11.021,0 -16.56,0 -1.467,0 -4.496,0.412 -5.04,-0.24 -1.293,-1.551 0.915,-4.269 0,-6.48 0,-23.52 0,-47.041 0,-70.56 2.721,-0.159 6.079,0.319 8.4,-0.24 1.92,0 3.84,0 5.76,0 2.162,-0.159 4.958,0.318 6.72,-0.24 1.92,0 3.84,0 5.76,0 2.162,-0.159 4.958,0.318 6.72,-0.24 1.92,0 3.84,0 5.76,0 2.162,-0.158 4.958,0.318 6.72,-0.24 1.84,0 3.68,0 5.52,0 2.241,-0.159 5.118,0.318 6.96,-0.24 1.84,0 3.68,0 5.52,0 2.161,-0.159 4.958,0.318 6.72,-0.24 1.92,0 3.84,0 5.76,0 0.848,-0.112 2.312,0.392 2.16,-0.72 0,-1.68 0,-3.36 0,-5.04 0.559,-2.241 0.081,-5.519 0.24,-8.16 0,-2.48 0,-4.96 0,-7.44 0.559,-2.321 0.081,-5.679 0.24,-8.4 0,-2.48 0,-4.96 0,-7.44 0.559,-2.321 0.081,-5.679 0.24,-8.4 0,-2.48 0,-4.96 0,-7.44 0.559,-2.321 0.081,-5.679 0.24,-8.4 0,-2.4 0,-4.8 0,-7.2 0.559,-2.401 0.081,-5.839 0.24,-8.64 0,-2.4 0,-4.8 0,-7.2 -0.222,-1.583 1.747,-0.974 2.64,-1.44 1.92,0 3.84,0 5.76,0 2.242,-0.159 5.118,0.318 6.96,-0.24 1.92,0 3.84,0 5.76,0 2.321,-0.159 5.278,0.318 7.2,-0.24 2,0 4,0 6,0 2.161,-0.158 4.958,0.318 6.72,-0.24 2,0 4,0 6,0 2.241,-0.159 5.118,0.318 6.961,-0.24 1.92,0 3.84,0 5.76,0 2.32,-0.159 5.277,0.318 7.199,-0.24 1.92,0 3.84,0 5.76,0 2.242,-0.159 5.119,0.318 6.961,-0.24 0.213,0.106 0.43,0.211 0.479,0.48 0,20.16 0,40.32 0,60.479 0,8.72 0,17.44 0,26.16 24.32,0.4 50.32,0.4 74.641,0 1.783,0.136 4.129,-0.288 5.521,0.24 0,18.4 0,36.8 0,55.2 0,7.44 0,14.88 0,22.32 -1.2,0 -2.399,0 -3.601,0 -12.799,0 -25.6,0 -38.399,0 -12.306,0.316 -26.039,-0.633 -37.92,0.48 0,21.2 0,42.4 0,63.6 0.159,24.16 -0.319,48.961 0.239,72.721 -0.043,0.203 0.095,0.227 0.24,0.239 2.172,1.106 4.601,1.96 6.961,2.88 0,0.08 0,0.16 0,0.24 2.764,0.836 4.789,2.411 7.438,3.359 2.001,1.439 4.308,2.574 6.479,3.84 0,0.08 0,0.16 0,0.24 1.592,0.567 2.488,1.832 4.08,2.399 2.816,2.304 5.738,4.501 8.641,6.722 0,0.078 0,0.158 0,0.238 0.66,0.459 1.175,1.064 1.92,1.439 0.699,0.9 1.5,1.701 2.4,2.4 1.061,0.859 2.021,1.819 2.879,2.881 1.355,1.443 2.646,2.953 4.08,4.318 1.853,2.549 3.859,4.939 5.76,7.439 0.882,1.521 1.841,2.961 2.881,4.32 1.188,2.333 2.554,4.486 3.84,6.721 0.348,1.094 0.825,2.055 1.439,2.879 1.301,3.021 2.572,6.068 3.84,9.121 0.33,1.59 0.81,3.031 1.441,4.319 0.491,2.147 0.987,4.291 1.68,6.239 0.154,1.766 0.468,3.372 0.959,4.8 0.048,1.154 0.115,2.285 0.48,3.12 0.059,1.541 0.11,3.089 0.479,4.32 -0.185,1.865 0.312,3.048 0.24,4.8 0.182,5.942 -0.203,11.317 -0.719,16.562 z"
         id="path2197" />
      <path
         style="fill:#252424"
         d="m 230.172,410.176 c -0.284,2.835 -0.801,5.438 -1.68,7.681 0.499,-2.623 1.032,-5.209 1.68,-7.681 z"
         id="path2199" />
      <path
         style="fill:#252424"
         d="m 16.812,413.535 c 0.379,0.501 0.498,1.263 0.48,2.16 -0.379,-0.501 -0.498,-1.262 -0.48,-2.16 z"
         id="path2201" />
      <path
         style="fill:#252424"
         d="m 17.772,417.615 c 0.47,0.648 0.647,1.593 0.72,2.64 -0.471,-0.65 -0.648,-1.592 -0.72,-2.64 z"
         id="path2203" />
      <path
         style="fill:#252424"
         d="m 226.812,423.615 c 0.073,-1.287 0.489,-2.23 0.96,-3.12 -0.072,1.288 -0.488,2.232 -0.96,3.12 z"
         id="path2205" />
      <path
         style="fill:#252424"
         d="m 18.732,420.976 c 0.407,0.634 0.71,1.369 0.72,2.399 -0.407,-0.633 -0.711,-1.369 -0.72,-2.399 z"
         id="path2207" />
      <path
         style="fill:#4b4b4b"
         d="m 19.692,424.096 c 0.473,0.407 0.644,1.116 0.72,1.92 -0.473,-0.408 -0.644,-1.117 -0.72,-1.92 z"
         id="path2209" />
      <path
         style="fill:#4b4b4b"
         d="m 225.852,426.255 c 0.076,-0.804 0.247,-1.513 0.721,-1.92 -0.076,0.805 -0.248,1.514 -0.721,1.92 z"
         id="path2211" />
      <path
         style="fill:#252424"
         d="m 83.532,487.216 c 2.07,0.489 3.991,1.129 5.76,1.92 -0.32,0 -0.64,0 -0.96,0 -0.805,-0.476 -1.771,-0.79 -2.88,-0.96 -0.407,-0.554 -1.602,-0.319 -1.92,-0.96 z"
         id="path2213" />
      <path
         style="fill:#252424"
         d="m 156.252,489.375 c 0.633,-0.406 1.369,-0.71 2.399,-0.72 -0.632,0.407 -1.369,0.711 -2.399,0.72 z"
         id="path2215" />
      <path
         style="fill:#252424"
         d="m 151.932,490.575 c 0.648,-0.472 1.593,-0.647 2.641,-0.72 -0.651,0.471 -1.594,0.648 -2.641,0.72 z"
         id="path2217" />
      <path
         style="fill:#252424"
         d="m 92.652,490.096 c 1.438,0.161 2.726,0.475 3.84,0.96 -1.513,-0.087 -2.801,-0.4 -3.84,-0.96 z"
         id="path2219" />
      <path
         style="fill:#252424"
         d="m 146.652,491.775 c 1.251,-0.51 2.696,-0.823 4.319,-0.96 -1.25,0.509 -2.696,0.824 -4.319,0.96 z"
         id="path2221" />
      <path
         style="fill:#252424"
         d="m 129.612,493.936 c 5.417,-0.503 10.652,-1.188 15.84,-1.92 -3.625,1.096 -8.218,1.224 -12.24,1.92 -1.119,0 -2.239,0 -3.359,0 -0.082,0 -0.162,0 -0.241,0 z"
         id="path2223" />
      <path
         style="fill:#252424"
         d="m 98.652,491.535 c 3.972,0.668 8.014,1.266 12,1.92 -4.383,-0.257 -8.393,-0.887 -12,-1.92 z"
         id="path2225" />
      <path
         style="fill:#4b4b4b"
         d="m 110.652,493.455 c 1.505,-0.146 2.539,0.182 3.84,0.24 0,0.08 0,0.16 0,0.239 -0.48,0 -0.96,0 -1.44,0 -0.259,-0.7 -2.141,0.222 -2.4,-0.479 z"
         id="path2227" />
      <path
         style="fill:#d3d3d3"
         d="m 114.492,493.936 c 1.807,-0.128 2.936,0.426 4.799,0.24 0,0.079 0,0.159 0,0.239 -2.5,0.182 -4.259,-0.38 -6.72,-0.239 -0.438,-0.187 0.144,-0.259 0.48,-0.24 0.481,0 0.961,0 1.441,0 z"
         id="path2229" />
      <path
         style="fill:#252424"
         d="m 119.292,494.176 c -1.865,0.186 -2.992,-0.368 -4.799,-0.24 0,-0.079 0,-0.159 0,-0.239 4.006,0.313 8.394,0.247 12.719,0.239 0,0.08 0,0.16 0,0.24 -0.08,0 -0.16,0 -0.239,0 -2.56,0 -5.121,0 -7.681,0 z"
         id="path2231" />
      <path
         style="fill:#d3d3d3"
         d="m 129.852,493.936 c 1.12,0 2.24,0 3.359,0 1.428,0.147 -1.703,0.424 -2.879,0.479 -1.233,0.061 -2.584,-0.048 -3.36,0 0,-0.08 0,-0.16 0,-0.239 0.079,0 0.159,0 0.239,0 0.809,-0.153 2.23,0.308 2.641,-0.24 z"
         id="path2233" />
    </g>
  </g>
</svg>
