<?xml version="1.0" encoding="UTF-8" standalone="no"?>
<svg
   xmlns:dc="http://purl.org/dc/elements/1.1/"
   xmlns:cc="http://creativecommons.org/ns#"
   xmlns:rdf="http://www.w3.org/1999/02/22-rdf-syntax-ns#"
   xmlns:svg="http://www.w3.org/2000/svg"
   xmlns="http://www.w3.org/2000/svg"
   id="svg8"
   version="1.1"
   viewBox="0 0 16.933333 16.933333"
   height="64"
   width="64">
  <defs
     id="defs2" />
  <metadata
     id="metadata5">
    <rdf:RDF>
      <cc:Work
         rdf:about="">
        <dc:format>image/svg+xml</dc:format>
        <dc:type
           rdf:resource="http://purl.org/dc/dcmitype/StillImage" />
        <dc:title></dc:title>
      </cc:Work>
    </rdf:RDF>
  </metadata>
  <g
     transform="translate(0,-280.06667)"
     id="layer1">
    <g
       transform="matrix(0.03884936,0,0,0.03884936,2.6317529,282.81959)"
       id="g3138">
      <path
         style="fill:#2c2c2c"
         d="m 159.36,0.24 c 1.125,0.155 2.874,-0.314 3.6,0.24 -1.124,-0.155 -2.874,0.314 -3.6,-0.24 z"
         id="path2720" />
      <path
         style="fill:#2c2c2c"
         d="m 140.64,0.72 c 0.179,-0.542 1.346,-0.094 1.92,-0.24 0.16,0 0.32,0 0.479,0 -0.331,0.547 -1.669,0.089 -2.399,0.24 z"
         id="path2722" />
      <path
         style="fill:#2c2c2c"
         d="m 163.92,0.48 c 0.641,0 1.279,0 1.92,0 0.16,0 0.32,0 0.479,0 0,0.08 0,0.16 0,0.24 -0.729,-0.151 -2.067,0.307 -2.399,-0.24 z"
         id="path2724" />
      <path
         style="fill:#676767"
         d="m 306.961,146.16 c 0.08,0 0.16,0 0.238,0 0,2.88 0,5.76 0,8.641 -0.078,0 -0.16,0 -0.238,0 0,-2.881 0,-5.76 0,-8.641 z"
         id="path2726" />
      <path
         style="fill:#2c2c2c"
         d="m 306.721,158.88 c 0,0.722 0,1.44 0,2.16 0,0.24 0,0.479 0,0.721 -0.08,0 -0.16,0 -0.24,0 0.152,-0.888 -0.311,-2.392 0.24,-2.881 z"
         id="path2728" />
      <path
         style="fill:#a2a2a2"
         d="m 47.76,41.04 c 1.71,-1.01 2.733,-2.707 4.56,-3.6 -1.42,1.46 -2.844,2.917 -4.56,4.08 -0.865,0.495 -1.295,1.425 -2.16,1.92 0.576,-0.944 1.584,-1.456 2.16,-2.4 z"
         id="path2730" />
      <path
         style="fill:#d7d7d7"
         d="m 39.84,48.96 c 2.54,-2.74 5.18,-5.38 7.92,-7.92 -0.576,0.944 -1.584,1.456 -2.16,2.4 -1.3,1.1 -2.5,2.3 -3.6,3.6 -0.865,0.495 -1.295,1.425 -2.16,1.92 z"
         id="path2732" />
      <path
         style="fill:#d7d7d7"
         d="m 22.8,71.76 c 0.979,-2.381 2.002,-4.718 4.08,-6 -1.395,1.966 -2.598,4.122 -4.08,6 z"
         id="path2734" />
      <path
         style="fill:#2c2c2c"
         d="m 144,0.48 c 0.729,-0.711 3.111,0.231 3.84,-0.48 0.72,0 1.44,0 2.16,0 -1.651,0.509 -3.817,0.502 -6,0.48 z"
         id="path2736" />
      <path
         style="fill:#2c2c2c"
         d="m 199.44,6.96 c 2.38,0.42 4.359,1.241 6.24,2.16 -2.11,-0.69 -4.33,-1.269 -6.24,-2.16 z"
         id="path2738" />
      <path
         style="fill:#2c2c2c"
         d="m 218.881,14.4 c 0.934,0.266 1.734,0.664 2.398,1.2 -0.932,-0.266 -1.736,-0.664 -2.398,-1.2 z"
         id="path2740" />
      <path
         style="fill:#2c2c2c"
         d="m 225.36,17.52 c 0.898,0.142 1.396,0.683 1.92,1.2 -0.601,-0.438 -1.58,-0.499 -1.92,-1.2 z"
         id="path2742" />
      <path
         style="fill:#2c2c2c"
         d="m 229.92,20.16 c -0.61,-0.27 -1.17,-0.59 -1.68,-0.96 0.576,-0.715 1.033,0.71 1.68,0.72 0,0.08 0,0.16 0,0.24 z"
         id="path2744" />
      <path
         style="fill:#2c2c2c"
         d="m 232.081,21.36 c -0.61,-0.27 -1.17,-0.589 -1.681,-0.96 0.413,-0.475 1.559,0.347 1.681,0.96 z"
         id="path2746" />
      <path
         style="fill:#2c2c2c"
         d="m 257.521,39.84 c 1.142,0.94 2.181,1.98 3.12,3.12 -1.141,-0.939 -2.182,-1.98 -3.12,-3.12 z"
         id="path2748" />
      <path
         style="fill:#2c2c2c"
         d="m 261.12,43.2 c 1.461,1.26 2.82,2.62 4.08,4.08 -1.459,-1.259 -2.819,-2.62 -4.08,-4.08 z"
         id="path2750" />
      <path
         style="fill:#2c2c2c"
         d="m 265.44,47.76 c 1.061,0.859 2.021,1.819 2.88,2.88 -1.06,-0.86 -2.021,-1.82 -2.88,-2.88 z"
         id="path2752" />
      <path
         style="fill:#2c2c2c"
         d="m 278.641,63.36 c -0.605,-0.355 -0.992,-0.928 -1.2,-1.68 -0.3,-1.219 0.823,1.292 1.2,1.68 z"
         id="path2754" />
      <path
         style="fill:#2c2c2c"
         d="m 281.042,66.72 c -0.605,-0.354 -0.992,-0.928 -1.201,-1.68 0.514,-0.499 0.641,1.426 1.201,1.68 z"
         id="path2756" />
      <path
         style="fill:#2c2c2c"
         d="m 282.48,69.12 c 0.981,0.378 1.05,1.67 1.681,2.4 -0.819,-0.542 -1.055,-1.666 -1.681,-2.4 z"
         id="path2758" />
      <path
         style="fill:#2c2c2c"
         d="m 284.161,71.76 c 1.518,1.363 2.354,3.406 3.359,5.28 -1.34,-1.539 -2.169,-3.59 -3.359,-5.28 z"
         id="path2760" />
      <path
         style="fill:#2c2c2c"
         d="m 289.2,80.4 c 0.788,0.493 0.918,1.644 1.44,2.4 -0.786,-0.492 -0.915,-1.643 -1.44,-2.4 z"
         id="path2762" />
      <path
         style="fill:#2c2c2c"
         d="m 292.081,85.92 c 0.537,0.664 0.935,1.466 1.199,2.4 -0.535,-0.664 -0.933,-1.466 -1.199,-2.4 z"
         id="path2764" />
      <path
         style="fill:#2c2c2c"
         d="m 294.48,90.96 c -0.562,-0.399 -0.616,-1.303 -0.96,-1.92 0.959,-0.079 0.507,1.254 0.96,1.68 0,0.08 0,0.16 0,0.24 z"
         id="path2766" />
      <path
         style="fill:#676767"
         d="m 295.2,92.64 c -0.479,-0.319 -0.533,-1.065 -0.72,-1.68 0,-0.08 0,-0.16 0,-0.24 0.427,0.453 0.791,0.969 0.72,1.92 z"
         id="path2768" />
      <path
         style="fill:#2c2c2c"
         d="m 296.4,95.52 c -0.627,-0.653 -0.748,-1.811 -1.2,-2.64 1.045,0.236 0.797,1.764 1.2,2.64 z"
         id="path2770" />
      <path
         style="fill:#2c2c2c"
         d="m 300.48,193.92 c -0.42,2.38 -1.239,4.359 -2.16,6.24 0.69,-2.109 1.27,-4.331 2.16,-6.24 z"
         id="path2772" />
      <path
         style="fill:#2c2c2c"
         d="m 293.521,212.16 c 0.131,1.092 -0.655,1.266 -0.96,1.92 0.186,-0.773 0.501,-1.418 0.96,-1.92 z"
         id="path2774" />
      <path
         style="fill:#2c2c2c"
         d="m 288.961,221.04 c 0.438,-0.603 0.498,-1.58 1.199,-1.92 -0.14,0.9 -0.682,1.398 -1.199,1.92 z"
         id="path2776" />
      <path
         style="fill:#2c2c2c"
         d="m 286.561,225.359 c 0.602,-1.159 1.24,-2.279 1.92,-3.359 0.118,0.924 -0.949,2.729 -1.92,3.359 z"
         id="path2778" />
      <path
         style="fill:#2c2c2c"
         d="m 266.161,252.48 c 0.779,-0.98 1.659,-1.86 2.641,-2.641 -0.781,0.981 -1.661,1.862 -2.641,2.641 z"
         id="path2780" />
      <path
         style="fill:#2c2c2c"
         d="m 260.161,258.721 c 1.899,-2.101 3.899,-4.101 6,-6 -1.901,2.099 -3.901,4.099 -6,6 z"
         id="path2782" />
      <path
         style="fill:#2c2c2c"
         d="m 257.28,261.359 c 0.78,-0.979 1.66,-1.859 2.641,-2.64 -0.78,0.982 -1.661,1.862 -2.641,2.64 z"
         id="path2784" />
      <path
         style="fill:#2c2c2c"
         d="m 244.801,271.439 c 0.354,-0.604 0.928,-0.991 1.68,-1.199 1.219,-0.301 -1.293,0.822 -1.68,1.199 z"
         id="path2786" />
      <path
         style="fill:#2c2c2c"
         d="m 234,278.641 c 0.543,-0.816 1.666,-1.054 2.399,-1.68 -0.496,0.862 -1.461,1.256 -2.399,1.68 z"
         id="path2788" />
      <path
         style="fill:#2c2c2c"
         d="m 226.801,282.721 c 0.339,-0.701 1.318,-0.762 1.92,-1.199 -0.085,0.955 -1.439,0.641 -1.92,1.199 z"
         id="path2790" />
      <path
         style="fill:#2c2c2c"
         d="m 217.92,287.041 c 0.588,-0.613 1.58,-0.821 2.399,-1.2 0,0.08 0,0.16 0,0.239 -0.793,0.326 -1.54,0.699 -2.399,0.961 z"
         id="path2792" />
      <path
         style="fill:#2c2c2c"
         d="m 215.761,288.001 c 0.399,-0.562 1.304,-0.617 1.92,-0.96 -0.02,0.939 -1.3,0.619 -1.92,0.96 z"
         id="path2794" />
      <path
         style="fill:#2c2c2c"
         d="m 158.641,300.961 c 1.527,-0.633 3.861,-0.459 6,-0.48 0.16,0 0.318,0 0.479,0 0,0.08 0,0.16 0,0.24 -1.045,0.154 -2.713,-0.312 -3.358,0.24 -1.041,0 -2.081,0 -3.121,0 z"
         id="path2796" />
      <path
         style="fill:#676767"
         d="m 90.48,287.521 c 2.581,1.18 5.396,2.123 7.92,3.359 -3.016,-0.743 -5.658,-1.86 -7.92,-3.359 z"
         id="path2798" />
      <path
         style="fill:#2c2c2c"
         d="m 88.8,286.801 c 0.613,0.106 1.104,0.336 1.44,0.721 -0.715,-0.006 -1.462,0.021 -1.44,-0.721 z"
         id="path2800" />
      <path
         style="fill:#2c2c2c"
         d="m 87.6,286.32 c -2.429,-1.092 -4.931,-2.108 -6.96,-3.6 2.293,1.228 4.801,2.24 6.96,3.6 z"
         id="path2802" />
      <path
         style="fill:#2c2c2c"
         d="m 70.32,276.721 c 0.734,0.627 1.857,0.862 2.4,1.68 -0.952,-0.327 -1.718,-0.842 -2.4,-1.438 0,-0.082 0,-0.162 0,-0.242 z"
         id="path2804" />
      <path
         style="fill:#2c2c2c"
         d="m 48.48,260.16 c -0.786,-0.413 -1.134,-1.266 -1.92,-1.68 -1.74,-1.94 -3.58,-3.78 -5.52,-5.521 -0.332,-0.709 -1.108,-0.972 -1.44,-1.681 3.06,2.863 6.02,5.824 8.88,8.882 z"
         id="path2806" />
      <path
         style="fill:#2c2c2c"
         d="m 25.92,233.761 c -0.9,-0.62 -1.336,-1.704 -1.92,-2.641 0.839,0.682 1.244,1.797 1.92,2.641 z"
         id="path2808" />
      <path
         style="fill:#2c2c2c"
         d="m 18.48,221.761 c 0.68,1.08 1.32,2.2 1.92,3.359 -0.972,-0.632 -2.038,-2.434 -1.92,-3.359 z"
         id="path2810" />
      <path
         style="fill:#2c2c2c"
         d="m 18,220.801 c -0.787,-0.492 -0.917,-1.644 -1.44,-2.4 0.787,0.494 0.917,1.643 1.44,2.4 z"
         id="path2812" />
      <path
         style="fill:#2c2c2c"
         d="m 15.12,215.279 c -0.615,-0.823 -1.094,-1.785 -1.44,-2.879 0.615,0.827 1.094,1.788 1.44,2.879 z"
         id="path2814" />
      <path
         style="fill:#676767"
         d="m 12.48,209.761 c 0.383,0.337 0.613,0.826 0.72,1.439 -0.742,0.023 -0.715,-0.723 -0.72,-1.439 z"
         id="path2816" />
      <path
         style="fill:#2c2c2c"
         d="m 11.76,208.08 c 0.383,0.337 0.613,0.827 0.72,1.439 -0.742,0.024 -0.715,-0.723 -0.72,-1.439 z"
         id="path2818" />
      <path
         style="fill:#2c2c2c"
         d="m 0,154.08 c 0.521,1.479 0.5,3.501 0.48,5.521 -0.71,-0.65 0.23,-2.953 -0.48,-3.602 0,-0.64 0,-1.278 0,-1.919 z"
         id="path2820" />
      <path
         style="fill:#2c2c2c"
         d="m 7.92,102.96 c 0.364,-0.836 0.118,-2.282 0.96,-2.64 -0.17,1.03 -0.392,2.009 -0.96,2.64 z"
         id="path2822" />
      <path
         style="fill:#676767"
         d="m 12.72,90.72 c -0.186,0.615 -0.24,1.36 -0.72,1.68 -0.071,-0.951 0.293,-1.467 0.72,-1.92 0,0.08 0,0.16 0,0.24 z"
         id="path2824" />
      <path
         style="fill:#2c2c2c"
         d="m 13.44,89.28 c -0.107,0.613 -0.336,1.104 -0.72,1.439 0,-0.08 0,-0.16 0,-0.24 0.028,-0.611 0.045,-1.234 0.72,-1.199 z"
         id="path2826" />
      <path
         style="fill:#2c2c2c"
         d="m 13.92,88.08 c 1.091,-2.429 2.109,-4.931 3.6,-6.96 -1.227,2.293 -2.239,4.801 -3.6,6.96 z"
         id="path2828" />
      <path
         style="fill:#2c2c2c"
         d="m 21.12,74.64 c -0.348,0.452 -0.353,1.247 -0.96,1.44 0.019,-0.781 0.307,-1.293 0.96,-1.44 z"
         id="path2830" />
      <path
         style="fill:#2c2c2c"
         d="m 21.12,74.4 c 0.432,-0.929 0.74,-1.98 1.68,-2.4 -0.626,0.734 -0.862,1.857 -1.68,2.4 z"
         id="path2832" />
      <path
         style="fill:#2c2c2c"
         d="m 37.68,51.84 c 0.699,-0.9 1.5,-1.7 2.4,-2.4 -0.7,0.901 -1.499,1.701 -2.4,2.4 z"
         id="path2834" />
      <path
         style="fill:#2c2c2c"
         d="m 40.08,49.2 c 0.495,-0.865 1.425,-1.295 1.92,-2.16 1.3,-1.1 2.5,-2.3 3.6,-3.6 0.865,-0.495 1.295,-1.425 2.16,-1.92 -2.46,2.66 -5.02,5.22 -7.68,7.68 z"
         id="path2836" />
      <path
         style="fill:#2c2c2c"
         d="m 82.56,17.28 c 0.757,-0.843 1.964,-1.236 3.12,-1.68 -0.876,0.724 -2.109,1.09 -3.12,1.68 z"
         id="path2838" />
      <path
         style="fill:#2c2c2c"
         d="m 87.84,14.64 c 0.236,-0.644 1.003,-0.757 1.68,-0.96 0.08,0 0.16,0 0.24,0 -0.502,0.458 -1.146,0.774 -1.92,0.96 z"
         id="path2840" />
      <path
         style="fill:#676767"
         d="m 89.52,13.68 c 0.454,-0.427 0.969,-0.791 1.92,-0.72 -0.32,0.48 -1.065,0.535 -1.68,0.72 -0.08,0 -0.16,0 -0.24,0 z"
         id="path2842" />
      <path
         style="fill:#2c2c2c"
         d="m 93.84,12 c 0.925,-0.995 2.422,-1.417 4.08,-1.68 -1.238,0.681 -2.669,1.171 -4.08,1.68 z"
         id="path2844" />
      <path
         style="fill:#2c2c2c"
         d="m 98.16,10.32 c 0.042,-0.758 0.949,-0.65 1.68,-0.72 -0.458,0.342 -1.042,0.558 -1.68,0.72 z"
         id="path2846" />
      <path
         style="fill:#676767"
         d="m 100.08,9.6 c 0.295,-0.825 1.41,-0.83 2.4,-0.96 -0.676,0.444 -1.497,0.743 -2.4,0.96 z"
         id="path2848" />
      <path
         style="fill:#d7d7d7"
         d="m 265.681,47.28 c -1.62,-1.42 -3.142,-2.94 -4.562,-4.561 1.622,1.421 3.141,2.941 4.562,4.561 z"
         id="path2850" />
      <path
         style="fill:#a2a2a2"
         d="m 253.92,36.72 c 2.822,1.577 4.629,4.172 7.199,6 1.42,1.62 2.94,3.14 4.562,4.561 1.375,1.984 3.337,3.383 4.56,5.52 -0.771,-0.587 -1.517,-1.204 -1.92,-2.16 -0.859,-1.061 -1.818,-2.021 -2.88,-2.88 -0.046,-0.194 -0.239,-0.239 -0.239,-0.479 -1.261,-1.46 -2.619,-2.82 -4.08,-4.08 -0.195,-0.046 -0.24,-0.241 -0.479,-0.24 -0.938,-1.14 -1.979,-2.18 -3.12,-3.12 -1.415,-0.83 -2.506,-1.978 -3.603,-3.122 z"
         id="path2852" />
      <path
         style="fill:#676767"
         d="m 42,47.04 c 1.1,-1.3 2.3,-2.5 3.6,-3.6 -1.1,1.3 -2.3,2.5 -3.6,3.6 z"
         id="path2854" />
      <path
         style="fill:#a2a2a2"
         d="m 39.84,48.96 c 0.865,-0.495 1.295,-1.425 2.16,-1.92 -0.495,0.865 -1.425,1.295 -1.92,2.16 0,0.08 0,0.16 0,0.24 -0.9,0.7 -1.701,1.5 -2.4,2.4 -0.158,0.883 -0.885,1.195 -1.44,1.68 0.893,-1.827 2.59,-2.85 3.6,-4.56 z"
         id="path2856" />
      <path
         style="fill:#2c2c2c"
         d="M 288.721,79.2 C 288.246,79.034 288.08,78.56 288,78 c 0.247,-0.536 0.827,0.591 0.721,1.2 z"
         id="path2858" />
      <path
         style="fill:#2c2c2c"
         d="m 18.96,78.24 c -0.08,0.56 -0.246,1.034 -0.72,1.2 -0.106,-0.608 0.473,-1.736 0.72,-1.2 z"
         id="path2860" />
      <path
         style="fill:#d7d7d7"
         d="m 226.081,282.961 c -1.24,1.721 -3.473,2.448 -5.761,3.119 0,-0.079 0,-0.159 0,-0.239 1.921,-0.96 3.841,-1.921 5.761,-2.88 z"
         id="path2862" />
      <path
         style="fill:#d7d7d7"
         d="m 260.4,258.961 c 1.899,-2.102 3.899,-4.102 6,-6 -1.9,2.1 -3.9,4.1 -6,6 z"
         id="path2864" />
      <path
         style="fill:#a2a2a2"
         d="m 270.48,247.921 c -1.032,2.009 -2.899,3.181 -4.08,5.04 -2.101,1.898 -4.101,3.898 -6,6 -1.903,1.296 -3.263,3.137 -5.28,4.318 0.588,-0.771 1.205,-1.516 2.16,-1.92 0.98,-0.778 1.86,-1.658 2.641,-2.64 0.08,0 0.16,0 0.24,0 2.101,-1.899 4.101,-3.899 6,-6 0,-0.079 0,-0.159 0,-0.239 0.979,-0.779 1.859,-1.66 2.641,-2.641 0.232,-0.965 1.047,-1.35 1.678,-1.918 z"
         id="path2866" />
      <path
         style="fill:#d7d7d7"
         d="m 42.96,255.12 c -2.177,-1.742 -3.908,-3.933 -5.52,-6.239 0.787,0.732 1.772,1.268 2.16,2.398 0.332,0.71 1.108,0.973 1.44,1.682 0.495,0.864 1.425,1.295 1.92,2.159 z"
         id="path2868" />
      <path
         style="fill:#d7d7d7"
         d="m 44.64,256.801 c 0.786,0.413 1.134,1.266 1.92,1.68 0.414,0.787 1.266,1.135 1.68,1.92 -1.3,-1.1 -2.5,-2.299 -3.6,-3.6 z"
         id="path2870" />
      <path
         style="fill:#676767"
         d="m 42.96,255.12 c -0.495,-0.864 -1.425,-1.295 -1.92,-2.159 1.94,1.739 3.78,3.579 5.52,5.52 -0.786,-0.414 -1.134,-1.267 -1.92,-1.68 -0.661,-0.459 -1.221,-1.02 -1.68,-1.681 z"
         id="path2872" />
      <path
         style="fill:#a2a2a2"
         d="m 48.24,260.4 c -0.414,-0.787 -1.267,-1.135 -1.68,-1.92 0.786,0.414 1.134,1.267 1.92,1.68 1.132,0.389 1.667,1.373 2.4,2.16 -0.889,-0.631 -1.696,-1.343 -2.64,-1.92 z"
         id="path2874" />
      <path
         style="fill:#2c2c2c"
         d="m 231.12,280.32 c 0.193,-0.607 0.988,-0.611 1.44,-0.961 -0.147,0.655 -0.659,0.942 -1.44,0.961 z"
         id="path2876" />
      <path
         style="fill:#2c2c2c"
         d="m 229.44,281.279 c 0.191,-0.605 0.988,-0.61 1.439,-0.959 -0.146,0.655 -0.658,0.942 -1.439,0.959 z"
         id="path2878" />
      <path
         style="fill:#2c2c2c"
         d="m 77.76,281.279 c 0.56,0.08 1.034,0.246 1.2,0.722 -0.608,0.104 -1.736,-0.474 -1.2,-0.722 z"
         id="path2880" />
      <path
         style="fill:#a2a2a2"
         d="m 142.32,0 c 1.84,0 3.68,0 5.52,0 -0.729,0.711 -3.111,-0.231 -3.84,0.48 -0.32,0 -0.64,0 -0.96,0 -0.16,0 -0.32,0 -0.479,0 0,-0.241 -0.195,-0.286 -0.241,-0.48 z"
         id="path2882" />
      <path
         style="fill:#676767"
         d="m 166.32,0.48 c 3.722,0.199 7.283,0.557 10.56,1.2 0,0.08 0,0.16 0,0.24 -3.506,-0.413 -7.023,-0.815 -10.56,-1.2 0,-0.08 0,-0.16 0,-0.24 z"
         id="path2884" />
      <path
         style="fill:#2c2c2c"
         d="m 176.879,1.68 c 3.556,0.605 7.539,0.782 10.32,2.16 -3.395,-0.686 -6.867,-1.292 -10.32,-1.92 0,-0.08 0,-0.16 0,-0.24 z"
         id="path2886" />
      <path
         style="fill:#2c2c2c"
         d="m 188.4,4.08 c 1.966,-0.124 5.067,0.691 6.72,1.68 -2.321,-0.479 -4.56,-1.039 -6.72,-1.68 z"
         id="path2888" />
      <path
         style="fill:#2c2c2c"
         d="m 206.641,9.36 c 0.73,0.069 1.638,-0.038 1.68,0.72 -0.759,0.039 -0.802,-0.638 -1.68,-0.48 0,-0.08 0,-0.16 0,-0.24 z"
         id="path2890" />
      <path
         style="fill:#2c2c2c"
         d="m 208.561,10.08 c 0.73,0.069 1.639,-0.038 1.68,0.72 -0.759,0.04 -0.802,-0.638 -1.68,-0.48 0,-0.08 0,-0.16 0,-0.24 z"
         id="path2892" />
      <path
         style="fill:#2c2c2c"
         d="m 211.681,11.28 c 1.151,-0.113 1.575,0.504 2.159,0.96 -0.759,-0.281 -1.64,-0.439 -2.159,-0.96 z"
         id="path2894" />
      <path
         style="fill:#2c2c2c"
         d="m 214.32,12.48 c 0.947,-0.3 2.647,0.707 3.36,1.44 -1.206,-0.393 -2.219,-0.981 -3.36,-1.44 z"
         id="path2896" />
      <path
         style="fill:#010101"
         d="m 221.28,15.6 c 1.521,0.477 2.691,1.309 4.08,1.92 0.34,0.701 1.318,0.762 1.92,1.2 0.655,-0.175 0.483,0.478 0.961,0.48 0.51,0.37 1.068,0.69 1.68,0.96 0.24,-0.001 0.285,0.194 0.479,0.24 0.511,0.371 1.069,0.69 1.681,0.96 7.924,4.476 14.949,9.851 21.84,15.36 1.097,1.145 2.188,2.292 3.601,3.12 0.938,1.141 1.979,2.181 3.12,3.12 0.24,0 0.285,0.194 0.479,0.24 1.262,1.46 2.621,2.82 4.08,4.08 0,0.241 0.194,0.286 0.24,0.479 0.859,1.06 1.818,2.021 2.88,2.88 0.403,0.957 1.147,1.573 1.921,2.16 2.401,2.958 4.801,5.919 7.199,8.88 0.208,0.752 0.596,1.325 1.2,1.68 0.2,0.76 0.7,1.22 1.2,1.68 0.207,0.752 0.595,1.326 1.199,1.68 0.271,1.007 1.004,1.555 1.439,2.4 0.626,0.734 0.861,1.857 1.68,2.4 0,0.08 0,0.16 0,0.24 1.19,1.689 2.021,3.741 3.36,5.28 0.032,0.447 0.157,0.802 0.479,0.96 0.08,0.56 0.246,1.034 0.721,1.2 -0.037,0.597 0.377,0.743 0.479,1.2 0.524,0.756 0.653,1.907 1.44,2.4 0.315,1.205 0.989,2.049 1.438,3.12 0.268,0.934 0.664,1.736 1.2,2.4 -0.01,0.33 0.113,0.527 0.24,0.72 0.344,0.617 0.399,1.521 0.96,1.92 0.186,0.615 0.238,1.361 0.721,1.68 0,0.08 0,0.16 0,0.24 0.451,0.829 0.572,1.987 1.199,2.64 0.701,2.019 1.512,3.93 2.16,6 0.449,1.39 0.788,2.893 1.439,4.08 0.723,2.158 1.467,4.293 1.92,6.72 0.334,1.585 0.623,3.218 1.201,4.56 0.039,0.359 -0.086,0.886 0.238,0.96 0.311,2.65 0.857,5.062 1.439,7.44 0.195,2.205 0.486,4.314 0.961,6.24 0.148,0.651 -0.305,1.904 0.24,2.16 0.051,1.708 0.109,3.41 0.479,4.8 0,0.24 0,0.48 0,0.72 0.385,5.936 0.202,12.438 0.24,18.72 0,0.32 0,0.641 0,0.96 -0.551,0.489 -0.088,1.993 -0.24,2.881 -0.451,4.669 -1.029,9.21 -1.68,13.681 -0.916,4.846 -2.008,9.513 -3.12,14.16 -0.49,1.35 -0.935,2.744 -1.2,4.318 -0.891,1.909 -1.471,4.131 -2.16,6.24 -0.074,0.324 -0.342,0.459 -0.238,0.96 -0.344,0.458 -0.56,1.042 -0.722,1.681 -0.138,0.502 -0.595,0.686 -0.479,1.439 -0.469,0.57 -0.604,1.476 -0.959,2.16 0,0.08 0,0.16 0,0.24 -0.797,1.282 -1.326,2.832 -1.92,4.318 -0.246,0.314 -0.235,0.885 -0.48,1.2 -0.458,0.502 -0.773,1.146 -0.96,1.92 -0.729,1.75 -1.647,3.312 -2.399,5.04 -0.701,0.34 -0.762,1.318 -1.199,1.92 0.174,0.654 -0.479,0.482 -0.48,0.96 -0.68,1.08 -1.318,2.2 -1.92,3.36 -4.671,8.209 -10.18,15.582 -16.08,22.561 -0.632,0.568 -1.445,0.953 -1.68,1.92 -0.98,0.779 -1.86,1.659 -2.641,2.641 0,0.08 0,0.16 0,0.24 -2.101,1.898 -4.101,3.898 -6,6 -0.08,0 -0.16,0 -0.24,0 -0.979,0.778 -1.859,1.658 -2.641,2.639 -0.956,0.404 -1.572,1.147 -2.16,1.921 -2.895,2.306 -5.849,4.552 -8.64,6.96 -0.752,0.208 -1.325,0.595 -1.681,1.199 -2.93,1.711 -5.299,3.981 -8.399,5.521 -0.733,0.626 -1.856,0.862 -2.399,1.68 -0.851,-0.129 -0.59,0.851 -1.439,0.721 -0.452,0.349 -1.247,0.353 -1.439,0.96 -0.08,0 -0.16,0 -0.24,0 -0.451,0.349 -1.248,0.354 -1.439,0.96 -0.33,-0.01 -0.527,0.113 -0.72,0.24 -0.603,0.438 -1.581,0.498 -1.921,1.199 -0.33,-0.011 -0.526,0.113 -0.721,0.24 -1.92,0.959 -3.84,1.92 -5.76,2.88 -0.82,0.38 -1.812,0.587 -2.4,1.2 -0.078,0 -0.158,0 -0.238,0 -0.616,0.343 -1.521,0.398 -1.92,0.96 -0.756,0.125 -1.34,0.421 -1.92,0.72 -1.238,0.603 -2.776,0.904 -3.842,1.68 -3.27,1.132 -6.613,2.187 -9.84,3.361 -0.865,0.092 -1.602,0.317 -2.16,0.719 -1.373,0.547 -3.025,0.813 -4.56,1.201 -1.267,0.254 -2.579,0.461 -3.601,0.959 -0.358,0.041 -0.885,-0.086 -0.959,0.24 -3.828,0.652 -7.575,1.387 -11.28,2.16 -1.269,0.012 -2.453,0.105 -3.36,0.479 -0.574,0.146 -1.74,-0.301 -1.92,0.24 -0.65,0.148 -1.904,-0.305 -2.16,0.24 -0.808,0.15 -2.229,-0.311 -2.64,0.239 -0.888,0.153 -2.392,-0.312 -2.88,0.239 -2.139,0.021 -4.473,-0.151 -6,0.48 -3.36,0 -6.72,0 -10.08,0 -5.521,-0.799 -11.719,-0.922 -17.28,-1.682 -0.835,-0.364 -1.967,-0.434 -3.12,-0.479 -2.883,-0.638 -5.773,-1.267 -8.88,-1.681 -0.418,0.019 -0.747,-0.054 -0.96,-0.239 -2.079,-0.722 -4.32,-1.279 -6.72,-1.681 -1.329,-0.751 -3.232,-0.929 -4.8,-1.439 -1.188,-0.651 -2.69,-0.989 -4.08,-1.44 -0.533,-0.187 -0.936,-0.504 -1.68,-0.479 -0.04,-0.279 -0.379,-0.261 -0.72,-0.24 -0.407,-0.473 -1.116,-0.644 -1.92,-0.72 -2.524,-1.235 -5.34,-2.181 -7.92,-3.36 -0.08,0 -0.16,0 -0.24,0 -0.336,-0.383 -0.827,-0.612 -1.44,-0.72 -0.457,-0.104 -0.603,-0.518 -1.2,-0.479 -2.159,-1.36 -4.667,-2.372 -6.96,-3.6 -0.601,-0.199 -0.942,-0.658 -1.68,-0.721 -0.166,-0.475 -0.64,-0.641 -1.2,-0.721 -1.608,-1.032 -3.268,-2.012 -5.04,-2.881 -0.542,-0.816 -1.666,-1.053 -2.4,-1.68 -7.054,-4.227 -13.234,-9.326 -19.44,-14.4 -0.732,-0.786 -1.268,-1.771 -2.4,-2.159 -2.86,-3.06 -5.82,-6.021 -8.88,-8.88 -0.388,-1.133 -1.373,-1.668 -2.16,-2.399 -4.063,-4.817 -8.225,-9.536 -11.52,-15.12 -0.676,-0.844 -1.081,-1.959 -1.92,-2.641 -1.221,-1.979 -2.65,-3.749 -3.6,-6 -0.6,-1.159 -1.24,-2.279 -1.92,-3.359 -0.003,-0.478 -0.655,-0.306 -0.48,-0.96 -0.523,-0.757 -0.653,-1.907 -1.44,-2.399 -0.315,-1.205 -0.99,-2.051 -1.44,-3.121 -0.346,-1.094 -0.825,-2.055 -1.44,-2.879 0.037,-0.598 -0.377,-0.743 -0.48,-1.2 -0.107,-0.613 -0.337,-1.104 -0.72,-1.439 0,-0.079 0,-0.159 0,-0.239 -0.107,-0.613 -0.336,-1.104 -0.72,-1.44 0,-0.08 0,-0.16 0,-0.239 -0.622,-1.539 -1.172,-3.148 -1.92,-4.561 -0.03,-0.85 -0.394,-1.365 -0.72,-1.92 -0.099,-1.102 -0.525,-1.875 -0.96,-2.641 -0.171,-1.109 -0.485,-2.076 -0.96,-2.88 -0.073,-1.288 -0.489,-2.231 -0.96,-3.12 -0.139,-1.302 -0.456,-2.425 -0.96,-3.359 -0.5,-2.779 -1.161,-5.399 -1.92,-7.92 0.139,-0.779 -0.164,-1.116 -0.24,-1.681 -1.214,-6.065 -1.939,-12.622 -2.64,-19.2 0,-0.319 0,-0.641 0,-0.959 0.02,-2.021 0.042,-4.043 -0.48,-5.521 0,-2.319 0,-4.64 0,-6.96 0.838,-10.762 1.954,-21.246 4.08,-30.72 -0.018,-0.418 0.054,-0.747 0.24,-0.96 0.588,-1.732 1.15,-3.491 1.44,-5.52 0.474,-0.566 0.565,-1.515 0.72,-2.4 0.471,-0.889 0.888,-1.832 0.96,-3.12 0.539,-0.101 0.007,-1.273 0.48,-1.44 0.568,-0.631 0.79,-1.61 0.96,-2.64 0.28,-0.041 0.261,-0.379 0.24,-0.72 0.473,-0.407 0.644,-1.116 0.72,-1.92 0.498,-0.623 0.818,-1.422 0.96,-2.4 0.603,-0.757 0.887,-1.833 1.2,-2.88 0.48,-0.32 0.535,-1.065 0.72,-1.68 0.383,-0.336 0.613,-0.827 0.72,-1.44 0.103,-0.457 0.517,-0.603 0.48,-1.2 1.361,-2.159 2.373,-4.667 3.6,-6.96 0.199,-0.601 0.658,-0.942 0.72,-1.68 0.474,-0.166 0.64,-0.64 0.72,-1.2 0.444,-0.676 1.012,-1.228 1.2,-2.16 0.607,-0.193 0.612,-0.988 0.96,-1.44 0,-0.08 0,-0.16 0,-0.24 0.817,-0.543 1.054,-1.666 1.68,-2.4 0,-0.08 0,-0.16 0,-0.24 1.482,-1.878 2.686,-4.035 4.08,-6 2.764,-4.437 6.22,-8.18 9.36,-12.24 0.555,-0.485 1.282,-0.797 1.44,-1.68 0.9,-0.699 1.7,-1.499 2.4,-2.4 0,-0.08 0,-0.16 0,-0.24 2.66,-2.46 5.22,-5.02 7.68,-7.68 1.716,-1.164 3.14,-2.62 4.56,-4.08 9.103,-7.697 18.886,-14.714 30.24,-20.16 1.011,-0.59 2.244,-0.957 3.12,-1.68 0.755,-0.285 1.27,-0.81 2.16,-0.96 0.774,-0.186 1.418,-0.502 1.92,-0.96 0.615,-0.186 1.36,-0.24 1.68,-0.72 1.044,-0.076 1.519,-0.721 2.4,-0.96 1.411,-0.509 2.841,-0.999 4.08,-1.68 0.08,0 0.16,0 0.24,0 0.638,-0.162 1.222,-0.377 1.68,-0.72 0.08,0 0.16,0 0.24,0 0.903,-0.217 1.724,-0.516 2.4,-0.96 11.425,-3.936 23.753,-6.967 38.16,-7.92 0.729,-0.151 2.067,0.307 2.4,-0.24 0.32,0 0.64,0 0.96,0 2.182,0.022 4.348,0.029 6,-0.48 2.4,0 4.8,0 7.201,0 0.256,0.545 1.508,0.091 2.159,0.24 0.728,0.554 2.476,0.084 3.601,0.24 0.319,0 0.641,0 0.959,0 0.334,0.547 1.672,0.089 2.4,0.24 3.535,0.384 7.055,0.787 10.561,1.2 3.453,0.628 6.926,1.234 10.32,1.92 0.577,-0.098 0.521,0.438 1.199,0.24 2.159,0.641 4.398,1.201 6.721,1.68 1.351,0.49 2.746,0.935 4.319,1.2 1.909,0.891 4.13,1.47 6.24,2.16 0.323,0.075 0.458,0.341 0.96,0.24 0,0.08 0,0.16 0,0.24 0.878,-0.158 0.921,0.519 1.68,0.48 0.08,0 0.16,0 0.24,0 0,0.08 0,0.16 0,0.24 0.878,-0.158 0.921,0.52 1.68,0.48 0.502,0.138 0.686,0.595 1.44,0.48 0.519,0.521 1.399,0.679 2.159,0.96 0.24,-10e-4 0.285,0.194 0.479,0.24 1.142,0.459 2.153,1.047 3.36,1.44 0.457,0.103 0.604,0.517 1.199,0.48 0.669,0.538 1.473,0.936 2.406,1.202 z"
         id="path2898" />
      <path
         style="fill:#2c2c2c"
         d="m 12,92.4 c -0.313,1.046 -0.598,2.123 -1.2,2.88 0.351,-1.009 0.317,-2.403 1.2,-2.88 z"
         id="path2900" />
      <path
         style="fill:#2c2c2c"
         d="M 9.84,97.68 C 9.764,98.484 9.593,99.193 9.12,99.6 9.472,99.072 9.091,97.812 9.84,97.68 Z"
         id="path2902" />
      <path
         style="fill:#676767"
         d="m 298.561,101.52 c 0.895,0.946 1.232,2.448 1.439,4.08 -0.651,-1.187 -0.99,-2.69 -1.439,-4.08 z"
         id="path2904" />
      <path
         style="fill:#2c2c2c"
         d="m 7.44,104.4 c -0.072,1.288 -0.489,2.231 -0.96,3.12 -0.117,-1.477 0.608,-2.111 0.96,-3.12 z"
         id="path2906" />
      <path
         style="fill:#2c2c2c"
         d="m 301.92,112.32 c 0.906,1.014 1.137,2.705 1.201,4.56 -0.578,-1.342 -0.867,-2.974 -1.201,-4.56 z"
         id="path2908" />
      <path
         style="fill:#2c2c2c"
         d="m 5.76,109.92 c -0.29,2.029 -0.852,3.788 -1.44,5.52 0.122,-2.198 0.771,-3.868 1.44,-5.52 z"
         id="path2910" />
      <path
         style="fill:#2c2c2c"
         d="m 303.36,117.84 c 0.471,-0.48 0.501,1.576 0.721,2.64 0.256,1.239 0.801,2.81 0.721,3.84 0,0.32 0,0.64 0,0.96 -0.583,-2.378 -1.132,-4.79 -1.442,-7.44 z"
         id="path2912" />
      <path
         style="fill:#2c2c2c"
         d="m 4.08,116.4 c -2.126,9.474 -3.242,19.958 -4.08,30.72 0,-0.72 0,-1.44 0,-2.16 0.557,-1.283 0.082,-3.598 0.24,-5.28 0.989,-8.051 1.714,-16.366 3.84,-23.28 z"
         id="path2914" />
      <path
         style="fill:#676767"
         d="m 304.801,124.32 c 0.533,1.867 0.846,3.954 0.959,6.24 0,0.32 0,0.64 0,0.96 -0.475,-1.925 -0.764,-4.035 -0.959,-6.24 0,-0.32 0,-0.64 0,-0.96 z"
         id="path2916" />
      <path
         style="fill:#2c2c2c"
         d="m 305.76,131.521 c 0,-0.32 0,-0.64 0,-0.96 0.541,0.179 0.095,1.346 0.24,1.92 0,0.4 0,0.8 0,1.2 -0.544,-0.256 -0.091,-1.51 -0.24,-2.16 z"
         id="path2918" />
      <path
         style="fill:#676767"
         d="m 306,132.48 c 0.508,1.651 0.502,3.818 0.479,6 -0.369,-1.391 -0.429,-3.092 -0.479,-4.8 0,-0.4 0,-0.8 0,-1.2 z"
         id="path2920" />
      <path
         style="fill:#a2a2a2"
         d="m 0.24,139.68 c -0.158,1.682 0.317,3.997 -0.24,5.28 0,-1.84 0,-3.68 0,-5.52 0.146,0.014 0.284,0.036 0.24,0.24 z"
         id="path2922" />
      <path
         style="fill:#d7d7d7"
         d="m 307.2,140.88 c 0,1.76 0,3.52 0,5.28 -0.078,0 -0.158,0 -0.238,0 0,-1.68 0,-3.36 0,-5.04 0.013,-0.146 0.035,-0.284 0.238,-0.24 z"
         id="path2924" />
      <path
         style="fill:#676767"
         d="m 306.721,161.761 c -0.283,4.837 -0.817,9.423 -1.68,13.681 -0.08,0 -0.16,0 -0.24,0 0.648,-4.471 1.229,-9.012 1.68,-13.681 0.08,0 0.16,0 0.24,0 z"
         id="path2926" />
      <path
         style="fill:#2c2c2c"
         d="m 0.48,160.561 c 0.701,6.578 1.426,13.135 2.64,19.2 -0.08,0 -0.16,0 -0.24,0 -1.081,-5.56 -2.007,-11.272 -2.4,-17.521 0,-0.558 0,-1.12 0,-1.679 z"
         id="path2928" />
      <path
         style="fill:#2c2c2c"
         d="m 305.042,175.439 c -0.875,4.965 -1.547,10.136 -3.36,14.16 1.112,-4.646 2.204,-9.313 3.12,-14.16 0.079,0 0.159,0 0.24,0 z"
         id="path2930" />
      <path
         style="fill:#676767"
         d="m 3.36,181.439 c -0.488,-0.23 -0.518,-0.922 -0.48,-1.68 0.08,0 0.16,0 0.24,0 0.076,0.565 0.379,0.902 0.24,1.68 z"
         id="path2932" />
      <path
         style="fill:#2c2c2c"
         d="m 5.28,189.359 c -1.084,-2.194 -1.553,-5.006 -1.92,-7.92 0.759,2.522 1.419,5.142 1.92,7.92 z"
         id="path2934" />
      <path
         style="fill:#2c2c2c"
         d="m 7.2,195.841 c -0.352,-1.009 -1.078,-1.644 -0.96,-3.12 0.471,0.888 0.887,1.832 0.96,3.12 z"
         id="path2936" />
      <path
         style="fill:#676767"
         d="m 9.12,201.359 c -0.689,-0.51 -0.863,-1.536 -0.96,-2.639 0.435,0.764 0.861,1.54 0.96,2.639 z"
         id="path2938" />
      <path
         style="fill:#676767"
         d="m 298.081,201.12 c -0.068,0.731 0.039,1.639 -0.721,1.681 0.162,-0.639 0.378,-1.223 0.721,-1.681 z"
         id="path2940" />
      <path
         style="fill:#2c2c2c"
         d="m 9.84,203.279 c -0.608,-0.271 -0.696,-1.062 -0.72,-1.92 0.326,0.556 0.69,1.073 0.72,1.92 z"
         id="path2942" />
      <path
         style="fill:#676767"
         d="m 11.76,207.841 c -1.042,-1.118 -1.642,-2.679 -1.92,-4.562 0.748,1.412 1.299,3.023 1.92,4.562 z"
         id="path2944" />
      <path
         style="fill:#676767"
         d="m 296.881,204.24 c -0.1,0.941 -0.094,1.986 -0.961,2.16 0.355,-0.684 0.493,-1.588 0.961,-2.16 z"
         id="path2946" />
      <path
         style="fill:#2c2c2c"
         d="m 295.92,206.641 c -0.414,1.668 -0.967,3.193 -1.92,4.319 0.595,-1.485 1.124,-3.036 1.92,-4.319 z"
         id="path2948" />
      <path
         style="fill:#2c2c2c"
         d="m 213.84,288.721 c -0.703,1.137 -2.551,1.129 -3.84,1.68 1.064,-0.776 2.603,-1.079 3.84,-1.68 z"
         id="path2950" />
      <path
         style="fill:#2c2c2c"
         d="m 98.4,290.881 c 0.804,0.076 1.513,0.247 1.92,0.721 -0.528,-0.353 -1.788,0.027 -1.92,-0.721 z"
         id="path2952" />
      <path
         style="fill:#676767"
         d="m 101.04,291.841 c 0.744,-0.024 1.147,0.293 1.68,0.479 0,0.08 0,0.16 0,0.24 -0.715,-0.083 -1.461,-0.138 -1.68,-0.719 z"
         id="path2954" />
      <path
         style="fill:#2c2c2c"
         d="m 102.72,292.32 c 1.39,0.449 2.892,0.787 4.08,1.439 -1.872,0.111 -2.483,-1.037 -4.08,-1.199 0,-0.08 0,-0.16 0,-0.24 z"
         id="path2956" />
      <path
         style="fill:#676767"
         d="m 200.161,293.761 c -0.31,0.651 -1.193,0.728 -2.16,0.72 0.558,-0.402 1.292,-0.627 2.16,-0.72 z"
         id="path2958" />
      <path
         style="fill:#2c2c2c"
         d="m 111.6,295.2 c 2.4,0.399 4.642,0.959 6.72,1.681 -2.382,-0.418 -4.88,-0.721 -6.72,-1.681 z"
         id="path2960" />
      <path
         style="fill:#2c2c2c"
         d="m 193.44,295.682 c -0.689,0.83 -2.091,0.948 -3.6,0.959 1.021,-0.498 2.334,-0.705 3.6,-0.959 z"
         id="path2962" />
      <path
         style="fill:#2c2c2c"
         d="m 119.28,297.12 c 3.107,0.414 5.997,1.043 8.88,1.681 -0.32,0 -0.64,0 -0.96,0 -2.728,-0.472 -5.587,-0.813 -7.92,-1.681 z"
         id="path2964" />
      <path
         style="fill:#2c2c2c"
         d="m 188.881,296.881 c 0.404,0.303 -1.012,0.562 -1.682,0.721 -2.936,0.694 -6.199,1.103 -8.88,1.439 -0.239,0 -0.479,0 -0.72,0 3.707,-0.773 7.454,-1.508 11.282,-2.16 z"
         id="path2966" />
      <path
         style="fill:#676767"
         d="m 127.2,298.801 c 0.32,0 0.64,0 0.96,0 1.153,0.047 2.285,0.114 3.12,0.479 -0.32,0 -0.64,0 -0.96,0 -0.943,-0.257 -2.348,-0.051 -3.12,-0.479 z"
         id="path2968" />
      <path
         style="fill:#2c2c2c"
         d="m 130.32,299.279 c 0.32,0 0.64,0 0.96,0 5.562,0.76 11.759,0.883 17.28,1.682 -0.56,0 -1.12,0 -1.68,0 -1.204,-0.557 -3.438,-0.083 -5.04,-0.24 -3.733,-0.587 -7.904,-0.737 -11.52,-1.442 z"
         id="path2970" />
      <path
         style="fill:#676767"
         d="m 178.32,299.041 c -0.813,0.386 -1.907,0.491 -3.12,0.479 -0.318,0 -0.64,0 -0.959,0 0.906,-0.373 2.092,-0.468 3.359,-0.479 0.24,0 0.481,0 0.72,0 z"
         id="path2972" />
      <path
         style="fill:#2c2c2c"
         d="m 174.241,299.521 c 0.319,0 0.641,0 0.959,0 -0.179,0.541 -1.346,0.094 -1.92,0.239 -0.32,0 -0.64,0 -0.96,0 0.179,-0.539 1.347,-0.093 1.921,-0.239 z"
         id="path2974" />
      <path
         style="fill:#676767"
         d="m 172.32,299.761 c 0.32,0 0.64,0 0.96,0 -0.179,0.541 -1.346,0.095 -1.92,0.24 -0.4,0 -0.8,0 -1.199,0 0.256,-0.545 1.507,-0.092 2.159,-0.24 z"
         id="path2976" />
      <path
         style="fill:#2c2c2c"
         d="m 170.161,300.001 c 0.399,0 0.799,0 1.199,0 -0.333,0.547 -1.671,0.089 -2.4,0.239 -0.479,0 -0.959,0 -1.438,0 0.409,-0.549 1.831,-0.088 2.639,-0.239 z"
         id="path2978" />
      <path
         style="fill:#676767"
         d="m 167.521,300.24 c 0.479,0 0.96,0 1.438,0 -0.805,0.555 -2.635,0.084 -3.84,0.24 -0.16,0 -0.318,0 -0.479,0 0.489,-0.55 1.993,-0.085 2.881,-0.24 z"
         id="path2980" />
      <path
         style="fill:#a2a2a2"
         d="m 141.84,300.721 c 1.603,0.157 3.836,-0.316 5.04,0.24 -1.76,0 -3.52,0 -5.28,0 0.014,-0.147 0.036,-0.284 0.24,-0.24 z"
         id="path2982" />
      <path
         style="fill:#676767"
         d="m 157.2,0 c 2.562,0 5.12,0 7.68,0 -0.17,0.652 1.133,-0.172 0.961,0.48 -0.641,0 -1.279,0 -1.92,0 -0.319,0 -0.641,0 -0.961,0 -0.726,-0.554 -2.475,-0.084 -3.6,-0.24 C 158.709,0.091 157.456,0.545 157.2,0 Z"
         id="path2984" />
      <path
         style="fill:#a2a2a2"
         d="m 307.2,154.801 c 0,1.76 0,3.52 0,5.279 -0.65,-0.172 0.172,1.132 -0.479,0.96 0,-0.72 0,-1.438 0,-2.16 0,-0.319 0,-0.64 0,-0.96 0.553,-0.566 0.086,-2.152 0.24,-3.119 0.079,0 0.161,0 0.239,0 z"
         id="path2986" />
      <path
         style="fill:#a2a2a2"
         d="m 0,156 c 0.71,0.648 -0.23,2.951 0.48,3.602 0,0.318 0,0.64 0,0.959 0,0.561 0,1.121 0,1.681 C 0.084,162.237 0.346,161.576 0,161.522 0,159.682 0,157.84 0,156 Z"
         id="path2988" />
      <path
         style="fill:#d7d7d7"
         d="m 161.761,300.961 c 0.646,-0.554 2.313,-0.086 3.358,-0.24 0.146,0.014 0.284,0.036 0.24,0.24 -1.198,0 -2.4,0 -3.598,0 z"
         id="path2990" />
      <path
         style="fill:#2c2c2c"
         d="m 306.961,141.12 c 0,1.68 0,3.36 0,5.04 0,2.88 0,5.76 0,8.641 -0.154,0.967 0.312,2.553 -0.24,3.119 -0.038,-6.281 0.145,-12.784 -0.24,-18.72 0.693,0.107 -0.213,1.814 0.48,1.92 z"
         id="path2992" />
    </g>
  </g>
</svg>
