<?xml version="1.0" encoding="UTF-8" standalone="no"?>
<svg
   xmlns:dc="http://purl.org/dc/elements/1.1/"
   xmlns:cc="http://creativecommons.org/ns#"
   xmlns:rdf="http://www.w3.org/1999/02/22-rdf-syntax-ns#"
   xmlns:svg="http://www.w3.org/2000/svg"
   xmlns="http://www.w3.org/2000/svg"
   id="svg8"
   version="1.1"
   viewBox="0 0 16.933333 16.933333"
   height="64"
   width="64">
  <defs
     id="defs2" />
  <metadata
     id="metadata5">
    <rdf:RDF>
      <cc:Work
         rdf:about="">
        <dc:format>image/svg+xml</dc:format>
        <dc:type
           rdf:resource="http://purl.org/dc/dcmitype/StillImage" />
        <dc:title></dc:title>
      </cc:Work>
    </rdf:RDF>
  </metadata>
  <g
     transform="translate(0,-280.06667)"
     id="layer1">
    <g
       transform="matrix(0.0353176,0,0,0.0353176,2.8257025,281.84932)"
       id="g4274">
      <path
         d="m 15.36,0.08 c 5.04,0 10.08,0 15.12,0 3.481,0.999 7.278,1.682 9.84,3.6 0.08,0 0.16,0 0.24,0 2.303,1.857 4.383,3.937 6.24,6.24 1.828,2.652 2.236,6.724 3.36,10.08 1.005,5.315 2.232,10.408 3.6,15.36 0,0.08 0,0.16 0,0.24 0.084,1.115 0.308,2.092 0.72,2.88 -0.077,0.557 0.039,0.921 0.24,1.2 0.084,1.115 0.308,2.092 0.72,2.88 -0.076,0.557 0.039,0.921 0.24,1.2 0.534,2.746 1.077,5.483 1.92,7.92 2.049,9.711 4.29,19.23 6.72,28.56 0.684,3.956 1.592,7.688 2.64,11.28 0,0.08 0,0.16 0,0.24 0.085,1.115 0.308,2.092 0.72,2.88 -0.077,0.557 0.039,0.921 0.24,1.2 0.085,1.115 0.308,2.092 0.72,2.88 -0.077,0.557 0.039,0.921 0.24,1.2 0.085,1.115 0.308,2.092 0.72,2.88 -0.077,0.557 0.039,0.921 0.24,1.2 0.534,2.746 1.077,5.483 1.92,7.92 1.729,8.351 3.649,16.51 5.76,24.48 0.684,3.956 1.592,7.688 2.64,11.28 0,0.08 0,0.16 0,0.24 0.085,1.115 0.308,2.092 0.72,2.88 -0.077,0.557 0.039,0.921 0.24,1.2 0.085,1.115 0.308,2.092 0.72,2.88 -0.077,0.557 0.039,0.921 0.24,1.2 0.085,1.115 0.308,2.092 0.72,2.88 -0.077,0.557 0.039,0.921 0.24,1.2 0.534,2.747 1.077,5.483 1.92,7.92 1.729,8.351 3.649,16.51 5.76,24.48 1.005,5.315 2.232,10.408 3.6,15.36 0,0.08 0,0.159 0,0.239 0.084,1.115 0.308,2.092 0.72,2.88 -0.076,0.558 0.039,0.922 0.24,1.2 0.085,1.115 0.308,2.092 0.72,2.88 -0.076,0.557 0.039,0.922 0.24,1.2 0.534,2.746 1.077,5.482 1.92,7.92 1.729,8.352 3.649,16.511 5.76,24.479 1.004,5.315 2.232,10.407 3.6,15.36 0,0.079 0,0.158 0,0.238 0.085,1.115 0.308,2.093 0.72,2.881 -0.077,0.557 0.039,0.922 0.24,1.199 0.085,1.115 0.308,2.093 0.72,2.881 -0.077,0.557 0.039,0.922 0.24,1.199 0.534,2.746 1.077,5.483 1.92,7.92 1.729,8.353 3.649,16.512 5.76,24.48 1.005,5.314 2.232,10.407 3.6,15.359 0,0.08 0,0.16 0,0.24 0.085,1.114 0.308,2.092 0.72,2.879 -0.077,0.558 0.039,0.923 0.24,1.201 0.085,1.114 0.308,2.092 0.72,2.879 -0.077,0.558 0.039,0.922 0.24,1.201 0.534,2.746 1.077,5.482 1.92,7.92 2.049,9.711 4.29,19.229 6.72,28.561 0.684,3.956 1.592,7.688 2.64,11.279 0,0.08 0,0.16 0,0.24 0.084,1.114 0.308,2.092 0.72,2.879 -0.077,0.558 0.039,0.922 0.24,1.201 0.084,1.114 0.308,2.092 0.72,2.879 0.048,0.912 0.212,1.709 0.48,2.4 -45.359,0 -90.721,0 -136.08,0 C 0,257.515 0,129.047 0,0.56 4.684,-0.036 10.712,0.712 15.36,0.08 Z"
         id="path3595" />
      <path
         style="fill:#d3d1d0"
         d="m 198.24,293.601 c 0.967,-0.399 3.594,-0.399 4.561,0 -1.521,0 -3.04,0 -4.561,0 z"
         id="path3597" />
      <path
         style="fill:#d3d1d0"
         d="m 277.44,293.601 c 0.968,-0.399 3.595,-0.399 4.562,0 -1.522,0 -3.042,0 -4.562,0 z"
         id="path3599" />
      <path
         style="fill:#9e9b9b"
         d="m 197.041,293.84 c -0.041,-0.521 0.852,-0.108 1.199,-0.239 1.521,0 3.04,0 4.561,0 0.359,0.041 0.887,-0.086 0.961,0.239 -2.241,0 -4.482,0 -6.721,0 z"
         id="path3601" />
      <path
         style="fill:#9e9b9b"
         d="m 276.24,293.84 c -0.039,-0.521 0.852,-0.108 1.2,-0.239 1.521,0 3.04,0 4.562,0 0.357,0.041 0.886,-0.086 0.959,0.239 -2.24,0 -4.481,0 -6.721,0 z"
         id="path3603" />
      <path
         style="fill:#292827"
         d="m 197.041,294.081 c 0,-0.08 0,-0.16 0,-0.24 2.239,0 4.479,0 6.721,0 0.08,0 0.158,0 0.238,0 0,0.08 0,0.16 0,0.24 -2.319,0 -4.64,0 -6.959,0 z"
         id="path3605" />
      <path
         style="fill:#292827"
         d="m 276.24,294.081 c 0,-0.08 0,-0.16 0,-0.24 2.24,0 4.48,0 6.721,0 0.08,0 0.16,0 0.24,0 0,0.08 0,0.16 0,0.24 -2.321,0 -4.64,0 -6.961,0 z"
         id="path3607" />
      <path
         style="fill:#d3d1d0"
         d="m 156.72,302.24 c 0.336,-0.397 2.304,-0.397 2.64,0 -0.88,0 -1.76,0 -2.64,0 z"
         id="path3609" />
      <path
         style="fill:#d3d1d0"
         d="m 235.921,302.24 c 0.412,-0.397 2.466,-0.397 2.879,0 -0.959,0 -1.92,0 -2.879,0 z"
         id="path3611" />
      <path
         style="fill:#d3d1d0"
         d="m 315.121,302.24 c 0.414,-0.397 2.467,-0.397 2.881,0 -0.961,0 -1.92,0 -2.881,0 z"
         id="path3613" />
      <path
         style="fill:#292827"
         d="m 157.2,302.479 c 2.4,0 4.799,0 7.2,0 -1.842,0.4 -5.357,0.4 -7.2,0 z"
         id="path3615" />
      <path
         style="fill:#292827"
         d="m 236.4,302.479 c 2.4,0 4.801,0 7.2,0 -1.843,0.4 -5.356,0.4 -7.2,0 z"
         id="path3617" />
      <path
         style="fill:#292827"
         d="m 196.32,323.121 c 2.242,-0.399 6.158,-0.399 8.4,0 -2.801,0 -5.599,0 -8.4,0 z"
         id="path3619" />
      <path
         style="fill:#292827"
         d="m 275.521,323.121 c 2.162,-0.399 5.998,-0.399 8.16,0 -2.721,0 -5.441,0 -8.16,0 z"
         id="path3621" />
      <path
         style="fill:#292827"
         d="m 161.761,331.521 c 0.726,-0.555 2.475,-0.084 3.6,-0.24 -0.104,0.537 -1.183,0.098 -1.68,0.24 -0.64,0 -1.281,0 -1.92,0 z"
         id="path3623" />
      <path
         style="fill:#292827"
         d="m 235.681,331.521 c 0,-0.08 0,-0.16 0,-0.24 1.045,0.154 2.713,-0.312 3.359,0.24 -0.561,0 -1.119,0 -1.681,0 -0.559,0 -1.119,0 -1.678,0 z"
         id="path3625" />
      <path
         style="fill:#292827"
         d="m 241.201,331.521 c 0.646,-0.554 2.314,-0.086 3.359,-0.24 0,0.08 0,0.16 0,0.24 -0.561,0 -1.12,0 -1.68,0 -0.56,0 -1.119,0 -1.679,0 z"
         id="path3627" />
      <path
         style="fill:#292827"
         d="m 314.88,331.521 c 0,-0.08 0,-0.16 0,-0.24 1.045,0.154 2.713,-0.312 3.359,0.24 -0.561,0 -1.119,0 -1.68,0 -0.558,0 -1.118,0 -1.679,0 z"
         id="path3629" />
      <path
         style="fill:#605d5d"
         d="m 157.92,331.76 c 0,-0.079 0,-0.159 0,-0.239 0.64,0 1.28,0 1.92,0 0.64,0 1.281,0 1.919,0 0.641,0 1.279,0 1.921,0 0,0.08 0,0.16 0,0.239 -1.919,0 -3.84,0 -5.76,0 z"
         id="path3631" />
      <path
         style="fill:#605d5d"
         d="m 237.36,331.76 c 0,-0.079 0,-0.159 0,-0.239 0.562,0 1.12,0 1.681,0 0.721,0 1.439,0 2.16,0 0.561,0 1.119,0 1.68,0 0,0.08 0,0.16 0,0.239 -1.84,0 -3.68,0 -5.521,0 z"
         id="path3633" />
      <path
         style="fill:#605d5d"
         d="m 316.56,331.76 c 0,-0.079 0,-0.159 0,-0.239 0.562,0 1.121,0 1.682,0 0.24,0 0.479,0 0.721,0 0.16,0 0.318,0 0.479,0 0,0.08 0,0.16 0,0.239 -0.962,0 -1.921,0 -2.882,0 z"
         id="path3635" />
      <path
         style="fill:#d3d1d0"
         d="m 163.681,331.76 c 2.117,0.378 -8.15,0.361 -5.76,0 1.919,0 3.84,0 5.76,0 z"
         id="path3637" />
      <path
         style="fill:#d3d1d0"
         d="m 242.88,331.76 c 2.162,0.378 -7.952,0.36 -5.521,0 1.842,0 3.682,0 5.521,0 z"
         id="path3639" />
      <path
         style="fill:#d3d1d0"
         d="m 319.441,332 c -0.814,-0.006 -4.691,0.095 -2.881,-0.24 0.959,0 1.92,0 2.881,0 0,0.08 0,0.16 0,0.24 z"
         id="path3641" />
      <path
         style="fill:#d3d1d0"
         d="m 198.24,347.36 c 0.967,-0.398 3.594,-0.398 4.561,0 -1.521,0 -3.04,0 -4.561,0 z"
         id="path3643" />
      <path
         style="fill:#d3d1d0"
         d="m 277.44,347.36 c 0.968,-0.398 3.595,-0.398 4.562,0 -1.522,0 -3.042,0 -4.562,0 z"
         id="path3645" />
      <path
         style="fill:#9e9b9b"
         d="m 197.041,347.601 c -0.041,-0.521 0.852,-0.108 1.199,-0.24 1.521,0 3.04,0 4.561,0 0.35,0.132 1.24,-0.28 1.199,0.24 -2.319,0 -4.64,0 -6.959,0 z"
         id="path3647" />
      <path
         style="fill:#9e9b9b"
         d="m 276.24,347.601 c -0.039,-0.521 0.852,-0.108 1.2,-0.24 1.521,0 3.04,0 4.562,0 0.349,0.132 1.24,-0.28 1.199,0.24 -2.321,0 -4.64,0 -6.961,0 z"
         id="path3649" />
      <path
         style="fill:#292827"
         d="m 197.041,347.84 c 0,-0.08 0,-0.159 0,-0.239 2.319,0 4.641,0 6.959,0 0,0.08 0,0.159 0,0.239 -2.319,0 -4.64,0 -6.959,0 z"
         id="path3651" />
      <path
         style="fill:#292827"
         d="m 276.24,347.84 c 0,-0.08 0,-0.159 0,-0.239 2.32,0 4.641,0 6.961,0 0,0.08 0,0.159 0,0.239 -2.321,0 -4.64,0 -6.961,0 z"
         id="path3653" />
      <path
         style="fill:#d3d1d0"
         d="m 156.96,356 c 0.336,-0.397 2.304,-0.397 2.64,0 -0.88,0 -1.76,0 -2.64,0 z"
         id="path3655" />
      <path
         style="fill:#d3d1d0"
         d="m 235.921,356 c 0.412,-0.397 2.466,-0.397 2.879,0 -0.959,0 -1.92,0 -2.879,0 z"
         id="path3657" />
      <path
         style="fill:#d3d1d0"
         d="m 315.121,356 c 0.414,-0.397 2.467,-0.397 2.881,0 -0.961,0 -1.92,0 -2.881,0 z"
         id="path3659" />
      <path
         style="fill:#292827"
         d="m 157.44,356.241 c 2.32,0 4.64,0 6.96,0 -1.762,0.399 -5.197,0.399 -6.96,0 z"
         id="path3661" />
      <path
         style="fill:#292827"
         d="m 236.4,356.241 c 2.4,0 4.801,0 7.2,0 -1.843,0.399 -5.356,0.399 -7.2,0 z"
         id="path3663" />
      <path
         style="fill:#292827"
         d="m 196.32,376.88 c 2.242,-0.398 6.158,-0.398 8.4,0 -2.801,0 -5.599,0 -8.4,0 z"
         id="path3665" />
      <path
         style="fill:#292827"
         d="m 275.521,376.88 c 2.242,-0.398 6.158,-0.398 8.4,0 -2.8,0 -5.601,0 -8.4,0 z"
         id="path3667" />
      <path
         style="fill:#292827"
         d="m 161.521,385.281 c 0.807,-0.556 2.637,-0.085 3.84,-0.24 0,0.08 0,0.16 0,0.24 -0.64,0 -1.279,0 -1.92,0 -0.641,0 -1.281,0 -1.92,0 z"
         id="path3669" />
      <path
         style="fill:#292827"
         d="m 235.681,385.281 c 0,-0.08 0,-0.16 0,-0.24 1.124,0.155 2.874,-0.313 3.6,0.24 -0.64,0 -1.279,0 -1.92,0 -0.561,0 -1.121,0 -1.68,0 z"
         id="path3671" />
      <path
         style="fill:#292827"
         d="m 240.96,385.281 c 0.727,-0.556 2.476,-0.085 3.601,-0.24 0,0.08 0,0.16 0,0.24 -0.562,0 -1.12,0 -1.681,0 -0.64,0 -1.279,0 -1.92,0 z"
         id="path3673" />
      <path
         style="fill:#605d5d"
         d="m 237.36,385.521 c 0,-0.08 0,-0.16 0,-0.24 0.64,0 1.28,0 1.92,0 0.562,0 1.12,0 1.681,0 0.641,0 1.279,0 1.92,0 0,0.08 0,0.16 0,0.24 -1.84,0 -3.68,0 -5.521,0 z"
         id="path3675" />
      <path
         style="fill:#605d5d"
         d="m 316.56,385.521 c 0,-0.08 0,-0.16 0,-0.24 0.641,0 1.281,0 1.922,0 0.158,0 0.318,0 0.479,0 0.161,0 0.32,0 0.48,0 0,0.08 0,0.16 0,0.24 -0.961,0 -1.92,0 -2.881,0 z"
         id="path3677" />
      <path
         style="fill:#d3d1d0"
         d="m 242.88,385.521 c 2.162,0.377 -7.952,0.359 -5.521,0 1.842,0 3.682,0 5.521,0 z"
         id="path3679" />
      <path
         style="fill:#d3d1d0"
         d="m 319.441,385.76 c -0.814,-0.006 -4.691,0.095 -2.881,-0.239 0.959,0 1.92,0 2.881,0 0,0.08 0,0.16 0,0.239 z"
         id="path3681" />
      <path
         style="fill:#292827"
         d="m 40.32,3.68 c -2.562,-1.918 -6.359,-2.602 -9.84,-3.6 0.64,0 1.28,0 1.92,0 2.9,0.94 6.122,1.557 7.92,3.6 z"
         id="path3683" />
      <path
         style="fill:#292827"
         d="m 40.56,3.68 c 0.798,0.402 1.299,1.101 2.16,1.44 0.779,0.98 1.66,1.86 2.64,2.64 0.379,0.741 0.827,1.413 1.44,1.92 0,0.08 0,0.16 0,0.24 C 44.943,7.617 42.863,5.537 40.56,3.68 Z"
         id="path3685" />
      <path
         style="fill:#605d5d"
         d="M 50.16,20 C 49.036,16.644 48.628,12.572 46.8,9.92 c 0,-0.08 0,-0.16 0,-0.24 1.986,2.334 2.67,5.969 3.36,9.6 0,0.24 0,0.48 0,0.72 z"
         id="path3687" />
      <path
         style="fill:#292827"
         d="m 50.16,19.28 c 1.25,5.31 2.783,10.337 3.6,16.08 -1.368,-4.952 -2.595,-10.045 -3.6,-15.36 0,-0.24 0,-0.48 0,-0.72 z"
         id="path3689" />
      <path
         style="fill:#292827"
         d="m 53.76,35.6 c 0.492,0.468 0.309,1.611 0.72,2.16 0,0.24 0,0.48 0,0.72 -0.412,-0.789 -0.635,-1.765 -0.72,-2.88 z"
         id="path3691" />
      <path
         style="fill:#292827"
         d="m 54.72,39.68 c 0.08,0 0.16,0 0.24,0 -0.014,0.895 0.242,1.518 0.48,2.16 0,0.24 0,0.48 0,0.72 -0.412,-0.789 -0.635,-1.765 -0.72,-2.88 z"
         id="path3693" />
      <path
         style="fill:#605d5d"
         d="m 57.6,50.959 c 2.334,9.426 4.575,18.945 6.72,28.56 0,0.24 0,0.48 0,0.72 -2.431,-9.33 -4.671,-18.849 -6.72,-28.56 0,-0.239 0,-0.479 0,-0.72 z"
         id="path3695" />
      <path
         style="fill:#292827"
         d="m 64.32,79.52 c 0.932,3.948 2.136,7.624 2.64,12 -1.048,-3.592 -1.956,-7.324 -2.64,-11.28 0,-0.24 0,-0.48 0,-0.72 z"
         id="path3697" />
      <path
         style="fill:#292827"
         d="m 66.96,91.76 c 0.492,0.468 0.309,1.611 0.72,2.16 0,0.24 0,0.48 0,0.72 -0.412,-0.788 -0.635,-1.765 -0.72,-2.88 z"
         id="path3699" />
      <path
         style="fill:#292827"
         d="m 67.92,95.84 c 0.08,0 0.16,0 0.24,0 -0.015,0.895 0.242,1.518 0.48,2.16 0,0.24 0,0.48 0,0.72 -0.412,-0.788 -0.635,-1.765 -0.72,-2.88 z"
         id="path3701" />
      <path
         style="fill:#292827"
         d="m 68.88,99.92 c 0.08,0 0.16,0 0.24,0 -0.015,0.895 0.242,1.518 0.48,2.16 0,0.24 0,0.48 0,0.72 -0.412,-0.788 -0.635,-1.765 -0.72,-2.88 z"
         id="path3703" />
      <path
         style="fill:#605d5d"
         d="m 71.76,111.2 c 2.014,8.066 3.936,16.225 5.76,24.48 0,0.24 0,0.48 0,0.72 -2.11,-7.97 -4.031,-16.129 -5.76,-24.48 0,-0.24 0,-0.48 0,-0.72 z"
         id="path3705" />
      <path
         style="fill:#292827"
         d="m 77.52,135.68 c 0.932,3.948 2.136,7.624 2.64,12 -1.048,-3.592 -1.956,-7.324 -2.64,-11.28 0,-0.24 0,-0.48 0,-0.72 z"
         id="path3707" />
      <path
         style="fill:#292827"
         d="m 80.16,147.92 c 0.492,0.468 0.309,1.611 0.72,2.16 0,0.24 0,0.48 0,0.72 -0.412,-0.788 -0.635,-1.765 -0.72,-2.88 z"
         id="path3709" />
      <path
         style="fill:#292827"
         d="m 81.12,152 c 0.08,0 0.16,0 0.24,0 -0.015,0.895 0.242,1.518 0.48,2.16 0,0.24 0,0.48 0,0.72 -0.412,-0.788 -0.635,-1.765 -0.72,-2.88 z"
         id="path3711" />
      <path
         style="fill:#292827"
         d="m 82.08,156.08 c 0.08,0 0.16,0 0.24,0 -0.015,0.894 0.242,1.518 0.48,2.16 0,0.24 0,0.479 0,0.72 -0.412,-0.788 -0.635,-1.765 -0.72,-2.88 z"
         id="path3713" />
      <path
         style="fill:#605d5d"
         d="m 84.96,167.36 c 2.014,8.066 3.936,16.225 5.76,24.48 0,0.24 0,0.48 0,0.72 -2.111,-7.97 -4.031,-16.129 -5.76,-24.48 0,-0.24 0,-0.48 0,-0.72 z"
         id="path3715" />
      <path
         style="fill:#292827"
         d="m 90.72,191.84 c 1.262,5.298 2.766,10.354 3.6,16.081 -1.368,-4.952 -2.595,-10.045 -3.6,-15.36 0,-0.241 0,-0.481 0,-0.721 z"
         id="path3717" />
      <path
         style="fill:#292827"
         d="m 94.32,208.16 c 0.492,0.469 0.309,1.61 0.72,2.159 0,0.24 0,0.48 0,0.721 -0.412,-0.789 -0.635,-1.766 -0.72,-2.88 z"
         id="path3719" />
      <path
         style="fill:#292827"
         d="m 95.28,212.24 c 0.08,0 0.16,0 0.24,0 -0.014,0.895 0.242,1.519 0.48,2.159 0,0.24 0,0.48 0,0.721 -0.412,-0.788 -0.635,-1.766 -0.72,-2.88 z"
         id="path3721" />
      <path
         style="fill:#605d5d"
         d="m 98.16,223.521 c 2.014,8.065 3.936,16.225 5.76,24.479 0,0.239 0,0.479 0,0.72 -2.111,-7.97 -4.031,-16.129 -5.76,-24.479 0,-0.241 0,-0.481 0,-0.72 z"
         id="path3723" />
      <path
         style="fill:#292827"
         d="m 103.92,248 c 1.25,5.31 2.782,10.337 3.6,16.08 -1.368,-4.953 -2.595,-10.045 -3.6,-15.36 0,-0.241 0,-0.48 0,-0.72 z"
         id="path3725" />
      <path
         style="fill:#292827"
         d="m 107.52,264.319 c 0.492,0.47 0.309,1.611 0.72,2.16 0,0.24 0,0.48 0,0.721 -0.412,-0.788 -0.635,-1.765 -0.72,-2.881 z"
         id="path3727" />
      <path
         style="fill:#292827"
         d="m 108.48,268.399 c 0.08,0 0.16,0 0.24,0 -0.015,0.896 0.242,1.52 0.48,2.16 0,0.24 0,0.48 0,0.721 -0.412,-0.788 -0.635,-1.765 -0.72,-2.881 z"
         id="path3729" />
      <path
         style="fill:#605d5d"
         d="m 111.36,279.681 c 2.014,8.065 3.936,16.225 5.76,24.479 0,0.239 0,0.479 0,0.72 -2.11,-7.97 -4.031,-16.129 -5.76,-24.48 0,-0.24 0,-0.48 0,-0.719 z"
         id="path3731" />
      <path
         style="fill:#292827"
         d="m 117.12,304.161 c 1.25,5.311 2.783,10.337 3.6,16.079 -1.368,-4.952 -2.595,-10.044 -3.6,-15.359 0,-0.241 0,-0.482 0,-0.72 z"
         id="path3733" />
      <path
         style="fill:#292827"
         d="m 120.72,320.479 c 0.492,0.47 0.309,1.611 0.72,2.16 0,0.24 0,0.48 0,0.721 -0.412,-0.789 -0.635,-1.765 -0.72,-2.881 z"
         id="path3735" />
      <path
         style="fill:#292827"
         d="m 121.68,324.56 c 0.08,0 0.16,0 0.24,0 -0.015,0.896 0.242,1.52 0.48,2.16 0,0.24 0,0.48 0,0.721 -0.412,-0.79 -0.635,-1.766 -0.72,-2.881 z"
         id="path3737" />
      <path
         style="fill:#605d5d"
         d="m 124.56,335.84 c 2.334,9.427 4.576,18.944 6.72,28.56 0,0.24 0,0.48 0,0.722 -2.431,-9.33 -4.671,-18.851 -6.72,-28.562 0,-0.241 0,-0.479 0,-0.72 z"
         id="path3739" />
      <path
         style="fill:#292827"
         d="m 131.28,364.399 c 0.932,3.949 2.136,7.625 2.64,12 -1.048,-3.592 -1.957,-7.322 -2.64,-11.278 0,-0.241 0,-0.481 0,-0.722 z"
         id="path3741" />
      <path
         style="fill:#292827"
         d="m 133.92,376.64 c 0.492,0.469 0.309,1.611 0.72,2.16 0,0.24 0,0.48 0,0.721 -0.411,-0.79 -0.635,-1.766 -0.72,-2.881 z"
         id="path3743" />
      <path
         style="fill:#292827"
         d="m 134.88,380.72 c 0.08,0 0.16,0 0.24,0 -0.014,0.896 0.242,1.52 0.48,2.16 0,0.24 0,0.48 0,0.721 -0.412,-0.789 -0.635,-1.766 -0.72,-2.881 z"
         id="path3745" />
      <path
         style="fill:#d3d1d0"
         d="m 159.36,385.041 c 0.578,0.942 2.753,0.286 4.08,0.479 2.544,0.006 -4.347,1.023 -4.08,-0.479 z"
         id="path3747" />
      <path
         style="fill:#605d5d"
         d="M 45.36,7.76 C 44.38,6.98 43.5,6.1 42.72,5.12 c 1.128,0.631 2.009,1.511 2.64,2.64 z"
         id="path3749" />
      <path
         style="fill:#292827"
         d="m 208.08,294.319 c 1.901,0.341 3.879,0.603 5.28,1.44 -1.776,-0.383 -3.569,-0.751 -5.28,-1.2 0,-0.08 0,-0.16 0,-0.24 z"
         id="path3751" />
      <path
         style="fill:#292827"
         d="m 213.601,295.76 c 2.104,0.537 4.254,1.026 5.76,2.16 -1.867,-0.773 -3.953,-1.327 -5.76,-2.16 z"
         id="path3753" />
      <path
         style="fill:#292827"
         d="m 219.601,297.92 c 4.004,1.517 8.018,3.022 12.72,3.84 0,0.08 0,0.16 0,0.24 -4.898,-0.703 -9.098,-2.103 -12.72,-4.08 z"
         id="path3755" />
      <path
         style="fill:#605d5d"
         d="m 245.28,302 c 2.484,0.323 3.312,-1.008 5.761,-0.722 -1.438,0.562 -3.08,0.921 -5.041,0.961 -0.238,0 -0.479,0 -0.72,0 0,-0.079 0,-0.158 0,-0.239 z"
         id="path3757" />
      <path
         style="fill:#292827"
         d="m 252.24,301.041 c 2.561,-1.521 6.094,-2.067 8.881,-3.36 -2.524,1.556 -5.674,2.486 -8.881,3.36 z"
         id="path3759" />
      <path
         style="fill:#292827"
         d="m 261.36,297.681 c 0.698,-0.503 1.451,-0.949 2.399,-1.201 0.16,0 0.32,0 0.479,0 -0.841,0.518 -1.862,0.857 -2.878,1.201 z"
         id="path3761" />
      <path
         style="fill:#605d5d"
         d="m 263.761,296.479 c 1.016,-0.504 2.018,-1.021 3.6,-0.959 -0.841,0.52 -2.001,0.719 -3.119,0.959 -0.162,0 -0.321,0 -0.481,0 z"
         id="path3763" />
      <path
         style="fill:#292827"
         d="m 269.521,295.041 c 0.611,-0.908 2.626,-0.414 3.84,-0.722 -1.081,0.44 -2.524,0.518 -3.84,0.722 z"
         id="path3765" />
      <path
         style="fill:#292827"
         d="m 288.721,294.56 c 1.129,-0.168 1.429,0.491 2.159,0.721 -0.895,0.015 -1.519,-0.241 -2.159,-0.479 0,-0.082 0,-0.162 0,-0.242 z"
         id="path3767" />
      <path
         style="fill:#292827"
         d="m 291.121,295.28 c 4.342,0.617 7.482,2.438 10.801,4.08 -3.499,-1.463 -7.006,-2.914 -10.801,-4.08 z"
         id="path3769" />
      <path
         style="fill:#292827"
         d="m 302.16,299.36 c 1.391,0.449 2.894,0.787 4.08,1.439 -1.498,-0.34 -2.979,-0.698 -4.08,-1.439 z"
         id="path3771" />
      <path
         style="fill:#292827"
         d="m 306.48,300.8 c 1.717,0.284 3.311,0.69 5.039,0.96 0,0.08 0,0.16 0,0.24 -1.861,-0.217 -3.646,-0.511 -5.039,-1.2 z"
         id="path3773" />
      <path
         style="fill:#292827"
         d="m 315.601,302.479 c 1.199,0 2.4,0 3.6,0 0.08,0 0.16,0 0.24,0 0,9.682 0,19.36 0,29.041 -0.16,0 -0.318,0 -0.479,0 0.559,-9.041 0.08,-19.119 0.238,-28.561 -0.65,-0.709 -2.95,0.231 -3.599,-0.48 z"
         id="path3775" />
      <path
         style="fill:#292827"
         d="m 295.681,325.76 c 5.42,1.939 10.369,4.353 16.801,5.28 -0.4,0 -0.801,0 -1.201,0 -6.382,-0.738 -10.898,-3.341 -16.08,-5.28 0.159,0 0.32,0 0.48,0 z"
         id="path3777" />
      <path
         style="fill:#292827"
         d="m 253.681,329.601 c 4.947,-1.611 9.006,-4.113 14.398,-5.281 -5.052,1.507 -9.107,4.012 -14.398,5.281 z"
         id="path3779" />
      <path
         style="fill:#292827"
         d="m 250.8,330.319 c 0.697,-0.422 1.693,-0.547 2.641,-0.719 -0.234,0.564 -1.385,0.215 -1.68,0.719 -0.321,0 -0.64,0 -0.961,0 z"
         id="path3781" />
      <path
         style="fill:#292827"
         d="m 211.919,324.319 c 7.095,1.628 12.229,5.213 19.682,6.48 -0.32,0 -0.641,0 -0.96,0 -7.228,-1.093 -12.06,-4.58 -18.722,-6.24 0,-0.08 0,-0.16 0,-0.24 z"
         id="path3783" />
      <path
         style="fill:#292827"
         d="m 185.761,325.28 c 0.633,-0.406 1.369,-0.711 2.398,-0.721 0.24,0 0.48,0 0.721,0 -0.74,0.542 -2.102,0.46 -3.119,0.721 z"
         id="path3785" />
      <path
         style="fill:#292827"
         d="m 181.44,326.96 c 1.091,-0.83 2.612,-1.229 4.08,-1.682 -0.933,0.828 -2.694,0.826 -3.601,1.682 -0.158,0 -0.318,0 -0.479,0 z"
         id="path3787" />
      <path
         style="fill:#292827"
         d="m 145.44,315.92 c 1.135,4.545 2.214,9.146 3.12,13.92 3.32,0.999 7.34,1.3 11.28,1.681 -0.64,0 -1.28,0 -1.92,0 -3.737,0.058 -6.655,-0.705 -9.6,-1.439 -0.896,-4.865 -2.151,-9.369 -3.12,-14.16 0.08,-0.002 0.16,-0.002 0.24,-0.002 z"
         id="path3789" />
      <path
         style="fill:#292827"
         d="m 143.76,308.479 c 0.526,1.636 0.859,3.461 1.2,5.28 -0.08,0 -0.16,0 -0.24,0 -0.18,-1.979 -1.047,-3.272 -1.2,-5.28 0.08,0 0.16,0 0.24,0 z"
         id="path3791" />
      <path
         style="fill:#292827"
         d="m 142.08,301.041 c 0.526,1.634 0.859,3.461 1.2,5.278 -0.08,0 -0.16,0 -0.24,0 -0.18,-1.979 -1.047,-3.271 -1.2,-5.278 0.08,0 0.16,0 0.24,0 z"
         id="path3793" />
      <path
         style="fill:#292827"
         d="m 141.36,298.88 c -0.016,-0.04 0.02,-0.479 0,-0.48 3.397,0.435 7.54,3.156 11.76,3.36 0,0.08 0,0.16 0,0.24 -4.359,-0.36 -8.369,-2.351 -11.52,-3.12 -0.079,0 -0.16,0 -0.24,0 z"
         id="path3795" />
      <path
         style="fill:#605d5d"
         d="m 166.08,302 c 2.484,0.323 3.312,-1.008 5.76,-0.722 -1.438,0.562 -3.08,0.921 -5.039,0.961 -0.239,0 -0.479,0 -0.721,0 0,-0.079 0,-0.158 0,-0.239 z"
         id="path3797" />
      <path
         style="fill:#292827"
         d="m 177.36,299.601 c -1.214,0.705 -2.76,1.08 -4.319,1.439 0.934,-0.986 2.644,-1.196 4.319,-1.439 z"
         id="path3799" />
      <path
         style="fill:#292827"
         d="m 177.601,299.601 c 0.461,-0.818 1.617,-0.943 2.641,-1.201 -0.655,0.626 -1.705,0.856 -2.641,1.201 z"
         id="path3801" />
      <path
         style="fill:#292827"
         d="m 180.48,298.399 c 1.146,-0.853 2.691,-1.309 4.08,-1.92 0.16,0 0.32,0 0.479,0 -1.411,0.749 -3.02,1.299 -4.559,1.92 z"
         id="path3803" />
      <path
         style="fill:#605d5d"
         d="m 184.561,296.479 c 1.017,-0.504 2.019,-1.021 3.601,-0.959 -0.842,0.52 -2.002,0.719 -3.121,0.959 -0.161,0 -0.32,0 -0.48,0 z"
         id="path3805" />
      <path
         style="fill:#292827"
         d="m 190.32,295.041 c 0.612,-0.908 2.626,-0.414 3.84,-0.722 -1.08,0.44 -2.522,0.518 -3.84,0.722 z"
         id="path3807" />
      <path
         style="fill:#292827"
         d="m 208.08,348.081 c 1.795,0.445 4.035,0.445 5.28,1.439 -1.776,-0.383 -3.569,-0.75 -5.28,-1.201 0,-0.078 0,-0.158 0,-0.238 z"
         id="path3809" />
      <path
         style="fill:#292827"
         d="m 213.601,349.521 c 2.146,0.494 4.318,0.961 5.76,2.16 -1.867,-0.774 -3.953,-1.328 -5.76,-2.16 z"
         id="path3811" />
      <path
         style="fill:#292827"
         d="m 219.601,351.681 c 2.579,0.86 4.945,1.934 7.439,2.879 -2.751,-0.688 -5.304,-1.575 -7.439,-2.879 z"
         id="path3813" />
      <path
         style="fill:#292827"
         d="m 227.28,354.56 c 1.716,0.284 3.31,0.69 5.04,0.961 0,0.08 0,0.16 0,0.239 -1.863,-0.217 -3.649,-0.51 -5.04,-1.2 z"
         id="path3815" />
      <path
         style="fill:#605d5d"
         d="m 245.28,355.76 c 2.484,0.324 3.312,-1.008 5.761,-0.72 -1.438,0.562 -3.08,0.92 -5.041,0.96 -0.238,0 -0.479,0 -0.72,0 0,-0.08 0,-0.16 0,-0.24 z"
         id="path3817" />
      <path
         style="fill:#605d5d"
         d="m 256.561,353.36 c -1.288,0.633 -2.729,1.109 -4.319,1.439 0.933,-0.986 2.642,-1.195 4.319,-1.439 z"
         id="path3819" />
      <path
         style="fill:#292827"
         d="m 256.8,353.36 c 0.908,-1.172 2.849,-1.312 4.32,-1.92 -1.173,0.907 -2.822,1.338 -4.32,1.92 z"
         id="path3821" />
      <path
         style="fill:#292827"
         d="m 261.36,351.44 c 0.698,-0.502 1.451,-0.948 2.399,-1.199 0.16,0 0.32,0 0.479,0 -0.841,0.516 -1.862,0.856 -2.878,1.199 z"
         id="path3823" />
      <path
         style="fill:#605d5d"
         d="m 263.761,350.241 c 1.016,-0.504 2.018,-1.022 3.6,-0.96 -0.841,0.519 -2.001,0.718 -3.119,0.96 -0.162,0 -0.321,0 -0.481,0 z"
         id="path3825" />
      <path
         style="fill:#292827"
         d="m 269.521,348.8 c 0.611,-0.906 2.626,-0.414 3.84,-0.72 -1.081,0.441 -2.524,0.517 -3.84,0.72 z"
         id="path3827" />
      <path
         style="fill:#292827"
         d="m 288.721,348.319 c 5.122,0.878 9.342,2.658 13.2,4.802 -4.145,-1.777 -8.321,-3.521 -13.2,-4.562 0,-0.08 0,-0.16 0,-0.24 z"
         id="path3829" />
      <path
         style="fill:#292827"
         d="m 302.16,353.121 c 1.492,0.348 2.95,0.729 4.08,1.438 -1.498,-0.34 -2.979,-0.699 -4.08,-1.438 z"
         id="path3831" />
      <path
         style="fill:#292827"
         d="m 315.841,356.241 c 1.119,0 2.24,0 3.359,0 0.08,0 0.16,0 0.24,0 0,9.68 0,19.359 0,29.04 -0.16,0 -0.32,0 -0.48,0 0.559,-9.042 0.082,-19.119 0.24,-28.562 -0.57,-0.708 -2.788,0.231 -3.359,-0.478 z"
         id="path3833" />
      <path
         style="fill:#292827"
         d="m 287.761,377.36 c 11.041,1.839 17.89,7.871 30.721,7.92 -0.641,0 -1.281,0 -1.922,0 -12.084,-0.074 -18.357,-5.961 -28.799,-7.68 0,-0.079 0,-0.16 0,-0.24 z"
         id="path3835" />
      <path
         style="fill:#292827"
         d="m 270.48,377.601 c 0.656,-0.385 1.586,-0.494 2.641,-0.479 -0.149,0.569 -1.478,-0.037 -1.681,0.479 -0.319,0 -0.64,0 -0.96,0 z"
         id="path3837" />
      <path
         style="fill:#292827"
         d="m 260.16,380.96 c 1.965,-1.236 4.418,-1.982 6.961,-2.641 -2.01,1.031 -4.623,1.457 -6.479,2.641 -0.162,0 -0.322,0 -0.482,0 z"
         id="path3839" />
      <path
         style="fill:#292827"
         d="m 254.4,383.121 c 0.805,-0.476 1.771,-0.789 2.88,-0.96 0.16,0 0.32,0 0.479,0 -0.725,0.475 -2.061,0.337 -2.641,0.96 -0.238,0 -0.477,0 -0.718,0 z"
         id="path3841" />
      <path
         style="fill:#292827"
         d="m 216.48,379.521 c 5.368,1.992 10.377,4.342 16.8,5.279 -0.399,0 -0.8,0 -1.2,0 -6.392,-0.729 -10.959,-3.281 -16.08,-5.279 0.16,0 0.32,0 0.48,0 z"
         id="path3843" />
      <path
         style="fill:#292827"
         d="m 208.561,377.36 c 1.91,0.17 3.571,0.588 5.04,1.199 -1.825,-0.175 -3.229,-0.771 -5.04,-0.959 0,-0.079 0,-0.16 0,-0.24 z"
         id="path3845" />
      <path
         style="fill:#292827"
         d="m 174.48,383.36 c 2.307,-0.895 4.604,-1.797 6.96,-2.641 0.16,0 0.319,0 0.479,0 -2.423,0.937 -4.602,2.118 -7.439,2.641 z"
         id="path3847" />
      <path
         style="fill:#292827"
         d="m 169.201,384.56 c 1.631,-0.449 3.309,-0.852 5.039,-1.199 -0.896,0.783 -2.621,0.738 -3.84,1.199 -0.4,0 -0.799,0 -1.199,0 z"
         id="path3849" />
      <path
         style="fill:#605d5d"
         d="m 159.12,382.161 c 0.38,0.898 0.53,2.029 0.72,3.12 0.56,0 1.121,0 1.68,0 0.64,0 1.28,0 1.92,0 0,0.079 0,0.159 0,0.239 -1.327,-0.193 -3.502,0.463 -4.08,-0.479 0.239,-1.358 -0.719,-1.521 -0.48,-2.88 0.08,0 0.16,0 0.24,0 z"
         id="path3851" />
      <path
         style="fill:#292827"
         d="m 157.44,374.72 c 0.681,2.359 1.182,4.897 1.68,7.44 -0.08,0 -0.16,0 -0.24,0 -0.394,-2.646 -1.252,-4.828 -1.68,-7.44 0.08,0 0.16,0 0.24,0 z"
         id="path3853" />
      <path
         style="fill:#605d5d"
         d="m 156.48,370.399 c 0.343,1.418 0.796,2.726 0.96,4.32 -0.08,0 -0.16,0 -0.24,0 -0.41,-1.35 -0.787,-2.732 -0.96,-4.32 0.08,0 0.16,0 0.24,0 z"
         id="path3855" />
      <path
         style="fill:#292827"
         d="m 154.8,362.96 c 0.681,2.357 1.182,4.896 1.68,7.439 -0.08,0 -0.16,0 -0.24,0 -0.419,-2.621 -1.289,-4.791 -1.68,-7.439 0.08,0 0.16,0 0.24,0 z"
         id="path3857" />
      <path
         style="fill:#292827"
         d="m 154.08,360.8 c 0.083,-1.722 -1.759,-3.947 -0.48,-5.279 0,0.08 0,0.16 0,0.239 -0.499,1.464 0.679,3.318 0.72,5.04 -0.08,0 -0.16,0 -0.24,0 z"
         id="path3859" />
      <path
         style="fill:#605d5d"
         d="m 166.08,355.76 c 2.484,0.324 3.312,-1.008 5.76,-0.72 -1.438,0.562 -3.08,0.92 -5.039,0.96 -0.239,0 -0.479,0 -0.721,0 0,-0.08 0,-0.16 0,-0.24 z"
         id="path3861" />
      <path
         style="fill:#292827"
         d="m 175.919,353.84 c -0.803,0.476 -1.771,0.789 -2.879,0.96 0.226,-0.895 1.551,-0.689 2.399,-0.96 0.162,0 0.322,0 0.48,0 z"
         id="path3863" />
      <path
         style="fill:#292827"
         d="m 177.601,353.36 c 1.859,-1.5 4.777,-1.941 6.96,-3.119 0.16,0 0.319,0 0.479,0 -2.417,1.1 -4.882,2.156 -7.439,3.119 z"
         id="path3865" />
      <path
         style="fill:#605d5d"
         d="m 184.561,350.241 c 1.017,-0.504 2.019,-1.022 3.601,-0.96 -0.842,0.519 -2.002,0.718 -3.121,0.96 -0.161,0 -0.32,0 -0.48,0 z"
         id="path3867" />
      <path
         style="fill:#292827"
         d="m 190.32,348.8 c 0.514,-1.008 2.418,-0.622 3.84,-0.72 -1.08,0.441 -2.522,0.517 -3.84,0.72 z"
         id="path3869" />
      <path
         style="fill:#605d5d"
         d="m 54.48,38.479 c 0,-0.24 0,-0.48 0,-0.72 0.356,0.444 0.46,1.14 0.48,1.92 -0.08,0 -0.16,0 -0.24,0 -0.201,-0.278 -0.317,-0.643 -0.24,-1.2 z"
         id="path3871" />
      <path
         style="fill:#605d5d"
         d="m 55.44,42.56 c 0,-0.24 0,-0.48 0,-0.72 0.356,0.443 0.46,1.14 0.48,1.92 -0.08,0 -0.16,0 -0.24,0 -0.201,-0.279 -0.316,-0.644 -0.24,-1.2 z"
         id="path3873" />
      <path
         style="fill:#292827"
         d="m 55.92,43.76 c 0.437,2.523 1.334,4.586 1.68,7.2 0,0.24 0,0.48 0,0.72 -0.843,-2.437 -1.386,-5.174 -1.92,-7.92 0.08,0 0.16,0 0.24,0 z"
         id="path3875" />
      <path
         style="fill:#605d5d"
         d="m 67.68,94.64 c 0,-0.24 0,-0.48 0,-0.72 0.356,0.443 0.459,1.14 0.48,1.92 -0.08,0 -0.16,0 -0.24,0 -0.201,-0.279 -0.316,-0.644 -0.24,-1.2 z"
         id="path3877" />
      <path
         style="fill:#605d5d"
         d="m 68.64,98.72 c 0,-0.24 0,-0.479 0,-0.72 0.356,0.443 0.46,1.14 0.48,1.92 -0.08,0 -0.16,0 -0.24,0 -0.201,-0.279 -0.317,-0.644 -0.24,-1.2 z"
         id="path3879" />
      <path
         style="fill:#605d5d"
         d="m 69.6,102.8 c 0,-0.24 0,-0.48 0,-0.72 0.356,0.444 0.46,1.141 0.48,1.92 -0.08,0 -0.16,0 -0.24,0 -0.201,-0.279 -0.317,-0.644 -0.24,-1.2 z"
         id="path3881" />
      <path
         style="fill:#292827"
         d="m 70.08,104 c 0.437,2.523 1.334,4.586 1.68,7.2 0,0.24 0,0.48 0,0.72 -0.843,-2.437 -1.386,-5.174 -1.92,-7.92 0.08,0 0.16,0 0.24,0 z"
         id="path3883" />
      <path
         style="fill:#605d5d"
         d="m 80.88,150.8 c 0,-0.24 0,-0.48 0,-0.72 0.356,0.443 0.459,1.14 0.48,1.92 -0.08,0 -0.16,0 -0.24,0 -0.201,-0.279 -0.316,-0.644 -0.24,-1.2 z"
         id="path3885" />
      <path
         style="fill:#605d5d"
         d="m 81.84,154.88 c 0,-0.24 0,-0.48 0,-0.72 0.356,0.444 0.459,1.141 0.48,1.92 -0.08,0 -0.16,0 -0.24,0 -0.201,-0.279 -0.316,-0.643 -0.24,-1.2 z"
         id="path3887" />
      <path
         style="fill:#605d5d"
         d="m 82.8,158.96 c 0,-0.24 0,-0.48 0,-0.72 0.356,0.444 0.459,1.141 0.48,1.92 -0.08,0 -0.16,0 -0.24,0 -0.201,-0.279 -0.316,-0.643 -0.24,-1.2 z"
         id="path3889" />
      <path
         style="fill:#292827"
         d="m 83.28,160.16 c 0.437,2.524 1.333,4.586 1.68,7.2 0,0.24 0,0.48 0,0.72 -0.843,-2.437 -1.386,-5.174 -1.92,-7.92 0.08,0 0.16,0 0.24,0 z"
         id="path3891" />
      <path
         style="fill:#605d5d"
         d="m 95.04,211.04 c 0,-0.239 0,-0.479 0,-0.721 0.356,0.443 0.46,1.142 0.48,1.921 -0.08,0 -0.16,0 -0.24,0 -0.201,-0.279 -0.316,-0.643 -0.24,-1.2 z"
         id="path3893" />
      <path
         style="fill:#605d5d"
         d="m 96,215.12 c 0,-0.239 0,-0.479 0,-0.721 0.356,0.443 0.46,1.142 0.48,1.92 -0.08,0 -0.16,0 -0.24,0 -0.201,-0.277 -0.316,-0.643 -0.24,-1.199 z"
         id="path3895" />
      <path
         style="fill:#292827"
         d="m 96.48,216.319 c 0.437,2.523 1.334,4.587 1.68,7.201 0,0.239 0,0.479 0,0.72 -0.843,-2.437 -1.386,-5.175 -1.92,-7.921 0.08,0 0.16,0 0.24,0 z"
         id="path3897" />
      <path
         style="fill:#605d5d"
         d="m 108.24,267.2 c 0,-0.239 0,-0.479 0,-0.721 0.356,0.443 0.46,1.142 0.48,1.92 -0.08,0 -0.16,0 -0.24,0 -0.201,-0.277 -0.316,-0.643 -0.24,-1.199 z"
         id="path3899" />
      <path
         style="fill:#605d5d"
         d="m 109.2,271.28 c 0,-0.239 0,-0.479 0,-0.721 0.356,0.443 0.46,1.142 0.48,1.92 -0.08,0 -0.16,0 -0.24,0 -0.201,-0.277 -0.316,-0.643 -0.24,-1.199 z"
         id="path3901" />
      <path
         style="fill:#292827"
         d="m 109.68,272.479 c 0.437,2.523 1.334,4.586 1.68,7.201 0,0.239 0,0.479 0,0.719 -0.843,-2.437 -1.386,-5.174 -1.92,-7.92 0.08,0 0.16,0 0.24,0 z"
         id="path3903" />
      <path
         style="fill:#605d5d"
         d="m 194.4,294.319 c 0.17,-0.869 1.749,-0.329 2.641,-0.479 0,0.08 0,0.16 0,0.24 -0.842,0.119 -1.562,0.358 -2.641,0.239 z"
         id="path3905" />
      <path
         style="fill:#605d5d"
         d="m 204,293.84 c 1.551,-0.028 2.994,0.048 4.08,0.479 0,0.08 0,0.16 0,0.24 -1.425,-0.096 -2.834,-0.207 -4.08,-0.479 0,-0.08 0,-0.16 0,-0.24 z"
         id="path3907" />
      <path
         style="fill:#605d5d"
         d="m 273.841,294.319 c -0.034,-0.992 1.67,-0.25 2.398,-0.479 0,0.08 0,0.16 0,0.24 -0.811,0.067 -1.377,0.382 -2.398,0.239 z"
         id="path3909" />
      <path
         style="fill:#605d5d"
         d="m 283.201,293.84 c 2.105,-0.024 3.938,0.222 5.521,0.72 0,0.08 0,0.16 0,0.24 -1.868,-0.212 -3.747,-0.412 -5.521,-0.72 0,-0.08 0,-0.16 0,-0.24 z"
         id="path3911" />
      <path
         style="fill:#605d5d"
         d="m 141.6,298.88 c 0.284,0.596 0.348,1.412 0.48,2.16 -0.08,0 -0.16,0 -0.24,0 -0.081,-0.8 -0.695,-1.064 -0.48,-2.16 0.08,0 0.161,0 0.24,0 z"
         id="path3913" />
      <path
         d="m 251.041,301.28 c 0.278,-0.201 0.644,-0.316 1.199,-0.239 3.207,-0.874 6.356,-1.804 8.881,-3.36 0.08,0 0.159,0 0.239,0 1.017,-0.343 2.037,-0.683 2.88,-1.199 1.119,-0.241 2.279,-0.44 3.12,-0.961 0.644,-0.237 1.267,-0.494 2.16,-0.479 1.317,-0.203 2.76,-0.281 3.84,-0.721 0.16,0 0.32,0 0.479,0 1.021,0.143 1.588,-0.172 2.399,-0.239 2.32,0 4.642,0 6.96,0 1.773,0.308 3.652,0.508 5.521,0.72 0.642,0.238 1.266,0.494 2.16,0.479 0.08,0 0.16,0 0.238,0 3.795,1.166 7.305,2.617 10.801,4.08 0.08,0 0.16,0 0.24,0 1.1,0.74 2.58,1.101 4.079,1.44 0.08,0 0.16,0 0.24,0 1.392,0.688 3.177,0.982 5.04,1.2 1.049,0.312 2.238,0.48 3.602,0.479 0.158,0 0.318,0 0.479,0 0.648,0.711 2.949,-0.229 3.6,0.48 -0.158,9.439 0.318,19.52 -0.238,28.561 -0.24,0 -0.48,0 -0.721,0 -0.646,-0.554 -2.314,-0.086 -3.359,-0.24 -0.633,-0.248 -1.473,-0.287 -2.4,-0.239 -6.432,-0.929 -11.38,-3.341 -16.8,-5.28 -0.46,-0.421 -1.251,-0.509 -1.921,-0.72 -0.213,-0.187 -0.541,-0.258 -0.959,-0.24 -2.721,-0.881 -5.559,-1.643 -9.12,-1.68 -2.162,-0.399 -5.998,-0.399 -8.16,0 -0.651,0.147 -1.903,-0.306 -2.16,0.239 -1.96,0.041 -3.603,0.398 -5.04,0.959 -0.08,0 -0.16,0 -0.24,0 -5.394,1.168 -9.451,3.67 -14.398,5.281 -0.08,0 -0.16,0 -0.24,0 -0.947,0.172 -1.941,0.297 -2.641,0.719 -2.102,0.301 -4.172,0.629 -6.239,0.961 -1.045,0.154 -2.713,-0.312 -3.36,0.24 -0.72,0 -1.438,0 -2.16,0 -0.646,-0.554 -2.313,-0.086 -3.358,-0.24 -1.271,-0.249 -2.572,-0.469 -4.08,-0.479 -7.451,-1.269 -12.587,-4.854 -19.681,-6.479 -2.198,-0.602 -4.4,-1.199 -7.199,-1.199 -2.242,-0.4 -6.158,-0.4 -8.4,0 -1.463,-0.023 -2.809,0.07 -3.84,0.479 -1.65,0.109 -3.096,0.424 -4.32,0.961 -1.029,0.01 -1.767,0.312 -2.398,0.719 -0.08,0 -0.16,0 -0.24,0 -1.468,0.453 -2.988,0.852 -4.08,1.682 -1.25,0.35 -2.395,0.807 -3.359,1.439 -2.521,0.68 -4.953,1.445 -7.439,2.16 -1.105,0.014 -2.129,0.11 -2.88,0.479 -0.574,0.146 -1.741,-0.302 -1.921,0.239 -0.159,0 -0.319,0 -0.479,0 -1.125,0.156 -2.874,-0.313 -3.6,0.24 -0.642,0 -1.28,0 -1.92,0 -3.94,-0.381 -7.959,-0.682 -11.28,-1.681 -0.906,-4.774 -1.985,-9.375 -3.12,-13.92 -0.133,-0.748 -0.196,-1.563 -0.48,-2.16 -0.341,-1.819 -0.674,-3.646 -1.2,-5.28 -0.132,-0.746 -0.196,-1.562 -0.48,-2.16 -0.341,-1.817 -0.674,-3.646 -1.2,-5.278 -0.132,-0.748 -0.196,-1.563 -0.48,-2.16 3.151,0.771 7.161,2.759 11.52,3.12 1.028,0.332 2.189,0.529 3.6,0.479 0.16,0 0.32,0 0.48,0 1.843,0.399 5.357,0.399 7.2,0 0.729,-0.149 2.067,0.309 2.4,-0.239 1.959,-0.04 3.601,-0.398 5.039,-0.96 0.279,-0.201 0.644,-0.316 1.199,-0.239 1.562,-0.358 3.106,-0.733 4.32,-1.44 0.08,0 0.16,0 0.24,0 0.936,-0.344 1.986,-0.572 2.641,-1.199 0.079,0 0.159,0 0.239,0 1.538,-0.621 3.147,-1.172 4.56,-1.92 1.119,-0.242 2.279,-0.44 3.121,-0.961 0.643,-0.237 1.266,-0.494 2.159,-0.479 1.317,-0.203 2.761,-0.281 3.841,-0.721 0.08,0 0.159,0 0.239,0 1.078,0.117 1.798,-0.121 2.64,-0.239 2.32,0 4.642,0 6.961,0 1.246,0.272 2.654,0.385 4.08,0.479 1.711,0.448 3.502,0.816 5.279,1.199 0.08,0 0.16,0 0.24,0 1.807,0.833 3.893,1.387 5.76,2.16 0.08,0 0.16,0 0.24,0 3.622,1.979 7.822,3.377 12.721,4.08 1.049,0.312 2.238,0.48 3.6,0.479 0.16,0 0.32,0 0.479,0 1.843,0.399 5.356,0.399 7.2,0 0.729,-0.149 2.066,0.309 2.398,-0.24 1.956,-0.042 3.598,-0.401 5.037,-0.962 z"
         id="path3915" />
      <path
         style="fill:#605d5d"
         d="m 153.12,301.76 c 1.545,-0.185 2.12,0.601 3.6,0.479 0,0.08 0,0.16 0,0.24 -1.411,0.051 -2.572,-0.147 -3.6,-0.479 0,-0.08 0,-0.16 0,-0.24 z"
         id="path3917" />
      <path
         style="fill:#605d5d"
         d="m 232.32,301.76 c 1.545,-0.185 2.12,0.601 3.602,0.479 0,0.08 0,0.16 0,0.24 -1.361,0 -2.553,-0.168 -3.602,-0.479 0,-0.08 0,-0.16 0,-0.24 z"
         id="path3919" />
      <path
         style="fill:#605d5d"
         d="m 311.521,301.76 c 1.545,-0.185 2.119,0.601 3.602,0.479 0,0.08 0,0.16 0,0.24 -1.361,0 -2.553,-0.168 -3.602,-0.479 0,-0.08 0,-0.16 0,-0.24 z"
         id="path3921" />
      <path
         style="fill:#d3d1d0"
         d="m 162.24,302.24 c 0.807,-0.554 2.637,-0.085 3.84,-0.239 0,0.08 0,0.159 0,0.239 -1.28,0 -2.559,0 -3.84,0 z"
         id="path3923" />
      <path
         style="fill:#d3d1d0"
         d="m 241.44,302.24 c 0.806,-0.554 2.636,-0.085 3.84,-0.239 0,0.08 0,0.159 0,0.239 -1.28,0 -2.559,0 -3.84,0 z"
         id="path3925" />
      <path
         style="fill:#605d5d"
         d="m 143.28,306.319 c 0.284,0.598 0.348,1.414 0.48,2.16 -0.08,0 -0.16,0 -0.24,0 -0.081,-0.799 -0.696,-1.063 -0.48,-2.16 0.08,0 0.16,0 0.24,0 z"
         id="path3927" />
      <path
         style="fill:#605d5d"
         d="m 144.96,313.76 c 0.284,0.597 0.347,1.412 0.48,2.16 -0.08,0 -0.16,0 -0.24,0 -0.08,-0.8 -0.695,-1.063 -0.48,-2.16 0.08,0 0.16,0 0.24,0 z"
         id="path3929" />
      <path
         style="fill:#605d5d"
         d="m 121.44,323.36 c 0,-0.239 0,-0.479 0,-0.721 0.356,0.443 0.459,1.141 0.48,1.92 -0.08,0 -0.16,0 -0.24,0 -0.201,-0.277 -0.316,-0.642 -0.24,-1.199 z"
         id="path3931" />
      <path
         style="fill:#d3d1d0"
         d="m 202.8,323.36 c 1.046,0.154 2.714,-0.312 3.359,0.24 -1.044,-0.154 -2.712,0.314 -3.359,-0.24 z"
         id="path3933" />
      <path
         style="fill:#d3d1d0"
         d="m 282.001,323.36 c 1.045,0.154 2.713,-0.312 3.358,0.24 -1.044,-0.154 -2.712,0.314 -3.358,-0.24 z"
         id="path3935" />
      <path
         style="fill:#605d5d"
         d="m 193.681,323.601 c -1.469,0.451 -3.119,0.721 -4.801,0.959 -0.239,0 -0.479,0 -0.721,0 1.225,-0.535 2.67,-0.851 4.32,-0.959 0.401,0 0.801,0 1.202,0 z"
         id="path3937" />
      <path
         style="fill:#292827"
         d="m 274.08,323.601 c -2.317,-0.16 -3.604,0.713 -5.76,0.719 1.438,-0.561 3.08,-0.918 5.04,-0.959 0.24,0 0.479,0 0.72,0 0,0.079 0,0.16 0,0.24 z"
         id="path3939" />
      <path
         style="fill:#605d5d"
         d="m 293.761,325.041 c 0.669,0.211 1.46,0.299 1.92,0.72 -0.16,0 -0.32,0 -0.48,0 -0.598,-0.123 -1.448,0.008 -1.44,-0.72 z"
         id="path3941" />
      <path
         style="fill:#605d5d"
         d="m 181.44,326.96 c 0.16,0 0.319,0 0.479,0 -1.144,0.457 -2.137,1.062 -3.359,1.439 -0.16,0 -0.32,0 -0.48,0 0.966,-0.632 2.11,-1.089 3.36,-1.439 z"
         id="path3943" />
      <path
         style="fill:#605d5d"
         d="m 122.4,327.44 c 0,-0.239 0,-0.479 0,-0.721 0.356,0.443 0.459,1.141 0.48,1.92 -0.08,0 -0.16,0 -0.24,0 -0.201,-0.277 -0.316,-0.642 -0.24,-1.199 z"
         id="path3945" />
      <path
         style="fill:#292827"
         d="m 178.561,328.399 c -2.418,0.623 -4.258,1.822 -6.96,2.16 -0.32,0 -0.641,0 -0.96,0 2.485,-0.713 4.919,-1.479 7.438,-2.16 0.161,0 0.321,0 0.482,0 z"
         id="path3947" />
      <path
         style="fill:#605d5d"
         d="m 250.8,330.319 c 0.32,0 0.641,0 0.961,0 -2.104,0.697 -4.487,1.113 -7.2,1.201 0,-0.08 0,-0.16 0,-0.24 2.067,-0.332 4.138,-0.66 6.239,-0.961 z"
         id="path3949" />
      <path
         style="fill:#605d5d"
         d="m 170.641,330.56 c 0.319,0 0.64,0 0.96,0 -0.657,0.385 -1.586,0.494 -2.641,0.48 -0.399,0 -0.801,0 -1.199,0 0.751,-0.369 1.774,-0.466 2.88,-0.48 z"
         id="path3951" />
      <path
         style="fill:#605d5d"
         d="m 230.641,330.8 c 0.319,0 0.64,0 0.96,0 1.508,0.012 2.811,0.23 4.08,0.479 0,0.08 0,0.16 0,0.24 -1.701,-0.219 -3.57,-0.269 -5.04,-0.719 z"
         id="path3953" />
      <path
         style="fill:#292827"
         d="m 167.761,331.041 c 0.398,0 0.8,0 1.199,0 -0.567,0.552 -2.153,0.086 -3.121,0.239 0.181,-0.541 1.348,-0.093 1.922,-0.239 z"
         id="path3955" />
      <path
         style="fill:#605d5d"
         d="m 311.281,331.041 c 0.398,0 0.801,0 1.199,0 0.928,-0.048 1.77,-0.009 2.4,0.239 0,0.08 0,0.16 0,0.24 -1.144,-0.214 -2.65,-0.07 -3.599,-0.479 z"
         id="path3957" />
      <path
         style="fill:#292827"
         d="m 122.88,328.64 c 0.437,2.523 1.333,4.586 1.68,7.2 0,0.24 0,0.479 0,0.72 -0.843,-2.437 -1.386,-5.174 -1.92,-7.92 0.08,0 0.16,0 0.24,0 z"
         id="path3959" />
      <path
         style="fill:#605d5d"
         d="m 194.4,348.081 c 0.17,-0.87 1.749,-0.331 2.641,-0.48 0,0.08 0,0.16 0,0.24 -0.842,0.117 -1.562,0.357 -2.641,0.24 z"
         id="path3961" />
      <path
         style="fill:#605d5d"
         d="m 204,347.601 c 1.551,-0.029 2.994,0.047 4.08,0.479 0,0.08 0,0.16 0,0.239 -1.425,-0.096 -2.834,-0.205 -4.08,-0.479 0,-0.08 0,-0.159 0,-0.239 z"
         id="path3963" />
      <path
         style="fill:#605d5d"
         d="m 273.601,348.081 c 0.17,-0.87 1.749,-0.331 2.641,-0.48 0,0.08 0,0.16 0,0.24 -0.844,0.117 -1.563,0.357 -2.641,0.24 z"
         id="path3965" />
      <path
         style="fill:#605d5d"
         d="m 283.201,347.601 c 2.105,-0.025 3.938,0.221 5.521,0.719 0,0.08 0,0.16 0,0.24 -1.868,-0.211 -3.747,-0.412 -5.521,-0.72 0,-0.08 0,-0.159 0,-0.239 z"
         id="path3967" />
      <path
         style="fill:#605d5d"
         d="m 175.44,353.84 c 0.384,-0.416 1.08,-0.521 1.92,-0.479 -0.296,0.345 -0.825,0.455 -1.44,0.479 -0.159,0 -0.319,0 -0.48,0 z"
         id="path3969" />
      <path
         d="m 251.041,355.041 c 0.278,-0.201 0.644,-0.315 1.199,-0.24 1.592,-0.329 3.032,-0.808 4.32,-1.44 0.08,0 0.16,0 0.24,0 1.498,-0.58 3.146,-1.012 4.318,-1.92 0.08,0 0.16,0 0.24,0 1.018,-0.342 2.037,-0.683 2.88,-1.198 1.119,-0.242 2.279,-0.441 3.12,-0.96 0.643,-0.238 1.266,-0.495 2.16,-0.48 1.316,-0.203 2.76,-0.279 3.84,-0.72 0.08,0 0.16,0 0.24,0 1.078,0.117 1.798,-0.122 2.64,-0.24 2.32,0 4.642,0 6.96,0 1.773,0.308 3.652,0.509 5.521,0.72 4.879,1.041 9.057,2.783 13.199,4.562 0.08,0 0.16,0 0.24,0 1.1,0.739 2.58,1.099 4.079,1.438 0.08,0 0.16,0 0.24,0 1.345,0.736 3.253,0.907 5.04,1.201 1.049,0.312 2.238,0.48 3.602,0.479 0.238,0 0.479,0 0.719,0 0.57,0.709 2.789,-0.229 3.359,0.479 -0.158,9.44 0.318,19.519 -0.238,28.561 -0.16,0 -0.32,0 -0.48,0 -12.83,-0.051 -19.678,-6.082 -30.721,-7.922 -1.082,-0.357 -2.34,-0.538 -3.84,-0.479 -2.242,-0.398 -6.157,-0.398 -8.399,0 -0.651,0.148 -1.903,-0.305 -2.16,0.24 -0.08,0 -0.159,0 -0.239,0 -1.055,-0.016 -1.983,0.096 -2.641,0.479 -1.262,0.02 -2.257,0.305 -3.12,0.722 -0.08,0 -0.159,0 -0.239,0 -2.543,0.657 -4.996,1.403 -6.961,2.64 -1.045,0.312 -2.121,0.598 -2.88,1.2 -1.108,0.171 -2.075,0.483 -2.88,0.96 -0.627,0.093 -1.316,0.123 -1.68,0.479 -1.534,0.228 -3.021,0.498 -4.32,0.961 -1.326,0.112 -2.734,0.145 -3.84,0.479 -1.125,0.155 -2.874,-0.313 -3.6,0.24 -0.562,0 -1.121,0 -1.682,0 -0.726,-0.556 -2.476,-0.085 -3.6,-0.24 -0.633,-0.249 -1.473,-0.287 -2.4,-0.239 -6.423,-0.938 -11.432,-3.289 -16.8,-5.281 -0.46,-0.42 -1.251,-0.508 -1.92,-0.719 -0.214,-0.188 -0.542,-0.259 -0.96,-0.24 -1.469,-0.612 -3.131,-1.03 -5.04,-1.201 -1.082,-0.357 -2.341,-0.538 -3.841,-0.479 -2.241,-0.398 -6.157,-0.398 -8.399,0 -0.651,0.148 -1.903,-0.305 -2.159,0.24 -0.498,0.143 -1.576,-0.297 -1.681,0.238 -2.252,0.229 -4.276,0.685 -6,1.441 -1.897,0.422 -3.651,0.987 -5.04,1.92 -2.357,0.842 -4.654,1.746 -6.96,2.641 -0.08,0 -0.16,0 -0.24,0 -1.731,0.348 -3.409,0.75 -5.04,1.199 -1.386,0.055 -2.65,0.229 -3.84,0.479 -1.204,0.156 -3.033,-0.313 -3.84,0.24 -0.561,0 -1.12,0 -1.68,0 -0.19,-1.091 -0.34,-2.222 -0.72,-3.12 -0.498,-2.543 -0.999,-5.081 -1.68,-7.439 -0.164,-1.597 -0.617,-2.904 -0.96,-4.32 -0.498,-2.543 -0.999,-5.081 -1.68,-7.439 -0.132,-0.748 -0.196,-1.564 -0.48,-2.16 -0.042,-1.722 -1.219,-3.576 -0.72,-5.039 0.97,0.311 2.047,0.514 3.36,0.479 0.16,0 0.32,0 0.48,0 1.763,0.399 5.197,0.399 6.96,0 0.729,-0.151 2.067,0.307 2.399,-0.24 1.959,-0.04 3.602,-0.397 5.039,-0.96 0.279,-0.201 0.645,-0.316 1.201,-0.24 1.108,-0.171 2.076,-0.484 2.879,-0.959 0.615,-0.025 1.146,-0.137 1.44,-0.48 0.08,0 0.16,0 0.24,0 2.558,-0.963 5.021,-2.02 7.438,-3.119 1.119,-0.242 2.279,-0.441 3.121,-0.96 0.643,-0.238 1.266,-0.495 2.159,-0.479 1.317,-0.203 2.761,-0.281 3.841,-0.721 0.079,0 0.159,0 0.239,0 1.078,0.117 1.798,-0.122 2.64,-0.24 2.32,0 4.642,0 6.961,0 1.246,0.274 2.654,0.385 4.08,0.479 1.711,0.45 3.502,0.817 5.279,1.2 0.08,0 0.16,0 0.24,0 1.807,0.832 3.893,1.387 5.76,2.16 0.08,0 0.16,0 0.24,0 2.136,1.305 4.688,2.19 7.439,2.879 0.08,0 0.16,0 0.239,0 1.392,0.689 3.177,0.983 5.04,1.201 1.049,0.312 2.239,0.48 3.602,0.479 0.158,0 0.318,0 0.479,0 1.844,0.399 5.357,0.399 7.2,0 0.729,-0.151 2.067,0.308 2.399,-0.24 1.969,-0.043 3.611,-0.4 5.05,-0.962 z"
         id="path3971" />
      <path
         style="fill:#292827"
         d="m 306.48,354.56 c 1.479,0.521 3.684,0.317 5.039,0.961 0,0.08 0,0.16 0,0.239 -1.785,-0.293 -3.695,-0.464 -5.039,-1.2 z"
         id="path3973" />
      <path
         style="fill:#605d5d"
         d="m 153.6,355.521 c 1.461,-0.182 2.034,0.525 3.36,0.479 0,0.08 0,0.16 0,0.24 -1.313,0.032 -2.39,-0.171 -3.36,-0.48 0,-0.079 0,-0.159 0,-0.239 z"
         id="path3975" />
      <path
         style="fill:#605d5d"
         d="m 232.32,355.521 c 1.49,-0.131 2.233,0.486 3.602,0.479 0,0.08 0,0.16 0,0.24 -1.361,10e-4 -2.553,-0.169 -3.602,-0.48 0,-0.079 0,-0.159 0,-0.239 z"
         id="path3977" />
      <path
         style="fill:#605d5d"
         d="m 311.521,355.521 c 1.49,-0.131 2.232,0.486 3.602,0.479 0,0.08 0,0.16 0,0.24 -1.361,10e-4 -2.553,-0.169 -3.602,-0.48 0,-0.079 0,-0.159 0,-0.239 z"
         id="path3979" />
      <path
         style="fill:#d3d1d0"
         d="m 162,356 c 0.885,-0.556 2.797,-0.084 4.08,-0.24 0,0.08 0,0.16 0,0.24 -1.359,0 -2.72,0 -4.08,0 z"
         id="path3981" />
      <path
         style="fill:#d3d1d0"
         d="m 241.201,356 c 0.885,-0.556 2.797,-0.084 4.079,-0.24 0,0.08 0,0.16 0,0.24 -1.359,0 -2.719,0 -4.079,0 z"
         id="path3983" />
      <path
         style="fill:#605d5d"
         d="m 154.32,360.8 c 0.284,0.596 0.348,1.412 0.48,2.16 -0.08,0 -0.16,0 -0.24,0 -0.081,-0.8 -0.696,-1.064 -0.48,-2.16 0.08,0 0.16,0 0.24,0 z"
         id="path3985" />
      <path
         style="fill:#605d5d"
         d="m 194.16,377.121 c 0.562,0 1.12,0 1.682,0 -0.256,0.544 -1.51,0.091 -2.16,0.239 -0.4,0 -0.801,0 -1.2,0 0.101,-0.536 1.182,-0.097 1.678,-0.239 z"
         id="path3987" />
      <path
         style="fill:#d3d1d0"
         d="m 202.8,377.121 c 1.046,0.153 2.714,-0.313 3.359,0.239 -1.044,-0.154 -2.712,0.313 -3.359,-0.239 z"
         id="path3989" />
      <path
         style="fill:#d3d1d0"
         d="m 282.001,377.121 c 1.045,0.153 2.713,-0.313 3.358,0.239 -1.044,-0.154 -2.712,0.313 -3.358,-0.239 z"
         id="path3991" />
      <path
         style="fill:#292827"
         d="m 193.681,377.36 c -2.08,0.561 -4.35,0.932 -6.48,1.439 -0.24,0 -0.479,0 -0.72,0 1.724,-0.757 3.748,-1.212 6,-1.439 0.399,0 0.799,0 1.2,0 z"
         id="path3993" />
      <path
         style="fill:#605d5d"
         d="m 270.48,377.601 c 0.32,0 0.641,0 0.96,0 -1.163,0.437 -2.463,0.736 -4.08,0.721 0.864,-0.419 1.858,-0.703 3.12,-0.721 z"
         id="path3995" />
      <path
         style="fill:#605d5d"
         d="m 214.561,378.8 c 0.669,0.211 1.46,0.301 1.92,0.721 -0.16,0 -0.319,0 -0.479,0 -0.6,-0.124 -1.449,0.007 -1.441,-0.721 z"
         id="path3997" />
      <path
         style="fill:#605d5d"
         d="m 134.64,379.521 c 0,-0.24 0,-0.479 0,-0.721 0.356,0.443 0.46,1.141 0.48,1.92 -0.08,0 -0.16,0 -0.24,0 -0.201,-0.278 -0.317,-0.643 -0.24,-1.199 z"
         id="path3999" />
      <path
         style="fill:#605d5d"
         d="m 187.201,378.8 c -1.635,0.766 -3.675,1.126 -5.281,1.92 -0.158,0 -0.318,0 -0.479,0 1.389,-0.932 3.143,-1.498 5.04,-1.92 0.24,0 0.479,0 0.72,0 z"
         id="path4001" />
      <path
         style="fill:#605d5d"
         d="m 260.16,380.96 c 0.16,0 0.32,0 0.48,0 -0.9,0.46 -1.79,0.93 -2.881,1.2 -0.159,0 -0.319,0 -0.479,0 0.759,-0.602 1.835,-0.886 2.88,-1.2 z"
         id="path4003" />
      <path
         style="fill:#605d5d"
         d="m 254.4,383.121 c 0.24,0 0.48,0 0.721,0 -0.35,0.371 -0.937,0.504 -1.681,0.479 -0.239,0 -0.479,0 -0.72,0 0.363,-0.356 1.053,-0.387 1.68,-0.479 z"
         id="path4005" />
      <path
         style="fill:#605d5d"
         d="m 135.6,383.601 c 0,-0.24 0,-0.479 0,-0.721 0.687,0.594 0.233,2.327 0.72,3.12 -0.08,0 -0.16,0 -0.24,0 -0.268,-0.692 -0.432,-1.487 -0.48,-2.399 z"
         id="path4007" />
      <path
         style="fill:#292827"
         d="m 252.721,383.601 c 0.239,0 0.479,0 0.72,0 -0.848,0.832 -2.859,0.5 -4.08,0.959 -0.32,0 -0.64,0 -0.96,0 1.298,-0.461 2.786,-0.733 4.32,-0.959 z"
         id="path4009" />
      <path
         style="fill:#605d5d"
         d="m 170.4,384.56 c -1.447,0.473 -3.146,0.692 -5.04,0.722 0,-0.08 0,-0.16 0,-0.24 1.188,-0.251 2.454,-0.426 3.841,-0.479 0.4,-0.003 0.799,-0.003 1.199,-0.003 z"
         id="path4011" />
      <path
         style="fill:#605d5d"
         d="m 232.08,384.8 c 0.4,0 0.801,0 1.2,0 0.929,-0.047 1.769,-0.009 2.4,0.24 0,0.08 0,0.16 0,0.24 -1.145,-0.215 -2.65,-0.07 -3.6,-0.48 z"
         id="path4013" />
      <path
         style="fill:#605d5d"
         d="m 249.36,384.56 c -1.319,0.521 -2.989,0.69 -4.8,0.722 0,-0.08 0,-0.16 0,-0.24 1.104,-0.336 2.514,-0.367 3.84,-0.479 0.321,-0.003 0.641,-0.003 0.96,-0.003 z"
         id="path4015" />
      <path
         style="fill:#d3d1d0"
         d="m 194.641,323.601 c 0.726,-0.555 2.476,-0.084 3.601,-0.24 -0.727,0.554 -2.477,0.083 -3.601,0.24 z"
         id="path4017" />
      <path
         style="fill:#d3d1d0"
         d="m 274.08,323.36 c 1.121,0 2.24,0 3.36,0 -0.646,0.554 -2.313,0.086 -3.36,0.24 0,-0.079 0,-0.16 0,-0.24 z"
         id="path4019" />
      <path
         style="fill:#9e9b9b"
         d="m 156.72,302.24 c 0.88,0 1.76,0 2.64,0 0.96,0 1.92,0 2.88,0 1.28,0 2.561,0 3.84,0 0.24,0 0.48,0 0.721,0 -0.332,0.548 -1.67,0.09 -2.399,0.239 -2.399,0 -4.8,0 -7.2,0 -0.16,0 -0.32,0 -0.48,0 -0.002,-0.08 -0.002,-0.16 -0.002,-0.239 z"
         id="path4021" />
      <path
         style="fill:#9e9b9b"
         d="m 235.921,302.24 c 0.959,0 1.92,0 2.879,0 0.881,0 1.761,0 2.641,0 1.28,0 2.561,0 3.84,0 0.24,0 0.48,0 0.721,0 -0.332,0.548 -1.67,0.09 -2.399,0.239 -2.399,0 -4.8,0 -7.2,0 -0.16,0 -0.32,0 -0.479,0 -0.003,-0.08 -0.003,-0.16 -0.003,-0.239 z"
         id="path4023" />
      <path
         style="fill:#9e9b9b"
         d="m 315.121,302.24 c 0.961,0 1.92,0 2.881,0 0.348,0.132 1.24,-0.28 1.199,0.239 -1.199,0 -2.4,0 -3.602,0 -0.158,0 -0.318,0 -0.479,0 10e-4,-0.08 10e-4,-0.16 10e-4,-0.239 z"
         id="path4025" />
      <path
         style="fill:#9e9b9b"
         d="m 196.32,323.121 c 2.801,0 5.6,0 8.4,0 2.799,0 5.001,0.599 7.199,1.198 0,0.08 0,0.16 0,0.24 -1.823,-0.416 -3.532,-0.947 -5.76,-0.959 -0.646,-0.554 -2.314,-0.086 -3.359,-0.24 -1.521,0 -3.04,0 -4.561,0 -1.125,0.156 -2.875,-0.313 -3.601,0.24 -0.32,0 -0.642,0 -0.96,0 -0.4,0 -0.801,0 -1.2,0 1.034,-0.41 2.379,-0.503 3.842,-0.479 z"
         id="path4027" />
      <path
         style="fill:#9e9b9b"
         d="m 275.521,323.121 c 2.721,0 5.439,0 8.16,0 3.562,0.037 6.4,0.799 9.119,1.68 -2.678,-0.202 -4.52,-1.239 -7.439,-1.2 -0.646,-0.553 -2.314,-0.084 -3.359,-0.24 -1.521,0 -3.039,0 -4.561,0 -1.12,0 -2.24,0 -3.359,0 -0.24,0 -0.479,0 -0.721,0 0.256,-0.546 1.508,-0.092 2.16,-0.24 z"
         id="path4029" />
      <path
         style="fill:#9e9b9b"
         d="m 156.96,356 c 0.88,0 1.76,0 2.64,0 0.8,0 1.601,0 2.399,0 1.36,0 2.722,0 4.08,0 0.24,0 0.48,0 0.721,0 -0.332,0.547 -1.67,0.089 -2.399,0.24 -2.319,0 -4.64,0 -6.96,0 -0.16,0 -0.32,0 -0.48,0 -0.001,-0.079 -0.001,-0.159 -0.001,-0.24 z"
         id="path4031" />
      <path
         style="fill:#9e9b9b"
         d="m 235.921,356 c 0.959,0 1.92,0 2.879,0 0.801,0 1.601,0 2.4,0 1.359,0 2.721,0 4.079,0 0.24,0 0.479,0 0.72,0 -0.332,0.547 -1.67,0.089 -2.398,0.24 -2.4,0 -4.801,0 -7.2,0 -0.159,0 -0.319,0 -0.479,0 -0.001,-0.079 -0.001,-0.159 -0.001,-0.24 z"
         id="path4033" />
      <path
         style="fill:#9e9b9b"
         d="m 315.121,356 c 0.961,0 1.92,0 2.881,0 0.348,0.131 1.24,-0.28 1.199,0.24 -1.119,0 -2.24,0 -3.359,0 -0.24,0 -0.48,0 -0.721,0 0,-0.079 0,-0.159 0,-0.24 z"
         id="path4035" />
      <path
         style="fill:#9e9b9b"
         d="m 196.32,376.88 c 2.801,0 5.6,0 8.4,0 1.498,-0.061 2.758,0.121 3.84,0.479 0,0.08 0,0.16 0,0.24 -0.812,-0.066 -1.378,-0.382 -2.4,-0.24 -0.646,-0.553 -2.313,-0.084 -3.359,-0.238 -2.319,0 -4.641,0 -6.959,0 -0.562,0 -1.12,0 -1.682,0 0.256,-0.545 1.509,-0.093 2.16,-0.241 z"
         id="path4037" />
      <path
         style="fill:#9e9b9b"
         d="m 275.521,376.88 c 2.8,0 5.602,0 8.4,0 1.498,-0.061 2.758,0.121 3.84,0.479 0,0.08 0,0.16 0,0.24 -0.812,-0.066 -1.379,-0.382 -2.4,-0.24 -0.646,-0.553 -2.314,-0.084 -3.359,-0.238 -2.881,0 -5.76,0 -8.641,0 0.256,-0.545 1.508,-0.093 2.16,-0.241 z"
         id="path4039" />
      <path
         style="fill:#292827"
         d="M 0,0.56 C 4.165,-0.555 10.396,0.396 15.36,0.08 10.712,0.712 4.684,-0.036 0,0.56 Z"
         id="path4041" />
    </g>
  </g>
</svg>
