<?xml version="1.0" encoding="UTF-8" standalone="no"?>
<svg
   xmlns:dc="http://purl.org/dc/elements/1.1/"
   xmlns:cc="http://creativecommons.org/ns#"
   xmlns:rdf="http://www.w3.org/1999/02/22-rdf-syntax-ns#"
   xmlns:svg="http://www.w3.org/2000/svg"
   xmlns="http://www.w3.org/2000/svg"
   id="svg8"
   version="1.1"
   viewBox="0 0 16.933333 16.933334"
   height="64"
   width="64">
  <title
     id="title3795">diamond</title>
  <defs
     id="defs2" />
  <metadata
     id="metadata5">
    <rdf:RDF>
      <cc:Work
         rdf:about="">
        <dc:format>image/svg+xml</dc:format>
        <dc:type
           rdf:resource="http://purl.org/dc/dcmitype/StillImage" />
        <dc:title>diamond</dc:title>
      </cc:Work>
    </rdf:RDF>
  </metadata>
  <g
     transform="translate(0,-280.06665)"
     id="layer1">
    <g
       style="fill:#800000"
       transform="matrix(0.02480468,0,0,0.02480469,1.9723819,282.34141)"
       id="g3793">
      <path
         style="fill:#800000"
         d="m 255.601,0 c 0.08,0 0.16,0 0.24,0 85.108,85.308 170.296,170.496 255.602,255.601 0,0.16 0,0.32 0,0.479 -85.421,84.818 -170.543,169.941 -255.363,255.361 -0.16,0 -0.319,0 -0.479,0 C 170.493,426.134 85.305,340.945 0,255.84 0,255.76 0,255.68 0,255.6 85.308,170.493 170.496,85.305 255.601,0 Z"
         id="path3738" />
      <path
         style="fill:#800000"
         d="M 0,254.88 C 85.062,170.018 170.013,85.067 254.88,0 c 0.08,0 0.16,0 0.24,0 C 170.187,85.134 85.131,170.189 0,255.121 c 0,-0.08 0,-0.161 0,-0.241 z"
         id="path3740" />
      <path
         style="fill:#800000"
         d="M 0,255.121 C 85.131,170.189 170.187,85.134 255.121,0 c 0.08,0 0.16,0 0.24,0 C 170.34,85.22 85.219,170.342 0,255.36 c 0,-0.08 0,-0.159 0,-0.239 z"
         id="path3742" />
      <path
         style="fill:#800000"
         d="m 255.84,0 c 0.08,0 0.161,0 0.24,0 85.021,85.22 170.143,170.342 255.361,255.36 0,0.08 0,0.16 0,0.24 C 426.137,170.496 340.948,85.308 255.84,0 Z"
         id="path3744" />
      <path
         style="fill:#800000"
         d="m 256.08,511.441 c 84.82,-85.42 169.941,-170.543 255.361,-255.361 0,0.08 0,0.16 0,0.24 -0.08,0 -0.16,0 -0.24,0 -85.062,84.861 -170.015,169.812 -254.881,254.881 0,0.08 0,0.16 0,0.24 -0.08,0 -0.16,0 -0.24,0 z"
         id="path3746" />
      <path
         style="fill:#800000"
         d="M 255.36,511.441 C 170.34,426.221 85.219,341.1 0,256.08 c 0,-0.08 0,-0.16 0,-0.24 85.305,85.105 170.493,170.293 255.601,255.602 -0.08,-0.001 -0.161,-0.001 -0.241,-0.001 z"
         id="path3748" />
      <path
         style="fill:#800000"
         d="M 0,255.36 C 85.219,170.342 170.34,85.22 255.36,0 c 0.08,0 0.16,0 0.24,0 C 170.496,85.305 85.308,170.493 0,255.601 c 0,-0.08 0,-0.161 0,-0.241 z"
         id="path3750" />
      <path
         style="fill:#800000"
         d="M 511.441,255.36 C 426.223,170.342 341.101,85.22 256.08,0 c 0.08,0 0.16,0 0.24,0 84.935,85.134 169.988,170.189 255.121,255.121 0,0.079 0,0.16 0,0.239 z"
         id="path3752" />
      <path
         style="fill:#800000"
         d="M 511.441,255.121 C 426.31,170.189 341.255,85.134 256.32,0 c 0.08,0 0.16,0 0.24,0 84.861,85.062 169.812,170.013 254.881,254.88 0,0.08 0,0.161 0,0.241 z"
         id="path3754" />
      <path
         style="fill:#800000"
         d="M 511.441,254.88 C 426.374,170.013 341.423,85.062 256.561,0 c 0.08,0 0.16,0 0.24,0 84.776,84.977 169.664,169.865 254.642,254.641 -0.002,0.08 -0.002,0.16 -0.002,0.239 z"
         id="path3756" />
      <path
         style="fill:#800000"
         d="m 0,256.32 c 0,-0.08 0,-0.16 0,-0.24 85.219,85.02 170.34,170.141 255.36,255.361 -0.08,0 -0.16,0 -0.24,0 C 170.187,426.307 85.131,341.252 0,256.32 Z"
         id="path3758" />
      <path
         style="fill:#800000"
         d="m 0,256.561 c 0,-0.08 0,-0.16 0,-0.24 85.131,84.933 170.187,169.986 255.121,255.122 -0.08,0 -0.16,0 -0.24,0 C 170.018,426.379 85.067,341.428 0,256.561 Z"
         id="path3760" />
      <path
         style="fill:#800000"
         d="M 256.32,511.201 C 341.187,426.134 426.137,341.181 511.201,256.32 426.339,341.383 341.388,426.334 256.32,511.201 Z"
         id="path3762" />
      <path
         style="fill:#800000"
         d="m 256.32,511.201 c 85.066,-84.867 170.019,-169.818 254.881,-254.881 0.08,0 0.16,0 0.24,0 0,0.08 0,0.16 0,0.24 -85.062,84.861 -170.015,169.812 -254.881,254.881 -0.08,0 -0.16,0 -0.24,0 0,-0.08 0,-0.16 0,-0.24 z"
         id="path3764" />
      <path
         style="fill:#800000"
         d="m 0,256.801 c 0,-0.08 0,-0.16 0,-0.24 85.067,84.867 170.018,169.818 254.88,254.882 -0.08,0 -0.16,0 -0.24,0 C 169.864,426.465 84.976,341.576 0,256.801 Z"
         id="path3766" />
      <path
         style="fill:#800000"
         d="m 256.561,511.441 c 84.867,-85.067 169.818,-170.02 254.882,-254.881 0,0.08 0,0.16 0,0.239 -84.978,84.776 -169.865,169.664 -254.642,254.642 -0.08,0 -0.16,0 -0.24,0 z"
         id="path3768" />
    </g>
  </g>
</svg>
