<?xml version="1.0" encoding="UTF-8" standalone="no"?>
<svg
   xmlns:dc="http://purl.org/dc/elements/1.1/"
   xmlns:cc="http://creativecommons.org/ns#"
   xmlns:rdf="http://www.w3.org/1999/02/22-rdf-syntax-ns#"
   xmlns:svg="http://www.w3.org/2000/svg"
   xmlns="http://www.w3.org/2000/svg"
   id="svg8"
   version="1.1"
   viewBox="0 0 16.933333 16.933333"
   height="64"
   width="64">
  <defs
     id="defs2" />
  <metadata
     id="metadata5">
    <rdf:RDF>
      <cc:Work
         rdf:about="">
        <dc:format>image/svg+xml</dc:format>
        <dc:type
           rdf:resource="http://purl.org/dc/dcmitype/StillImage" />
        <dc:title></dc:title>
      </cc:Work>
    </rdf:RDF>
  </metadata>
  <g
     transform="translate(0,-280.06667)"
     id="layer1">
    <g
       transform="matrix(0.0264882,0,0,0.0264882,1.4003192,281.79197)"
       id="g6022">
      <path
         style="clip-rule:evenodd;fill:#454445;fill-rule:evenodd"
         d="m 259.499,0.298 c 0.336,-0.398 2.304,-0.398 2.64,0 -0.881,0 -1.761,0 -2.64,0 z"
         id="path5313" />
      <path
         style="clip-rule:evenodd;fill:#bbbbbb;fill-rule:evenodd"
         d="m 4.378,44.938 c 0.259,-0.397 2.142,-0.397 2.4,0 -0.799,0 -1.599,0 -2.4,0 z"
         id="path5315" />
      <path
         style="clip-rule:evenodd;fill:#bbbbbb;fill-rule:evenodd"
         d="m 516.779,44.938 c 0.259,-0.397 2.141,-0.397 2.399,0 -0.8,0 -1.599,0 -2.399,0 z"
         id="path5317" />
      <path
         style="clip-rule:evenodd;fill:#090808;fill-rule:evenodd"
         d="m 3.898,45.178 c 65.966,7.629 130.536,16.423 196.56,24.72 4.718,0.593 10.406,0.805 12,2.64 2.524,2.905 1.2,14.206 1.2,20.4 0,4.683 1.461,17.501 -0.96,20.64 -1.479,1.917 -7.896,2.334 -12.24,2.88 -62.233,7.82 -122.489,14.937 -185.28,23.04 -4.33,0.559 -10.399,1.777 -12.48,0 -2.663,-2.273 -1.68,-16.271 -1.68,-22.08 0,-20.455 -0.24,-38.453 -0.24,-58.8 0.001,-6.242 -1.431,-11.729 3.12,-13.44 z"
         id="path5319" />
      <path
         style="clip-rule:evenodd;fill:#090808;fill-rule:evenodd"
         d="m 516.059,45.178 c 8.186,-0.628 6.96,4.937 6.96,13.2 0,20.182 0,38.503 0,59.52 0,6.664 1.349,19.562 -1.921,21.84 -1.974,1.376 -8.111,0.339 -12.72,-0.24 -62.368,-7.837 -122.442,-16.138 -184.56,-23.76 -4.542,-0.558 -10.686,-0.679 -12.24,-2.64 -2.315,-2.92 -0.96,-15.332 -0.96,-20.4 0,-4.428 -1.359,-17.346 0.96,-20.16 1.58,-1.917 7.462,-2.035 12,-2.64 28.952,-3.86 61.171,-7.958 89.52,-11.52 34.898,-4.385 67.479,-9.36 102.48,-12.96 0.259,-0.026 0.426,-0.236 0.481,-0.24 z"
         id="path5321" />
      <path
         style="clip-rule:evenodd;fill:#bbbbbb;fill-rule:evenodd"
         d="m 182.458,49.498 c -0.398,-0.492 -0.398,-2.628 0,-3.12 0,1.04 0,2.08 0,3.12 z"
         id="path5323" />
      <path
         style="clip-rule:evenodd;fill:#e4e4e4;fill-rule:evenodd"
         d="m 0.299,49.498 c 0,1.04 0,2.08 0,3.12 -0.399,-0.492 -0.399,-2.628 0,-3.12 z"
         id="path5325" />
      <path
         style="clip-rule:evenodd;fill:#bbbbbb;fill-rule:evenodd"
         d="m 523.258,49.498 c 0.4,28.32 0.4,58.321 0,86.64 0,-28.88 0,-57.76 0,-86.64 z"
         id="path5327" />
      <path
         style="clip-rule:evenodd;fill:#bbbbbb;fill-rule:evenodd"
         d="m 0.299,52.618 c 0.56,8.16 0.08,17.36 0.24,25.92 -0.08,0 -0.16,0 -0.24,0 0,-8.64 0,-17.28 0,-25.92 z"
         id="path5329" />
      <path
         style="clip-rule:evenodd;fill:#bbbbbb;fill-rule:evenodd"
         d="m 260.219,55.978 c -23.681,-0.16 -48.001,0.32 -71.281,-0.24 47.92,0 95.839,0 143.76,0 -22.4,0.56 -45.841,0.08 -68.64,0.24 -1.279,0 -2.559,0 -3.839,0 z"
         id="path5331" />
      <path
         style="clip-rule:evenodd;fill:#e4e4e4;fill-rule:evenodd"
         d="m 260.219,56.218 c 0,-0.08 0,-0.16 0,-0.24 1.279,0 2.56,0 3.84,0 0,0.08 0,0.16 0,0.24 -1.28,0 -2.56,0 -3.84,0 z"
         id="path5333" />
      <path
         style="clip-rule:evenodd;fill:#bbbbbb;fill-rule:evenodd"
         d="m 258.539,56.458 c 0.104,-0.537 1.183,-0.097 1.681,-0.24 1.279,0 2.56,0 3.84,0 0.422,0.138 1.409,-0.29 1.439,0.24 -2.321,0 -4.64,0 -6.96,0 z"
         id="path5335" />
      <path
         style="clip-rule:evenodd;fill:#454445;fill-rule:evenodd"
         d="m 258.059,56.698 c 0.006,-0.233 0.294,-0.187 0.48,-0.24 2.32,0 4.64,0 6.96,0 0.279,-0.039 0.427,0.053 0.48,0.24 -2.641,0 -5.28,0 -7.92,0 z"
         id="path5337" />
      <path
         style="clip-rule:evenodd;fill:#bbbbbb;fill-rule:evenodd"
         d="m 310.378,110.698 c -0.399,-11.36 -0.399,-24.4 0,-35.76 0,11.92 0,23.84 0,35.76 z"
         id="path5339" />
      <path
         style="clip-rule:evenodd;fill:#bbbbbb;fill-rule:evenodd"
         d="m 213.898,75.418 c 0.4,11.28 0.4,24.24 0,35.52 0,-11.84 0,-23.68 0,-35.52 z"
         id="path5341" />
      <path
         style="clip-rule:evenodd;fill:#e4e4e4;fill-rule:evenodd"
         d="m 0.299,78.538 c 0.08,0 0.16,0 0.24,0 0,2.96 0,5.92 0,8.88 -0.56,-2.481 -0.081,-5.999 -0.24,-8.88 z"
         id="path5343" />
      <path
         style="clip-rule:evenodd;fill:#bbbbbb;fill-rule:evenodd"
         d="m 0.539,87.418 c 0.56,8.16 0.08,17.36 0.24,25.92 -0.08,0 -0.16,0 -0.24,0 0,-8.64 0,-17.28 0,-25.92 z"
         id="path5345" />
      <path
         style="clip-rule:evenodd;fill:#454445;fill-rule:evenodd"
         d="m 224.938,91.018 c -0.021,-0.341 -0.04,-0.68 0.24,-0.72 0,2.08 0,4.16 0,6.24 -0.281,-0.039 -0.203,-0.438 -0.24,-0.72 0,-1.6 0,-3.2 0,-4.8 z"
         id="path5347" />
      <path
         style="clip-rule:evenodd;fill:#454445;fill-rule:evenodd"
         d="m 298.859,90.538 c 0.281,0.039 0.202,0.438 0.239,0.72 0,1.52 0,3.04 0,4.56 0.021,0.341 0.04,0.68 -0.239,0.72 0,-2 0,-4 0,-6 z"
         id="path5349" />
      <path
         style="clip-rule:evenodd;fill:#bbbbbb;fill-rule:evenodd"
         d="m 224.938,95.818 c -0.399,-1.045 -0.399,-3.754 0,-4.8 0,1.6 0,3.2 0,4.8 z"
         id="path5351" />
      <path
         style="clip-rule:evenodd;fill:#bbbbbb;fill-rule:evenodd"
         d="m 299.098,91.258 c 0.399,0.966 0.399,3.594 0,4.56 0,-1.52 0,-3.04 0,-4.56 z"
         id="path5353" />
      <path
         style="clip-rule:evenodd;fill:#e4e4e4;fill-rule:evenodd"
         d="m 0.539,113.338 c 0.08,0 0.16,0 0.24,0 0,2.96 0,5.92 0,8.88 -0.559,-2.481 -0.081,-5.999 -0.24,-8.88 z"
         id="path5355" />
      <path
         style="clip-rule:evenodd;fill:#bbbbbb;fill-rule:evenodd"
         d="m 0.779,122.218 c 0.56,4.32 0.08,9.68 0.24,14.4 -0.56,-4.32 -0.081,-9.68 -0.24,-14.4 z"
         id="path5357" />
      <path
         style="clip-rule:evenodd;fill:#090808;fill-rule:evenodd"
         d="m 259.979,130.378 c 0,-0.08 0,-0.16 0,-0.24 1.359,0 2.72,0 4.08,0 0,0.08 0,0.16 0,0.24 -0.08,0 -0.16,0 -0.24,0 -1.2,0 -2.4,0 -3.6,0 -0.08,0 -0.16,0 -0.24,0 z"
         id="path5359" />
      <path
         style="clip-rule:evenodd;fill:#bbbbbb;fill-rule:evenodd"
         d="m 259.259,130.618 c -0.422,-0.138 -1.41,0.29 -1.44,-0.24 0.72,0 1.44,0 2.16,0 0.08,0 0.16,0 0.24,0 0,0.08 0,0.16 0,0.24 -0.32,0 -0.64,0 -0.96,0 z"
         id="path5361" />
      <path
         style="clip-rule:evenodd;fill:#454445;fill-rule:evenodd"
         d="m 260.219,130.618 c 0,-0.08 0,-0.16 0,-0.24 1.199,0 2.399,0 3.6,0 0,0.08 0,0.16 0,0.24 -1.2,0 -2.401,0 -3.6,0 z"
         id="path5363" />
      <path
         style="clip-rule:evenodd;fill:#bbbbbb;fill-rule:evenodd"
         d="m 263.819,130.618 c 0,-0.08 0,-0.16 0,-0.24 0.08,0 0.16,0 0.24,0 0.72,0 1.439,0 2.159,0 -0.029,0.53 -1.018,0.102 -1.439,0.24 -0.321,0 -0.641,0 -0.96,0 z"
         id="path5365" />
      <path
         style="clip-rule:evenodd;fill:#e4e4e4;fill-rule:evenodd"
         d="m 259.259,130.618 c 0.32,0 0.64,0 0.96,0 1.199,0 2.399,0 3.6,0 0.319,0 0.64,0 0.96,0 -1.284,0.4 -4.236,0.4 -5.52,0 z"
         id="path5367" />
      <path
         style="clip-rule:evenodd;fill:#bbbbbb;fill-rule:evenodd"
         d="m 185.579,132.778 c 49.76,-0.4 101.2,-0.4 150.96,0 -50.322,0 -100.64,0 -150.96,0 z"
         id="path5369" />
      <path
         style="clip-rule:evenodd;fill:#bbbbbb;fill-rule:evenodd"
         d="m 346.138,141.898 c 0.326,0.074 0.199,0.601 0.24,0.96 0,0.96 0,1.92 0,2.88 -0.02,0.38 0.115,0.915 -0.24,0.96 0,-0.72 0,-1.44 0,-2.16 0,-0.16 0,-0.32 0,-0.48 0,-0.72 0,-1.44 0,-2.16 z"
         id="path5371" />
      <path
         style="clip-rule:evenodd;fill:#bbbbbb;fill-rule:evenodd"
         d="m 175.979,145.978 c -0.398,-0.649 -0.398,-2.95 0,-3.6 0,1.2 0,2.4 0,3.6 z"
         id="path5373" />
      <path
         style="clip-rule:evenodd;fill:#e4e4e4;fill-rule:evenodd"
         d="m 346.378,142.858 c 0.398,0.414 0.398,2.466 0,2.88 0,-0.96 0,-1.92 0,-2.88 z"
         id="path5375" />
      <path
         style="clip-rule:evenodd;fill:#454445;fill-rule:evenodd"
         d="m 345.899,146.938 c 0.15,-0.729 -0.308,-2.067 0.239,-2.4 0,0.72 0,1.44 0,2.16 0.045,0.204 -0.093,0.226 -0.239,0.24 z"
         id="path5377" />
      <path
         style="clip-rule:evenodd;fill:#e4e4e4;fill-rule:evenodd"
         d="m 187.019,155.818 c 2.162,0.159 4.958,-0.318 6.72,0.24 -2.162,-0.159 -4.959,0.318 -6.72,-0.24 z"
         id="path5379" />
      <path
         style="clip-rule:evenodd;fill:#bbbbbb;fill-rule:evenodd"
         d="m 374.939,511.978 c 0.397,0.492 0.397,2.628 0,3.12 0,-1.04 0,-2.08 0,-3.12 z"
         id="path5381" />
      <path
         style="clip-rule:evenodd;fill:#bbbbbb;fill-rule:evenodd"
         d="m 370.859,518.698 c -72.801,0.4 -147.279,0.4 -220.08,0 73.364,0 146.718,0 220.08,0 z"
         id="path5383" />
      <path
         style="clip-rule:evenodd;fill:#e4e4e4;fill-rule:evenodd"
         d="m 233.579,69.178 c 1.34,-1.54 2.78,-2.98 4.32,-4.32 -1.34,1.54 -2.78,2.98 -4.32,4.32 z"
         id="path5385" />
      <path
         style="clip-rule:evenodd;fill:#bbbbbb;fill-rule:evenodd"
         d="m 236.938,121.018 c -1.855,-1.505 -3.33,-3.39 -4.8,-5.28 1.702,1.658 3.137,3.584 4.8,5.28 z"
         id="path5387" />
      <path
         style="clip-rule:evenodd;fill:#bbbbbb;fill-rule:evenodd"
         d="m 287.338,120.778 c 1.232,-1.248 2.196,-2.764 3.601,-3.84 -1.186,1.294 -2.166,2.794 -3.601,3.84 z"
         id="path5389" />
      <path
         style="clip-rule:evenodd;fill:#e4e4e4;fill-rule:evenodd"
         d="m 290.458,69.178 c -1.46,-1.26 -2.82,-2.62 -4.08,-4.08 1.46,1.26 2.821,2.62 4.08,4.08 z"
         id="path5391" />
      <path
         style="clip-rule:evenodd;fill:#090808;fill-rule:evenodd"
         d="m 267.418,3.178 c 2.972,1.348 5.868,2.772 8.4,4.56 -3.021,-1.22 -5.56,-2.92 -8.4,-4.32 0,-0.08 0,-0.16 0,-0.24 z"
         id="path5393" />
      <path
         style="clip-rule:evenodd;fill:#090808;fill-rule:evenodd"
         d="m 287.819,14.458 c 0.645,0.316 1.275,0.645 1.92,0.96 1.62,0.62 3.078,1.402 4.32,2.4 -2.211,-0.91 -4.174,-2.066 -6.24,-3.12 0,-0.08 0,-0.16 0,-0.24 z"
         id="path5395" />
      <path
         style="clip-rule:evenodd;fill:#090808;fill-rule:evenodd"
         d="m 297.418,19.738 c 0.49,0.229 0.95,0.49 1.44,0.72 1.619,0.62 3.078,1.402 4.319,2.4 -2.025,-0.854 -3.891,-1.868 -5.76,-2.88 0.001,-0.08 0.001,-0.16 0.001,-0.24 z"
         id="path5397" />
      <path
         style="clip-rule:evenodd;fill:#090808;fill-rule:evenodd"
         d="m 306.059,24.538 c 0.644,0.316 1.275,0.645 1.92,0.96 2.645,0.795 4.184,2.696 6.72,3.6 -0.001,0.241 0.194,0.286 0.24,0.48 -3.058,-1.503 -5.823,-3.297 -8.88,-4.8 0,-0.08 0,-0.16 0,-0.24 z"
         id="path5399" />
      <path
         style="clip-rule:evenodd;fill:#090808;fill-rule:evenodd"
         d="m 315.178,29.578 c 0.645,0.316 1.276,0.644 1.92,0.96 2.345,1.016 4.511,2.21 6.48,3.6 -3.021,-1.22 -5.56,-2.92 -8.4,-4.32 0,-0.08 0,-0.16 0,-0.24 z"
         id="path5401" />
      <path
         style="clip-rule:evenodd;fill:#090808;fill-rule:evenodd"
         d="m 332.699,39.178 c -2.987,-1.333 -5.833,-2.807 -8.4,-4.56 0.645,0.315 1.276,0.644 1.92,0.96 2.344,1.016 4.51,2.21 6.48,3.6 z"
         id="path5403" />
      <path
         style="clip-rule:evenodd;fill:#090808;fill-rule:evenodd"
         d="m 333.418,39.658 c 0.49,0.229 0.95,0.49 1.44,0.72 0.307,0.013 0.332,0.308 0.72,0.24 0.936,1.064 2.245,1.754 2.88,3.12 -1.366,-1.594 -2.903,-3.017 -5.04,-3.84 0,-0.08 0,-0.16 0,-0.24 z"
         id="path5405" />
      <path
         style="clip-rule:evenodd;fill:#090808;fill-rule:evenodd"
         d="m 185.819,54.298 c -0.915,-0.446 -1.316,-1.404 -2.16,-1.92 0,-0.08 0,-0.16 0,-0.24 -0.103,-0.457 -0.517,-0.603 -0.48,-1.2 0.726,1.194 1.469,2.371 2.64,3.12 0,0.08 0,0.16 0,0.24 z"
         id="path5407" />
      <path
         style="clip-rule:evenodd;fill:#090808;fill-rule:evenodd"
         d="m 183.898,43.498 c 0.711,-1.609 2.389,-2.251 3.6,-3.36 2.223,-1.218 4.266,-2.614 6.72,-3.6 0.359,-0.281 0.981,-0.298 1.2,-0.72 -2.699,2.661 -8.793,4.006 -11.28,7.68 -0.079,0 -0.159,0 -0.24,0 z"
         id="path5409" />
      <path
         style="clip-rule:evenodd;fill:#090808;fill-rule:evenodd"
         d="m 200.219,33.418 c 2.601,-1.959 5.483,-3.636 8.64,-5.04 2.313,-1.282 0.636,0.092 -0.48,0.72 -1.358,0.765 -3.465,1.294 -3.36,1.92 -1.294,0.246 -3.19,1.697 -4.8,2.4 z"
         id="path5411" />
      <path
         style="clip-rule:evenodd;fill:#090808;fill-rule:evenodd"
         d="m 214.858,25.258 c 2.601,-1.959 5.484,-3.637 8.64,-5.04 0.359,-0.281 0.981,-0.298 1.2,-0.72 -2.237,2.003 -6.696,3.864 -9.84,5.76 z"
         id="path5413" />
      <path
         style="clip-rule:evenodd;fill:#090808;fill-rule:evenodd"
         d="m 231.179,16.138 c 0.518,-0.922 1.541,-1.339 2.64,-1.68 0.457,-0.103 0.603,-0.517 1.2,-0.48 -0.008,0.121 -2.656,1.629 -3.84,2.16 z"
         id="path5415" />
      <path
         style="clip-rule:evenodd;fill:#090808;fill-rule:evenodd"
         d="m 245.819,7.978 c 0.045,-0.194 0.241,-0.239 0.24,-0.48 0.734,-0.466 1.416,-0.984 2.4,-1.2 0.457,-0.103 0.603,-0.517 1.2,-0.48 -0.008,0.121 -2.656,1.629 -3.84,2.16 z"
         id="path5417" />
      <path
         style="clip-rule:evenodd;fill:#454445;fill-rule:evenodd"
         d="m 242.458,9.658 c 0.973,-0.947 2.371,-1.47 3.6,-2.16 0.001,0.241 -0.194,0.286 -0.24,0.48 -1.355,0.325 -2.119,1.24 -3.36,1.68 z"
         id="path5419" />
      <path
         style="clip-rule:evenodd;fill:#454445;fill-rule:evenodd"
         d="m 287.819,14.458 c -0.27,-0.051 -0.374,-0.266 -0.48,-0.48 0.757,0.523 1.907,0.653 2.4,1.44 -0.645,-0.315 -1.276,-0.644 -1.92,-0.96 z"
         id="path5421" />
      <path
         style="clip-rule:evenodd;fill:#454445;fill-rule:evenodd"
         d="m 297.418,19.738 c -0.318,-0.241 -0.893,-0.227 -0.96,-0.72 0.757,0.523 1.907,0.653 2.4,1.44 -0.489,-0.229 -0.949,-0.49 -1.44,-0.72 z"
         id="path5423" />
      <path
         style="clip-rule:evenodd;fill:#454445;fill-rule:evenodd"
         d="m 306.059,24.538 c -0.27,-0.051 -0.374,-0.266 -0.48,-0.48 0.757,0.523 1.907,0.653 2.4,1.44 -0.645,-0.315 -1.276,-0.644 -1.92,-0.96 z"
         id="path5425" />
      <path
         style="clip-rule:evenodd;fill:#454445;fill-rule:evenodd"
         d="m 314.939,29.578 c -0.046,-0.194 -0.241,-0.239 -0.24,-0.48 0.756,0.523 1.907,0.653 2.399,1.44 -0.644,-0.316 -1.275,-0.644 -1.92,-0.96 -0.08,0 -0.16,0 -0.239,0 z"
         id="path5427" />
      <path
         style="clip-rule:evenodd;fill:#454445;fill-rule:evenodd"
         d="m 324.298,34.618 c -0.269,-0.051 -0.373,-0.267 -0.479,-0.48 0.756,0.523 1.907,0.653 2.399,1.44 -0.643,-0.316 -1.275,-0.644 -1.92,-0.96 z"
         id="path5429" />
      <path
         style="clip-rule:evenodd;fill:#bbbbbb;fill-rule:evenodd"
         d="m 334.859,40.378 c 0.15,-0.98 4.306,2.491 4.56,4.56 -1.002,-1.718 -2.074,-3.366 -3.84,-4.32 -0.388,0.068 -0.413,-0.227 -0.72,-0.24 z"
         id="path5431" />
      <path
         style="clip-rule:evenodd;fill:#454445;fill-rule:evenodd"
         d="m 183.179,44.458 c 0.821,-2.059 2.374,-3.386 4.32,-4.32 -1.211,1.109 -2.889,1.751 -3.6,3.36 -0.241,0.32 -0.396,0.725 -0.72,0.96 z"
         id="path5433" />
      <path
         style="clip-rule:evenodd;fill:#454445;fill-rule:evenodd"
         d="m 338.458,43.738 c -0.635,-1.366 -1.944,-2.056 -2.88,-3.12 1.766,0.954 2.838,2.602 3.84,4.32 0.218,0.662 0.074,1.686 0.48,2.16 -0.139,0.422 0.29,1.41 -0.24,1.44 -0.024,-1.976 -0.443,-3.557 -1.2,-4.8 z"
         id="path5435" />
      <path
         style="clip-rule:evenodd;fill:#454445;fill-rule:evenodd"
         d="m 0.299,49.498 c 0.08,0 0.16,0 0.24,0 0.072,-2.729 1.749,-3.851 3.84,-4.56 0.8,0 1.6,0 2.4,0 63.228,8.185 129.503,16.375 194.16,24.72 5.967,0.77 12.684,0.26 12.96,5.76 0,11.84 0,23.68 0,35.52 -0.294,5.122 -6.799,5.004 -12.96,5.76 -62.04,7.612 -123.552,15.011 -185.76,23.04 -6.618,0.854 -13.151,2.819 -14.16,-3.12 -0.16,-4.72 0.32,-10.08 -0.24,-14.4 0,-2.96 0,-5.92 0,-8.88 -0.16,-8.56 0.32,-17.76 -0.24,-25.92 0,-2.96 0,-5.92 0,-8.88 -0.16,-8.56 0.32,-17.76 -0.24,-25.92 0,-1.04 0,-2.08 0,-3.12 z m 0.48,9.12 c 0,20.347 0.24,38.345 0.24,58.8 0,5.809 -0.983,19.807 1.68,22.08 2.081,1.777 8.15,0.559 12.48,0 62.791,-8.104 123.046,-15.22 185.28,-23.04 4.345,-0.546 10.761,-0.963 12.24,-2.88 2.421,-3.139 0.96,-15.957 0.96,-20.64 0,-6.194 1.324,-17.495 -1.2,-20.4 -1.594,-1.835 -7.282,-2.047 -12,-2.64 C 134.435,61.602 69.865,52.807 3.899,45.178 c -4.552,1.711 -3.12,7.198 -3.12,13.44 z"
         id="path5437" />
      <path
         style="clip-rule:evenodd;fill:#454445;fill-rule:evenodd"
         d="m 310.378,74.938 c 0.521,-5.033 8.163,-4.68 14.4,-5.52 63.147,-8.5 130.35,-16.164 192,-24.48 0.8,0 1.6,0 2.399,0 2.334,0.547 3.632,2.128 4.08,4.56 0,28.88 0,57.76 0,86.64 -0.38,6.313 -7.348,4.482 -13.92,3.6 -62.007,-8.321 -123.304,-15.994 -185.279,-23.52 -6.391,-0.776 -12.876,-0.427 -13.681,-5.52 10e-4,-11.92 10e-4,-23.84 10e-4,-35.76 z m 205.201,-29.52 c -35.001,3.6 -67.582,8.575 -102.48,12.96 -28.349,3.562 -60.567,7.66 -89.52,11.52 -4.538,0.605 -10.42,0.724 -12,2.64 -2.319,2.814 -0.96,15.732 -0.96,20.16 0,5.068 -1.355,17.479 0.96,20.4 1.555,1.961 7.698,2.083 12.24,2.64 62.117,7.622 122.191,15.923 184.56,23.76 4.608,0.579 10.746,1.617 12.72,0.24 3.27,-2.279 1.921,-15.176 1.921,-21.84 0,-21.017 0,-39.338 0,-59.52 0,-8.263 1.226,-13.828 -6.96,-13.2 -0.056,0.004 -0.223,0.214 -0.481,0.24 z"
         id="path5439" />
      <path
         style="clip-rule:evenodd;fill:#454445;fill-rule:evenodd"
         d="m 182.458,46.378 c -0.044,-0.204 0.094,-0.226 0.24,-0.24 0.012,1.748 -0.154,3.673 0.48,4.8 -0.037,0.597 0.377,0.743 0.48,1.2 -0.194,-0.046 -0.239,-0.241 -0.48,-0.24 -0.241,-0.799 -0.431,-1.648 -0.72,-2.4 0,-1.04 0,-2.08 0,-3.12 z"
         id="path5441" />
      <path
         style="clip-rule:evenodd;fill:#454445;fill-rule:evenodd"
         d="m 335.098,55.018 c 1.75,-0.97 3.11,-2.33 4.08,-4.08 0.031,0.431 -0.293,0.506 -0.239,0.96 -0.89,1.031 -1.85,1.991 -2.88,2.88 -0.431,-0.03 -0.507,0.294 -0.961,0.24 z"
         id="path5443" />
      <path
         style="clip-rule:evenodd;fill:#bbbbbb;fill-rule:evenodd"
         d="m 188.699,55.738 c -2.792,-0.328 -4.419,-1.822 -5.52,-3.84 0.241,0 0.286,0.194 0.48,0.24 0,0.08 0,0.16 0,0.24 0.658,1.022 1.491,1.869 2.64,2.4 0.799,0.241 1.648,0.431 2.4,0.72 0,0.08 0,0.16 0,0.24 z"
         id="path5445" />
      <path
         style="clip-rule:evenodd;fill:#bbbbbb;fill-rule:evenodd"
         d="m 336.059,54.778 c 1.03,-0.89 1.99,-1.85 2.88,-2.88 -0.677,1.244 -1.637,2.204 -2.88,2.88 z"
         id="path5447" />
      <path
         style="clip-rule:evenodd;fill:#454445;fill-rule:evenodd"
         d="m 186.299,54.778 c -1.149,-0.532 -1.982,-1.378 -2.64,-2.4 0.844,0.516 1.246,1.475 2.16,1.92 0.269,0.051 0.373,0.266 0.48,0.48 z"
         id="path5449" />
      <path
         style="clip-rule:evenodd;fill:#454445;fill-rule:evenodd"
         d="m 188.699,55.498 c 48.402,-0.16 97.438,0.319 145.439,-0.24 -0.242,0.397 -1.019,0.261 -1.439,0.48 -47.921,0 -95.84,0 -143.76,0 -0.08,0 -0.16,0 -0.24,0 0,-0.08 0,-0.16 0,-0.24 z"
         id="path5451" />
      <path
         style="clip-rule:evenodd;fill:#454445;fill-rule:evenodd"
         d="m 253.739,57.418 c 1.068,-0.532 2.508,-0.692 4.08,-0.72 -1.186,0.414 -2.703,0.497 -4.08,0.72 z"
         id="path5453" />
      <path
         style="clip-rule:evenodd;fill:#090808;fill-rule:evenodd"
         d="m 280.859,61.738 c 5.715,3.404 10.225,8.015 13.439,13.92 -3.507,-5.533 -7.672,-10.408 -13.439,-13.68 0,-0.08 0,-0.16 0,-0.24 z"
         id="path5455" />
      <path
         style="clip-rule:evenodd;fill:#090808;fill-rule:evenodd"
         d="m 294.298,75.898 c 0.194,0.046 0.239,0.241 0.48,0.24 0.149,0.89 0.675,1.405 0.96,2.16 0,0.08 0,0.16 0,0.24 -0.645,-0.715 -0.929,-1.79 -1.44,-2.64 z"
         id="path5457" />
      <path
         style="clip-rule:evenodd;fill:#090808;fill-rule:evenodd"
         d="m 296.458,107.098 c -0.062,0.737 -0.521,1.079 -0.72,1.68 -0.646,0.714 -0.93,1.79 -1.44,2.64 0,0.08 0,0.16 0,0.24 -0.24,-0.001 -0.285,0.194 -0.479,0.24 0.774,-1.625 1.635,-3.165 2.399,-4.8 0.08,0 0.16,0 0.24,0 z"
         id="path5459" />
      <path
         style="clip-rule:evenodd;fill:#090808;fill-rule:evenodd"
         d="m 280.138,125.578 c 5.541,-3.5 10.074,-8.006 13.681,-13.44 -3.033,5.447 -7.503,9.457 -12.48,12.96 -0.446,0.033 -0.802,0.158 -0.96,0.48 -0.081,0 -0.161,0 -0.241,0 z"
         id="path5461" />
      <path
         style="clip-rule:evenodd;fill:#090808;fill-rule:evenodd"
         d="m 277.258,127.018 c 0.715,-0.645 1.791,-0.93 2.641,-1.44 -0.046,0.194 -0.241,0.239 -0.24,0.48 -0.891,0.15 -1.405,0.675 -2.16,0.96 -0.081,0 -0.161,0 -0.241,0 z"
         id="path5463" />
      <path
         style="clip-rule:evenodd;fill:#090808;fill-rule:evenodd"
         d="m 250.619,128.698 c -1.205,-0.315 -2.159,-0.882 -3.12,-1.44 1.16,0.28 2.132,0.747 3.12,1.2 0,0.08 0,0.16 0,0.24 z"
         id="path5465" />
      <path
         style="clip-rule:evenodd;fill:#090808;fill-rule:evenodd"
         d="m 246.539,127.018 c -0.755,-0.285 -1.27,-0.81 -2.16,-0.96 -0.045,-0.194 -0.241,-0.239 -0.24,-0.48 0.85,0.51 1.925,0.795 2.64,1.44 -0.08,0 -0.16,0 -0.24,0 z"
         id="path5467" />
      <path
         style="clip-rule:evenodd;fill:#090808;fill-rule:evenodd"
         d="m 243.898,125.578 c -0.457,-0.103 -0.603,-0.517 -1.2,-0.48 -4.588,-3.252 -8.821,-6.859 -11.76,-11.76 3.63,4.69 7.511,9.129 12.96,12 0,0.08 0,0.16 0,0.24 z"
         id="path5469" />
      <path
         style="clip-rule:evenodd;fill:#090808;fill-rule:evenodd"
         d="m 228.059,107.818 c 0.628,0.572 0.918,1.481 1.2,2.4 -0.605,-0.436 -0.595,-1.485 -1.2,-1.92 0,-0.16 0,-0.32 0,-0.48 z"
         id="path5471" />
      <path
         style="clip-rule:evenodd;fill:#090808;fill-rule:evenodd"
         d="m 243.179,61.738 c -6.837,4.363 -11.896,10.504 -15.6,18 0.767,-2.113 1.751,-4.009 2.88,-5.76 3.475,-4.845 7.413,-9.227 12.72,-12.24 z"
         id="path5473" />
      <path
         style="clip-rule:evenodd;fill:#090808;fill-rule:evenodd"
         d="m 243.418,61.738 c 0.856,-1.063 2.612,-1.228 3.6,-2.16 0.16,0 0.32,0 0.48,0 -1.197,0.882 -2.748,1.412 -4.08,2.16 z"
         id="path5475" />
      <path
         style="clip-rule:evenodd;fill:#454445;fill-rule:evenodd"
         d="m 269.098,57.178 c -1.021,-0.098 -2.129,-0.111 -2.88,-0.48 1.15,-0.029 2.172,0.068 2.88,0.48 z"
         id="path5477" />
      <path
         style="clip-rule:evenodd;fill:#bbbbbb;fill-rule:evenodd"
         d="m 249.418,58.618 c -0.24,-0.413 1.557,-0.834 2.4,-0.96 -0.055,0.346 -0.716,0.083 -0.72,0.48 -0.533,0.187 -0.935,0.504 -1.68,0.48 z"
         id="path5479" />
      <path
         style="clip-rule:evenodd;fill:#454445;fill-rule:evenodd"
         d="m 240.299,63.178 c 2.292,-1.147 4.121,-2.759 6.72,-3.6 -0.988,0.932 -2.744,1.097 -3.6,2.16 -0.08,0 -0.16,0 -0.24,0 -5.307,3.013 -9.245,7.395 -12.72,12.24 0.746,-1.654 2.071,-2.729 2.88,-4.32 2.342,-2.138 4.501,-4.458 6.96,-6.48 z"
         id="path5481" />
      <path
         style="clip-rule:evenodd;fill:#454445;fill-rule:evenodd"
         d="m 280.138,61.258 c -1.01,-0.59 -2.243,-0.957 -3.119,-1.68 1.155,0.444 2.362,0.837 3.119,1.68 z"
         id="path5483" />
      <path
         style="clip-rule:evenodd;fill:#454445;fill-rule:evenodd"
         d="m 280.859,61.738 c -0.27,-0.051 -0.374,-0.267 -0.48,-0.48 1.641,0.679 2.739,1.9 4.32,2.64 2.938,2.663 5.67,5.53 8.16,8.64 0.249,0.871 0.796,1.444 1.2,2.16 0.229,0.49 0.49,0.95 0.72,1.44 -0.241,0 -0.286,-0.194 -0.48,-0.24 0,-0.08 0,-0.16 0,-0.24 -3.216,-5.905 -7.725,-10.515 -13.44,-13.92 z"
         id="path5485" />
      <path
         style="clip-rule:evenodd;fill:#bbbbbb;fill-rule:evenodd"
         d="m 237.898,64.858 c 0.98,-0.38 1.471,-1.249 2.4,-1.68 -2.458,2.021 -4.618,4.342 -6.96,6.48 0.046,-0.194 0.241,-0.239 0.24,-0.48 1.541,-1.34 2.981,-2.78 4.32,-4.32 z"
         id="path5487" />
      <path
         style="clip-rule:evenodd;fill:#bbbbbb;fill-rule:evenodd"
         d="m 292.859,72.538 c -2.49,-3.11 -5.223,-5.978 -8.16,-8.64 0.572,0.388 1.058,0.862 1.68,1.2 1.26,1.46 2.62,2.82 4.08,4.08 0.651,1.269 1.721,2.119 2.4,3.36 z"
         id="path5489" />
      <path
         style="clip-rule:evenodd;fill:#bbbbbb;fill-rule:evenodd"
         d="m 294.779,76.138 c -0.229,-0.49 -0.49,-0.95 -0.72,-1.44 0.734,0.648 2.615,4.377 1.68,3.6 -0.285,-0.755 -0.811,-1.27 -0.96,-2.16 z"
         id="path5491" />
      <path
         style="clip-rule:evenodd;fill:#454445;fill-rule:evenodd"
         d="m 226.378,83.338 c 0.257,-1.263 0.544,-2.496 1.2,-3.36 -0.37,1.149 -0.626,2.414 -1.2,3.36 z"
         id="path5493" />
      <path
         style="clip-rule:evenodd;fill:#454445;fill-rule:evenodd"
         d="m 297.899,84.538 c 0.633,1.606 0.965,3.515 0.96,5.76 -0.39,-1.851 -0.626,-3.855 -0.96,-5.76 z"
         id="path5495" />
      <path
         style="clip-rule:evenodd;fill:#454445;fill-rule:evenodd"
         d="m 225.179,90.058 c -0.026,-1.306 0.07,-2.49 0.48,-3.36 0.108,1.308 -0.428,1.972 -0.24,3.36 -0.081,0 -0.16,0 -0.24,0 z"
         id="path5497" />
      <path
         style="clip-rule:evenodd;fill:#454445;fill-rule:evenodd"
         d="m 298.378,100.138 c 0.081,-1.199 0.112,-2.448 0.48,-3.36 0.026,1.305 -0.069,2.491 -0.48,3.36 z"
         id="path5499" />
      <path
         style="clip-rule:evenodd;fill:#454445;fill-rule:evenodd"
         d="m 296.458,106.858 c 0.37,-1.149 0.627,-2.413 1.2,-3.36 -0.256,1.263 -0.543,2.496 -1.2,3.36 z"
         id="path5501" />
      <path
         style="clip-rule:evenodd;fill:#454445;fill-rule:evenodd"
         d="m 230.219,112.858 c -0.583,-1.657 -1.675,-2.805 -2.16,-4.56 0.605,0.435 0.595,1.484 1.2,1.92 0.317,1.282 1.115,2.084 1.68,3.12 2.939,4.901 7.172,8.508 11.76,11.76 -2.192,-1.088 -3.743,-2.817 -5.76,-4.08 -1.664,-1.696 -3.098,-3.622 -4.8,-5.28 0,-0.08 0,-0.16 0,-0.24 -0.677,-0.844 -1.082,-1.958 -1.92,-2.64 z"
         id="path5503" />
      <path
         style="clip-rule:evenodd;fill:#454445;fill-rule:evenodd"
         d="m 294.298,111.418 c 0.511,-0.85 0.795,-1.925 1.44,-2.64 -0.36,1 -0.681,2.039 -1.44,2.64 z"
         id="path5505" />
      <path
         style="clip-rule:evenodd;fill:#454445;fill-rule:evenodd"
         d="m 293.819,111.898 c 0.194,-0.045 0.239,-0.241 0.479,-0.24 -0.871,2.008 -2.38,3.38 -3.359,5.28 -1.404,1.076 -2.368,2.593 -3.601,3.84 -0.08,0 -0.16,0 -0.24,0 -0.85,0.83 -1.92,1.439 -2.64,2.4 -1.215,0.465 -1.925,1.435 -3.12,1.92 4.978,-3.503 9.447,-7.513 12.48,-12.96 0.001,-0.08 0.001,-0.16 0.001,-0.24 z"
         id="path5507" />
      <path
         style="clip-rule:evenodd;fill:#bbbbbb;fill-rule:evenodd"
         d="m 232.139,115.498 c -0.9,-0.62 -1.336,-1.704 -1.92,-2.64 0.838,0.682 1.243,1.796 1.92,2.64 z"
         id="path5509" />
      <path
         style="clip-rule:evenodd;fill:#bbbbbb;fill-rule:evenodd"
         d="m 284.458,123.178 c 0.72,-0.96 1.79,-1.57 2.64,-2.4 -0.662,1.017 -1.68,1.68 -2.64,2.4 z"
         id="path5511" />
      <path
         style="clip-rule:evenodd;fill:#bbbbbb;fill-rule:evenodd"
         d="m 246.539,127.018 c 2.949,2.075 -5.231,-2.231 -2.16,-0.96 0.89,0.15 1.405,0.675 2.16,0.96 z"
         id="path5513" />
      <path
         style="clip-rule:evenodd;fill:#bbbbbb;fill-rule:evenodd"
         d="m 279.659,126.058 c 3.071,-1.271 -5.109,3.035 -2.16,0.96 0.754,-0.285 1.269,-0.81 2.16,-0.96 z"
         id="path5515" />
      <path
         style="clip-rule:evenodd;fill:#454445;fill-rule:evenodd"
         d="m 257.819,130.378 c -1.364,-0.396 -3.231,-0.289 -4.32,-0.96 2.167,0.233 3.925,0.875 6.48,0.72 0,0.08 0,0.16 0,0.24 -0.72,0 -1.44,0 -2.16,0 z"
         id="path5517" />
      <path
         style="clip-rule:evenodd;fill:#454445;fill-rule:evenodd"
         d="m 264.059,130.138 c 2.555,0.155 4.312,-0.487 6.479,-0.72 -1.089,0.671 -2.956,0.564 -4.32,0.96 -0.72,0 -1.439,0 -2.159,0 0,-0.08 0,-0.16 0,-0.24 z"
         id="path5519" />
      <path
         style="clip-rule:evenodd;fill:#bbbbbb;fill-rule:evenodd"
         d="m 344.458,137.098 c -1.118,-0.882 -2.029,-1.971 -3.12,-2.88 1.328,0.674 2.179,1.822 3.12,2.88 z"
         id="path5521" />
      <path
         style="clip-rule:evenodd;fill:#454445;fill-rule:evenodd"
         d="m 185.338,133.018 c -0.044,-0.204 0.094,-0.227 0.24,-0.24 50.321,0 100.639,0 150.96,0 0.429,0.291 1.396,0.043 1.68,0.48 -50.481,-0.559 -101.998,-0.08 -152.88,-0.24 z"
         id="path5523" />
      <path
         style="clip-rule:evenodd;fill:#090808;fill-rule:evenodd"
         d="m 341.819,134.938 c 0.984,0.855 2.038,1.642 2.64,2.88 -0.551,-0.028 -0.771,-1.603 -1.2,-0.96 0.036,-0.539 -0.982,-1.179 -1.44,-1.92 z"
         id="path5525" />
      <path
         style="clip-rule:evenodd;fill:#090808;fill-rule:evenodd"
         d="m 345.659,148.138 c -0.016,1.104 -0.683,1.558 -0.96,2.4 -1.105,1.214 -2.004,2.636 -3.601,3.36 1.768,-1.592 3.604,-3.115 4.32,-5.76 0.081,0 0.161,0 0.241,0 z"
         id="path5527" />
      <path
         style="clip-rule:evenodd;fill:#090808;fill-rule:evenodd"
         d="m 371.579,518.218 c 1.021,-0.578 1.859,-1.341 2.64,-2.16 -0.472,1.128 -1.404,1.796 -2.64,2.16 z"
         id="path5529" />
      <path
         style="clip-rule:evenodd;fill:#090808;fill-rule:evenodd"
         d="m 150.059,518.218 c -1.479,-0.202 -2.021,-1.339 -2.88,-2.16 0,-0.16 0,-0.32 0,-0.48 0.682,1.158 1.661,2.018 2.88,2.64 z"
         id="path5531" />
      <path
         style="clip-rule:evenodd;fill:#090808;fill-rule:evenodd"
         d="m 181.979,154.378 c -2.196,-1.004 -3.796,-2.604 -4.8,-4.8 1.316,1.804 2.528,3.711 4.8,4.56 0,0.08 0,0.16 0,0.24 z"
         id="path5533" />
      <path
         style="clip-rule:evenodd;fill:#090808;fill-rule:evenodd"
         d="m 182.938,133.498 c -2.711,1.449 -4.832,3.489 -6.24,6.24 0.146,-0.895 0.508,-1.572 0.96,-2.16 0.918,-1.162 2.082,-2.079 3.12,-3.12 0.08,0 0.16,0 0.24,0 0.747,-0.213 1.119,-0.802 1.92,-0.96 z"
         id="path5535" />
      <path
         style="clip-rule:evenodd;fill:#454445;fill-rule:evenodd"
         d="m 341.819,134.938 c -0.526,-0.514 -1.421,-0.66 -1.92,-1.2 0.702,-0.063 0.737,0.542 1.439,0.48 1.091,0.909 2.002,1.998 3.12,2.88 -0.037,0.597 0.377,0.743 0.48,1.2 -0.27,-0.051 -0.374,-0.267 -0.48,-0.48 -0.601,-1.238 -1.655,-2.025 -2.639,-2.88 z"
         id="path5537" />
      <path
         style="clip-rule:evenodd;fill:#bbbbbb;fill-rule:evenodd"
         d="m 177.898,136.858 c 0.592,-0.891 3.09,-3.301 3.12,-2.4 -0.08,0 -0.16,0 -0.24,0 -1.187,0.573 -1.84,1.679 -2.88,2.4 z"
         id="path5539" />
      <path
         style="clip-rule:evenodd;fill:#454445;fill-rule:evenodd"
         d="m 177.898,136.858 c 1.04,-0.721 1.693,-1.827 2.88,-2.4 -1.039,1.042 -2.202,1.958 -3.12,3.12 0.128,-0.193 0.251,-0.39 0.24,-0.72 z"
         id="path5541" />
      <path
         style="clip-rule:evenodd;fill:#454445;fill-rule:evenodd"
         d="m 175.979,142.378 c 0.311,-0.729 0.156,-1.924 0.72,-2.4 -0.501,1.819 -0.546,4.095 -0.48,6.48 -0.233,-0.006 -0.187,-0.293 -0.24,-0.48 0,-1.2 0,-2.4 0,-3.6 z"
         id="path5543" />
      <path
         style="clip-rule:evenodd;fill:#454445;fill-rule:evenodd"
         d="m 345.659,140.458 c 0.397,0.243 0.261,1.02 0.479,1.44 0,0.72 0,1.44 0,2.16 -0.465,-0.895 -0.151,-2.568 -0.479,-3.6 z"
         id="path5545" />
      <path
         style="clip-rule:evenodd;fill:#454445;fill-rule:evenodd"
         d="m 176.458,147.898 c 0.465,0.335 0.358,1.242 0.72,1.68 1.004,2.196 2.604,3.796 4.8,4.8 1.616,2.184 13.097,-0.658 12,2.4 0.197,-2.428 -6.43,-0.657 -8.64,-1.2 -4.681,-0.838 -7.811,-3.228 -8.88,-7.68 z"
         id="path5547" />
      <path
         style="clip-rule:evenodd;fill:#454445;fill-rule:evenodd"
         d="m 341.098,153.898 c 1.597,-0.724 2.495,-2.146 3.601,-3.36 -0.894,1.747 -2.264,3.016 -4.08,3.84 0.05,-0.269 0.266,-0.374 0.479,-0.48 z"
         id="path5549" />
      <path
         style="clip-rule:evenodd;fill:#454445;fill-rule:evenodd"
         d="m 328.378,157.978 c -0.301,-0.562 -0.529,-1.991 -0.24,-2.4 2.573,-0.547 6.151,-0.089 9.12,-0.24 -0.006,0.234 -0.293,0.187 -0.479,0.24 -2.8,0 -5.601,0 -8.4,0 -0.034,0.284 -0.427,0.544 0,0.72 -0.001,0.56 -0.001,1.12 -0.001,1.68 z"
         id="path5551" />
      <path
         style="clip-rule:evenodd;fill:#bbbbbb;fill-rule:evenodd"
         d="m 187.019,155.818 c -0.497,-0.143 -1.577,0.297 -1.68,-0.24 2.21,0.543 8.837,-1.228 8.64,1.2 -0.143,0.497 0.297,1.577 -0.24,1.68 0,-0.8 0,-1.6 0,-2.4 -1.762,-0.558 -4.559,-0.081 -6.72,-0.24 z"
         id="path5553" />
      <path
         style="clip-rule:evenodd;fill:#bbbbbb;fill-rule:evenodd"
         d="m 328.378,156.298 c -0.427,-0.176 -0.034,-0.437 0,-0.72 2.8,0 5.601,0 8.4,0 -0.104,0.537 -1.183,0.097 -1.681,0.24 -2.161,0.159 -4.958,-0.318 -6.72,0.24 10e-4,0.08 10e-4,0.16 10e-4,0.24 z"
         id="path5555" />
      <path
         style="clip-rule:evenodd;fill:#454445;fill-rule:evenodd"
         d="m 328.378,158.218 c 0.08,0 0.16,0 0.24,0 -0.167,1.367 0.406,1.993 0.24,3.36 -0.372,-0.907 -0.468,-2.092 -0.48,-3.36 z"
         id="path5557" />
      <path
         style="clip-rule:evenodd;fill:#454445;fill-rule:evenodd"
         d="m 329.819,169.258 c 0.372,0.907 0.468,2.092 0.479,3.36 -0.372,-0.907 -0.467,-2.092 -0.479,-3.36 z"
         id="path5559" />
      <path
         style="clip-rule:evenodd;fill:#454445;fill-rule:evenodd"
         d="m 330.539,174.778 c 0.373,0.907 0.468,2.092 0.48,3.36 -0.373,-0.907 -0.469,-2.092 -0.48,-3.36 z"
         id="path5561" />
      <path
         style="clip-rule:evenodd;fill:#454445;fill-rule:evenodd"
         d="m 190.619,181.978 c 0.012,-1.268 0.107,-2.453 0.48,-3.36 -0.012,1.268 -0.108,2.453 -0.48,3.36 z"
         id="path5563" />
      <path
         style="clip-rule:evenodd;fill:#454445;fill-rule:evenodd"
         d="m 331.739,183.898 c 0.373,0.907 0.468,2.092 0.479,3.36 -0.372,-0.907 -0.468,-2.091 -0.479,-3.36 z"
         id="path5565" />
      <path
         style="clip-rule:evenodd;fill:#454445;fill-rule:evenodd"
         d="m 332.458,189.418 c 0.373,0.907 0.468,2.092 0.48,3.36 -0.372,-0.907 -0.468,-2.092 -0.48,-3.36 z"
         id="path5567" />
      <path
         style="clip-rule:evenodd;fill:#454445;fill-rule:evenodd"
         d="m 188.938,194.698 c 0.012,-1.268 0.107,-2.453 0.48,-3.36 -0.011,1.268 -0.106,2.453 -0.48,3.36 z"
         id="path5569" />
      <path
         style="clip-rule:evenodd;fill:#454445;fill-rule:evenodd"
         d="m 187.979,201.898 c 0.012,-1.268 0.107,-2.453 0.48,-3.36 -0.012,1.268 -0.107,2.453 -0.48,3.36 z"
         id="path5571" />
      <path
         style="clip-rule:evenodd;fill:#454445;fill-rule:evenodd"
         d="m 187.499,205.498 c 0.012,-1.268 0.107,-2.453 0.48,-3.36 -0.012,1.268 -0.107,2.453 -0.48,3.36 z"
         id="path5573" />
      <path
         style="clip-rule:evenodd;fill:#454445;fill-rule:evenodd"
         d="m 334.378,204.058 c 0.373,0.907 0.469,2.092 0.48,3.36 -0.372,-0.907 -0.468,-2.092 -0.48,-3.36 z"
         id="path5575" />
      <path
         style="clip-rule:evenodd;fill:#454445;fill-rule:evenodd"
         d="m 335.579,213.178 c 0.463,1.538 0.615,3.385 0.72,5.28 -0.463,-1.538 -0.616,-3.385 -0.72,-5.28 z"
         id="path5577" />
      <path
         style="clip-rule:evenodd;fill:#454445;fill-rule:evenodd"
         d="m 185.819,218.218 c 0.012,-1.269 0.107,-2.453 0.48,-3.36 -0.012,1.268 -0.108,2.453 -0.48,3.36 z"
         id="path5579" />
      <path
         style="clip-rule:evenodd;fill:#454445;fill-rule:evenodd"
         d="m 185.338,221.818 c 0.012,-1.268 0.107,-2.453 0.48,-3.36 -0.011,1.268 -0.107,2.453 -0.48,3.36 z"
         id="path5581" />
      <path
         style="clip-rule:evenodd;fill:#454445;fill-rule:evenodd"
         d="m 184.858,225.418 c 0.012,-1.268 0.107,-2.453 0.48,-3.36 -0.011,1.268 -0.107,2.453 -0.48,3.36 z"
         id="path5583" />
      <path
         style="clip-rule:evenodd;fill:#454445;fill-rule:evenodd"
         d="m 337.019,224.218 c 0.372,0.907 0.468,2.092 0.479,3.36 -0.373,-0.907 -0.467,-2.092 -0.479,-3.36 z"
         id="path5585" />
      <path
         style="clip-rule:evenodd;fill:#454445;fill-rule:evenodd"
         d="m 183.898,232.618 c 0.012,-1.268 0.107,-2.453 0.48,-3.36 -0.011,1.268 -0.107,2.453 -0.48,3.36 z"
         id="path5587" />
      <path
         style="clip-rule:evenodd;fill:#454445;fill-rule:evenodd"
         d="m 337.739,229.738 c 0.373,0.907 0.468,2.092 0.479,3.36 -0.372,-0.907 -0.468,-2.092 -0.479,-3.36 z"
         id="path5589" />
      <path
         style="clip-rule:evenodd;fill:#454445;fill-rule:evenodd"
         d="m 338.218,233.338 c 0.373,0.907 0.469,2.092 0.48,3.36 -0.372,-0.907 -0.468,-2.092 -0.48,-3.36 z"
         id="path5591" />
      <path
         style="clip-rule:evenodd;fill:#454445;fill-rule:evenodd"
         d="m 182.699,241.738 c 0.012,-1.269 0.107,-2.453 0.48,-3.36 -0.012,1.268 -0.108,2.453 -0.48,3.36 z"
         id="path5593" />
      <path
         style="clip-rule:evenodd;fill:#454445;fill-rule:evenodd"
         d="m 338.939,238.858 c 0.372,0.907 0.468,2.092 0.479,3.36 -0.373,-0.907 -0.467,-2.092 -0.479,-3.36 z"
         id="path5595" />
      <path
         style="clip-rule:evenodd;fill:#454445;fill-rule:evenodd"
         d="m 182.219,245.338 c 0.012,-1.268 0.107,-2.453 0.48,-3.36 -0.012,1.268 -0.108,2.453 -0.48,3.36 z"
         id="path5597" />
      <path
         style="clip-rule:evenodd;fill:#454445;fill-rule:evenodd"
         d="m 339.659,244.378 c 0.373,0.907 0.468,2.092 0.479,3.36 -0.372,-0.907 -0.468,-2.092 -0.479,-3.36 z"
         id="path5599" />
      <path
         style="clip-rule:evenodd;fill:#454445;fill-rule:evenodd"
         d="m 340.859,253.498 c 0.372,0.907 0.468,2.092 0.479,3.36 -0.373,-0.907 -0.467,-2.092 -0.479,-3.36 z"
         id="path5601" />
      <path
         style="clip-rule:evenodd;fill:#454445;fill-rule:evenodd"
         d="m 180.539,258.058 c 0.012,-1.268 0.107,-2.453 0.48,-3.36 -0.012,1.268 -0.107,2.453 -0.48,3.36 z"
         id="path5603" />
      <path
         style="clip-rule:evenodd;fill:#454445;fill-rule:evenodd"
         d="m 180.059,261.658 c 0.012,-1.268 0.107,-2.453 0.48,-3.359 -0.012,1.267 -0.108,2.452 -0.48,3.359 z"
         id="path5605" />
      <path
         style="clip-rule:evenodd;fill:#454445;fill-rule:evenodd"
         d="m 341.579,259.018 c 0.373,0.907 0.468,2.092 0.48,3.36 -0.373,-0.907 -0.469,-2.092 -0.48,-3.36 z"
         id="path5607" />
      <path
         style="clip-rule:evenodd;fill:#454445;fill-rule:evenodd"
         d="m 179.579,265.258 c 0.012,-1.269 0.107,-2.453 0.48,-3.36 -0.012,1.269 -0.108,2.453 -0.48,3.36 z"
         id="path5609" />
      <path
         style="clip-rule:evenodd;fill:#454445;fill-rule:evenodd"
         d="m 342.298,264.539 c 0.373,0.906 0.469,2.092 0.48,3.359 -0.372,-0.907 -0.468,-2.092 -0.48,-3.359 z"
         id="path5611" />
      <path
         style="clip-rule:evenodd;fill:#454445;fill-rule:evenodd"
         d="m 179.099,268.858 c 0.012,-1.268 0.107,-2.452 0.48,-3.359 -0.012,1.267 -0.108,2.452 -0.48,3.359 z"
         id="path5613" />
      <path
         style="clip-rule:evenodd;fill:#454445;fill-rule:evenodd"
         d="m 342.779,268.138 c 0.372,0.907 0.468,2.092 0.479,3.36 -0.372,-0.907 -0.467,-2.091 -0.479,-3.36 z"
         id="path5615" />
      <path
         style="clip-rule:evenodd;fill:#454445;fill-rule:evenodd"
         d="m 178.619,272.458 c 0.012,-1.269 0.107,-2.453 0.48,-3.36 -0.012,1.269 -0.108,2.453 -0.48,3.36 z"
         id="path5617" />
      <path
         style="clip-rule:evenodd;fill:#454445;fill-rule:evenodd"
         d="m 178.139,276.058 c 0.012,-1.269 0.107,-2.453 0.48,-3.36 -0.012,1.268 -0.108,2.453 -0.48,3.36 z"
         id="path5619" />
      <path
         style="clip-rule:evenodd;fill:#454445;fill-rule:evenodd"
         d="m 343.499,273.658 c 0.373,0.907 0.468,2.092 0.48,3.36 -0.373,-0.907 -0.469,-2.092 -0.48,-3.36 z"
         id="path5621" />
      <path
         style="clip-rule:evenodd;fill:#454445;fill-rule:evenodd"
         d="m 343.979,277.258 c 0.462,1.537 0.614,3.385 0.72,5.28 -0.463,-1.538 -0.616,-3.385 -0.72,-5.28 z"
         id="path5623" />
      <path
         style="clip-rule:evenodd;fill:#454445;fill-rule:evenodd"
         d="m 176.938,285.178 c 0.012,-1.269 0.107,-2.453 0.48,-3.36 -0.011,1.268 -0.106,2.453 -0.48,3.36 z"
         id="path5625" />
      <path
         style="clip-rule:evenodd;fill:#454445;fill-rule:evenodd"
         d="m 176.458,288.778 c 0.012,-1.268 0.107,-2.452 0.48,-3.359 -0.011,1.267 -0.106,2.452 -0.48,3.359 z"
         id="path5627" />
      <path
         style="clip-rule:evenodd;fill:#454445;fill-rule:evenodd"
         d="m 345.418,288.298 c 0.373,0.907 0.469,2.092 0.48,3.359 -0.372,-0.907 -0.468,-2.091 -0.48,-3.359 z"
         id="path5629" />
      <path
         style="clip-rule:evenodd;fill:#454445;fill-rule:evenodd"
         d="m 175.979,292.378 c 0.012,-1.269 0.107,-2.453 0.48,-3.36 -0.012,1.269 -0.107,2.453 -0.48,3.36 z"
         id="path5631" />
      <path
         style="clip-rule:evenodd;fill:#454445;fill-rule:evenodd"
         d="m 175.499,295.978 c 0.012,-1.269 0.107,-2.453 0.48,-3.36 -0.012,1.268 -0.107,2.453 -0.48,3.36 z"
         id="path5633" />
      <path
         style="clip-rule:evenodd;fill:#454445;fill-rule:evenodd"
         d="m 346.138,293.818 c 0.373,0.907 0.469,2.092 0.48,3.36 -0.372,-0.907 -0.467,-2.092 -0.48,-3.36 z"
         id="path5635" />
      <path
         style="clip-rule:evenodd;fill:#454445;fill-rule:evenodd"
         d="m 346.619,297.418 c 0.462,1.537 0.615,3.385 0.72,5.279 -0.463,-1.536 -0.616,-3.384 -0.72,-5.279 z"
         id="path5637" />
      <path
         style="clip-rule:evenodd;fill:#454445;fill-rule:evenodd"
         d="m 174.539,303.178 c 0.012,-1.269 0.107,-2.453 0.48,-3.36 -0.012,1.268 -0.107,2.453 -0.48,3.36 z"
         id="path5639" />
      <path
         style="clip-rule:evenodd;fill:#454445;fill-rule:evenodd"
         d="m 348.059,308.458 c 0.372,0.907 0.468,2.092 0.479,3.359 -0.372,-0.906 -0.467,-2.091 -0.479,-3.359 z"
         id="path5641" />
      <path
         style="clip-rule:evenodd;fill:#454445;fill-rule:evenodd"
         d="m 348.539,312.058 c 0.373,0.907 0.468,2.092 0.48,3.36 -0.373,-0.907 -0.469,-2.091 -0.48,-3.36 z"
         id="path5643" />
      <path
         style="clip-rule:evenodd;fill:#454445;fill-rule:evenodd"
         d="m 172.858,315.898 c 0.012,-1.268 0.107,-2.453 0.48,-3.359 -0.011,1.267 -0.107,2.452 -0.48,3.359 z"
         id="path5645" />
      <path
         style="clip-rule:evenodd;fill:#454445;fill-rule:evenodd"
         d="m 171.898,323.098 c 0.012,-1.269 0.107,-2.453 0.48,-3.36 -0.011,1.268 -0.107,2.453 -0.48,3.36 z"
         id="path5647" />
      <path
         style="clip-rule:evenodd;fill:#454445;fill-rule:evenodd"
         d="m 171.418,326.698 c 0.012,-1.268 0.107,-2.452 0.48,-3.359 -0.011,1.267 -0.106,2.452 -0.48,3.359 z"
         id="path5649" />
      <path
         style="clip-rule:evenodd;fill:#454445;fill-rule:evenodd"
         d="m 350.699,328.618 c 0.373,0.907 0.468,2.092 0.479,3.36 -0.372,-0.907 -0.468,-2.092 -0.479,-3.36 z"
         id="path5651" />
      <path
         style="clip-rule:evenodd;fill:#454445;fill-rule:evenodd"
         d="m 351.178,332.218 c 0.373,0.907 0.469,2.092 0.48,3.359 -0.372,-0.906 -0.468,-2.091 -0.48,-3.359 z"
         id="path5653" />
      <path
         style="clip-rule:evenodd;fill:#454445;fill-rule:evenodd"
         d="m 169.739,339.418 c 0.012,-1.269 0.107,-2.453 0.48,-3.36 -0.012,1.269 -0.108,2.453 -0.48,3.36 z"
         id="path5655" />
      <path
         style="clip-rule:evenodd;fill:#454445;fill-rule:evenodd"
         d="m 351.899,337.738 c 0.372,0.907 0.468,2.092 0.479,3.36 -0.373,-0.907 -0.467,-2.092 -0.479,-3.36 z"
         id="path5657" />
      <path
         style="clip-rule:evenodd;fill:#454445;fill-rule:evenodd"
         d="m 169.259,343.018 c 0.012,-1.269 0.107,-2.453 0.48,-3.36 -0.012,1.268 -0.108,2.453 -0.48,3.36 z"
         id="path5659" />
      <path
         style="clip-rule:evenodd;fill:#454445;fill-rule:evenodd"
         d="m 168.779,346.618 c 0.012,-1.268 0.107,-2.452 0.48,-3.359 -0.012,1.267 -0.108,2.451 -0.48,3.359 z"
         id="path5661" />
      <path
         style="clip-rule:evenodd;fill:#454445;fill-rule:evenodd"
         d="m 352.619,343.258 c 0.373,0.907 0.468,2.092 0.479,3.359 -0.372,-0.907 -0.468,-2.091 -0.479,-3.359 z"
         id="path5663" />
      <path
         style="clip-rule:evenodd;fill:#454445;fill-rule:evenodd"
         d="m 167.579,355.738 c 0.105,-1.895 0.257,-3.742 0.72,-5.279 -0.105,1.894 -0.258,3.742 -0.72,5.279 z"
         id="path5665" />
      <path
         style="clip-rule:evenodd;fill:#454445;fill-rule:evenodd"
         d="m 354.539,357.898 c 0.373,0.907 0.468,2.092 0.48,3.36 -0.373,-0.907 -0.469,-2.091 -0.48,-3.36 z"
         id="path5667" />
      <path
         style="clip-rule:evenodd;fill:#454445;fill-rule:evenodd"
         d="m 166.619,362.938 c 0.012,-1.269 0.107,-2.453 0.48,-3.36 -0.012,1.268 -0.108,2.453 -0.48,3.36 z"
         id="path5669" />
      <path
         style="clip-rule:evenodd;fill:#454445;fill-rule:evenodd"
         d="m 166.139,366.539 c 0.012,-1.269 0.107,-2.453 0.48,-3.36 -0.012,1.267 -0.108,2.452 -0.48,3.36 z"
         id="path5671" />
      <path
         style="clip-rule:evenodd;fill:#454445;fill-rule:evenodd"
         d="m 355.258,363.418 c 0.373,0.907 0.469,2.092 0.48,3.359 -0.372,-0.906 -0.468,-2.091 -0.48,-3.359 z"
         id="path5673" />
      <path
         style="clip-rule:evenodd;fill:#454445;fill-rule:evenodd"
         d="m 355.979,368.938 c 0.372,0.907 0.468,2.092 0.479,3.36 -0.373,-0.907 -0.467,-2.091 -0.479,-3.36 z"
         id="path5675" />
      <path
         style="clip-rule:evenodd;fill:#454445;fill-rule:evenodd"
         d="m 165.179,373.738 c 0.012,-1.268 0.107,-2.452 0.48,-3.359 -0.012,1.267 -0.108,2.452 -0.48,3.359 z"
         id="path5677" />
      <path
         style="clip-rule:evenodd;fill:#454445;fill-rule:evenodd"
         d="m 356.458,372.539 c 0.373,0.906 0.468,2.092 0.48,3.359 -0.372,-0.907 -0.468,-2.092 -0.48,-3.359 z"
         id="path5679" />
      <path
         style="clip-rule:evenodd;fill:#454445;fill-rule:evenodd"
         d="m 163.499,386.458 c 0.012,-1.269 0.107,-2.453 0.48,-3.36 -0.012,1.269 -0.107,2.453 -0.48,3.36 z"
         id="path5681" />
      <path
         style="clip-rule:evenodd;fill:#454445;fill-rule:evenodd"
         d="m 163.019,390.058 c 0.012,-1.269 0.107,-2.453 0.48,-3.36 -0.012,1.268 -0.107,2.453 -0.48,3.36 z"
         id="path5683" />
      <path
         style="clip-rule:evenodd;fill:#454445;fill-rule:evenodd"
         d="m 358.378,387.178 c 0.373,0.907 0.469,2.092 0.48,3.36 -0.372,-0.907 -0.468,-2.092 -0.48,-3.36 z"
         id="path5685" />
      <path
         style="clip-rule:evenodd;fill:#454445;fill-rule:evenodd"
         d="m 359.098,392.698 c 0.373,0.907 0.469,2.092 0.48,3.36 -0.372,-0.907 -0.467,-2.092 -0.48,-3.36 z"
         id="path5687" />
      <path
         style="clip-rule:evenodd;fill:#454445;fill-rule:evenodd"
         d="m 161.579,400.858 c 0.012,-1.268 0.107,-2.452 0.48,-3.359 -0.012,1.267 -0.108,2.452 -0.48,3.359 z"
         id="path5689" />
      <path
         style="clip-rule:evenodd;fill:#454445;fill-rule:evenodd"
         d="m 360.539,403.738 c 0.373,0.907 0.468,2.092 0.48,3.36 -0.373,-0.907 -0.469,-2.092 -0.48,-3.36 z"
         id="path5691" />
      <path
         style="clip-rule:evenodd;fill:#454445;fill-rule:evenodd"
         d="m 160.378,409.978 c 0.012,-1.269 0.107,-2.453 0.48,-3.36 -0.011,1.268 -0.107,2.453 -0.48,3.36 z"
         id="path5693" />
      <path
         style="clip-rule:evenodd;fill:#454445;fill-rule:evenodd"
         d="m 361.019,407.338 c 0.372,0.907 0.468,2.092 0.479,3.359 -0.373,-0.906 -0.467,-2.091 -0.479,-3.359 z"
         id="path5695" />
      <path
         style="clip-rule:evenodd;fill:#454445;fill-rule:evenodd"
         d="m 159.898,413.578 c 0.012,-1.268 0.107,-2.452 0.48,-3.359 -0.011,1.267 -0.107,2.452 -0.48,3.359 z"
         id="path5697" />
      <path
         style="clip-rule:evenodd;fill:#454445;fill-rule:evenodd"
         d="m 361.739,412.858 c 0.373,0.907 0.468,2.092 0.479,3.36 -0.372,-0.907 -0.468,-2.092 -0.479,-3.36 z"
         id="path5699" />
      <path
         style="clip-rule:evenodd;fill:#454445;fill-rule:evenodd"
         d="m 159.418,417.178 c 0.012,-1.269 0.107,-2.453 0.48,-3.36 -0.011,1.268 -0.106,2.453 -0.48,3.36 z"
         id="path5701" />
      <path
         style="clip-rule:evenodd;fill:#454445;fill-rule:evenodd"
         d="m 362.218,416.458 c 0.373,0.907 0.469,2.092 0.48,3.359 -0.372,-0.906 -0.468,-2.091 -0.48,-3.359 z"
         id="path5703" />
      <path
         style="clip-rule:evenodd;fill:#454445;fill-rule:evenodd"
         d="m 158.938,420.778 c 0.012,-1.268 0.107,-2.452 0.48,-3.359 -0.011,1.267 -0.106,2.452 -0.48,3.359 z"
         id="path5705" />
      <path
         style="clip-rule:evenodd;fill:#454445;fill-rule:evenodd"
         d="m 157.259,433.499 c 0.012,-1.269 0.107,-2.453 0.48,-3.36 -0.012,1.268 -0.108,2.452 -0.48,3.36 z"
         id="path5707" />
      <path
         style="clip-rule:evenodd;fill:#454445;fill-rule:evenodd"
         d="m 364.378,433.018 c 0.373,0.907 0.469,2.092 0.48,3.36 -0.372,-0.907 -0.468,-2.091 -0.48,-3.36 z"
         id="path5709" />
      <path
         style="clip-rule:evenodd;fill:#454445;fill-rule:evenodd"
         d="m 156.779,437.098 c 0.012,-1.269 0.107,-2.453 0.48,-3.36 -0.012,1.268 -0.108,2.453 -0.48,3.36 z"
         id="path5711" />
      <path
         style="clip-rule:evenodd;fill:#454445;fill-rule:evenodd"
         d="m 364.859,436.618 c 0.372,0.907 0.468,2.092 0.479,3.36 -0.373,-0.907 -0.467,-2.092 -0.479,-3.36 z"
         id="path5713" />
      <path
         style="clip-rule:evenodd;fill:#454445;fill-rule:evenodd"
         d="m 156.299,440.698 c 0.012,-1.268 0.107,-2.452 0.48,-3.359 -0.012,1.267 -0.108,2.452 -0.48,3.359 z"
         id="path5715" />
      <path
         style="clip-rule:evenodd;fill:#454445;fill-rule:evenodd"
         d="m 155.819,444.298 c 0.012,-1.269 0.107,-2.453 0.48,-3.36 -0.012,1.269 -0.108,2.453 -0.48,3.36 z"
         id="path5717" />
      <path
         style="clip-rule:evenodd;fill:#454445;fill-rule:evenodd"
         d="m 155.338,447.898 c 0.012,-1.268 0.107,-2.453 0.48,-3.359 -0.011,1.267 -0.107,2.452 -0.48,3.359 z"
         id="path5719" />
      <path
         style="clip-rule:evenodd;fill:#454445;fill-rule:evenodd"
         d="m 366.298,447.658 c 0.373,0.907 0.469,2.092 0.48,3.36 -0.372,-0.907 -0.468,-2.092 -0.48,-3.36 z"
         id="path5721" />
      <path
         style="clip-rule:evenodd;fill:#454445;fill-rule:evenodd"
         d="m 154.619,453.418 c 0.105,-1.896 0.257,-3.743 0.72,-5.28 -0.105,1.896 -0.258,3.742 -0.72,5.28 z"
         id="path5723" />
      <path
         style="clip-rule:evenodd;fill:#454445;fill-rule:evenodd"
         d="m 366.779,451.258 c 0.372,0.907 0.468,2.092 0.479,3.359 -0.372,-0.907 -0.467,-2.091 -0.479,-3.359 z"
         id="path5725" />
      <path
         style="clip-rule:evenodd;fill:#454445;fill-rule:evenodd"
         d="m 154.139,457.018 c 0.012,-1.269 0.107,-2.453 0.48,-3.36 -0.012,1.268 -0.108,2.453 -0.48,3.36 z"
         id="path5727" />
      <path
         style="clip-rule:evenodd;fill:#454445;fill-rule:evenodd"
         d="m 367.499,456.778 c 0.373,0.907 0.468,2.092 0.48,3.36 -0.373,-0.907 -0.469,-2.092 -0.48,-3.36 z"
         id="path5729" />
      <path
         style="clip-rule:evenodd;fill:#454445;fill-rule:evenodd"
         d="m 153.659,460.618 c 0.012,-1.268 0.107,-2.452 0.48,-3.359 -0.012,1.267 -0.108,2.451 -0.48,3.359 z"
         id="path5731" />
      <path
         style="clip-rule:evenodd;fill:#454445;fill-rule:evenodd"
         d="m 153.179,464.218 c 0.012,-1.269 0.107,-2.453 0.48,-3.36 -0.012,1.268 -0.108,2.453 -0.48,3.36 z"
         id="path5733" />
      <path
         style="clip-rule:evenodd;fill:#454445;fill-rule:evenodd"
         d="m 368.218,462.298 c 0.373,0.907 0.469,2.092 0.48,3.359 -0.372,-0.907 -0.468,-2.091 -0.48,-3.359 z"
         id="path5735" />
      <path
         style="clip-rule:evenodd;fill:#454445;fill-rule:evenodd"
         d="m 152.699,467.818 c 0.012,-1.268 0.107,-2.452 0.48,-3.359 -0.012,1.267 -0.108,2.452 -0.48,3.359 z"
         id="path5737" />
      <path
         style="clip-rule:evenodd;fill:#454445;fill-rule:evenodd"
         d="m 151.739,475.018 c 0.012,-1.269 0.107,-2.453 0.48,-3.36 -0.012,1.268 -0.108,2.453 -0.48,3.36 z"
         id="path5739" />
      <path
         style="clip-rule:evenodd;fill:#454445;fill-rule:evenodd"
         d="m 369.659,473.338 c 0.373,0.907 0.468,2.092 0.479,3.359 -0.372,-0.906 -0.468,-2.091 -0.479,-3.359 z"
         id="path5741" />
      <path
         style="clip-rule:evenodd;fill:#454445;fill-rule:evenodd"
         d="m 370.138,476.938 c 0.373,0.907 0.469,2.092 0.48,3.36 -0.372,-0.907 -0.467,-2.091 -0.48,-3.36 z"
         id="path5743" />
      <path
         style="clip-rule:evenodd;fill:#454445;fill-rule:evenodd"
         d="m 150.539,484.138 c 0.012,-1.269 0.107,-2.453 0.48,-3.36 -0.012,1.268 -0.107,2.453 -0.48,3.36 z"
         id="path5745" />
      <path
         style="clip-rule:evenodd;fill:#454445;fill-rule:evenodd"
         d="m 370.859,482.458 c 0.372,0.907 0.468,2.092 0.479,3.359 -0.373,-0.906 -0.467,-2.091 -0.479,-3.359 z"
         id="path5747" />
      <path
         style="clip-rule:evenodd;fill:#454445;fill-rule:evenodd"
         d="m 150.059,487.738 c 0.012,-1.268 0.107,-2.452 0.48,-3.359 -0.012,1.267 -0.108,2.452 -0.48,3.359 z"
         id="path5749" />
      <path
         style="clip-rule:evenodd;fill:#454445;fill-rule:evenodd"
         d="m 371.338,486.058 c 0.373,0.907 0.469,2.092 0.48,3.36 -0.372,-0.907 -0.468,-2.091 -0.48,-3.36 z"
         id="path5751" />
      <path
         style="clip-rule:evenodd;fill:#454445;fill-rule:evenodd"
         d="m 149.579,491.338 c 0.012,-1.269 0.107,-2.453 0.48,-3.36 -0.012,1.269 -0.108,2.453 -0.48,3.36 z"
         id="path5753" />
      <path
         style="clip-rule:evenodd;fill:#454445;fill-rule:evenodd"
         d="m 149.099,494.938 c 0.012,-1.269 0.107,-2.453 0.48,-3.36 -0.012,1.268 -0.108,2.453 -0.48,3.36 z"
         id="path5755" />
      <path
         style="clip-rule:evenodd;fill:#454445;fill-rule:evenodd"
         d="m 148.619,498.539 c 0.012,-1.269 0.107,-2.453 0.48,-3.36 -0.012,1.267 -0.108,2.451 -0.48,3.36 z"
         id="path5757" />
      <path
         style="clip-rule:evenodd;fill:#454445;fill-rule:evenodd"
         d="m 372.779,497.098 c 0.372,0.907 0.468,2.092 0.479,3.36 -0.372,-0.907 -0.467,-2.091 -0.479,-3.36 z"
         id="path5759" />
      <path
         style="clip-rule:evenodd;fill:#454445;fill-rule:evenodd"
         d="m 373.499,502.618 c 0.373,0.907 0.468,2.093 0.48,3.36 -0.373,-0.907 -0.469,-2.092 -0.48,-3.36 z"
         id="path5761" />
      <path
         style="clip-rule:evenodd;fill:#454445;fill-rule:evenodd"
         d="m 147.418,507.658 c 0.012,-1.268 0.107,-2.452 0.48,-3.359 -0.011,1.267 -0.106,2.451 -0.48,3.359 z"
         id="path5763" />
      <path
         style="clip-rule:evenodd;fill:#454445;fill-rule:evenodd"
         d="m 373.979,506.218 c 0.462,1.537 0.614,3.385 0.72,5.28 -0.463,-1.538 -0.616,-3.385 -0.72,-5.28 z"
         id="path5765" />
      <path
         style="clip-rule:evenodd;fill:#454445;fill-rule:evenodd"
         d="m 146.938,511.258 c 0.012,-1.269 0.107,-2.453 0.48,-3.36 -0.011,1.269 -0.106,2.453 -0.48,3.36 z"
         id="path5767" />
      <path
         style="clip-rule:evenodd;fill:#454445;fill-rule:evenodd"
         d="m 374.699,511.738 c 0.204,-0.044 0.227,0.094 0.24,0.24 0,1.04 0,2.08 0,3.12 -0.708,1.853 -1.946,3.175 -4.08,3.6 -73.362,0 -146.716,0 -220.08,0 -1.724,-0.356 -2.955,-1.205 -3.6,-2.64 0.858,0.821 1.401,1.958 2.88,2.16 73.284,0.399 148.238,0.399 221.52,0 1.236,-0.364 2.168,-1.032 2.64,-2.16 0.767,-0.833 0.397,-2.803 0.48,-4.32 z"
         id="path5769" />
      <path
         style="clip-rule:evenodd;fill:#e4e4e4;fill-rule:evenodd"
         d="m 339.418,49.978 c -0.031,-0.592 -0.036,-1.156 0.24,-1.44 0.53,-0.03 0.102,-1.018 0.24,-1.44 0.355,-1.073 0.499,2.98 -0.48,2.88 z"
         id="path5771" />
      <path
         style="clip-rule:evenodd;fill:#e4e4e4;fill-rule:evenodd"
         d="m 335.098,155.818 c -1.771,1.189 -7.536,-1.616 -6.479,2.4 -0.08,0 -0.16,0 -0.24,0 0,-0.08 0,-0.16 0,-0.24 0,-0.56 0,-1.12 0,-1.68 0,-0.08 0,-0.16 0,-0.24 1.761,-0.558 4.558,-0.081 6.719,-0.24 z"
         id="path5773" />
      <path
         style="clip-rule:evenodd;fill:#010101;fill-rule:evenodd"
         d="m 259.499,0.298 c 0.88,0 1.76,0 2.64,0 1.704,1.016 3.953,1.487 5.28,2.88 0,0.08 0,0.16 0,0.24 2.841,1.4 5.38,3.101 8.4,4.32 3.984,1.935 7.679,4.161 11.52,6.24 0.106,0.214 0.211,0.429 0.48,0.48 0,0.08 0,0.16 0,0.24 2.066,1.054 4.029,2.21 6.24,3.12 0.733,0.466 1.415,0.985 2.399,1.2 0.067,0.493 0.642,0.479 0.96,0.72 0,0.08 0,0.16 0,0.24 1.869,1.012 3.734,2.025 5.76,2.88 0.734,0.466 1.416,0.985 2.4,1.2 0.106,0.214 0.211,0.429 0.48,0.48 0,0.08 0,0.16 0,0.24 3.057,1.503 5.822,3.297 8.88,4.8 0.079,0 0.159,0 0.239,0 0,0.08 0,0.16 0,0.24 2.841,1.4 5.38,3.101 8.4,4.32 0.08,0 0.16,0 0.24,0 0.106,0.213 0.211,0.429 0.479,0.48 2.567,1.753 5.413,3.227 8.4,4.56 0.315,0.084 0.377,0.422 0.72,0.48 0,0.08 0,0.16 0,0.24 2.137,0.824 3.674,2.246 5.04,3.84 0.757,1.243 1.176,2.824 1.2,4.8 -0.276,0.284 -0.271,0.848 -0.24,1.44 0.102,0.501 -0.164,0.636 -0.24,0.96 -0.97,1.75 -2.33,3.11 -4.08,4.08 -0.501,-0.102 -0.635,0.165 -0.96,0.24 -48.001,0.559 -97.038,0.08 -145.439,0.24 -0.751,-0.289 -1.601,-0.479 -2.4,-0.72 -0.106,-0.214 -0.211,-0.43 -0.48,-0.48 0,-0.08 0,-0.16 0,-0.24 -1.171,-0.75 -1.915,-1.926 -2.64,-3.12 -0.634,-1.126 -0.468,-3.052 -0.48,-4.8 0.187,-0.534 0.504,-0.936 0.48,-1.68 0.324,-0.235 0.479,-0.64 0.72,-0.96 0.08,0 0.16,0 0.24,0 2.486,-3.674 8.581,-5.019 11.28,-7.68 -0.218,0.422 -0.841,0.439 -1.2,0.72 1.76,-1.28 3.962,-2.118 6,-3.12 1.61,-0.703 3.506,-2.154 4.8,-2.4 -0.105,-0.625 2.002,-1.155 3.36,-1.92 1.116,-0.628 2.793,-2.002 0.48,-0.72 1.76,-1.28 3.962,-2.118 6,-3.12 3.144,-1.896 7.603,-3.757 9.84,-5.76 -0.219,0.422 -0.841,0.439 -1.2,0.72 2.406,-1.514 5.073,-2.767 7.68,-4.08 1.185,-0.531 3.832,-2.039 3.84,-2.16 -0.597,-0.037 -0.743,0.377 -1.2,0.48 2.722,-1.758 5.938,-3.022 8.64,-4.8 1.24,-0.44 2.005,-1.355 3.36,-1.68 1.185,-0.531 3.832,-2.039 3.84,-2.16 -0.597,-0.037 -0.743,0.377 -1.2,0.48 3.609,-2.072 7.336,-4.026 11.042,-6 z"
         id="path5775" />
      <path
         style="clip-rule:evenodd;fill:#010101;fill-rule:evenodd"
         d="m 258.059,56.698 c 2.64,0 5.28,0 7.92,0 0.079,0 0.159,0 0.239,0 0.751,0.369 1.858,0.382 2.88,0.48 2.633,0.808 5.768,1.112 7.921,2.4 0.876,0.724 2.109,1.09 3.119,1.68 0.08,0 0.16,0 0.24,0 0.106,0.213 0.211,0.429 0.48,0.48 0,0.08 0,0.16 0,0.24 5.768,3.272 9.933,8.147 13.439,13.68 0,0.08 0,0.16 0,0.24 0.511,0.85 0.795,1.925 1.44,2.64 0.755,1.965 1.735,3.705 2.16,6 0.334,1.905 0.57,3.909 0.96,5.76 0,0.08 0,0.16 0,0.24 0,2 0,4 0,6 0,0.08 0,0.16 0,0.24 -0.368,0.912 -0.399,2.161 -0.48,3.36 -0.292,1.067 -0.619,2.101 -0.72,3.36 -0.573,0.947 -0.83,2.21 -1.2,3.36 0,0.08 0,0.16 0,0.24 -0.08,0 -0.16,0 -0.24,0 -0.765,1.635 -1.625,3.174 -2.399,4.8 0,0.08 0,0.16 0,0.24 -3.606,5.434 -8.14,9.94 -13.681,13.44 -0.079,0 -0.159,0 -0.239,0 -0.85,0.51 -1.926,0.795 -2.641,1.44 -1.941,1.098 -4.407,1.672 -6.72,2.4 -2.167,0.233 -3.925,0.875 -6.479,0.72 -1.36,0 -2.721,0 -4.08,0 -2.556,0.155 -4.313,-0.487 -6.48,-0.72 -0.951,-0.249 -1.699,-0.701 -2.88,-0.72 0,-0.08 0,-0.16 0,-0.24 -0.988,-0.453 -1.96,-0.92 -3.12,-1.2 -0.388,0.067 -0.413,-0.227 -0.72,-0.24 -0.715,-0.645 -1.791,-0.93 -2.64,-1.44 -0.08,0 -0.16,0 -0.24,0 0,-0.08 0,-0.16 0,-0.24 -5.449,-2.871 -9.33,-7.31 -12.96,-12 -0.564,-1.035 -1.362,-1.837 -1.68,-3.12 -0.282,-0.919 -0.572,-1.829 -1.2,-2.4 -1.526,-3.194 -2.311,-7.129 -2.88,-11.28 0,-2.08 0,-4.16 0,-6.24 0,-0.08 0,-0.16 0,-0.24 0.08,0 0.16,0 0.24,0 -0.188,-1.388 0.349,-2.052 0.24,-3.36 0.369,-0.991 0.611,-2.109 0.72,-3.36 0.574,-0.946 0.83,-2.21 1.2,-3.36 0,-0.08 0,-0.16 0,-0.24 3.704,-7.496 8.763,-13.637 15.6,-18 0.08,0 0.16,0 0.24,0 1.332,-0.749 2.882,-1.278 4.08,-2.16 0.511,-0.449 1.528,-0.392 1.92,-0.96 0.744,0.024 1.147,-0.293 1.68,-0.48 1.004,-0.116 1.779,-0.461 2.64,-0.72 1.377,-0.223 2.894,-0.306 4.08,-0.72 0.08,0 0.161,0 0.241,0 z"
         id="path5777" />
      <path
         style="clip-rule:evenodd;fill:#010101;fill-rule:evenodd"
         d="m 185.338,133.018 c 50.882,0.16 102.398,-0.319 152.88,0.24 0.861,-0.142 1.161,0.279 1.681,0.48 0.499,0.54 1.394,0.686 1.92,1.2 0.458,0.741 1.477,1.381 1.439,1.92 0.429,-0.643 0.649,0.932 1.2,0.96 0.106,0.214 0.211,0.43 0.48,0.48 0.18,0.78 0.435,1.485 0.72,2.16 0.328,1.032 0.015,2.705 0.479,3.6 0,0.16 0,0.32 0,0.48 -0.547,0.333 -0.089,1.67 -0.239,2.4 0.076,0.557 -0.039,0.921 -0.24,1.2 -0.08,0 -0.16,0 -0.24,0 -0.716,2.645 -2.553,4.167 -4.32,5.76 -0.213,0.106 -0.429,0.211 -0.479,0.48 -1.182,0.259 -2.242,0.638 -3.36,0.96 -2.969,0.151 -6.547,-0.307 -9.12,0.24 -0.289,0.409 -0.061,1.838 0.24,2.4 0,0.08 0,0.16 0,0.24 0.012,1.268 0.107,2.453 0.48,3.36 0.106,2.773 0.525,5.234 0.96,7.68 0.012,1.268 0.107,2.453 0.479,3.36 0.049,0.751 -0.161,1.762 0.24,2.16 0.012,1.268 0.107,2.453 0.48,3.36 0.035,2.125 0.372,3.948 0.72,5.76 0.012,1.269 0.107,2.453 0.479,3.36 0.05,0.751 -0.161,1.762 0.24,2.16 0.012,1.268 0.107,2.453 0.48,3.36 0.291,3.948 0.839,7.64 1.439,11.28 0.012,1.268 0.107,2.453 0.48,3.36 0.035,2.125 0.372,3.948 0.72,5.76 0.104,1.895 0.258,3.742 0.72,5.28 0.036,2.125 0.373,3.948 0.721,5.76 0.012,1.268 0.106,2.453 0.479,3.36 0.049,0.751 -0.162,1.762 0.24,2.16 0.012,1.268 0.107,2.453 0.479,3.36 0,0.08 0,0.16 0,0.24 0.012,1.269 0.107,2.453 0.48,3.36 0.049,0.751 -0.162,1.762 0.24,2.16 0.012,1.269 0.106,2.453 0.479,3.36 0.049,0.751 -0.162,1.762 0.24,2.16 0.012,1.269 0.107,2.453 0.479,3.36 0.036,2.125 0.373,3.947 0.721,5.76 0.012,1.268 0.106,2.453 0.479,3.36 0.049,0.751 -0.162,1.762 0.24,2.16 0.012,1.268 0.107,2.453 0.48,3.36 0.049,0.751 -0.162,1.762 0.239,2.16 0.012,1.268 0.107,2.452 0.48,3.359 0,0.08 0,0.16 0,0.24 0.012,1.269 0.107,2.453 0.479,3.36 0.049,0.751 -0.161,1.762 0.24,2.159 0.012,1.269 0.107,2.453 0.48,3.36 0,0.08 0,0.16 0,0.24 0.104,1.895 0.257,3.742 0.72,5.28 0.035,2.124 0.372,3.947 0.72,5.76 0.012,1.268 0.107,2.452 0.48,3.359 0.049,0.751 -0.162,1.763 0.239,2.16 0.013,1.269 0.107,2.453 0.48,3.36 0,0.08 0,0.16 0,0.24 0.104,1.895 0.258,3.742 0.72,5.279 0.036,2.125 0.373,3.948 0.721,5.761 0.012,1.268 0.106,2.452 0.479,3.359 0,0.08 0,0.16 0,0.24 0.012,1.269 0.107,2.453 0.48,3.36 0.352,4.607 1.003,8.916 1.68,13.199 0.012,1.269 0.107,2.453 0.479,3.36 0,0.08 0,0.16 0,0.24 0.012,1.268 0.107,2.453 0.48,3.359 0.049,0.751 -0.162,1.763 0.24,2.16 0.012,1.269 0.106,2.453 0.479,3.36 0.049,0.751 -0.162,1.762 0.24,2.16 0.012,1.268 0.107,2.452 0.479,3.359 0.292,3.949 0.84,7.641 1.44,11.28 0.012,1.269 0.107,2.453 0.48,3.36 0.049,0.751 -0.162,1.762 0.239,2.16 0.012,1.268 0.107,2.452 0.48,3.359 0.049,0.751 -0.162,1.762 0.24,2.16 0.012,1.269 0.106,2.453 0.479,3.36 0,0.08 0,0.16 0,0.24 0.012,1.268 0.107,2.452 0.48,3.359 0.291,3.948 0.839,7.641 1.439,11.28 0.012,1.268 0.107,2.453 0.48,3.36 0.049,0.75 -0.162,1.762 0.239,2.159 0.013,1.269 0.107,2.453 0.48,3.36 0.13,2.75 0.536,5.225 0.96,7.68 0.012,1.269 0.107,2.453 0.48,3.36 0,0.08 0,0.16 0,0.24 0.012,1.268 0.106,2.452 0.479,3.359 0.049,0.751 -0.162,1.763 0.24,2.16 0.012,1.269 0.107,2.453 0.479,3.36 0,0.08 0,0.16 0,0.24 0.012,1.268 0.107,2.452 0.48,3.359 0.352,4.608 1.003,8.917 1.68,13.2 0.012,1.269 0.107,2.453 0.48,3.36 0,0.08 0,0.16 0,0.239 0.012,1.269 0.106,2.453 0.479,3.36 0.107,2.773 0.525,5.234 0.96,7.68 0.012,1.269 0.107,2.453 0.48,3.36 0,0.08 0,0.16 0,0.24 0.012,1.268 0.107,2.452 0.479,3.359 0.049,0.751 -0.161,1.763 0.24,2.16 0.012,1.269 0.107,2.453 0.48,3.36 0.049,0.751 -0.162,1.762 0.239,2.16 0.012,1.268 0.107,2.452 0.48,3.359 0.13,2.751 0.535,5.225 0.96,7.681 0.012,1.268 0.107,2.452 0.479,3.359 0,0.08 0,0.16 0,0.24 0.013,1.269 0.107,2.453 0.48,3.36 0.049,0.751 -0.162,1.762 0.24,2.16 0.012,1.268 0.106,2.452 0.479,3.359 0,0.08 0,0.16 0,0.24 0.012,1.269 0.107,2.453 0.48,3.36 0.106,2.772 0.525,5.234 0.96,7.68 0.012,1.269 0.107,2.453 0.479,3.36 0.049,0.75 -0.161,1.762 0.24,2.159 0.012,1.269 0.107,2.453 0.48,3.36 0,0.08 0,0.16 0,0.24 0.104,1.895 0.257,3.742 0.72,5.28 0,0.079 0,0.159 0,0.239 -0.083,1.518 0.287,3.487 -0.48,4.32 -0.78,0.819 -1.618,1.582 -2.64,2.16 -73.282,0.399 -148.236,0.399 -221.52,0 -1.218,-0.622 -2.198,-1.482 -2.88,-2.641 -0.788,-1.262 -0.171,-2.564 -0.24,-4.319 0.373,-0.907 0.468,-2.092 0.48,-3.36 0,-0.08 0,-0.16 0,-0.24 0.373,-0.907 0.468,-2.092 0.48,-3.359 0.348,-1.812 0.685,-3.636 0.72,-5.76 0.373,-0.908 0.468,-2.093 0.48,-3.36 0,-0.08 0,-0.16 0,-0.24 0.373,-0.907 0.468,-2.092 0.48,-3.36 0,-0.08 0,-0.159 0,-0.239 0.373,-0.907 0.468,-2.092 0.48,-3.36 0,-0.08 0,-0.16 0,-0.24 0.373,-0.907 0.468,-2.092 0.48,-3.359 0,-0.08 0,-0.16 0,-0.24 0.373,-0.907 0.468,-2.092 0.48,-3.36 0.348,-1.812 0.685,-3.635 0.72,-5.76 0.373,-0.907 0.468,-2.092 0.48,-3.36 0.325,-1.114 0.506,-2.373 0.48,-3.84 0.373,-0.907 0.468,-2.092 0.48,-3.359 0,-0.08 0,-0.16 0,-0.24 0.373,-0.907 0.468,-2.092 0.48,-3.36 0,-0.08 0,-0.16 0,-0.24 0.373,-0.907 0.468,-2.092 0.48,-3.359 0,-0.08 0,-0.16 0,-0.24 0.373,-0.907 0.468,-2.092 0.48,-3.36 0,-0.08 0,-0.159 0,-0.239 0.462,-1.538 0.615,-3.385 0.72,-5.28 0,-0.08 0,-0.16 0,-0.24 0.373,-0.907 0.468,-2.092 0.48,-3.359 0,-0.08 0,-0.16 0,-0.24 0.373,-0.907 0.468,-2.092 0.48,-3.36 0,-0.08 0,-0.16 0,-0.24 0.373,-0.907 0.468,-2.092 0.48,-3.359 0,-0.08 0,-0.16 0,-0.24 0.373,-0.907 0.468,-2.092 0.48,-3.36 0,-0.08 0,-0.16 0,-0.239 0.373,-0.907 0.468,-2.092 0.48,-3.36 0.503,-3.017 1.005,-6.035 1.2,-9.36 0.373,-0.907 0.468,-2.092 0.48,-3.359 0,-0.08 0,-0.16 0,-0.24 0.373,-0.907 0.468,-2.092 0.48,-3.36 0,-0.08 0,-0.16 0,-0.24 0.373,-0.906 0.468,-2.092 0.48,-3.359 0,-0.08 0,-0.16 0,-0.24 0.373,-0.907 0.468,-2.092 0.48,-3.36 0.348,-1.812 0.685,-3.635 0.72,-5.76 0.373,-0.907 0.468,-2.092 0.48,-3.359 0.459,-2.341 0.836,-4.765 0.96,-7.44 0.373,-0.907 0.468,-2.092 0.48,-3.36 0,-0.08 0,-0.159 0,-0.239 0.373,-0.907 0.468,-2.092 0.48,-3.36 0.503,-3.017 1.005,-6.035 1.2,-9.36 0.373,-0.907 0.468,-2.092 0.48,-3.359 0.325,-1.115 0.506,-2.374 0.48,-3.84 0.373,-0.907 0.468,-2.093 0.48,-3.36 0,-0.08 0,-0.16 0,-0.24 0.373,-0.907 0.468,-2.092 0.48,-3.36 0.318,-1.122 0.448,-2.432 0.48,-3.84 0.462,-1.537 0.615,-3.385 0.72,-5.279 0.325,-1.115 0.506,-2.374 0.48,-3.841 0.373,-0.907 0.468,-2.092 0.48,-3.359 0,-0.08 0,-0.16 0,-0.24 0.373,-0.907 0.468,-2.092 0.48,-3.36 0,-0.08 0,-0.16 0,-0.239 0.373,-0.907 0.468,-2.092 0.48,-3.36 0.503,-3.017 1.005,-6.035 1.2,-9.36 0.373,-0.907 0.468,-2.092 0.48,-3.359 0,-0.08 0,-0.16 0,-0.24 0.373,-0.907 0.468,-2.092 0.48,-3.36 0.325,-1.114 0.507,-2.373 0.48,-3.84 0.373,-0.907 0.468,-2.092 0.48,-3.359 0.504,-3.017 1.005,-6.036 1.2,-9.36 0.373,-0.907 0.468,-2.092 0.48,-3.36 0.325,-1.114 0.506,-2.373 0.48,-3.84 0.373,-0.907 0.468,-2.092 0.48,-3.36 0,-0.08 0,-0.159 0,-0.239 0.373,-0.907 0.468,-2.092 0.48,-3.36 0,-0.08 0,-0.16 0,-0.24 0.373,-0.907 0.468,-2.092 0.48,-3.359 0,-0.08 0,-0.16 0,-0.24 0.373,-0.907 0.468,-2.092 0.48,-3.36 0.348,-1.812 0.685,-3.635 0.72,-5.76 0.373,-0.907 0.468,-2.092 0.48,-3.36 0,-0.08 0,-0.16 0,-0.239 0.373,-0.907 0.468,-2.092 0.48,-3.36 0,-0.08 0,-0.16 0,-0.24 0.373,-0.907 0.468,-2.092 0.48,-3.359 0,-0.08 0,-0.16 0,-0.24 0.373,-0.907 0.468,-2.092 0.48,-3.36 0,-0.08 0,-0.16 0,-0.24 0.373,-0.907 0.468,-2.091 0.48,-3.359 0,-0.08 0,-0.16 0,-0.24 0.373,-0.907 0.468,-2.092 0.48,-3.36 0.503,-3.017 1.005,-6.035 1.2,-9.36 0.373,-0.907 0.468,-2.092 0.48,-3.36 0,-0.08 0,-0.16 0,-0.24 0.373,-0.907 0.468,-2.092 0.48,-3.36 0.348,-1.812 0.685,-3.635 0.72,-5.76 0.373,-0.907 0.468,-2.092 0.48,-3.36 0.325,-1.115 0.507,-2.374 0.48,-3.84 0.373,-0.907 0.468,-2.092 0.48,-3.36 0,-0.08 0,-0.16 0,-0.24 0.373,-0.907 0.468,-2.092 0.48,-3.36 0,-0.08 0,-0.16 0,-0.24 0.373,-0.907 0.468,-2.092 0.48,-3.36 0.503,-3.017 1.004,-6.035 1.2,-9.36 0.373,-0.907 0.468,-2.092 0.48,-3.36 0,-0.08 0,-0.16 0,-0.24 0.373,-0.907 0.468,-2.092 0.48,-3.36 0.325,-1.115 0.506,-2.374 0.48,-3.84 0.373,-0.907 0.468,-2.092 0.48,-3.36 0.503,-3.016 1.005,-6.035 1.2,-9.36 0.373,-0.907 0.468,-2.092 0.48,-3.36 1.02,-6.581 1.942,-13.258 2.64,-20.16 0.537,-0.103 0.097,-1.183 0.24,-1.68 1.097,-3.058 -10.384,-0.217 -12,-2.4 0,-0.08 0,-0.16 0,-0.24 -2.271,-0.849 -3.483,-2.756 -4.8,-4.56 -0.362,-0.438 -0.255,-1.345 -0.72,-1.68 0.032,-0.591 0.037,-1.156 -0.24,-1.44 -0.066,-2.385 -0.021,-4.661 0.48,-6.48 0,-0.08 0,-0.16 0,-0.24 1.408,-2.751 3.529,-4.792 6.24,-6.24 0.674,-0.315 1.356,-0.592 2.423,-0.485 z"
         id="path5779" />
    </g>
  </g>
</svg>
