<?xml version="1.0" encoding="UTF-8" standalone="no"?>
<svg
   xmlns:dc="http://purl.org/dc/elements/1.1/"
   xmlns:cc="http://creativecommons.org/ns#"
   xmlns:rdf="http://www.w3.org/1999/02/22-rdf-syntax-ns#"
   xmlns:svg="http://www.w3.org/2000/svg"
   xmlns="http://www.w3.org/2000/svg"
   id="svg8"
   version="1.1"
   viewBox="0 0 16.933333 16.933333"
   height="64"
   width="64">
  <title
     id="title9790">monastery</title>
  <defs
     id="defs2" />
  <metadata
     id="metadata5">
    <rdf:RDF>
      <cc:Work
         rdf:about="">
        <dc:format>image/svg+xml</dc:format>
        <dc:type
           rdf:resource="http://purl.org/dc/dcmitype/StillImage" />
        <dc:title>monastery</dc:title>
      </cc:Work>
    </rdf:RDF>
  </metadata>
  <g
     transform="translate(0,-280.06667)"
     id="layer1">
    <g
       transform="matrix(0.0264882,0,0,0.0264882,3.4750286,281.61989)"
       id="g10096">
      <path
         style="fill:#cbc9c9"
         d="m 158.171,20.16 c -0.16,47.04 0.32,94.72 -0.24,141.36 0.16,-47.04 -0.32,-94.719 0.24,-141.36 z"
         id="path9915" />
      <path
         d="m 158.411,20.4 c 21.84,0 43.68,0 65.521,0 0.159,41.921 -0.32,84.48 0.239,126 0.062,2.781 -0.422,5.017 -0.239,7.92 -0.397,0.414 -0.397,2.466 0,2.88 -0.045,2.125 0.034,4.125 0.72,5.52 0.041,0.359 -0.086,0.886 0.24,0.96 0.093,0.867 0.318,1.602 0.72,2.16 0.859,2.34 2.056,4.345 3.841,5.76 0.014,0.146 0.035,0.284 0.239,0.24 1.002,1.238 2.2,2.28 3.841,2.88 0.377,0.583 1.021,0.899 1.92,0.96 5.19,2.009 13.916,0.483 20.639,0.96 4.242,0.56 9.521,0.081 14.16,0.24 18.961,0 37.92,0 56.881,0 13.199,0 26.4,0 39.602,0 0,18.8 0,37.6 0,56.4 -41.715,0.033 -84.596,-0.045 -125.521,0 -2.637,0.084 -4.738,0.702 -6.479,1.68 -3.051,1.03 -5.312,2.847 -6.96,5.28 -5.083,4.647 -3.602,15.023 -3.602,25.2 0,7.107 0,14.16 0,20.16 -0.56,10.24 -0.08,21.52 -0.238,32.16 0,26.561 0,53.119 0,79.68 0,34.721 0,69.439 0,104.16 -21.842,0 -43.681,0 -65.521,0 0,-79.438 0,-158.885 0,-238.32 0,-0.8 0,-1.6 0,-2.4 0.096,-4.262 0.729,-9.423 -0.48,-12.96 -0.073,-1.047 -0.25,-1.99 -0.72,-2.64 -0.286,-1.233 -0.604,-2.436 -1.44,-3.12 -0.08,-0.56 -0.246,-1.034 -0.72,-1.2 -0.33,-1.11 -1.095,-1.785 -1.92,-2.4 -0.051,-0.27 -0.266,-0.374 -0.48,-0.48 -0.485,-0.555 -0.797,-1.283 -1.68,-1.44 -0.487,-0.714 -1.204,-1.196 -2.16,-1.44 -0.336,-0.383 -0.827,-0.613 -1.44,-0.72 -0.87,-0.65 -2.002,-1.038 -3.6,-0.96 -0.805,-0.555 -2.636,-0.084 -3.84,-0.24 -11.84,0 -23.68,0 -35.52,0 -9.681,-0.4 -21.04,-0.4 -30.72,0 -17.76,0 -35.52,0 -53.28,0 0,-18.8 0,-37.6 0,-56.4 11.2,0 22.4,0 33.6,0 16.24,0 32.48,0 48.72,0 3.601,-0.16 7.839,0.319 11.04,-0.24 8.95,-0.39 17.813,0.587 25.92,0.24 4.225,-0.096 7.432,-1.208 10.08,-2.88 1.073,-0.448 2.025,-1.015 2.64,-1.92 0.857,-0.263 1.417,-0.823 1.68,-1.68 0.76,-0.52 1.393,-1.168 1.68,-2.16 3.902,-4.928 2.64,-14.906 2.64,-23.52 -0.003,-40.255 -0.003,-85.366 -0.003,-124.32 z"
         id="path9917" />
      <path
         style="fill:#242424"
         d="m 223.932,154.32 c 0,0.88 0,1.76 0,2.64 0,0.08 -10e-4,0.16 0,0.24 -0.399,-0.414 -0.399,-2.466 0,-2.88 z"
         id="path9919" />
      <path
         style="fill:#767473"
         d="m 223.932,154.32 c 0.079,0 0.159,0 0.239,0 0,0.88 0,1.76 0,2.64 -0.08,0 -0.16,0 -0.239,0 0,-0.88 0,-1.76 0,-2.64 z"
         id="path9921" />
      <path
         style="fill:#767473"
         d="m 102.731,176.64 c 3.121,-0.559 7.279,-0.081 10.8,-0.24 0,0.08 0,0.16 0,0.24 -3.6,0 -7.2,0 -10.8,0 z"
         id="path9923" />
      <path
         style="fill:#767473"
         d="m 256.332,176.64 c 0,-0.08 0,-0.16 0,-0.24 4.561,0.16 9.76,-0.319 13.92,0.24 -4.641,0 -9.28,0 -13.92,0 z"
         id="path9925" />
      <path
         style="fill:#767473"
         d="m 327.132,176.64 c 12.799,-0.56 26.639,-0.08 39.84,-0.24 0,0.08 0,0.16 0,0.24 -0.08,0 -0.16,0 -0.24,0 -13.201,0 -26.4,0 -39.6,0 z"
         id="path9927" />
      <path
         style="fill:#424040"
         d="m 54.011,176.88 c 0,-0.08 0,-0.16 0,-0.24 16.24,0 32.48,0 48.72,0 0,0.08 0,0.16 0,0.24 -16.24,0 -32.48,0 -48.72,0 z"
         id="path9929" />
      <path
         style="fill:#242424"
         d="m 102.731,176.88 c 0,-0.08 0,-0.16 0,-0.24 3.6,0 7.2,0 10.8,0 0.08,0 0.16,0 0.24,0 -3.201,0.56 -7.439,0.081 -11.04,0.24 z"
         id="path9931" />
      <path
         style="fill:#242424"
         d="m 256.091,176.64 c 0.08,0 0.16,0 0.24,0 4.641,0 9.279,0 13.92,0 0,0.08 0,0.16 0,0.24 -4.64,-0.159 -9.919,0.32 -14.16,-0.24 z"
         id="path9933" />
      <path
         style="fill:#424040"
         d="m 270.251,176.88 c 0,-0.08 0,-0.16 0,-0.24 18.961,0 37.92,0 56.881,0 0,0.08 0,0.16 0,0.24 -18.961,0 -37.922,0 -56.881,0 z"
         id="path9935" />
      <path
         style="fill:#242424"
         d="m 327.132,176.88 c 0,-0.08 0,-0.16 0,-0.24 13.199,0 26.398,0 39.6,0 0,0.08 0,0.16 0,0.24 -13.201,0 -26.4,0 -39.6,0 z"
         id="path9937" />
      <path
         style="fill:#242424"
         d="m 73.691,233.28 c 9.68,-0.4 21.04,-0.4 30.72,0 -0.08,0 -0.16,0 -0.24,0 -10.16,0 -20.32,0 -30.48,0 z"
         id="path9939" />
      <path
         style="fill:#424040"
         d="m 20.171,233.521 c 0,-0.08 0,-0.16 0,-0.24 0.08,0 0.16,0 0.24,0 17.76,0 35.52,0 53.28,0 0,0.08 0,0.16 0,0.24 -17.84,0 -35.68,0 -53.52,0 z"
         id="path9941" />
      <path
         style="fill:#767473"
         d="m 73.691,233.521 c 0,-0.08 0,-0.16 0,-0.24 10.16,0 20.32,0 30.48,0 0,0.08 0,0.16 0,0.24 -10.16,0 -20.32,0 -30.48,0 z"
         id="path9943" />
      <path
         style="fill:#424040"
         d="m 104.171,233.521 c 0,-0.08 0,-0.16 0,-0.24 0.08,0 0.16,0 0.24,0 11.84,0 23.68,0 35.52,0 0,0.08 0,0.16 0,0.24 -11.92,0 -23.84,0 -35.76,0 z"
         id="path9945" />
      <path
         style="fill:#242424"
         d="m 139.931,233.521 c 0,-0.08 0,-0.16 0,-0.24 1.204,0.156 3.035,-0.314 3.84,0.24 -1.28,0 -2.56,0 -3.84,0 z"
         id="path9947" />
      <path
         style="fill:#767473"
         d="m 143.771,233.76 c -1.204,-0.156 -3.035,0.315 -3.84,-0.24 1.28,0 2.56,0 3.84,0 0,0.081 0,0.161 0,0.24 z"
         id="path9949" />
      <path
         style="fill:#767473"
         d="m 158.171,263.28 c -0.397,-0.259 -0.397,-2.141 0,-2.4 0,0.801 0,1.6 0,2.4 z"
         id="path9951" />
      <path
         style="fill:#242424"
         d="m 158.171,260.88 c 0.08,0 0.16,0 0.24,0 0,0.8 0,1.6 0,2.4 -0.08,0 -0.16,0 -0.24,0 0,-0.8 0,-1.599 0,-2.4 z"
         id="path9953" />
      <path
         style="fill:#424040"
         d="m 158.171,263.28 c 0.08,0 0.16,0 0.24,0 0,79.436 0,158.885 0,238.32 0,0.08 0,0.16 0,0.24 -0.08,0 -0.16,0 -0.24,0 0,-79.515 0,-159.043 0,-238.56 z"
         id="path9955" />
      <path
         style="fill:#242424"
         d="m 224.171,285.601 c 0,0.08 0,0.16 0,0.239 0,10.641 0,21.281 0,31.921 -0.08,0 -0.16,0 -0.239,0 0.159,-10.641 -0.321,-21.921 0.239,-32.16 z"
         id="path9957" />
      <path
         style="fill:#767473"
         d="m 224.171,285.84 c 0.08,0 0.16,0 0.24,0 0,10.561 0,21.121 0,31.681 0,0.08 0,0.16 0,0.239 -0.08,0 -0.16,0 -0.24,0 0,-10.638 0,-21.28 0,-31.92 z"
         id="path9959" />
      <path
         style="fill:#424040"
         d="m 223.932,317.76 c 0.079,0 0.159,0 0.239,0 0,26.562 0,53.121 0,79.682 -0.08,0 -0.16,0 -0.239,0 0,-26.563 0,-53.121 0,-79.682 z"
         id="path9961" />
      <path
         style="fill:#cbc9c9"
         d="m 135.131,176.64 c 9.712,0.272 16.074,-2.806 20.16,-8.16 0.175,0.655 -0.477,0.483 -0.48,0.96 -1.5,1.542 -3.91,3.448 -5.04,4.56 -2.648,1.672 -5.855,2.784 -10.08,2.88 -1.443,-0.157 -3.516,0.316 -4.56,-0.24 z"
         id="path9963" />
      <path
         style="fill:#cbc9c9"
         d="m 148.811,235.2 c 0.502,0.698 1.447,0.953 2.16,1.44 0.882,0.157 1.195,0.885 1.68,1.44 -2.296,-2.014 0.171,0.745 1.2,1.44 0.428,0.452 0.649,1.111 1.2,1.44 0.474,0.166 0.64,0.64 0.72,1.2 0,0.16 0,0.32 0,0.48 -2.704,-3.498 -5.885,-7.928 -10.8,-8.64 -4.77,-0.691 -10.174,-0.24 -15.6,-0.24 -35.248,0 -74.804,0 -109.44,0 -0.4,-18.561 -0.4,-38.799 0,-57.36 37.845,-0.03 77.528,-0.452 114.96,0.24 -6.821,-0.378 -14.194,-0.206 -21.36,-0.24 -3.521,0.159 -7.679,-0.319 -10.8,0.24 -16.24,0 -32.48,0 -48.72,0 -10.8,-0.56 -22.64,-0.08 -33.84,-0.24 -0.4,18.48 -0.4,38.64 0,57.12 17.84,0 35.68,0 53.52,0 10.16,0 20.32,0 30.48,0 11.92,0 23.84,0 35.76,0 0.805,0.555 2.636,0.084 3.84,0.24 1.707,-0.267 2.105,0.775 3.6,0.72 0.613,0.107 1.104,0.337 1.44,0.72 z"
         id="path9965" />
      <path
         style="fill:#cbc9c9"
         d="m 158.171,501.84 c -0.439,-76.588 -0.24,-155.861 -0.24,-233.279 0,-7.881 0.574,-15.688 -0.72,-23.04 0,-0.08 0,-0.16 0,-0.24 0.471,0.65 0.647,1.593 0.72,2.64 0.775,4.099 0.274,8.418 0.24,12.96 -0.397,0.259 -0.397,2.141 0,2.4 0,79.516 0,159.044 0,238.559 z"
         id="path9967" />
      <path
         style="fill:#cbc9c9"
         d="m 158.171,502.081 c 22,0 44,0 66,0 0.399,-34.318 0.399,-70.32 0,-104.641 0,-26.561 0,-53.119 0,-79.68 0.08,0 0.16,0 0.24,0 -0.266,61.546 0.746,123.092 0,184.32 -21.52,0.401 -44.72,0.401 -66.24,0.001 z"
         id="path9969" />
      <path
         style="fill:#cbc9c9"
         d="m 224.412,285.84 c 0.314,-12.965 -0.634,-27.192 0.479,-39.359 -0.716,23.124 0.235,47.917 -0.479,71.04 0,-10.56 0,-21.121 0,-31.681 z"
         id="path9971" />
      <path
         style="fill:#424040"
         d="m 228.492,239.76 c -1.361,2.079 -2.824,4.056 -3.601,6.72 -1.113,12.167 -0.165,26.396 -0.479,39.36 -0.08,0 -0.16,0 -0.24,0 0,-0.08 0,-0.16 0,-0.24 0,-6 0,-13.053 0,-20.16 0,-10.177 -1.482,-20.553 3.601,-25.2 0.314,-0.084 0.375,-0.422 0.719,-0.48 z"
         id="path9973" />
      <path
         style="fill:#cbc9c9"
         d="m 366.972,176.64 c 0.561,18.48 0.08,38 0.24,56.88 -33.705,0.436 -74.039,0.24 -109.44,0.24 -7.96,0 -15.86,-1.012 -21.84,1.2 -3.04,1.125 -5.224,2.751 -7.44,4.8 1.361,-2.319 3.977,-3.384 6.24,-4.8 1.741,-0.978 3.844,-1.596 6.479,-1.68 41.475,0.527 83.896,0.104 125.762,0.24 -0.001,-18.959 -0.001,-37.919 -0.001,-56.88 z"
         id="path9975" />
      <path
         style="fill:#cbc9c9"
         d="m 225.611,165.36 c 2.825,4.916 6.559,10.201 13.2,10.8 10.094,0.911 21.114,-0.262 32.16,0.24 31.31,1.422 65.749,-1.461 95.999,0 -13.199,0.16 -27.039,-0.32 -39.84,0.24 -18.961,0 -37.92,0 -56.881,0 -4.16,-0.559 -9.358,-0.08 -13.92,-0.24 -6.883,-0.317 -15.129,0.729 -20.879,-0.72 -0.503,-0.458 -1.146,-0.774 -1.921,-0.96 -1.64,-0.6 -2.838,-1.642 -3.84,-2.88 3.293,2.806 -3.046,-3.533 -0.239,-0.24 -1.785,-1.415 -2.98,-3.42 -3.841,-5.76 0.002,-0.16 0.002,-0.319 0.002,-0.48 z"
         id="path9977" />
      <path
         style="fill:#cbc9c9"
         d="m 158.171,19.92 c 21.521,-0.4 44.72,-0.399 66.241,0 0.438,33.904 0.239,69.248 0.239,103.92 0,13.475 -0.622,27.791 0.479,39.84 -0.08,0 -0.16,0 -0.239,0 -0.326,-0.074 -0.199,-0.601 -0.24,-0.96 -0.095,-1.986 -0.625,-3.535 -0.479,-5.76 0,-0.88 0,-1.76 0,-2.64 -0.187,-2.986 0.356,-5.243 0.24,-8.16 0,-42 0,-84 0,-126 -21.601,-0.56 -44.24,-0.08 -66.241,-0.24 z"
         id="path9979" />
      <path
         style="fill:#767473"
         d="m 158.171,20.16 c 0,-0.08 0,-0.16 0,-0.24 22.001,0.16 44.64,-0.32 66.241,0.24 0,42 0,84 0,126 -0.08,0 -0.16,0 -0.24,0 0,-38.313 0,-78.45 0,-118.08 0,-2.141 0.389,-7.214 0,-7.68 -0.834,-1.001 -14.521,-0.24 -16.319,-0.24 -16.727,0 -33.119,0 -49.44,0 -0.082,0 -0.162,0 -0.242,0 z"
         id="path9981" />
      <path
         style="fill:#242424"
         d="m 158.411,20.4 c 0,-0.08 0,-0.16 0,-0.24 16.321,0 32.714,0 49.44,0 1.799,0 15.484,-0.761 16.318,0.24 0.39,0.466 0,5.54 0,7.68 0,39.63 0,79.767 0,118.08 0,0.08 0,0.16 0,0.24 -0.56,-41.521 -0.08,-84.08 -0.238,-126 -21.84,0 -43.68,0 -65.52,0 z"
         id="path9983" />
      <path
         style="fill:#242424"
         d="m 233.531,174.72 c 0.773,0.186 1.418,0.502 1.92,0.96 -0.899,-0.061 -1.543,-0.376 -1.92,-0.96 z"
         id="path9985" />
      <path
         style="fill:#424040"
         d="m 366.732,176.88 c 0,-0.08 0,-0.16 0,-0.24 0.078,0 0.158,0 0.238,0 0,18.96 0,37.92 0,56.88 -41.863,-0.136 -84.286,0.287 -125.76,-0.24 40.926,-0.045 83.807,0.033 125.521,0 0.001,-18.8 0.001,-37.6 0.001,-56.4 z"
         id="path9987" />
      <path
         style="fill:#242424"
         d="m 227.771,240.24 c 1.646,-2.433 3.909,-4.25 6.96,-5.28 -2.265,1.416 -4.879,2.481 -6.239,4.8 -0.344,0.058 -0.405,0.396 -0.721,0.48 z"
         id="path9989" />
      <path
         style="fill:#242424"
         d="m 223.932,397.44 c 0.079,0 0.159,0 0.239,0 0,34.801 0,69.602 0,104.4 -21.92,0 -43.84,0 -65.76,0 0,-0.08 0,-0.16 0,-0.24 21.84,0 43.68,0 65.521,0 0,-34.719 0,-69.439 0,-104.16 z"
         id="path9991" />
      <path
         style="fill:#424040"
         d="m 155.771,242.161 c 0.836,0.684 1.154,1.886 1.44,3.12 0,0.08 0,0.16 0,0.24 -0.642,-0.798 -0.858,-2.022 -1.44,-2.88 0,-0.161 0,-0.321 0,-0.48 z"
         id="path9993" />
      <path
         style="fill:#242424"
         d="m 155.051,240.96 c -0.551,-0.329 -0.772,-0.988 -1.2,-1.44 -0.071,-0.489 -0.649,-0.471 -0.72,-0.96 0.825,0.615 1.59,1.29 1.92,2.4 z"
         id="path9995" />
      <path
         style="fill:#242424"
         d="m 148.811,235.2 c 0.956,0.245 1.673,0.727 2.16,1.44 -0.713,-0.487 -1.658,-0.742 -2.16,-1.44 z"
         id="path9997" />
      <path
         style="fill:#242424"
         d="m 20.171,233.28 c 0,-16.001 0,-32.738 0,-49.68 0,-1.807 -0.365,-6.595 0,-6.96 0.532,-0.532 7.561,0 8.64,0 8.591,0 16.991,0 25.2,0 0,0.08 0,0.16 0,0.24 -11.2,0 -22.4,0 -33.6,0 0,18.8 0,37.6 0,56.4 -0.08,0 -0.16,0 -0.24,0 z"
         id="path9999" />
      <path
         style="fill:#767473"
         d="m 152.411,172.08 c -0.615,0.905 -1.567,1.473 -2.64,1.92 1.13,-1.112 3.541,-3.019 5.04,-4.56 -0.071,0.489 -0.649,0.471 -0.72,0.96 -0.661,0.459 -1.221,1.019 -1.68,1.68 z"
         id="path10001" />
      <path
         style="fill:#242424"
         d="m 154.091,170.4 c 0.071,-0.489 0.649,-0.471 0.72,-0.96 0.003,-0.477 0.655,-0.305 0.48,-0.96 0.241,0 0.286,-0.194 0.48,-0.24 -0.288,0.992 -0.92,1.64 -1.68,2.16 z"
         id="path10003" />
      <path
         style="fill:#424040"
         d="m 152.411,172.08 c 0.459,-0.661 1.019,-1.221 1.68,-1.68 -0.263,0.857 -0.823,1.417 -1.68,1.68 z"
         id="path10005" />
      <path
         style="fill:#767473"
         d="m 229.451,171.601 c -2.806,-3.293 3.533,3.045 0.24,0.24 -0.204,0.044 -0.227,-0.094 -0.24,-0.24 z"
         id="path10007" />
      <path
         style="fill:#767473"
         d="m 20.171,233.521 c -0.4,-18.48 -0.4,-38.64 0,-57.12 11.2,0.16 23.04,-0.32 33.84,0.24 -8.209,0 -16.609,0 -25.2,0 -1.08,0 -8.108,-0.532 -8.64,0 -0.365,0.365 0,5.153 0,6.96 0,16.941 0,33.678 0,49.68 0,0.079 0,0.159 0,0.24 z"
         id="path10009" />
      <path
         style="fill:#767473"
         d="m 153.851,239.521 c -1.029,-0.695 -3.497,-3.454 -1.2,-1.44 0.214,0.106 0.429,0.21 0.48,0.48 0.071,0.489 0.649,0.47 0.72,0.96 z"
         id="path10011" />
      <path
         style="fill:#767473"
         d="m 224.171,397.44 c 0.399,34.32 0.399,70.32 0,104.641 -22,0 -44,0 -66,0 0,-0.08 0,-0.16 0,-0.24 0.08,0 0.16,0 0.24,0 21.92,0 43.84,0 65.76,0 0,-34.799 0,-69.6 0,-104.401 z"
         id="path10013" />
      <path
         style="fill:#424040"
         d="m 224.412,146.16 c 0.116,2.917 -0.427,5.174 -0.24,8.16 -0.08,0 -0.16,0 -0.239,0 -0.183,-2.903 0.301,-5.139 0.239,-7.92 0,-0.08 0,-0.16 0,-0.24 0.079,0 0.16,0 0.24,0 z"
         id="path10015" />
      <path
         style="fill:#424040"
         d="m 224.651,162.72 c -0.687,-1.395 -0.765,-3.395 -0.72,-5.52 -0.001,-0.08 0,-0.16 0,-0.24 0.078,0 0.158,0 0.238,0 -0.143,2.225 0.388,3.774 0.482,5.76 z"
         id="path10017" />
      <path
         style="fill:#424040"
         d="m 225.611,165.84 c -0.4,-0.559 -0.627,-1.293 -0.72,-2.16 0.079,0 0.159,0 0.239,0 0.039,0.68 0.439,1 0.479,1.68 0.002,0.161 0.002,0.32 0.002,0.48 z"
         id="path10019" />
      <path
         style="fill:#424040"
         d="m 158.411,20.4 c 0,38.954 0,84.065 0,124.32 0,8.614 1.262,18.592 -2.64,23.521 -0.194,0.046 -0.239,0.241 -0.48,0.24 1.188,-2.012 2.466,-3.935 2.64,-6.96 0.56,-46.641 0.08,-94.32 0.24,-141.36 0.08,0 0.16,0 0.24,0 0,0.079 0,0.159 0,0.239 z"
         id="path10021" />
      <path
         style="fill:#424040"
         d="m 235.451,175.68 c 5.752,1.449 13.998,0.403 20.881,0.72 0,0.08 0,0.16 0,0.24 -0.08,0 -0.16,0 -0.24,0 -6.723,-0.476 -15.449,1.049 -20.641,-0.96 z"
         id="path10023" />
      <path
         style="fill:#424040"
         d="m 139.691,176.88 c -8.107,0.347 -16.97,-0.63 -25.92,-0.24 -0.08,0 -0.16,0 -0.24,0 0,-0.08 0,-0.16 0,-0.24 7.166,0.034 14.539,-0.139 21.36,0.24 0.08,0 0.16,0 0.24,0 1.044,0.556 3.117,0.083 4.56,0.24 z"
         id="path10025" />
      <path
         style="fill:#424040"
         d="m 143.771,233.521 c 1.598,-0.078 2.73,0.31 3.6,0.96 -1.495,0.055 -1.893,-0.987 -3.6,-0.72 0,-0.08 0,-0.16 0,-0.24 z"
         id="path10027" />
      <path
         style="fill:#424040"
         d="m 157.931,247.92 c 1.208,3.537 0.576,8.698 0.48,12.96 -0.08,0 -0.16,0 -0.24,0 0.034,-4.541 0.535,-8.86 -0.24,-12.96 z"
         id="path10029" />
    </g>
  </g>
</svg>
