<?xml version="1.0" encoding="UTF-8" standalone="no"?>
<svg
   xmlns:dc="http://purl.org/dc/elements/1.1/"
   xmlns:cc="http://creativecommons.org/ns#"
   xmlns:rdf="http://www.w3.org/1999/02/22-rdf-syntax-ns#"
   xmlns:svg="http://www.w3.org/2000/svg"
   xmlns="http://www.w3.org/2000/svg"
   id="svg8"
   version="1.1"
   viewBox="0 0 16.933333 16.933333"
   height="64"
   width="64">
  <title
     id="title9790">mount</title>
  <defs
     id="defs2" />
  <metadata
     id="metadata5">
    <rdf:RDF>
      <cc:Work
         rdf:about="">
        <dc:format>image/svg+xml</dc:format>
        <dc:type
           rdf:resource="http://purl.org/dc/dcmitype/StillImage" />
        <dc:title>mount</dc:title>
      </cc:Work>
    </rdf:RDF>
  </metadata>
  <g
     transform="translate(0,-280.06667)"
     id="layer1">
    <g
       transform="matrix(0.0353176,0,0,0.0353176,1.007587,281.80188)"
       id="g11923">
      <path
         style="clip-rule:evenodd;fill:#2e2e2e;fill-rule:evenodd"
         d="m 386.879,364.953 c 11.2,-0.561 23.44,-0.08 35.04,-0.24 -2.249,0.552 -7.593,0.086 -11.04,0.24 -8,0 -16,0 -24,0 z"
         id="path11109" />
      <path
         style="clip-rule:evenodd;fill:#2e2e2e;fill-rule:evenodd"
         d="m 265.44,365.192 c 31.839,-0.56 64.721,-0.08 96.96,-0.239 0,0.079 0,0.159 0,0.239 -8.08,0 -16.16,0 -24.24,0 -16.24,0 -32.479,0 -48.72,0 -8,0 -16,0 -24,0 z"
         id="path11111" />
      <path
         style="clip-rule:evenodd;fill:#666666;fill-rule:evenodd"
         d="m 362.4,365.192 c 0,-0.08 0,-0.16 0,-0.239 8.16,0 16.32,0 24.479,0 8,0 16,0 24,0 0,0.08 0,0.159 0,0.239 -16.16,0 -32.319,0 -48.479,0 z"
         id="path11113" />
      <path
         style="clip-rule:evenodd;fill:#2e2e2e;fill-rule:evenodd"
         d="m 143.76,365.433 c 31.919,-0.56 64.88,-0.08 97.2,-0.24 0,0.08 0,0.16 0,0.24 -8.08,0 -16.16,0 -24.239,0 -16.24,0 -32.48,0 -48.72,0 -8.081,0 -16.161,0 -24.241,0 z"
         id="path11115" />
      <path
         style="clip-rule:evenodd;fill:#666666;fill-rule:evenodd"
         d="m 240.959,365.433 c 0,-0.08 0,-0.16 0,-0.24 8.16,0 16.32,0 24.48,0 8,0 16,0 24,0 0,0.08 0,0.16 0,0.24 -16.159,0 -32.319,0 -48.48,0 z"
         id="path11117" />
      <path
         style="clip-rule:evenodd;fill:#9e9f9e;fill-rule:evenodd"
         d="m 289.44,365.433 c 0,-0.08 0,-0.16 0,-0.24 16.24,0 32.479,0 48.72,0 0,0.08 0,0.16 0,0.24 -8.08,0 -16.16,0 -24.24,0 -8.161,0 -16.32,0 -24.48,0 z"
         id="path11119" />
      <path
         style="clip-rule:evenodd;fill:#d7d7d7;fill-rule:evenodd"
         d="m 338.16,365.433 c 0,-0.08 0,-0.16 0,-0.24 8.08,0 16.16,0 24.24,0 16.16,0 32.319,0 48.479,0 3.841,0 7.681,0 11.521,0 -27.601,0.56 -56.239,0.079 -84.24,0.24 z"
         id="path11121" />
      <path
         style="clip-rule:evenodd;fill:#2e2e2e;fill-rule:evenodd"
         d="m 22.56,365.673 c 31.839,-0.561 64.721,-0.08 96.96,-0.24 0,0.08 0,0.16 0,0.24 -8.08,0 -16.16,0 -24.24,0 -16.24,0 -32.48,0 -48.72,0 -8,0 -16,0 -24,0 z"
         id="path11123" />
      <path
         style="clip-rule:evenodd;fill:#666666;fill-rule:evenodd"
         d="m 119.52,365.673 c 0,-0.08 0,-0.16 0,-0.24 8.08,0 16.16,0 24.24,0 8.08,0 16.16,0 24.24,0 0,0.08 0,0.16 0,0.24 -16.161,0 -32.32,0 -48.48,0 z"
         id="path11125" />
      <path
         style="clip-rule:evenodd;fill:#9e9f9e;fill-rule:evenodd"
         d="m 168,365.673 c 0,-0.08 0,-0.16 0,-0.24 16.24,0 32.48,0 48.72,0 0,0.08 0,0.16 0,0.24 -8.081,0 -16.161,0 -24.24,0 -8.16,0 -16.32,0 -24.48,0 z"
         id="path11127" />
      <path
         style="clip-rule:evenodd;fill:#d7d7d7;fill-rule:evenodd"
         d="m 216.72,365.673 c 0,-0.08 0,-0.16 0,-0.24 8.079,0 16.159,0 24.239,0 16.16,0 32.32,0 48.48,0 8.16,0 16.319,0 24.479,0 -31.918,0.559 -64.878,0.08 -97.198,0.24 z"
         id="path11129" />
      <path
         style="clip-rule:evenodd;fill:#9e9f9e;fill-rule:evenodd"
         d="m 46.56,365.913 c 0,-0.08 0,-0.16 0,-0.24 16.24,0 32.48,0 48.72,0 0,0.08 0,0.16 0,0.24 -8.16,0 -16.32,0 -24.48,0 -8.08,0 -16.16,0 -24.24,0 z"
         id="path11131" />
      <path
         style="clip-rule:evenodd;fill:#d7d7d7;fill-rule:evenodd"
         d="m 95.28,365.913 c 0,-0.08 0,-0.16 0,-0.24 8.08,0 16.16,0 24.24,0 16.16,0 32.319,0 48.48,0 8.16,0 16.32,0 24.48,0 -31.92,0.559 -64.881,0.08 -97.2,0.24 z"
         id="path11133" />
      <path
         style="clip-rule:evenodd;fill:#d7d7d7;fill-rule:evenodd"
         d="m 136.08,129.272 c 0.437,-1.244 0.989,-2.371 1.92,-3.12 0.01,0.33 -0.113,0.527 -0.24,0.72 -0.188,0.932 -0.672,1.568 -1.2,2.16 -0.195,0.046 -0.24,0.241 -0.48,0.24 z"
         id="path11135" />
      <path
         style="clip-rule:evenodd;fill:#d7d7d7;fill-rule:evenodd"
         d="m 70.8,365.913 c -23.04,0.399 -47.76,0.399 -70.8,0 0.106,-0.214 0.21,-0.43 0.48,-0.48 14.604,1.113 31.048,0.164 46.08,0.48 8.08,0 16.16,0 24.24,0 z"
         id="path11137" />
      <path
         style="clip-rule:evenodd;fill:#2e2e2e;fill-rule:evenodd"
         d="m 209.76,1.593 c 0.182,-0.608 0.905,-2.599 1.2,-0.96 -0.731,-0.703 -0.469,0.941 -1.2,0.96 z"
         id="path11139" />
      <path
         style="clip-rule:evenodd;fill:#2e2e2e;fill-rule:evenodd"
         d="m 211.92,2.312 c -0.607,-0.193 -0.613,-0.988 -0.96,-1.44 0.653,0.148 0.941,0.66 0.96,1.44 z"
         id="path11141" />
      <path
         style="clip-rule:evenodd;fill:#2e2e2e;fill-rule:evenodd"
         d="m 212.64,3.752 c 1.222,1.099 1.835,2.805 2.64,4.32 -1.119,-1.2 -1.775,-2.865 -2.64,-4.32 z"
         id="path11143" />
      <path
         style="clip-rule:evenodd;fill:#2e2e2e;fill-rule:evenodd"
         d="m 216.24,9.752 c -0.607,-0.192 -0.612,-0.988 -0.96,-1.44 0.653,0.147 0.94,0.66 0.96,1.44 z"
         id="path11145" />
      <path
         style="clip-rule:evenodd;fill:#2e2e2e;fill-rule:evenodd"
         d="m 218.879,14.312 c -0.606,-0.193 -0.611,-0.988 -0.96,-1.44 0.654,0.148 0.942,0.66 0.96,1.44 z"
         id="path11147" />
      <path
         style="clip-rule:evenodd;fill:#2e2e2e;fill-rule:evenodd"
         d="m 221.52,18.873 c -0.607,-0.193 -0.612,-0.988 -0.96,-1.44 0.652,0.147 0.94,0.659 0.96,1.44 z"
         id="path11149" />
      <path
         style="clip-rule:evenodd;fill:#2e2e2e;fill-rule:evenodd"
         d="m 222.24,20.312 c 1.237,1.083 1.86,2.779 2.64,4.32 -1.12,-1.2 -1.775,-2.865 -2.64,-4.32 z"
         id="path11151" />
      <path
         style="clip-rule:evenodd;fill:#2e2e2e;fill-rule:evenodd"
         d="m 225.839,26.312 c -0.606,-0.193 -0.611,-0.988 -0.96,-1.44 0.654,0.148 0.942,0.66 0.96,1.44 z"
         id="path11153" />
      <path
         style="clip-rule:evenodd;fill:#2e2e2e;fill-rule:evenodd"
         d="m 226.56,27.752 c 0.911,0.769 1.464,1.896 1.92,3.12 -0.862,-0.817 -1.285,-2.075 -1.92,-3.12 z"
         id="path11155" />
      <path
         style="clip-rule:evenodd;fill:#2e2e2e;fill-rule:evenodd"
         d="m 229.2,32.312 c 1.549,1.651 2.451,3.949 3.6,6 -1.446,-1.753 -2.408,-3.991 -3.6,-6 z"
         id="path11157" />
      <path
         style="clip-rule:evenodd;fill:#2e2e2e;fill-rule:evenodd"
         d="m 235.44,42.873 c -0.607,-0.193 -0.612,-0.988 -0.96,-1.44 0.652,0.147 0.94,0.659 0.96,1.44 z"
         id="path11159" />
      <path
         style="clip-rule:evenodd;fill:#2e2e2e;fill-rule:evenodd"
         d="m 237.12,45.752 c -0.607,-0.192 -0.612,-0.988 -0.96,-1.44 0.653,0.147 0.94,0.66 0.96,1.44 z"
         id="path11161" />
      <path
         style="clip-rule:evenodd;fill:#2e2e2e;fill-rule:evenodd"
         d="m 239.76,50.312 c -0.607,-0.193 -0.612,-0.988 -0.961,-1.44 0.654,0.148 0.942,0.66 0.961,1.44 z"
         id="path11163" />
      <path
         style="clip-rule:evenodd;fill:#2e2e2e;fill-rule:evenodd"
         d="m 240.48,51.752 c 0.911,0.769 1.464,1.896 1.92,3.12 -0.862,-0.817 -1.285,-2.075 -1.92,-3.12 z"
         id="path11165" />
      <path
         style="clip-rule:evenodd;fill:#2e2e2e;fill-rule:evenodd"
         d="m 243.12,56.312 c 0.758,0.683 1.348,1.533 1.68,2.64 -0.781,-0.659 -1.153,-1.727 -1.68,-2.64 z"
         id="path11167" />
      <path
         style="clip-rule:evenodd;fill:#2e2e2e;fill-rule:evenodd"
         d="m 244.799,59.193 c 0.912,0.768 1.465,1.896 1.921,3.12 -0.862,-0.818 -1.285,-2.076 -1.921,-3.12 z"
         id="path11169" />
      <path
         style="clip-rule:evenodd;fill:#2e2e2e;fill-rule:evenodd"
         d="m 247.44,63.752 c 0.911,0.769 1.464,1.896 1.92,3.12 -0.862,-0.817 -1.285,-2.075 -1.92,-3.12 z"
         id="path11171" />
      <path
         style="clip-rule:evenodd;fill:#2e2e2e;fill-rule:evenodd"
         d="m 250.08,68.312 c 0.658,0.382 0.966,1.114 1.2,1.92 -0.544,-0.495 -0.853,-1.227 -1.2,-1.92 z"
         id="path11173" />
      <path
         style="clip-rule:evenodd;fill:#2e2e2e;fill-rule:evenodd"
         d="m 251.28,70.473 c 1.075,1.005 1.72,2.44 2.4,3.84 -1.048,-1.033 -1.568,-2.592 -2.4,-3.84 z"
         id="path11175" />
      <path
         style="clip-rule:evenodd;fill:#2e2e2e;fill-rule:evenodd"
         d="m 254.4,75.752 c 1.222,1.099 1.835,2.805 2.64,4.32 -1.12,-1.2 -1.775,-2.865 -2.64,-4.32 z"
         id="path11177" />
      <path
         style="clip-rule:evenodd;fill:#2e2e2e;fill-rule:evenodd"
         d="m 257.04,80.312 c 1.222,1.099 1.835,2.805 2.641,4.32 -1.121,-1.2 -1.775,-2.865 -2.641,-4.32 z"
         id="path11179" />
      <path
         style="clip-rule:evenodd;fill:#2e2e2e;fill-rule:evenodd"
         d="m 260.64,86.312 c -0.607,-0.192 -0.612,-0.988 -0.96,-1.44 0.653,0.148 0.941,0.66 0.96,1.44 z"
         id="path11181" />
      <path
         style="clip-rule:evenodd;fill:#2e2e2e;fill-rule:evenodd"
         d="m 263.28,90.873 c -0.607,-0.193 -0.612,-0.988 -0.96,-1.44 0.653,0.147 0.94,0.659 0.96,1.44 z"
         id="path11183" />
      <path
         style="clip-rule:evenodd;fill:#2e2e2e;fill-rule:evenodd"
         d="m 267.6,98.312 c -0.607,-0.193 -0.612,-0.988 -0.96,-1.44 0.652,0.148 0.941,0.66 0.96,1.44 z"
         id="path11185" />
      <path
         style="clip-rule:evenodd;fill:#2e2e2e;fill-rule:evenodd"
         d="m 269.28,101.193 c -0.78,-0.66 -1.152,-1.728 -1.68,-2.64 1.122,0.318 1.086,1.794 1.68,2.64 z"
         id="path11187" />
      <path
         style="clip-rule:evenodd;fill:#2e2e2e;fill-rule:evenodd"
         d="m 270.24,102.873 c -0.607,-0.193 -0.612,-0.988 -0.96,-1.44 0.653,0.147 0.94,0.659 0.96,1.44 z"
         id="path11189" />
      <path
         style="clip-rule:evenodd;fill:#2e2e2e;fill-rule:evenodd"
         d="m 270.959,104.312 c 1.222,1.099 1.836,2.805 2.641,4.32 -1.12,-1.2 -1.774,-2.865 -2.641,-4.32 z"
         id="path11191" />
      <path
         style="clip-rule:evenodd;fill:#2e2e2e;fill-rule:evenodd"
         d="m 274.56,110.312 c -0.607,-0.193 -0.612,-0.988 -0.96,-1.44 0.652,0.148 0.941,0.66 0.96,1.44 z"
         id="path11193" />
      <path
         style="clip-rule:evenodd;fill:#2e2e2e;fill-rule:evenodd"
         d="m 277.2,114.873 c -0.607,-0.193 -0.612,-0.988 -0.96,-1.44 0.653,0.147 0.94,0.659 0.96,1.44 z"
         id="path11195" />
      <path
         style="clip-rule:evenodd;fill:#2e2e2e;fill-rule:evenodd"
         d="m 277.919,116.312 c 1.237,1.083 1.861,2.779 2.641,4.32 -1.12,-1.2 -1.774,-2.865 -2.641,-4.32 z"
         id="path11197" />
      <path
         style="clip-rule:evenodd;fill:#2e2e2e;fill-rule:evenodd"
         d="m 281.52,122.312 c -0.607,-0.193 -0.612,-0.988 -0.96,-1.44 0.652,0.148 0.94,0.66 0.96,1.44 z"
         id="path11199" />
      <path
         style="clip-rule:evenodd;fill:#2e2e2e;fill-rule:evenodd"
         d="m 282.24,123.752 c 0.912,0.769 1.465,1.896 1.92,3.12 -0.863,-0.817 -1.285,-2.075 -1.92,-3.12 z"
         id="path11201" />
      <path
         style="clip-rule:evenodd;fill:#2e2e2e;fill-rule:evenodd"
         d="m 286.799,131.433 c -0.606,-0.193 -0.611,-0.988 -0.96,-1.44 0.654,0.147 0.942,0.659 0.96,1.44 z"
         id="path11203" />
      <path
         style="clip-rule:evenodd;fill:#2e2e2e;fill-rule:evenodd"
         d="m 288.48,134.312 c -0.607,-0.193 -0.612,-0.988 -0.96,-1.44 0.652,0.148 0.94,0.66 0.96,1.44 z"
         id="path11205" />
      <path
         style="clip-rule:evenodd;fill:#2e2e2e;fill-rule:evenodd"
         d="m 291.12,138.873 c -0.607,-0.193 -0.612,-0.988 -0.96,-1.44 0.653,0.147 0.94,0.659 0.96,1.44 z"
         id="path11207" />
      <path
         style="clip-rule:evenodd;fill:#2e2e2e;fill-rule:evenodd"
         d="m 291.839,140.312 c 0.912,0.769 1.465,1.896 1.921,3.12 -0.863,-0.817 -1.285,-2.075 -1.921,-3.12 z"
         id="path11209" />
      <path
         style="clip-rule:evenodd;fill:#2e2e2e;fill-rule:evenodd"
         d="m 295.44,146.312 c -0.607,-0.192 -0.612,-0.988 -0.96,-1.44 0.652,0.148 0.94,0.66 0.96,1.44 z"
         id="path11211" />
      <path
         style="clip-rule:evenodd;fill:#2e2e2e;fill-rule:evenodd"
         d="m 296.16,147.752 c 0.912,0.769 1.465,1.896 1.92,3.12 -0.863,-0.817 -1.285,-2.075 -1.92,-3.12 z"
         id="path11213" />
      <path
         style="clip-rule:evenodd;fill:#2e2e2e;fill-rule:evenodd"
         d="m 298.799,152.312 c 0.758,0.683 1.348,1.533 1.681,2.64 -0.78,-0.659 -1.153,-1.727 -1.681,-2.64 z"
         id="path11215" />
      <path
         style="clip-rule:evenodd;fill:#2e2e2e;fill-rule:evenodd"
         d="m 300.48,155.193 c 0.854,0.825 1.407,1.953 1.92,3.12 -0.882,-0.799 -1.323,-2.038 -1.92,-3.12 z"
         id="path11217" />
      <path
         style="clip-rule:evenodd;fill:#2e2e2e;fill-rule:evenodd"
         d="m 302.64,159.033 c 1.075,1.005 1.72,2.44 2.399,3.84 -1.046,-1.033 -1.568,-2.592 -2.399,-3.84 z"
         id="path11219" />
      <path
         style="clip-rule:evenodd;fill:#2e2e2e;fill-rule:evenodd"
         d="m 305.76,164.312 c 1.237,1.083 1.86,2.779 2.64,4.32 -1.119,-1.2 -1.775,-2.865 -2.64,-4.32 z"
         id="path11221" />
      <path
         style="clip-rule:evenodd;fill:#2e2e2e;fill-rule:evenodd"
         d="m 309.36,170.312 c -0.607,-0.193 -0.612,-0.988 -0.96,-1.44 0.653,0.148 0.94,0.66 0.96,1.44 z"
         id="path11223" />
      <path
         style="clip-rule:evenodd;fill:#2e2e2e;fill-rule:evenodd"
         d="m 310.08,171.752 c 1.222,1.099 1.835,2.805 2.641,4.32 -1.121,-1.2 -1.776,-2.865 -2.641,-4.32 z"
         id="path11225" />
      <path
         style="clip-rule:evenodd;fill:#2e2e2e;fill-rule:evenodd"
         d="m 312.72,176.312 c 0.864,0.815 1.558,1.802 1.92,3.12 -0.862,-0.817 -1.285,-2.075 -1.92,-3.12 z"
         id="path11227" />
      <path
         style="clip-rule:evenodd;fill:#2e2e2e;fill-rule:evenodd"
         d="m 316.32,182.312 c -0.607,-0.193 -0.612,-0.988 -0.96,-1.44 0.653,0.148 0.94,0.66 0.96,1.44 z"
         id="path11229" />
      <path
         style="clip-rule:evenodd;fill:#2e2e2e;fill-rule:evenodd"
         d="m 318.959,186.873 c -0.606,-0.193 -0.611,-0.988 -0.96,-1.44 0.654,0.147 0.941,0.659 0.96,1.44 z"
         id="path11231" />
      <path
         style="clip-rule:evenodd;fill:#2e2e2e;fill-rule:evenodd"
         d="m 321.6,191.433 c -0.607,-0.193 -0.612,-0.988 -0.96,-1.44 0.652,0.147 0.941,0.659 0.96,1.44 z"
         id="path11233" />
      <path
         style="clip-rule:evenodd;fill:#2e2e2e;fill-rule:evenodd"
         d="m 322.32,192.873 c 1.237,1.083 1.86,2.779 2.64,4.32 -1.12,-1.201 -1.775,-2.866 -2.64,-4.32 z"
         id="path11235" />
      <path
         style="clip-rule:evenodd;fill:#2e2e2e;fill-rule:evenodd"
         d="m 325.919,198.873 c -0.606,-0.193 -0.611,-0.988 -0.96,-1.44 0.654,0.147 0.942,0.659 0.96,1.44 z"
         id="path11237" />
      <path
         style="clip-rule:evenodd;fill:#2e2e2e;fill-rule:evenodd"
         d="m 326.64,200.312 c 0.911,0.769 1.464,1.896 1.92,3.12 -0.862,-0.817 -1.285,-2.075 -1.92,-3.12 z"
         id="path11239" />
      <path
         style="clip-rule:evenodd;fill:#2e2e2e;fill-rule:evenodd"
         d="m 330.24,206.312 c -0.607,-0.193 -0.612,-0.988 -0.96,-1.44 0.653,0.148 0.94,0.66 0.96,1.44 z"
         id="path11241" />
      <path
         style="clip-rule:evenodd;fill:#2e2e2e;fill-rule:evenodd"
         d="m 332.879,210.873 c -0.606,-0.193 -0.611,-0.988 -0.96,-1.44 0.654,0.147 0.942,0.659 0.96,1.44 z"
         id="path11243" />
      <path
         style="clip-rule:evenodd;fill:#2e2e2e;fill-rule:evenodd"
         d="m 333.6,212.312 c 0.865,0.815 1.558,1.803 1.92,3.12 -0.862,-0.817 -1.285,-2.075 -1.92,-3.12 z"
         id="path11245" />
      <path
         style="clip-rule:evenodd;fill:#2e2e2e;fill-rule:evenodd"
         d="m 336.24,216.873 c 0.658,0.382 0.966,1.114 1.2,1.92 -0.544,-0.496 -0.853,-1.228 -1.2,-1.92 z"
         id="path11247" />
      <path
         style="clip-rule:evenodd;fill:#2e2e2e;fill-rule:evenodd"
         d="m 337.44,219.033 c 1.075,1.005 1.72,2.44 2.399,3.84 -1.047,-1.033 -1.567,-2.592 -2.399,-3.84 z"
         id="path11249" />
      <path
         style="clip-rule:evenodd;fill:#2e2e2e;fill-rule:evenodd"
         d="m 342.48,227.433 c -0.607,-0.192 -0.612,-0.988 -0.96,-1.44 0.652,0.147 0.94,0.659 0.96,1.44 z"
         id="path11251" />
      <path
         style="clip-rule:evenodd;fill:#2e2e2e;fill-rule:evenodd"
         d="m 343.2,228.873 c 1.222,1.098 1.835,2.805 2.64,4.319 -1.12,-1.2 -1.775,-2.865 -2.64,-4.319 z"
         id="path11253" />
      <path
         style="clip-rule:evenodd;fill:#2e2e2e;fill-rule:evenodd"
         d="m 346.799,234.873 c -0.606,-0.193 -0.611,-0.988 -0.96,-1.44 0.654,0.147 0.942,0.659 0.96,1.44 z"
         id="path11255" />
      <path
         style="clip-rule:evenodd;fill:#2e2e2e;fill-rule:evenodd"
         d="m 349.44,239.433 c -0.607,-0.192 -0.612,-0.988 -0.96,-1.44 0.652,0.147 0.94,0.659 0.96,1.44 z"
         id="path11257" />
      <path
         style="clip-rule:evenodd;fill:#2e2e2e;fill-rule:evenodd"
         d="m 350.16,240.873 c 1.222,1.098 1.835,2.805 2.64,4.319 -1.12,-1.2 -1.775,-2.865 -2.64,-4.319 z"
         id="path11259" />
      <path
         style="clip-rule:evenodd;fill:#2e2e2e;fill-rule:evenodd"
         d="m 353.76,246.873 c -0.607,-0.193 -0.612,-0.988 -0.961,-1.44 0.654,0.147 0.942,0.659 0.961,1.44 z"
         id="path11261" />
      <path
         style="clip-rule:evenodd;fill:#2e2e2e;fill-rule:evenodd"
         d="m 354.48,248.312 c 0.911,0.769 1.464,1.896 1.92,3.12 -0.862,-0.817 -1.285,-2.075 -1.92,-3.12 z"
         id="path11263" />
      <path
         style="clip-rule:evenodd;fill:#2e2e2e;fill-rule:evenodd"
         d="m 357.12,252.873 c 1.549,1.651 2.451,3.948 3.601,6 -1.447,-1.754 -2.409,-3.992 -3.601,-6 z"
         id="path11265" />
      <path
         style="clip-rule:evenodd;fill:#2e2e2e;fill-rule:evenodd"
         d="m 360.959,259.593 c 1.03,1.05 1.799,2.361 2.4,3.84 -1.046,-1.034 -1.567,-2.592 -2.4,-3.84 z"
         id="path11267" />
      <path
         style="clip-rule:evenodd;fill:#2e2e2e;fill-rule:evenodd"
         d="m 364.08,264.873 c 0.758,0.682 1.348,1.532 1.681,2.64 -0.782,-0.659 -1.154,-1.728 -1.681,-2.64 z"
         id="path11269" />
      <path
         style="clip-rule:evenodd;fill:#2e2e2e;fill-rule:evenodd"
         d="m 365.76,267.753 c 0.911,0.768 1.464,1.896 1.92,3.12 -0.862,-0.818 -1.285,-2.076 -1.92,-3.12 z"
         id="path11271" />
      <path
         style="clip-rule:evenodd;fill:#2e2e2e;fill-rule:evenodd"
         d="m 368.4,272.312 c 0.911,0.769 1.464,1.896 1.92,3.12 -0.862,-0.817 -1.285,-2.075 -1.92,-3.12 z"
         id="path11273" />
      <path
         style="clip-rule:evenodd;fill:#2e2e2e;fill-rule:evenodd"
         d="m 374.64,282.873 c -0.607,-0.193 -0.612,-0.988 -0.96,-1.44 0.653,0.147 0.941,0.659 0.96,1.44 z"
         id="path11275" />
      <path
         style="clip-rule:evenodd;fill:#2e2e2e;fill-rule:evenodd"
         d="m 377.28,287.433 c -0.607,-0.192 -0.612,-0.988 -0.96,-1.44 0.653,0.147 0.94,0.659 0.96,1.44 z"
         id="path11277" />
      <path
         style="clip-rule:evenodd;fill:#2e2e2e;fill-rule:evenodd"
         d="m 378,288.873 c 1.222,1.098 1.835,2.805 2.641,4.319 -1.121,-1.2 -1.775,-2.865 -2.641,-4.319 z"
         id="path11279" />
      <path
         style="clip-rule:evenodd;fill:#2e2e2e;fill-rule:evenodd"
         d="m 381.6,294.873 c -0.607,-0.193 -0.612,-0.988 -0.96,-1.44 0.652,0.147 0.941,0.659 0.96,1.44 z"
         id="path11281" />
      <path
         style="clip-rule:evenodd;fill:#2e2e2e;fill-rule:evenodd"
         d="m 384.24,299.433 c -0.607,-0.192 -0.612,-0.988 -0.96,-1.44 0.653,0.147 0.94,0.659 0.96,1.44 z"
         id="path11283" />
      <path
         style="clip-rule:evenodd;fill:#2e2e2e;fill-rule:evenodd"
         d="m 384.959,300.873 c 1.222,1.098 1.836,2.805 2.641,4.319 -1.12,-1.2 -1.774,-2.865 -2.641,-4.319 z"
         id="path11285" />
      <path
         style="clip-rule:evenodd;fill:#2e2e2e;fill-rule:evenodd"
         d="m 388.56,306.873 c -0.607,-0.193 -0.612,-0.988 -0.96,-1.44 0.652,0.147 0.941,0.659 0.96,1.44 z"
         id="path11287" />
      <path
         style="clip-rule:evenodd;fill:#2e2e2e;fill-rule:evenodd"
         d="m 391.2,311.433 c -0.607,-0.192 -0.612,-0.988 -0.96,-1.44 0.653,0.147 0.94,0.659 0.96,1.44 z"
         id="path11289" />
      <path
         style="clip-rule:evenodd;fill:#2e2e2e;fill-rule:evenodd"
         d="m 391.919,312.873 c 0.912,0.768 1.465,1.896 1.92,3.119 -0.862,-0.817 -1.284,-2.075 -1.92,-3.119 z"
         id="path11291" />
      <path
         style="clip-rule:evenodd;fill:#2e2e2e;fill-rule:evenodd"
         d="m 398.16,323.433 c -0.607,-0.192 -0.612,-0.988 -0.96,-1.44 0.653,0.147 0.94,0.659 0.96,1.44 z"
         id="path11293" />
      <path
         style="clip-rule:evenodd;fill:#2e2e2e;fill-rule:evenodd"
         d="m 398.879,324.873 c 1.222,1.098 1.836,2.805 2.641,4.319 -1.119,-1.2 -1.774,-2.865 -2.641,-4.319 z"
         id="path11295" />
      <path
         style="clip-rule:evenodd;fill:#2e2e2e;fill-rule:evenodd"
         d="m 402.48,330.873 c -0.607,-0.193 -0.612,-0.988 -0.96,-1.44 0.652,0.147 0.94,0.659 0.96,1.44 z"
         id="path11297" />
      <path
         style="clip-rule:evenodd;fill:#2e2e2e;fill-rule:evenodd"
         d="m 405.12,335.433 c -0.607,-0.192 -0.612,-0.988 -0.96,-1.44 0.653,0.147 0.94,0.659 0.96,1.44 z"
         id="path11299" />
      <path
         style="clip-rule:evenodd;fill:#2e2e2e;fill-rule:evenodd"
         d="m 405.839,336.873 c 0.912,0.768 1.465,1.896 1.921,3.119 -0.862,-0.817 -1.285,-2.075 -1.921,-3.119 z"
         id="path11301" />
      <path
         style="clip-rule:evenodd;fill:#2e2e2e;fill-rule:evenodd"
         d="m 409.44,342.873 c -0.607,-0.193 -0.612,-0.988 -0.96,-1.44 0.652,0.147 0.94,0.659 0.96,1.44 z"
         id="path11303" />
      <path
         style="clip-rule:evenodd;fill:#2e2e2e;fill-rule:evenodd"
         d="m 412.08,347.433 c -0.607,-0.192 -0.612,-0.988 -0.96,-1.44 0.653,0.147 0.94,0.659 0.96,1.44 z"
         id="path11305" />
      <path
         style="clip-rule:evenodd;fill:#2e2e2e;fill-rule:evenodd"
         d="m 412.799,348.873 c 0.912,0.768 1.465,1.896 1.921,3.119 -0.862,-0.817 -1.285,-2.075 -1.921,-3.119 z"
         id="path11307" />
      <path
         style="clip-rule:evenodd;fill:#2e2e2e;fill-rule:evenodd"
         d="m 416.64,355.593 c 1.075,1.005 1.72,2.439 2.399,3.84 -1.046,-1.034 -1.568,-2.592 -2.399,-3.84 z"
         id="path11309" />
      <path
         style="clip-rule:evenodd;fill:#2e2e2e;fill-rule:evenodd"
         d="m 421.68,363.992 c -0.607,-0.192 -0.612,-0.987 -0.96,-1.439 0.653,0.146 0.941,0.659 0.96,1.439 z"
         id="path11311" />
      <path
         style="clip-rule:evenodd;fill:#2e2e2e;fill-rule:evenodd"
         d="m 2.16,363.032 c -0.348,0.452 -0.353,1.247 -0.96,1.44 0.019,-0.78 0.307,-1.292 0.96,-1.44 z"
         id="path11313" />
      <path
         style="clip-rule:evenodd;fill:#2e2e2e;fill-rule:evenodd"
         d="m 7.68,353.433 c -0.348,0.452 -0.353,1.247 -0.96,1.44 0.019,-0.781 0.307,-1.293 0.96,-1.44 z"
         id="path11315" />
      <path
         style="clip-rule:evenodd;fill:#2e2e2e;fill-rule:evenodd"
         d="m 8.64,351.753 c -0.348,0.452 -0.353,1.247 -0.96,1.439 0.019,-0.78 0.307,-1.293 0.96,-1.439 z"
         id="path11317" />
      <path
         style="clip-rule:evenodd;fill:#2e2e2e;fill-rule:evenodd"
         d="m 13.2,343.833 c -0.348,0.452 -0.353,1.247 -0.96,1.439 0.019,-0.78 0.307,-1.293 0.96,-1.439 z"
         id="path11319" />
      <path
         style="clip-rule:evenodd;fill:#2e2e2e;fill-rule:evenodd"
         d="m 14.16,342.152 c -0.348,0.452 -0.353,1.247 -0.96,1.44 0.019,-0.78 0.307,-1.292 0.96,-1.44 z"
         id="path11321" />
      <path
         style="clip-rule:evenodd;fill:#2e2e2e;fill-rule:evenodd"
         d="m 18.72,334.232 c -0.348,0.452 -0.353,1.247 -0.96,1.44 0.019,-0.78 0.307,-1.292 0.96,-1.44 z"
         id="path11323" />
      <path
         style="clip-rule:evenodd;fill:#2e2e2e;fill-rule:evenodd"
         d="m 19.68,332.553 c -0.348,0.452 -0.353,1.247 -0.96,1.439 0.019,-0.78 0.307,-1.293 0.96,-1.439 z"
         id="path11325" />
      <path
         style="clip-rule:evenodd;fill:#2e2e2e;fill-rule:evenodd"
         d="m 20.64,330.873 c -0.348,0.451 -0.353,1.247 -0.96,1.439 0.019,-0.78 0.307,-1.292 0.96,-1.439 z"
         id="path11327" />
      <path
         style="clip-rule:evenodd;fill:#2e2e2e;fill-rule:evenodd"
         d="m 25.2,322.953 c -0.348,0.451 -0.353,1.247 -0.96,1.439 0.019,-0.78 0.307,-1.292 0.96,-1.439 z"
         id="path11329" />
      <path
         style="clip-rule:evenodd;fill:#2e2e2e;fill-rule:evenodd"
         d="m 26.16,321.272 c -0.348,0.452 -0.353,1.247 -0.96,1.44 0.019,-0.78 0.307,-1.292 0.96,-1.44 z"
         id="path11331" />
      <path
         style="clip-rule:evenodd;fill:#2e2e2e;fill-rule:evenodd"
         d="m 30.72,313.353 c -0.348,0.452 -0.353,1.247 -0.96,1.44 0.019,-0.781 0.307,-1.293 0.96,-1.44 z"
         id="path11333" />
      <path
         style="clip-rule:evenodd;fill:#2e2e2e;fill-rule:evenodd"
         d="m 31.68,311.673 c -0.348,0.452 -0.353,1.247 -0.96,1.439 0.019,-0.78 0.307,-1.293 0.96,-1.439 z"
         id="path11335" />
      <path
         style="clip-rule:evenodd;fill:#2e2e2e;fill-rule:evenodd"
         d="m 31.68,311.433 c 0.541,-0.899 0.641,-2.239 1.68,-2.64 -0.393,0.967 -1.047,1.673 -1.44,2.64 -0.08,0 -0.16,0 -0.24,0 z"
         id="path11337" />
      <path
         style="clip-rule:evenodd;fill:#2e2e2e;fill-rule:evenodd"
         d="m 34.32,307.112 c -0.348,0.452 -0.353,1.247 -0.96,1.44 0.042,-0.757 0.168,-1.431 0.96,-1.44 z"
         id="path11339" />
      <path
         style="clip-rule:evenodd;fill:#2e2e2e;fill-rule:evenodd"
         d="m 37.2,302.072 c -0.348,0.452 -0.353,1.248 -0.96,1.44 0.019,-0.78 0.307,-1.292 0.96,-1.44 z"
         id="path11341" />
      <path
         style="clip-rule:evenodd;fill:#2e2e2e;fill-rule:evenodd"
         d="m 42.72,292.473 c -0.348,0.452 -0.353,1.247 -0.96,1.44 0.019,-0.781 0.307,-1.293 0.96,-1.44 z"
         id="path11343" />
      <path
         style="clip-rule:evenodd;fill:#2e2e2e;fill-rule:evenodd"
         d="m 48.24,282.873 c -0.348,0.451 -0.353,1.247 -0.96,1.439 0.019,-0.78 0.307,-1.292 0.96,-1.439 z"
         id="path11345" />
      <path
         style="clip-rule:evenodd;fill:#2e2e2e;fill-rule:evenodd"
         d="m 49.2,281.192 c -0.348,0.452 -0.353,1.247 -0.96,1.44 0.019,-0.78 0.307,-1.292 0.96,-1.44 z"
         id="path11347" />
      <path
         style="clip-rule:evenodd;fill:#2e2e2e;fill-rule:evenodd"
         d="m 50.16,279.513 c -0.348,0.452 -0.353,1.247 -0.96,1.44 0.019,-0.781 0.307,-1.293 0.96,-1.44 z"
         id="path11349" />
      <path
         style="clip-rule:evenodd;fill:#2e2e2e;fill-rule:evenodd"
         d="m 54.72,271.593 c -0.348,0.452 -0.353,1.247 -0.96,1.439 0.019,-0.78 0.307,-1.293 0.96,-1.439 z"
         id="path11351" />
      <path
         style="clip-rule:evenodd;fill:#2e2e2e;fill-rule:evenodd"
         d="m 55.68,269.913 c -0.348,0.451 -0.353,1.247 -0.96,1.439 0.019,-0.78 0.307,-1.292 0.96,-1.439 z"
         id="path11353" />
      <path
         style="clip-rule:evenodd;fill:#2e2e2e;fill-rule:evenodd"
         d="m 59.28,263.673 c -0.348,0.452 -0.353,1.247 -0.96,1.439 0.042,-0.757 0.168,-1.43 0.96,-1.439 z"
         id="path11355" />
      <path
         style="clip-rule:evenodd;fill:#2e2e2e;fill-rule:evenodd"
         d="m 61.2,260.312 c -0.348,0.452 -0.353,1.247 -0.96,1.44 0.019,-0.78 0.307,-1.292 0.96,-1.44 z"
         id="path11357" />
      <path
         style="clip-rule:evenodd;fill:#2e2e2e;fill-rule:evenodd"
         d="m 62.16,258.633 c -0.348,0.452 -0.353,1.247 -0.96,1.439 0.019,-0.78 0.307,-1.293 0.96,-1.439 z"
         id="path11359" />
      <path
         style="clip-rule:evenodd;fill:#2e2e2e;fill-rule:evenodd"
         d="m 63.84,255.753 c -0.348,0.452 -0.353,1.247 -0.96,1.439 0.042,-0.756 0.168,-1.43 0.96,-1.439 z"
         id="path11361" />
      <path
         style="clip-rule:evenodd;fill:#2e2e2e;fill-rule:evenodd"
         d="m 66.72,250.713 c -0.348,0.452 -0.353,1.247 -0.96,1.439 0.019,-0.78 0.307,-1.293 0.96,-1.439 z"
         id="path11363" />
      <path
         style="clip-rule:evenodd;fill:#2e2e2e;fill-rule:evenodd"
         d="m 67.68,249.032 c -0.348,0.452 -0.353,1.248 -0.96,1.44 0.019,-0.78 0.307,-1.292 0.96,-1.44 z"
         id="path11365" />
      <path
         style="clip-rule:evenodd;fill:#2e2e2e;fill-rule:evenodd"
         d="m 73.2,239.433 c -0.348,0.452 -0.353,1.247 -0.96,1.44 0.019,-0.781 0.307,-1.293 0.96,-1.44 z"
         id="path11367" />
      <path
         style="clip-rule:evenodd;fill:#2e2e2e;fill-rule:evenodd"
         d="m 74.16,237.753 c -0.348,0.452 -0.353,1.247 -0.96,1.439 0.019,-0.78 0.307,-1.293 0.96,-1.439 z"
         id="path11369" />
      <path
         style="clip-rule:evenodd;fill:#2e2e2e;fill-rule:evenodd"
         d="m 75.84,234.873 c -0.348,0.451 -0.353,1.247 -0.96,1.439 0.042,-0.757 0.168,-1.431 0.96,-1.439 z"
         id="path11371" />
      <path
         style="clip-rule:evenodd;fill:#2e2e2e;fill-rule:evenodd"
         d="m 78.72,229.833 c -0.348,0.452 -0.353,1.247 -0.96,1.439 0.019,-0.78 0.307,-1.293 0.96,-1.439 z"
         id="path11373" />
      <path
         style="clip-rule:evenodd;fill:#2e2e2e;fill-rule:evenodd"
         d="m 79.68,228.152 c -0.348,0.452 -0.353,1.247 -0.96,1.44 0.019,-0.78 0.307,-1.292 0.96,-1.44 z"
         id="path11375" />
      <path
         style="clip-rule:evenodd;fill:#2e2e2e;fill-rule:evenodd"
         d="m 84.24,220.232 c -0.348,0.452 -0.353,1.248 -0.96,1.44 0.019,-0.78 0.307,-1.292 0.96,-1.44 z"
         id="path11377" />
      <path
         style="clip-rule:evenodd;fill:#2e2e2e;fill-rule:evenodd"
         d="m 85.2,218.553 c -0.348,0.452 -0.353,1.247 -0.96,1.44 0.019,-0.781 0.307,-1.293 0.96,-1.44 z"
         id="path11379" />
      <path
         style="clip-rule:evenodd;fill:#2e2e2e;fill-rule:evenodd"
         d="m 87.84,213.993 c -0.348,0.452 -0.353,1.247 -0.96,1.44 0.042,-0.758 0.168,-1.432 0.96,-1.44 z"
         id="path11381" />
      <path
         style="clip-rule:evenodd;fill:#2e2e2e;fill-rule:evenodd"
         d="m 88.8,212.312 c -0.348,0.452 -0.353,1.247 -0.96,1.44 0.019,-0.78 0.307,-1.293 0.96,-1.44 z"
         id="path11383" />
      <path
         style="clip-rule:evenodd;fill:#2e2e2e;fill-rule:evenodd"
         d="m 89.76,210.633 c -0.348,0.452 -0.353,1.247 -0.96,1.44 0.042,-0.758 0.168,-1.432 0.96,-1.44 z"
         id="path11385" />
      <path
         style="clip-rule:evenodd;fill:#2e2e2e;fill-rule:evenodd"
         d="m 90.72,208.953 c -0.348,0.452 -0.353,1.247 -0.96,1.44 0.019,-0.781 0.307,-1.293 0.96,-1.44 z"
         id="path11387" />
      <path
         style="clip-rule:evenodd;fill:#2e2e2e;fill-rule:evenodd"
         d="m 91.68,207.272 c -0.348,0.452 -0.353,1.248 -0.96,1.44 0.019,-0.78 0.307,-1.293 0.96,-1.44 z"
         id="path11389" />
      <path
         style="clip-rule:evenodd;fill:#2e2e2e;fill-rule:evenodd"
         d="m 92.64,205.593 c -0.348,0.452 -0.353,1.247 -0.96,1.44 0.019,-0.781 0.307,-1.293 0.96,-1.44 z"
         id="path11391" />
      <path
         style="clip-rule:evenodd;fill:#2e2e2e;fill-rule:evenodd"
         d="m 96.24,199.353 c -0.348,0.452 -0.353,1.247 -0.96,1.44 0.019,-0.781 0.307,-1.293 0.96,-1.44 z"
         id="path11393" />
      <path
         style="clip-rule:evenodd;fill:#2e2e2e;fill-rule:evenodd"
         d="m 97.2,197.673 c -0.348,0.452 -0.353,1.247 -0.96,1.44 0.019,-0.781 0.307,-1.293 0.96,-1.44 z"
         id="path11395" />
      <path
         style="clip-rule:evenodd;fill:#2e2e2e;fill-rule:evenodd"
         d="m 102.72,188.073 c -0.348,0.452 -0.353,1.247 -0.96,1.44 0.019,-0.781 0.307,-1.293 0.96,-1.44 z"
         id="path11397" />
      <path
         style="clip-rule:evenodd;fill:#2e2e2e;fill-rule:evenodd"
         d="m 103.68,186.393 c -0.348,0.452 -0.353,1.247 -0.96,1.44 0.019,-0.781 0.307,-1.293 0.96,-1.44 z"
         id="path11399" />
      <path
         style="clip-rule:evenodd;fill:#2e2e2e;fill-rule:evenodd"
         d="m 108.24,178.473 c -0.348,0.452 -0.353,1.247 -0.96,1.44 0.019,-0.781 0.307,-1.293 0.96,-1.44 z"
         id="path11401" />
      <path
         style="clip-rule:evenodd;fill:#2e2e2e;fill-rule:evenodd"
         d="m 109.2,176.792 c -0.348,0.452 -0.353,1.248 -0.96,1.44 0.019,-0.78 0.307,-1.293 0.96,-1.44 z"
         id="path11403" />
      <path
         style="clip-rule:evenodd;fill:#2e2e2e;fill-rule:evenodd"
         d="m 114.72,167.193 c -0.348,0.452 -0.353,1.247 -0.96,1.44 0.019,-0.781 0.307,-1.293 0.96,-1.44 z"
         id="path11405" />
      <path
         style="clip-rule:evenodd;fill:#2e2e2e;fill-rule:evenodd"
         d="m 115.68,165.513 c -0.348,0.452 -0.353,1.247 -0.96,1.44 0.019,-0.781 0.307,-1.293 0.96,-1.44 z"
         id="path11407" />
      <path
         style="clip-rule:evenodd;fill:#2e2e2e;fill-rule:evenodd"
         d="m 117.36,162.633 c -0.348,0.452 -0.353,1.247 -0.96,1.44 0.042,-0.758 0.168,-1.432 0.96,-1.44 z"
         id="path11409" />
      <path
         style="clip-rule:evenodd;fill:#2e2e2e;fill-rule:evenodd"
         d="m 121.2,155.913 c -0.348,0.452 -0.353,1.247 -0.96,1.44 0.019,-0.781 0.307,-1.293 0.96,-1.44 z"
         id="path11411" />
      <path
         style="clip-rule:evenodd;fill:#2e2e2e;fill-rule:evenodd"
         d="m 122.88,153.033 c -0.348,0.452 -0.353,1.247 -0.96,1.44 0.042,-0.758 0.168,-1.432 0.96,-1.44 z"
         id="path11413" />
      <path
         style="clip-rule:evenodd;fill:#2e2e2e;fill-rule:evenodd"
         d="m 125.76,147.993 c -0.348,0.452 -0.353,1.247 -0.96,1.44 0.019,-0.781 0.307,-1.293 0.96,-1.44 z"
         id="path11415" />
      <path
         style="clip-rule:evenodd;fill:#2e2e2e;fill-rule:evenodd"
         d="m 126.72,146.312 c -0.348,0.452 -0.353,1.247 -0.96,1.44 0.019,-0.78 0.307,-1.293 0.96,-1.44 z"
         id="path11417" />
      <path
         style="clip-rule:evenodd;fill:#2e2e2e;fill-rule:evenodd"
         d="m 127.68,144.633 c -0.348,0.452 -0.353,1.247 -0.96,1.44 0.019,-0.781 0.307,-1.293 0.96,-1.44 z"
         id="path11419" />
      <path
         style="clip-rule:evenodd;fill:#2e2e2e;fill-rule:evenodd"
         d="m 133.2,135.033 c -0.348,0.452 -0.353,1.247 -0.96,1.44 0.019,-0.781 0.307,-1.293 0.96,-1.44 z"
         id="path11421" />
      <path
         style="clip-rule:evenodd;fill:#2e2e2e;fill-rule:evenodd"
         d="m 136.56,129.033 c -0.304,0.976 -0.775,1.785 -1.44,2.4 0.405,-0.635 0.555,-1.525 0.96,-2.16 0.24,0 0.285,-0.195 0.48,-0.24 z"
         id="path11423" />
      <path
         style="clip-rule:evenodd;fill:#2e2e2e;fill-rule:evenodd"
         d="m 139.68,123.752 c -0.635,1.045 -1.058,2.303 -1.92,3.12 0.127,-0.193 0.25,-0.39 0.24,-0.72 0.557,-0.802 0.656,-2.064 1.68,-2.4 z"
         id="path11425" />
      <path
         style="clip-rule:evenodd;fill:#2e2e2e;fill-rule:evenodd"
         d="m 141.36,120.873 c -0.348,0.452 -0.353,1.247 -0.96,1.44 0.042,-0.758 0.168,-1.432 0.96,-1.44 z"
         id="path11427" />
      <path
         style="clip-rule:evenodd;fill:#2e2e2e;fill-rule:evenodd"
         d="m 144.24,115.833 c -0.348,0.452 -0.353,1.248 -0.96,1.44 0.019,-0.781 0.307,-1.294 0.96,-1.44 z"
         id="path11429" />
      <path
         style="clip-rule:evenodd;fill:#2e2e2e;fill-rule:evenodd"
         d="m 145.2,114.153 c -0.348,0.452 -0.353,1.247 -0.96,1.44 0.019,-0.781 0.307,-1.293 0.96,-1.44 z"
         id="path11431" />
      <path
         style="clip-rule:evenodd;fill:#2e2e2e;fill-rule:evenodd"
         d="m 149.76,106.232 c -0.348,0.452 -0.353,1.248 -0.96,1.44 0.019,-0.78 0.307,-1.292 0.96,-1.44 z"
         id="path11433" />
      <path
         style="clip-rule:evenodd;fill:#2e2e2e;fill-rule:evenodd"
         d="m 150.72,104.553 c -0.348,0.452 -0.353,1.247 -0.96,1.44 0.019,-0.781 0.307,-1.293 0.96,-1.44 z"
         id="path11435" />
      <path
         style="clip-rule:evenodd;fill:#2e2e2e;fill-rule:evenodd"
         d="m 156.24,94.953 c -0.348,0.452 -0.353,1.247 -0.96,1.44 0.019,-0.781 0.307,-1.293 0.96,-1.44 z"
         id="path11437" />
      <path
         style="clip-rule:evenodd;fill:#2e2e2e;fill-rule:evenodd"
         d="m 157.2,93.272 c -0.348,0.452 -0.353,1.248 -0.96,1.44 0.019,-0.78 0.307,-1.292 0.96,-1.44 z"
         id="path11439" />
      <path
         style="clip-rule:evenodd;fill:#2e2e2e;fill-rule:evenodd"
         d="m 158.88,90.393 c -0.348,0.452 -0.353,1.247 -0.96,1.44 0.042,-0.758 0.168,-1.432 0.96,-1.44 z"
         id="path11441" />
      <path
         style="clip-rule:evenodd;fill:#2e2e2e;fill-rule:evenodd"
         d="m 162.72,83.673 c -0.348,0.452 -0.353,1.247 -0.96,1.44 0.019,-0.781 0.307,-1.293 0.96,-1.44 z"
         id="path11443" />
      <path
         style="clip-rule:evenodd;fill:#2e2e2e;fill-rule:evenodd"
         d="m 163.68,81.993 c -0.348,0.452 -0.353,1.247 -0.96,1.44 0.019,-0.781 0.307,-1.293 0.96,-1.44 z"
         id="path11445" />
      <path
         style="clip-rule:evenodd;fill:#2e2e2e;fill-rule:evenodd"
         d="m 165.36,79.113 c -0.348,0.452 -0.353,1.247 -0.96,1.44 0.042,-0.758 0.168,-1.432 0.96,-1.44 z"
         id="path11447" />
      <path
         style="clip-rule:evenodd;fill:#2e2e2e;fill-rule:evenodd"
         d="m 168.24,74.073 c -0.348,0.452 -0.353,1.247 -0.96,1.44 0.019,-0.781 0.307,-1.293 0.96,-1.44 z"
         id="path11449" />
      <path
         style="clip-rule:evenodd;fill:#2e2e2e;fill-rule:evenodd"
         d="m 169.2,72.393 c -0.348,0.452 -0.353,1.247 -0.96,1.44 0.019,-0.781 0.307,-1.293 0.96,-1.44 z"
         id="path11451" />
      <path
         style="clip-rule:evenodd;fill:#2e2e2e;fill-rule:evenodd"
         d="m 173.76,64.473 c -0.348,0.452 -0.353,1.247 -0.96,1.44 0.019,-0.781 0.307,-1.293 0.96,-1.44 z"
         id="path11453" />
      <path
         style="clip-rule:evenodd;fill:#2e2e2e;fill-rule:evenodd"
         d="m 174.72,62.792 c -0.348,0.452 -0.353,1.248 -0.96,1.44 0.019,-0.78 0.307,-1.293 0.96,-1.44 z"
         id="path11455" />
      <path
         style="clip-rule:evenodd;fill:#2e2e2e;fill-rule:evenodd"
         d="m 179.28,54.873 c -0.348,0.452 -0.353,1.247 -0.96,1.44 0.019,-0.781 0.307,-1.293 0.96,-1.44 z"
         id="path11457" />
      <path
         style="clip-rule:evenodd;fill:#2e2e2e;fill-rule:evenodd"
         d="m 180.24,53.193 c -0.348,0.452 -0.353,1.247 -0.96,1.44 0.019,-0.781 0.307,-1.293 0.96,-1.44 z"
         id="path11459" />
      <path
         style="clip-rule:evenodd;fill:#2e2e2e;fill-rule:evenodd"
         d="m 181.2,51.513 c -0.348,0.452 -0.353,1.247 -0.96,1.44 0.019,-0.781 0.307,-1.293 0.96,-1.44 z"
         id="path11461" />
      <path
         style="clip-rule:evenodd;fill:#2e2e2e;fill-rule:evenodd"
         d="m 184.8,45.272 c -0.348,0.452 -0.353,1.248 -0.96,1.44 0.019,-0.78 0.307,-1.293 0.96,-1.44 z"
         id="path11463" />
      <path
         style="clip-rule:evenodd;fill:#2e2e2e;fill-rule:evenodd"
         d="m 185.76,43.593 c -0.348,0.452 -0.353,1.247 -0.96,1.44 0.019,-0.781 0.307,-1.293 0.96,-1.44 z"
         id="path11465" />
      <path
         style="clip-rule:evenodd;fill:#2e2e2e;fill-rule:evenodd"
         d="m 186.72,41.913 c -0.348,0.452 -0.353,1.247 -0.96,1.44 0.019,-0.781 0.307,-1.293 0.96,-1.44 z"
         id="path11467" />
      <path
         style="clip-rule:evenodd;fill:#2e2e2e;fill-rule:evenodd"
         d="m 191.28,33.993 c -0.348,0.452 -0.353,1.247 -0.96,1.44 0.019,-0.781 0.307,-1.293 0.96,-1.44 z"
         id="path11469" />
      <path
         style="clip-rule:evenodd;fill:#2e2e2e;fill-rule:evenodd"
         d="m 192.24,32.312 c -0.348,0.452 -0.353,1.248 -0.96,1.44 0.019,-0.78 0.307,-1.293 0.96,-1.44 z"
         id="path11471" />
      <path
         style="clip-rule:evenodd;fill:#2e2e2e;fill-rule:evenodd"
         d="m 193.92,29.433 c -0.348,0.452 -0.353,1.247 -0.96,1.44 0.042,-0.758 0.168,-1.432 0.96,-1.44 z"
         id="path11473" />
      <path
         style="clip-rule:evenodd;fill:#2e2e2e;fill-rule:evenodd"
         d="m 197.76,22.713 c -0.348,0.452 -0.353,1.247 -0.96,1.44 0.019,-0.781 0.307,-1.293 0.96,-1.44 z"
         id="path11475" />
      <path
         style="clip-rule:evenodd;fill:#2e2e2e;fill-rule:evenodd"
         d="m 198.72,21.033 c -0.348,0.452 -0.353,1.247 -0.96,1.44 0.019,-0.781 0.307,-1.293 0.96,-1.44 z"
         id="path11477" />
      <path
         style="clip-rule:evenodd;fill:#2e2e2e;fill-rule:evenodd"
         d="m 205.2,9.752 c -0.348,0.452 -0.353,1.248 -0.96,1.44 0.019,-0.78 0.307,-1.293 0.96,-1.44 z"
         id="path11479" />
      <path
         style="clip-rule:evenodd;fill:#2e2e2e;fill-rule:evenodd"
         d="m 209.76,1.833 c -0.348,0.452 -0.353,1.248 -0.96,1.44 0.019,-0.781 0.307,-1.294 0.96,-1.44 z"
         id="path11481" />
      <path
         style="clip-rule:evenodd;fill:#2e2e2e;fill-rule:evenodd"
         d="m 208.56,3.752 c -0.08,0.56 -0.246,1.034 -0.72,1.2 -0.115,-0.755 0.342,-0.938 0.48,-1.44 0.204,-0.043 0.226,0.094 0.24,0.24 z"
         id="path11483" />
      <path
         style="clip-rule:evenodd;fill:#666666;fill-rule:evenodd"
         d="m 217.919,12.633 c -0.78,-0.66 -1.152,-1.728 -1.68,-2.64 1.236,0.205 1.02,1.861 1.68,2.64 z"
         id="path11485" />
      <path
         style="clip-rule:evenodd;fill:#2e2e2e;fill-rule:evenodd"
         d="m 204,11.673 c -0.081,0.56 -0.246,1.034 -0.72,1.2 -0.115,-0.755 0.342,-0.938 0.48,-1.44 0.204,-0.044 0.226,0.093 0.24,0.24 z"
         id="path11487" />
      <path
         style="clip-rule:evenodd;fill:#2e2e2e;fill-rule:evenodd"
         d="m 203.04,13.353 c -0.08,0.56 -0.246,1.034 -0.72,1.2 -0.115,-0.755 0.342,-0.938 0.48,-1.44 0.204,-0.045 0.226,0.093 0.24,0.24 z"
         id="path11489" />
      <path
         style="clip-rule:evenodd;fill:#666666;fill-rule:evenodd"
         d="m 220.56,17.193 c -0.78,-0.66 -1.153,-1.728 -1.681,-2.64 1.236,0.205 1.02,1.861 1.681,2.64 z"
         id="path11491" />
      <path
         style="clip-rule:evenodd;fill:#2e2e2e;fill-rule:evenodd"
         d="m 202.08,15.033 c -0.08,0.56 -0.246,1.034 -0.72,1.2 -0.115,-0.755 0.342,-0.938 0.48,-1.44 0.204,-0.044 0.226,0.093 0.24,0.24 z"
         id="path11493" />
      <path
         style="clip-rule:evenodd;fill:#2e2e2e;fill-rule:evenodd"
         d="m 196.56,24.633 c -0.08,0.56 -0.246,1.034 -0.72,1.2 -0.115,-0.755 0.342,-0.938 0.48,-1.44 0.204,-0.044 0.226,0.093 0.24,0.24 z"
         id="path11495" />
      <path
         style="clip-rule:evenodd;fill:#2e2e2e;fill-rule:evenodd"
         d="m 195.6,26.312 c -0.08,0.56 -0.246,1.034 -0.72,1.2 -0.115,-0.755 0.342,-0.938 0.48,-1.44 0.204,-0.044 0.226,0.094 0.24,0.24 z"
         id="path11497" />
      <path
         style="clip-rule:evenodd;fill:#2e2e2e;fill-rule:evenodd"
         d="m 190.08,35.913 c -0.08,0.56 -0.246,1.034 -0.72,1.2 -0.115,-0.755 0.342,-0.938 0.48,-1.44 0.204,-0.045 0.226,0.093 0.24,0.24 z"
         id="path11499" />
      <path
         style="clip-rule:evenodd;fill:#2e2e2e;fill-rule:evenodd"
         d="m 189.12,37.593 c -0.08,0.56 -0.246,1.034 -0.72,1.2 -0.115,-0.755 0.342,-0.938 0.48,-1.44 0.204,-0.044 0.226,0.093 0.24,0.24 z"
         id="path11501" />
      <path
         style="clip-rule:evenodd;fill:#666666;fill-rule:evenodd"
         d="m 234.48,41.193 c -0.78,-0.66 -1.153,-1.728 -1.681,-2.64 1.236,0.205 1.02,1.861 1.681,2.64 z"
         id="path11503" />
      <path
         style="clip-rule:evenodd;fill:#666666;fill-rule:evenodd"
         d="m 238.799,48.633 c -0.78,-0.66 -1.152,-1.728 -1.68,-2.64 1.236,0.205 1.02,1.861 1.68,2.64 z"
         id="path11505" />
      <path
         style="clip-rule:evenodd;fill:#2e2e2e;fill-rule:evenodd"
         d="m 178.08,56.792 c -0.08,0.56 -0.246,1.034 -0.72,1.2 -0.115,-0.755 0.342,-0.938 0.48,-1.44 0.204,-0.044 0.226,0.094 0.24,0.24 z"
         id="path11507" />
      <path
         style="clip-rule:evenodd;fill:#2e2e2e;fill-rule:evenodd"
         d="m 172.56,66.393 c -0.08,0.56 -0.246,1.034 -0.72,1.2 -0.115,-0.755 0.342,-0.938 0.48,-1.44 0.204,-0.045 0.226,0.093 0.24,0.24 z"
         id="path11509" />
      <path
         style="clip-rule:evenodd;fill:#2e2e2e;fill-rule:evenodd"
         d="m 171.6,68.073 c -0.08,0.56 -0.246,1.034 -0.72,1.2 -0.115,-0.755 0.342,-0.938 0.48,-1.44 0.204,-0.044 0.226,0.093 0.24,0.24 z"
         id="path11511" />
      <path
         style="clip-rule:evenodd;fill:#2e2e2e;fill-rule:evenodd"
         d="m 167.04,75.993 c -0.08,0.56 -0.246,1.034 -0.72,1.2 -0.115,-0.755 0.342,-0.938 0.48,-1.44 0.204,-0.045 0.226,0.093 0.24,0.24 z"
         id="path11513" />
      <path
         style="clip-rule:evenodd;fill:#2e2e2e;fill-rule:evenodd"
         d="m 166.08,77.673 c -0.08,0.56 -0.246,1.034 -0.72,1.2 -0.115,-0.755 0.342,-0.938 0.48,-1.44 0.204,-0.044 0.226,0.093 0.24,0.24 z"
         id="path11515" />
      <path
         style="clip-rule:evenodd;fill:#2e2e2e;fill-rule:evenodd"
         d="m 161.52,85.593 c -0.081,0.56 -0.246,1.034 -0.72,1.2 -0.115,-0.755 0.342,-0.938 0.48,-1.44 0.204,-0.044 0.226,0.093 0.24,0.24 z"
         id="path11517" />
      <path
         style="clip-rule:evenodd;fill:#666666;fill-rule:evenodd"
         d="m 262.32,89.193 c -0.78,-0.66 -1.152,-1.728 -1.68,-2.64 1.235,0.205 1.019,1.861 1.68,2.64 z"
         id="path11519" />
      <path
         style="clip-rule:evenodd;fill:#2e2e2e;fill-rule:evenodd"
         d="m 160.56,87.272 c -0.08,0.56 -0.246,1.034 -0.72,1.2 -0.115,-0.755 0.342,-0.938 0.48,-1.44 0.204,-0.044 0.226,0.094 0.24,0.24 z"
         id="path11521" />
      <path
         style="clip-rule:evenodd;fill:#2e2e2e;fill-rule:evenodd"
         d="m 159.6,88.953 c -0.08,0.56 -0.246,1.034 -0.72,1.2 -0.115,-0.755 0.342,-0.938 0.48,-1.44 0.204,-0.045 0.226,0.093 0.24,0.24 z"
         id="path11523" />
      <path
         style="clip-rule:evenodd;fill:#666666;fill-rule:evenodd"
         d="m 264.959,93.752 c -0.78,-0.659 -1.152,-1.727 -1.68,-2.64 1.235,0.206 1.02,1.862 1.68,2.64 z"
         id="path11525" />
      <path
         style="clip-rule:evenodd;fill:#666666;fill-rule:evenodd"
         d="m 266.64,96.633 c -0.781,-0.66 -1.153,-1.728 -1.681,-2.64 1.236,0.205 1.02,1.861 1.681,2.64 z"
         id="path11527" />
      <path
         style="clip-rule:evenodd;fill:#2e2e2e;fill-rule:evenodd"
         d="m 155.04,96.873 c -0.08,0.56 -0.246,1.034 -0.72,1.2 -0.115,-0.755 0.342,-0.938 0.48,-1.44 0.204,-0.045 0.226,0.093 0.24,0.24 z"
         id="path11529" />
      <path
         style="clip-rule:evenodd;fill:#2e2e2e;fill-rule:evenodd"
         d="m 148.56,108.153 c -0.08,0.56 -0.246,1.034 -0.72,1.2 -0.115,-0.755 0.342,-0.938 0.48,-1.44 0.204,-0.044 0.226,0.093 0.24,0.24 z"
         id="path11531" />
      <path
         style="clip-rule:evenodd;fill:#666666;fill-rule:evenodd"
         d="m 276.24,113.193 c -0.78,-0.66 -1.152,-1.728 -1.68,-2.64 1.234,0.205 1.019,1.861 1.68,2.64 z"
         id="path11533" />
      <path
         style="clip-rule:evenodd;fill:#2e2e2e;fill-rule:evenodd"
         d="m 143.04,117.752 c -0.08,0.56 -0.246,1.034 -0.72,1.2 -0.115,-0.755 0.342,-0.938 0.48,-1.44 0.204,-0.043 0.226,0.094 0.24,0.24 z"
         id="path11535" />
      <path
         style="clip-rule:evenodd;fill:#2e2e2e;fill-rule:evenodd"
         d="m 142.08,119.433 c -0.08,0.56 -0.246,1.034 -0.72,1.2 -0.115,-0.755 0.342,-0.938 0.48,-1.44 0.204,-0.045 0.226,0.093 0.24,0.24 z"
         id="path11537" />
      <path
         style="clip-rule:evenodd;fill:#666666;fill-rule:evenodd"
         d="m 285.839,129.752 c -0.78,-0.659 -1.152,-1.727 -1.68,-2.64 1.236,0.206 1.02,1.862 1.68,2.64 z"
         id="path11539" />
      <path
         style="clip-rule:evenodd;fill:#666666;fill-rule:evenodd"
         d="m 290.16,137.193 c -0.78,-0.66 -1.152,-1.728 -1.68,-2.64 1.234,0.205 1.019,1.861 1.68,2.64 z"
         id="path11541" />
      <path
         style="clip-rule:evenodd;fill:#2e2e2e;fill-rule:evenodd"
         d="m 131.04,138.633 c -0.08,0.56 -0.246,1.034 -0.72,1.2 -0.115,-0.755 0.342,-0.938 0.48,-1.44 0.204,-0.044 0.226,0.093 0.24,0.24 z"
         id="path11543" />
      <path
         style="clip-rule:evenodd;fill:#2e2e2e;fill-rule:evenodd"
         d="m 124.56,149.913 c -0.08,0.56 -0.246,1.034 -0.72,1.2 -0.115,-0.755 0.342,-0.938 0.48,-1.44 0.204,-0.045 0.226,0.093 0.24,0.24 z"
         id="path11545" />
      <path
         style="clip-rule:evenodd;fill:#2e2e2e;fill-rule:evenodd"
         d="m 120,157.833 c -0.081,0.56 -0.246,1.034 -0.72,1.2 -0.115,-0.755 0.342,-0.938 0.48,-1.44 0.204,-0.045 0.226,0.093 0.24,0.24 z"
         id="path11547" />
      <path
         style="clip-rule:evenodd;fill:#2e2e2e;fill-rule:evenodd"
         d="m 119.04,159.513 c -0.08,0.56 -0.246,1.034 -0.72,1.2 -0.115,-0.755 0.342,-0.938 0.48,-1.44 0.204,-0.044 0.226,0.093 0.24,0.24 z"
         id="path11549" />
      <path
         style="clip-rule:evenodd;fill:#2e2e2e;fill-rule:evenodd"
         d="m 113.52,169.113 c -0.081,0.56 -0.246,1.034 -0.72,1.2 -0.115,-0.755 0.342,-0.938 0.48,-1.44 0.204,-0.044 0.226,0.093 0.24,0.24 z"
         id="path11551" />
      <path
         style="clip-rule:evenodd;fill:#2e2e2e;fill-rule:evenodd"
         d="m 112.56,170.792 c -0.08,0.56 -0.246,1.034 -0.72,1.2 -0.115,-0.755 0.342,-0.938 0.48,-1.44 0.204,-0.044 0.226,0.094 0.24,0.24 z"
         id="path11553" />
      <path
         style="clip-rule:evenodd;fill:#2e2e2e;fill-rule:evenodd"
         d="m 107.04,180.393 c -0.08,0.56 -0.246,1.034 -0.72,1.2 -0.115,-0.755 0.342,-0.938 0.48,-1.44 0.204,-0.045 0.226,0.093 0.24,0.24 z"
         id="path11555" />
      <path
         style="clip-rule:evenodd;fill:#666666;fill-rule:evenodd"
         d="m 318,185.193 c -0.78,-0.66 -1.152,-1.728 -1.68,-2.64 1.234,0.205 1.019,1.861 1.68,2.64 z"
         id="path11557" />
      <path
         style="clip-rule:evenodd;fill:#666666;fill-rule:evenodd"
         d="m 320.64,189.752 c -0.781,-0.659 -1.153,-1.727 -1.681,-2.64 1.236,0.206 1.02,1.862 1.681,2.64 z"
         id="path11559" />
      <path
         style="clip-rule:evenodd;fill:#2e2e2e;fill-rule:evenodd"
         d="m 101.52,189.993 c -0.081,0.56 -0.246,1.034 -0.72,1.2 -0.115,-0.755 0.342,-0.938 0.48,-1.44 0.204,-0.045 0.226,0.093 0.24,0.24 z"
         id="path11561" />
      <path
         style="clip-rule:evenodd;fill:#2e2e2e;fill-rule:evenodd"
         d="m 100.56,191.673 c -0.08,0.56 -0.246,1.034 -0.72,1.2 -0.115,-0.755 0.342,-0.938 0.48,-1.44 0.204,-0.044 0.226,0.093 0.24,0.24 z"
         id="path11563" />
      <path
         style="clip-rule:evenodd;fill:#2e2e2e;fill-rule:evenodd"
         d="m 99.6,193.353 c -0.08,0.56 -0.246,1.034 -0.72,1.2 -0.115,-0.755 0.342,-0.938 0.48,-1.44 0.204,-0.045 0.226,0.093 0.24,0.24 z"
         id="path11565" />
      <path
         style="clip-rule:evenodd;fill:#2e2e2e;fill-rule:evenodd"
         d="m 95.04,201.272 c -0.08,0.56 -0.246,1.034 -0.72,1.2 -0.115,-0.755 0.342,-0.938 0.48,-1.44 0.204,-0.043 0.226,0.094 0.24,0.24 z"
         id="path11567" />
      <path
         style="clip-rule:evenodd;fill:#666666;fill-rule:evenodd"
         d="m 331.919,209.193 c -0.78,-0.66 -1.152,-1.728 -1.68,-2.64 1.236,0.205 1.02,1.861 1.68,2.64 z"
         id="path11569" />
      <path
         style="clip-rule:evenodd;fill:#2e2e2e;fill-rule:evenodd"
         d="m 83.04,222.153 c -0.08,0.56 -0.246,1.034 -0.72,1.2 -0.115,-0.755 0.342,-0.938 0.48,-1.44 0.204,-0.044 0.226,0.093 0.24,0.24 z"
         id="path11571" />
      <path
         style="clip-rule:evenodd;fill:#666666;fill-rule:evenodd"
         d="m 341.52,225.753 c -0.78,-0.66 -1.153,-1.728 -1.681,-2.64 1.236,0.205 1.02,1.861 1.681,2.64 z"
         id="path11573" />
      <path
         style="clip-rule:evenodd;fill:#2e2e2e;fill-rule:evenodd"
         d="m 82.08,223.833 c -0.08,0.56 -0.246,1.033 -0.72,1.199 -0.115,-0.755 0.342,-0.938 0.48,-1.439 0.204,-0.044 0.226,0.094 0.24,0.24 z"
         id="path11575" />
      <path
         style="clip-rule:evenodd;fill:#2e2e2e;fill-rule:evenodd"
         d="m 77.52,231.753 c -0.081,0.56 -0.246,1.034 -0.72,1.2 -0.115,-0.756 0.342,-0.938 0.48,-1.44 0.204,-0.044 0.226,0.093 0.24,0.24 z"
         id="path11577" />
      <path
         style="clip-rule:evenodd;fill:#2e2e2e;fill-rule:evenodd"
         d="m 76.56,233.433 c -0.08,0.56 -0.246,1.034 -0.72,1.2 -0.115,-0.755 0.342,-0.938 0.48,-1.44 0.204,-0.045 0.226,0.093 0.24,0.24 z"
         id="path11579" />
      <path
         style="clip-rule:evenodd;fill:#666666;fill-rule:evenodd"
         d="m 348.48,237.753 c -0.78,-0.66 -1.153,-1.728 -1.681,-2.641 1.236,0.205 1.02,1.862 1.681,2.641 z"
         id="path11581" />
      <path
         style="clip-rule:evenodd;fill:#2e2e2e;fill-rule:evenodd"
         d="m 72,241.353 c -0.081,0.56 -0.246,1.034 -0.72,1.2 -0.115,-0.755 0.342,-0.938 0.48,-1.44 0.204,-0.045 0.226,0.093 0.24,0.24 z"
         id="path11583" />
      <path
         style="clip-rule:evenodd;fill:#2e2e2e;fill-rule:evenodd"
         d="m 71.04,243.032 c -0.08,0.561 -0.246,1.034 -0.72,1.2 -0.115,-0.755 0.342,-0.938 0.48,-1.439 0.204,-0.044 0.226,0.094 0.24,0.239 z"
         id="path11585" />
      <path
         style="clip-rule:evenodd;fill:#2e2e2e;fill-rule:evenodd"
         d="m 65.52,252.633 c -0.081,0.56 -0.246,1.034 -0.72,1.2 -0.115,-0.755 0.342,-0.938 0.48,-1.44 0.204,-0.044 0.226,0.093 0.24,0.24 z"
         id="path11587" />
      <path
         style="clip-rule:evenodd;fill:#2e2e2e;fill-rule:evenodd"
         d="m 64.56,254.312 c -0.08,0.56 -0.246,1.034 -0.72,1.2 -0.115,-0.755 0.342,-0.938 0.48,-1.44 0.204,-0.044 0.226,0.094 0.24,0.24 z"
         id="path11589" />
      <path
         style="clip-rule:evenodd;fill:#2e2e2e;fill-rule:evenodd"
         d="m 60,262.232 c -0.081,0.561 -0.246,1.034 -0.72,1.2 -0.115,-0.755 0.342,-0.938 0.48,-1.44 0.204,-0.044 0.226,0.094 0.24,0.24 z"
         id="path11591" />
      <path
         style="clip-rule:evenodd;fill:#2e2e2e;fill-rule:evenodd"
         d="m 53.52,273.513 c -0.081,0.56 -0.246,1.034 -0.72,1.2 -0.115,-0.755 0.342,-0.938 0.48,-1.44 0.204,-0.044 0.226,0.093 0.24,0.24 z"
         id="path11593" />
      <path
         style="clip-rule:evenodd;fill:#666666;fill-rule:evenodd"
         d="m 373.68,281.192 c -0.781,-0.659 -1.153,-1.728 -1.681,-2.64 1.236,0.206 1.02,1.861 1.681,2.64 z"
         id="path11595" />
      <path
         style="clip-rule:evenodd;fill:#666666;fill-rule:evenodd"
         d="m 376.32,285.753 c -0.78,-0.66 -1.152,-1.728 -1.68,-2.641 1.235,0.205 1.019,1.862 1.68,2.641 z"
         id="path11597" />
      <path
         style="clip-rule:evenodd;fill:#2e2e2e;fill-rule:evenodd"
         d="m 47.04,284.793 c -0.08,0.56 -0.246,1.034 -0.72,1.199 -0.115,-0.755 0.342,-0.938 0.48,-1.439 0.204,-0.044 0.226,0.093 0.24,0.24 z"
         id="path11599" />
      <path
         style="clip-rule:evenodd;fill:#2e2e2e;fill-rule:evenodd"
         d="m 43.44,291.032 c -0.081,0.561 -0.246,1.034 -0.72,1.2 -0.115,-0.755 0.342,-0.938 0.48,-1.439 0.204,-0.044 0.226,0.094 0.24,0.239 z"
         id="path11601" />
      <path
         style="clip-rule:evenodd;fill:#2e2e2e;fill-rule:evenodd"
         d="m 41.52,294.393 c -0.081,0.56 -0.246,1.034 -0.72,1.2 -0.115,-0.755 0.342,-0.938 0.48,-1.44 0.204,-0.045 0.226,0.093 0.24,0.24 z"
         id="path11603" />
      <path
         style="clip-rule:evenodd;fill:#666666;fill-rule:evenodd"
         d="m 383.28,297.753 c -0.78,-0.66 -1.152,-1.728 -1.68,-2.641 1.234,0.205 1.019,1.862 1.68,2.641 z"
         id="path11605" />
      <path
         style="clip-rule:evenodd;fill:#2e2e2e;fill-rule:evenodd"
         d="m 40.56,296.072 c -0.08,0.561 -0.246,1.034 -0.72,1.2 -0.115,-0.755 0.342,-0.938 0.48,-1.439 0.204,-0.045 0.226,0.093 0.24,0.239 z"
         id="path11607" />
      <path
         style="clip-rule:evenodd;fill:#2e2e2e;fill-rule:evenodd"
         d="m 37.92,300.633 c -0.08,0.56 -0.246,1.034 -0.72,1.2 -0.115,-0.755 0.342,-0.938 0.48,-1.44 0.204,-0.044 0.226,0.093 0.24,0.24 z"
         id="path11609" />
      <path
         style="clip-rule:evenodd;fill:#2e2e2e;fill-rule:evenodd"
         d="m 36,303.992 c -0.081,0.561 -0.246,1.034 -0.72,1.2 -0.115,-0.755 0.342,-0.938 0.48,-1.439 0.204,-0.044 0.226,0.094 0.24,0.239 z"
         id="path11611" />
      <path
         style="clip-rule:evenodd;fill:#2e2e2e;fill-rule:evenodd"
         d="m 35.04,305.673 c -0.08,0.56 -0.246,1.034 -0.72,1.2 -0.115,-0.756 0.342,-0.938 0.48,-1.44 0.204,-0.044 0.226,0.093 0.24,0.24 z"
         id="path11613" />
      <path
         style="clip-rule:evenodd;fill:#666666;fill-rule:evenodd"
         d="m 390.24,309.753 c -0.78,-0.66 -1.152,-1.728 -1.68,-2.641 1.234,0.205 1.019,1.862 1.68,2.641 z"
         id="path11615" />
      <path
         style="clip-rule:evenodd;fill:#2e2e2e;fill-rule:evenodd"
         d="m 29.52,315.272 c -0.081,0.56 -0.246,1.034 -0.72,1.2 -0.115,-0.755 0.342,-0.938 0.48,-1.44 0.204,-0.044 0.226,0.094 0.24,0.24 z"
         id="path11617" />
      <path
         style="clip-rule:evenodd;fill:#666666;fill-rule:evenodd"
         d="m 395.52,318.873 c -0.665,-0.615 -1.136,-1.425 -1.44,-2.4 0.484,-0.155 1.055,1.657 1.44,2.4 z"
         id="path11619" />
      <path
         style="clip-rule:evenodd;fill:#666666;fill-rule:evenodd"
         d="m 397.2,321.753 c -0.78,-0.66 -1.152,-1.728 -1.68,-2.641 1.234,0.205 1.019,1.862 1.68,2.641 z"
         id="path11621" />
      <path
         style="clip-rule:evenodd;fill:#2e2e2e;fill-rule:evenodd"
         d="m 24,324.873 c -0.081,0.56 -0.246,1.033 -0.72,1.199 -0.115,-0.755 0.342,-0.938 0.48,-1.439 0.204,-0.044 0.226,0.094 0.24,0.24 z"
         id="path11623" />
      <path
         style="clip-rule:evenodd;fill:#2e2e2e;fill-rule:evenodd"
         d="m 23.04,326.553 c -0.08,0.56 -0.246,1.034 -0.72,1.2 -0.115,-0.755 0.342,-0.938 0.48,-1.44 0.204,-0.044 0.226,0.093 0.24,0.24 z"
         id="path11625" />
      <path
         style="clip-rule:evenodd;fill:#666666;fill-rule:evenodd"
         d="m 404.16,333.753 c -0.78,-0.66 -1.152,-1.728 -1.68,-2.641 1.234,0.205 1.019,1.862 1.68,2.641 z"
         id="path11627" />
      <path
         style="clip-rule:evenodd;fill:#2e2e2e;fill-rule:evenodd"
         d="m 17.52,336.152 c -0.081,0.561 -0.246,1.034 -0.72,1.2 -0.115,-0.755 0.342,-0.938 0.48,-1.439 0.204,-0.045 0.226,0.093 0.24,0.239 z"
         id="path11629" />
      <path
         style="clip-rule:evenodd;fill:#666666;fill-rule:evenodd"
         d="m 411.12,345.753 c -0.78,-0.66 -1.152,-1.728 -1.68,-2.641 1.234,0.205 1.019,1.862 1.68,2.641 z"
         id="path11631" />
      <path
         style="clip-rule:evenodd;fill:#2e2e2e;fill-rule:evenodd"
         d="m 12,345.753 c -0.081,0.56 -0.246,1.034 -0.72,1.2 -0.115,-0.756 0.342,-0.938 0.48,-1.44 0.204,-0.044 0.226,0.093 0.24,0.24 z"
         id="path11633" />
      <path
         style="clip-rule:evenodd;fill:#666666;fill-rule:evenodd"
         d="m 416.4,354.873 c -0.665,-0.615 -1.136,-1.425 -1.44,-2.4 0.484,-0.155 1.056,1.657 1.44,2.4 z"
         id="path11635" />
      <path
         style="clip-rule:evenodd;fill:#2e2e2e;fill-rule:evenodd"
         d="m 6.48,355.353 c -0.081,0.56 -0.246,1.034 -0.72,1.2 -0.115,-0.755 0.342,-0.938 0.48,-1.44 0.204,-0.045 0.226,0.093 0.24,0.24 z"
         id="path11637" />
      <path
         style="clip-rule:evenodd;fill:#666666;fill-rule:evenodd"
         d="m 420.72,362.312 c -0.781,-0.659 -1.153,-1.728 -1.681,-2.64 1.236,0.206 1.02,1.861 1.681,2.64 z"
         id="path11639" />
      <path
         style="clip-rule:evenodd;fill:#9e9f9e;fill-rule:evenodd"
         d="m 421.919,364.713 c 0,-0.16 0,-0.32 0,-0.48 0.194,0.046 0.239,0.241 0.48,0.24 0,0.24 0,0.479 0,0.72 -3.84,0 -7.68,0 -11.521,0 0,-0.08 0,-0.159 0,-0.239 3.449,-0.155 8.792,0.311 11.041,-0.241 z"
         id="path11641" />
      <path
         style="clip-rule:evenodd;fill:#666666;fill-rule:evenodd"
         d="m 0.48,365.433 c 0.256,-0.224 0.075,-0.886 0.72,-0.72 -2.02,1.53 3.245,0.96 4.8,0.96 5.459,0 12.521,0 16.56,0 8,0 16,0 24,0 0,0.08 0,0.16 0,0.24 -15.032,-0.316 -31.477,0.633 -46.08,-0.48 z"
         id="path11643" />
      <path
         style="clip-rule:evenodd;fill:#080808;fill-rule:evenodd"
         d="m 421.68,363.992 c -0.045,0.204 0.093,0.227 0.239,0.24 0,0.16 0,0.32 0,0.48 -11.6,0.16 -23.84,-0.32 -35.04,0.24 -8.159,0 -16.319,0 -24.479,0 -32.239,0.159 -65.121,-0.32 -96.96,0.239 -8.16,0 -16.32,0 -24.48,0 -32.319,0.16 -65.28,-0.319 -97.2,0.24 -8.08,0 -16.16,0 -24.24,0 -32.24,0.16 -65.121,-0.32 -96.96,0.24 -4.039,0 -11.1,0 -16.56,0 -1.556,0 -6.82,0.57 -4.8,-0.96 0,-0.08 0,-0.16 0,-0.24 0.607,-0.193 0.612,-0.988 0.96,-1.44 1.216,-2.144 2.568,-4.151 3.6,-6.479 0.474,-0.166 0.64,-0.641 0.72,-1.2 0.233,-0.007 0.186,-0.294 0.24,-0.479 0.607,-0.193 0.612,-0.988 0.96,-1.44 0,-0.08 0,-0.16 0,-0.24 0.607,-0.192 0.612,-0.987 0.96,-1.439 0.896,-1.584 1.929,-3.031 2.64,-4.8 0.474,-0.166 0.64,-0.641 0.72,-1.2 0.233,-0.007 0.186,-0.294 0.24,-0.48 0.607,-0.192 0.612,-0.987 0.96,-1.439 0,-0.08 0,-0.16 0,-0.24 0.607,-0.193 0.612,-0.988 0.96,-1.44 0.896,-1.583 1.929,-3.031 2.64,-4.8 0.474,-0.166 0.64,-0.64 0.72,-1.2 0.233,-0.006 0.186,-0.293 0.24,-0.479 0.607,-0.193 0.612,-0.988 0.96,-1.44 0,-0.08 0,-0.16 0,-0.24 0.607,-0.192 0.612,-0.987 0.96,-1.439 0,-0.08 0,-0.16 0,-0.24 0.607,-0.192 0.612,-0.988 0.96,-1.439 0.576,-1.024 1.293,-1.907 1.68,-3.12 0.474,-0.166 0.64,-0.641 0.72,-1.2 0.233,-0.007 0.187,-0.294 0.24,-0.48 0.474,-0.166 0.64,-0.64 0.72,-1.199 0.233,-0.007 0.186,-0.294 0.24,-0.48 0.607,-0.192 0.612,-0.988 0.96,-1.439 0,-0.08 0,-0.16 0,-0.24 0.607,-0.193 0.612,-0.988 0.96,-1.44 0.896,-1.584 1.929,-3.031 2.64,-4.8 0.474,-0.166 0.64,-0.641 0.72,-1.2 0.233,-0.007 0.186,-0.294 0.24,-0.479 0.607,-0.193 0.612,-0.988 0.96,-1.44 0,-0.08 0,-0.16 0,-0.24 0.607,-0.192 0.612,-0.987 0.96,-1.439 0,-0.08 0,-0.16 0,-0.24 0.08,0 0.16,0 0.24,0 0.393,-0.967 1.047,-1.673 1.44,-2.64 0,-0.08 0,-0.16 0,-0.24 0.607,-0.193 0.612,-0.988 0.96,-1.44 0,-0.08 0,-0.16 0,-0.239 0.474,-0.166 0.64,-0.641 0.72,-1.2 0.233,-0.007 0.187,-0.294 0.24,-0.48 0.474,-0.166 0.64,-0.64 0.72,-1.2 0.233,-0.006 0.186,-0.293 0.24,-0.479 0.607,-0.192 0.612,-0.988 0.96,-1.44 0,-0.08 0,-0.16 0,-0.239 0.474,-0.166 0.64,-0.641 0.72,-1.2 0.778,-0.981 1.437,-2.083 1.92,-3.36 0.474,-0.166 0.64,-0.64 0.72,-1.2 0.233,-0.006 0.187,-0.293 0.24,-0.479 0.474,-0.166 0.64,-0.641 0.72,-1.2 0.233,-0.007 0.186,-0.294 0.24,-0.479 0.607,-0.193 0.612,-0.988 0.96,-1.44 0,-0.08 0,-0.16 0,-0.24 0.474,-0.166 0.64,-0.64 0.72,-1.2 1.104,-1.536 2.069,-3.21 2.88,-5.04 0.474,-0.165 0.64,-0.64 0.72,-1.199 0.233,-0.007 0.187,-0.294 0.24,-0.48 0.607,-0.192 0.612,-0.988 0.96,-1.439 0,-0.08 0,-0.16 0,-0.24 0.607,-0.193 0.612,-0.988 0.96,-1.44 0,-0.08 0,-0.16 0,-0.239 0.607,-0.193 0.612,-0.988 0.96,-1.44 0.896,-1.584 1.929,-3.031 2.64,-4.8 0.474,-0.166 0.64,-0.641 0.72,-1.2 0.233,-0.007 0.186,-0.294 0.24,-0.48 0.607,-0.192 0.612,-0.987 0.96,-1.439 0,-0.08 0,-0.16 0,-0.24 0.607,-0.192 0.612,-0.988 0.96,-1.439 0.896,-1.584 1.929,-3.032 2.64,-4.801 0.607,-0.192 0.612,-0.987 0.96,-1.439 0,-0.08 0,-0.16 0,-0.24 0.474,-0.166 0.64,-0.64 0.72,-1.2 0.233,-0.006 0.186,-0.294 0.24,-0.479 0.607,-0.193 0.612,-0.988 0.96,-1.44 0,-0.08 0,-0.16 0,-0.24 0.607,-0.192 0.612,-0.987 0.96,-1.439 0.213,-0.507 0.731,-0.709 0.72,-1.44 0.607,-0.192 0.612,-0.987 0.96,-1.439 0,-0.08 0,-0.16 0,-0.24 0.474,-0.166 0.64,-0.641 0.72,-1.2 0.233,-0.007 0.187,-0.294 0.24,-0.479 0.474,-0.166 0.64,-0.641 0.72,-1.2 0.233,-0.007 0.186,-0.294 0.24,-0.48 0.607,-0.192 0.612,-0.987 0.96,-1.439 0,-0.08 0,-0.16 0,-0.24 0.607,-0.192 0.612,-0.988 0.96,-1.44 0.896,-1.583 1.929,-3.031 2.64,-4.8 0.474,-0.166 0.64,-0.64 0.72,-1.2 0.233,-0.006 0.187,-0.293 0.24,-0.479 0.474,-0.166 0.64,-0.641 0.72,-1.2 0.233,-0.007 0.186,-0.294 0.24,-0.479 0.607,-0.193 0.612,-0.988 0.96,-1.44 0,-0.08 0,-0.16 0,-0.24 0.607,-0.192 0.612,-0.987 0.96,-1.439 0.213,-0.507 0.731,-0.71 0.72,-1.44 0.607,-0.192 0.612,-0.988 0.96,-1.439 0,-0.08 0,-0.16 0,-0.24 0.474,-0.166 0.64,-0.641 0.72,-1.2 0.233,-0.007 0.187,-0.294 0.24,-0.479 0.474,-0.166 0.64,-0.641 0.72,-1.2 0.233,-0.007 0.186,-0.294 0.24,-0.48 0.607,-0.192 0.612,-0.987 0.96,-1.439 0,-0.08 0,-0.16 0,-0.24 0.607,-0.193 0.612,-0.988 0.96,-1.44 0.576,-1.023 1.293,-1.906 1.68,-3.12 0.474,-0.166 0.64,-0.64 0.72,-1.199 0.233,-0.007 0.187,-0.294 0.24,-0.48 0.474,-0.166 0.64,-0.64 0.72,-1.2 0.233,-0.007 0.187,-0.294 0.24,-0.48 0.607,-0.193 0.612,-0.988 0.96,-1.44 0,-0.08 0,-0.16 0,-0.24 0.607,-0.193 0.612,-0.988 0.96,-1.44 0.576,-1.024 1.293,-1.907 1.68,-3.12 0.607,-0.193 0.612,-0.988 0.96,-1.44 0,-0.08 0,-0.16 0,-0.24 0.607,-0.193 0.612,-0.988 0.96,-1.44 0,-0.08 0,-0.16 0,-0.24 0.607,-0.193 0.612,-0.988 0.96,-1.44 0,-0.08 0,-0.16 0,-0.24 0.607,-0.193 0.612,-0.988 0.96,-1.44 0,-0.08 0,-0.16 0,-0.24 0.607,-0.193 0.612,-0.988 0.96,-1.44 0,-0.08 0,-0.16 0,-0.24 0.607,-0.193 0.612,-0.988 0.96,-1.44 0.576,-1.024 1.293,-1.907 1.68,-3.12 0.474,-0.166 0.64,-0.64 0.72,-1.2 0.233,-0.006 0.187,-0.293 0.24,-0.48 0.607,-0.193 0.612,-0.988 0.96,-1.44 0,-0.08 0,-0.16 0,-0.24 0.607,-0.193 0.612,-0.988 0.96,-1.44 0.576,-1.024 1.293,-1.907 1.68,-3.12 0.474,-0.166 0.64,-0.64 0.72,-1.2 0.233,-0.006 0.187,-0.294 0.24,-0.48 0.474,-0.166 0.64,-0.64 0.72,-1.2 0.233,-0.007 0.187,-0.294 0.24,-0.48 0.474,-0.166 0.64,-0.64 0.72,-1.2 0.233,-0.006 0.186,-0.294 0.24,-0.48 0.607,-0.193 0.612,-0.988 0.96,-1.44 0,-0.08 0,-0.16 0,-0.24 0.607,-0.193 0.612,-0.988 0.96,-1.44 0.896,-1.583 1.929,-3.031 2.64,-4.8 0.474,-0.166 0.64,-0.64 0.72,-1.2 0.233,-0.006 0.187,-0.294 0.24,-0.48 0.607,-0.193 0.612,-0.988 0.96,-1.44 0,-0.08 0,-0.16 0,-0.24 0.607,-0.192 0.612,-0.988 0.96,-1.44 0.896,-1.583 1.929,-3.031 2.64,-4.8 0.474,-0.166 0.64,-0.64 0.72,-1.2 0.233,-0.006 0.187,-0.293 0.24,-0.48 0.474,-0.166 0.64,-0.64 0.72,-1.2 0.233,-0.007 0.186,-0.294 0.24,-0.48 0.607,-0.193 0.612,-0.988 0.96,-1.44 0,-0.08 0,-0.16 0,-0.24 0.607,-0.193 0.612,-0.988 0.96,-1.44 0.213,-0.507 0.731,-0.709 0.72,-1.44 0.607,-0.193 0.612,-0.988 0.96,-1.44 0.206,-0.755 0.907,-1.013 0.96,-1.92 0.474,-0.166 0.64,-0.641 0.72,-1.2 0.233,-0.007 0.187,-0.294 0.24,-0.48 0.474,-0.166 0.64,-0.64 0.72,-1.2 0.233,-0.006 0.186,-0.293 0.24,-0.48 0.607,-0.193 0.612,-0.988 0.96,-1.44 0.213,-0.507 0.731,-0.709 0.72,-1.44 0.607,-0.193 0.612,-0.988 0.96,-1.44 0.206,-0.754 0.907,-1.013 0.96,-1.92 0.474,-0.166 0.64,-0.64 0.72,-1.2 0.233,-0.006 0.187,-0.293 0.24,-0.48 0.607,-0.193 0.612,-0.988 0.96,-1.44 0,-0.08 0,-0.16 0,-0.24 0.607,-0.193 0.612,-0.988 0.96,-1.44 0,-0.08 0,-0.16 0,-0.24 0.607,-0.193 0.612,-0.988 0.96,-1.44 0.896,-1.584 1.929,-3.031 2.64,-4.8 0.474,-0.166 0.64,-0.64 0.72,-1.2 0.444,-0.676 1.012,-1.228 1.2,-2.16 0.607,-0.193 0.612,-0.988 0.96,-1.44 0.652,-1.188 1.493,-2.187 1.92,-3.6 0.665,-0.615 1.136,-1.424 1.44,-2.4 0.528,-0.592 1.012,-1.228 1.2,-2.16 0.862,-0.817 1.285,-2.075 1.92,-3.12 0.213,-0.506 0.731,-0.709 0.72,-1.44 0.607,-0.193 0.612,-0.988 0.96,-1.44 0,-0.08 0,-0.16 0,-0.24 0.474,-0.166 0.64,-0.64 0.72,-1.2 0.233,-0.006 0.187,-0.294 0.24,-0.48 0.474,-0.166 0.64,-0.64 0.72,-1.2 0.234,-0.006 0.187,-0.293 0.24,-0.48 0.607,-0.192 0.612,-0.988 0.96,-1.44 0,-0.08 0,-0.16 0,-0.24 0.607,-0.193 0.612,-0.988 0.96,-1.44 0.896,-1.584 1.929,-3.032 2.64,-4.8 0.474,-0.166 0.64,-0.64 0.72,-1.2 0.233,-0.007 0.187,-0.294 0.24,-0.48 0.607,-0.193 0.612,-0.988 0.96,-1.44 0,-0.08 0,-0.16 0,-0.24 0.607,-0.193 0.612,-0.988 0.96,-1.44 1.216,-2.145 2.568,-4.152 3.6,-6.48 0.474,-0.166 0.64,-0.64 0.72,-1.2 0.233,-0.006 0.187,-0.293 0.24,-0.48 0.607,-0.193 0.612,-0.988 0.96,-1.44 0,-0.08 0,-0.16 0,-0.24 0.607,-0.193 0.612,-0.988 0.96,-1.44 0.213,-0.507 0.731,-0.709 0.72,-1.44 0.607,-0.193 0.612,-0.988 0.96,-1.44 0,-0.08 0,-0.16 0,-0.24 0.474,-0.166 0.64,-0.64 0.72,-1.2 0.233,-0.006 0.187,-0.294 0.24,-0.48 0.474,-0.166 0.64,-0.64 0.72,-1.2 0.233,-0.006 0.187,-0.293 0.24,-0.48 0.474,-0.166 0.64,-0.64 0.72,-1.2 0.233,-0.007 0.186,-0.294 0.24,-0.48 0.607,-0.193 0.612,-0.988 0.96,-1.44 0,-0.08 0,-0.16 0,-0.24 0.607,-0.193 0.612,-0.988 0.96,-1.44 0.213,-0.507 0.731,-0.709 0.72,-1.44 0.607,-0.193 0.612,-0.988 0.96,-1.44 0,-0.08 0,-0.16 0,-0.24 0.474,-0.166 0.64,-0.64 0.72,-1.2 0.233,-0.007 0.187,-0.294 0.24,-0.48 0.474,-0.166 0.64,-0.64 0.72,-1.2 0.233,-0.006 0.187,-0.294 0.24,-0.48 0.607,-0.193 0.612,-0.988 0.96,-1.44 0,-0.08 0,-0.16 0,-0.24 0.607,-0.193 0.612,-0.988 0.96,-1.44 0.576,-1.024 1.293,-1.907 1.68,-3.12 0.474,-0.166 0.64,-0.64 0.72,-1.2 0.233,-0.007 0.187,-0.294 0.24,-0.48 0.474,-0.166 0.64,-0.64 0.72,-1.2 0.233,-0.006 0.187,-0.294 0.24,-0.48 0.607,-0.193 0.612,-0.988 0.96,-1.44 0,-0.08 0,-0.16 0,-0.24 0.607,-0.192 0.612,-0.988 0.96,-1.44 0.896,-1.583 1.929,-3.031 2.64,-4.8 0.474,-0.166 0.64,-0.64 0.72,-1.2 0.233,-0.006 0.187,-0.293 0.24,-0.48 0.607,-0.193 0.612,-0.988 0.96,-1.44 0,-0.08 0,-0.16 0,-0.24 0.607,-0.193 0.612,-0.988 0.96,-1.44 0,-0.08 0,-0.16 0,-0.24 0.607,-0.193 0.612,-0.988 0.96,-1.44 0.896,-1.584 1.929,-3.031 2.64,-4.8 0.607,-0.193 0.612,-0.988 0.96,-1.44 0,-0.08 0,-0.16 0,-0.24 0.607,-0.193 0.612,-0.988 0.96,-1.44 0,-0.08 0,-0.16 0,-0.24 0.607,-0.193 0.612,-0.988 0.96,-1.44 0.576,-1.024 1.293,-1.907 1.68,-3.12 0.474,-0.166 0.64,-0.64 0.72,-1.2 0.233,-0.007 0.187,-0.294 0.24,-0.48 0.474,-0.166 0.64,-0.64 0.72,-1.2 0.233,-0.006 0.187,-0.293 0.24,-0.48 0.607,-0.193 0.612,-0.988 0.96,-1.44 0,-0.08 0,-0.16 0,-0.24 0.607,-0.192 0.612,-0.988 0.96,-1.44 0.213,-0.507 0.73,-0.709 0.72,-1.44 0.607,-0.193 0.612,-0.988 0.96,-1.44 0.206,-0.754 0.907,-1.013 0.96,-1.92 0.474,-0.166 0.64,-0.64 0.72,-1.2 0.233,-0.006 0.187,-0.293 0.24,-0.48 0.474,-0.166 0.64,-0.64 0.72,-1.2 0.233,-0.007 0.187,-0.294 0.24,-0.48 0.607,-0.193 0.612,-0.988 0.96,-1.44 0,-0.08 0,-0.16 0,-0.24 0.607,-0.193 0.612,-0.988 0.96,-1.44 0.896,-1.584 1.929,-3.031 2.64,-4.8 0.474,-0.166 0.64,-0.64 0.72,-1.2 0.233,-0.007 0.187,-0.294 0.24,-0.48 0.474,-0.166 0.64,-0.64 0.72,-1.2 0.233,-0.006 0.187,-0.293 0.24,-0.48 0.474,-0.166 0.64,-0.64 0.72,-1.2 0.233,-0.007 0.186,-0.294 0.24,-0.48 0.607,-0.193 0.612,-0.988 0.96,-1.44 0.896,-1.583 1.929,-3.031 2.64,-4.8 0.474,-0.166 0.64,-0.64 0.72,-1.2 0.233,-0.006 0.187,-0.293 0.24,-0.48 0.607,-0.192 0.612,-0.988 0.96,-1.44 0,-0.08 0,-0.16 0,-0.24 0.731,-0.019 0.469,-1.663 1.2,-0.96 0,0.08 0,0.16 0,0.24 0.347,0.452 0.353,1.247 0.96,1.44 -0.012,0.731 0.506,0.934 0.72,1.44 0.865,1.455 1.521,3.12 2.64,4.32 0,0.08 0,0.16 0,0.24 0.348,0.452 0.353,1.248 0.96,1.44 0,0.08 0,0.16 0,0.24 0.527,0.913 0.899,1.98 1.68,2.64 0,0.08 0,0.16 0,0.24 0.349,0.452 0.354,1.247 0.96,1.44 0,0.08 0,0.16 0,0.24 0.527,0.913 0.9,1.98 1.681,2.64 0,0.08 0,0.16 0,0.24 0.348,0.452 0.353,1.247 0.96,1.44 -0.011,0.731 0.507,0.933 0.72,1.44 0.865,1.455 1.521,3.12 2.64,4.32 0,0.08 0,0.16 0,0.24 0.349,0.452 0.354,1.247 0.96,1.44 -0.011,0.731 0.507,0.934 0.721,1.44 0.635,1.045 1.058,2.303 1.92,3.12 -0.011,0.731 0.507,0.933 0.72,1.44 1.192,2.008 2.154,4.246 3.6,6 0,0.08 0,0.16 0,0.24 0.527,0.913 0.9,1.98 1.681,2.64 0,0.08 0,0.16 0,0.24 0.348,0.452 0.353,1.247 0.96,1.44 -0.011,0.731 0.507,0.933 0.72,1.44 0.348,0.452 0.353,1.248 0.96,1.44 0,0.08 0,0.16 0,0.24 0.527,0.913 0.899,1.98 1.68,2.64 0,0.08 0,0.16 0,0.24 0.349,0.452 0.354,1.247 0.961,1.44 -0.011,0.731 0.506,0.934 0.72,1.44 0.635,1.045 1.058,2.303 1.92,3.12 -0.011,0.731 0.507,0.933 0.72,1.44 0.527,0.913 0.899,1.98 1.68,2.64 0,0.08 0,0.16 0,0.24 0.636,1.044 1.059,2.302 1.921,3.12 -0.011,0.731 0.507,0.934 0.72,1.44 0.635,1.045 1.058,2.302 1.92,3.12 -0.011,0.731 0.507,0.933 0.72,1.44 0.348,0.692 0.656,1.424 1.2,1.92 0,0.08 0,0.16 0,0.24 0.832,1.248 1.353,2.807 2.4,3.84 -0.011,0.731 0.506,0.934 0.72,1.44 0.865,1.455 1.521,3.12 2.64,4.32 0,0.08 0,0.16 0,0.24 0.866,1.455 1.521,3.12 2.641,4.32 0,0.08 0,0.16 0,0.24 0.348,0.452 0.353,1.248 0.96,1.44 0,0.08 0,0.16 0,0.24 0.527,0.913 0.899,1.98 1.68,2.64 0,0.08 0,0.16 0,0.24 0.348,0.452 0.353,1.247 0.96,1.44 0,0.08 0,0.16 0,0.24 0.527,0.913 0.899,1.98 1.68,2.64 0,0.08 0,0.16 0,0.24 0.527,0.913 0.899,1.98 1.681,2.64 0,0.08 0,0.16 0,0.24 0.348,0.452 0.353,1.247 0.96,1.44 0,0.08 0,0.16 0,0.24 0.527,0.913 0.899,1.98 1.68,2.64 0,0.08 0,0.16 0,0.24 0.348,0.452 0.353,1.247 0.96,1.44 -0.011,0.731 0.507,0.933 0.72,1.44 0.866,1.455 1.521,3.12 2.641,4.32 0,0.08 0,0.16 0,0.24 0.348,0.452 0.353,1.247 0.96,1.44 0,0.08 0,0.16 0,0.24 0.527,0.913 0.899,1.98 1.68,2.64 0,0.08 0,0.16 0,0.24 0.348,0.452 0.353,1.247 0.96,1.44 -0.011,0.731 0.507,0.933 0.72,1.44 0.866,1.455 1.521,3.12 2.641,4.32 0,0.08 0,0.16 0,0.24 0.348,0.452 0.353,1.247 0.96,1.44 -0.011,0.731 0.507,0.934 0.72,1.44 0.636,1.045 1.058,2.303 1.92,3.12 0,0.08 0,0.16 0,0.24 0.527,0.913 0.899,1.98 1.68,2.64 0,0.08 0,0.16 0,0.24 0.349,0.452 0.354,1.247 0.96,1.44 -0.01,0.73 0.507,0.933 0.721,1.44 0.348,0.452 0.353,1.247 0.96,1.44 0,0.08 0,0.16 0,0.24 0.527,0.913 0.899,1.98 1.68,2.64 0,0.08 0,0.16 0,0.24 0.348,0.452 0.353,1.247 0.96,1.44 -0.011,0.731 0.507,0.933 0.72,1.44 0.636,1.045 1.058,2.302 1.921,3.12 -0.011,0.73 0.506,0.933 0.72,1.44 0.348,0.452 0.353,1.248 0.96,1.44 -0.011,0.731 0.507,0.934 0.72,1.44 0.636,1.045 1.058,2.303 1.92,3.12 -0.011,0.731 0.507,0.933 0.72,1.44 0.527,0.913 0.9,1.98 1.681,2.64 0,0.08 0,0.16 0,0.24 0.597,1.083 1.038,2.321 1.92,3.12 -0.067,0.388 0.227,0.413 0.24,0.72 0.831,1.248 1.353,2.807 2.399,3.84 -0.011,0.731 0.507,0.933 0.721,1.44 0.865,1.455 1.521,3.12 2.64,4.32 0,0.08 0,0.16 0,0.24 0.348,0.452 0.353,1.247 0.96,1.44 -0.011,0.731 0.507,0.934 0.72,1.44 0.865,1.455 1.521,3.12 2.641,4.32 0,0.08 0,0.16 0,0.24 0.635,1.045 1.058,2.302 1.92,3.12 -0.011,0.73 0.507,0.933 0.72,1.44 0.348,0.452 0.353,1.247 0.96,1.44 0,0.08 0,0.16 0,0.24 0.527,0.913 0.899,1.98 1.68,2.64 0,0.08 0,0.16 0,0.24 0.349,0.452 0.354,1.247 0.96,1.44 0,0.08 0,0.16 0,0.24 0.527,0.913 0.899,1.98 1.681,2.64 0,0.08 0,0.16 0,0.24 0.348,0.452 0.353,1.247 0.96,1.44 -0.011,0.73 0.507,0.933 0.72,1.44 0.865,1.455 1.521,3.12 2.64,4.32 0,0.08 0,0.16 0,0.24 0.349,0.452 0.354,1.247 0.96,1.44 -0.011,0.731 0.507,0.933 0.721,1.44 0.635,1.045 1.058,2.302 1.92,3.12 -0.011,0.73 0.507,0.933 0.72,1.44 0.348,0.452 0.353,1.247 0.96,1.44 0,0.08 0,0.16 0,0.24 0.527,0.913 0.899,1.98 1.68,2.64 0,0.08 0,0.16 0,0.24 0.349,0.452 0.354,1.247 0.96,1.44 -0.011,0.731 0.507,0.933 0.721,1.44 0.635,1.045 1.058,2.302 1.92,3.12 -0.011,0.73 0.507,0.933 0.72,1.44 0.348,0.692 0.656,1.424 1.2,1.92 0,0.08 0,0.16 0,0.24 0.832,1.248 1.353,2.807 2.399,3.84 0,0.08 0,0.16 0,0.24 0.527,0.913 0.9,1.98 1.681,2.64 0,0.08 0,0.16 0,0.239 0.348,0.452 0.353,1.248 0.96,1.44 -0.011,0.73 0.507,0.934 0.72,1.44 0.865,1.454 1.521,3.119 2.64,4.319 0,0.08 0,0.16 0,0.24 0.349,0.452 0.354,1.247 0.96,1.44 0,0.079 0.001,0.159 0,0.239 0.527,0.913 0.9,1.98 1.681,2.641 0,0.08 0,0.16 0,0.239 0.348,0.452 0.353,1.248 0.96,1.44 -0.011,0.73 0.507,0.934 0.72,1.44 0.865,1.454 1.521,3.119 2.64,4.319 0,0.08 0,0.16 0,0.24 0.349,0.452 0.354,1.247 0.961,1.44 -0.011,0.73 0.506,0.933 0.72,1.439 0.635,1.045 1.058,2.303 1.92,3.12 -0.011,0.73 0.507,0.934 0.72,1.44 1.192,2.008 2.154,4.246 3.601,6 -0.068,0.387 0.227,0.413 0.239,0.72 0.832,1.248 1.354,2.807 2.4,3.84 -0.011,0.73 0.507,0.934 0.72,1.44 0.527,0.912 0.899,1.98 1.681,2.64 0,0.08 0,0.16 0,0.24 0.635,1.044 1.058,2.302 1.92,3.12 -0.011,0.73 0.506,0.933 0.72,1.439 0.635,1.045 1.058,2.303 1.92,3.12 0.387,1.213 1.104,2.097 1.68,3.12 0.527,0.912 0.899,1.98 1.681,2.64 0,0.08 0,0.16 0,0.24 0.348,0.452 0.353,1.247 0.96,1.44 0,0.079 0,0.159 0,0.239 0.527,0.913 0.899,1.98 1.68,2.641 0,0.08 0,0.16 0,0.239 0.348,0.452 0.353,1.248 0.96,1.44 -0.011,0.73 0.507,0.934 0.72,1.44 0.866,1.454 1.521,3.119 2.641,4.319 0,0.08 0,0.16 0,0.24 0.348,0.452 0.353,1.247 0.96,1.44 0,0.079 0,0.16 0,0.239 0.527,0.913 0.899,1.98 1.68,2.641 0,0.08 0,0.16 0,0.239 0.348,0.452 0.353,1.248 0.96,1.44 -0.011,0.73 0.507,0.934 0.72,1.44 0.866,1.454 1.521,3.119 2.641,4.319 0,0.08 0,0.16 0,0.24 0.348,0.452 0.353,1.247 0.96,1.44 0,0.079 0,0.16 0,0.239 0.527,0.913 0.899,1.98 1.68,2.641 0,0.08 0,0.16 0,0.239 0.348,0.452 0.353,1.248 0.96,1.44 -0.011,0.73 0.507,0.934 0.72,1.44 0.636,1.044 1.058,2.302 1.92,3.119 -0.039,0.279 0.054,0.428 0.24,0.48 0.305,0.976 0.775,1.785 1.44,2.4 0,0.079 0,0.159 0,0.239 0.527,0.913 0.899,1.98 1.68,2.641 0,0.08 0,0.16 0,0.239 0.348,0.452 0.353,1.248 0.96,1.44 -0.011,0.73 0.507,0.934 0.72,1.44 0.866,1.454 1.521,3.119 2.641,4.319 0,0.08 0,0.16 0,0.24 0.348,0.452 0.353,1.247 0.96,1.44 0,0.079 0,0.16 0,0.239 0.527,0.913 0.899,1.98 1.68,2.641 0,0.08 0,0.16 0,0.239 0.348,0.452 0.353,1.248 0.96,1.44 -0.011,0.73 0.507,0.934 0.72,1.44 0.636,1.044 1.059,2.302 1.921,3.119 -0.011,0.731 0.506,0.934 0.72,1.44 0.348,0.452 0.353,1.247 0.96,1.44 0,0.079 0,0.16 0,0.239 0.527,0.913 0.899,1.98 1.68,2.641 0,0.08 0,0.16 0,0.239 0.348,0.452 0.353,1.248 0.96,1.44 -0.011,0.73 0.507,0.934 0.72,1.44 0.636,1.044 1.059,2.302 1.921,3.119 -0.039,0.279 0.053,0.428 0.239,0.48 0.305,0.976 0.775,1.785 1.44,2.4 -0.067,0.387 0.227,0.413 0.24,0.72 0.831,1.248 1.353,2.807 2.399,3.84 0,0.08 0,0.16 0,0.24 0.527,0.912 0.899,1.98 1.681,2.64 0,0.08 0,0.16 0,0.24 0.324,0.439 0.329,1.234 0.936,1.426 z"
         id="path11645" />
    </g>
  </g>
</svg>
