<?xml version="1.0" encoding="UTF-8" standalone="no"?>
<svg
   xmlns:dc="http://purl.org/dc/elements/1.1/"
   xmlns:cc="http://creativecommons.org/ns#"
   xmlns:rdf="http://www.w3.org/1999/02/22-rdf-syntax-ns#"
   xmlns:svg="http://www.w3.org/2000/svg"
   xmlns="http://www.w3.org/2000/svg"
   id="svg8"
   version="1.1"
   viewBox="0 0 16.933333 16.933333"
   height="64"
   width="64">
  <title
     id="title9790">oasis</title>
  <defs
     id="defs2" />
  <metadata
     id="metadata5">
    <rdf:RDF>
      <cc:Work
         rdf:about="">
        <dc:format>image/svg+xml</dc:format>
        <dc:type
           rdf:resource="http://purl.org/dc/dcmitype/StillImage" />
        <dc:title>oasis</dc:title>
      </cc:Work>
    </rdf:RDF>
  </metadata>
  <g
     transform="translate(0,-280.06667)"
     id="layer1">
    <g
       transform="matrix(0.04709014,0,0,0.04709014,1.4037325,282.73602)"
       id="g12874">
      <path
         style="fill:#242423"
         d="m 219.342,60.475 c 2.08,0 4.16,0 6.239,0 -0.984,0.796 -5.255,0.796 -6.239,0 z"
         id="path12306" />
      <path
         style="fill:#d7d7d7"
         d="M 54.715,17.278 C 63.998,6.847 77.426,3.287 94.072,0 c 1.28,0 2.56,0 3.84,0 0.079,1.359 -2.959,-0.398 -2.88,0.96 -4.253,0.066 -7.878,0.763 -11.039,1.92 -6.027,1.812 -11.672,4.006 -17.279,6.239 -1.393,0.368 -2.76,0.759 -3.358,1.92 -2.815,2.146 -5.612,4.308 -8.641,6.239 z"
         id="path12308" />
      <path
         style="fill:#d7d7d7"
         d="m 70.554,22.558 c -1.621,1.098 -11.204,2.762 -13.92,0 -0.41,-1.531 0.756,-1.484 0.961,-2.4 -2.169,0.545 -4.443,-1.284 -3.36,-2.399 0.533,1.548 2.642,1.519 4.8,1.439 -0.194,2.381 -2.591,2.938 0.48,3.84 3.404,1.475 7.405,-0.587 11.039,-0.48 z"
         id="path12310" />
      <path
         style="fill:#d7d7d7"
         d="m 73.434,22.078 c 0.077,-0.562 0.875,-0.405 1.439,-0.479 1.76,0 3.521,0 5.279,0 -0.061,1.327 -0.916,1.647 0.479,0.96 -0.276,1.163 -1.812,1.066 -2.88,1.439 0,-0.16 0,-0.32 0,-0.479 0.691,-0.27 1.171,-0.749 1.44,-1.44 -1.918,-0.001 -3.837,-0.001 -5.757,-0.001 z"
         id="path12312" />
      <path
         style="fill:#949494"
         d="m 78.713,29.277 c -0.155,-2.1 -3.052,-0.555 -2.399,0 -1.184,0.062 -2.312,0.073 -2.879,-0.479 -0.043,-3.243 1.212,-5.188 4.318,-5.279 0,0.159 0,0.319 0,0.479 -0.996,1.244 -3.468,1.011 -2.879,3.84 0.046,0.79 6.029,-1.154 3.839,1.439 z"
         id="path12314" />
      <path
         style="fill:#d7d7d7"
         d="m 114.23,36.477 c 0.013,0.467 0.587,0.373 0.96,0.479 0.203,1.003 -0.329,1.271 -0.48,1.92 0.116,0.845 0.826,1.095 1.92,0.96 0.108,0.691 1.434,0.167 1.44,0.96 -1.759,0.158 -2.667,-0.532 -3.84,-0.96 0.04,-0.76 -0.231,-1.831 0.479,-1.92 -0.979,-1.116 -5.451,-1.247 -3.359,-3.84 0,0.48 0,0.96 0,1.44 0.442,0.839 1.501,1.06 2.88,0.961 z"
         id="path12316" />
      <path
         style="fill:#d7d7d7"
         d="m 106.551,46.556 c 5.792,-0.511 13.591,1.126 18.238,3.359 -0.319,0 -0.64,0 -0.96,0 -0.76,-0.04 -1.831,0.23 -1.919,-0.479 -4.441,-1.639 -9.912,-2.247 -15.359,-2.88 z"
         id="path12318" />
      <path
         style="fill:#575757"
         d="m 50.876,49.916 c 8.3,-1.878 13.585,-3.837 23.038,-4.319 9.508,-0.398 19.469,-0.883 28.317,0.479 1.748,-0.148 3.124,0.076 4.319,0.48 5.446,0.633 10.917,1.24 15.359,2.88 -22.013,-5.073 -52.074,-5.032 -72.474,1.439 0.109,-0.69 1.434,-0.167 1.441,-0.959 z"
         id="path12320" />
      <path
         style="fill:#d7d7d7"
         d="m 44.636,52.795 c 0.676,-2.363 3.668,-2.411 6.239,-2.879 -0.007,0.792 -1.332,0.27 -1.439,0.96 -1.352,0.888 -3.162,1.318 -4.8,1.919 z"
         id="path12322" />
      <path
         style="fill:#d7d7d7"
         d="m 12.479,74.394 c 3.102,-5.059 7.438,-8.881 12.479,-11.999 -0.091,0.389 -0.48,0.478 -0.479,0.96 -0.617,0.821 -0.993,1.887 -2.4,1.919 -1.674,1.046 -3.283,2.157 -4.32,3.84 -0.407,-0.088 -0.452,0.187 -0.479,0.479 -2.155,1.048 -2.767,3.636 -4.801,4.801 z"
         id="path12324" />
      <path
         style="fill:#d7d7d7"
         d="M 4.8,88.792 C 4.885,84.718 6.347,82.02 9.119,80.633 7.369,83.042 6.31,86.143 4.8,88.792 Z"
         id="path12326" />
      <path
         style="fill:#d7d7d7"
         d="m 0,102.231 c 1.078,0.37 0.014,-3.733 0.96,-1.92 0.028,2.107 -0.192,3.967 -0.96,5.279 0,-1.119 0,-2.238 0,-3.359 z"
         id="path12328" />
      <path
         style="fill:#242423"
         d="m 97.912,0 c 1.12,0 2.24,0 3.359,0 -1.326,1.074 -3.805,0.995 -6.239,0.96 -0.079,-1.359 2.959,0.399 2.88,-0.96 z"
         id="path12330" />
      <path
         style="fill:#242423"
         d="m 149.268,11.519 c -1.461,0.021 -1.866,-1.014 -2.88,-1.44 0,-0.16 0,-0.32 0,-0.479 1.393,0.367 2.761,0.759 3.359,1.92 -0.16,-10e-4 -0.319,-10e-4 -0.479,-10e-4 z"
         id="path12332" />
      <path
         style="fill:#242423"
         d="m 156.947,17.278 c 2.44,2.04 4.68,4.279 6.719,6.72 -2.439,-2.04 -4.68,-4.279 -6.719,-6.72 z"
         id="path12334" />
      <path
         style="fill:#242423"
         d="m 172.786,41.276 c 0.159,0 0.319,0 0.479,0 2.48,1.188 3.619,-3.09 5.76,-3.839 -1.658,1.295 -3.918,6.316 -6.239,3.839 z"
         id="path12336" />
      <path
         style="fill:#575757"
         d="m 188.624,30.237 c -0.632,0.968 -1.575,1.624 -2.88,1.92 0.092,-0.389 0.482,-0.479 0.48,-0.96 0.916,-0.204 0.869,-1.371 2.4,-0.96 z"
         id="path12338" />
      <path
         style="fill:#242423"
         d="m 192.464,27.838 c -0.597,1.322 -2.45,1.389 -3.358,2.399 0.615,-1.302 1.424,-2.413 3.358,-2.399 z"
         id="path12340" />
      <path
         style="fill:#242423"
         d="m 285.097,18.718 c 5.654,3.305 9.865,8.053 13.919,12.959 0,0.16 0,0.32 0,0.48 -9.761,0 -19.52,0 -29.278,0 8.479,-1.119 19.038,-0.161 28.318,-0.48 -3.431,-5.208 -8.474,-8.805 -12.959,-12.959 z"
         id="path12342" />
      <path
         style="fill:#242423"
         d="m 276.457,65.754 c 3.566,2.833 6.509,6.291 9.601,9.6 0.645,0.955 0.914,2.285 1.438,3.359 -3.022,-4.976 -7.204,-8.795 -11.039,-12.959 z"
         id="path12344" />
      <path
         style="fill:#242423"
         d="m 282.696,118.07 c 0.932,-2.269 2.788,-3.611 3.84,-5.76 0.909,1.411 -1.875,3.229 -2.398,4.8 -0.632,0.17 -0.756,0.845 -1.442,0.96 z"
         id="path12346" />
      <path
         style="fill:#010101"
         d="m 282.696,118.07 c -0.434,0.846 -1.073,1.486 -1.92,1.92 -1.263,-0.497 -1.616,-1.903 -2.879,-2.4 0.088,-0.407 -0.188,-0.453 -0.48,-0.479 -0.757,-1.163 -1.717,-2.123 -2.88,-2.88 0,-0.16 0,-0.32 0,-0.48 -1.732,-2.586 -2.342,-6.298 -3.84,-9.119 0.533,-2.9 -3.161,-2.787 -3.359,-0.479 -0.467,0.013 -0.372,0.587 -0.479,0.96 -0.253,0.386 -0.5,0.779 -0.479,1.439 -1.04,1.065 -2.615,2.115 -3.84,0.48 0,-0.16 0,-0.32 0,-0.48 0.036,-2.275 -3.142,-1.338 -3.358,-3.359 -1.065,-2.135 -2.382,-4.019 -4.319,-5.279 -0.16,0 -0.32,0 -0.48,0 -0.973,-1.427 -2.407,-2.392 -4.318,-2.88 -1.328,-1.072 -2.933,-1.868 -4.801,-2.4 -0.639,-0.961 -2.131,-1.068 -3.358,-1.439 -1.022,-1.238 -3.794,-1.191 -3.84,0.96 -1.312,2.05 0.461,7.181 -1.44,8.639 -1.779,0.34 -2.06,-0.819 -3.839,-0.479 -0.202,-1.078 -2.547,-0.014 -2.88,-0.96 -1.072,-1.168 -3.134,-1.347 -4.8,-1.919 -0.775,0.135 -0.826,-0.454 -1.44,-0.48 -1.001,-0.758 -2.523,-0.996 -4.319,-0.96 -0.979,-1.102 -3.985,-0.174 -5.76,-0.48 -0.323,2.403 1.282,2.879 2.4,3.84 0.032,1.407 1.097,1.782 1.92,2.399 0.885,1.995 1.916,3.844 3.359,5.28 0.065,0.894 0.314,1.604 0.96,1.92 3.4,7.907 3.656,20.447 0,28.317 0,0.159 0,0.319 0,0.479 -1.277,2.722 -2.846,5.154 -3.841,8.159 -1.365,0.874 -1.843,2.637 -2.88,3.84 -1.753,2.886 -4.128,5.15 -6.238,7.679 -1.71,2.771 -5.011,3.949 -6.721,6.721 -1.406,0.031 -1.781,1.097 -2.398,1.92 -1.521,0.398 -2.439,1.398 -3.359,2.398 -0.16,0 -0.32,0 -0.479,0 -1.182,0.899 -2.658,1.501 -3.841,2.4 -1.698,1.021 -3.85,1.589 -5.278,2.88 -0.559,-0.078 -0.854,0.105 -0.96,0.479 -1.469,-0.349 -1.412,0.827 -2.88,0.479 0.077,-0.558 -0.105,-0.854 -0.479,-0.959 0.91,-3.444 -1.877,-2.451 -2.88,-2.88 0.088,-0.408 -0.188,-0.453 -0.48,-0.48 -0.768,-3.612 0.839,-6.951 1.92,-10.078 0.686,-0.916 1.116,-2.085 1.44,-3.359 2.401,-4.822 5.062,-11.865 3.359,-19.198 -0.559,-0.078 -0.854,0.105 -0.96,0.479 -1.488,-0.049 -2.293,0.587 -3.359,0.96 -2.285,1.234 -3.763,3.276 -7.2,3.358 -0.254,-0.386 -0.5,-0.778 -0.479,-1.438 1.566,0.059 1.963,-4.329 0,-2.399 -1.99,-0.131 -1.87,0.63 -3.359,0 -0.062,-0.86 0.587,-1.013 0.479,-1.92 1.491,-0.908 1.856,-2.941 2.399,-4.8 1.454,-3.187 1.839,-7.44 1.919,-11.999 -0.387,-0.333 -1.313,-0.747 -1.438,0 -1.561,0.041 -2.952,0.247 -3.84,0.96 -0.761,0.04 -1.83,-0.231 -1.921,0.48 -1.606,0.151 -3.024,0.493 -3.84,1.438 -2.153,0.266 -3.543,1.632 -4.799,-0.479 0.672,-2.912 -2.483,-1.995 -3.359,-3.359 -0.354,-2.274 0.539,-3.3 0.479,-5.28 -4.948,1.132 -6.332,5.827 -9.6,8.64 0.35,1.31 -0.954,0.966 -0.96,1.92 -0.428,0.213 -0.858,0.422 -0.96,0.96 -1.295,0.945 -2.297,2.184 -2.88,3.84 -1.284,1.115 -2.25,2.55 -2.88,4.318 -1.596,1.284 -2.143,3.616 -3.359,5.28 0.073,1.193 -0.754,1.485 -0.96,2.399 -1.346,0.895 -1.852,2.629 -2.399,4.318 0.021,1.461 -1.014,1.866 -1.44,2.881 -1.751,3.848 -3.264,7.936 -4.8,11.998 -0.25,3.109 -1.84,4.88 -2.399,7.681 -1.035,2.645 -1.993,5.366 -2.399,8.639 -0.869,1.853 -1.498,3.942 -1.439,6.72 -0.839,0.441 -1.061,1.501 -0.961,2.881 -1.851,7.429 -3.542,15.017 -4.319,23.518 -0.812,0.949 -0.524,2.996 -0.96,4.32 -1.497,10.502 -2.4,21.598 -3.84,32.156 -12.479,0 -24.958,0 -37.438,0 -0.385,-1.664 0.715,-1.845 0.48,-3.358 -0.698,-0.742 -2.457,-0.423 -3.84,-0.48 0,-1.12 0,-2.238 0,-3.358 1.018,-5.862 1.805,-11.954 2.399,-18.239 1.061,-0.06 0.204,-2.035 0.48,-2.879 1.139,-3.661 1.932,-7.668 2.399,-11.999 1.323,-3.478 2.054,-7.546 2.879,-11.521 0.922,-1.958 1.53,-4.229 1.92,-6.72 0.562,-0.077 0.405,-0.875 0.48,-1.438 1.119,-2.722 1.979,-5.699 2.88,-8.641 -0.135,-0.773 0.454,-0.826 0.48,-1.438 1.658,-3.461 2.895,-7.345 4.318,-11.039 0.686,-0.916 1.116,-2.084 1.44,-3.359 0.685,-0.916 1.116,-2.085 1.439,-3.359 0.645,-0.315 0.895,-1.025 0.96,-1.921 1.868,-2.932 3.468,-6.132 4.801,-9.599 2.302,-3.938 4.623,-7.855 6.719,-11.999 1.162,-0.918 2.033,-2.127 2.399,-3.84 2.732,-3.027 4.673,-6.847 7.199,-10.079 0,-0.16 0,-0.32 0,-0.479 1.294,-0.946 2.296,-2.185 2.88,-3.841 0.703,-0.417 1.521,-0.719 1.44,-1.92 0.584,-1.016 1.806,-1.394 1.92,-2.88 0.823,-0.617 1.887,-0.992 1.92,-2.398 0.702,-0.417 1.521,-0.72 1.439,-1.92 -1.734,-0.441 -3.876,2.833 -5.279,4.318 -0.582,1.178 -2.236,1.283 -2.4,2.88 -1.416,0.984 -2.667,2.134 -3.359,3.84 -0.554,1.386 -3.199,3.177 -4.8,1.921 0,-1.12 0,-2.24 0,-3.36 -1.119,0 -2.239,0 -3.359,0 0.061,-2.125 -2.499,-0.428 -2.88,0 -2.646,1.834 -4.886,4.074 -6.72,6.72 0,0.16 0,0.319 0,0.479 -2.079,1.438 -2.906,4.133 -4.319,6.238 -0.736,1.824 -1.825,3.295 -2.879,4.801 -0.411,1.509 -1.814,2.024 -1.92,3.84 -1.062,0.379 -1.201,1.679 -1.92,2.398 -3.254,-0.104 -3.757,-2.963 -5.761,-4.318 -2.28,-0.278 -2.555,-2.564 -3.358,-4.319 -0.25,-0.71 -0.71,-1.21 -0.96,-1.92 -0.854,0.266 -1.993,0.246 -2.4,0.96 -0.16,0 -0.32,0 -0.479,0 -1.642,0.919 -3.41,1.709 -4.32,3.359 -2.626,1.054 -3.926,3.433 -5.279,5.76 -1.782,1.578 -3.233,3.484 -4.32,5.76 -1.386,0.693 -1.852,2.308 -2.88,3.359 -0.774,0.136 -0.825,-0.453 -1.438,-0.479 -2.359,-3.562 -6.615,-5.225 -7.681,-10.08 -0.839,-2.04 -0.356,-5.4 -0.479,-8.159 0.719,-1.041 0.818,-2.7 0.96,-4.318 1.078,-0.202 0.013,-2.547 0.96,-2.88 0.917,-1.003 1.548,-2.292 1.92,-3.839 1.37,-1.351 2.533,-2.907 3.36,-4.801 2.76,-2.358 5.319,-4.919 7.679,-7.679 2.865,-1.614 5.297,-3.663 7.679,-5.76 1.305,-0.296 2.248,-0.952 2.88,-1.92 0.16,0 0.32,0 0.48,0 1.426,-0.975 3.315,-1.484 4.32,-2.879 0.16,0 0.319,0 0.479,0 3.213,-1.747 6.552,-3.367 9.6,-5.28 1.612,0.013 2.539,-0.661 3.359,-1.44 1.162,-0.598 2.331,-1.188 3.839,-1.439 1.807,-0.914 4.104,-1.337 5.761,-2.399 3.6,-1.359 7.856,-2.062 11.039,-3.84 -0.597,-1.817 -6.312,-1.031 -7.681,-0.479 -2.372,0.026 -4.326,0.474 -5.759,1.439 -0.681,-0.042 -1.359,-0.08 -1.44,0.48 -3.629,0.85 -6.619,2.34 -9.599,3.839 -0.558,-0.078 -0.854,0.105 -0.96,0.479 -1.7,0.062 -2.731,0.789 -3.84,1.44 -0.896,0.383 -1.758,0.802 -2.88,0.96 -0.682,-0.041 -1.359,-0.079 -1.439,0.479 -0.698,0.264 -2.48,-0.561 -2.399,0.48 -1.09,-0.511 -0.184,-3.017 -0.48,-4.32 -0.697,0.264 -2.48,-0.561 -2.4,0.48 -0.319,0 -0.64,0 -0.96,0 -0.659,-2.088 0.146,-2.675 0,-5.279 -2.326,0.073 -3.875,0.925 -5.278,1.92 -1.476,0.125 -2.159,1.041 -3.36,1.44 -1.203,1.037 -2.966,1.514 -3.84,2.879 -1.132,0.147 -0.894,1.667 -2.4,1.439 -2.684,2.116 -5.493,4.106 -7.679,6.721 -2.373,1.266 -5.732,5.503 -8.639,1.919 -0.093,-1.508 -0.893,-2.309 -2.4,-2.399 -0.56,-0.88 -1.254,-1.625 -1.92,-2.399 -1.192,-0.072 -1.992,0.247 -2.4,0.96 -0.558,-0.078 -0.854,0.105 -0.959,0.479 -1.304,0.296 -2.248,0.952 -2.88,1.92 -1.201,-0.082 -1.502,0.737 -1.92,1.439 -0.16,0 -0.319,0 -0.479,0 -4.757,4.203 -8.884,9.036 -13.919,12.959 -1.604,0.315 -2.348,1.493 -3.84,1.92 -0.82,-0.102 -1.242,0.817 -1.439,0 0,-1.28 0,-2.561 0,-3.84 -0.387,-0.333 -1.315,-0.747 -1.44,0 -1.122,0.157 -1.982,0.577 -2.88,0.96 0,-0.96 0,-1.919 0,-2.879 1.268,-1.934 1.271,-5.128 1.44,-8.16 0.719,-1.041 0.817,-2.701 0.96,-4.319 0.981,-2.218 1.645,-4.755 2.399,-7.2 1.511,-2.648 2.569,-5.75 4.319,-8.159 -0.26,-1.699 1.7,-1.18 1.44,-2.88 2.3,-2.659 4.8,-5.118 6.719,-8.158 0.027,-0.293 0.072,-0.568 0.479,-0.48 2.101,-0.621 3.019,-2.422 4.32,-3.84 1.407,-0.032 1.783,-1.097 2.4,-1.919 1.77,-0.631 3.205,-1.595 4.319,-2.88 0.16,0 0.32,0 0.479,0 0.909,-1.013 2.763,-1.077 3.36,-2.4 0.613,-0.026 0.664,-0.615 1.439,-0.479 1.376,-0.864 3.215,-1.266 4.32,-2.4 1.896,-0.984 4.117,-1.642 6.239,-2.4 1.638,-0.601 3.447,-1.03 4.8,-1.919 20.399,-6.472 50.461,-6.513 72.474,-1.439 0.089,0.71 1.16,0.439 1.919,0.479 2.636,1.043 5.538,1.822 8.64,2.399 0.826,-1.827 -1.151,-4.461 -2.399,-5.759 -0.658,-1.103 -1.978,-1.543 -2.88,-2.4 -0.737,-1.023 -2.132,-1.387 -3.36,-1.92 -0.613,-0.026 -0.665,-0.615 -1.439,-0.48 -1.675,-0.885 -3.214,-1.905 -5.76,-1.919 -2.509,0.044 0.492,-3.279 -2.399,-3.359 -0.406,-0.713 -1.545,-0.695 -2.4,-0.96 0,-0.48 0,-0.96 0,-1.44 0.374,-0.105 0.559,-0.401 0.48,-0.96 0.562,-0.078 0.404,-0.875 0.479,-1.439 -5.022,-1.698 -14.066,-1.929 -20.158,-0.96 -4.92,-0.281 -8.604,0.674 -12.959,0.96 -0.479,0 -0.96,0 -1.439,0 -0.396,-1.356 0.677,-1.243 0.479,-2.4 2.189,-2.593 -3.793,-0.649 -3.839,-1.439 -0.589,-2.828 1.883,-2.596 2.879,-3.84 1.067,-0.373 2.604,-0.276 2.88,-1.439 0.41,-2.811 -3.934,-0.866 -5.759,-1.44 -1.618,0.143 -3.278,0.241 -4.319,0.96 -4.001,-0.002 -6.603,1.398 -11.039,0.96 -3.071,-0.901 -0.675,-1.459 -0.48,-3.84 -2.158,0.079 -4.267,0.107 -4.8,-1.438 0.027,-0.294 0.072,-0.568 0.479,-0.48 3.028,-1.931 5.825,-4.094 8.641,-6.239 1.392,-0.367 2.76,-0.759 3.358,-1.92 5.606,-2.232 11.252,-4.427 17.279,-6.239 3.882,-0.438 7.575,-1.063 11.039,-1.92 2.435,0.035 4.914,0.114 6.239,-0.96 3.2,0 6.398,0 9.599,0 5.203,1.518 11.617,1.822 17.279,2.88 2.765,1.234 6.148,1.851 9.119,2.881 1.089,0.99 3.179,0.98 4.319,1.919 0.16,0 0.32,0 0.48,0 1.104,1.135 2.942,1.535 4.319,2.399 1.014,0.427 1.419,1.461 2.88,1.44 0.632,0.968 1.575,1.624 2.88,1.92 0.417,0.703 0.719,1.521 1.92,1.439 0.573,1.188 1.644,1.876 2.88,2.399 2.039,2.44 4.279,4.68 6.719,6.72 0.169,1.591 1.438,2.082 2.4,2.88 0.63,1.77 1.595,3.204 2.88,4.319 0.968,2.712 2.271,5.089 3.359,7.68 -0.396,1.356 0.677,1.243 0.479,2.399 2.321,2.477 4.581,-2.544 6.239,-3.839 2.438,-1.562 4.792,-3.208 6.719,-5.28 1.305,-0.296 2.248,-0.952 2.88,-1.92 0.16,0 0.32,0 0.48,0 0.907,-1.011 2.763,-1.077 3.358,-2.399 1.462,0.021 1.866,-1.014 2.88,-1.439 2.649,-1.352 5.268,-2.733 7.681,-4.32 1.658,-0.421 3.324,-0.835 4.318,-1.92 0.16,0 0.32,0 0.48,0 2.646,-1.19 5.643,-2.036 8.159,-3.358 0.16,0 0.318,0 0.479,0 14.359,-5.16 35.246,-9.035 53.275,-4.801 1.894,1.146 4.656,1.424 6.72,2.4 0.16,0 0.32,0 0.48,0 1.104,1.135 2.942,1.536 4.318,2.4 1.823,0.096 1.821,2.018 3.84,1.919 4.485,4.152 9.528,7.75 12.959,12.959 -9.279,0.318 -19.838,-0.64 -28.317,0.479 -0.681,-0.041 -1.358,-0.079 -1.439,0.48 -1.047,-0.087 -1.526,0.393 -1.439,1.439 -1.481,1.669 0.525,3.934 0,6.239 -3.024,-0.501 -7.74,-1.849 -11.039,-0.479 -2.33,-0.091 -3.901,0.578 -5.279,1.439 -5.556,0.844 -9.286,3.513 -16.318,2.88 -0.023,2.104 -0.336,4.496 1.439,4.8 0.219,2.022 2.347,2.134 3.36,3.359 0.29,1.149 0.688,2.189 0.479,3.84 -7.311,-1.291 -15.341,0.149 -20.158,2.88 -0.558,-0.078 -0.854,0.106 -0.96,0.48 -0.177,0.815 0.374,0.904 0.96,0.96 0.984,0.796 5.255,0.796 6.239,0 13.011,-0.057 25.851,-2.827 38.397,-0.48 4.686,1.395 8.813,3.344 12.479,5.759 3.835,4.164 8.018,7.982 11.039,12.959 0.838,1.402 0.953,3.527 1.92,4.801 -0.041,0.681 -0.079,1.358 0.48,1.439 0.767,4.514 1.227,9.332 0.959,14.878 -0.901,1.658 -0.714,4.406 -1.439,6.24 -0.991,1.089 -0.98,3.178 -1.92,4.319 -0.25,0.71 -0.71,1.21 -0.96,1.92 -1.052,2.137 -2.908,3.48 -3.84,5.748 z"
         id="path12348" />
      <path
         style="fill:#575757"
         d="m 277.897,117.59 c 1.263,0.497 1.616,1.903 2.879,2.4 -1.113,1.237 -2.412,-1.399 -2.879,-2.4 z"
         id="path12350" />
      <path
         style="fill:#242423"
         d="m 274.537,114.23 c 1.163,0.757 2.123,1.717 2.88,2.88 -1.507,0.227 -1.268,-1.292 -2.398,-1.44 0.133,-0.774 -0.456,-0.826 -0.482,-1.44 z"
         id="path12352" />
      <path
         style="fill:#575757"
         d="m 262.538,106.551 c -1.829,0.23 -0.978,-2.222 -3.358,-1.439 -0.066,-0.895 -0.315,-1.604 -0.961,-1.92 0,-0.16 0,-0.32 0,-0.48 0.39,0.091 0.479,0.481 0.961,0.48 0.216,2.021 3.394,1.083 3.358,3.359 z"
         id="path12354" />
      <path
         style="fill:#242423"
         d="m 258.219,102.711 c -0.447,-2.271 -2.346,-3.094 -3.358,-4.799 1.938,1.261 3.254,3.146 4.319,5.279 -0.483,0.002 -0.573,-0.389 -0.961,-0.48 z"
         id="path12356" />
      <path
         style="fill:#242423"
         d="m 254.379,97.912 c -1.399,-0.52 -1.807,-2.034 -3.84,-1.92 -0.091,-0.389 -0.48,-0.479 -0.479,-0.96 1.911,0.489 3.346,1.453 4.319,2.88 z"
         id="path12358" />
      <path
         style="fill:#242423"
         d="m 215.982,99.352 c -1.118,-0.961 -2.725,-1.437 -2.4,-3.839 1.773,0.306 4.781,-0.622 5.76,0.479 -0.479,0 -0.96,0 -1.438,0 -4.648,-0.922 -3.926,1.696 -1.922,3.36 z"
         id="path12360" />
      <path
         style="fill:#242423"
         d="m 221.262,107.031 c -1.443,-1.437 -2.476,-3.285 -3.359,-5.28 1.233,0.046 0.686,1.874 1.92,1.92 0.644,0.955 0.913,2.285 1.439,3.36 z"
         id="path12362" />
      <path
         style="fill:#242423"
         d="m 196.784,168.466 c 0.92,-1 1.839,-2 3.359,-2.398 -0.093,0.389 -0.481,0.479 -0.48,0.96 -0.746,0.691 -1.87,1.007 -2.879,1.438 z"
         id="path12364" />
      <path
         style="fill:#242423"
         d="m 192.464,170.866 c 1.183,-0.899 2.659,-1.501 3.841,-2.4 -0.525,1.715 -2.604,1.876 -3.841,2.881 0,-0.161 0,-0.322 0,-0.481 z"
         id="path12366" />
      <path
         style="fill:#575757"
         d="m 186.225,174.226 c 1.377,0.656 -3.486,1.886 -3.359,0 0,-0.16 0,-0.32 0,-0.479 0.374,0.105 0.558,0.401 0.479,0.959 1.467,0.348 1.412,-0.828 2.88,-0.48 z"
         id="path12368" />
      <path
         style="fill:#575757"
         d="m 170.386,139.188 c -0.767,-0.722 0.014,-2.021 0.96,-2.399 0.106,0.907 -0.541,1.06 -0.479,1.92 1.489,0.63 1.369,-0.131 3.359,0 -0.593,0.688 -1.65,0.909 -2.88,0.959 -0.389,-0.091 -0.479,-0.481 -0.96,-0.48 z"
         id="path12370" />
      <path
         style="fill:#242423"
         d="m 174.226,119.99 c 0.125,-0.747 1.053,-0.333 1.438,0 -0.08,4.559 -0.465,8.812 -1.919,11.999 -0.377,-1.978 0.736,-2.463 0.479,-4.319 1.082,-0.356 0.188,-2.691 0.479,-3.84 0.891,-0.459 0.813,-3.973 -0.477,-3.84 z"
         id="path12372" />
      <path
         style="fill:#242423"
         d="m 142.548,129.109 c 0.583,-1.656 1.585,-2.895 2.879,-3.84 -0.538,1.221 -1.179,2.341 -1.919,3.358 -0.388,0.094 -0.478,0.484 -0.96,0.482 z"
         id="path12374" />
      <path
         style="fill:#242423"
         d="m 132.949,145.427 c 0.549,-1.689 1.055,-3.425 2.399,-4.318 -0.323,1.916 -1.605,2.872 -2.399,4.318 z"
         id="path12376" />
      <path
         style="fill:#242423"
         d="m 91.672,156.467 c 1.154,-3.33 3.53,-7.981 4.801,-9.599 -1.333,3.467 -2.933,6.667 -4.801,9.599 z"
         id="path12378" />
      <path
         style="fill:#242423"
         d="m 103.191,134.869 c -0.115,-2.035 2.035,-1.806 1.92,-3.84 0.16,0 0.32,0 0.479,0 -0.366,1.713 -1.236,2.922 -2.399,3.84 z"
         id="path12380" />
      <path
         style="fill:#242423"
         d="m 115.67,116.63 c -0.584,1.656 -1.586,2.895 -2.88,3.84 0.362,-1.397 1.141,-2.38 1.92,-3.359 0.389,-0.092 0.479,-0.482 0.96,-0.481 z"
         id="path12382" />
      <path
         style="fill:#242423"
         d="m 120.95,109.431 c 0.169,-0.631 0.845,-0.756 0.96,-1.44 -2.349,0.531 -2.846,2.914 -4.8,3.839 1.403,-1.486 3.545,-4.761 5.279,-4.319 0.082,1.201 -0.737,1.503 -1.439,1.92 z"
         id="path12384" />
      <path
         style="fill:#242423"
         d="m 111.351,118.55 c 0.692,-1.707 1.943,-2.855 3.359,-3.84 -0.96,1.44 -1.802,2.998 -3.359,3.84 z"
         id="path12386" />
      <path
         style="fill:#242423"
         d="m 89.272,130.549 c 1.413,-2.105 2.24,-4.8 4.319,-6.238 0,0.159 0,0.319 0,0.479 -1.669,1.689 -2.184,4.534 -4.319,5.759 z"
         id="path12388" />
      <path
         style="fill:#242423"
         d="m 84.473,139.188 c 0.104,-1.814 1.509,-2.331 1.92,-3.84 2.141,-1.062 -0.277,1.507 -0.48,2.399 -1.107,-0.145 -0.533,1.388 -1.44,1.441 z"
         id="path12390" />
      <path
         style="fill:#575757"
         d="m 76.793,137.269 c 2.004,1.355 2.506,4.214 5.761,4.318 -0.078,0.562 -0.875,0.405 -1.44,0.48 -2.388,-0.651 -3.042,-3.038 -4.321,-4.798 z"
         id="path12392" />
      <path
         style="fill:#242423"
         d="m 65.274,135.349 c 0.91,-1.65 2.679,-2.44 4.32,-3.359 -0.481,1.278 -1.938,1.582 -2.881,2.399 -0.629,0.17 -0.754,0.844 -1.439,0.96 z"
         id="path12394" />
      <path
         style="fill:#242423"
         d="m 50.396,115.67 c 0.141,-0.979 1.298,-0.94 1.439,-1.92 1.642,-1.239 3.081,-2.678 4.319,-4.318 0.979,-0.143 0.941,-1.3 1.92,-1.44 -2.358,2.759 -4.918,5.319 -7.678,7.678 z"
         id="path12396" />
      <path
         style="fill:#575757"
         d="m 68.634,100.312 c -0.632,0.968 -1.575,1.624 -2.88,1.92 0.092,-0.39 0.481,-0.479 0.48,-0.96 0.916,-0.205 0.869,-1.372 2.4,-0.96 z"
         id="path12398" />
      <path
         style="fill:#242423"
         d="m 73.434,97.432 c -1.005,1.395 -2.895,1.904 -4.32,2.879 0.21,-2.19 2.887,-1.912 4.32,-2.879 z"
         id="path12400" />
      <path
         style="fill:#575757"
         d="m 68.634,88.312 c -0.08,-1.041 1.703,-0.218 2.4,-0.48 0.297,1.303 -0.609,3.81 0.48,4.32 -0.081,-1.041 1.701,-0.217 2.399,-0.48 -0.79,0.615 -2.604,1.243 -3.359,0.48 0,-1.28 0,-2.561 0,-3.84 -0.64,0 -1.28,0 -1.92,0 z"
         id="path12402" />
      <path
         style="fill:#242423"
         d="m 36.477,99.352 c 2.906,3.583 6.266,-0.653 8.639,-1.919 -0.169,0.63 -0.845,0.755 -0.96,1.439 -0.919,1.633 -7.049,4.438 -7.679,0.48 z"
         id="path12404" />
      <path
         style="fill:#242423"
         d="m 9.599,112.311 c 5.035,-3.923 9.162,-8.756 13.919,-12.959 -2.277,3.002 -5.402,5.156 -7.68,8.159 -1.321,0.919 -2.441,2.038 -3.359,3.359 -1.172,0.268 -1.022,1.858 -2.88,1.441 z"
         id="path12406" />
      <path
         style="fill:#242423"
         d="m 2.88,110.391 c 0.125,-0.747 1.054,-0.333 1.44,0 0,1.279 0,2.56 0,3.84 -1.526,-0.234 0.807,-4.327 -1.44,-3.84 z"
         id="path12408" />
      <path
         style="fill:#242423"
         d="m 12.479,74.394 c 2.034,-1.166 2.646,-3.753 4.799,-4.801 -1.919,3.041 -4.419,5.5 -6.719,8.159 0.362,-1.397 1.14,-2.378 1.92,-3.358 z"
         id="path12410" />
      <path
         style="fill:#242423"
         d="m 22.078,65.274 c -1.302,1.418 -2.22,3.219 -4.32,3.84 1.037,-1.682 2.646,-2.794 4.32,-3.84 z"
         id="path12412" />
      <path
         style="fill:#242423"
         d="m 24.958,62.395 c 1.814,-0.105 2.331,-1.51 3.84,-1.92 -1.114,1.284 -2.55,2.249 -4.319,2.88 -0.002,-0.482 0.388,-0.571 0.479,-0.96 z"
         id="path12414" />
      <path
         style="fill:#242423"
         d="m 32.637,58.075 c -0.598,1.323 -2.451,1.388 -3.36,2.4 0.618,-1.303 1.427,-2.413 3.36,-2.4 z"
         id="path12416" />
      <path
         style="fill:#242423"
         d="m 123.83,42.236 c 1.229,0.533 2.623,0.896 3.36,1.92 -1.57,-0.19 -3.104,-0.416 -3.36,-1.92 z"
         id="path12418" />
      <path
         style="fill:#242423"
         d="m 114.23,36.477 c 2.892,0.08 -0.109,3.403 2.399,3.359 -1.094,0.135 -1.804,-0.115 -1.92,-0.96 0.151,-0.648 0.684,-0.917 0.48,-1.92 -0.371,-0.106 -0.945,-0.012 -0.959,-0.479 z"
         id="path12420" />
      <path
         style="fill:#575757"
         d="m 63.355,11.039 c 0.599,-1.161 1.967,-1.552 3.358,-1.92 -0.598,1.161 -1.966,1.553 -3.358,1.92 z"
         id="path12422" />
      <path
         style="fill:#d7d7d7"
         d="m 280.776,15.839 c 8.707,2.973 13.24,10.118 19.199,15.838 0,0.48 0,0.961 0,1.44 -10.69,0.829 -24.778,-1.739 -33.118,1.44 0,-0.16 0,-0.32 0,-0.48 -0.087,-1.047 0.394,-1.527 1.439,-1.439 9.291,-1.606 22.52,2.168 30.719,0 0.593,-0.157 0.49,-0.926 0,-0.961 -4.054,-4.906 -8.265,-9.654 -13.919,-12.959 -2.02,0.1 -2.018,-1.823 -3.841,-1.919 -0.089,-0.389 -0.48,-0.479 -0.479,-0.96 z"
         id="path12424" />
      <path
         style="fill:#d7d7d7"
         d="m 269.737,11.999 c 2.254,-0.704 5.986,0.108 6.72,2.4 -2.063,-0.976 -4.826,-1.253 -6.72,-2.4 z"
         id="path12426" />
      <path
         style="fill:#d7d7d7"
         d="m 225.102,13.439 c -0.16,0 -0.32,0 -0.48,0 5.033,-1.847 10.587,-3.172 17.279,-3.36 -5.653,1.068 -11.398,2.042 -16.799,3.36 z"
         id="path12428" />
      <path
         style="fill:#d7d7d7"
         d="m 195.344,26.398 c 1.163,-2.997 4.522,-3.797 7.681,-4.8 0,0.159 0,0.319 0,0.479 -2.415,1.588 -5.032,2.97 -7.681,4.321 z"
         id="path12430" />
      <path
         style="fill:#d7d7d7"
         d="m 173.266,41.276 c 4.714,-2.965 7.572,-7.785 12.959,-10.079 0.002,0.48 -0.39,0.571 -0.48,0.96 -1.927,2.072 -4.281,3.717 -6.719,5.28 -2.14,0.75 -3.279,5.028 -5.76,3.839 z"
         id="path12432" />
      <path
         style="fill:#d7d7d7"
         d="m 151.667,12.479 c 7.392,4.769 13.589,10.729 17.759,18.718 -0.159,0 -0.319,0 -0.479,0 -1.285,-1.115 -2.25,-2.55 -2.88,-4.319 -3.158,-4.842 -6.958,-9.041 -11.999,-11.999 -1.201,0.081 -1.503,-0.736 -1.92,-1.439 -0.091,-0.39 -0.482,-0.48 -0.481,-0.961 z"
         id="path12434" />
      <path
         style="fill:#d7d7d7"
         d="m 121.91,1.44 c 5.312,-0.35 12.339,1.736 16.318,4.319 -0.32,0 -0.641,0 -0.96,0 -2.971,-1.029 -6.354,-1.646 -9.119,-2.88 -1.621,-0.938 -3.95,-1.169 -6.239,-1.439 z"
         id="path12436" />
      <path
         style="fill:#575757"
         d="m 142.068,7.679 c 2.123,-0.044 3.464,0.695 4.319,1.92 0,0.159 0,0.319 0,0.479 -1.375,-0.863 -3.214,-1.264 -4.319,-2.399 z"
         id="path12438" />
      <path
         style="fill:#575757"
         d="m 149.748,11.519 c 1.31,-0.351 0.966,0.954 1.919,0.96 -0.001,0.48 0.391,0.57 0.48,0.96 -1.305,-0.296 -2.248,-0.952 -2.88,-1.92 0.161,0 0.32,0 0.481,0 z"
         id="path12440" />
      <path
         style="fill:#575757"
         d="m 276.938,14.399 c 2.297,-0.537 2.336,1.184 3.839,1.439 -10e-4,0.481 0.39,0.571 0.479,0.96 -1.375,-0.863 -3.214,-1.264 -4.318,-2.399 z"
         id="path12442" />
      <path
         style="fill:#949494"
         d="m 154.067,14.879 c 5.041,2.958 8.841,7.157 11.999,11.999 -0.963,-0.798 -2.231,-1.289 -2.4,-2.88 -2.039,-2.439 -4.277,-4.68 -6.719,-6.72 -1.236,-0.523 -2.306,-1.213 -2.88,-2.399 z"
         id="path12444" />
      <path
         style="fill:#575757"
         d="m 74.874,21.598 c 0,-0.16 0,-0.32 0,-0.48 1.826,0.574 6.169,-1.37 5.759,1.44 -1.396,0.688 -0.54,0.367 -0.479,-0.96 -1.76,0 -3.52,0 -5.28,0 z"
         id="path12446" />
      <path
         style="fill:#d7d7d7"
         d="m 115.67,207.823 c 0.928,1.429 0.274,5.377 -0.96,6.239 0.404,-1.196 0.628,-2.571 0.48,-4.32 0.652,-0.148 0.399,-1.201 0.48,-1.919 z"
         id="path12448" />
      <path
         style="fill:#575757"
         d="m 119.51,186.225 c -1.03,9.165 -2.034,13.919 -3.84,21.599 -0.082,0.718 0.171,1.771 -0.479,1.919 0.777,-8.502 2.469,-16.09 4.319,-23.518 z"
         id="path12450" />
      <path
         style="fill:#d7d7d7"
         d="m 121.91,176.625 c 0.727,2.037 -0.036,5.363 -1.439,6.721 -0.059,-2.779 0.571,-4.869 1.439,-6.721 z"
         id="path12452" />
      <path
         style="fill:#d7d7d7"
         d="m 143.508,128.629 c -1.124,2.396 -2.397,4.643 -4.319,6.24 -0.135,-0.775 0.454,-0.826 0.479,-1.439 0.63,-1.771 1.596,-3.204 2.88,-4.319 0.482,0 0.572,-0.39 0.96,-0.482 z"
         id="path12454" />
      <path
         style="fill:#d7d7d7"
         d="m 147.348,122.39 c 3.236,-2.042 5.674,-4.886 8.158,-7.68 1.041,-0.081 0.219,1.703 0.48,2.4 -1.188,1.392 -0.847,0.572 -0.48,-0.96 -2.839,1.004 -5.879,5.957 -9.118,8.159 0.006,-0.954 1.309,-0.61 0.96,-1.919 z"
         id="path12456" />
      <path
         style="fill:#d7d7d7"
         d="m 165.106,122.87 c -0.705,2.481 -5.585,2.534 -5.76,-0.479 0.159,0 0.319,0 0.479,0 1.256,2.111 2.646,0.745 4.799,0.479 0.162,0 0.322,0 0.482,0 z"
         id="path12458" />
      <path
         style="fill:#d7d7d7"
         d="m 170.386,139.188 c -0.538,-0.103 -0.747,-0.532 -0.961,-0.96 1.729,-1.791 2.202,-4.838 4.32,-6.239 -0.543,1.857 -0.908,3.892 -2.399,4.8 -0.947,0.378 -1.726,1.679 -0.96,2.399 z"
         id="path12460" />
      <path
         style="fill:#949494"
         d="m 171.346,139.668 c 1.229,-0.05 2.287,-0.271 2.88,-0.959 1.963,-1.93 1.566,2.458 0,2.399 1.605,-2.178 -1.852,0.829 -0.479,-0.48 1.498,-2.229 -1.866,0.678 -2.401,-0.96 z"
         id="path12462" />
      <path
         style="fill:#949494"
         d="m 182.865,174.226 c -0.324,-2.236 -4.041,-1.079 -3.84,-3.841 0.16,0 0.32,0 0.479,0 0.293,0.027 0.568,0.072 0.48,0.48 1.003,0.429 3.79,-0.564 2.88,2.88 0.001,0.16 0.001,0.32 0.001,0.481 z"
         id="path12464" />
      <path
         style="fill:#d7d7d7"
         d="m 211.183,156.947 c -3.386,3.813 -6.909,7.489 -11.521,10.079 -0.001,-0.481 0.389,-0.571 0.48,-0.96 0.616,-0.823 0.991,-1.889 2.398,-1.92 3.62,-1.663 5.658,-4.904 8.643,-7.199 z"
         id="path12466" />
      <path
         style="fill:#d7d7d7"
         d="m 222.222,137.749 c -0.049,4.111 -1.769,6.552 -3.841,8.64 0,-0.16 0,-0.319 0,-0.479 0.996,-3.007 2.563,-5.439 3.841,-8.161 z"
         id="path12468" />
      <path
         style="fill:#d7d7d7"
         d="m 225.102,116.63 c 0.719,0.439 2.078,8.851 0,10.56 1.143,-3.356 -0.096,-6.836 0,-10.56 z"
         id="path12470" />
      <path
         style="fill:#d7d7d7"
         d="m 219.822,103.671 c -1.234,-0.046 -0.688,-1.874 -1.92,-1.92 -0.823,-0.617 -1.888,-0.992 -1.92,-2.399 -2.005,-1.664 -2.728,-4.282 1.92,-3.359 -0.062,1.06 -2.036,0.204 -2.88,0.48 0.194,1.894 4.129,4.182 4.8,7.198 z"
         id="path12472" />
      <path
         style="fill:#d7d7d7"
         d="m 238.54,92.152 c 1.843,6.191 -2.28,12.351 -5.759,8.639 1.545,-0.104 2.03,0.85 3.839,0.48 2.44,-1.08 1.092,-5.947 1.44,-9.119 0.161,0 0.321,0 0.48,0 z"
         id="path12474" />
      <path
         style="fill:#d7d7d7"
         d="m 250.539,95.992 c -1.805,-0.888 -5.822,-1.674 -5.279,-3.36 1.868,0.532 3.473,1.328 4.801,2.4 -0.003,0.482 0.387,0.572 0.478,0.96 z"
         id="path12476" />
      <path
         style="fill:#d7d7d7"
         d="m 267.338,104.151 c 0.854,-0.426 1.221,-1.34 2.88,-0.96 -0.04,0.681 -0.078,1.358 0.479,1.439 1.498,2.821 2.106,6.533 3.84,9.119 -2.683,-2.275 -3.774,-6.143 -4.8,-10.079 -1.95,-0.452 -1.477,2.786 -2.88,1.44 0.109,-0.371 0.014,-0.945 0.481,-0.959 z"
         id="path12478" />
      <path
         style="fill:#d7d7d7"
         d="m 284.137,117.11 c -0.686,1.875 -1.966,3.155 -3.841,3.84 -2.121,-1.398 -3.812,-3.228 -5.278,-5.28 1.132,0.148 0.893,1.667 2.398,1.44 0.293,0.027 0.568,0.072 0.48,0.479 0.467,1 1.766,3.638 2.879,2.4 0.847,-0.434 1.486,-1.074 1.92,-1.92 0.687,-0.114 0.811,-0.789 1.442,-0.959 z"
         id="path12480" />
      <path
         style="fill:#d7d7d7"
         d="m 289.416,83.513 c 3.164,1.365 3.698,19.381 0,23.037 0,-0.159 0,-0.319 0,-0.479 0.727,-1.834 0.538,-4.582 1.439,-6.24 1.054,-4.418 0.612,-11.488 -0.959,-14.878 -0.559,-0.081 -0.521,-0.759 -0.48,-1.44 z"
         id="path12482" />
      <path
         style="fill:#d7d7d7"
         d="m 286.057,75.354 c -3.092,-3.31 -6.033,-6.767 -9.601,-9.6 -3.664,-2.415 -7.793,-4.364 -12.479,-5.759 -0.078,-0.562 -0.875,-0.405 -1.44,-0.479 10.748,0.452 18.433,8.125 23.52,15.838 z"
         id="path12484" />
      <path
         style="fill:#d7d7d7"
         d="m 239.98,44.635 c 1.043,0.921 -3.51,0.304 -4.8,0.48 -0.427,4.585 4.023,4.295 4.8,7.679 -0.39,-0.091 -0.479,-0.48 -0.96,-0.479 -1.015,-1.227 -3.143,-1.337 -3.36,-3.359 -0.692,-1.067 -1.205,-2.313 -0.96,-4.32 1.76,-0.001 3.521,-0.001 5.28,-0.001 z"
         id="path12486" />
      <path
         style="fill:#d7d7d7"
         d="m 263.498,40.316 c -6.075,-0.635 -9.734,1.144 -14.397,1.92 0.107,-0.691 1.433,-0.167 1.438,-0.96 1.378,-0.862 2.949,-1.531 5.279,-1.439 2.409,0.311 6.07,-0.629 7.68,0.479 z"
         id="path12488" />
      <path
         style="fill:#575757"
         d="m 266.857,34.557 c 0.059,2.061 1.196,4.928 0,6.719 -1.755,0.315 -1.841,-1.038 -3.359,-0.96 -1.609,-1.109 -5.271,-0.168 -7.68,-0.479 3.299,-1.37 8.015,-0.021 11.039,0.479 0.525,-2.308 -1.481,-4.57 0,-6.239 0,0.16 0,0.32 0,0.48 z"
         id="path12490" />
      <path
         style="fill:#575757"
         d="m 124.79,49.916 c 2.915,-0.035 4.218,1.541 7.2,1.44 -0.241,-1.999 -1.679,-2.801 -1.92,-4.8 1.248,1.298 3.226,3.933 2.4,5.759 -3.103,-0.578 -6.004,-1.356 -8.641,-2.399 0.321,0 0.641,0 0.961,0 z"
         id="path12492" />
      <path
         style="fill:#575757"
         d="m 34.077,57.594 c 0.494,-1.745 2.333,-2.146 4.32,-2.399 -1.105,1.136 -2.944,1.536 -4.32,2.399 z"
         id="path12494" />
      <path
         style="fill:#949494"
         d="m 219.342,59.035 c 0.16,0 0.32,0 0.48,0 -1.29,1.885 4.032,0.568 5.759,0.96 0,0.16 0,0.32 0,0.48 -2.079,0 -4.159,0 -6.239,0 -0.586,-0.056 -1.137,-0.145 -0.96,-0.96 0.106,-0.374 0.402,-0.558 0.96,-0.48 z"
         id="path12496" />
      <path
         style="fill:#d7d7d7"
         d="m 95.512,86.873 c 1.963,-2.037 5.503,-2.497 8.639,-3.359 -0.76,-1 -3.358,-0.162 -4.32,-0.961 1.368,-0.551 7.084,-1.337 7.681,0.48 -3.183,1.778 -7.439,2.48 -11.039,3.84 -0.321,0 -0.641,0 -0.961,0 z"
         id="path12498" />
      <path
         style="fill:#d7d7d7"
         d="m 73.914,97.432 c 1.936,-3.186 5.729,-4.512 9.6,-5.761 0,0.16 0,0.32 0,0.48 -3.048,1.914 -6.387,3.535 -9.6,5.281 z"
         id="path12500" />
      <path
         style="fill:#d7d7d7"
         d="m 54.235,110.871 c 3.309,-3.89 7.249,-7.149 11.999,-9.599 0.001,0.48 -0.389,0.57 -0.48,0.96 -2.382,2.097 -4.813,4.146 -7.679,5.76 -0.979,0.141 -0.941,1.298 -1.92,1.44 -0.691,0.269 -1.171,0.749 -1.44,1.438 -0.159,10e-4 -0.319,10e-4 -0.48,10e-4 z"
         id="path12502" />
      <path
         style="fill:#d7d7d7"
         d="m 46.556,120.469 c 1.389,-3.729 3.918,-6.32 6.719,-8.64 -0.142,0.979 -1.298,0.941 -1.439,1.92 -0.142,0.979 -1.299,0.941 -1.439,1.92 -0.827,1.894 -1.99,3.45 -3.36,4.8 -0.161,0 -0.321,0 -0.481,0 z"
         id="path12504" />
      <path
         style="fill:#d7d7d7"
         d="m 51.356,149.748 c -7.236,-2.064 -12.293,-14.29 -7.2,-22.559 -0.142,1.618 -0.241,3.277 -0.96,4.318 -0.645,1.62 -1.204,7.272 0.479,8.159 1.066,4.857 5.322,6.521 7.681,10.082 z"
         id="path12506" />
      <path
         style="fill:#d7d7d7"
         d="m 71.034,131.989 c -6.378,3.861 -10.393,10.085 -15.359,15.358 0,-0.16 0,-0.32 0,-0.479 1.085,-2.274 2.538,-4.182 4.32,-5.76 2.44,-2.039 4.68,-4.279 6.719,-6.72 0.943,-0.817 2.399,-1.121 2.88,-2.399 0.16,0 0.32,0 0.48,0 0.32,0 0.64,0 0.96,0 z"
         id="path12508" />
      <path
         style="fill:#d7d7d7"
         d="m 85.913,137.749 c -0.715,2.017 -2.215,5.771 -4.8,4.319 0.565,-0.075 1.362,0.082 1.44,-0.48 0.719,-0.721 0.858,-2.021 1.92,-2.398 0.907,-0.055 0.333,-1.588 1.44,-1.441 z"
         id="path12510" />
      <path
         style="fill:#d7d7d7"
         d="m 103.191,117.11 c 0.06,1.06 2.036,0.204 2.88,0.479 0.276,0.845 -0.58,2.82 0.479,2.88 1.602,1.257 4.247,-0.534 4.8,-1.92 1.558,-0.842 2.398,-2.399 3.359,-3.84 0.979,-0.141 0.941,-1.298 1.92,-1.439 1.611,-0.885 0.238,-0.059 0.48,1.439 0.082,1.201 -0.737,1.502 -1.44,1.92 -0.48,-0.001 -0.57,0.39 -0.96,0.48 -0.634,-1.201 1.897,-1.502 0.48,-1.92 -2.55,2.409 -3.479,6.438 -8.159,6.72 -1.432,-0.328 -1.609,-1.911 -1.44,-3.84 -2.125,0.525 -2.387,-0.813 -3.84,-0.96 -3.002,2.277 -5.156,5.402 -8.159,7.68 0,-0.16 0,-0.319 0,-0.479 0,-0.16 0,-0.319 0,-0.479 2.815,-1.665 5.056,-3.904 6.72,-6.72 0.381,-0.429 2.941,-2.126 2.88,-0.001 z"
         id="path12512" />
      <path
         style="fill:#d7d7d7"
         d="m 105.111,131.029 c 2.011,-3.908 3.874,-7.965 7.679,-10.079 -2.526,3.232 -4.467,7.052 -7.199,10.079 -0.16,0 -0.32,0 -0.48,0 z"
         id="path12514" />
      <path
         style="fill:#d7d7d7"
         d="m 72.474,216.942 c 0.17,-7.191 2.144,-16.733 5.278,-22.56 -0.826,3.975 -1.557,8.043 -2.879,11.521 -1.297,3.182 -1.769,7.19 -2.399,11.039 z"
         id="path12516" />
      <path
         style="fill:#d7d7d7"
         d="m 70.554,229.421 c -1.21,-1.089 0.127,-6.232 0.479,-5.76 0.378,2.457 -0.672,3.487 -0.479,5.76 z"
         id="path12518" />
      <path
         style="fill:#d7d7d7"
         d="m 26.398,97.912 c -4.641,4.319 -8.754,9.164 -13.919,12.958 0.918,-1.322 2.038,-2.44 3.359,-3.359 2.92,-2.52 5.641,-5.238 8.159,-8.159 0.417,-0.702 0.719,-1.521 1.92,-1.439 0.161,-10e-4 0.321,-10e-4 0.481,-10e-4 z"
         id="path12520" />
      <path
         style="fill:#d7d7d7"
         d="m 52.795,90.712 c -2.095,3.504 -5.178,6.021 -8.639,8.16 0.115,-0.685 0.791,-0.81 0.96,-1.439 2.186,-2.615 4.996,-4.605 7.679,-6.721 z"
         id="path12522" />
      <path
         style="fill:#d7d7d7"
         d="m 75.354,91.192 c 0.928,1.521 -2.98,1.621 -4.799,1.92 -0.799,-0.962 0.04,-3.561 -0.96,-4.32 -0.743,1.322 -2.882,0.047 -3.36,-0.479 -0.148,-1.748 0.077,-3.123 0.479,-4.319 -2,-0.241 -2.116,1.403 -4.318,0.96 1.404,-0.995 2.953,-1.847 5.278,-1.92 0.146,2.604 -0.659,3.191 0,5.279 0.32,0 0.641,0 0.96,0 0.641,0 1.28,0 1.921,0 0,1.279 0,2.56 0,3.84 0.756,0.763 2.569,0.135 3.359,-0.48 0.081,-0.56 0.758,-0.522 1.44,-0.481 z"
         id="path12524" />
      <path
         style="fill:#575757"
         d="m 55.195,89.272 c 0.874,-1.366 2.637,-1.843 3.84,-2.879 -0.659,1.581 -2.002,2.478 -3.84,2.879 z"
         id="path12526" />
      <path
         style="fill:#575757"
         d="m 90.712,89.272 c 0.607,-1.792 2.925,-1.876 4.801,-2.399 0.319,0 0.64,0 0.96,0 -1.658,1.063 -3.955,1.485 -5.761,2.399 z"
         id="path12528" />
      <path
         style="fill:#575757"
         d="m 83.513,91.672 c 1.037,-0.401 1.637,-1.242 3.359,-0.96 -0.821,0.779 -1.747,1.453 -3.359,1.44 0,-0.16 0,-0.319 0,-0.48 z"
         id="path12530" />
      <path
         style="fill:#242423"
         d="m 34.077,96.952 c -1.776,-0.144 -1.727,-2.113 -4.32,-1.439 0.408,-0.713 1.208,-1.032 2.4,-0.961 0.666,0.775 1.36,1.52 1.92,2.4 z"
         id="path12532" />
      <path
         style="fill:#575757"
         d="m 25.918,97.912 c 0.632,-0.968 1.576,-1.624 2.88,-1.92 1.169,0.741 -1.78,1.381 -2.399,1.92 -0.161,0 -0.321,0 -0.481,0 z"
         id="path12534" />
      <path
         style="fill:#575757"
         d="m 15.839,107.51 c 2.277,-3.002 5.402,-5.156 7.68,-8.159 0.16,0 0.319,0 0.479,0 -2.519,2.921 -5.239,5.641 -8.159,8.159 z"
         id="path12536" />
      <path
         style="fill:#575757"
         d="m 238.061,92.152 c -0.35,3.172 1,8.04 -1.44,9.119 -1.809,0.369 -2.294,-0.585 -3.839,-0.48 0,-0.16 0,-0.319 0,-0.479 1.779,-0.34 2.06,0.819 3.839,0.479 1.9,-1.458 0.129,-6.589 1.44,-8.639 z"
         id="path12538" />
      <path
         style="fill:#575757"
         d="m 267.338,104.151 c 0.198,-2.308 3.894,-2.421 3.359,0.479 -0.559,-0.081 -0.521,-0.759 -0.479,-1.439 -1.66,-0.379 -2.027,0.534 -2.88,0.96 z"
         id="path12540" />
      <path
         style="fill:#575757"
         d="m 266.378,106.551 c 1.188,2.44 -4.572,2.966 -3.84,0.48 1.224,1.635 2.8,0.585 3.84,-0.48 z"
         id="path12542" />
      <path
         style="fill:#575757"
         d="m 117.11,111.831 c 1.954,-0.926 2.451,-3.309 4.8,-3.839 -0.115,0.685 -0.791,0.81 -0.96,1.44 -0.033,1.406 -1.097,1.781 -1.92,2.398 0.281,-0.999 1.008,-1.551 1.44,-2.398 -1.481,1.077 -2.763,2.357 -3.841,3.839 -0.979,0.142 -0.94,1.299 -1.92,1.439 0.165,-1.596 1.82,-1.701 2.401,-2.879 z"
         id="path12544" />
      <path
         style="fill:#575757"
         d="m 54.235,110.871 c 0.16,0 0.32,0 0.479,0 0.27,-0.69 0.749,-1.171 1.44,-1.438 -1.239,1.641 -2.679,3.081 -4.319,4.318 0.142,-0.979 1.298,-0.94 1.439,-1.92 0.103,-0.539 0.534,-0.748 0.961,-0.96 z"
         id="path12546" />
      <path
         style="fill:#949494"
         d="m 116.63,113.271 c 1.078,-1.481 2.358,-2.762 3.841,-3.839 -0.433,0.848 -1.159,1.4 -1.44,2.398 -0.114,1.486 -1.336,1.864 -1.92,2.88 -0.243,-1.497 1.131,-2.323 -0.481,-1.439 z"
         id="path12548" />
      <path
         style="fill:#575757"
         d="m 155.987,117.11 c -0.263,-0.697 0.561,-2.48 -0.48,-2.4 -2.484,2.794 -4.922,5.638 -8.158,7.68 3.268,-2.812 4.65,-7.508 9.6,-8.64 0.06,1.98 -0.835,3.005 -0.48,5.28 0.877,1.364 4.032,0.447 3.36,3.359 -0.16,0 -0.32,0 -0.479,0 -0.33,-2.552 -4.371,-1.392 -3.363,-5.279 z"
         id="path12550" />
      <path
         style="fill:#575757"
         d="m 103.191,117.11 c 1.12,0 2.24,0 3.359,0 0,1.12 0,2.24 0,3.359 -1.06,-0.06 -0.203,-2.035 -0.479,-2.88 -0.843,-0.275 -2.82,0.581 -2.88,-0.479 z"
         id="path12552" />
      <path
         style="fill:#949494"
         d="m 100.312,117.11 c -1.664,2.814 -3.904,5.055 -6.72,6.72 1.834,-2.646 4.074,-4.886 6.72,-6.72 z"
         id="path12554" />
      <path
         style="fill:#575757"
         d="m 73.434,132.949 c -0.586,-0.055 -1.138,-0.144 -0.96,-0.96 -0.48,0 -0.96,0 -1.44,0 -0.32,0 -0.64,0 -0.96,0 0.407,-0.714 1.545,-0.694 2.4,-0.96 0.25,0.71 0.71,1.21 0.96,1.92 z"
         id="path12556" />
      <path
         style="fill:#949494"
         d="m 65.274,135.349 c 0.685,-0.115 0.81,-0.79 1.439,-0.96 -2.039,2.439 -4.278,4.681 -6.719,6.72 1.354,-2.328 2.654,-4.707 5.28,-5.76 z"
         id="path12558" />
      <path
         style="fill:#242423"
         d="m 139.188,134.869 c -0.918,1.321 -1.08,3.399 -2.88,3.84 1.217,-1.664 1.764,-3.996 3.359,-5.279 -0.025,0.613 -0.614,0.664 -0.479,1.439 z"
         id="path12560" />
      <path
         style="fill:#575757"
         d="m 181.425,140.148 c -1.493,1.314 -5.302,4.588 -7.679,1.92 0.107,-0.373 0.013,-0.947 0.479,-0.96 -0.021,0.66 0.226,1.054 0.479,1.438 3.438,-0.082 4.915,-2.124 7.2,-3.358 -0.091,0.389 -0.48,0.479 -0.479,0.96 z"
         id="path12562" />
      <path
         style="fill:#575757"
         d="m 218.382,146.388 c -0.688,1.393 -1.151,3.007 -2.88,3.359 1.037,-1.203 1.515,-2.966 2.88,-3.84 0,0.161 0,0.321 0,0.481 z"
         id="path12564" />
      <path
         style="fill:#949494"
         d="m 55.675,147.348 c -0.683,1.235 -1.124,2.716 -2.88,2.88 1.028,-1.053 1.494,-2.666 2.88,-3.359 0,0.158 0,0.319 0,0.479 z"
         id="path12566" />
      <path
         style="fill:#949494"
         d="m 209.263,157.427 c 1.114,-0.323 1.284,-1.595 2.398,-1.92 -0.025,0.614 -0.615,0.665 -0.479,1.44 -2.984,2.295 -5.022,5.536 -8.641,7.199 1.712,-2.77 5.012,-3.949 6.722,-6.719 z"
         id="path12568" />
      <path
         style="fill:#575757"
         d="m 187.185,173.746 c 1.43,-1.291 3.58,-1.858 5.278,-2.88 0,0.159 0,0.319 0,0.479 -1.205,1.354 -2.783,2.336 -5.278,2.401 z"
         id="path12570" />
      <path
         style="fill:#949494"
         d="m 71.994,246.22 c 1.42,-3.82 -2.675,-2.125 -3.36,-3.841 0.298,-1.303 -0.608,-3.809 0.48,-4.318 0.297,1.303 -0.609,3.809 0.48,4.318 1.383,0.059 3.142,-0.262 3.84,0.48 0.234,1.515 -0.865,1.694 -0.48,3.358 -0.32,0.003 -0.64,0.003 -0.96,0.003 z"
         id="path12572" />
      <path
         style="fill:#575757"
         d="M 83.993,2.88 C 87.154,1.723 90.779,1.026 95.032,0.96 91.568,1.816 87.875,2.442 83.993,2.88 Z"
         id="path12574" />
      <path
         style="fill:#575757"
         d="m 115.67,0 c 1.094,1.467 4.555,0.565 6.24,1.44 2.289,0.271 4.618,0.501 6.239,1.439 C 122.487,1.822 116.073,1.517 110.87,0 c 1.601,0 3.2,0 4.8,0 z"
         id="path12576" />
      <path
         style="fill:#575757"
         d="m 138.229,5.76 c 1.207,0.554 3.292,0.229 3.359,1.92 -1.141,-0.938 -3.23,-0.93 -4.319,-1.92 0.32,0 0.64,0 0.96,0 z"
         id="path12578" />
      <path
         style="fill:#d7d7d7"
         d="M 259.179,10.079 C 255.866,9.393 251.637,9.621 247.658,9.6 c -0.718,-0.082 -1.771,0.171 -1.92,-0.48 4.245,0.555 10.765,-1.164 13.441,0.959 z"
         id="path12580" />
      <path
         style="fill:#575757"
         d="m 216.462,16.799 c 1.589,-2.411 6.012,-1.988 8.641,-3.359 5.4,-1.318 11.146,-2.292 16.799,-3.36 1.772,-0.306 4.781,0.622 5.759,-0.479 3.979,0.021 8.206,-0.206 11.521,0.479 4.172,-0.012 7.858,0.46 10.559,1.92 -18.033,-4.236 -38.92,-0.361 -53.279,4.799 z"
         id="path12582" />
      <path
         style="fill:#575757"
         d="m 207.823,20.158 c 1.632,-2.208 4.896,-2.783 8.159,-3.359 -2.516,1.323 -5.511,2.168 -8.159,3.359 z"
         id="path12584" />
      <path
         style="fill:#242423"
         d="m 70.554,22.078 c 1.041,-0.719 2.701,-0.818 4.319,-0.96 0,0.16 0,0.32 0,0.48 -0.564,0.074 -1.362,-0.083 -1.439,0.479 -0.96,10e-4 -1.92,10e-4 -2.88,10e-4 z"
         id="path12586" />
      <path
         style="fill:#575757"
         d="m 207.343,20.158 c -0.994,1.085 -2.66,1.499 -4.318,1.92 0,-0.16 0,-0.32 0,-0.479 1.443,-0.476 2.14,-1.699 4.318,-1.441 z"
         id="path12588" />
      <path
         style="fill:#575757"
         d="m 59.515,23.038 c 4.438,0.438 7.038,-0.962 11.039,-0.96 0,0.16 0,0.32 0,0.48 -3.634,-0.107 -7.635,1.955 -11.039,0.48 z"
         id="path12590" />
      <path
         style="fill:#242423"
         d="m 110.391,31.677 c -4.896,-1.344 -11.599,-0.88 -17.759,-0.96 6.092,-0.968 15.136,-0.737 20.158,0.96 -0.075,0.565 0.083,1.362 -0.479,1.44 0,-0.32 0,-0.64 0,-0.96 -0.089,-0.71 -1.16,-0.44 -1.92,-0.48 z"
         id="path12592" />
      <path
         style="fill:#575757"
         d="m 86.393,31.677 c -2.398,-0.459 -4.896,1.479 -6.721,0 4.354,-0.285 8.039,-1.24 12.959,-0.96 -0.983,1.416 -5.254,-0.455 -6.238,0.96 z"
         id="path12594" />
      <path
         style="fill:#575757"
         d="m 172.306,38.877 c -1.09,-2.591 -2.393,-4.967 -3.359,-7.68 0.159,0 0.319,0 0.479,0 0.99,2.53 2.824,4.216 2.88,7.68 z"
         id="path12596" />
      <path
         style="fill:#949494"
         d="m 268.298,32.637 c 0.081,-0.56 0.76,-0.521 1.439,-0.48 9.76,0 19.519,0 29.278,0 0,-0.16 0,-0.32 0,-0.48 0.49,0.035 0.593,0.804 0,0.961 -8.199,2.168 -21.426,-1.607 -30.717,-10e-4 z"
         id="path12598" />
      <path
         style="fill:#575757"
         d="m 111.831,34.077 c 0,0.48 0,0.96 0,1.44 0.855,0.265 1.994,0.247 2.4,0.96 -1.379,0.099 -2.438,-0.122 -2.88,-0.96 0,-0.48 0,-0.96 0,-1.44 -0.002,-0.266 0.388,-0.545 0.48,0 z"
         id="path12600" />
      <path
         style="fill:#575757"
         d="m 116.63,39.837 c 2.546,0.014 4.085,1.035 5.76,1.919 -2.014,0.254 -2.682,-0.838 -4.319,-0.959 -0.008,-0.793 -1.332,-0.269 -1.441,-0.96 z"
         id="path12602" />
      <path
         style="fill:#575757"
         d="m 235.66,48.956 c -1.775,-0.304 -1.464,-2.695 -1.438,-4.8 7.031,0.633 10.763,-2.036 16.317,-2.88 -0.007,0.793 -1.331,0.269 -1.438,0.96 -2.887,0.955 -6.06,1.621 -9.119,2.399 -1.76,0 -3.521,0 -5.28,0 -0.247,2.007 0.266,3.253 0.958,4.321 z"
         id="path12604" />
      <path
         style="fill:#d7d7d7"
         d="m 73.914,45.596 c -0.511,0.021 -1.219,-0.227 -0.479,-0.48 9.096,-0.23 21.167,-1.602 28.797,0.96 -8.849,-1.362 -18.81,-0.878 -28.318,-0.48 z"
         id="path12606" />
      <path
         style="fill:#575757"
         d="m 239.98,52.795 c 0,1.44 0,2.88 0,4.32 -1.156,0.196 -1.044,-0.876 -2.4,-0.48 -1.457,-0.797 -6.223,-0.797 -7.679,0 -3.492,0.349 -6.345,1.335 -9.12,2.4 -0.319,0 -0.64,0 -0.959,0 -0.16,0 -0.32,0 -0.48,0 4.817,-2.729 12.849,-4.17 20.158,-2.88 0.21,-1.65 -0.188,-2.69 -0.479,-3.84 0.481,-10e-4 0.571,0.39 0.959,0.48 z"
         id="path12608" />
      <path
         style="fill:#d7d7d7"
         d="m 220.781,59.035 c 12.337,2.073 26.427,-3.299 38.397,0 -11.368,-1.691 -22.067,1.233 -33.599,0.96 -1.727,-0.392 -7.049,0.925 -5.759,-0.96 0.322,0 0.642,0 0.961,0 z"
         id="path12610" />
      <path
         style="fill:#575757"
         d="m 225.581,59.995 c 11.53,0.273 22.229,-2.651 33.599,-0.96 1.558,-0.278 2.231,0.327 3.358,0.48 0.565,0.074 1.362,-0.083 1.44,0.479 -12.548,-2.347 -25.388,0.424 -38.397,0.48 0,-0.159 0,-0.319 0,-0.479 z"
         id="path12612" />
      <path
         style="fill:#575757"
         d="m 99.832,82.552 c -1.434,0.967 -3.387,1.413 -5.759,1.44 1.433,-0.965 3.386,-1.411 5.759,-1.44 z"
         id="path12614" />
      <path
         style="fill:#575757"
         d="m 92.632,84.473 c 0.511,-0.021 1.22,0.226 0.48,0.479 -3.742,0.737 -5.995,2.965 -10.079,3.359 2.98,-1.498 5.97,-2.988 9.599,-3.838 z"
         id="path12616" />
      <path
         style="fill:#575757"
         d="m 289.896,84.953 c 1.571,3.391 2.013,10.46 0.959,14.878 0.268,-5.546 -0.192,-10.365 -0.959,-14.878 z"
         id="path12618" />
      <path
         style="fill:#575757"
         d="m 82.073,88.792 c 0.755,0.632 -2.262,1.55 -3.84,1.44 1.109,-0.651 2.141,-1.379 3.84,-1.44 z"
         id="path12620" />
      <path
         style="fill:#575757"
         d="m 2.4,95.992 c 0.274,-2.925 0.655,-5.745 2.399,-7.2 -0.755,2.445 -1.417,4.982 -2.399,7.2 z"
         id="path12622" />
      <path
         style="fill:#242423"
         d="m 240.94,91.192 c -0.8,0 -1.602,0 -2.4,0 0,0.32 0,0.64 0,0.96 -0.159,0 -0.318,0 -0.479,0 0.046,-2.151 2.816,-2.198 3.84,-0.96 -0.321,0 -0.641,0 -0.961,0 z"
         id="path12624" />
      <path
         style="fill:#575757"
         d="m 241.9,91.192 c 1.229,0.371 2.721,0.479 3.358,1.439 -2.029,0.11 -3.084,-0.756 -4.318,-1.439 0.32,0 0.64,0 0.96,0 z"
         id="path12626" />
      <path
         style="fill:#575757"
         d="m 219.342,95.992 c 1.796,-0.036 3.318,0.202 4.319,0.96 -1.795,0.035 -3.317,-0.202 -4.319,-0.96 z"
         id="path12628" />
      <path
         style="fill:#575757"
         d="m 225.102,97.432 c 1.666,0.572 3.728,0.751 4.8,1.919 -2.148,-0.092 -3.791,-0.69 -4.8,-1.919 z"
         id="path12630" />
      <path
         style="fill:#242423"
         d="m 0,105.591 c 0.768,-1.312 0.988,-3.171 0.96,-5.279 0.16,0 0.32,0 0.48,0 -0.169,3.03 -0.173,6.227 -1.44,8.16 0,-0.962 0,-1.921 0,-2.881 z"
         id="path12632" />
      <path
         style="fill:#575757"
         d="m 289.416,106.551 c -0.342,1.578 -0.228,3.612 -1.92,3.84 0.938,-1.142 0.929,-3.23 1.92,-4.319 0,0.159 0,0.319 0,0.479 z"
         id="path12634" />
      <path
         style="fill:#575757"
         d="m 222.222,108.951 c 1.415,0.196 1.963,5.388 2.88,7.679 -0.097,3.725 1.144,7.204 0,10.56 -0.207,4.112 -0.871,7.769 -2.88,10.079 3.657,-7.871 3.401,-20.411 0,-28.318 z"
         id="path12636" />
      <path
         style="fill:#575757"
         d="m 174.226,119.99 c -0.49,1.109 -2.207,0.993 -3.84,0.96 0.887,-0.713 2.28,-0.919 3.84,-0.96 z"
         id="path12638" />
      <path
         style="fill:#575757"
         d="m 47.036,120.469 c -0.372,1.548 -1.003,2.837 -1.92,3.84 -0.11,-1.87 1.031,-2.488 1.44,-3.84 0.16,0 0.32,0 0.48,0 z"
         id="path12640" />
      <path
         style="fill:#575757"
         d="m 168.466,121.43 c 2.211,0.353 -2.562,1.001 -3.358,1.438 -0.16,0 -0.32,0 -0.48,0 0.812,-0.944 2.23,-1.286 3.838,-1.438 z"
         id="path12642" />
      <path
         style="fill:#d7d7d7"
         d="m 174.226,127.67 c -0.229,-2.078 0.232,-9.292 0.479,-3.84 -0.292,1.148 0.603,3.482 -0.479,3.84 z"
         id="path12644" />
      <path
         style="fill:#575757"
         d="m 43.196,131.509 c 0.123,2.759 -0.359,6.119 0.479,8.159 -1.683,-0.887 -1.122,-6.539 -0.479,-8.159 z"
         id="path12646" />
      <path
         style="fill:#575757"
         d="m 185.265,138.229 c 0.105,-0.374 0.401,-0.559 0.96,-0.479 1.7,7.333 -0.958,14.376 -3.359,19.198 0.46,-4.021 2.53,-6.429 2.879,-10.56 0.644,-1.619 1.204,-7.272 -0.48,-8.159 z"
         id="path12648" />
      <path
         style="fill:#575757"
         d="m 131.509,148.308 c -0.283,3.399 -2.635,8.881 -4.8,11.999 1.536,-4.064 3.049,-8.152 4.8,-11.999 z"
         id="path12650" />
      <path
         style="fill:#575757"
         d="m 89.272,161.747 c -0.258,-1.57 0.965,-4.112 1.439,-3.36 -0.323,1.275 -0.754,2.444 -1.439,3.36 z"
         id="path12652" />
      <path
         style="fill:#575757"
         d="m 181.425,160.307 c -1.082,3.127 -2.688,6.466 -1.92,10.078 -0.158,0 -0.318,0 -0.479,0 -2.379,-3.197 0.635,-7.964 2.399,-10.078 z"
         id="path12654" />
      <path
         style="fill:#575757"
         d="m 87.833,165.106 c -1.424,3.694 -2.661,7.578 -4.318,11.039 0.966,-4.152 2.054,-8.183 4.318,-11.039 z"
         id="path12656" />
      <path
         style="fill:#575757"
         d="m 124.31,167.986 c -0.245,3.435 -1.023,6.336 -2.399,8.639 0.405,-3.272 1.364,-5.994 2.399,-8.639 z"
         id="path12658" />
      <path
         style="fill:#575757"
         d="m 83.033,177.585 c -0.9,2.94 -1.761,5.919 -2.88,8.641 0.321,-3.521 1.181,-6.499 2.88,-8.641 z"
         id="path12660" />
      <path
         style="fill:#575757"
         d="m 79.673,187.664 c -0.39,2.49 -0.998,4.762 -1.92,6.72 0.11,-2.77 0.616,-5.145 1.92,-6.72 z"
         id="path12662" />
      <path
         style="fill:#575757"
         d="m 72.474,216.942 c 0.63,-3.851 1.102,-7.857 2.399,-11.039 -0.468,4.331 -1.261,8.338 -2.399,11.999 0,-0.32 0,-0.64 0,-0.96 z"
         id="path12664" />
      <path
         style="fill:#242423"
         d="m 115.19,209.742 c 0.147,1.749 -0.076,3.124 -0.48,4.32 -0.16,0 -0.319,0 -0.479,0 0.436,-1.324 0.149,-3.371 0.959,-4.32 z"
         id="path12666" />
      <path
         style="fill:#575757"
         d="m 114.71,214.062 c -0.87,10.969 -2.775,20.901 -3.359,32.156 -0.32,0 -0.641,0 -0.96,0 1.439,-10.56 2.343,-21.654 3.84,-32.156 0.16,0 0.319,0 0.479,0 z"
         id="path12668" />
      <path
         style="fill:#575757"
         d="m 71.994,220.781 c -0.595,6.285 -1.382,12.377 -2.399,18.239 -0.121,-3.642 0.392,-6.647 0.96,-9.601 -0.193,-2.271 0.855,-3.303 0.479,-5.76 1.359,0.081 -0.399,-2.956 0.96,-2.878 z"
         id="path12670" />
      <path
         style="fill:#d7d7d7"
         d="m 92.632,30.717 c 6.16,0.08 12.863,-0.384 17.759,0.96 -8.361,-0.619 -15.478,-0.213 -23.998,0 0.984,-1.415 5.255,0.456 6.239,-0.96 z"
         id="path12672" />
      <path
         style="fill:#d7d7d7"
         d="m 229.901,56.635 c 1.456,-0.797 6.222,-0.797 7.679,0 -2.559,0 -5.119,0 -7.679,0 z"
         id="path12674" />
      <path
         style="fill:#d7d7d7"
         d="m 2.88,110.391 c 2.247,-0.487 -0.086,3.605 1.44,3.84 0.197,0.817 0.619,-0.102 1.439,0 0.22,1.5 -1.025,1.534 -2.399,1.439 -0.432,-1.329 0.986,-4.506 -0.96,-4.319 -1.356,-0.396 -1.244,0.677 -2.4,0.479 0,-0.16 0,-0.32 0,-0.479 0.897,-0.383 1.758,-0.802 2.88,-0.96 z"
         id="path12676" />
      <path
         style="fill:#d7d7d7"
         d="m 185.265,138.229 c 1.685,0.888 1.124,6.54 0.479,8.159 0,-2.399 0,-4.801 0,-7.199 -2.189,-0.432 -2.72,0.799 -4.319,0.96 -0.001,-0.481 0.39,-0.571 0.48,-0.96 1.067,-0.374 1.871,-1.008 3.36,-0.96 z"
         id="path12678" />
    </g>
  </g>
</svg>
