<?xml version="1.0" encoding="UTF-8" standalone="no"?>
<svg
   xmlns:dc="http://purl.org/dc/elements/1.1/"
   xmlns:cc="http://creativecommons.org/ns#"
   xmlns:rdf="http://www.w3.org/1999/02/22-rdf-syntax-ns#"
   xmlns:svg="http://www.w3.org/2000/svg"
   xmlns="http://www.w3.org/2000/svg"
   id="svg8"
   version="1.1"
   viewBox="0 0 16.933333 16.933333"
   height="64"
   width="64">
  <title
     id="title9790">production</title>
  <defs
     id="defs2" />
  <metadata
     id="metadata5">
    <rdf:RDF>
      <cc:Work
         rdf:about="">
        <dc:format>image/svg+xml</dc:format>
        <dc:type
           rdf:resource="http://purl.org/dc/dcmitype/StillImage" />
        <dc:title>production</dc:title>
      </cc:Work>
    </rdf:RDF>
  </metadata>
  <g
     transform="translate(0,-280.06667)"
     id="layer1">
    <g
       transform="matrix(0.0264882,0,0,0.0264882,3.5338553,282.8361)"
       id="g18023">
      <path
         style="clip-rule:evenodd;fill:#2c2c2c;fill-rule:evenodd"
         d="m 0.497,0.48 c 6.96,-0.56 14.959,-0.08 22.32,-0.24 0,0.08 0,0.16 0,0.24 -7.44,0 -14.88,0 -22.32,0 z"
         id="path17362" />
      <path
         style="clip-rule:evenodd;fill:#666666;fill-rule:evenodd"
         d="m 22.817,0.48 c 0,-0.08 0,-0.16 0,-0.24 18.64,0 37.28,0 55.92,0 0,0.08 0,0.16 0,0.24 -18.64,0 -37.28,0 -55.92,0 z"
         id="path17364" />
      <path
         style="clip-rule:evenodd;fill:#a2a1a1;fill-rule:evenodd"
         d="m 78.737,0.48 c 0,-0.08 0,-0.16 0,-0.24 0.08,0 0.16,0 0.24,0 37.041,0 74.08,0 111.12,0 0,0.08 0,0.16 0,0.24 -37.12,0 -74.239,0 -111.36,0 z"
         id="path17366" />
      <path
         style="clip-rule:evenodd;fill:#dddcdc;fill-rule:evenodd"
         d="m 190.097,0.48 c 0,-0.08 0,-0.16 0,-0.24 37.04,0.16 74.721,-0.32 111.36,0.24 -18.561,0 -37.12,0 -55.681,0 -18.559,0 -37.118,0 -55.679,0 z"
         id="path17368" />
      <path
         style="clip-rule:evenodd;fill:#2c2c2c;fill-rule:evenodd"
         d="m 78.737,0.48 c 37.121,0 74.24,0 111.36,0 18.561,0 37.12,0 55.68,0 0,0.08 0,0.16 0,0.24 C 190.176,0.56 133.938,1.04 78.737,0.48 Z"
         id="path17370" />
      <path
         style="clip-rule:evenodd;fill:#666666;fill-rule:evenodd"
         d="m 245.777,0.72 c 0,-0.08 0,-0.16 0,-0.24 18.561,0 37.12,0 55.681,0 0,0.08 0,0.16 0,0.24 -18.561,0 -37.121,0 -55.681,0 z"
         id="path17372" />
      <path
         style="clip-rule:evenodd;fill:#a2a1a1;fill-rule:evenodd"
         d="m 301.458,0.72 c 0,-0.08 0,-0.16 0,-0.24 20.16,0.16 40.96,-0.32 60.72,0.24 -20.24,0 -40.48,0 -60.72,0 z"
         id="path17374" />
      <path
         style="clip-rule:evenodd;fill:#dddcdc;fill-rule:evenodd"
         d="M 0.497,0.96 C 0.075,0.902 -0.05,0.547 0.017,0 c 26.32,0 52.64,0 78.96,0 0,0.08 0,0.16 0,0.24 -0.08,0 -0.16,0 -0.24,0 -18.64,0 -37.28,0 -55.92,0 -7.36,0.16 -15.36,-0.32 -22.32,0.24 0,0.08 0,0.16 0,0.24 0,0.08 0,0.16 0,0.24 z"
         id="path17376" />
      <path
         style="clip-rule:evenodd;fill:#2c2c2c;fill-rule:evenodd"
         d="m 362.177,0.72 c 0.466,-0.095 0.351,1.093 -0.239,0.72 -9.071,-1.109 -20.242,-0.168 -30.24,-0.48 -10,-0.16 -20.641,0.32 -30.24,-0.24 20.24,0 40.48,0 60.719,0 z"
         id="path17378" />
      <path
         style="clip-rule:evenodd;fill:#666666;fill-rule:evenodd"
         d="M 1.457,2.88 C 0.716,2.661 0.66,1.757 0.497,0.96 c 0,-0.08 0,-0.16 0,-0.24 0.521,0.519 0.679,1.401 0.96,2.16 z"
         id="path17380" />
      <path
         style="clip-rule:evenodd;fill:#010101;fill-rule:evenodd"
         d="m 361.938,1.44 c -0.086,0.714 -0.383,1.218 -0.721,1.68 -0.475,0.885 -0.783,1.937 -1.2,2.88 0.206,0.766 -0.377,0.742 -0.479,1.2 -0.476,0.885 -0.783,1.937 -1.2,2.88 0.206,0.766 -0.378,0.742 -0.479,1.2 -0.476,0.885 -0.784,1.937 -1.2,2.88 0.205,0.766 -0.378,0.742 -0.48,1.2 -0.364,0.755 -0.716,1.524 -0.96,2.4 -0.085,0.714 -0.382,1.217 -0.72,1.68 -0.364,0.755 -0.716,1.524 -0.96,2.4 -0.086,0.714 -0.382,1.218 -0.72,1.68 -0.365,0.755 -0.717,1.524 -0.96,2.4 -0.273,1.087 -0.654,2.066 -1.2,2.88 -0.322,0.478 -0.458,1.143 -0.72,1.68 -0.086,1.035 -0.542,1.698 -0.96,2.4 -0.323,0.478 -0.458,1.143 -0.721,1.68 -0.085,1.035 -0.542,1.698 -0.96,2.4 -0.475,0.885 -0.783,1.937 -1.2,2.88 0.206,0.766 -0.377,0.743 -0.479,1.2 -0.476,0.885 -0.783,1.937 -1.2,2.88 0.206,0.766 -0.378,0.742 -0.479,1.2 -0.476,0.885 -0.784,1.937 -1.2,2.88 0.205,0.766 -0.378,0.742 -0.48,1.2 -0.475,0.885 -0.783,1.937 -1.2,2.88 0.206,0.766 -0.377,0.742 -0.479,1.2 -0.364,0.755 -0.716,1.524 -0.96,2.4 -0.086,0.714 -0.383,1.218 -0.72,1.68 -0.365,0.755 -0.717,1.523 -0.96,2.4 -0.086,0.714 -0.383,1.218 -0.721,1.68 -0.364,0.755 -0.716,1.524 -0.96,2.4 -0.272,1.087 -0.653,2.066 -1.2,2.88 -0.322,0.478 -0.457,1.143 -0.72,1.68 -0.086,1.034 -0.542,1.698 -0.96,2.4 -0.476,0.885 -0.783,1.937 -1.2,2.88 0.206,0.766 -0.377,0.742 -0.479,1.2 -0.476,0.885 -0.783,1.937 -1.2,2.88 0.206,0.766 -0.378,0.742 -0.48,1.2 -0.475,0.885 -0.783,1.937 -1.199,2.88 0.205,0.766 -0.378,0.742 -0.48,1.2 -0.475,0.885 -0.783,1.937 -1.2,2.88 0.206,0.766 -0.378,0.743 -0.479,1.2 -0.476,0.885 -0.783,1.937 -1.2,2.88 0.206,0.766 -0.378,0.743 -0.48,1.2 -0.364,0.755 -0.716,1.524 -0.96,2.4 -0.085,0.714 -0.382,1.218 -0.72,1.68 -0.364,0.755 -0.716,1.524 -0.96,2.4 -0.272,1.087 -0.653,2.066 -1.2,2.88 -0.322,0.478 -0.457,1.143 -0.72,1.68 -0.086,1.034 -0.542,1.698 -0.96,2.4 -0.322,0.478 -0.458,1.143 -0.72,1.68 -0.086,1.034 -0.542,1.698 -0.96,2.4 -0.476,0.885 -0.784,1.937 -1.2,2.88 0.205,0.766 -0.378,0.742 -0.48,1.2 -0.475,0.885 -0.783,1.937 -1.199,2.88 0.205,0.766 -0.378,0.742 -0.48,1.2 -0.476,0.885 -0.783,1.937 -1.2,2.88 0.206,0.766 -0.378,0.742 -0.479,1.2 -0.476,0.885 -0.784,1.937 -1.2,2.88 0.206,0.766 -0.378,0.742 -0.48,1.2 -0.364,0.756 -0.716,1.524 -0.96,2.4 -0.085,0.714 -0.382,1.218 -0.72,1.68 -0.364,0.755 -0.716,1.524 -0.96,2.4 -0.086,0.714 -0.383,1.217 -0.72,1.68 -0.365,0.755 -0.717,1.524 -0.96,2.4 -0.273,1.087 -0.654,2.066 -1.2,2.88 -0.322,0.477 -0.458,1.143 -0.72,1.68 -0.086,1.035 -0.543,1.698 -0.96,2.4 -0.476,0.885 -0.784,1.937 -1.2,2.88 0.205,0.766 -0.378,0.742 -0.48,1.2 -0.475,0.885 -0.783,1.937 -1.2,2.88 0.206,0.766 -0.377,0.742 -0.479,1.2 -0.476,0.885 -0.783,1.937 -1.2,2.88 0.206,0.766 -0.378,0.743 -0.479,1.2 -0.476,0.885 -0.784,1.937 -1.2,2.88 0.205,0.766 -0.378,0.742 -0.48,1.2 -0.475,0.885 -0.783,1.937 -1.2,2.88 0.206,0.766 -0.377,0.742 -0.479,1.2 -0.364,0.755 -0.716,1.524 -0.96,2.4 -0.086,0.714 -0.383,1.218 -0.72,1.68 -0.365,0.755 -0.717,1.524 -0.96,2.4 -0.273,1.087 -0.654,2.066 -1.2,2.88 -0.323,0.478 -0.458,1.143 -0.721,1.68 -0.085,1.034 -0.542,1.698 -0.96,2.4 -0.322,0.478 -0.457,1.143 -0.72,1.68 -0.085,1.034 -0.542,1.698 -0.96,2.4 -0.475,0.885 -0.783,1.937 -1.2,2.88 0.206,0.766 -0.378,0.742 -0.479,1.2 -0.476,0.885 -0.783,1.937 -1.2,2.88 0.206,0.766 -0.378,0.742 -0.48,1.2 -0.475,0.885 -0.783,1.937 -1.199,2.88 0.205,0.766 -0.378,0.742 -0.48,1.2 -0.475,0.885 -0.783,1.937 -1.2,2.88 0.206,0.766 -0.377,0.742 -0.479,1.2 -0.476,0.885 -0.783,1.937 -1.2,2.88 0.206,0.766 -0.378,0.743 -0.48,1.2 -0.364,0.755 -0.716,1.524 -0.96,2.4 -0.085,0.714 -0.382,1.218 -0.72,1.68 -0.364,0.755 -0.716,1.524 -0.96,2.4 -0.272,1.087 -0.653,2.066 -1.2,2.88 -0.322,0.478 -0.457,1.143 -0.72,1.68 -0.086,1.035 -0.542,1.698 -0.96,2.4 -0.322,0.478 -0.457,1.143 -0.72,1.68 -0.086,1.034 -0.542,1.698 -0.96,2.4 -0.476,0.885 -0.784,1.937 -1.2,2.88 0.206,0.766 -0.378,0.742 -0.48,1.2 -0.475,0.885 -0.783,1.937 -1.199,2.88 0.205,0.766 -0.378,0.742 -0.48,1.2 -0.476,0.885 -0.783,1.937 -1.2,2.88 0.206,0.766 -0.378,0.742 -0.479,1.2 -0.476,0.885 -0.784,1.937 -1.2,2.88 0.206,0.766 -0.378,0.742 -0.48,1.2 -0.364,0.755 -0.716,1.523 -0.96,2.399 -0.085,0.715 -0.382,1.218 -0.72,1.681 -0.364,0.755 -0.716,1.523 -0.96,2.399 -0.086,0.715 -0.382,1.218 -0.72,1.681 -0.365,0.755 -0.717,1.523 -0.96,2.399 -0.273,1.087 -0.654,2.066 -1.2,2.88 -0.322,0.478 -0.458,1.143 -0.72,1.681 -0.086,1.034 -0.542,1.697 -0.96,2.399 -0.476,0.885 -0.784,1.937 -1.2,2.88 0.205,0.766 -0.378,0.743 -0.48,1.2 -0.475,0.885 -0.783,1.937 -1.2,2.88 0.206,0.766 -0.377,0.742 -0.479,1.2 -0.476,0.885 -0.783,1.937 -1.2,2.88 0.206,0.766 -0.378,0.742 -0.479,1.2 -0.476,0.885 -0.784,1.937 -1.2,2.88 0.205,0.766 -0.378,0.742 -0.48,1.2 -0.475,0.885 -0.783,1.937 -1.2,2.88 0.206,0.766 -0.377,0.742 -0.479,1.2 -0.364,0.755 -0.716,1.523 -0.96,2.4 -0.086,0.714 -0.383,1.217 -0.72,1.68 -0.365,0.755 -0.717,1.523 -0.96,2.399 -0.273,1.088 -0.654,2.066 -1.2,2.881 -0.322,0.477 -0.458,1.142 -0.721,1.68 -0.085,1.034 -0.542,1.698 -0.96,2.399 -0.322,0.478 -0.457,1.143 -0.72,1.681 -0.085,1.034 -0.542,1.698 -0.96,2.399 -0.475,0.885 -0.783,1.938 -1.2,2.881 0.206,0.766 -0.377,0.742 -0.479,1.199 -0.476,0.885 -0.783,1.937 -1.2,2.88 0.206,0.767 -0.378,0.743 -0.48,1.2 -0.475,0.885 -0.783,1.937 -1.199,2.88 0.205,0.766 -0.378,0.743 -0.48,1.2 -0.475,0.885 -0.783,1.937 -1.2,2.88 0.206,0.766 -0.377,0.742 -0.479,1.2 -0.365,0.756 -0.716,1.524 -0.96,2.4 -0.086,0.714 -0.383,1.218 -0.72,1.68 -0.365,0.756 -0.717,1.524 -0.961,2.4 -0.085,0.714 -0.382,1.218 -0.72,1.68 -0.364,0.756 -0.716,1.523 -0.96,2.4 -0.272,1.087 -0.653,2.066 -1.2,2.88 -0.322,0.478 -0.457,1.143 -0.72,1.68 -0.086,1.034 -0.542,1.698 -0.96,2.4 -0.322,0.478 -0.457,1.143 -0.72,1.68 -0.086,1.034 -0.542,1.698 -0.96,2.4 -0.476,0.885 -0.784,1.937 -1.2,2.88 0.206,0.766 -0.378,0.742 -0.48,1.199 -0.475,0.886 -0.783,1.938 -1.199,2.881 0.205,0.766 -0.378,0.742 -0.48,1.199 -0.476,0.885 -0.783,1.937 -1.2,2.881 0.206,0.766 -0.378,0.742 -0.479,1.199 -0.476,0.885 -0.783,1.937 -1.2,2.881 0.206,0.766 -0.378,0.742 -0.48,1.199 -0.364,0.756 -0.716,1.524 -0.96,2.4 -0.085,0.714 -0.382,1.218 -0.72,1.68 -0.364,0.756 -0.716,1.524 -0.96,2.4 -0.086,0.714 -0.382,1.218 -0.72,1.68 -0.365,0.756 -0.717,1.524 -0.96,2.4 -0.273,1.087 -0.654,2.066 -1.2,2.88 -0.322,0.478 -0.458,1.143 -0.72,1.68 -0.086,1.034 -0.542,1.698 -0.96,2.4 -0.476,0.885 -0.784,1.937 -1.2,2.88 0.205,0.766 -0.378,0.742 -0.48,1.2 -0.475,0.885 -0.783,1.937 -1.2,2.88 0.206,0.766 -0.377,0.742 -0.479,1.2 -0.476,0.885 -0.783,1.937 -1.2,2.88 0.206,0.766 -0.378,0.742 -0.479,1.2 -0.476,0.885 -0.784,1.937 -1.2,2.88 0.206,0.766 -0.378,0.742 -0.48,1.2 -0.475,0.885 -0.783,1.937 -1.2,2.88 0.206,0.766 -0.377,0.742 -0.479,1.199 -0.364,0.756 -0.716,1.524 -0.96,2.4 -0.086,0.715 -0.383,1.218 -0.72,1.68 -0.365,0.756 -0.717,1.524 -0.96,2.4 -0.273,1.087 -0.654,2.066 -1.2,2.88 -0.323,0.478 -0.458,1.143 -0.72,1.68 -0.086,1.035 -0.543,1.698 -0.961,2.4 -0.322,0.478 -0.457,1.143 -0.72,1.68 -0.085,1.035 -0.542,1.698 -0.96,2.4 -0.475,0.885 -0.783,1.937 -1.2,2.88 0.206,0.766 -0.377,0.742 -0.479,1.2 -0.476,0.885 -0.783,1.937 -1.2,2.88 0.206,0.766 -0.378,0.742 -0.479,1.2 -0.476,0.885 -0.784,1.937 -1.2,2.88 0.205,0.766 -0.378,0.742 -0.48,1.2 -0.475,0.885 -0.783,1.937 -1.2,2.88 0.206,0.766 -0.377,0.742 -0.479,1.2 -0.364,0.755 -0.716,1.523 -0.96,2.399 -0.086,0.715 -0.383,1.218 -0.72,1.681 -0.365,0.755 -0.717,1.523 -0.96,2.399 -0.086,0.715 -0.383,1.218 -0.721,1.681 -0.364,0.755 -0.716,1.523 -0.96,2.399 -0.272,1.087 -0.653,2.066 -1.2,2.88 -0.322,0.478 -0.457,1.143 -0.72,1.681 -0.085,1.034 -0.542,1.697 -0.96,2.399 -0.475,0.885 -0.783,1.937 -1.2,2.88 0.206,0.766 -0.378,0.742 -0.479,1.2 -0.405,0.636 -0.556,1.524 -0.96,2.16 -0.568,-0.392 -0.511,-1.409 -0.96,-1.92 -0.102,-0.458 -0.686,-0.435 -0.48,-1.2 -0.417,-0.943 -0.725,-1.995 -1.2,-2.88 -0.245,-0.315 -0.235,-0.885 -0.48,-1.2 -0.417,-0.943 -0.725,-1.995 -1.2,-2.88 -0.245,-0.315 -0.235,-0.885 -0.48,-1.2 -0.417,-0.943 -0.725,-1.995 -1.2,-2.88 -0.245,-0.315 -0.235,-0.885 -0.48,-1.2 -0.417,-0.943 -0.725,-1.995 -1.2,-2.88 -0.245,-0.315 -0.235,-0.885 -0.48,-1.2 -0.417,-0.943 -0.725,-1.995 -1.2,-2.88 -0.16,-0.96 -0.9,-1.34 -0.96,-2.399 -0.263,-0.538 -0.397,-1.203 -0.72,-1.681 -0.16,-0.96 -0.9,-1.34 -0.96,-2.399 -0.262,-0.538 -0.397,-1.203 -0.72,-1.681 -0.264,-1.097 -1.03,-1.689 -1.2,-2.88 -0.244,-0.876 -0.595,-1.645 -0.96,-2.399 -0.338,-0.463 -0.634,-0.966 -0.72,-1.681 -0.244,-0.876 -0.595,-1.645 -0.96,-2.399 -0.102,-0.458 -0.686,-0.435 -0.48,-1.2 -0.417,-0.943 -0.725,-1.995 -1.2,-2.88 -0.245,-0.315 -0.235,-0.885 -0.48,-1.2 -0.417,-0.943 -0.725,-1.995 -1.2,-2.88 -0.245,-0.315 -0.235,-0.885 -0.48,-1.2 -0.417,-0.943 -0.725,-1.995 -1.2,-2.88 -0.245,-0.315 -0.235,-0.885 -0.48,-1.2 -0.417,-0.943 -0.725,-1.995 -1.2,-2.88 -0.245,-0.315 -0.235,-0.885 -0.48,-1.2 -0.417,-0.943 -0.725,-1.995 -1.2,-2.88 -0.16,-0.96 -0.9,-1.34 -0.96,-2.4 -0.263,-0.537 -0.397,-1.202 -0.72,-1.68 -0.16,-0.96 -0.899,-1.34 -0.96,-2.399 -0.262,-0.538 -0.397,-1.203 -0.72,-1.681 -0.264,-1.097 -1.03,-1.689 -1.2,-2.88 -0.244,-0.876 -0.595,-1.645 -0.96,-2.4 -0.338,-0.462 -0.634,-0.965 -0.72,-1.68 -0.244,-0.876 -0.596,-1.645 -0.96,-2.399 -0.103,-0.458 -0.686,-0.435 -0.48,-1.2 -0.417,-0.943 -0.725,-1.995 -1.2,-2.88 -0.245,-0.315 -0.235,-0.885 -0.48,-1.2 -0.417,-0.943 -0.725,-1.995 -1.2,-2.88 -0.245,-0.315 -0.235,-0.885 -0.48,-1.2 -0.417,-0.943 -0.725,-1.995 -1.2,-2.88 -0.245,-0.315 -0.235,-0.885 -0.48,-1.2 -0.417,-0.943 -0.725,-1.995 -1.2,-2.88 -0.245,-0.315 -0.235,-0.885 -0.48,-1.2 -0.417,-0.943 -0.725,-1.995 -1.2,-2.88 -0.16,-0.96 -0.9,-1.34 -0.96,-2.4 -0.262,-0.537 -0.397,-1.202 -0.72,-1.68 -0.16,-0.96 -0.9,-1.34 -0.96,-2.4 -0.263,-0.537 -0.397,-1.202 -0.72,-1.68 -0.263,-1.097 -1.03,-1.689 -1.2,-2.88 -0.244,-0.876 -0.595,-1.645 -0.96,-2.4 -0.337,-0.462 -0.634,-0.966 -0.72,-1.68 -0.244,-0.876 -0.596,-1.645 -0.96,-2.4 -0.103,-0.457 -0.686,-0.434 -0.48,-1.199 -0.417,-0.943 -0.725,-1.995 -1.2,-2.881 -0.245,-0.314 -0.235,-0.884 -0.48,-1.199 -0.417,-0.943 -0.725,-1.995 -1.2,-2.88 -0.245,-0.315 -0.235,-0.885 -0.48,-1.2 -0.417,-0.943 -0.725,-1.995 -1.2,-2.88 -0.245,-0.315 -0.235,-0.885 -0.48,-1.2 -0.417,-0.943 -0.725,-1.995 -1.2,-2.88 -0.245,-0.315 -0.235,-0.885 -0.48,-1.2 -0.417,-0.943 -0.725,-1.995 -1.2,-2.88 -0.16,-0.96 -0.899,-1.341 -0.96,-2.4 -0.262,-0.537 -0.397,-1.202 -0.72,-1.68 -0.16,-0.96 -0.9,-1.34 -0.96,-2.4 -0.263,-0.537 -0.397,-1.202 -0.72,-1.68 -0.263,-1.097 -1.03,-1.689 -1.2,-2.88 -0.244,-0.876 -0.596,-1.645 -0.96,-2.4 -0.337,-0.462 -0.634,-0.966 -0.72,-1.68 -0.244,-0.876 -0.595,-1.645 -0.96,-2.4 -0.103,-0.457 -0.686,-0.434 -0.48,-1.2 -0.417,-0.943 -0.725,-1.995 -1.2,-2.88 -0.245,-0.315 -0.235,-0.885 -0.48,-1.199 -0.417,-0.944 -0.725,-1.996 -1.2,-2.881 -0.245,-0.314 -0.235,-0.885 -0.48,-1.199 -0.417,-0.943 -0.725,-1.995 -1.2,-2.881 -0.245,-0.314 -0.235,-0.884 -0.48,-1.199 -0.417,-0.943 -0.725,-1.995 -1.2,-2.88 -0.245,-0.315 -0.235,-0.885 -0.48,-1.2 -0.417,-0.943 -0.725,-1.995 -1.2,-2.88 -0.16,-0.961 -0.9,-1.341 -0.96,-2.4 -0.262,-0.537 -0.397,-1.202 -0.72,-1.68 -0.16,-0.961 -0.9,-1.341 -0.96,-2.4 -0.263,-0.537 -0.397,-1.202 -0.72,-1.68 -0.263,-1.097 -1.03,-1.689 -1.2,-2.88 -0.244,-0.877 -0.596,-1.645 -0.96,-2.4 -0.338,-0.462 -0.634,-0.966 -0.72,-1.68 -0.244,-0.876 -0.595,-1.645 -0.96,-2.4 -0.102,-0.458 -0.686,-0.435 -0.48,-1.2 -0.417,-0.943 -0.725,-1.995 -1.2,-2.88 -0.245,-0.315 -0.235,-0.885 -0.48,-1.2 -0.417,-0.943 -0.725,-1.995 -1.2,-2.88 -0.245,-0.315 -0.235,-0.885 -0.48,-1.2 -0.417,-0.943 -0.725,-1.995 -1.2,-2.88 -0.245,-0.315 -0.235,-0.885 -0.48,-1.199 -0.417,-0.944 -0.725,-1.996 -1.2,-2.881 -0.245,-0.314 -0.235,-0.885 -0.48,-1.199 -0.417,-0.943 -0.725,-1.996 -1.2,-2.881 -0.16,-0.96 -0.9,-1.34 -0.96,-2.399 -0.263,-0.538 -0.397,-1.203 -0.72,-1.68 -0.16,-0.961 -0.9,-1.341 -0.96,-2.4 -0.263,-0.538 -0.397,-1.203 -0.72,-1.68 -0.263,-1.097 -1.03,-1.689 -1.2,-2.88 -0.244,-0.876 -0.596,-1.645 -0.96,-2.4 -0.338,-0.462 -0.634,-0.966 -0.72,-1.68 -0.244,-0.876 -0.595,-1.645 -0.96,-2.4 -0.102,-0.458 -0.686,-0.434 -0.48,-1.2 -0.417,-0.943 -0.725,-1.995 -1.2,-2.88 -0.245,-0.315 -0.235,-0.885 -0.48,-1.2 -0.417,-0.943 -0.725,-1.995 -1.2,-2.88 -0.245,-0.315 -0.235,-0.885 -0.48,-1.2 -0.417,-0.944 -0.725,-1.996 -1.2,-2.88 -0.245,-0.315 -0.235,-0.885 -0.48,-1.2 -0.417,-0.943 -0.725,-1.995 -1.2,-2.88 -0.245,-0.315 -0.235,-0.884 -0.48,-1.2 -0.417,-0.943 -0.725,-1.995 -1.2,-2.88 -0.16,-0.96 -0.9,-1.34 -0.96,-2.4 -0.263,-0.537 -0.397,-1.202 -0.72,-1.68 -0.16,-0.96 -0.9,-1.34 -0.96,-2.4 -0.263,-0.538 -0.397,-1.203 -0.72,-1.68 -0.264,-1.097 -1.031,-1.689 -1.2,-2.88 -0.244,-0.876 -0.595,-1.645 -0.96,-2.4 -0.338,-0.462 -0.634,-0.965 -0.72,-1.68 -0.244,-0.876 -0.595,-1.645 -0.96,-2.4 -0.102,-0.458 -0.686,-0.435 -0.48,-1.2 -0.417,-0.943 -0.725,-1.995 -1.2,-2.88 -0.245,-0.315 -0.235,-0.885 -0.48,-1.2 -0.417,-0.943 -0.725,-1.995 -1.2,-2.88 -0.245,-0.315 -0.235,-0.885 -0.48,-1.2 -0.417,-0.943 -0.725,-1.995 -1.2,-2.88 -0.245,-0.315 -0.235,-0.885 -0.48,-1.2 -0.417,-0.943 -0.725,-1.995 -1.2,-2.88 -0.245,-0.315 -0.235,-0.885 -0.48,-1.2 -0.417,-0.943 -0.725,-1.995 -1.2,-2.88 -0.16,-0.96 -0.9,-1.34 -0.96,-2.4 -0.263,-0.538 -0.397,-1.203 -0.72,-1.68 -0.16,-0.96 -0.9,-1.34 -0.96,-2.4 -0.262,-0.538 -0.397,-1.203 -0.72,-1.68 -0.264,-1.097 -1.031,-1.69 -1.2,-2.88 -0.244,-0.876 -0.595,-1.645 -0.96,-2.4 -0.338,-0.462 -0.634,-0.966 -0.72,-1.68 -0.244,-0.876 -0.595,-1.645 -0.96,-2.4 -0.102,-0.458 -0.686,-0.434 -0.48,-1.2 -0.417,-0.943 -0.725,-1.995 -1.2,-2.88 -0.245,-0.315 -0.235,-0.884 -0.48,-1.2 -0.417,-0.943 -0.725,-1.995 -1.2,-2.88 -0.245,-0.315 -0.235,-0.885 -0.48,-1.2 -0.417,-0.943 -0.725,-1.995 -1.2,-2.88 -0.245,-0.315 -0.235,-0.885 -0.48,-1.2 -0.417,-0.943 -0.725,-1.995 -1.2,-2.88 -0.245,-0.315 -0.235,-0.885 -0.48,-1.2 -0.417,-0.943 -0.725,-1.995 -1.2,-2.88 -0.16,-0.96 -0.9,-1.34 -0.96,-2.4 -0.263,-0.538 -0.397,-1.203 -0.72,-1.68 -0.16,-0.96 -0.899,-1.34 -0.96,-2.4 -0.262,-0.538 -0.397,-1.203 -0.72,-1.68 -0.264,-1.097 -1.03,-1.689 -1.2,-2.88 -0.244,-0.876 -0.595,-1.645 -0.96,-2.4 -0.338,-0.462 -0.634,-0.966 -0.72,-1.68 -0.244,-0.876 -0.596,-1.645 -0.96,-2.4 -0.103,-0.458 -0.686,-0.434 -0.48,-1.2 -0.417,-0.943 -0.725,-1.995 -1.2,-2.88 -0.245,-0.315 -0.235,-0.885 -0.48,-1.2 -0.417,-0.944 -0.725,-1.996 -1.2,-2.88 -0.245,-0.315 -0.235,-0.885 -0.48,-1.2 -0.417,-0.943 -0.725,-1.995 -1.2,-2.88 -0.245,-0.315 -0.235,-0.884 -0.48,-1.2 -0.417,-0.943 -0.725,-1.995 -1.2,-2.88 -0.245,-0.315 -0.235,-0.885 -0.48,-1.2 -0.417,-0.943 -0.725,-1.995 -1.2,-2.88 -0.16,-0.96 -0.9,-1.34 -0.96,-2.4 -0.262,-0.537 -0.397,-1.202 -0.72,-1.68 -0.16,-0.96 -0.9,-1.34 -0.96,-2.4 -0.263,-0.538 -0.397,-1.203 -0.72,-1.68 -0.263,-1.097 -1.03,-1.689 -1.2,-2.88 -0.244,-0.876 -0.595,-1.645 -0.96,-2.4 -0.337,-0.462 -0.634,-0.965 -0.72,-1.68 -0.244,-0.876 -0.596,-1.645 -0.96,-2.4 -0.103,-0.458 -0.686,-0.435 -0.48,-1.2 -0.417,-0.943 -0.725,-1.995 -1.2,-2.88 -0.245,-0.315 -0.235,-0.885 -0.48,-1.2 -0.417,-0.943 -0.725,-1.995 -1.2,-2.88 -0.245,-0.315 -0.235,-0.885 -0.48,-1.2 -0.417,-0.943 -0.725,-1.995 -1.2,-2.88 -0.245,-0.315 -0.235,-0.885 -0.48,-1.2 -0.417,-0.943 -0.725,-1.995 -1.2,-2.88 -0.245,-0.315 -0.235,-0.885 -0.48,-1.2 -0.417,-0.944 -0.725,-1.996 -1.2,-2.88 -0.16,-0.96 -0.9,-1.34 -0.96,-2.4 -0.262,-0.538 -0.397,-1.203 -0.72,-1.68 -0.16,-0.96 -0.9,-1.34 -0.96,-2.4 -0.263,-0.537 -0.397,-1.202 -0.72,-1.68 -0.263,-1.097 -1.03,-1.69 -1.2,-2.88 -0.244,-0.876 -0.596,-1.645 -0.96,-2.4 C 10.266,24.498 9.969,23.994 9.883,23.28 9.639,22.404 9.287,21.635 8.923,20.88 8.82,20.422 8.237,20.446 8.443,19.68 8,18.737 7.692,17.685 7.217,16.8 6.972,16.485 6.982,15.916 6.737,15.6 6.32,14.657 6.012,13.605 5.537,12.72 5.292,12.405 5.302,11.835 5.057,11.52 4.64,10.577 4.332,9.525 3.857,8.64 3.612,8.325 3.622,7.755 3.377,7.44 2.96,6.497 2.652,5.445 2.177,4.56 1.915,4.022 1.78,3.357 1.457,2.88 1.176,2.121 1.018,1.239 0.497,0.72 c 0,-0.08 0,-0.16 0,-0.24 7.44,0 14.88,0 22.32,0 18.64,0 37.28,0 55.92,0 55.201,0.56 111.439,0.08 167.04,0.24 18.561,0 37.12,0 55.681,0 9.6,0.56 20.24,0.08 30.24,0.24 9.998,0.312 21.169,-0.629 30.24,0.48 z"
         id="path17382" />
      <path
         style="clip-rule:evenodd;fill:#666666;fill-rule:evenodd"
         d="m 361.217,3.12 c 0.242,0.651 -0.361,2.512 -1.2,2.88 0.417,-0.943 0.726,-1.995 1.2,-2.88 z"
         id="path17384" />
      <path
         style="clip-rule:evenodd;fill:#666666;fill-rule:evenodd"
         d="M 3.377,7.44 C 2.539,7.072 1.935,5.211 2.177,4.56 2.652,5.445 2.96,6.497 3.377,7.44 Z"
         id="path17386" />
      <path
         style="clip-rule:evenodd;fill:#666666;fill-rule:evenodd"
         d="m 359.538,7.2 c 0.242,0.651 -0.362,2.511 -1.2,2.88 0.416,-0.943 0.724,-1.995 1.2,-2.88 z"
         id="path17388" />
      <path
         style="clip-rule:evenodd;fill:#666666;fill-rule:evenodd"
         d="M 5.057,11.52 C 4.219,11.151 3.615,9.291 3.857,8.64 c 0.475,0.885 0.783,1.937 1.2,2.88 z"
         id="path17390" />
      <path
         style="clip-rule:evenodd;fill:#666666;fill-rule:evenodd"
         d="m 357.858,11.28 c 0.242,0.651 -0.362,2.511 -1.2,2.88 0.416,-0.943 0.724,-1.995 1.2,-2.88 z"
         id="path17392" />
      <path
         style="clip-rule:evenodd;fill:#666666;fill-rule:evenodd"
         d="m 6.737,15.6 c -0.838,-0.369 -1.442,-2.229 -1.2,-2.88 0.475,0.885 0.783,1.937 1.2,2.88 z"
         id="path17394" />
      <path
         style="clip-rule:evenodd;fill:#2c2c2c;fill-rule:evenodd"
         d="m 356.177,15.36 c 0.325,0.498 -0.266,2.125 -0.96,2.4 0.244,-0.876 0.596,-1.645 0.96,-2.4 z"
         id="path17396" />
      <path
         style="clip-rule:evenodd;fill:#666666;fill-rule:evenodd"
         d="M 8.417,19.68 C 7.579,19.311 6.975,17.451 7.217,16.8 7.692,17.685 8,18.737 8.417,19.68 Z"
         id="path17398" />
      <path
         style="clip-rule:evenodd;fill:#2c2c2c;fill-rule:evenodd"
         d="m 354.498,19.44 c 0.325,0.498 -0.266,2.125 -0.96,2.4 0.244,-0.876 0.595,-1.645 0.96,-2.4 z"
         id="path17400" />
      <path
         style="clip-rule:evenodd;fill:#2c2c2c;fill-rule:evenodd"
         d="m 9.857,23.28 c -0.694,-0.275 -1.285,-1.903 -0.96,-2.4 0.364,0.755 0.716,1.524 0.96,2.4 z"
         id="path17402" />
      <path
         style="clip-rule:evenodd;fill:#2c2c2c;fill-rule:evenodd"
         d="m 352.818,23.52 c 0.325,0.498 -0.266,2.125 -0.96,2.4 0.243,-0.876 0.595,-1.645 0.96,-2.4 z"
         id="path17404" />
      <path
         style="clip-rule:evenodd;fill:#2c2c2c;fill-rule:evenodd"
         d="m 11.537,27.36 c -0.695,-0.274 -1.286,-1.902 -0.96,-2.4 0.364,0.755 0.716,1.524 0.96,2.4 z"
         id="path17406" />
      <path
         style="clip-rule:evenodd;fill:#2c2c2c;fill-rule:evenodd"
         d="m 350.658,28.8 c 0.378,0.24 -0.026,1.718 -0.72,1.68 0.262,-0.538 0.397,-1.203 0.72,-1.68 z"
         id="path17408" />
      <path
         style="clip-rule:evenodd;fill:#2c2c2c;fill-rule:evenodd"
         d="m 13.457,31.92 c -0.694,0.038 -1.098,-1.44 -0.72,-1.68 0.323,0.478 0.457,1.143 0.72,1.68 z"
         id="path17410" />
      <path
         style="clip-rule:evenodd;fill:#2c2c2c;fill-rule:evenodd"
         d="m 348.978,32.88 c 0.378,0.24 -0.026,1.718 -0.721,1.68 0.263,-0.538 0.398,-1.203 0.721,-1.68 z"
         id="path17412" />
      <path
         style="clip-rule:evenodd;fill:#2c2c2c;fill-rule:evenodd"
         d="m 15.137,36 c -0.694,0.038 -1.098,-1.44 -0.72,-1.68 0.322,0.477 0.458,1.142 0.72,1.68 z"
         id="path17414" />
      <path
         style="clip-rule:evenodd;fill:#666666;fill-rule:evenodd"
         d="m 347.297,36.96 c 0.242,0.651 -0.361,2.512 -1.2,2.88 0.417,-0.944 0.726,-1.995 1.2,-2.88 z"
         id="path17416" />
      <path
         style="clip-rule:evenodd;fill:#666666;fill-rule:evenodd"
         d="m 17.297,41.28 c -0.838,-0.369 -1.442,-2.229 -1.2,-2.88 0.475,0.885 0.783,1.936 1.2,2.88 z"
         id="path17418" />
      <path
         style="clip-rule:evenodd;fill:#666666;fill-rule:evenodd"
         d="m 345.618,41.04 c 0.242,0.651 -0.362,2.512 -1.2,2.88 0.416,-0.943 0.724,-1.995 1.2,-2.88 z"
         id="path17420" />
      <path
         style="clip-rule:evenodd;fill:#666666;fill-rule:evenodd"
         d="m 18.977,45.36 c -0.838,-0.368 -1.442,-2.229 -1.2,-2.88 0.475,0.885 0.784,1.937 1.2,2.88 z"
         id="path17422" />
      <path
         style="clip-rule:evenodd;fill:#666666;fill-rule:evenodd"
         d="m 343.938,45.12 c 0.242,0.651 -0.362,2.512 -1.2,2.88 0.416,-0.943 0.724,-1.995 1.2,-2.88 z"
         id="path17424" />
      <path
         style="clip-rule:evenodd;fill:#666666;fill-rule:evenodd"
         d="m 20.657,49.44 c -0.838,-0.368 -1.442,-2.229 -1.2,-2.88 0.475,0.885 0.783,1.937 1.2,2.88 z"
         id="path17426" />
      <path
         style="clip-rule:evenodd;fill:#666666;fill-rule:evenodd"
         d="m 342.257,49.2 c 0.242,0.651 -0.361,2.512 -1.2,2.88 0.417,-0.943 0.726,-1.995 1.2,-2.88 z"
         id="path17428" />
      <path
         style="clip-rule:evenodd;fill:#666666;fill-rule:evenodd"
         d="m 22.337,53.52 c -0.838,-0.368 -1.442,-2.229 -1.2,-2.88 0.475,0.885 0.783,1.937 1.2,2.88 z"
         id="path17430" />
      <path
         style="clip-rule:evenodd;fill:#2c2c2c;fill-rule:evenodd"
         d="m 340.578,53.28 c 0.325,0.497 -0.266,2.125 -0.96,2.4 0.244,-0.876 0.595,-1.644 0.96,-2.4 z"
         id="path17432" />
      <path
         style="clip-rule:evenodd;fill:#666666;fill-rule:evenodd"
         d="m 24.017,57.6 c -0.838,-0.368 -1.442,-2.229 -1.2,-2.88 0.475,0.885 0.783,1.937 1.2,2.88 z"
         id="path17434" />
      <path
         style="clip-rule:evenodd;fill:#2c2c2c;fill-rule:evenodd"
         d="m 338.898,57.36 c 0.325,0.497 -0.266,2.125 -0.96,2.4 0.243,-0.876 0.595,-1.644 0.96,-2.4 z"
         id="path17436" />
      <path
         style="clip-rule:evenodd;fill:#2c2c2c;fill-rule:evenodd"
         d="m 25.457,61.2 c -0.694,-0.275 -1.285,-1.903 -0.96,-2.4 0.364,0.756 0.716,1.524 0.96,2.4 z"
         id="path17438" />
      <path
         style="clip-rule:evenodd;fill:#2c2c2c;fill-rule:evenodd"
         d="m 337.217,61.44 c 0.325,0.498 -0.266,2.125 -0.96,2.4 0.244,-0.876 0.596,-1.645 0.96,-2.4 z"
         id="path17440" />
      <path
         style="clip-rule:evenodd;fill:#2c2c2c;fill-rule:evenodd"
         d="m 27.137,65.28 c -0.694,-0.275 -1.285,-1.903 -0.96,-2.4 0.365,0.756 0.716,1.524 0.96,2.4 z"
         id="path17442" />
      <path
         style="clip-rule:evenodd;fill:#2c2c2c;fill-rule:evenodd"
         d="m 335.057,66.72 c 0.378,0.24 -0.025,1.718 -0.72,1.68 0.263,-0.537 0.398,-1.202 0.72,-1.68 z"
         id="path17444" />
      <path
         style="clip-rule:evenodd;fill:#2c2c2c;fill-rule:evenodd"
         d="m 29.057,69.84 c -0.694,0.038 -1.098,-1.44 -0.72,-1.68 0.323,0.478 0.457,1.143 0.72,1.68 z"
         id="path17446" />
      <path
         style="clip-rule:evenodd;fill:#666666;fill-rule:evenodd"
         d="m 333.377,70.8 c 0.242,0.651 -0.361,2.511 -1.2,2.88 0.417,-0.943 0.725,-1.995 1.2,-2.88 z"
         id="path17448" />
      <path
         style="clip-rule:evenodd;fill:#2c2c2c;fill-rule:evenodd"
         d="m 30.737,73.92 c -0.694,0.039 -1.098,-1.44 -0.72,-1.68 0.322,0.478 0.458,1.143 0.72,1.68 z"
         id="path17450" />
      <path
         style="clip-rule:evenodd;fill:#666666;fill-rule:evenodd"
         d="m 331.698,74.88 c 0.242,0.651 -0.362,2.511 -1.2,2.88 0.417,-0.943 0.724,-1.995 1.2,-2.88 z"
         id="path17452" />
      <path
         style="clip-rule:evenodd;fill:#666666;fill-rule:evenodd"
         d="m 32.897,79.2 c -0.838,-0.369 -1.442,-2.229 -1.2,-2.88 0.475,0.885 0.783,1.937 1.2,2.88 z"
         id="path17454" />
      <path
         style="clip-rule:evenodd;fill:#666666;fill-rule:evenodd"
         d="m 330.017,78.96 c 0.243,0.651 -0.361,2.512 -1.199,2.88 0.416,-0.944 0.724,-1.995 1.199,-2.88 z"
         id="path17456" />
      <path
         style="clip-rule:evenodd;fill:#666666;fill-rule:evenodd"
         d="m 34.577,83.28 c -0.838,-0.369 -1.442,-2.229 -1.2,-2.88 0.475,0.885 0.783,1.937 1.2,2.88 z"
         id="path17458" />
      <path
         style="clip-rule:evenodd;fill:#666666;fill-rule:evenodd"
         d="m 328.337,83.04 c 0.242,0.651 -0.361,2.512 -1.2,2.88 0.417,-0.943 0.726,-1.995 1.2,-2.88 z"
         id="path17460" />
      <path
         style="clip-rule:evenodd;fill:#666666;fill-rule:evenodd"
         d="m 36.257,87.36 c -0.838,-0.369 -1.442,-2.229 -1.2,-2.88 0.475,0.885 0.783,1.937 1.2,2.88 z"
         id="path17462" />
      <path
         style="clip-rule:evenodd;fill:#666666;fill-rule:evenodd"
         d="m 326.658,87.12 c 0.242,0.651 -0.362,2.512 -1.2,2.88 0.417,-0.943 0.724,-1.995 1.2,-2.88 z"
         id="path17464" />
      <path
         style="clip-rule:evenodd;fill:#666666;fill-rule:evenodd"
         d="m 37.937,91.44 c -0.838,-0.369 -1.442,-2.229 -1.2,-2.88 0.475,0.885 0.784,1.937 1.2,2.88 z"
         id="path17466" />
      <path
         style="clip-rule:evenodd;fill:#2c2c2c;fill-rule:evenodd"
         d="m 324.977,91.2 c 0.325,0.498 -0.266,2.125 -0.96,2.4 0.244,-0.876 0.596,-1.644 0.96,-2.4 z"
         id="path17468" />
      <path
         style="clip-rule:evenodd;fill:#666666;fill-rule:evenodd"
         d="m 39.617,95.52 c -0.838,-0.368 -1.442,-2.229 -1.2,-2.88 0.475,0.885 0.783,1.937 1.2,2.88 z"
         id="path17470" />
      <path
         style="clip-rule:evenodd;fill:#2c2c2c;fill-rule:evenodd"
         d="m 323.297,95.28 c 0.325,0.498 -0.266,2.125 -0.96,2.4 0.245,-0.876 0.596,-1.644 0.96,-2.4 z"
         id="path17472" />
      <path
         style="clip-rule:evenodd;fill:#2c2c2c;fill-rule:evenodd"
         d="m 41.057,99.12 c -0.694,-0.275 -1.285,-1.902 -0.96,-2.4 0.364,0.756 0.716,1.524 0.96,2.4 z"
         id="path17474" />
      <path
         style="clip-rule:evenodd;fill:#2c2c2c;fill-rule:evenodd"
         d="m 321.137,100.56 c 0.378,0.24 -0.025,1.718 -0.72,1.68 0.263,-0.537 0.398,-1.202 0.72,-1.68 z"
         id="path17476" />
      <path
         style="clip-rule:evenodd;fill:#2c2c2c;fill-rule:evenodd"
         d="m 42.737,103.2 c -0.694,-0.275 -1.285,-1.902 -0.96,-2.4 0.365,0.756 0.716,1.524 0.96,2.4 z"
         id="path17478" />
      <path
         style="clip-rule:evenodd;fill:#2c2c2c;fill-rule:evenodd"
         d="m 319.458,104.64 c 0.378,0.24 -0.025,1.718 -0.72,1.68 0.262,-0.537 0.397,-1.202 0.72,-1.68 z"
         id="path17480" />
      <path
         style="clip-rule:evenodd;fill:#2c2c2c;fill-rule:evenodd"
         d="m 44.657,107.76 c -0.694,0.038 -1.098,-1.44 -0.72,-1.68 0.322,0.478 0.458,1.143 0.72,1.68 z"
         id="path17482" />
      <path
         style="clip-rule:evenodd;fill:#666666;fill-rule:evenodd"
         d="m 317.778,108.72 c 0.242,0.651 -0.362,2.512 -1.2,2.88 0.416,-0.943 0.724,-1.995 1.2,-2.88 z"
         id="path17484" />
      <path
         style="clip-rule:evenodd;fill:#2c2c2c;fill-rule:evenodd"
         d="m 46.337,111.84 c -0.694,0.038 -1.098,-1.44 -0.72,-1.68 0.322,0.478 0.457,1.143 0.72,1.68 z"
         id="path17486" />
      <path
         style="clip-rule:evenodd;fill:#666666;fill-rule:evenodd"
         d="m 316.097,112.8 c 0.242,0.651 -0.361,2.512 -1.199,2.88 0.416,-0.943 0.725,-1.995 1.199,-2.88 z"
         id="path17488" />
      <path
         style="clip-rule:evenodd;fill:#666666;fill-rule:evenodd"
         d="m 48.497,117.12 c -0.838,-0.368 -1.442,-2.229 -1.2,-2.88 0.475,0.885 0.784,1.937 1.2,2.88 z"
         id="path17490" />
      <path
         style="clip-rule:evenodd;fill:#666666;fill-rule:evenodd"
         d="m 314.417,116.88 c 0.242,0.651 -0.361,2.511 -1.2,2.88 0.417,-0.943 0.725,-1.995 1.2,-2.88 z"
         id="path17492" />
      <path
         style="clip-rule:evenodd;fill:#666666;fill-rule:evenodd"
         d="m 50.177,121.2 c -0.838,-0.368 -1.442,-2.229 -1.2,-2.88 0.475,0.885 0.783,1.937 1.2,2.88 z"
         id="path17494" />
      <path
         style="clip-rule:evenodd;fill:#666666;fill-rule:evenodd"
         d="m 312.738,120.96 c 0.242,0.651 -0.362,2.511 -1.2,2.88 0.416,-0.943 0.724,-1.995 1.2,-2.88 z"
         id="path17496" />
      <path
         style="clip-rule:evenodd;fill:#666666;fill-rule:evenodd"
         d="m 51.857,125.28 c -0.838,-0.369 -1.442,-2.229 -1.2,-2.88 0.475,0.885 0.783,1.937 1.2,2.88 z"
         id="path17498" />
      <path
         style="clip-rule:evenodd;fill:#2c2c2c;fill-rule:evenodd"
         d="m 311.057,125.04 c 0.325,0.498 -0.266,2.125 -0.96,2.4 0.244,-0.876 0.596,-1.644 0.96,-2.4 z"
         id="path17500" />
      <path
         style="clip-rule:evenodd;fill:#666666;fill-rule:evenodd"
         d="m 53.537,129.36 c -0.838,-0.369 -1.442,-2.229 -1.2,-2.88 0.475,0.885 0.784,1.937 1.2,2.88 z"
         id="path17502" />
      <path
         style="clip-rule:evenodd;fill:#2c2c2c;fill-rule:evenodd"
         d="m 309.377,129.12 c 0.325,0.498 -0.266,2.125 -0.96,2.4 0.245,-0.876 0.596,-1.645 0.96,-2.4 z"
         id="path17504" />
      <path
         style="clip-rule:evenodd;fill:#666666;fill-rule:evenodd"
         d="m 55.217,133.44 c -0.838,-0.369 -1.442,-2.229 -1.2,-2.88 0.475,0.885 0.783,1.937 1.2,2.88 z"
         id="path17506" />
      <path
         style="clip-rule:evenodd;fill:#2c2c2c;fill-rule:evenodd"
         d="m 307.698,133.2 c 0.325,0.498 -0.266,2.125 -0.96,2.4 0.243,-0.876 0.595,-1.644 0.96,-2.4 z"
         id="path17508" />
      <path
         style="clip-rule:evenodd;fill:#2c2c2c;fill-rule:evenodd"
         d="m 56.657,137.04 c -0.694,-0.274 -1.285,-1.902 -0.96,-2.4 0.365,0.756 0.716,1.524 0.96,2.4 z"
         id="path17510" />
      <path
         style="clip-rule:evenodd;fill:#2c2c2c;fill-rule:evenodd"
         d="m 305.538,138.48 c 0.378,0.239 -0.026,1.718 -0.72,1.68 0.262,-0.537 0.397,-1.202 0.72,-1.68 z"
         id="path17512" />
      <path
         style="clip-rule:evenodd;fill:#2c2c2c;fill-rule:evenodd"
         d="m 58.337,141.12 c -0.694,-0.274 -1.285,-1.902 -0.96,-2.4 0.365,0.756 0.716,1.524 0.96,2.4 z"
         id="path17514" />
      <path
         style="clip-rule:evenodd;fill:#666666;fill-rule:evenodd"
         d="m 303.858,142.561 c 0.242,0.651 -0.362,2.511 -1.2,2.88 0.416,-0.944 0.724,-1.996 1.2,-2.88 z"
         id="path17516" />
      <path
         style="clip-rule:evenodd;fill:#2c2c2c;fill-rule:evenodd"
         d="m 60.257,145.68 c -0.694,0.039 -1.098,-1.44 -0.72,-1.68 0.322,0.478 0.458,1.143 0.72,1.68 z"
         id="path17518" />
      <path
         style="clip-rule:evenodd;fill:#666666;fill-rule:evenodd"
         d="m 302.177,146.64 c 0.242,0.651 -0.361,2.512 -1.2,2.88 0.417,-0.943 0.726,-1.995 1.2,-2.88 z"
         id="path17520" />
      <path
         style="clip-rule:evenodd;fill:#2c2c2c;fill-rule:evenodd"
         d="m 61.937,149.76 c -0.694,0.038 -1.098,-1.44 -0.72,-1.68 0.323,0.478 0.457,1.143 0.72,1.68 z"
         id="path17522" />
      <path
         style="clip-rule:evenodd;fill:#666666;fill-rule:evenodd"
         d="m 300.498,150.72 c 0.242,0.651 -0.362,2.512 -1.2,2.88 0.416,-0.943 0.724,-1.995 1.2,-2.88 z"
         id="path17524" />
      <path
         style="clip-rule:evenodd;fill:#666666;fill-rule:evenodd"
         d="m 64.097,155.04 c -0.838,-0.368 -1.442,-2.229 -1.2,-2.88 0.475,0.885 0.783,1.937 1.2,2.88 z"
         id="path17526" />
      <path
         style="clip-rule:evenodd;fill:#666666;fill-rule:evenodd"
         d="m 298.818,154.8 c 0.242,0.651 -0.362,2.512 -1.2,2.88 0.416,-0.943 0.724,-1.995 1.2,-2.88 z"
         id="path17528" />
      <path
         style="clip-rule:evenodd;fill:#666666;fill-rule:evenodd"
         d="m 65.777,159.12 c -0.838,-0.368 -1.442,-2.229 -1.2,-2.88 0.475,0.885 0.783,1.937 1.2,2.88 z"
         id="path17530" />
      <path
         style="clip-rule:evenodd;fill:#666666;fill-rule:evenodd"
         d="m 297.137,158.88 c 0.242,0.651 -0.361,2.512 -1.2,2.88 0.417,-0.943 0.726,-1.995 1.2,-2.88 z"
         id="path17532" />
      <path
         style="clip-rule:evenodd;fill:#666666;fill-rule:evenodd"
         d="m 67.457,163.2 c -0.838,-0.368 -1.442,-2.229 -1.2,-2.88 0.475,0.885 0.784,1.937 1.2,2.88 z"
         id="path17534" />
      <path
         style="clip-rule:evenodd;fill:#2c2c2c;fill-rule:evenodd"
         d="m 295.458,162.96 c 0.325,0.498 -0.266,2.125 -0.96,2.4 0.244,-0.876 0.595,-1.644 0.96,-2.4 z"
         id="path17536" />
      <path
         style="clip-rule:evenodd;fill:#666666;fill-rule:evenodd"
         d="m 69.137,167.28 c -0.838,-0.368 -1.442,-2.229 -1.2,-2.88 0.475,0.885 0.783,1.937 1.2,2.88 z"
         id="path17538" />
      <path
         style="clip-rule:evenodd;fill:#2c2c2c;fill-rule:evenodd"
         d="m 293.778,167.041 c 0.325,0.497 -0.266,2.125 -0.96,2.4 0.243,-0.877 0.595,-1.645 0.96,-2.4 z"
         id="path17540" />
      <path
         style="clip-rule:evenodd;fill:#666666;fill-rule:evenodd"
         d="m 70.817,171.36 c -0.838,-0.368 -1.442,-2.229 -1.2,-2.88 0.475,0.885 0.783,1.937 1.2,2.88 z"
         id="path17542" />
      <path
         style="clip-rule:evenodd;fill:#2c2c2c;fill-rule:evenodd"
         d="m 291.618,172.32 c 0.378,0.24 -0.026,1.718 -0.721,1.68 0.263,-0.537 0.397,-1.202 0.721,-1.68 z"
         id="path17544" />
      <path
         style="clip-rule:evenodd;fill:#2c2c2c;fill-rule:evenodd"
         d="m 72.257,174.96 c -0.694,-0.275 -1.285,-1.903 -0.96,-2.4 0.365,0.756 0.716,1.524 0.96,2.4 z"
         id="path17546" />
      <path
         style="clip-rule:evenodd;fill:#2c2c2c;fill-rule:evenodd"
         d="m 289.937,176.4 c 0.379,0.24 -0.025,1.718 -0.72,1.68 0.263,-0.537 0.398,-1.202 0.72,-1.68 z"
         id="path17548" />
      <path
         style="clip-rule:evenodd;fill:#2c2c2c;fill-rule:evenodd"
         d="m 73.937,179.041 c -0.694,-0.275 -1.285,-1.903 -0.96,-2.4 0.365,0.755 0.716,1.523 0.96,2.4 z"
         id="path17550" />
      <path
         style="clip-rule:evenodd;fill:#666666;fill-rule:evenodd"
         d="m 288.257,180.48 c 0.242,0.651 -0.361,2.512 -1.2,2.88 0.417,-0.943 0.726,-1.995 1.2,-2.88 z"
         id="path17552" />
      <path
         style="clip-rule:evenodd;fill:#2c2c2c;fill-rule:evenodd"
         d="m 75.857,183.601 c -0.694,0.038 -1.098,-1.44 -0.72,-1.68 0.322,0.477 0.457,1.142 0.72,1.68 z"
         id="path17554" />
      <path
         style="clip-rule:evenodd;fill:#666666;fill-rule:evenodd"
         d="m 286.578,184.561 c 0.242,0.651 -0.362,2.511 -1.2,2.88 0.416,-0.944 0.724,-1.996 1.2,-2.88 z"
         id="path17556" />
      <path
         style="clip-rule:evenodd;fill:#2c2c2c;fill-rule:evenodd"
         d="m 77.537,187.68 c -0.694,0.039 -1.098,-1.44 -0.72,-1.68 0.323,0.478 0.457,1.143 0.72,1.68 z"
         id="path17558" />
      <path
         style="clip-rule:evenodd;fill:#666666;fill-rule:evenodd"
         d="m 284.897,188.641 c 0.243,0.651 -0.361,2.511 -1.199,2.88 0.416,-0.944 0.724,-1.996 1.199,-2.88 z"
         id="path17560" />
      <path
         style="clip-rule:evenodd;fill:#666666;fill-rule:evenodd"
         d="m 79.697,192.96 c -0.838,-0.369 -1.442,-2.229 -1.2,-2.88 0.475,0.885 0.783,1.937 1.2,2.88 z"
         id="path17562" />
      <path
         style="clip-rule:evenodd;fill:#666666;fill-rule:evenodd"
         d="m 283.217,192.72 c 0.242,0.651 -0.361,2.512 -1.2,2.88 0.417,-0.943 0.726,-1.995 1.2,-2.88 z"
         id="path17564" />
      <path
         style="clip-rule:evenodd;fill:#666666;fill-rule:evenodd"
         d="m 81.377,197.041 c -0.838,-0.369 -1.442,-2.229 -1.2,-2.88 0.475,0.884 0.783,1.936 1.2,2.88 z"
         id="path17566" />
      <path
         style="clip-rule:evenodd;fill:#666666;fill-rule:evenodd"
         d="m 281.538,196.8 c 0.242,0.651 -0.362,2.512 -1.2,2.88 0.416,-0.943 0.724,-1.995 1.2,-2.88 z"
         id="path17568" />
      <path
         style="clip-rule:evenodd;fill:#666666;fill-rule:evenodd"
         d="m 83.057,201.121 c -0.838,-0.369 -1.442,-2.229 -1.2,-2.88 0.475,0.884 0.784,1.936 1.2,2.88 z"
         id="path17570" />
      <path
         style="clip-rule:evenodd;fill:#2c2c2c;fill-rule:evenodd"
         d="m 279.857,200.88 c 0.325,0.498 -0.266,2.125 -0.96,2.4 0.244,-0.876 0.596,-1.644 0.96,-2.4 z"
         id="path17572" />
      <path
         style="clip-rule:evenodd;fill:#666666;fill-rule:evenodd"
         d="m 84.737,205.2 c -0.838,-0.368 -1.442,-2.229 -1.2,-2.88 0.475,0.885 0.783,1.937 1.2,2.88 z"
         id="path17574" />
      <path
         style="clip-rule:evenodd;fill:#2c2c2c;fill-rule:evenodd"
         d="m 278.177,204.96 c 0.325,0.498 -0.266,2.125 -0.96,2.4 0.244,-0.876 0.596,-1.644 0.96,-2.4 z"
         id="path17576" />
      <path
         style="clip-rule:evenodd;fill:#666666;fill-rule:evenodd"
         d="m 86.417,209.28 c -0.838,-0.368 -1.442,-2.229 -1.2,-2.88 0.475,0.885 0.783,1.937 1.2,2.88 z"
         id="path17578" />
      <path
         style="clip-rule:evenodd;fill:#2c2c2c;fill-rule:evenodd"
         d="m 276.017,210.24 c 0.378,0.24 -0.025,1.718 -0.72,1.68 0.263,-0.537 0.398,-1.202 0.72,-1.68 z"
         id="path17580" />
      <path
         style="clip-rule:evenodd;fill:#2c2c2c;fill-rule:evenodd"
         d="m 87.857,212.88 c -0.694,-0.275 -1.285,-1.902 -0.96,-2.4 0.365,0.756 0.716,1.524 0.96,2.4 z"
         id="path17582" />
      <path
         style="clip-rule:evenodd;fill:#2c2c2c;fill-rule:evenodd"
         d="m 274.337,214.32 c 0.378,0.24 -0.025,1.718 -0.72,1.68 0.263,-0.537 0.398,-1.202 0.72,-1.68 z"
         id="path17584" />
      <path
         style="clip-rule:evenodd;fill:#2c2c2c;fill-rule:evenodd"
         d="m 89.537,216.96 c -0.694,-0.275 -1.285,-1.903 -0.96,-2.4 0.364,0.756 0.716,1.524 0.96,2.4 z"
         id="path17586" />
      <path
         style="clip-rule:evenodd;fill:#666666;fill-rule:evenodd"
         d="m 272.658,218.4 c 0.242,0.651 -0.362,2.512 -1.2,2.88 0.416,-0.943 0.724,-1.995 1.2,-2.88 z"
         id="path17588" />
      <path
         style="clip-rule:evenodd;fill:#2c2c2c;fill-rule:evenodd"
         d="m 91.457,221.521 c -0.694,0.038 -1.098,-1.44 -0.72,-1.68 0.323,0.477 0.457,1.142 0.72,1.68 z"
         id="path17590" />
      <path
         style="clip-rule:evenodd;fill:#666666;fill-rule:evenodd"
         d="m 270.977,222.48 c 0.243,0.651 -0.361,2.512 -1.199,2.88 0.416,-0.943 0.724,-1.995 1.199,-2.88 z"
         id="path17592" />
      <path
         style="clip-rule:evenodd;fill:#2c2c2c;fill-rule:evenodd"
         d="m 93.137,225.601 c -0.694,0.038 -1.098,-1.44 -0.72,-1.68 0.323,0.476 0.458,1.141 0.72,1.68 z"
         id="path17594" />
      <path
         style="clip-rule:evenodd;fill:#666666;fill-rule:evenodd"
         d="m 269.297,226.561 c 0.242,0.651 -0.362,2.512 -1.2,2.88 0.417,-0.944 0.725,-1.996 1.2,-2.88 z"
         id="path17596" />
      <path
         style="clip-rule:evenodd;fill:#666666;fill-rule:evenodd"
         d="m 95.297,230.881 c -0.838,-0.369 -1.442,-2.229 -1.2,-2.881 0.475,0.885 0.783,1.938 1.2,2.881 z"
         id="path17598" />
      <path
         style="clip-rule:evenodd;fill:#666666;fill-rule:evenodd"
         d="m 267.618,230.641 c 0.242,0.651 -0.362,2.512 -1.2,2.88 0.415,-0.944 0.724,-1.996 1.2,-2.88 z"
         id="path17600" />
      <path
         style="clip-rule:evenodd;fill:#666666;fill-rule:evenodd"
         d="m 96.977,234.961 c -0.838,-0.369 -1.442,-2.229 -1.2,-2.881 0.475,0.885 0.784,1.937 1.2,2.881 z"
         id="path17602" />
      <path
         style="clip-rule:evenodd;fill:#2c2c2c;fill-rule:evenodd"
         d="m 265.937,234.721 c 0.325,0.497 -0.266,2.125 -0.96,2.399 0.244,-0.876 0.596,-1.644 0.96,-2.399 z"
         id="path17604" />
      <path
         style="clip-rule:evenodd;fill:#666666;fill-rule:evenodd"
         d="m 98.657,239.04 c -0.838,-0.368 -1.442,-2.229 -1.2,-2.88 0.475,0.885 0.784,1.937 1.2,2.88 z"
         id="path17606" />
      <path
         style="clip-rule:evenodd;fill:#2c2c2c;fill-rule:evenodd"
         d="m 264.257,238.801 c 0.325,0.497 -0.266,2.125 -0.96,2.399 0.245,-0.876 0.596,-1.644 0.96,-2.399 z"
         id="path17608" />
      <path
         style="clip-rule:evenodd;fill:#666666;fill-rule:evenodd"
         d="m 100.337,243.12 c -0.838,-0.368 -1.442,-2.229 -1.2,-2.88 0.475,0.885 0.783,1.937 1.2,2.88 z"
         id="path17610" />
      <path
         style="clip-rule:evenodd;fill:#2c2c2c;fill-rule:evenodd"
         d="m 262.578,242.881 c 0.325,0.497 -0.266,2.125 -0.96,2.399 0.243,-0.876 0.594,-1.644 0.96,-2.399 z"
         id="path17612" />
      <path
         style="clip-rule:evenodd;fill:#666666;fill-rule:evenodd"
         d="m 102.017,247.2 c -0.838,-0.368 -1.442,-2.229 -1.2,-2.88 0.475,0.885 0.784,1.937 1.2,2.88 z"
         id="path17614" />
      <path
         style="clip-rule:evenodd;fill:#2c2c2c;fill-rule:evenodd"
         d="m 260.417,248.16 c 0.378,0.24 -0.025,1.719 -0.72,1.681 0.262,-0.538 0.398,-1.203 0.72,-1.681 z"
         id="path17616" />
      <path
         style="clip-rule:evenodd;fill:#2c2c2c;fill-rule:evenodd"
         d="m 103.457,250.801 c -0.694,-0.275 -1.285,-1.902 -0.96,-2.4 0.365,0.755 0.716,1.524 0.96,2.4 z"
         id="path17618" />
      <path
         style="clip-rule:evenodd;fill:#666666;fill-rule:evenodd"
         d="m 258.738,252.24 c 0.242,0.651 -0.362,2.512 -1.2,2.88 0.416,-0.943 0.724,-1.995 1.2,-2.88 z"
         id="path17620" />
      <path
         style="clip-rule:evenodd;fill:#2c2c2c;fill-rule:evenodd"
         d="m 105.137,254.881 c -0.694,-0.275 -1.285,-1.903 -0.96,-2.4 0.365,0.755 0.716,1.523 0.96,2.4 z"
         id="path17622" />
      <path
         style="clip-rule:evenodd;fill:#666666;fill-rule:evenodd"
         d="m 257.057,256.32 c 0.242,0.651 -0.361,2.512 -1.2,2.88 0.417,-0.943 0.726,-1.995 1.2,-2.88 z"
         id="path17624" />
      <path
         style="clip-rule:evenodd;fill:#2c2c2c;fill-rule:evenodd"
         d="m 107.057,259.44 c -0.694,0.038 -1.098,-1.44 -0.72,-1.68 0.323,0.478 0.457,1.143 0.72,1.68 z"
         id="path17626" />
      <path
         style="clip-rule:evenodd;fill:#666666;fill-rule:evenodd"
         d="m 255.377,260.4 c 0.242,0.651 -0.362,2.512 -1.2,2.88 0.417,-0.943 0.725,-1.995 1.2,-2.88 z"
         id="path17628" />
      <path
         style="clip-rule:evenodd;fill:#2c2c2c;fill-rule:evenodd"
         d="m 108.737,263.521 c -0.694,0.038 -1.098,-1.44 -0.72,-1.68 0.322,0.477 0.458,1.142 0.72,1.68 z"
         id="path17630" />
      <path
         style="clip-rule:evenodd;fill:#666666;fill-rule:evenodd"
         d="m 253.698,264.48 c 0.242,0.651 -0.362,2.512 -1.2,2.88 0.416,-0.943 0.724,-1.995 1.2,-2.88 z"
         id="path17632" />
      <path
         style="clip-rule:evenodd;fill:#666666;fill-rule:evenodd"
         d="m 110.897,268.801 c -0.838,-0.369 -1.442,-2.229 -1.2,-2.88 0.475,0.885 0.783,1.936 1.2,2.88 z"
         id="path17634" />
      <path
         style="clip-rule:evenodd;fill:#666666;fill-rule:evenodd"
         d="m 252.017,268.561 c 0.242,0.651 -0.361,2.512 -1.2,2.88 0.417,-0.944 0.725,-1.996 1.2,-2.88 z"
         id="path17636" />
      <path
         style="clip-rule:evenodd;fill:#666666;fill-rule:evenodd"
         d="m 112.577,272.881 c -0.838,-0.369 -1.442,-2.229 -1.2,-2.88 0.475,0.885 0.784,1.937 1.2,2.88 z"
         id="path17638" />
      <path
         style="clip-rule:evenodd;fill:#2c2c2c;fill-rule:evenodd"
         d="m 250.337,272.641 c 0.325,0.497 -0.266,2.125 -0.96,2.4 0.245,-0.877 0.596,-1.645 0.96,-2.4 z"
         id="path17640" />
      <path
         style="clip-rule:evenodd;fill:#666666;fill-rule:evenodd"
         d="m 114.257,276.961 c -0.838,-0.369 -1.442,-2.229 -1.2,-2.881 0.475,0.886 0.783,1.938 1.2,2.881 z"
         id="path17642" />
      <path
         style="clip-rule:evenodd;fill:#2c2c2c;fill-rule:evenodd"
         d="m 248.658,276.721 c 0.325,0.497 -0.266,2.125 -0.96,2.399 0.243,-0.876 0.594,-1.644 0.96,-2.399 z"
         id="path17644" />
      <path
         style="clip-rule:evenodd;fill:#666666;fill-rule:evenodd"
         d="m 115.937,281.041 c -0.838,-0.369 -1.442,-2.229 -1.2,-2.881 0.475,0.885 0.784,1.937 1.2,2.881 z"
         id="path17646" />
      <path
         style="clip-rule:evenodd;fill:#2c2c2c;fill-rule:evenodd"
         d="m 246.498,282.001 c 0.378,0.239 -0.026,1.718 -0.721,1.68 0.263,-0.538 0.398,-1.203 0.721,-1.68 z"
         id="path17648" />
      <path
         style="clip-rule:evenodd;fill:#666666;fill-rule:evenodd"
         d="m 117.617,285.12 c -0.838,-0.368 -1.442,-2.229 -1.2,-2.88 0.475,0.885 0.784,1.937 1.2,2.88 z"
         id="path17650" />
      <path
         style="clip-rule:evenodd;fill:#2c2c2c;fill-rule:evenodd"
         d="m 244.817,286.08 c 0.379,0.24 -0.025,1.719 -0.72,1.681 0.263,-0.538 0.398,-1.203 0.72,-1.681 z"
         id="path17652" />
      <path
         style="clip-rule:evenodd;fill:#2c2c2c;fill-rule:evenodd"
         d="m 119.057,288.721 c -0.694,-0.275 -1.285,-1.902 -0.96,-2.4 0.365,0.755 0.716,1.524 0.96,2.4 z"
         id="path17654" />
      <path
         style="clip-rule:evenodd;fill:#666666;fill-rule:evenodd"
         d="m 243.137,290.16 c 0.242,0.651 -0.361,2.512 -1.2,2.881 0.417,-0.943 0.726,-1.996 1.2,-2.881 z"
         id="path17656" />
      <path
         style="clip-rule:evenodd;fill:#2c2c2c;fill-rule:evenodd"
         d="m 120.737,292.801 c -0.695,-0.275 -1.285,-1.902 -0.96,-2.4 0.365,0.755 0.716,1.524 0.96,2.4 z"
         id="path17658" />
      <path
         style="clip-rule:evenodd;fill:#666666;fill-rule:evenodd"
         d="m 241.458,294.24 c 0.242,0.651 -0.362,2.512 -1.2,2.88 0.416,-0.943 0.724,-1.995 1.2,-2.88 z"
         id="path17660" />
      <path
         style="clip-rule:evenodd;fill:#2c2c2c;fill-rule:evenodd"
         d="m 122.657,297.36 c -0.694,0.038 -1.098,-1.44 -0.72,-1.68 0.323,0.478 0.458,1.143 0.72,1.68 z"
         id="path17662" />
      <path
         style="clip-rule:evenodd;fill:#666666;fill-rule:evenodd"
         d="m 239.777,298.32 c 0.243,0.651 -0.361,2.512 -1.199,2.88 0.416,-0.943 0.724,-1.995 1.199,-2.88 z"
         id="path17664" />
      <path
         style="clip-rule:evenodd;fill:#2c2c2c;fill-rule:evenodd"
         d="m 124.337,301.44 c -0.694,0.038 -1.098,-1.44 -0.72,-1.68 0.322,0.478 0.458,1.143 0.72,1.68 z"
         id="path17666" />
      <path
         style="clip-rule:evenodd;fill:#666666;fill-rule:evenodd"
         d="m 238.097,302.4 c 0.242,0.651 -0.361,2.512 -1.2,2.88 0.417,-0.943 0.726,-1.995 1.2,-2.88 z"
         id="path17668" />
      <path
         style="clip-rule:evenodd;fill:#666666;fill-rule:evenodd"
         d="m 126.497,306.721 c -0.838,-0.368 -1.442,-2.229 -1.2,-2.88 0.475,0.885 0.784,1.936 1.2,2.88 z"
         id="path17670" />
      <path
         style="clip-rule:evenodd;fill:#2c2c2c;fill-rule:evenodd"
         d="m 236.417,306.48 c 0.325,0.498 -0.266,2.125 -0.96,2.4 0.245,-0.875 0.595,-1.644 0.96,-2.4 z"
         id="path17672" />
      <path
         style="clip-rule:evenodd;fill:#666666;fill-rule:evenodd"
         d="m 128.177,310.801 c -0.838,-0.368 -1.442,-2.229 -1.2,-2.88 0.475,0.885 0.784,1.936 1.2,2.88 z"
         id="path17674" />
      <path
         style="clip-rule:evenodd;fill:#2c2c2c;fill-rule:evenodd"
         d="m 234.738,310.561 c 0.324,0.497 -0.266,2.125 -0.961,2.4 0.244,-0.876 0.596,-1.645 0.961,-2.4 z"
         id="path17676" />
      <path
         style="clip-rule:evenodd;fill:#666666;fill-rule:evenodd"
         d="m 129.857,314.881 c -0.838,-0.369 -1.442,-2.229 -1.2,-2.88 0.475,0.885 0.783,1.937 1.2,2.88 z"
         id="path17678" />
      <path
         style="clip-rule:evenodd;fill:#2c2c2c;fill-rule:evenodd"
         d="m 233.057,314.641 c 0.325,0.497 -0.266,2.125 -0.96,2.4 0.244,-0.877 0.596,-1.645 0.96,-2.4 z"
         id="path17680" />
      <path
         style="clip-rule:evenodd;fill:#666666;fill-rule:evenodd"
         d="m 131.537,318.961 c -0.838,-0.369 -1.442,-2.229 -1.2,-2.88 0.475,0.885 0.784,1.937 1.2,2.88 z"
         id="path17682" />
      <path
         style="clip-rule:evenodd;fill:#2c2c2c;fill-rule:evenodd"
         d="m 230.897,319.921 c 0.378,0.239 -0.025,1.718 -0.72,1.68 0.263,-0.538 0.398,-1.203 0.72,-1.68 z"
         id="path17684" />
      <path
         style="clip-rule:evenodd;fill:#666666;fill-rule:evenodd"
         d="m 133.217,323.041 c -0.838,-0.369 -1.442,-2.229 -1.2,-2.881 0.475,0.886 0.784,1.938 1.2,2.881 z"
         id="path17686" />
      <path
         style="clip-rule:evenodd;fill:#2c2c2c;fill-rule:evenodd"
         d="m 229.217,324.001 c 0.378,0.239 -0.025,1.718 -0.72,1.68 0.263,-0.537 0.398,-1.202 0.72,-1.68 z"
         id="path17688" />
      <path
         style="clip-rule:evenodd;fill:#2c2c2c;fill-rule:evenodd"
         d="m 134.657,326.641 c -0.694,-0.274 -1.285,-1.902 -0.96,-2.4 0.365,0.755 0.716,1.524 0.96,2.4 z"
         id="path17690" />
      <path
         style="clip-rule:evenodd;fill:#666666;fill-rule:evenodd"
         d="m 227.538,328.081 c 0.242,0.65 -0.362,2.511 -1.2,2.88 0.415,-0.943 0.724,-1.995 1.2,-2.88 z"
         id="path17692" />
      <path
         style="clip-rule:evenodd;fill:#2c2c2c;fill-rule:evenodd"
         d="m 136.337,330.721 c -0.694,-0.274 -1.285,-1.902 -0.96,-2.4 0.365,0.755 0.716,1.524 0.96,2.4 z"
         id="path17694" />
      <path
         style="clip-rule:evenodd;fill:#666666;fill-rule:evenodd"
         d="m 225.857,332.16 c 0.243,0.651 -0.361,2.512 -1.199,2.881 0.416,-0.943 0.724,-1.995 1.199,-2.881 z"
         id="path17696" />
      <path
         style="clip-rule:evenodd;fill:#2c2c2c;fill-rule:evenodd"
         d="m 138.257,335.28 c -0.694,0.038 -1.098,-1.44 -0.72,-1.68 0.323,0.478 0.458,1.143 0.72,1.68 z"
         id="path17698" />
      <path
         style="clip-rule:evenodd;fill:#666666;fill-rule:evenodd"
         d="m 224.177,336.24 c 0.242,0.651 -0.361,2.512 -1.2,2.881 0.417,-0.944 0.725,-1.996 1.2,-2.881 z"
         id="path17700" />
      <path
         style="clip-rule:evenodd;fill:#2c2c2c;fill-rule:evenodd"
         d="m 139.937,339.36 c -0.694,0.038 -1.098,-1.44 -0.72,-1.68 0.323,0.478 0.458,1.143 0.72,1.68 z"
         id="path17702" />
      <path
         style="clip-rule:evenodd;fill:#666666;fill-rule:evenodd"
         d="m 222.498,340.32 c 0.242,0.651 -0.362,2.512 -1.2,2.881 0.416,-0.944 0.724,-1.996 1.2,-2.881 z"
         id="path17704" />
      <path
         style="clip-rule:evenodd;fill:#666666;fill-rule:evenodd"
         d="m 142.097,344.641 c -0.838,-0.368 -1.442,-2.229 -1.2,-2.88 0.476,0.885 0.784,1.936 1.2,2.88 z"
         id="path17706" />
      <path
         style="clip-rule:evenodd;fill:#2c2c2c;fill-rule:evenodd"
         d="m 220.817,344.4 c 0.325,0.498 -0.266,2.125 -0.96,2.4 0.244,-0.875 0.596,-1.644 0.96,-2.4 z"
         id="path17708" />
      <path
         style="clip-rule:evenodd;fill:#666666;fill-rule:evenodd"
         d="m 143.777,348.721 c -0.838,-0.368 -1.442,-2.229 -1.2,-2.88 0.475,0.885 0.783,1.936 1.2,2.88 z"
         id="path17710" />
      <path
         style="clip-rule:evenodd;fill:#2c2c2c;fill-rule:evenodd"
         d="m 219.137,348.48 c 0.325,0.498 -0.266,2.125 -0.96,2.4 0.244,-0.875 0.596,-1.644 0.96,-2.4 z"
         id="path17712" />
      <path
         style="clip-rule:evenodd;fill:#666666;fill-rule:evenodd"
         d="m 145.457,352.801 c -0.838,-0.368 -1.442,-2.229 -1.2,-2.88 0.475,0.885 0.784,1.936 1.2,2.88 z"
         id="path17714" />
      <path
         style="clip-rule:evenodd;fill:#2c2c2c;fill-rule:evenodd"
         d="m 217.458,352.561 c 0.325,0.498 -0.266,2.125 -0.96,2.4 0.243,-0.876 0.594,-1.645 0.96,-2.4 z"
         id="path17716" />
      <path
         style="clip-rule:evenodd;fill:#666666;fill-rule:evenodd"
         d="m 147.137,356.881 c -0.838,-0.368 -1.442,-2.229 -1.2,-2.88 0.475,0.885 0.784,1.937 1.2,2.88 z"
         id="path17718" />
      <path
         style="clip-rule:evenodd;fill:#2c2c2c;fill-rule:evenodd"
         d="m 215.297,357.841 c 0.378,0.239 -0.025,1.718 -0.72,1.68 0.262,-0.538 0.398,-1.203 0.72,-1.68 z"
         id="path17720" />
      <path
         style="clip-rule:evenodd;fill:#666666;fill-rule:evenodd"
         d="m 148.817,360.961 c -0.838,-0.369 -1.442,-2.229 -1.2,-2.88 0.475,0.885 0.783,1.937 1.2,2.88 z"
         id="path17722" />
      <path
         style="clip-rule:evenodd;fill:#666666;fill-rule:evenodd"
         d="m 213.618,361.921 c 0.242,0.651 -0.362,2.512 -1.2,2.88 0.415,-0.944 0.724,-1.995 1.2,-2.88 z"
         id="path17724" />
      <path
         style="clip-rule:evenodd;fill:#2c2c2c;fill-rule:evenodd"
         d="m 150.257,364.561 c -0.694,-0.274 -1.285,-1.902 -0.96,-2.399 0.365,0.754 0.716,1.523 0.96,2.399 z"
         id="path17726" />
      <path
         style="clip-rule:evenodd;fill:#666666;fill-rule:evenodd"
         d="m 211.937,366.001 c 0.242,0.651 -0.361,2.512 -1.2,2.88 0.417,-0.943 0.725,-1.995 1.2,-2.88 z"
         id="path17728" />
      <path
         style="clip-rule:evenodd;fill:#2c2c2c;fill-rule:evenodd"
         d="m 151.937,368.641 c -0.694,-0.274 -1.285,-1.902 -0.96,-2.4 0.365,0.755 0.716,1.524 0.96,2.4 z"
         id="path17730" />
      <path
         style="clip-rule:evenodd;fill:#666666;fill-rule:evenodd"
         d="m 210.257,370.081 c 0.242,0.65 -0.362,2.512 -1.2,2.88 0.417,-0.943 0.725,-1.995 1.2,-2.88 z"
         id="path17732" />
      <path
         style="clip-rule:evenodd;fill:#2c2c2c;fill-rule:evenodd"
         d="m 153.857,373.201 c -0.694,0.038 -1.098,-1.44 -0.72,-1.681 0.322,0.478 0.458,1.143 0.72,1.681 z"
         id="path17734" />
      <path
         style="clip-rule:evenodd;fill:#666666;fill-rule:evenodd"
         d="m 208.578,374.161 c 0.242,0.65 -0.362,2.511 -1.2,2.88 0.415,-0.943 0.724,-1.995 1.2,-2.88 z"
         id="path17736" />
      <path
         style="clip-rule:evenodd;fill:#2c2c2c;fill-rule:evenodd"
         d="m 155.537,377.28 c -0.694,0.039 -1.098,-1.44 -0.72,-1.68 0.323,0.478 0.457,1.143 0.72,1.68 z"
         id="path17738" />
      <path
         style="clip-rule:evenodd;fill:#666666;fill-rule:evenodd"
         d="m 206.897,378.241 c 0.243,0.65 -0.361,2.511 -1.2,2.88 0.417,-0.943 0.725,-1.995 1.2,-2.88 z"
         id="path17740" />
      <path
         style="clip-rule:evenodd;fill:#666666;fill-rule:evenodd"
         d="m 157.697,382.561 c -0.838,-0.368 -1.442,-2.229 -1.2,-2.88 0.475,0.884 0.784,1.936 1.2,2.88 z"
         id="path17742" />
      <path
         style="clip-rule:evenodd;fill:#2c2c2c;fill-rule:evenodd"
         d="m 205.217,382.32 c 0.325,0.498 -0.266,2.126 -0.96,2.4 0.244,-0.875 0.596,-1.644 0.96,-2.4 z"
         id="path17744" />
      <path
         style="clip-rule:evenodd;fill:#666666;fill-rule:evenodd"
         d="m 159.377,386.641 c -0.838,-0.368 -1.442,-2.229 -1.2,-2.88 0.475,0.885 0.783,1.936 1.2,2.88 z"
         id="path17746" />
      <path
         style="clip-rule:evenodd;fill:#2c2c2c;fill-rule:evenodd"
         d="m 203.538,386.4 c 0.325,0.498 -0.266,2.126 -0.96,2.4 0.243,-0.875 0.594,-1.644 0.96,-2.4 z"
         id="path17748" />
      <path
         style="clip-rule:evenodd;fill:#666666;fill-rule:evenodd"
         d="m 161.057,390.721 c -0.838,-0.368 -1.442,-2.229 -1.2,-2.88 0.476,0.885 0.784,1.936 1.2,2.88 z"
         id="path17750" />
      <path
         style="clip-rule:evenodd;fill:#2c2c2c;fill-rule:evenodd"
         d="m 201.377,391.681 c 0.378,0.239 -0.026,1.719 -0.72,1.68 0.262,-0.538 0.397,-1.203 0.72,-1.68 z"
         id="path17752" />
      <path
         style="clip-rule:evenodd;fill:#666666;fill-rule:evenodd"
         d="m 162.737,394.801 c -0.838,-0.368 -1.442,-2.229 -1.2,-2.88 0.475,0.885 0.784,1.936 1.2,2.88 z"
         id="path17754" />
      <path
         style="clip-rule:evenodd;fill:#2c2c2c;fill-rule:evenodd"
         d="m 199.697,395.761 c 0.379,0.239 -0.025,1.718 -0.72,1.68 0.263,-0.538 0.398,-1.203 0.72,-1.68 z"
         id="path17756" />
      <path
         style="clip-rule:evenodd;fill:#666666;fill-rule:evenodd"
         d="m 164.417,398.881 c -0.838,-0.368 -1.442,-2.229 -1.2,-2.88 0.475,0.885 0.783,1.937 1.2,2.88 z"
         id="path17758" />
      <path
         style="clip-rule:evenodd;fill:#666666;fill-rule:evenodd"
         d="m 198.017,399.841 c 0.242,0.651 -0.361,2.512 -1.2,2.88 0.417,-0.944 0.725,-1.995 1.2,-2.88 z"
         id="path17760" />
      <path
         style="clip-rule:evenodd;fill:#2c2c2c;fill-rule:evenodd"
         d="m 165.857,402.48 c -0.694,-0.274 -1.285,-1.902 -0.96,-2.399 0.365,0.755 0.716,1.523 0.96,2.399 z"
         id="path17762" />
      <path
         style="clip-rule:evenodd;fill:#666666;fill-rule:evenodd"
         d="m 196.337,403.921 c 0.242,0.651 -0.362,2.512 -1.2,2.88 0.417,-0.944 0.725,-1.995 1.2,-2.88 z"
         id="path17764" />
      <path
         style="clip-rule:evenodd;fill:#2c2c2c;fill-rule:evenodd"
         d="m 167.537,406.561 c -0.694,-0.274 -1.285,-1.902 -0.96,-2.399 0.365,0.754 0.716,1.523 0.96,2.399 z"
         id="path17766" />
      <path
         style="clip-rule:evenodd;fill:#666666;fill-rule:evenodd"
         d="m 194.658,408.001 c 0.242,0.651 -0.362,2.512 -1.2,2.88 0.416,-0.943 0.724,-1.995 1.2,-2.88 z"
         id="path17768" />
      <path
         style="clip-rule:evenodd;fill:#2c2c2c;fill-rule:evenodd"
         d="m 169.457,411.121 c -0.694,0.038 -1.098,-1.44 -0.72,-1.681 0.323,0.478 0.458,1.143 0.72,1.681 z"
         id="path17770" />
      <path
         style="clip-rule:evenodd;fill:#666666;fill-rule:evenodd"
         d="m 192.977,412.081 c 0.242,0.651 -0.361,2.512 -1.2,2.88 0.417,-0.943 0.725,-1.995 1.2,-2.88 z"
         id="path17772" />
      <path
         style="clip-rule:evenodd;fill:#2c2c2c;fill-rule:evenodd"
         d="m 171.137,415.201 c -0.694,0.038 -1.098,-1.44 -0.72,-1.681 0.323,0.478 0.458,1.143 0.72,1.681 z"
         id="path17774" />
      <path
         style="clip-rule:evenodd;fill:#2c2c2c;fill-rule:evenodd"
         d="m 191.297,416.161 c 0.325,0.497 -0.266,2.125 -0.96,2.399 0.245,-0.875 0.596,-1.644 0.96,-2.399 z"
         id="path17776" />
      <path
         style="clip-rule:evenodd;fill:#666666;fill-rule:evenodd"
         d="m 173.297,420.48 c -0.838,-0.368 -1.442,-2.229 -1.2,-2.88 0.475,0.885 0.783,1.937 1.2,2.88 z"
         id="path17778" />
      <path
         style="clip-rule:evenodd;fill:#2c2c2c;fill-rule:evenodd"
         d="m 189.618,420.241 c 0.325,0.497 -0.266,2.125 -0.96,2.399 0.243,-0.875 0.594,-1.644 0.96,-2.399 z"
         id="path17780" />
      <path
         style="clip-rule:evenodd;fill:#666666;fill-rule:evenodd"
         d="m 174.977,424.561 c -0.838,-0.368 -1.442,-2.229 -1.2,-2.88 0.475,0.884 0.784,1.936 1.2,2.88 z"
         id="path17782" />
      <path
         style="clip-rule:evenodd;fill:#2c2c2c;fill-rule:evenodd"
         d="m 187.937,424.321 c 0.325,0.497 -0.266,2.125 -0.96,2.399 0.244,-0.875 0.596,-1.644 0.96,-2.399 z"
         id="path17784" />
      <path
         style="clip-rule:evenodd;fill:#666666;fill-rule:evenodd"
         d="m 176.657,428.641 c -0.838,-0.368 -1.442,-2.229 -1.2,-2.88 0.475,0.885 0.784,1.936 1.2,2.88 z"
         id="path17786" />
      <path
         style="clip-rule:evenodd;fill:#2c2c2c;fill-rule:evenodd"
         d="m 185.777,429.601 c 0.379,0.24 -0.025,1.719 -0.72,1.681 0.263,-0.539 0.398,-1.204 0.72,-1.681 z"
         id="path17788" />
      <path
         style="clip-rule:evenodd;fill:#666666;fill-rule:evenodd"
         d="m 178.337,432.721 c -0.838,-0.368 -1.442,-2.229 -1.2,-2.88 0.475,0.885 0.783,1.936 1.2,2.88 z"
         id="path17790" />
      <path
         style="clip-rule:evenodd;fill:#666666;fill-rule:evenodd"
         d="m 184.097,433.681 c 0.242,0.651 -0.361,2.512 -1.2,2.88 0.417,-0.944 0.726,-1.996 1.2,-2.88 z"
         id="path17792" />
      <path
         style="clip-rule:evenodd;fill:#666666;fill-rule:evenodd"
         d="m 180.017,436.801 c -0.838,-0.368 -1.442,-2.229 -1.2,-2.88 0.475,0.885 0.784,1.936 1.2,2.88 z"
         id="path17794" />
      <path
         style="clip-rule:evenodd;fill:#2c2c2c;fill-rule:evenodd"
         d="m 182.417,437.761 c 0.324,0.498 -0.266,2.125 -0.96,2.4 -0.649,-0.241 -1.386,-1.641 -0.96,-2.16 0.449,0.511 0.392,1.528 0.96,1.92 0.405,-0.636 0.555,-1.525 0.96,-2.16 z"
         id="path17796" />
    </g>
  </g>
</svg>
