<?xml version="1.0" encoding="UTF-8" standalone="no"?>
<svg
   xmlns:dc="http://purl.org/dc/elements/1.1/"
   xmlns:cc="http://creativecommons.org/ns#"
   xmlns:rdf="http://www.w3.org/1999/02/22-rdf-syntax-ns#"
   xmlns:svg="http://www.w3.org/2000/svg"
   xmlns="http://www.w3.org/2000/svg"
   id="svg8"
   version="1.1"
   viewBox="0 0 16.933333 16.933333"
   height="64"
   width="64">
  <title
     id="title9790">shipwreck</title>
  <defs
     id="defs2" />
  <metadata
     id="metadata5">
    <rdf:RDF>
      <cc:Work
         rdf:about="">
        <dc:format>image/svg+xml</dc:format>
        <dc:type
           rdf:resource="http://purl.org/dc/dcmitype/StillImage" />
        <dc:title>shipwreck</dc:title>
      </cc:Work>
    </rdf:RDF>
  </metadata>
  <g
     transform="translate(0,-280.06667)"
     id="layer1">
    <g
       transform="matrix(0.0264882,0,0,0.0264882,1.7852398,283.72218)"
       id="g27111">
      <path
         style="clip-rule:evenodd;fill:#dadbdb;fill-rule:evenodd"
         d="m 468.481,280.32 c 11.52,-0.56 24.08,-0.08 36,-0.24 0,0.08 0,0.16 0,0.24 -12,0 -24,0 -36,0 z"
         id="path26771" />
      <path
         style="clip-rule:evenodd;fill:#252828;fill-rule:evenodd"
         d="m 468.721,280.561 c 11.92,0 23.84,0 35.76,0 0,0.08 0,0.16 0,0.24 -11.84,-0.16 -24.32,0.319 -35.76,-0.24 z"
         id="path26773" />
      <path
         style="clip-rule:evenodd;fill:#dadbdb;fill-rule:evenodd"
         d="m 214.32,329.041 c 0.336,-0.398 2.304,-0.398 2.64,0 -0.72,0 -1.44,0 -2.16,0 -0.16,0 -0.32,0 -0.48,0 z"
         id="path26775" />
      <path
         style="clip-rule:evenodd;fill:#252828;fill-rule:evenodd"
         d="m 215.52,329.28 c 1.84,0 3.68,0 5.52,0 -1.284,0.4 -4.235,0.4 -5.52,0 z"
         id="path26777" />
      <path
         style="clip-rule:evenodd;fill:#dadbdb;fill-rule:evenodd"
         d="m 290.161,40.8 c -8.431,26.37 -17.49,52.11 -25.92,78.48 -0.204,-0.044 -0.227,0.094 -0.24,0.24 8.109,-25.89 17.249,-52.83 26.16,-78.72 z"
         id="path26779" />
      <path
         style="clip-rule:evenodd;fill:#dadbdb;fill-rule:evenodd"
         d="m 227.76,201.36 c 1.179,-0.135 3.381,0.775 4.56,1.44 -1.657,-0.184 -2.663,-1.018 -4.32,-1.2 0.044,-0.204 -0.093,-0.226 -0.24,-0.24 z"
         id="path26781" />
      <path
         style="clip-rule:evenodd;fill:#dadbdb;fill-rule:evenodd"
         d="m 212.88,196.32 c 1.179,-0.135 3.381,0.775 4.56,1.44 -1.657,-0.184 -2.664,-1.018 -4.32,-1.2 0.045,-0.204 -0.094,-0.226 -0.24,-0.24 z"
         id="path26783" />
      <path
         style="clip-rule:evenodd;fill:#dadbdb;fill-rule:evenodd"
         d="m 197.28,191.04 c 1.179,-0.134 3.381,0.776 4.56,1.44 -1.657,-0.184 -2.663,-1.017 -4.32,-1.2 0.044,-0.204 -0.093,-0.226 -0.24,-0.24 z"
         id="path26785" />
      <path
         style="clip-rule:evenodd;fill:#dadbdb;fill-rule:evenodd"
         d="m 182.4,186 c 1.179,-0.134 3.381,0.776 4.56,1.44 -1.657,-0.184 -2.663,-1.017 -4.32,-1.2 0.044,-0.204 -0.094,-0.226 -0.24,-0.24 z"
         id="path26787" />
      <path
         style="clip-rule:evenodd;fill:#dadbdb;fill-rule:evenodd"
         d="m 167.52,180.96 c 1.179,-0.134 3.381,0.776 4.56,1.44 -1.657,-0.184 -2.663,-1.017 -4.32,-1.2 0.044,-0.204 -0.093,-0.226 -0.24,-0.24 z"
         id="path26789" />
      <path
         style="clip-rule:evenodd;fill:#dadbdb;fill-rule:evenodd"
         d="m 151.92,175.68 c 1.179,-0.134 3.381,0.776 4.56,1.44 -1.657,-0.183 -2.663,-1.017 -4.32,-1.2 0.044,-0.204 -0.094,-0.226 -0.24,-0.24 z"
         id="path26791" />
      <path
         style="clip-rule:evenodd;fill:#dadbdb;fill-rule:evenodd"
         d="m 137.04,170.64 c 1.179,-0.134 3.381,0.776 4.56,1.44 -1.657,-0.183 -2.663,-1.017 -4.32,-1.2 0.044,-0.204 -0.093,-0.226 -0.24,-0.24 z"
         id="path26793" />
      <path
         style="clip-rule:evenodd;fill:#dadbdb;fill-rule:evenodd"
         d="m 122.16,165.601 c 1.179,-0.135 3.381,0.775 4.56,1.44 -1.657,-0.183 -2.663,-1.017 -4.32,-1.2 0.044,-0.205 -0.093,-0.227 -0.24,-0.24 z"
         id="path26795" />
      <path
         style="clip-rule:evenodd;fill:#dadbdb;fill-rule:evenodd"
         d="m 106.56,160.32 c 1.179,-0.135 3.381,0.775 4.56,1.44 -1.657,-0.183 -2.663,-1.017 -4.32,-1.2 0.044,-0.204 -0.093,-0.226 -0.24,-0.24 z"
         id="path26797" />
      <path
         style="clip-rule:evenodd;fill:#dadbdb;fill-rule:evenodd"
         d="m 91.68,155.28 c 1.179,-0.135 3.381,0.776 4.56,1.44 -1.657,-0.183 -2.663,-1.017 -4.32,-1.2 0.044,-0.204 -0.094,-0.226 -0.24,-0.24 z"
         id="path26799" />
      <path
         style="clip-rule:evenodd;fill:#dadbdb;fill-rule:evenodd"
         d="m 76.08,150 c 1.417,-0.054 3.863,0.934 5.28,1.68 -1.895,-0.265 -3.145,-1.175 -5.04,-1.44 0.044,-0.204 -0.093,-0.226 -0.24,-0.24 z"
         id="path26801" />
      <path
         style="clip-rule:evenodd;fill:#dadbdb;fill-rule:evenodd"
         d="m 61.2,144.96 c 1.179,-0.135 3.381,0.775 4.56,1.44 -1.657,-0.183 -2.663,-1.017 -4.32,-1.2 0.044,-0.204 -0.094,-0.226 -0.24,-0.24 z"
         id="path26803" />
      <path
         style="clip-rule:evenodd;fill:#dadbdb;fill-rule:evenodd"
         d="m 46.32,139.92 c 1.179,-0.135 3.381,0.775 4.56,1.44 -1.657,-0.183 -2.663,-1.017 -4.32,-1.2 0.044,-0.204 -0.094,-0.226 -0.24,-0.24 z"
         id="path26805" />
      <path
         style="clip-rule:evenodd;fill:#dadbdb;fill-rule:evenodd"
         d="m 30.72,134.64 c 1.179,-0.134 3.381,0.776 4.56,1.44 -1.657,-0.183 -2.663,-1.017 -4.32,-1.2 0.044,-0.204 -0.094,-0.226 -0.24,-0.24 z"
         id="path26807" />
      <path
         style="clip-rule:evenodd;fill:#dadbdb;fill-rule:evenodd"
         d="m 15.84,129.6 c 1.179,-0.134 3.381,0.776 4.56,1.44 -1.657,-0.183 -2.663,-1.017 -4.32,-1.2 0.044,-0.204 -0.094,-0.226 -0.24,-0.24 z"
         id="path26809" />
      <path
         style="clip-rule:evenodd;fill:#dadbdb;fill-rule:evenodd"
         d="m 0.96,124.56 c 1.179,-0.134 3.381,0.776 4.56,1.44 -1.657,-0.183 -2.664,-1.017 -4.32,-1.2 0.044,-0.204 -0.094,-0.226 -0.24,-0.24 z"
         id="path26811" />
      <path
         style="clip-rule:evenodd;fill:#252828;fill-rule:evenodd"
         d="m 303.84,0 c 0.24,0 0.48,0 0.72,0 0.296,0.344 0.825,0.455 1.44,0.48 0,0.08 0,0.16 0,0.24 -0.744,0.023 -1.331,-0.109 -1.68,-0.48 -13.711,39.33 -26.37,79.71 -40.08,119.04 8.43,-26.37 17.489,-52.11 25.92,-78.48 4.73,-13.43 9.15,-27.17 13.68,-40.8 z"
         id="path26813" />
      <path
         style="clip-rule:evenodd;fill:#dadbdb;fill-rule:evenodd"
         d="m 415.441,262.561 c 7.609,1.99 14.33,4.87 21.84,6.96 0.044,0.204 -0.094,0.227 -0.24,0.24 -7.35,-2.25 -14.55,-4.651 -21.6,-7.2 z"
         id="path26815" />
      <path
         style="clip-rule:evenodd;fill:#dadbdb;fill-rule:evenodd"
         d="m 331.68,234.721 c 7.61,1.99 14.33,4.87 21.84,6.96 0.045,0.204 -0.093,0.227 -0.239,0.24 -7.351,-2.25 -14.551,-4.65 -21.601,-7.2 z"
         id="path26817" />
      <path
         style="clip-rule:evenodd;fill:#dadbdb;fill-rule:evenodd"
         d="m 259.92,210.24 c 2.375,1.945 7.525,2.394 9.6,3.84 -1.73,-0.317 -3.581,-1.109 -5.279,-1.68 -1.64,-0.55 -3.772,-0.624 -4.561,-2.16 0.08,0 0.16,0 0.24,0 z"
         id="path26819" />
      <path
         style="clip-rule:evenodd;fill:#dadbdb;fill-rule:evenodd"
         d="m 300.72,87.6 c -8.11,25.89 -17.25,52.83 -26.16,78.72 8.431,-26.37 17.49,-52.11 25.92,-78.48 0.204,0.044 0.227,-0.093 0.24,-0.24 z"
         id="path26821" />
      <path
         style="clip-rule:evenodd;fill:#252828;fill-rule:evenodd"
         d="m 312.72,2.64 c 3.907,0.812 7.532,1.907 11.04,3.12 -3.907,-0.813 -7.532,-1.907 -11.04,-3.12 z"
         id="path26823" />
      <path
         style="clip-rule:evenodd;fill:#252828;fill-rule:evenodd"
         d="m 276.241,307.921 c 37.001,-1.117 76.074,-0.163 114,-0.48 38.08,0 76.16,0 114.24,0 0,0.08 0,0.16 0,0.24 -75.999,0.16 -152.643,-0.321 -228.24,0.24 z"
         id="path26825" />
      <path
         style="clip-rule:evenodd;fill:#252828;fill-rule:evenodd"
         d="m 274.56,313.681 c -0.076,0.804 -0.247,1.513 -0.72,1.92 0.077,-0.804 0.247,-1.513 0.72,-1.92 z"
         id="path26827" />
      <path
         style="clip-rule:evenodd;fill:#252828;fill-rule:evenodd"
         d="m 272.88,317.761 c -0.455,1.705 -1.174,3.146 -2.16,4.32 0.587,-1.574 1.306,-3.015 2.16,-4.32 z"
         id="path26829" />
      <path
         style="clip-rule:evenodd;fill:#080a0b;fill-rule:evenodd"
         d="m 264.48,331.681 c -0.423,0.217 -0.743,0.537 -0.96,0.96 -0.581,0.379 -1.062,0.858 -1.439,1.44 -1.061,0.859 -2.021,1.819 -2.88,2.88 -0.582,0.378 -1.062,0.858 -1.44,1.439 -2.949,2.491 -5.914,4.966 -9.6,6.721 -2.237,1.122 -4.528,2.191 -6.72,3.359 -1.747,0.974 -3.763,1.677 -6,2.16 -1.756,0.244 -3.32,0.681 -4.8,1.2 0.041,0.521 -0.851,0.108 -1.2,0.24 -3.04,0.48 -6.565,0.475 -9.36,1.199 -1.2,0 -2.4,0 -3.6,0 -2.795,-0.725 -6.32,-0.719 -9.36,-1.199 -0.349,-0.132 -1.24,0.28 -1.2,-0.24 -1.48,-0.52 -3.044,-0.956 -4.8,-1.2 -2.237,-0.483 -4.254,-1.187 -6,-2.16 -2.192,-1.168 -4.482,-2.237 -6.72,-3.359 -3.686,-1.755 -6.651,-4.229 -9.6,-6.721 -0.379,-0.581 -0.859,-1.062 -1.44,-1.439 -0.86,-1.061 -1.82,-2.021 -2.88,-2.88 -0.378,-0.582 -0.858,-1.062 -1.44,-1.44 -0.217,-0.423 -0.537,-0.743 -0.96,-0.96 -2.121,-3.159 -4.662,-5.898 -6.24,-9.6 -0.586,-1.574 -1.306,-3.015 -2.16,-4.32 -0.542,-0.498 -0.75,-1.331 -0.96,-2.16 -0.076,-0.804 -0.247,-1.513 -0.72,-1.92 -0.281,-0.039 -0.202,-0.438 -0.24,-0.72 -0.093,-0.867 -0.319,-1.602 -0.72,-2.16 -0.371,-0.349 -0.504,-0.937 -0.48,-1.68 0.077,-0.557 -0.039,-0.922 -0.24,-1.2 -0.046,-0.194 -0.241,-0.239 -0.24,-0.48 -43.839,0 -87.681,0 -131.52,0 0,-8.88 0,-17.76 0,-26.64 8.55,0 18.661,0 28.08,0 3.172,0 7.282,0.372 9.12,-0.48 0.036,-0.596 -0.124,-0.996 -0.48,-1.2 -19.492,-44.787 -38.235,-90.205 -57.6,-135.36 -2.723,-6.35 -5.832,-12.562 -7.68,-19.2 0.32,0 0.64,0 0.96,0 0.146,0.014 0.284,0.036 0.24,0.24 2.293,1.147 4.987,1.893 7.68,2.64 2.512,0.527 4.547,1.532 6.96,2.16 0.146,0.014 0.284,0.036 0.24,0.24 2.293,1.147 4.987,1.893 7.68,2.64 2.513,0.527 4.548,1.532 6.96,2.16 0.146,0.014 0.284,0.036 0.24,0.24 2.532,1.228 5.468,2.052 8.4,2.88 2.513,0.527 4.548,1.532 6.96,2.16 0.146,0.014 0.284,0.036 0.24,0.24 2.293,1.147 4.987,1.893 7.68,2.64 2.513,0.527 4.548,1.532 6.96,2.16 0.146,0.013 0.284,0.036 0.24,0.24 2.532,1.228 5.468,2.052 8.4,2.88 2.273,0.447 4.067,1.373 6.24,1.92 0.146,0.013 0.284,0.036 0.24,0.24 2.533,1.228 5.468,2.052 8.4,2.88 2.513,0.528 4.548,1.533 6.96,2.16 0.146,0.014 0.284,0.036 0.24,0.24 2.293,1.147 4.987,1.893 7.68,2.64 2.512,0.528 4.547,1.533 6.96,2.16 0.146,0.014 0.284,0.036 0.24,0.24 2.533,1.227 5.468,2.052 8.4,2.88 2.512,0.527 4.547,1.532 6.96,2.16 0.146,0.013 0.284,0.036 0.24,0.24 2.293,1.147 4.987,1.893 7.68,2.64 2.512,0.527 4.547,1.532 6.96,2.16 0.146,0.014 0.284,0.036 0.24,0.24 2.293,1.147 4.987,1.893 7.68,2.64 2.513,0.527 4.548,1.532 6.96,2.16 0.146,0.014 0.284,0.036 0.24,0.24 2.532,1.228 5.468,2.052 8.4,2.88 2.513,0.527 4.548,1.532 6.96,2.159 0.146,0.014 0.284,0.036 0.24,0.24 2.293,1.147 4.987,1.893 7.68,2.641 2.513,0.527 4.548,1.532 6.96,2.159 0.146,0.014 0.284,0.036 0.24,0.24 2.293,1.147 4.987,1.893 7.68,2.641 2.512,0.527 4.547,1.532 6.96,2.159 0.146,0.014 0.284,0.036 0.24,0.24 2.533,1.228 5.468,2.053 8.4,2.88 2.512,0.527 4.547,1.532 6.96,2.16 0.146,0.014 0.284,0.036 0.24,0.24 2.293,1.146 4.987,1.893 7.68,2.64 2.512,0.527 4.547,1.532 6.96,2.16 0.146,0.014 0.284,0.036 0.24,0.24 1.877,0.533 6.9,3.514 8.16,1.92 9.09,-28.19 18.65,-55.91 27.84,-84 0.014,-0.146 0.036,-0.284 0.24,-0.24 13.71,-39.33 26.369,-79.71 40.08,-119.04 0.349,0.371 0.936,0.503 1.68,0.48 2.419,0.461 4.659,1.101 6.72,1.92 3.508,1.212 7.133,2.307 11.04,3.12 1.405,0.115 2.47,0.571 3.601,0.96 -8.45,27.39 -17.891,53.791 -26.641,80.88 -0.014,0.146 -0.036,0.284 -0.24,0.24 -13.93,40.79 -27.61,81.831 -41.04,123.12 3.11,1.37 6.471,2.49 10.08,3.36 13.83,4.41 27.511,8.97 41.04,13.68 14.11,4.851 28.21,9.71 42.721,14.16 13.83,4.41 27.51,8.971 41.04,13.681 14.35,4.93 28.689,9.87 43.439,14.399 10.431,3.17 20.391,6.811 30.721,10.08 -0.044,0.204 0.094,0.227 0.24,0.24 11.439,0.56 23.92,0.08 35.76,0.24 0,8.88 0,17.76 0,26.64 -38.08,0 -76.16,0 -114.24,0 -37.926,0.317 -76.999,-0.637 -114,0.48 -0.202,0.278 -0.317,0.644 -0.24,1.2 0,0.159 0,0.319 0,0.479 -0.133,0.428 -0.123,0.997 -0.48,1.2 -0.401,0.559 -0.627,1.293 -0.72,2.16 0.021,0.34 0.04,0.68 -0.24,0.72 -0.473,0.407 -0.644,1.116 -0.72,1.92 -0.054,0.986 -0.508,1.571 -0.96,2.16 -0.854,1.306 -1.573,2.746 -2.16,4.32 -1.58,3.703 -4.121,6.442 -6.242,9.602 z m -34.8,-72.72 c -5.838,-2.593 -16.961,-2.593 -22.8,0 -0.946,0.493 -1.885,0.995 -3.12,1.199 -1.416,0.504 -2.767,1.073 -3.6,2.16 -0.16,0 -0.32,0 -0.48,0 -0.956,0.244 -1.673,0.727 -2.16,1.44 -0.507,0.612 -1.178,1.062 -1.92,1.439 -0.795,0.085 -1.041,0.719 -1.44,1.2 -0.98,0.779 -1.86,1.66 -2.64,2.641 -0.555,0.484 -1.282,0.797 -1.44,1.68 -1.085,1.714 -2.256,3.343 -3.36,5.04 -0.825,0.854 -1.385,1.976 -1.68,3.359 0.036,0.597 -0.124,0.996 -0.48,1.2 -1.452,2.868 -2.15,6.489 -2.4,10.561 -0.108,3.057 -0.207,6.927 0.72,9.6 0.192,1.968 0.637,3.684 1.44,5.04 0.517,0.843 0.856,1.863 1.2,2.88 0.061,0.899 0.377,1.544 0.96,1.92 0.38,0.501 0.783,0.978 0.96,1.681 0.244,0.955 0.727,1.673 1.44,2.159 0.617,0.023 0.343,0.938 0.96,0.961 0.125,0.354 0.355,0.604 0.48,0.96 1.399,1.96 3.046,3.673 5.04,5.04 1.606,1.113 3.232,2.207 4.8,3.359 1.015,0.905 2.295,1.545 3.84,1.92 1.334,0.426 2.668,0.853 3.84,1.44 1.539,0.701 3.331,1.149 5.52,1.2 0.32,0 0.64,0 0.96,0 0.16,0 0.32,0 0.48,0 0.04,0.279 0.379,0.26 0.72,0.239 1.285,0.399 4.236,0.399 5.52,0 0.283,-0.037 0.682,0.042 0.72,-0.239 0.48,0 0.96,0 1.44,0 2.189,-0.051 3.981,-0.499 5.52,-1.2 1.172,-0.588 2.506,-1.015 3.84,-1.44 1.545,-0.375 2.826,-1.015 3.84,-1.92 1.567,-1.152 3.193,-2.246 4.8,-3.359 1.994,-1.367 3.641,-3.08 5.04,-5.04 0.125,-0.355 0.355,-0.605 0.48,-0.96 0.617,-0.023 0.343,-0.938 0.96,-0.961 0.713,-0.486 1.196,-1.204 1.44,-2.159 0.178,-0.703 0.581,-1.18 0.96,-1.681 0.583,-0.376 0.899,-1.021 0.96,-1.92 0.343,-1.017 0.683,-2.037 1.2,-2.88 0.803,-1.356 1.248,-3.072 1.44,-5.04 0.991,-2.449 0.668,-6.212 0.72,-9.6 -0.249,-4.071 -0.947,-7.692 -2.399,-10.561 -0.356,-0.204 -0.516,-0.604 -0.48,-1.2 -0.295,-1.384 -0.854,-2.505 -1.68,-3.359 -1.104,-1.697 -2.274,-3.326 -3.36,-5.04 -0.158,-0.883 -0.885,-1.195 -1.44,-1.68 -0.78,-0.98 -1.66,-1.861 -2.64,-2.641 -0.399,-0.481 -0.645,-1.115 -1.44,-1.2 -0.602,-0.519 -1.483,-0.757 -1.92,-1.439 -0.486,-0.714 -1.204,-1.196 -2.16,-1.44 -0.16,0 -0.32,0 -0.48,0 -0.833,-1.087 -2.184,-1.656 -3.6,-2.16 -1.237,-0.204 -2.175,-0.706 -3.121,-1.199 z"
         id="path26831" />
      <path
         style="clip-rule:evenodd;fill:#252828;fill-rule:evenodd"
         d="m 259.201,336.961 c 0.859,-1.061 1.819,-2.021 2.88,-2.88 -0.861,1.06 -1.821,2.02 -2.88,2.88 z"
         id="path26833" />
      <path
         style="clip-rule:evenodd;fill:#252828;fill-rule:evenodd"
         d="m 177.36,336.961 c -1.061,-0.86 -2.021,-1.82 -2.88,-2.88 1.061,0.859 2.02,1.819 2.88,2.88 z"
         id="path26835" />
      <path
         style="clip-rule:evenodd;fill:#252828;fill-rule:evenodd"
         d="m 163.68,317.761 c 0.854,1.306 1.574,2.746 2.16,4.32 -0.986,-1.175 -1.705,-2.615 -2.16,-4.32 z"
         id="path26837" />
      <path
         style="clip-rule:evenodd;fill:#252828;fill-rule:evenodd"
         d="m 162,313.681 c 0.473,0.407 0.644,1.116 0.72,1.92 -0.473,-0.408 -0.644,-1.117 -0.72,-1.92 z"
         id="path26839" />
      <path
         style="clip-rule:evenodd;fill:#252828;fill-rule:evenodd"
         d="m 160.32,307.921 c -43.521,-0.561 -88.08,-0.08 -132,-0.24 0,-9.04 0,-18.08 0,-27.12 12.4,-0.159 25.439,0.319 37.44,-0.24 -1.838,0.853 -5.948,0.48 -9.12,0.48 -9.419,0 -19.53,0 -28.08,0 0,8.88 0,17.76 0,26.64 43.839,0 87.681,0 131.52,0 -0.001,0.241 0.194,0.286 0.24,0.48 z"
         id="path26841" />
      <path
         style="clip-rule:evenodd;fill:#252828;fill-rule:evenodd"
         d="m 30.96,134.88 c 1.657,0.183 2.663,1.017 4.32,1.2 1.13,0.79 3.047,0.793 4.08,1.68 -2.932,-0.827 -5.868,-1.652 -8.4,-2.88 z"
         id="path26843" />
      <path
         style="clip-rule:evenodd;fill:#252828;fill-rule:evenodd"
         d="m 61.44,145.2 c 1.657,0.183 2.663,1.017 4.32,1.2 1.13,0.79 3.047,0.793 4.08,1.68 -2.932,-0.828 -5.868,-1.652 -8.4,-2.88 z"
         id="path26845" />
      <path
         style="clip-rule:evenodd;fill:#252828;fill-rule:evenodd"
         d="m 76.32,150.24 c 1.895,0.265 3.145,1.175 5.04,1.44 0.89,0.71 2.566,0.634 3.36,1.44 -2.932,-0.828 -5.867,-1.652 -8.4,-2.88 z"
         id="path26847" />
      <path
         style="clip-rule:evenodd;fill:#252828;fill-rule:evenodd"
         d="m 106.8,160.561 c 1.657,0.183 2.664,1.017 4.32,1.2 1.13,0.79 3.047,0.793 4.08,1.68 -2.932,-0.828 -5.867,-1.653 -8.4,-2.88 z"
         id="path26849" />
      <path
         style="clip-rule:evenodd;fill:#252828;fill-rule:evenodd"
         d="m 152.16,175.92 c 1.657,0.183 2.663,1.017 4.32,1.2 1.13,0.79 3.047,0.793 4.08,1.681 -2.932,-0.828 -5.868,-1.653 -8.4,-2.881 z"
         id="path26851" />
      <path
         style="clip-rule:evenodd;fill:#252828;fill-rule:evenodd"
         d="m 182.64,186.24 c 1.657,0.184 2.663,1.017 4.32,1.2 0.89,0.71 2.566,0.634 3.36,1.44 -2.693,-0.747 -5.387,-1.492 -7.68,-2.64 z"
         id="path26853" />
      <path
         style="clip-rule:evenodd;fill:#252828;fill-rule:evenodd"
         d="m 197.52,191.28 c 1.657,0.184 2.663,1.017 4.32,1.2 1.13,0.79 3.047,0.793 4.08,1.68 -2.932,-0.827 -5.867,-1.652 -8.4,-2.88 z"
         id="path26855" />
      <path
         style="clip-rule:evenodd;fill:#252828;fill-rule:evenodd"
         d="m 228,201.601 c 1.657,0.183 2.663,1.017 4.32,1.2 1.053,0.328 2.975,1.731 3.84,0.72 -1.259,1.593 -6.282,-1.387 -8.16,-1.92 z"
         id="path26857" />
      <path
         style="clip-rule:evenodd;fill:#dadbdb;fill-rule:evenodd"
         d="m 160.32,309.121 c 0.323,-1.398 -5.391,-0.961 -7.68,-0.961 -40.479,10e-4 -85.744,0.196 -124.56,-0.239 -0.4,-8.643 -0.4,-18.958 0,-27.601 11.92,-0.559 24.879,-0.08 37.2,-0.24 -11.84,0.561 -24.72,0.08 -36.96,0.24 -0.559,8.642 -0.081,18.319 -0.24,27.36 43.291,0.878 89.076,-0.557 132.24,0.72 0,0.241 0,0.481 0,0.721 z"
         id="path26859" />
      <path
         style="clip-rule:evenodd;fill:#dadbdb;fill-rule:evenodd"
         d="m 177.84,337.921 c -2.074,-1.927 -4.21,-3.79 -5.76,-6.24 0.423,0.217 0.743,0.537 0.96,0.96 1.315,2.045 3.315,3.405 4.8,5.28 z"
         id="path26861" />
      <path
         style="clip-rule:evenodd;fill:#dadbdb;fill-rule:evenodd"
         d="m 195.12,348.48 c -2.854,-0.505 -5.095,-1.625 -6.72,-3.359 2.238,1.122 4.528,2.191 6.72,3.359 z"
         id="path26863" />
      <path
         style="clip-rule:evenodd;fill:#252828;fill-rule:evenodd"
         d="m 197.52,263.761 c 0.487,-0.714 1.204,-1.196 2.16,-1.44 -0.524,0.596 -1.396,0.845 -1.92,1.44 -0.08,0 -0.16,0 -0.24,0 z"
         id="path26865" />
      <path
         style="clip-rule:evenodd;fill:#595b5b;fill-rule:evenodd"
         d="m 191.52,269.041 c 0.78,-0.98 1.66,-1.861 2.64,-2.641 -0.78,0.981 -1.66,1.861 -2.64,2.641 z"
         id="path26867" />
      <path
         style="clip-rule:evenodd;fill:#252828;fill-rule:evenodd"
         d="m 190.08,270.721 c 0.158,-0.883 0.885,-1.195 1.44,-1.68 -0.057,0.342 -0.395,0.404 -0.48,0.72 -0.084,0.314 -0.422,0.377 -0.48,0.72 -0.241,-0.002 -0.286,0.194 -0.48,0.24 z"
         id="path26869" />
      <path
         style="clip-rule:evenodd;fill:#252828;fill-rule:evenodd"
         d="m 185.04,279.12 c 0.295,-1.384 0.855,-2.505 1.68,-3.359 -0.287,1.313 -1.153,2.047 -1.44,3.359 -0.08,0 -0.16,0 -0.24,0 z"
         id="path26871" />
      <path
         style="clip-rule:evenodd;fill:#252828;fill-rule:evenodd"
         d="m 184.56,280.32 c -0.863,3.218 -1.924,6.236 -2.16,10.08 0,0.16 0,0.32 0,0.48 -0.08,0 -0.16,0 -0.24,0 0.25,-4.07 0.948,-7.692 2.4,-10.56 z"
         id="path26873" />
      <path
         style="clip-rule:evenodd;fill:#252828;fill-rule:evenodd"
         d="m 185.52,308.4 c 0.458,0.502 0.774,1.146 0.96,1.92 -0.583,-0.376 -0.899,-1.02 -0.96,-1.92 z"
         id="path26875" />
      <path
         style="clip-rule:evenodd;fill:#252828;fill-rule:evenodd"
         d="m 187.44,312.001 c 0.564,0.635 1.035,1.365 1.44,2.159 -0.713,-0.486 -1.196,-1.204 -1.44,-2.159 z"
         id="path26877" />
      <path
         style="clip-rule:evenodd;fill:#252828;fill-rule:evenodd"
         d="m 195.36,321.121 c -1.994,-1.367 -3.641,-3.08 -5.04,-5.04 0.423,0.217 0.743,0.536 0.96,0.96 0.939,1.14 1.979,2.18 3.12,3.119 0.342,0.058 0.404,0.396 0.72,0.48 -0.001,0.241 0.194,0.287 0.24,0.481 z"
         id="path26879" />
      <path
         style="clip-rule:evenodd;fill:#252828;fill-rule:evenodd"
         d="m 200.16,324.48 c 1.472,0.368 2.368,1.312 3.84,1.68 0,0.08 0,0.16 0,0.24 -1.545,-0.375 -2.825,-1.014 -3.84,-1.92 z"
         id="path26881" />
      <path
         style="clip-rule:evenodd;fill:#252828;fill-rule:evenodd"
         d="m 232.56,326.4 c 1.146,-0.774 2.426,-1.413 3.84,-1.92 -1.014,0.906 -2.295,1.545 -3.84,1.92 z"
         id="path26883" />
      <path
         style="clip-rule:evenodd;fill:#252828;fill-rule:evenodd"
         d="m 246.24,316.081 c -1.399,1.96 -3.046,3.673 -5.04,5.04 0,-0.241 0.194,-0.286 0.24,-0.48 0.315,-0.085 0.377,-0.423 0.72,-0.48 1.14,-0.939 2.18,-1.979 3.12,-3.119 0.217,-0.425 0.537,-0.744 0.96,-0.961 z"
         id="path26885" />
      <path
         style="clip-rule:evenodd;fill:#252828;fill-rule:evenodd"
         d="m 247.68,314.16 c 0.405,-0.795 0.875,-1.524 1.44,-2.159 -0.244,0.955 -0.726,1.673 -1.44,2.159 z"
         id="path26887" />
      <path
         style="clip-rule:evenodd;fill:#252828;fill-rule:evenodd"
         d="m 250.08,310.32 c 0.033,-0.847 0.687,-1.073 0.72,-1.92 0.08,0 0.16,0 0.24,0 -0.061,0.9 -0.376,1.544 -0.96,1.92 z"
         id="path26889" />
      <path
         style="clip-rule:evenodd;fill:#252828;fill-rule:evenodd"
         d="m 252,280.32 c 1.452,2.868 2.15,6.489 2.399,10.561 -0.079,0 -0.159,0 -0.239,0 -0.144,-0.497 0.296,-1.577 -0.24,-1.681 -0.052,-3.547 -1.26,-5.939 -1.92,-8.88 z"
         id="path26891" />
      <path
         style="clip-rule:evenodd;fill:#252828;fill-rule:evenodd"
         d="m 249.84,275.761 c 0.825,0.854 1.384,1.976 1.68,3.359 -0.694,-0.985 -1.253,-2.105 -1.68,-3.359 z"
         id="path26893" />
      <path
         style="clip-rule:evenodd;fill:#595b5b;fill-rule:evenodd"
         d="m 245.041,269.041 c -0.98,-0.78 -1.861,-1.66 -2.64,-2.641 0.98,0.78 1.86,1.661 2.64,2.641 z"
         id="path26895" />
      <path
         style="clip-rule:evenodd;fill:#252828;fill-rule:evenodd"
         d="m 236.88,262.32 c 0.956,0.244 1.673,0.727 2.16,1.44 -0.856,-0.264 -1.219,-1.021 -2.16,-1.2 0,-0.08 0,-0.16 0,-0.24 z"
         id="path26897" />
      <path
         style="clip-rule:evenodd;fill:#dadbdb;fill-rule:evenodd"
         d="m 236.4,262.32 c -1.472,-0.368 -2.369,-1.312 -3.84,-1.68 0,-0.241 0.195,-0.286 0.24,-0.48 1.416,0.504 2.767,1.073 3.6,2.16 z"
         id="path26899" />
      <path
         style="clip-rule:evenodd;fill:#dadbdb;fill-rule:evenodd"
         d="m 241.2,265.681 c 1.7,1.5 3.3,3.1 4.8,4.8 -1.7,-1.501 -3.3,-3.1 -4.8,-4.8 z"
         id="path26901" />
      <path
         style="clip-rule:evenodd;fill:#dadbdb;fill-rule:evenodd"
         d="m 241.44,320.641 c 1.72,-1.88 3.509,-3.69 5.28,-5.52 -0.125,0.354 -0.355,0.604 -0.48,0.96 -0.423,0.217 -0.743,0.536 -0.96,0.96 -1.14,0.939 -2.18,1.979 -3.12,3.119 -0.342,0.058 -0.405,0.396 -0.72,0.481 z"
         id="path26903" />
      <path
         style="clip-rule:evenodd;fill:#dadbdb;fill-rule:evenodd"
         d="m 195.12,320.641 c -0.315,-0.085 -0.377,-0.423 -0.72,-0.48 -0.94,-1.14 -1.98,-2.18 -3.12,-3.119 -0.217,-0.424 -0.537,-0.743 -0.96,-0.96 -0.125,-0.355 -0.355,-0.605 -0.48,-0.96 1.771,1.828 3.56,3.639 5.28,5.519 z"
         id="path26905" />
      <path
         style="clip-rule:evenodd;fill:#dadbdb;fill-rule:evenodd"
         d="m 190.56,270.48 c 0.058,-0.343 0.396,-0.405 0.48,-0.72 1.581,-1.219 2.739,-2.861 4.32,-4.08 -1.5,1.701 -3.1,3.3 -4.8,4.8 z"
         id="path26907" />
      <path
         style="clip-rule:evenodd;fill:#dadbdb;fill-rule:evenodd"
         d="m 200.16,262.32 c 0.833,-1.087 2.184,-1.656 3.6,-2.16 -0.009,1.008 -2.406,1.553 -3.6,2.16 z"
         id="path26909" />
      <path
         style="clip-rule:evenodd;fill:#909191;fill-rule:evenodd"
         d="m 195.36,265.681 c -1.582,1.219 -2.739,2.861 -4.32,4.08 0.085,-0.315 0.423,-0.378 0.48,-0.72 0.98,-0.78 1.86,-1.66 2.64,-2.641 0.399,-0.481 0.645,-1.115 1.44,-1.2 0.001,0.241 -0.194,0.286 -0.24,0.481 z"
         id="path26911" />
      <path
         style="clip-rule:evenodd;fill:#909191;fill-rule:evenodd"
         d="m 246,270.48 c -1.5,-1.7 -3.1,-3.3 -4.8,-4.8 0.001,-0.241 -0.194,-0.286 -0.24,-0.48 0.795,0.085 1.041,0.719 1.44,1.2 0.779,0.98 1.66,1.86 2.64,2.641 0.555,0.484 1.282,0.797 1.44,1.68 -0.24,10e-4 -0.285,-0.195 -0.48,-0.241 z"
         id="path26913" />
      <path
         style="clip-rule:evenodd;fill:#909191;fill-rule:evenodd"
         d="m 65.28,280.08 c 0,-0.319 0,-0.64 0,-0.96 0.356,0.204 0.516,0.604 0.48,1.2 -12,0.56 -25.04,0.081 -37.44,0.24 0,9.04 0,18.08 0,27.12 43.921,0.16 88.479,-0.32 132,0.24 0.201,0.278 0.316,0.644 0.24,1.2 -0.08,0 -0.16,0 -0.24,0 0,-0.24 0,-0.48 0,-0.721 -43.165,-1.276 -88.95,0.158 -132.24,-0.72 0.159,-9.041 -0.319,-18.719 0.24,-27.36 12.24,-0.159 25.12,0.322 36.96,-0.239 z"
         id="path26915" />
      <path
         style="clip-rule:evenodd;fill:#909191;fill-rule:evenodd"
         d="m 276.241,307.921 c 75.598,-0.561 152.241,-0.08 228.24,-0.24 0,0.08 0,0.16 0,0.24 -75.838,0 -151.685,0 -227.521,0 -0.889,-0.169 -0.414,1.025 -0.96,1.2 -0.077,-0.557 0.039,-0.922 0.241,-1.2 z"
         id="path26917" />
      <path
         style="clip-rule:evenodd;fill:#dadbdb;fill-rule:evenodd"
         d="m 276,309.121 c 0.546,-0.175 0.071,-1.369 0.96,-1.2 75.836,0 151.683,0 227.521,0 0,0.08 0,0.16 0,0.239 -38.16,0 -76.321,0 -114.48,0 -19.12,0 -38.24,0 -57.36,0 -9.52,0 -19.04,0 -28.56,0 -4.8,0 -9.601,0 -14.4,0 -2.399,0 -4.8,0 -7.2,0 -2.432,0.208 -6.081,-0.802 -6.479,1.44 C 276,309.44 276,309.28 276,309.121 Z"
         id="path26919" />
      <path
         style="clip-rule:evenodd;fill:#dadbdb;fill-rule:evenodd"
         d="m 248.16,345.121 c -1.625,1.734 -3.865,2.854 -6.72,3.359 2.192,-1.168 4.483,-2.237 6.72,-3.359 z"
         id="path26921" />
      <path
         style="clip-rule:evenodd;fill:#dadbdb;fill-rule:evenodd"
         d="m 258.72,337.921 c 1.485,-1.875 3.485,-3.235 4.8,-5.28 0.217,-0.423 0.537,-0.743 0.96,-0.96 -1.55,2.45 -3.687,4.313 -5.76,6.24 z"
         id="path26923" />
      <path
         style="clip-rule:evenodd;fill:#909191;fill-rule:evenodd"
         d="m 194.4,320.16 c -1.141,-0.939 -2.181,-1.979 -3.12,-3.119 1.14,0.939 2.18,1.98 3.12,3.119 z"
         id="path26925" />
      <path
         style="clip-rule:evenodd;fill:#909191;fill-rule:evenodd"
         d="m 242.16,320.16 c 0.94,-1.14 1.98,-2.18 3.12,-3.119 -0.94,1.14 -1.98,2.18 -3.12,3.119 z"
         id="path26927" />
      <path
         style="clip-rule:evenodd;fill:#909191;fill-rule:evenodd"
         d="m 177.84,337.921 c -1.485,-1.875 -3.485,-3.235 -4.8,-5.28 0.582,0.379 1.062,0.858 1.44,1.44 0.86,1.06 1.82,2.02 2.88,2.88 0.581,0.378 1.061,0.858 1.44,1.439 -0.477,-0.003 -0.305,-0.654 -0.96,-0.479 z"
         id="path26929" />
      <path
         style="clip-rule:evenodd;fill:#909191;fill-rule:evenodd"
         d="m 263.52,332.641 c -1.314,2.045 -3.314,3.405 -4.8,5.28 -0.654,-0.175 -0.483,0.477 -0.96,0.479 0.379,-0.581 0.858,-1.062 1.44,-1.439 1.06,-0.86 2.02,-1.82 2.88,-2.88 0.378,-0.582 0.859,-1.061 1.44,-1.44 z"
         id="path26931" />
      <path
         style="clip-rule:evenodd;fill:#252828;fill-rule:evenodd"
         d="m 269.52,214.32 c -3.609,-0.87 -6.97,-1.99 -10.08,-3.36 13.43,-41.289 27.11,-82.33 41.04,-123.12 -8.43,26.37 -17.489,52.11 -25.92,78.48 -5.029,14.49 -9.91,29.13 -14.64,43.92 -0.08,0 -0.16,0 -0.24,0 0.788,1.536 2.921,1.61 4.561,2.16 1.698,0.57 3.549,1.362 5.279,1.68 0,0.08 0,0.16 0,0.24 z"
         id="path26933" />
      <path
         style="clip-rule:evenodd;fill:#252828;fill-rule:evenodd"
         d="m 1.2,124.8 c 1.657,0.183 2.663,1.017 4.32,1.2 0.89,0.71 2.566,0.634 3.36,1.44 -2.693,-0.747 -5.387,-1.493 -7.68,-2.64 z"
         id="path26935" />
      <path
         style="clip-rule:evenodd;fill:#252828;fill-rule:evenodd"
         d="m 16.08,129.84 c 1.657,0.183 2.664,1.017 4.32,1.2 0.89,0.71 2.566,0.634 3.36,1.44 -2.693,-0.747 -5.387,-1.493 -7.68,-2.64 z"
         id="path26937" />
      <path
         style="clip-rule:evenodd;fill:#252828;fill-rule:evenodd"
         d="m 46.56,140.16 c 1.657,0.183 2.663,1.017 4.32,1.2 0.89,0.71 2.566,0.634 3.36,1.44 -2.693,-0.747 -5.387,-1.493 -7.68,-2.64 z"
         id="path26939" />
      <path
         style="clip-rule:evenodd;fill:#252828;fill-rule:evenodd"
         d="m 91.92,155.521 c 1.657,0.183 2.663,1.017 4.32,1.2 0.89,0.71 2.566,0.634 3.36,1.44 -2.693,-0.748 -5.387,-1.494 -7.68,-2.64 z"
         id="path26941" />
      <path
         style="clip-rule:evenodd;fill:#252828;fill-rule:evenodd"
         d="m 122.4,165.84 c 1.657,0.183 2.663,1.017 4.32,1.2 0.89,0.71 2.566,0.634 3.36,1.44 -2.693,-0.747 -5.387,-1.493 -7.68,-2.64 z"
         id="path26943" />
      <path
         style="clip-rule:evenodd;fill:#252828;fill-rule:evenodd"
         d="m 137.28,170.88 c 1.657,0.183 2.663,1.017 4.32,1.2 0.89,0.71 2.566,0.634 3.36,1.44 -2.693,-0.747 -5.387,-1.493 -7.68,-2.64 z"
         id="path26945" />
      <path
         style="clip-rule:evenodd;fill:#252828;fill-rule:evenodd"
         d="m 167.76,181.2 c 1.657,0.184 2.663,1.017 4.32,1.2 0.89,0.71 2.566,0.634 3.36,1.44 -2.692,-0.747 -5.387,-1.492 -7.68,-2.64 z"
         id="path26947" />
      <path
         style="clip-rule:evenodd;fill:#252828;fill-rule:evenodd"
         d="m 213.12,196.561 c 1.657,0.183 2.663,1.017 4.32,1.2 0.89,0.71 2.566,0.634 3.36,1.439 -2.693,-0.747 -5.387,-1.493 -7.68,-2.639 z"
         id="path26949" />
      <path
         style="clip-rule:evenodd;fill:#252828;fill-rule:evenodd"
         d="m 310.56,228 c 7.37,1.91 13.851,4.71 21.12,6.721 7.05,2.55 14.25,4.95 21.601,7.2 0,0.079 0,0.159 0,0.239 C 338.77,237.71 324.67,232.851 310.56,228 Z"
         id="path26951" />
      <path
         style="clip-rule:evenodd;fill:#252828;fill-rule:evenodd"
         d="m 394.321,255.841 c 7.369,1.91 13.85,4.71 21.12,6.72 7.05,2.55 14.25,4.95 21.6,7.2 0.055,0.346 0.717,0.084 0.72,0.479 -14.751,-4.529 -29.091,-9.469 -43.44,-14.399 z"
         id="path26953" />
      <path
         style="clip-rule:evenodd;fill:#252828;fill-rule:evenodd"
         d="m 206.88,258.961 c 5.838,-2.593 16.961,-2.593 22.8,0 -2.771,-0.43 -4.917,-1.483 -8.16,-1.44 -1.603,-0.399 -4.876,-0.399 -6.48,0 -3.243,-0.043 -5.389,1.01 -8.16,1.44 z"
         id="path26955" />
      <path
         style="clip-rule:evenodd;fill:#595b5b;fill-rule:evenodd"
         d="m 182.4,290.881 c 0.159,2.081 -0.318,4.798 0.24,6.479 -0.183,1.303 0.38,1.86 0.24,3.12 -0.927,-2.673 -0.829,-6.543 -0.72,-9.6 0.08,10e-4 0.16,10e-4 0.24,10e-4 z"
         id="path26957" />
      <path
         style="clip-rule:evenodd;fill:#595b5b;fill-rule:evenodd"
         d="m 254.4,290.881 c -0.052,3.388 0.271,7.15 -0.72,9.6 -0.14,-1.26 0.423,-1.817 0.24,-3.12 0.558,-1.682 0.081,-4.398 0.24,-6.479 0.081,-0.001 0.161,-0.001 0.24,-0.001 z"
         id="path26959" />
      <path
         style="clip-rule:evenodd;fill:#dadbdb;fill-rule:evenodd"
         d="m 182.4,290.4 c 0.559,1.842 0.082,4.719 0.24,6.96 -0.558,-1.682 -0.082,-4.398 -0.24,-6.479 0,-0.16 0,-0.32 0,-0.481 z"
         id="path26961" />
      <path
         style="clip-rule:evenodd;fill:#252828;fill-rule:evenodd"
         d="m 182.88,300.48 c 0.586,1.573 0.997,3.323 1.44,5.04 -0.803,-1.356 -1.248,-3.072 -1.44,-5.04 z"
         id="path26963" />
      <path
         style="clip-rule:evenodd;fill:#252828;fill-rule:evenodd"
         d="m 253.68,300.48 c -0.192,1.968 -0.637,3.684 -1.44,5.04 0.443,-1.716 0.854,-3.466 1.44,-5.04 z"
         id="path26965" />
      <path
         style="clip-rule:evenodd;fill:#252828;fill-rule:evenodd"
         d="m 161.04,310.801 c 0.401,0.559 0.627,1.293 0.72,2.16 -0.49,-0.47 -0.716,-1.204 -0.72,-2.16 z"
         id="path26967" />
      <path
         style="clip-rule:evenodd;fill:#252828;fill-rule:evenodd"
         d="m 274.8,312.961 c 0.093,-0.867 0.318,-1.602 0.72,-2.16 -0.004,0.956 -0.229,1.69 -0.72,2.16 z"
         id="path26969" />
      <path
         style="clip-rule:evenodd;fill:#252828;fill-rule:evenodd"
         d="m 207.84,327.841 c 1.938,0.302 3.73,0.75 5.52,1.2 -2.189,-0.051 -3.981,-0.499 -5.52,-1.2 z"
         id="path26971" />
      <path
         style="clip-rule:evenodd;fill:#252828;fill-rule:evenodd"
         d="m 223.2,328.801 c 2.212,0.053 3.493,-0.827 5.52,-0.96 -1.539,0.701 -3.331,1.149 -5.52,1.2 0,-0.08 0,-0.16 0,-0.24 z"
         id="path26973" />
      <path
         style="clip-rule:evenodd;fill:#dadbdb;fill-rule:evenodd"
         d="m 219.6,329.041 c 0.726,-0.555 2.476,-0.085 3.6,-0.24 0,0.08 0,0.16 0,0.24 -0.48,0 -0.96,0 -1.44,0 -0.72,0 -1.44,0 -2.16,0 z"
         id="path26975" />
      <path
         style="clip-rule:evenodd;fill:#252828;fill-rule:evenodd"
         d="m 201.12,350.641 c 1.756,0.244 3.32,0.681 4.8,1.2 -1.836,-0.164 -3.44,-0.561 -4.8,-1.2 z"
         id="path26977" />
      <path
         style="clip-rule:evenodd;fill:#252828;fill-rule:evenodd"
         d="m 230.64,351.841 c 1.48,-0.52 3.044,-0.956 4.8,-1.2 -1.36,0.639 -2.963,1.036 -4.8,1.2 z"
         id="path26979" />
      <path
         style="clip-rule:evenodd;fill:#252828;fill-rule:evenodd"
         d="m 207.12,352.081 c 3.04,0.48 6.565,0.475 9.36,1.199 -0.8,0 -1.6,0 -2.4,0 -2.105,-0.614 -5.047,-0.391 -6.96,-1.199 z"
         id="path26981" />
      <path
         style="clip-rule:evenodd;fill:#252828;fill-rule:evenodd"
         d="m 220.08,353.28 c 2.795,-0.725 6.321,-0.719 9.36,-1.199 -1.913,0.808 -4.855,0.585 -6.96,1.199 -0.8,0 -1.6,0 -2.4,0 z"
         id="path26983" />
      <path
         style="clip-rule:evenodd;fill:#909191;fill-rule:evenodd"
         d="m 215.04,257.521 c 1.604,-0.399 4.877,-0.399 6.48,0 -2.16,0 -4.32,0 -6.48,0 z"
         id="path26985" />
      <path
         style="clip-rule:evenodd;fill:#dadbdb;fill-rule:evenodd"
         d="m 253.92,289.2 c 0.536,0.104 0.097,1.184 0.24,1.681 -0.159,2.081 0.317,4.798 -0.24,6.479 0,-2.719 0,-5.439 0,-8.16 z"
         id="path26987" />
      <path
         style="clip-rule:evenodd;fill:#909191;fill-rule:evenodd"
         d="m 468.481,280.32 c 12,0 24,0 36,0 0,0.08 0,0.16 0,0.24 -11.92,0 -23.84,0 -35.76,0 -0.146,-0.013 -0.284,-0.036 -0.24,-0.24 z"
         id="path26989" />
      <path
         style="clip-rule:evenodd;fill:#909191;fill-rule:evenodd"
         d="m 214.8,329.041 c 0.72,0 1.44,0 2.16,0 0.88,0 1.76,0 2.64,0 0.72,0 1.44,0 2.16,0 -0.039,0.281 -0.438,0.202 -0.72,0.239 -1.84,0 -3.68,0 -5.52,0 -0.34,0.021 -0.68,0.04 -0.72,-0.239 z"
         id="path26991" />
    </g>
  </g>
</svg>
