<?xml version="1.0" encoding="UTF-8" standalone="no"?>
<svg
   xmlns:dc="http://purl.org/dc/elements/1.1/"
   xmlns:cc="http://creativecommons.org/ns#"
   xmlns:rdf="http://www.w3.org/1999/02/22-rdf-syntax-ns#"
   xmlns:svg="http://www.w3.org/2000/svg"
   xmlns="http://www.w3.org/2000/svg"
   id="svg8"
   version="1.1"
   viewBox="0 0 16.933333 16.933333"
   height="64"
   width="64">
  <title
     id="title9790">tumulus</title>
  <defs
     id="defs2" />
  <metadata
     id="metadata5">
    <rdf:RDF>
      <cc:Work
         rdf:about="">
        <dc:format>image/svg+xml</dc:format>
        <dc:type
           rdf:resource="http://purl.org/dc/dcmitype/StillImage" />
        <dc:title>tumulus</dc:title>
      </cc:Work>
    </rdf:RDF>
  </metadata>
  <g
     transform="translate(0,-280.06667)"
     id="layer1">
    <g
       transform="matrix(0.04709014,0,0,0.04709014,2.6067438,282.91639)"
       id="g36553">
      <path
         style="clip-rule:evenodd;fill:#d2d3d3;fill-rule:evenodd"
         d="m 59.04,57.6 c 0.028,-0.654 -0.129,-3.641 0.24,-2.4 0,0.8 0,1.6 0,2.4 -0.08,0 -0.16,0 -0.24,0 z"
         id="path35943" />
      <path
         style="clip-rule:evenodd;fill:#979898;fill-rule:evenodd"
         d="m 59.04,57.6 c 0.08,0 0.16,0 0.24,0 0,1.44 0,2.88 0,4.32 -0.08,0 -0.16,0 -0.24,0 0,-1.44 0,-2.88 0,-4.32 z"
         id="path35945" />
      <path
         style="clip-rule:evenodd;fill:#d2d3d3;fill-rule:evenodd"
         d="m 59.04,61.92 c 0.08,0 0.16,0 0.24,0 0,0.8 0,1.6 0,2.4 -0.369,1.241 -0.212,-1.746 -0.24,-2.4 z"
         id="path35947" />
      <path
         style="clip-rule:evenodd;fill:#d2d3d3;fill-rule:evenodd"
         d="m 122.88,119.52 c 1.355,0.371 -2.093,0.24 -3.84,0.24 -1.747,0 -5.195,0.13 -3.84,-0.24 2.56,0 5.12,0 7.68,0 z"
         id="path35949" />
      <path
         style="clip-rule:evenodd;fill:#d2d3d3;fill-rule:evenodd"
         d="m 129.12,175.44 c -0.004,-0.561 -0.079,-3.221 0.24,-1.92 0,0.64 0,1.28 0,1.92 -0.08,0 -0.16,0 -0.24,0 z"
         id="path35951" />
      <path
         style="clip-rule:evenodd;fill:#979898;fill-rule:evenodd"
         d="m 129.12,175.44 c 0.08,0 0.16,0 0.24,0 0,2.24 0,4.479 0,6.72 -0.08,0 -0.16,0 -0.24,0 0,-0.479 0,-0.96 0,-1.439 0,-1.28 0,-2.561 0,-3.841 0,-0.48 0,-0.96 0,-1.44 z"
         id="path35953" />
      <path
         style="clip-rule:evenodd;fill:#d2d3d3;fill-rule:evenodd"
         d="m 129.12,176.88 c 0,1.28 0,2.561 0,3.841 -0.398,-0.729 -0.398,-3.113 0,-3.841 z"
         id="path35955" />
      <path
         style="clip-rule:evenodd;fill:#d2d3d3;fill-rule:evenodd"
         d="m 129.12,182.16 c 0.08,0 0.16,0 0.24,0 0,0.641 0,1.28 0,1.92 -0.319,1.301 -0.244,-1.359 -0.24,-1.92 z"
         id="path35957" />
      <path
         style="clip-rule:evenodd;fill:#d2d3d3;fill-rule:evenodd"
         d="m 73.44,20.88 c 0.467,-1.213 1.534,-1.826 2.4,-2.64 -0.588,0.852 -1.457,1.423 -1.92,2.4 -0.194,0.046 -0.239,0.241 -0.48,0.24 z"
         id="path35959" />
      <path
         style="clip-rule:evenodd;fill:#d2d3d3;fill-rule:evenodd"
         d="m 64.08,36.48 c 0.326,-2.474 1.314,-4.286 2.64,-5.76 0,0.08 0,0.16 0,0.24 -0.79,1.93 -1.705,3.734 -2.64,5.52 z"
         id="path35961" />
      <path
         style="clip-rule:evenodd;fill:#d2d3d3;fill-rule:evenodd"
         d="m 66.48,88.32 c -1.012,-0.828 -1.556,-2.124 -1.92,-3.6 0.08,0 0.16,0 0.24,0 0.856,0.983 1.167,2.512 1.92,3.6 -0.08,0 -0.16,0 -0.24,0 z"
         id="path35963" />
      <path
         style="clip-rule:evenodd;fill:#d2d3d3;fill-rule:evenodd"
         d="m 76.08,101.52 c -0.984,-0.855 -2.038,-1.642 -2.64,-2.88 0.195,0.046 0.239,0.241 0.48,0.24 0.071,0.489 0.649,0.47 0.72,0.96 0.332,0.708 1.109,0.972 1.44,1.68 z"
         id="path35965" />
      <path
         style="clip-rule:evenodd;fill:#d2d3d3;fill-rule:evenodd"
         d="m 77.04,102.48 c 0.786,0.414 1.134,1.267 1.92,1.68 0.423,0.217 0.743,0.537 0.96,0.96 -1.294,-0.545 -1.985,-1.695 -2.88,-2.64 z"
         id="path35967" />
      <path
         style="clip-rule:evenodd;fill:#d2d3d3;fill-rule:evenodd"
         d="m 163.92,99.36 c -1.46,2.06 -3.22,3.819 -5.279,5.28 0.045,-0.194 0.24,-0.239 0.239,-0.48 0.558,-0.163 0.643,-0.797 1.2,-0.96 0.9,-0.7 1.701,-1.5 2.4,-2.4 0.07,-0.489 0.649,-0.471 0.72,-0.96 0.316,-0.085 0.378,-0.423 0.72,-0.48 z"
         id="path35969" />
      <path
         style="clip-rule:evenodd;fill:#d2d3d3;fill-rule:evenodd"
         d="m 158.641,14.88 c 2.06,1.46 3.819,3.221 5.279,5.28 -0.502,-0.298 -0.901,-0.698 -1.199,-1.2 -0.86,-1.06 -1.82,-2.021 -2.881,-2.88 -0.489,-0.071 -0.47,-0.649 -0.96,-0.72 -0.045,-0.194 -0.24,-0.239 -0.239,-0.48 z"
         id="path35971" />
      <path
         style="clip-rule:evenodd;fill:#d2d3d3;fill-rule:evenodd"
         d="m 233.04,138 c -1.22,-1.02 -2.34,-2.14 -3.359,-3.359 1.219,1.019 2.34,2.139 3.359,3.359 z"
         id="path35973" />
      <path
         style="clip-rule:evenodd;fill:#d2d3d3;fill-rule:evenodd"
         d="m 213.841,124.32 c 1.629,0.45 3.102,1.058 4.079,2.16 0,0.08 0,0.16 0,0.24 -1.261,-0.819 -2.928,-1.232 -4.079,-2.16 0,-0.08 0,-0.16 0,-0.24 z"
         id="path35975" />
      <path
         style="clip-rule:evenodd;fill:#d2d3d3;fill-rule:evenodd"
         d="m 144.721,219.36 c 1.38,1.18 2.66,2.46 3.84,3.84 -1.381,-1.179 -2.661,-2.46 -3.84,-3.84 z"
         id="path35977" />
      <path
         style="clip-rule:evenodd;fill:#d2d3d3;fill-rule:evenodd"
         d="m 20.64,222.96 c -2.38,-1.779 -4.46,-3.859 -6.24,-6.239 0.194,0.045 0.239,0.24 0.48,0.239 0.071,0.49 0.649,0.471 0.72,0.961 1.18,1.38 2.46,2.66 3.84,3.84 0.502,0.298 0.902,0.697 1.2,1.199 z"
         id="path35979" />
      <path
         style="clip-rule:evenodd;fill:#d2d3d3;fill-rule:evenodd"
         d="m 105.12,216.721 c -1.784,2.376 -3.864,4.456 -6.24,6.239 0.084,-0.314 0.422,-0.377 0.48,-0.72 0.315,-0.085 0.377,-0.422 0.72,-0.479 1.38,-1.18 2.66,-2.46 3.84,-3.84 0.084,-0.315 0.422,-0.378 0.48,-0.721 0.315,-0.085 0.378,-0.422 0.72,-0.479 z"
         id="path35981" />
      <path
         style="clip-rule:evenodd;fill:#d2d3d3;fill-rule:evenodd"
         d="m 99.12,132.48 c 2.22,1.62 4.14,3.54 5.76,5.76 -0.502,-0.298 -0.902,-0.698 -1.2,-1.2 -1.02,-1.22 -2.14,-2.34 -3.36,-3.359 -0.502,-0.299 -0.902,-0.699 -1.2,-1.201 z"
         id="path35983" />
      <path
         style="clip-rule:evenodd;fill:#d2d3d3;fill-rule:evenodd"
         d="m 14.64,138.24 c 1.62,-2.22 3.54,-4.14 5.76,-5.76 -0.298,0.502 -0.698,0.901 -1.2,1.2 -1.22,1.02 -2.34,2.14 -3.36,3.359 -0.298,0.503 -0.698,0.903 -1.2,1.201 z"
         id="path35985" />
      <path
         style="clip-rule:evenodd;fill:#2e3030;fill-rule:evenodd"
         d="m 113.52,0 c 0.96,0 1.92,0 2.88,0 -0.801,0.479 -2.05,0.51 -3.36,0.48 0.003,-0.317 0.421,-0.219 0.48,-0.48 z"
         id="path35987" />
      <path
         style="clip-rule:evenodd;fill:#606162;fill-rule:evenodd"
         d="m 146.641,6.96 c -1.584,-0.896 -3.461,-1.499 -5.04,-2.4 2.107,0.292 3.53,1.269 5.04,2.16 0,0.08 0,0.16 0,0.24 z"
         id="path35989" />
      <path
         style="clip-rule:evenodd;fill:#2e3030;fill-rule:evenodd"
         d="m 148.32,7.92 c -0.61,-0.27 -1.171,-0.589 -1.68,-0.96 0,-0.08 0,-0.16 0,-0.24 0.791,0.089 1.199,0.561 1.68,0.96 0,0.08 0,0.16 0,0.24 z"
         id="path35991" />
      <path
         style="clip-rule:evenodd;fill:#2e3030;fill-rule:evenodd"
         d="m 167.521,24.96 c -2.712,-3.369 -5.624,-6.536 -8.641,-9.6 0.49,0.071 0.471,0.649 0.96,0.72 0.86,1.061 1.82,2.021 2.881,2.88 0.298,0.502 0.697,0.902 1.199,1.2 1.248,1.552 2.714,2.887 3.601,4.8 z"
         id="path35993" />
      <path
         style="clip-rule:evenodd;fill:#2e3030;fill-rule:evenodd"
         d="m 168,25.68 c -0.442,-1.167 0.597,0.541 0.721,0.72 1.32,1.918 3.769,5.696 4.56,8.64 -1.637,-3.243 -3.472,-6.289 -5.281,-9.36 z"
         id="path35995" />
      <path
         style="clip-rule:evenodd;fill:#606162;fill-rule:evenodd"
         d="m 163.2,99.84 c 0.48,-0.72 0.901,-1.499 1.68,-1.92 -0.295,0.504 -0.664,0.936 -0.96,1.44 -0.342,0.057 -0.404,0.395 -0.72,0.48 z"
         id="path35997" />
      <path
         style="clip-rule:evenodd;fill:#2e3030;fill-rule:evenodd"
         d="m 158.88,104.16 c 1.34,-1.54 2.78,-2.98 4.32,-4.32 -0.07,0.489 -0.649,0.471 -0.72,0.96 -0.9,0.699 -1.7,1.5 -2.4,2.4 -0.558,0.163 -0.642,0.798 -1.2,0.96 z"
         id="path35999" />
      <path
         style="clip-rule:evenodd;fill:#606162;fill-rule:evenodd"
         d="m 157.2,105.6 c 0.393,-0.647 0.938,-1.142 1.68,-1.44 0.001,0.241 -0.194,0.286 -0.239,0.48 -0.489,0.071 -0.471,0.649 -0.96,0.72 -0.195,0.046 -0.24,0.241 -0.481,0.24 z"
         id="path36001" />
      <path
         style="clip-rule:evenodd;fill:#606162;fill-rule:evenodd"
         d="m 93.6,113.76 c 1.873,0.607 3.604,1.356 5.28,2.16 -2.204,-0.356 -3.926,-1.194 -5.52,-2.16 0.08,0 0.16,0 0.24,0 z"
         id="path36003" />
      <path
         style="clip-rule:evenodd;fill:#2e3030;fill-rule:evenodd"
         d="m 77.28,102.24 c 2.179,2.141 4.599,4.042 6.96,6 -0.08,0 -0.16,0 -0.24,0 -1.557,-0.843 -2.73,-2.069 -4.08,-3.12 -0.217,-0.423 -0.537,-0.743 -0.96,-0.96 -0.414,-0.786 -1.266,-1.134 -1.68,-1.92 z"
         id="path36005" />
      <path
         style="clip-rule:evenodd;fill:#2e3030;fill-rule:evenodd"
         d="m 76.32,101.28 c -0.708,-0.332 -0.972,-1.108 -1.68,-1.44 -0.071,-0.49 -0.649,-0.471 -0.72,-0.96 0.901,0.7 1.701,1.5 2.4,2.4 z"
         id="path36007" />
      <path
         style="clip-rule:evenodd;fill:#2e3030;fill-rule:evenodd"
         d="m 73.92,20.64 c -2.147,2.812 -4.216,5.704 -6.24,8.64 0,-0.08 0,-0.16 0,-0.24 1.646,-2.994 3.648,-5.632 5.76,-8.16 0.241,0.001 0.286,-0.194 0.48,-0.24 z"
         id="path36009" />
      <path
         style="clip-rule:evenodd;fill:#606162;fill-rule:evenodd"
         d="m 79.92,14.64 c -1.981,2.018 -3.981,4.018 -6,6 0.463,-0.977 1.332,-1.548 1.92,-2.4 1.105,-1.455 2.661,-2.459 4.08,-3.6 z"
         id="path36011" />
      <path
         style="clip-rule:evenodd;fill:#2e3030;fill-rule:evenodd"
         d="M 90.24,7.44 C 89.598,8.238 88.431,8.512 87.6,9.12 88,8.16 89.104,7.904 90,7.44 c 0.08,0 0.16,0 0.24,0 z"
         id="path36013" />
      <path
         style="clip-rule:evenodd;fill:#606162;fill-rule:evenodd"
         d="m 90,7.44 c 2.189,-1.171 4.142,-2.579 6.96,-3.12 -2.184,1.096 -4.437,2.124 -6.72,3.12 -0.08,0 -0.16,0 -0.24,0 z"
         id="path36015" />
      <path
         style="clip-rule:evenodd;fill:#2e3030;fill-rule:evenodd"
         d="M 97.2,4.32 C 97.242,3.562 98.149,3.67 98.88,3.6 98.422,3.942 97.838,4.158 97.2,4.32 Z"
         id="path36017" />
      <path
         style="clip-rule:evenodd;fill:#606162;fill-rule:evenodd"
         d="m 148.32,7.68 c 2.679,1.401 5.385,2.775 7.2,5.04 -2.271,-1.73 -4.645,-3.355 -7.2,-4.8 0,-0.08 0,-0.16 0,-0.24 z"
         id="path36019" />
      <path
         style="clip-rule:evenodd;fill:#606162;fill-rule:evenodd"
         d="m 84.72,11.04 c 0.391,-1.129 1.638,-1.402 2.64,-1.92 -0.681,0.839 -1.796,1.244 -2.64,1.92 z"
         id="path36021" />
      <path
         style="clip-rule:evenodd;fill:#606162;fill-rule:evenodd"
         d="m 80.4,14.4 c 0.909,-1.571 2.484,-2.476 4.08,-3.36 -1.169,1.311 -2.834,2.126 -4.08,3.36 z"
         id="path36023" />
      <path
         style="clip-rule:evenodd;fill:#979898;fill-rule:evenodd"
         d="m 155.761,12.72 c 0.562,0.558 1.601,0.639 1.92,1.44 -0.194,-0.046 -0.239,-0.241 -0.48,-0.24 -0.619,-0.262 -1.154,-0.607 -1.44,-1.2 z"
         id="path36025" />
      <path
         style="clip-rule:evenodd;fill:#606162;fill-rule:evenodd"
         d="m 157.681,14.16 c 0.489,0.07 0.471,0.649 0.96,0.72 -0.001,0.241 0.194,0.286 0.239,0.48 -0.741,-0.298 -1.287,-0.792 -1.68,-1.44 0.241,-10e-4 0.286,0.194 0.481,0.24 z"
         id="path36027" />
      <path
         style="clip-rule:evenodd;fill:#606162;fill-rule:evenodd"
         d="m 162.721,18.96 c -1.061,-0.859 -2.021,-1.819 -2.881,-2.88 1.06,0.859 2.02,1.82 2.881,2.88 z"
         id="path36029" />
      <path
         style="clip-rule:evenodd;fill:#606162;fill-rule:evenodd"
         d="m 66.72,30.72 c 0.178,-0.703 0.58,-1.18 0.96,-1.68 0,0.08 0,0.16 0,0.24 -0.089,0.791 -0.561,1.199 -0.96,1.68 0,-0.08 0,-0.16 0,-0.24 z"
         id="path36031" />
      <path
         style="clip-rule:evenodd;fill:#2e3030;fill-rule:evenodd"
         d="m 173.521,84.24 c -1.228,3.493 -3.08,6.36 -5.04,9.12 -0.194,0.045 -0.239,0.241 -0.48,0.24 2.001,-2.879 3.729,-6.032 5.28,-9.36 0.079,0 0.159,0 0.24,0 z"
         id="path36033" />
      <path
         style="clip-rule:evenodd;fill:#606162;fill-rule:evenodd"
         d="m 73.44,98.64 c -2.573,-3.187 -5.128,-6.392 -6.96,-10.32 0.08,0 0.16,0 0.24,0 2.064,3.856 4.669,7.171 7.2,10.56 -0.241,0.001 -0.285,-0.194 -0.48,-0.24 z"
         id="path36035" />
      <path
         style="clip-rule:evenodd;fill:#606162;fill-rule:evenodd"
         d="m 168.48,93.36 c -0.993,1.487 -1.762,3.198 -3.36,4.08 0.995,-1.246 1.992,-2.488 2.88,-3.84 0.241,0.001 0.286,-0.194 0.48,-0.24 z"
         id="path36037" />
      <path
         style="clip-rule:evenodd;fill:#606162;fill-rule:evenodd"
         d="m 76.08,101.52 c -0.332,-0.708 -1.108,-0.972 -1.44,-1.68 0.708,0.332 0.972,1.108 1.68,1.44 0.217,0.423 0.537,0.743 0.96,0.96 0.414,0.786 1.266,1.134 1.68,1.92 -0.786,-0.414 -1.134,-1.266 -1.92,-1.68 -0.423,-0.217 -0.743,-0.537 -0.96,-0.96 z"
         id="path36039" />
      <path
         style="clip-rule:evenodd;fill:#606162;fill-rule:evenodd"
         d="m 160.08,103.2 c 0.7,-0.9 1.5,-1.701 2.4,-2.4 -0.699,0.901 -1.5,1.7 -2.4,2.4 z"
         id="path36041" />
      <path
         style="clip-rule:evenodd;fill:#979898;fill-rule:evenodd"
         d="m 157.2,105.6 c 0.241,0.001 0.286,-0.194 0.48,-0.24 -0.319,0.801 -1.358,0.882 -1.92,1.44 0.287,-0.593 0.822,-0.938 1.44,-1.2 z"
         id="path36043" />
      <path
         style="clip-rule:evenodd;fill:#606162;fill-rule:evenodd"
         d="m 148.32,111.6 c 2.322,-1.197 4.214,-2.826 6.48,-4.08 1.064,-0.399 -0.941,0.946 -0.961,0.96 -1.406,1.033 -3.924,2.713 -5.52,3.36 0.001,-0.08 0.001,-0.16 0.001,-0.24 z"
         id="path36045" />
      <path
         style="clip-rule:evenodd;fill:#606162;fill-rule:evenodd"
         d="m 84.24,108.24 c 1.098,0.662 2.264,1.256 3.12,2.16 -0.194,-0.046 -0.239,-0.241 -0.48,-0.24 -1.123,-0.478 -2.082,-1.119 -2.88,-1.92 0.08,0 0.16,0 0.24,0 z"
         id="path36047" />
      <path
         style="clip-rule:evenodd;fill:#2e3030;fill-rule:evenodd"
         d="m 87.36,110.4 c 2.179,1.021 4.188,2.211 6.24,3.36 -0.08,0 -0.16,0 -0.24,0 -2.391,-0.97 -4.537,-2.183 -6.48,-3.6 0.241,-10e-4 0.286,0.194 0.48,0.24 z"
         id="path36049" />
      <path
         style="clip-rule:evenodd;fill:#2e3030;fill-rule:evenodd"
         d="m 141.601,114.96 c 2.163,-1.196 4.672,-2.048 6.72,-3.36 0,0.08 0,0.16 0,0.24 -1.952,1.329 -4.04,2.521 -6.72,3.12 z"
         id="path36051" />
      <path
         style="clip-rule:evenodd;fill:#606162;fill-rule:evenodd"
         d="m 87.36,124.8 c -1.584,-0.896 -3.461,-1.499 -5.04,-2.399 2.107,0.292 3.531,1.269 5.04,2.16 0,0.08 0,0.16 0,0.239 z"
         id="path36053" />
      <path
         style="clip-rule:evenodd;fill:#2e3030;fill-rule:evenodd"
         d="m 99.12,132.48 c 0.298,0.502 0.698,0.901 1.2,1.2 1.02,1.22 2.14,2.34 3.36,3.359 0.298,0.502 0.698,0.902 1.2,1.2 0.454,0.826 1.39,1.17 1.68,2.16 -0.194,-0.046 -0.239,-0.241 -0.48,-0.24 -2.631,-3.129 -5.468,-6.052 -8.64,-8.64 -0.085,-0.315 -0.423,-0.378 -0.48,-0.721 0.864,0.419 1.404,1.158 2.16,1.682 z"
         id="path36055" />
      <path
         style="clip-rule:evenodd;fill:#2e3030;fill-rule:evenodd"
         d="m 110.16,145.44 c 1.177,1.942 2.493,3.746 3.36,6 0,0.08 0,0.16 0,0.24 -1.139,-1.98 -2.313,-3.928 -3.36,-6 0,-0.079 0,-0.159 0,-0.24 z"
         id="path36057" />
      <path
         style="clip-rule:evenodd;fill:#606162;fill-rule:evenodd"
         d="m 115.44,156.24 c -0.677,-1.482 -1.439,-2.881 -1.92,-4.56 0,-0.08 0,-0.16 0,-0.24 0.838,1.402 1.671,2.809 1.92,4.8 z"
         id="path36059" />
      <path
         style="clip-rule:evenodd;fill:#2e3030;fill-rule:evenodd"
         d="m 114.72,201.12 c -1.287,3.193 -2.565,6.396 -4.8,8.641 1.65,-2.75 3.262,-5.538 4.56,-8.641 0.08,0 0.16,0 0.24,0 z"
         id="path36061" />
      <path
         style="clip-rule:evenodd;fill:#080a0b;fill-rule:evenodd"
         d="m 109.92,209.761 c -0.092,0.787 -0.702,1.058 -0.96,1.68 -1.604,1.836 -3.053,3.826 -4.56,5.76 -1.78,1.58 -3.46,3.26 -5.04,5.04 -1.934,1.507 -3.925,2.956 -5.76,4.561 -0.788,0.092 -1.058,0.701 -1.68,0.96 -0.602,0.357 -1.322,0.598 -1.68,1.2 -0.187,0.054 -0.474,0.006 -0.48,0.239 -1.595,0.725 -3.133,1.508 -4.56,2.4 -0.615,0.186 -1.36,0.239 -1.68,0.72 -0.08,0 -0.16,0 -0.24,0 -1.324,0.596 -2.822,1.019 -4.08,1.68 -0.744,-0.023 -1.146,0.294 -1.68,0.48 -0.698,0.262 -1.695,0.225 -2.16,0.72 -0.557,-0.076 -0.922,0.039 -1.2,0.24 -1.445,0.314 -3.078,0.441 -4.32,0.96 -0.498,0.143 -1.577,-0.297 -1.68,0.24 -7.368,0.956 -15.612,0.376 -22.08,-0.96 -2.185,-0.615 -4.559,-1.041 -6.48,-1.92 -1.083,-0.598 -2.289,-1.071 -3.6,-1.44 -2.882,-1.438 -5.783,-2.856 -8.4,-4.56 -0.622,-0.259 -0.892,-0.868 -1.68,-0.96 -3.991,-2.969 -7.527,-6.393 -11.04,-9.841 -1.382,-1.897 -2.794,-3.766 -4.32,-5.52 -0.092,-0.788 -0.702,-1.059 -0.96,-1.68 -1.666,-2.654 -3.144,-5.496 -4.56,-8.4 -0.458,-1.542 -1.043,-2.957 -1.68,-4.32 -0.708,-1.771 -1.178,-3.782 -1.68,-5.76 -0.717,-3.523 -0.919,-7.562 -1.68,-11.04 0,-1.76 0,-3.52 0,-5.28 0.761,-3.479 0.963,-7.517 1.68,-11.04 0.502,-1.978 0.972,-3.987 1.68,-5.76 0.637,-1.363 1.223,-2.777 1.68,-4.32 1.564,-3.155 3.182,-6.258 5.04,-9.119 0,-0.08 0,-0.16 0,-0.24 0.605,-0.354 0.992,-0.929 1.2,-1.68 0.613,-0.508 1.061,-1.179 1.44,-1.921 2.856,-3.304 5.95,-6.369 9.12,-9.359 0.816,-0.464 1.636,-0.925 2.16,-1.681 0.241,0.001 0.286,-0.194 0.48,-0.239 2.376,-1.704 4.988,-3.173 7.44,-4.801 1.824,-0.736 3.589,-1.531 5.28,-2.399 1.798,-0.361 2.95,-1.37 4.8,-1.68 2.081,-0.64 4.384,-1.057 6.48,-1.681 5.186,-0.741 11.233,-1.332 17.04,-0.72 0.79,0.01 1.195,0.405 2.16,0.24 0.16,0 0.32,0 0.48,0 1.081,0.44 2.523,0.517 3.84,0.72 0.08,0 0.16,0 0.24,0 0.501,0.379 1.262,0.498 2.16,0.48 0.882,0.478 2.06,0.66 3.12,0.96 0.325,0.075 0.458,0.341 0.96,0.239 0.676,0.444 1.581,0.659 2.4,0.96 0.448,0.191 0.879,0.401 1.44,0.48 1.579,0.9 3.456,1.504 5.04,2.399 1.622,0.938 3.297,1.823 4.8,2.881 1.05,0.709 2.14,1.379 3.12,2.159 0.08,0 0.16,0 0.24,0 0.464,0.736 1.314,1.087 1.92,1.681 3.172,2.588 6.008,5.511 8.64,8.64 0.514,0.526 0.747,1.333 1.44,1.68 -0.041,0.602 0.369,0.752 0.72,0.961 0.478,1.122 1.119,2.081 1.92,2.88 1.047,2.072 2.221,4.02 3.36,6 0.481,1.679 1.243,3.077 1.92,4.56 0.347,1.253 0.75,2.449 1.2,3.6 0.636,2.165 1.134,4.467 1.68,6.721 0.849,5.107 1.263,11.257 0.72,17.04 -0.26,1.1 -0.37,2.35 -0.48,3.6 0,0.16 0,0.32 0,0.48 -0.518,1.241 -0.646,2.874 -0.96,4.319 0,0.08 0,0.16 0,0.24 -0.359,0.681 -0.592,1.488 -0.72,2.4 -0.269,0.771 -0.657,1.423 -0.72,2.399 -0.662,1.259 -1.084,2.756 -1.68,4.08 -1.297,3.104 -2.909,5.892 -4.56,8.642 z"
         id="path36063" />
      <path
         style="clip-rule:evenodd;fill:#2e3030;fill-rule:evenodd"
         d="m 99.36,222.24 c 1.58,-1.78 3.26,-3.46 5.04,-5.04 -0.058,0.343 -0.396,0.405 -0.48,0.721 -1.38,1.18 -2.661,2.459 -3.84,3.84 -0.342,0.057 -0.405,0.394 -0.72,0.479 z"
         id="path36065" />
      <path
         style="clip-rule:evenodd;fill:#2e3030;fill-rule:evenodd"
         d="m 14.88,216.96 c 3.513,3.448 7.049,6.872 11.04,9.841 -2.124,-0.917 -3.553,-2.527 -5.28,-3.841 -0.298,-0.502 -0.698,-0.901 -1.2,-1.199 -1.18,-1.381 -2.459,-2.66 -3.84,-3.84 -0.071,-0.49 -0.649,-0.471 -0.72,-0.961 z"
         id="path36067" />
      <path
         style="clip-rule:evenodd;fill:#2e3030;fill-rule:evenodd"
         d="m 5.04,201.36 c 1.416,2.904 2.894,5.746 4.56,8.4 -2.109,-2.21 -3.528,-5.112 -4.56,-8.4 z"
         id="path36069" />
      <path
         style="clip-rule:evenodd;fill:#2e3030;fill-rule:evenodd"
         d="m 10.08,144.721 c -1.858,2.861 -3.476,5.964 -5.04,9.119 0,-0.079 0,-0.159 0,-0.239 1.209,-3.432 2.884,-6.396 5.04,-8.88 z"
         id="path36071" />
      <path
         style="clip-rule:evenodd;fill:#2e3030;fill-rule:evenodd"
         d="m 14.64,138.24 c 0.502,-0.298 0.902,-0.698 1.2,-1.2 1.22,-1.02 2.34,-2.14 3.36,-3.359 0.502,-0.299 0.902,-0.698 1.2,-1.2 0.49,-0.071 0.471,-0.649 0.96,-0.721 0.194,-0.045 0.239,-0.24 0.48,-0.239 -3.17,2.99 -6.264,6.056 -9.12,9.359 0.347,-1.173 1.293,-1.746 1.92,-2.64 z"
         id="path36073" />
      <path
         style="clip-rule:evenodd;fill:#2e3030;fill-rule:evenodd"
         d="m 31.92,124.8 c -2.452,1.628 -5.063,3.097 -7.44,4.801 1.809,-2.191 4.578,-3.423 7.2,-4.801 0.08,0 0.16,0 0.24,0 z"
         id="path36075" />
      <path
         style="clip-rule:evenodd;fill:#606162;fill-rule:evenodd"
         d="m 37.2,122.4 c -1.691,0.868 -3.457,1.663 -5.28,2.399 -0.08,0 -0.16,0 -0.24,0 1.681,-0.958 3.23,-2.049 5.52,-2.399 z"
         id="path36077" />
      <path
         style="clip-rule:evenodd;fill:#606162;fill-rule:evenodd"
         d="m 240,147.84 c -2.195,-3.164 -4.354,-6.364 -6.96,-9.119 0.49,0.07 0.471,0.648 0.96,0.72 2.335,2.386 4.33,5.11 6,8.16 0,0.08 0,0.16 0,0.239 z"
         id="path36079" />
      <path
         style="clip-rule:evenodd;fill:#2e3030;fill-rule:evenodd"
         d="m 240,147.601 c 1.06,1.66 2.16,3.28 2.881,5.279 0,0.08 0,0.16 0,0.24 -1.012,-1.708 -1.981,-3.459 -2.881,-5.28 0,-0.079 0,-0.159 0,-0.239 z"
         id="path36081" />
      <path
         style="clip-rule:evenodd;fill:#606162;fill-rule:evenodd"
         d="m 244.32,156.48 c -0.533,-1.066 -1.151,-2.049 -1.439,-3.36 0,-0.08 0,-0.16 0,-0.24 0.683,0.996 1.298,2.062 1.439,3.6 z"
         id="path36083" />
      <path
         style="clip-rule:evenodd;fill:#2e3030;fill-rule:evenodd"
         d="m 229.2,222.96 c 1.18,-1.38 2.46,-2.66 3.84,-3.84 -1.057,1.504 -2.336,2.783 -3.84,3.84 z"
         id="path36085" />
      <path
         style="clip-rule:evenodd;fill:#606162;fill-rule:evenodd"
         d="m 227.28,224.641 c 0.421,-0.779 1.2,-1.2 1.92,-1.681 -0.085,0.315 -0.422,0.378 -0.479,0.721 -0.505,0.296 -0.936,0.664 -1.441,0.96 z"
         id="path36087" />
      <path
         style="clip-rule:evenodd;fill:#2e3030;fill-rule:evenodd"
         d="m 156.96,229.2 c 2.604,1.316 5.105,2.735 7.681,4.08 -0.08,0 -0.16,0 -0.24,0 -2.985,-0.774 -4.878,-2.642 -7.44,-3.84 -0.561,-0.133 -0.561,-0.721 -0.001,-0.24 z"
         id="path36089" />
      <path
         style="clip-rule:evenodd;fill:#2e3030;fill-rule:evenodd"
         d="m 148.08,222.24 c -0.9,-0.699 -1.7,-1.499 -2.399,-2.399 0.9,0.699 1.7,1.499 2.399,2.399 z"
         id="path36091" />
      <path
         style="clip-rule:evenodd;fill:#2e3030;fill-rule:evenodd"
         d="m 132.96,199.2 c 1.416,3.064 2.609,6.351 4.32,9.12 -0.08,0 -0.16,0 -0.24,0 -1.725,-2.675 -3.261,-5.539 -4.08,-9.12 z"
         id="path36093" />
      <path
         style="clip-rule:evenodd;fill:#606162;fill-rule:evenodd"
         d="m 134.641,154.32 c -0.186,0.614 -0.24,1.36 -0.721,1.68 -0.07,-0.95 0.294,-1.467 0.721,-1.92 0,0.08 0,0.16 0,0.24 z"
         id="path36095" />
      <path
         style="clip-rule:evenodd;fill:#2e3030;fill-rule:evenodd"
         d="m 136.8,150 c -0.651,1.508 -1.327,2.993 -2.159,4.32 0,-0.08 0,-0.16 0,-0.24 0.415,-1.744 1.23,-3.089 2.159,-4.319 0,0.079 0,0.159 0,0.239 z"
         id="path36097" />
      <path
         style="clip-rule:evenodd;fill:#2e3030;fill-rule:evenodd"
         d="m 139.681,145.2 c 0.367,-0.972 2.283,-3.764 2.159,-2.88 -0.664,1.016 -1.223,2.137 -2.159,2.88 z"
         id="path36099" />
      <path
         style="clip-rule:evenodd;fill:#606162;fill-rule:evenodd"
         d="m 145.44,137.76 c 0.9,-0.699 1.7,-1.499 2.399,-2.399 3.34,-3.061 6.825,-5.975 11.04,-8.16 0.08,0 0.16,0 0.24,0 -5.784,3.575 -10.869,7.851 -15.359,12.72 0.417,-0.864 1.156,-1.404 1.68,-2.161 z"
         id="path36101" />
      <path
         style="clip-rule:evenodd;fill:#2e3030;fill-rule:evenodd"
         d="m 160.801,126.24 c -0.481,0.399 -0.89,0.871 -1.681,0.96 -0.08,0 -0.16,0 -0.24,0 0.481,-0.399 0.89,-0.871 1.681,-0.96 0.08,0 0.16,0 0.24,0 z"
         id="path36103" />
      <path
         style="clip-rule:evenodd;fill:#606162;fill-rule:evenodd"
         d="m 169.681,122.4 c -3.01,1.23 -5.964,2.517 -8.88,3.84 -0.08,0 -0.16,0 -0.24,0 2.762,-1.556 5.508,-3.131 9.12,-3.84 z"
         id="path36105" />
      <path
         style="clip-rule:evenodd;fill:#2e3030;fill-rule:evenodd"
         d="m 87.36,124.561 c 1.741,0.658 3.204,1.596 4.56,2.64 0.046,0.194 0.241,0.239 0.24,0.48 -1.503,-1.058 -3.178,-1.942 -4.8,-2.881 0,-0.079 0,-0.159 0,-0.239 z"
         id="path36107" />
      <path
         style="clip-rule:evenodd;fill:#2e3030;fill-rule:evenodd"
         d="m 217.92,126.48 c 0.756,0.204 1.476,0.445 1.681,1.2 -0.61,-0.27 -1.171,-0.59 -1.681,-0.96 0,-0.079 0,-0.159 0,-0.24 z"
         id="path36109" />
      <path
         style="clip-rule:evenodd;fill:#606162;fill-rule:evenodd"
         d="m 91.92,127.2 c 1.334,0.667 2.665,1.335 3.36,2.64 -0.98,-0.78 -2.07,-1.45 -3.12,-2.159 0.001,-0.242 -0.194,-0.286 -0.24,-0.481 z"
         id="path36111" />
      <path
         style="clip-rule:evenodd;fill:#606162;fill-rule:evenodd"
         d="m 219.841,127.681 c 2.683,1.236 4.896,2.943 6.96,4.8 -0.194,-0.046 -0.239,-0.241 -0.48,-0.24 -2.149,-1.532 -4.454,-2.907 -6.48,-4.56 z"
         id="path36113" />
      <path
         style="clip-rule:evenodd;fill:#606162;fill-rule:evenodd"
         d="m 21.36,131.76 c 0.645,-0.875 1.621,-1.419 2.64,-1.92 -0.524,0.756 -1.344,1.217 -2.16,1.681 -0.241,-10e-4 -0.286,0.194 -0.48,0.239 z"
         id="path36115" />
      <path
         style="clip-rule:evenodd;fill:#606162;fill-rule:evenodd"
         d="m 95.52,129.84 c 0.452,0.349 1.248,0.354 1.44,0.96 0.058,0.343 0.396,0.405 0.48,0.721 -0.606,-0.594 -1.456,-0.945 -1.92,-1.681 z"
         id="path36117" />
      <path
         style="clip-rule:evenodd;fill:#606162;fill-rule:evenodd"
         d="m 15.84,137.04 c 1.02,-1.22 2.14,-2.34 3.36,-3.359 -1.02,1.219 -2.14,2.34 -3.36,3.359 z"
         id="path36119" />
      <path
         style="clip-rule:evenodd;fill:#606162;fill-rule:evenodd"
         d="m 103.68,137.04 c -1.22,-1.02 -2.34,-2.14 -3.36,-3.359 1.221,1.019 2.341,2.139 3.36,3.359 z"
         id="path36121" />
      <path
         style="clip-rule:evenodd;fill:#979898;fill-rule:evenodd"
         d="m 226.801,132.48 c 1.211,0.469 1.614,1.746 2.88,2.16 1.02,1.22 2.14,2.34 3.359,3.359 0.158,0.643 0.688,0.913 0.96,1.44 -0.489,-0.071 -0.47,-0.649 -0.96,-0.72 -1.668,-2.731 -4.67,-4.13 -6.72,-6.48 0.242,0 0.286,0.196 0.481,0.241 z"
         id="path36123" />
      <path
         style="clip-rule:evenodd;fill:#979898;fill-rule:evenodd"
         d="m 145.44,137.76 c 0.699,-0.9 1.499,-1.7 2.399,-2.399 -0.698,0.9 -1.498,1.7 -2.399,2.399 z"
         id="path36125" />
      <path
         style="clip-rule:evenodd;fill:#606162;fill-rule:evenodd"
         d="m 107.52,141.84 c -0.693,-0.347 -0.926,-1.153 -1.44,-1.68 0.241,-0.001 0.286,0.194 0.48,0.24 0.607,0.193 0.612,0.989 0.96,1.44 z"
         id="path36127" />
      <path
         style="clip-rule:evenodd;fill:#606162;fill-rule:evenodd"
         d="m 10.08,144.48 c 0.073,-0.692 1.641,-2.759 1.2,-1.68 -0.208,0.752 -0.594,1.326 -1.2,1.68 z"
         id="path36129" />
      <path
         style="clip-rule:evenodd;fill:#606162;fill-rule:evenodd"
         d="m 110.16,145.681 c -0.801,-0.799 -1.442,-1.758 -1.92,-2.88 -0.264,-0.874 1.653,1.706 1.92,2.64 0,0.08 0,0.16 0,0.24 z"
         id="path36131" />
      <path
         style="clip-rule:evenodd;fill:#606162;fill-rule:evenodd"
         d="m 136.8,149.761 c 0.51,-1.175 1.447,-3.188 2.16,-3.36 -0.597,1.322 -1.398,2.441 -2.16,3.6 0,-0.081 0,-0.161 0,-0.24 z"
         id="path36133" />
      <path
         style="clip-rule:evenodd;fill:#d2d3d3;fill-rule:evenodd"
         d="m 233.761,218.641 c -1.367,1.993 -3.08,3.641 -5.04,5.04 0.058,-0.343 0.395,-0.405 0.479,-0.721 1.504,-1.057 2.783,-2.336 3.84,-3.84 0.315,-0.085 0.378,-0.422 0.721,-0.479 z"
         id="path36135" />
      <path
         style="clip-rule:evenodd;fill:#d2d3d3;fill-rule:evenodd"
         d="m 243.601,203.521 c -0.45,1.629 -1.058,3.103 -2.16,4.08 -0.08,0 -0.16,0 -0.24,0 0.819,-1.262 1.231,-2.929 2.16,-4.08 0.079,0 0.16,0 0.24,0 z"
         id="path36137" />
      <path
         style="clip-rule:evenodd;fill:#2e3030;fill-rule:evenodd"
         d="m 241.44,207.601 c -0.089,0.791 -0.561,1.199 -0.96,1.68 -0.08,0 -0.16,0 -0.24,0 0.27,-0.61 0.59,-1.17 0.96,-1.68 0.08,0 0.16,0 0.24,0 z"
         id="path36139" />
      <path
         style="clip-rule:evenodd;fill:#606162;fill-rule:evenodd"
         d="m 240.48,209.28 c -0.403,0.717 -0.484,1.756 -1.44,1.92 0.305,-0.735 0.817,-1.263 1.2,-1.92 0.08,0 0.16,0 0.24,0 z"
         id="path36141" />
      <path
         style="clip-rule:evenodd;fill:#606162;fill-rule:evenodd"
         d="m 140.88,213.841 c -1.811,-1.31 -2.79,-3.45 -3.84,-5.521 0.08,0 0.16,0 0.24,0 1.087,1.953 2.301,3.78 3.6,5.521 z"
         id="path36143" />
      <path
         style="clip-rule:evenodd;fill:#606162;fill-rule:evenodd"
         d="m 108.96,211.44 c -0.96,2.079 -2.497,3.583 -3.84,5.28 -0.342,0.058 -0.405,0.395 -0.72,0.479 1.507,-1.932 2.955,-3.923 4.56,-5.759 z"
         id="path36145" />
      <path
         style="clip-rule:evenodd;fill:#606162;fill-rule:evenodd"
         d="m 238.561,212.16 c -1.229,2.53 -3.114,4.406 -4.8,6.48 -0.343,0.058 -0.405,0.395 -0.721,0.479 1.865,-2.294 3.616,-4.703 5.521,-6.959 z"
         id="path36147" />
      <path
         style="clip-rule:evenodd;fill:#606162;fill-rule:evenodd"
         d="m 14.4,216.721 c -1.313,-1.727 -2.923,-3.156 -3.84,-5.28 1.526,1.754 2.938,3.622 4.32,5.52 -0.241,0 -0.286,-0.195 -0.48,-0.24 z"
         id="path36149" />
      <path
         style="clip-rule:evenodd;fill:#606162;fill-rule:evenodd"
         d="m 142.561,216.48 c -0.607,-0.192 -0.612,-0.988 -0.96,-1.44 0.735,0.465 1.086,1.314 1.68,1.92 -0.316,-0.084 -0.379,-0.422 -0.72,-0.48 z"
         id="path36151" />
      <path
         style="clip-rule:evenodd;fill:#606162;fill-rule:evenodd"
         d="m 19.44,221.761 c -1.38,-1.18 -2.66,-2.46 -3.84,-3.84 1.38,1.18 2.66,2.459 3.84,3.84 z"
         id="path36153" />
      <path
         style="clip-rule:evenodd;fill:#606162;fill-rule:evenodd"
         d="m 100.08,221.761 c 1.18,-1.381 2.46,-2.66 3.84,-3.84 -1.18,1.38 -2.46,2.66 -3.84,3.84 z"
         id="path36155" />
      <path
         style="clip-rule:evenodd;fill:#979898;fill-rule:evenodd"
         d="m 144.721,219.36 c -0.415,-1.266 -1.691,-1.669 -2.16,-2.88 0.342,0.058 0.404,0.396 0.72,0.479 0.768,0.992 1.736,1.784 2.4,2.881 0.699,0.9 1.499,1.7 2.399,2.399 0.851,0.67 1.828,1.212 2.4,2.16 -0.75,-0.29 -1.044,-1.036 -1.92,-1.2 -1.179,-1.379 -2.459,-2.659 -3.839,-3.839 z"
         id="path36157" />
      <path
         style="clip-rule:evenodd;fill:#979898;fill-rule:evenodd"
         d="m 226.08,225.601 c 1.03,-0.29 -1.395,1.444 -2.159,1.68 0.523,-0.757 1.344,-1.217 2.159,-1.68 z"
         id="path36159" />
      <path
         style="clip-rule:evenodd;fill:#606162;fill-rule:evenodd"
         d="m 93.6,226.801 c 1.835,-1.604 3.827,-3.054 5.76,-4.561 -0.058,0.343 -0.396,0.405 -0.48,0.72 -1.696,1.344 -3.201,2.88 -5.28,3.841 z"
         id="path36161" />
      <path
         style="clip-rule:evenodd;fill:#606162;fill-rule:evenodd"
         d="m 152.88,226.32 c 0.828,0.292 1.447,0.793 1.921,1.44 -0.685,-0.194 -2.969,-1.819 -1.921,-1.44 z"
         id="path36163" />
      <path
         style="clip-rule:evenodd;fill:#606162;fill-rule:evenodd"
         d="m 91.92,227.761 c 0.045,1.005 -1.142,0.778 -1.68,1.2 0.358,-0.603 1.078,-0.843 1.68,-1.2 z"
         id="path36165" />
      <path
         style="clip-rule:evenodd;fill:#606162;fill-rule:evenodd"
         d="m 218.4,230.641 c 1.874,-1.006 3.538,-2.222 5.28,-3.36 -1.288,1.672 -3.304,2.616 -5.28,3.601 0,-0.081 0,-0.161 0,-0.241 z"
         id="path36167" />
      <path
         style="clip-rule:evenodd;fill:#606162;fill-rule:evenodd"
         d="m 27.6,227.761 c 2.617,1.703 5.518,3.122 8.4,4.56 -3.348,-0.972 -6.071,-2.569 -8.4,-4.56 z"
         id="path36169" />
      <path
         style="clip-rule:evenodd;fill:#606162;fill-rule:evenodd"
         d="m 85.2,231.601 c 1.427,-0.893 2.965,-1.676 4.56,-2.4 -0.494,0.79 -2.812,1.825 -4.32,2.4 -0.08,0 -0.16,0 -0.24,0 z"
         id="path36171" />
      <path
         style="clip-rule:evenodd;fill:#2e3030;fill-rule:evenodd"
         d="m 214.801,232.561 c 1.286,-0.554 2.364,-1.315 3.6,-1.92 0,0.08 0,0.16 0,0.24 -0.987,0.852 -2.236,1.443 -3.6,1.92 0,-0.08 0,-0.16 0,-0.24 z"
         id="path36173" />
      <path
         style="clip-rule:evenodd;fill:#2e3030;fill-rule:evenodd"
         d="m 121.68,0 c 0.96,0 1.92,0 2.88,0 0.053,0.187 0.201,0.279 0.48,0.24 0,0.08 0,0.16 0,0.24 -1.31,0.03 -2.559,-0.001 -3.36,-0.48 z"
         id="path36175" />
      <path
         style="clip-rule:evenodd;fill:#606162;fill-rule:evenodd"
         d="m 125.04,0.24 c 1.311,0.13 2.948,-0.068 3.601,0.72 -1.25,-0.11 -2.501,-0.219 -3.601,-0.48 0,-0.08 0,-0.16 0,-0.24 z"
         id="path36177" />
      <path
         style="clip-rule:evenodd;fill:#606162;fill-rule:evenodd"
         d="m 105.6,1.68 c 1.119,-0.882 3.054,-0.946 5.04,-0.96 -1.579,0.421 -3.348,0.651 -5.04,0.96 z"
         id="path36179" />
      <path
         style="clip-rule:evenodd;fill:#2e3030;fill-rule:evenodd"
         d="m 129.12,0.96 c 1.687,-0.086 2.905,0.295 4.08,0.72 0,0.08 0,0.16 0,0.24 -1.274,-0.405 -2.94,-0.42 -4.08,-0.96 z"
         id="path36181" />
      <path
         style="clip-rule:evenodd;fill:#606162;fill-rule:evenodd"
         d="m 102,2.64 c 0.641,-0.799 1.962,-0.918 3.36,-0.96 -0.918,0.522 -2.278,0.601 -3.36,0.96 z"
         id="path36183" />
      <path
         style="clip-rule:evenodd;fill:#606162;fill-rule:evenodd"
         d="m 133.2,1.68 c 1.356,0.244 2.824,0.376 3.6,1.2 -1.259,-0.261 -2.341,-0.699 -3.6,-0.96 0,-0.08 0,-0.16 0,-0.24 z"
         id="path36185" />
      <path
         style="clip-rule:evenodd;fill:#606162;fill-rule:evenodd"
         d="m 99.12,3.6 c 0.353,-0.847 1.511,-0.89 2.64,-0.96 -0.704,0.496 -1.731,0.669 -2.64,0.96 z"
         id="path36187" />
      <path
         style="clip-rule:evenodd;fill:#606162;fill-rule:evenodd"
         d="m 176.4,43.44 c -0.979,-2.622 -1.923,-5.277 -2.88,-7.92 1.132,1.509 2.42,4.939 2.88,7.92 z"
         id="path36189" />
      <path
         style="clip-rule:evenodd;fill:#606162;fill-rule:evenodd"
         d="m 64.08,36.48 c -0.777,2.263 -1.582,4.498 -2.4,6.72 0.389,-2.651 1.219,-4.861 2.4,-6.72 z"
         id="path36191" />
      <path
         style="clip-rule:evenodd;fill:#2e3030;fill-rule:evenodd"
         d="m 61.68,43.2 c -0.212,1.388 -0.483,2.716 -0.96,3.84 -0.041,-1.641 0.324,-2.875 0.96,-3.84 z"
         id="path36193" />
      <path
         style="clip-rule:evenodd;fill:#2e3030;fill-rule:evenodd"
         d="m 177.84,49.92 c -0.621,-1.938 -0.935,-4.185 -1.439,-6.24 0.955,1.365 1.17,3.47 1.439,5.52 0,0.24 0,0.48 0,0.72 z"
         id="path36195" />
      <path
         style="clip-rule:evenodd;fill:#606162;fill-rule:evenodd"
         d="m 60.72,47.04 c 0.168,1.048 -0.408,1.352 -0.24,2.4 -0.08,0 -0.16,0 -0.24,0 0.034,-0.926 -0.187,-2.107 0.48,-2.4 z"
         id="path36197" />
      <path
         style="clip-rule:evenodd;fill:#606162;fill-rule:evenodd"
         d="m 177.84,49.2 c 0.502,1.419 0.619,3.222 0.721,5.04 -0.08,0 -0.16,0 -0.24,0 -0.177,-1.423 -0.491,-2.709 -0.48,-4.32 -0.001,-0.24 -0.001,-0.48 -0.001,-0.72 z"
         id="path36199" />
      <path
         style="clip-rule:evenodd;fill:#2e3030;fill-rule:evenodd"
         d="m 178.801,56.64 c 0.038,2.758 0.021,5.462 -0.24,7.92 0,0.24 0,0.48 0,0.72 -0.08,0 -0.16,0 -0.24,0 0.284,-3.678 0.284,-7.362 0,-11.04 0.08,0 0.16,0 0.24,0 0.15,0.73 -0.308,2.067 0.24,2.4 z"
         id="path36201" />
      <path
         style="clip-rule:evenodd;fill:#d2d3d3;fill-rule:evenodd"
         d="m 178.561,64.56 c 0.262,-2.458 0.278,-5.162 0.24,-7.92 -0.077,-0.294 0.038,-1.482 0.239,-0.72 -0.243,2.797 0.532,6.612 -0.479,8.64 z"
         id="path36203" />
      <path
         style="clip-rule:evenodd;fill:#606162;fill-rule:evenodd"
         d="m 178.561,65.28 c -0.169,1.352 0.085,3.125 -0.721,3.84 0.154,-1.287 0.19,-2.69 0.48,-3.84 0.08,0 0.16,0 0.241,0 z"
         id="path36205" />
      <path
         style="clip-rule:evenodd;fill:#2e3030;fill-rule:evenodd"
         d="m 177.84,69.6 c -0.041,1.319 0.074,2.793 -0.72,3.36 0.15,-1.21 0.295,-2.425 0.72,-3.36 z"
         id="path36207" />
      <path
         style="clip-rule:evenodd;fill:#2e3030;fill-rule:evenodd"
         d="m 61.68,76.32 c -1.528,-3.272 -1.686,-7.915 -2.4,-12 0,-0.8 0,-1.6 0,-2.4 0,-1.44 0,-2.88 0,-4.32 0,-0.8 0,-1.6 0,-2.4 0.502,-1.738 0.263,-4.217 0.96,-5.76 -1.421,8.88 -0.65,19.398 1.44,26.88 z"
         id="path36209" />
      <path
         style="clip-rule:evenodd;fill:#2e3030;fill-rule:evenodd"
         d="m 177.12,73.2 c -0.026,1.093 -0.004,2.235 -0.72,2.64 0.173,-0.947 0.298,-1.942 0.72,-2.64 z"
         id="path36211" />
      <path
         style="clip-rule:evenodd;fill:#606162;fill-rule:evenodd"
         d="m 63.12,80.64 c -0.849,-1.071 -1.28,-2.56 -1.44,-4.32 0.661,1.259 0.99,2.85 1.44,4.32 z"
         id="path36213" />
      <path
         style="clip-rule:evenodd;fill:#606162;fill-rule:evenodd"
         d="m 176.4,76.08 c -0.494,3.186 -1.603,5.757 -2.88,8.16 -0.08,0 -0.16,0 -0.24,0 1.239,-2.521 2.041,-5.479 3.12,-8.16 z"
         id="path36215" />
      <path
         style="clip-rule:evenodd;fill:#2e3030;fill-rule:evenodd"
         d="m 64.56,84.72 c -0.201,-0.519 -0.621,-0.819 -0.48,-1.68 0.48,0.319 0.535,1.065 0.72,1.68 -0.08,0 -0.16,0 -0.24,0 z"
         id="path36217" />
      <path
         style="clip-rule:evenodd;fill:#080a0b;fill-rule:evenodd"
         d="m 66.72,88.32 c -0.752,-1.088 -1.064,-2.617 -1.92,-3.6 -0.186,-0.615 -0.24,-1.361 -0.72,-1.68 -0.217,-0.903 -0.516,-1.724 -0.96,-2.4 -0.45,-1.47 -0.779,-3.061 -1.44,-4.32 -2.09,-7.482 -2.861,-18 -1.44,-26.88 0.08,0 0.16,0 0.24,0 -0.168,-1.048 0.408,-1.352 0.24,-2.4 0.477,-1.124 0.748,-2.452 0.96,-3.84 0.818,-2.222 1.623,-4.457 2.4,-6.72 0.935,-1.786 1.85,-3.59 2.64,-5.52 0.399,-0.48 0.871,-0.889 0.96,-1.68 2.024,-2.937 4.092,-5.828 6.24,-8.64 2.019,-1.982 4.019,-3.982 6,-6 0.241,0 0.286,-0.194 0.48,-0.24 1.245,-1.234 2.91,-2.049 4.08,-3.36 0.08,0 0.16,0 0.24,0 0.844,-0.676 1.958,-1.081 2.64,-1.92 0.08,0 0.16,0 0.24,0 0.832,-0.608 1.998,-0.882 2.64,-1.68 2.283,-0.997 4.536,-2.024 6.72,-3.12 0.08,0 0.16,0 0.24,0 0.638,-0.162 1.222,-0.377 1.68,-0.72 0.08,0 0.16,0 0.24,0 0.909,-0.291 1.936,-0.464 2.64,-0.96 0.08,0 0.16,0 0.24,0 1.082,-0.359 2.442,-0.438 3.36,-0.96 0.08,0 0.16,0 0.24,0 1.691,-0.309 3.461,-0.54 5.04,-0.96 0.454,-0.426 1.585,-0.175 2.4,-0.24 1.311,0.03 2.56,0 3.36,-0.48 1.76,0 3.52,0 5.28,0 0.801,0.479 2.05,0.51 3.36,0.48 1.1,0.261 2.351,0.37 3.601,0.48 0.159,0 0.319,0 0.479,0 1.14,0.54 2.806,0.555 4.08,0.96 1.259,0.261 2.341,0.699 3.6,0.96 1.602,0.559 3.156,1.165 4.801,1.68 1.579,0.901 3.456,1.504 5.04,2.4 0.509,0.371 1.069,0.69 1.68,0.96 2.556,1.445 4.93,3.07 7.2,4.8 0.08,0 0.16,0 0.24,0 0.286,0.593 0.821,0.938 1.439,1.2 0.393,0.648 0.938,1.142 1.68,1.44 3.017,3.064 5.929,6.231 8.641,9.6 -0.013,0.413 0.185,0.615 0.479,0.72 1.809,3.071 3.644,6.117 5.28,9.36 0.054,0.187 0.007,0.474 0.24,0.48 0.957,2.643 1.901,5.298 2.88,7.92 0,0.08 0,0.16 0,0.24 0.505,2.055 0.818,4.301 1.439,6.24 -0.011,1.611 0.304,2.897 0.48,4.32 0.284,3.678 0.284,7.362 0,11.04 -0.29,1.15 -0.326,2.553 -0.48,3.84 0,0.16 0,0.32 0,0.48 -0.425,0.935 -0.57,2.149 -0.72,3.36 0,0.08 0,0.16 0,0.24 -0.422,0.698 -0.547,1.693 -0.72,2.64 0,0.08 0,0.16 0,0.24 -1.079,2.681 -1.882,5.639 -3.12,8.16 -1.552,3.328 -3.279,6.481 -5.28,9.36 -0.888,1.352 -1.885,2.595 -2.88,3.84 0.001,0.241 -0.194,0.285 -0.24,0.48 -0.778,0.421 -1.199,1.2 -1.68,1.92 -1.54,1.34 -2.98,2.78 -4.32,4.32 -0.741,0.298 -1.287,0.792 -1.68,1.44 -0.618,0.262 -1.153,0.606 -1.439,1.2 -0.602,-0.041 -0.752,0.369 -0.96,0.72 -2.267,1.254 -4.158,2.883 -6.48,4.08 -2.048,1.312 -4.557,2.164 -6.72,3.36 -0.08,0 -0.16,0 -0.24,0 -1.17,0.51 -2.538,0.822 -3.601,1.44 -0.079,0 -0.159,0 -0.239,0 -1.793,0.447 -3.499,0.981 -5.28,1.44 -7.926,1.965 -18.895,1.757 -26.88,0 -2.185,-0.616 -4.559,-1.041 -6.48,-1.92 -1.677,-0.804 -3.407,-1.553 -5.28,-2.16 -2.051,-1.149 -4.061,-2.339 -6.24,-3.36 -0.856,-0.904 -2.022,-1.498 -3.12,-2.16 -2.361,-1.958 -4.781,-3.859 -6.96,-6 -0.423,-0.217 -0.743,-0.537 -0.96,-0.96 -0.7,-0.9 -1.5,-1.701 -2.4,-2.4 -2.531,-3.389 -5.136,-6.704 -7.2,-10.56 z"
         id="path36219" />
      <path
         style="clip-rule:evenodd;fill:#606162;fill-rule:evenodd"
         d="m 141.36,114.96 c -0.618,1.062 -2.194,1.166 -3.601,1.44 1.063,-0.618 2.431,-0.93 3.601,-1.44 z"
         id="path36221" />
      <path
         style="clip-rule:evenodd;fill:#606162;fill-rule:evenodd"
         d="m 137.521,116.4 c -1.265,1.056 -3.352,1.288 -5.28,1.68 0,-0.08 0,-0.16 0,-0.24 1.78,-0.458 3.487,-0.993 5.28,-1.44 z"
         id="path36223" />
      <path
         style="clip-rule:evenodd;fill:#d2d3d3;fill-rule:evenodd"
         d="m 65.04,118.08 c -2.751,-0.368 -6.027,-0.212 -9.12,-0.24 -1.224,-0.21 0.084,-0.224 0.24,-0.24 1.917,-0.201 7.236,-0.161 8.88,0.48 z"
         id="path36225" />
      <path
         style="clip-rule:evenodd;fill:#606162;fill-rule:evenodd"
         d="m 65.52,118.08 c 0.872,0.009 1.895,-0.134 2.16,0.48 -0.965,0.166 -1.37,-0.23 -2.16,-0.24 0,-0.08 0,-0.16 0,-0.24 z"
         id="path36227" />
      <path
         style="clip-rule:evenodd;fill:#2e3030;fill-rule:evenodd"
         d="m 132.24,118.08 c -2.68,0.92 -6.204,0.997 -9.36,1.44 -2.56,0 -5.12,0 -7.68,0 -3.236,-0.604 -7.128,-0.552 -9.84,-1.68 7.985,1.757 18.954,1.965 26.88,0 0,0.08 0,0.16 0,0.24 z"
         id="path36229" />
      <path
         style="clip-rule:evenodd;fill:#2e3030;fill-rule:evenodd"
         d="m 47.76,119.04 c 2.292,-0.827 5.485,-0.754 8.16,-1.2 3.093,0.027 6.369,-0.128 9.12,0.24 0.16,0 0.32,0 0.48,0 0,0.08 0,0.16 0,0.24 -5.807,-0.612 -11.854,-0.021 -17.04,0.72 -0.24,0 -0.48,0 -0.72,0 z"
         id="path36231" />
      <path
         style="clip-rule:evenodd;fill:#2e3030;fill-rule:evenodd"
         d="m 68.16,118.56 c 1.459,0.061 3.142,-0.102 3.84,0.72 -1.317,-0.203 -2.759,-0.28 -3.84,-0.72 z"
         id="path36233" />
      <path
         style="clip-rule:evenodd;fill:#d2d3d3;fill-rule:evenodd"
         d="m 193.92,119.28 c -2.538,-0.342 -5.53,-0.229 -8.399,-0.24 -0.587,10e-4 -0.997,-0.119 -0.24,-0.24 1.62,-0.258 7.25,-0.131 8.639,0.48 z"
         id="path36235" />
      <path
         style="clip-rule:evenodd;fill:#2e3030;fill-rule:evenodd"
         d="m 72.24,119.28 c 1.075,-0.035 2.054,0.026 2.64,0.48 -0.16,0 -0.32,0 -0.48,0 -0.898,0.018 -1.659,-0.101 -2.16,-0.48 z"
         id="path36237" />
      <path
         style="clip-rule:evenodd;fill:#606162;fill-rule:evenodd"
         d="m 194.641,119.28 c 1.415,0.104 3.027,0.012 3.84,0.72 -1.354,-0.085 -2.585,-0.295 -3.84,-0.48 0,-0.08 0,-0.16 0,-0.24 z"
         id="path36239" />
      <path
         style="clip-rule:evenodd;fill:#606162;fill-rule:evenodd"
         d="m 42,120.721 c 1.419,-1.061 3.636,-1.324 5.76,-1.681 0.24,0 0.48,0 0.72,0 -2.096,0.624 -4.399,1.041 -6.48,1.681 z"
         id="path36241" />
      <path
         style="clip-rule:evenodd;fill:#606162;fill-rule:evenodd"
         d="m 74.88,119.76 c 0.969,0.231 2.2,0.2 2.64,0.96 -1.06,-0.301 -2.238,-0.482 -3.12,-0.96 0.16,0 0.32,0 0.48,0 z"
         id="path36243" />
      <path
         style="clip-rule:evenodd;fill:#2e3030;fill-rule:evenodd"
         d="m 198.96,120 c 1.716,0.045 3.426,0.095 4.32,0.96 -1.445,-0.314 -3.078,-0.441 -4.32,-0.96 z"
         id="path36245" />
      <path
         style="clip-rule:evenodd;fill:#2e3030;fill-rule:evenodd"
         d="m 174,120.96 c 1.977,-0.663 4.066,-1.213 6.721,-1.2 -1.946,0.534 -4.115,0.845 -6.24,1.2 -0.161,0 -0.321,0 -0.481,0 z"
         id="path36247" />
      <path
         style="clip-rule:evenodd;fill:#606162;fill-rule:evenodd"
         d="m 172.08,121.681 c 0.272,-0.608 1.064,-0.696 1.92,-0.721 0.16,0 0.32,0 0.48,0 -0.68,0.359 -1.488,0.593 -2.4,0.721 z"
         id="path36249" />
      <path
         style="clip-rule:evenodd;fill:#606162;fill-rule:evenodd"
         d="m 204.48,121.2 c 0.865,0.095 2.009,-0.089 2.16,0.72 -0.698,-0.262 -1.695,-0.225 -2.16,-0.72 z"
         id="path36251" />
      <path
         style="clip-rule:evenodd;fill:#2e3030;fill-rule:evenodd"
         d="m 78.48,120.96 c 0.99,0.131 2.105,0.136 2.4,0.96 -0.819,-0.301 -1.724,-0.516 -2.4,-0.96 z"
         id="path36253" />
      <path
         style="clip-rule:evenodd;fill:#606162;fill-rule:evenodd"
         d="m 206.881,121.92 c 0.832,0.048 1.845,-0.085 1.92,0.721 -0.764,-0.037 -1.057,-0.545 -1.92,-0.48 0,-0.081 0,-0.161 0,-0.241 z"
         id="path36255" />
      <path
         style="clip-rule:evenodd;fill:#2e3030;fill-rule:evenodd"
         d="m 210.96,123.36 c 1.281,-0.001 1.943,0.617 2.881,0.96 0,0.08 0,0.16 0,0.24 -1.116,-0.245 -2.003,-0.717 -2.881,-1.2 z"
         id="path36257" />
      <path
         style="clip-rule:evenodd;fill:#080a0b;fill-rule:evenodd"
         d="m 213.841,124.561 c 1.151,0.928 2.818,1.341 4.079,2.16 0.51,0.37 1.07,0.69 1.681,0.96 0.08,0 0.16,0 0.24,0 2.026,1.653 4.331,3.028 6.479,4.56 2.05,2.351 5.052,3.749 6.72,6.48 2.605,2.755 4.765,5.955 6.96,9.119 0.899,1.821 1.869,3.572 2.881,5.28 0.288,1.312 0.906,2.294 1.439,3.36 0.054,0.187 0.007,0.474 0.24,0.479 0.533,2.026 1.223,3.897 1.92,5.761 0,0.08 0,0.159 0,0.239 0.173,0.947 0.298,1.942 0.72,2.641 0.373,2.827 0.899,5.5 1.2,8.399 0.458,6.249 -0.166,12.34 -1.2,17.761 0,0.08 0,0.159 0,0.239 -0.422,0.698 -0.547,1.693 -0.72,2.641 0,0.08 0,0.16 0,0.24 -0.495,0.464 -0.458,1.462 -0.72,2.159 -0.076,0.325 -0.342,0.459 -0.24,0.96 -0.756,1.805 -1.594,3.526 -2.16,5.521 -0.929,1.151 -1.341,2.818 -2.16,4.08 -0.37,0.51 -0.69,1.069 -0.96,1.68 -0.383,0.657 -0.896,1.185 -1.2,1.92 0.175,0.655 -0.477,0.483 -0.479,0.96 -1.904,2.256 -3.655,4.665 -5.521,6.96 -1.38,1.18 -2.66,2.46 -3.84,3.84 -0.72,0.48 -1.499,0.901 -1.92,1.681 -0.478,0.242 -1.025,0.415 -1.2,0.96 -0.815,0.464 -1.636,0.924 -2.159,1.68 -0.08,0 -0.16,0 -0.24,0 -1.742,1.139 -3.406,2.354 -5.28,3.36 -1.235,0.604 -2.313,1.366 -3.6,1.92 -1.094,0.426 -2.149,0.891 -3.12,1.439 -1.645,0.516 -3.199,1.122 -4.8,1.681 -0.698,0.262 -1.695,0.225 -2.16,0.72 -0.78,0.021 -1.477,0.124 -1.92,0.48 -0.898,-0.018 -1.659,0.101 -2.16,0.479 -1.106,0.014 -2.129,0.111 -2.88,0.48 -1.897,0.183 -4.132,0.028 -5.521,0.72 -2.16,0 -4.32,0 -6.479,0 -3.3,-0.781 -7.158,-1.003 -10.561,-1.68 -0.359,-0.041 -0.886,0.085 -0.96,-0.24 -0.979,-0.461 -2.115,-0.765 -3.36,-0.96 -0.282,-0.038 -0.681,0.041 -0.72,-0.24 -1.769,-0.791 -3.61,-1.509 -5.52,-2.16 -2.575,-1.345 -5.077,-2.764 -7.681,-4.08 -0.558,-0.642 -1.274,-1.124 -2.159,-1.439 -0.474,-0.647 -1.093,-1.148 -1.921,-1.44 -0.612,-0.827 -1.748,-1.131 -2.399,-1.92 -0.572,-0.948 -1.55,-1.49 -2.4,-2.16 -0.699,-0.9 -1.499,-1.7 -2.399,-2.399 -0.664,-1.097 -1.633,-1.889 -2.4,-2.881 -0.594,-0.605 -0.944,-1.455 -1.68,-1.92 -0.141,-0.499 -0.505,-0.775 -0.721,-1.199 -1.299,-1.741 -2.513,-3.567 -3.6,-5.521 -1.711,-2.77 -2.904,-6.056 -4.32,-9.12 -0.542,-2.178 -1.216,-4.224 -1.92,-6.24 -1.472,-6.654 -1.924,-15.628 -0.96,-23.279 0.139,-0.422 -0.29,-1.41 0.24,-1.44 0.364,-0.596 0.463,-1.457 0.479,-2.4 0.412,-0.788 0.636,-1.765 0.721,-2.88 0.676,-1.004 0.369,-2.99 1.2,-3.84 0.42,-0.459 0.509,-1.251 0.72,-1.92 0.356,-0.203 0.347,-0.772 0.479,-1.2 0.48,-0.319 0.535,-1.065 0.721,-1.68 0.832,-1.327 1.508,-2.812 2.159,-4.32 0.762,-1.158 1.563,-2.277 2.16,-3.6 0.28,-0.36 0.693,-0.587 0.721,-1.2 0.937,-0.743 1.495,-1.864 2.159,-2.88 0.828,-0.612 1.132,-1.749 1.921,-2.4 4.49,-4.869 9.575,-9.145 15.359,-12.72 0.791,-0.089 1.199,-0.561 1.681,-0.96 2.916,-1.323 5.87,-2.609 8.88,-3.84 0.771,-0.269 1.423,-0.657 2.399,-0.72 0.912,-0.128 1.72,-0.361 2.4,-0.721 2.125,-0.354 4.294,-0.666 6.24,-1.2 0.673,-0.287 1.655,-0.264 2.64,-0.24 3.677,-0.305 7.604,-0.305 11.28,0 1.255,0.185 2.485,0.395 3.84,0.48 0.16,0 0.32,0 0.479,0 1.242,0.519 2.875,0.646 4.32,0.96 0.278,0.202 0.644,0.316 1.2,0.24 0.465,0.495 1.462,0.458 2.16,0.72 0.08,0 0.16,0 0.24,0 0,0.08 0,0.16 0,0.24 0.863,-0.064 1.156,0.443 1.92,0.48 0.674,0.285 1.38,0.54 2.159,0.72 0.881,0.482 1.768,0.954 2.884,1.2 z"
         id="path36259" />
      <path
         style="clip-rule:evenodd;fill:#606162;fill-rule:evenodd"
         d="m 3.36,158.16 c 0.224,-1.856 0.867,-3.293 1.68,-4.56 0,0.08 0,0.16 0,0.239 -0.457,1.544 -1.043,2.958 -1.68,4.321 z"
         id="path36261" />
      <path
         style="clip-rule:evenodd;fill:#2e3030;fill-rule:evenodd"
         d="m 133.44,157.2 c -0.211,0.669 -0.3,1.461 -0.72,1.92 0.024,-0.856 0.112,-1.647 0.72,-1.92 z"
         id="path36263" />
      <path
         style="clip-rule:evenodd;fill:#606162;fill-rule:evenodd"
         d="m 246.48,162.721 c -0.697,-1.863 -1.387,-3.734 -1.92,-5.761 0.751,0.852 1.662,3.616 1.92,5.761 z"
         id="path36265" />
      <path
         style="clip-rule:evenodd;fill:#606162;fill-rule:evenodd"
         d="m 118.32,166.561 c -0.546,-2.254 -1.044,-4.556 -1.68,-6.721 1.238,1.643 1.41,4.351 1.92,6.721 -0.08,0 -0.16,0 -0.24,0 z"
         id="path36267" />
      <path
         style="clip-rule:evenodd;fill:#2e3030;fill-rule:evenodd"
         d="m 131.521,162.96 c -0.085,1.115 -0.309,2.092 -0.721,2.88 -0.007,-1.207 0.119,-2.28 0.721,-2.88 z"
         id="path36269" />
      <path
         style="clip-rule:evenodd;fill:#2e3030;fill-rule:evenodd"
         d="m 247.2,165.601 c -0.422,-0.698 -0.547,-1.693 -0.72,-2.641 0.659,0.301 0.622,1.299 0.72,2.16 0,0.16 0,0.32 0,0.481 z"
         id="path36271" />
      <path
         style="clip-rule:evenodd;fill:#2e3030;fill-rule:evenodd"
         d="m 1.68,163.92 c -0.717,3.523 -0.919,7.562 -1.68,11.04 0,-0.399 0,-0.8 0,-1.199 0.604,-3.237 0.552,-7.128 1.68,-9.841 z"
         id="path36273" />
      <path
         style="clip-rule:evenodd;fill:#606162;fill-rule:evenodd"
         d="m 130.8,165.84 c -0.017,0.943 -0.115,1.805 -0.479,2.4 0.033,-0.926 -0.188,-2.107 0.479,-2.4 z"
         id="path36275" />
      <path
         style="clip-rule:evenodd;fill:#606162;fill-rule:evenodd"
         d="m 247.2,165.12 c 0.865,2.575 1.252,5.628 1.44,8.88 -0.08,0 -0.16,0 -0.24,0 -0.301,-2.899 -0.827,-5.572 -1.2,-8.399 0,-0.161 0,-0.321 0,-0.481 z"
         id="path36277" />
      <path
         style="clip-rule:evenodd;fill:#2e3030;fill-rule:evenodd"
         d="m 118.56,166.561 c 0.704,2.017 0.502,4.938 0.96,7.2 -0.027,3.092 0.128,6.368 -0.24,9.119 0,0.24 0,0.48 0,0.721 -0.08,0 -0.16,0 -0.24,0 0.543,-5.783 0.129,-11.933 -0.72,-17.04 0.08,0 0.16,0 0.24,0 z"
         id="path36279" />
      <path
         style="clip-rule:evenodd;fill:#606162;fill-rule:evenodd"
         d="m 248.881,174.721 c 0,0.88 0,1.76 0,2.64 -0.55,-0.411 -0.088,-1.832 -0.24,-2.64 0.08,0 0.16,0 0.24,0 z"
         id="path36281" />
      <path
         style="clip-rule:evenodd;fill:#d2d3d3;fill-rule:evenodd"
         d="m 119.28,182.88 c 0.368,-2.751 0.212,-6.027 0.24,-9.119 0.013,-0.859 0.139,-0.873 0.24,-0.24 0.296,1.854 0.111,7.751 -0.48,9.359 z"
         id="path36283" />
      <path
         style="clip-rule:evenodd;fill:#606162;fill-rule:evenodd"
         d="m 248.881,180.24 c 0,0.96 0,1.92 0,2.88 -0.08,0 -0.16,0 -0.24,0 0.153,-0.887 -0.311,-2.391 0.24,-2.88 z"
         id="path36285" />
      <path
         style="clip-rule:evenodd;fill:#2e3030;fill-rule:evenodd"
         d="m 130.08,169.681 c -0.964,7.651 -0.512,16.625 0.96,23.279 -1.043,-2.477 -1.066,-5.973 -1.68,-8.88 0,-0.64 0,-1.279 0,-1.92 0,-2.24 0,-4.479 0,-6.72 0,-0.64 0,-1.28 0,-1.92 0.527,-0.994 0.131,-2.909 0.72,-3.839 z"
         id="path36287" />
      <path
         style="clip-rule:evenodd;fill:#606162;fill-rule:evenodd"
         d="m 119.28,183.601 c -0.13,1.31 0.068,2.948 -0.72,3.6 0.11,-1.25 0.22,-2.5 0.48,-3.6 0.08,0 0.16,0 0.24,0 z"
         id="path36289" />
      <path
         style="clip-rule:evenodd;fill:#2e3030;fill-rule:evenodd"
         d="m 248.641,183.12 c -0.36,3 -0.211,6.51 -1.44,8.641 1.034,-5.421 1.658,-11.512 1.2,-17.761 0.08,0 0.16,0 0.24,0 0,0.24 0,0.48 0,0.721 0.152,0.808 -0.31,2.229 0.24,2.64 0,0.96 0,1.92 0,2.88 -0.551,0.488 -0.087,1.992 -0.24,2.879 z"
         id="path36291" />
      <path
         style="clip-rule:evenodd;fill:#2e3030;fill-rule:evenodd"
         d="m 118.56,187.681 c -0.021,1.738 -0.167,3.353 -0.96,4.319 0.315,-1.445 0.442,-3.078 0.96,-4.319 z"
         id="path36293" />
      <path
         style="clip-rule:evenodd;fill:#2e3030;fill-rule:evenodd"
         d="M 1.68,191.28 C 0.701,188.978 0.702,185.697 0,183.12 c 0,-0.96 0,-1.92 0,-2.88 0.761,3.479 0.963,7.517 1.68,11.04 z"
         id="path36295" />
      <path
         style="clip-rule:evenodd;fill:#2e3030;fill-rule:evenodd"
         d="m 247.2,192 c -0.026,1.094 -0.004,2.236 -0.72,2.641 0.173,-0.948 0.298,-1.943 0.72,-2.641 z"
         id="path36297" />
      <path
         style="clip-rule:evenodd;fill:#606162;fill-rule:evenodd"
         d="m 117.6,192.24 c 0.018,1.059 -0.017,2.063 -0.72,2.4 0.128,-0.911 0.361,-1.719 0.72,-2.4 z"
         id="path36299" />
      <path
         style="clip-rule:evenodd;fill:#606162;fill-rule:evenodd"
         d="m 246.48,194.881 c -0.095,0.865 0.089,2.008 -0.72,2.159 0.262,-0.697 0.225,-1.695 0.72,-2.159 z"
         id="path36301" />
      <path
         style="clip-rule:evenodd;fill:#606162;fill-rule:evenodd"
         d="m 132.96,199.2 c -1.101,-1.619 -1.552,-3.888 -1.92,-6.24 0.704,2.017 1.378,4.062 1.92,6.24 z"
         id="path36303" />
      <path
         style="clip-rule:evenodd;fill:#606162;fill-rule:evenodd"
         d="m 5.04,201.36 c -0.956,-1.045 -1.427,-2.573 -1.68,-4.32 0.637,1.363 1.223,2.778 1.68,4.32 z"
         id="path36305" />
      <path
         style="clip-rule:evenodd;fill:#606162;fill-rule:evenodd"
         d="m 116.16,197.04 c -0.165,1.675 -0.746,2.935 -1.44,4.08 -0.08,0 -0.16,0 -0.24,0 0.596,-1.324 1.019,-2.821 1.68,-4.08 z"
         id="path36307" />
      <path
         style="clip-rule:evenodd;fill:#606162;fill-rule:evenodd"
         d="m 245.521,198 c -0.253,2.228 -1.235,3.726 -1.92,5.521 -0.08,0 -0.16,0 -0.24,0 0.566,-1.995 1.404,-3.716 2.16,-5.521 z"
         id="path36309" />
      <path
         style="clip-rule:evenodd;fill:#2e3030;fill-rule:evenodd"
         d="m 85.44,231.601 c -0.453,0.427 -0.969,0.791 -1.92,0.72 0.32,-0.48 1.065,-0.534 1.68,-0.72 0.08,0 0.16,0 0.24,0 z"
         id="path36311" />
      <path
         style="clip-rule:evenodd;fill:#2e3030;fill-rule:evenodd"
         d="m 36,232.32 c 1.311,0.369 2.517,0.843 3.6,1.44 -1.507,-0.172 -2.764,-0.596 -3.6,-1.44 z"
         id="path36313" />
      <path
         style="clip-rule:evenodd;fill:#2e3030;fill-rule:evenodd"
         d="m 83.28,232.32 c -0.816,1.104 -2.449,1.392 -4.08,1.68 1.258,-0.661 2.756,-1.084 4.08,-1.68 z"
         id="path36315" />
      <path
         style="clip-rule:evenodd;fill:#606162;fill-rule:evenodd"
         d="m 214.801,232.801 c -0.837,0.603 -1.775,1.104 -3.12,1.199 0.971,-0.549 2.026,-1.014 3.12,-1.439 0,0.08 0,0.16 0,0.24 z"
         id="path36317" />
      <path
         style="clip-rule:evenodd;fill:#606162;fill-rule:evenodd"
         d="m 164.641,233.28 c 1.909,0.651 3.751,1.369 5.52,2.16 -2.285,-0.354 -4.078,-1.202 -5.76,-2.16 0.079,0 0.16,0 0.24,0 z"
         id="path36319" />
      <path
         style="clip-rule:evenodd;fill:#606162;fill-rule:evenodd"
         d="m 77.52,234.48 c -0.151,0.809 -1.294,0.625 -2.16,0.72 0.465,-0.495 1.462,-0.458 2.16,-0.72 z"
         id="path36321" />
      <path
         style="clip-rule:evenodd;fill:#2e3030;fill-rule:evenodd"
         d="m 74.16,235.44 c -0.705,0.815 -2.247,0.793 -3.6,0.96 -0.24,0 -0.48,0 -0.72,0 1.242,-0.518 2.875,-0.645 4.32,-0.96 z"
         id="path36323" />
      <path
         style="clip-rule:evenodd;fill:#606162;fill-rule:evenodd"
         d="m 170.88,235.681 c 1.245,0.195 2.382,0.499 3.36,0.96 -1.385,-0.055 -2.572,-0.308 -3.36,-0.96 z"
         id="path36325" />
      <path
         style="clip-rule:evenodd;fill:#606162;fill-rule:evenodd"
         d="m 206.881,235.681 c -0.151,0.809 -1.295,0.625 -2.16,0.72 0.465,-0.496 1.462,-0.459 2.16,-0.72 z"
         id="path36327" />
      <path
         style="clip-rule:evenodd;fill:#2e3030;fill-rule:evenodd"
         d="m 46.08,235.681 c 6.468,1.336 14.712,1.916 22.08,0.96 0.32,0 0.64,0 0.96,0 -1.255,0.745 -3.839,0.16 -5.28,0.72 -2.72,0 -5.44,0 -8.16,0 -3.133,-0.628 -7.001,-0.519 -9.6,-1.68 z"
         id="path36329" />
      <path
         style="clip-rule:evenodd;fill:#606162;fill-rule:evenodd"
         d="m 69.84,236.4 c 0.24,0 0.48,0 0.72,0 -0.03,0.53 -1.018,0.102 -1.44,0.24 -0.32,0 -0.64,0 -0.96,0 0.104,-0.536 1.183,-0.097 1.68,-0.24 z"
         id="path36331" />
      <path
         style="clip-rule:evenodd;fill:#2e3030;fill-rule:evenodd"
         d="m 202.801,236.881 c 1.112,0.131 -1.023,0.58 -1.681,0.479 -0.16,0 -0.319,0 -0.479,0 0.501,-0.379 1.261,-0.497 2.16,-0.479 z"
         id="path36333" />
      <path
         style="clip-rule:evenodd;fill:#2e3030;fill-rule:evenodd"
         d="m 175.2,236.881 c 3.402,0.677 7.261,0.898 10.561,1.68 -0.801,0 -1.601,0 -2.4,0 -2.455,-0.827 -5.912,-0.649 -8.161,-1.68 z"
         id="path36335" />
      <path
         style="clip-rule:evenodd;fill:#d2d3d3;fill-rule:evenodd"
         d="m 55.68,237.36 c 2.72,0 5.44,0 8.16,0 0.858,0.013 0.872,0.14 0.24,0.24 -1.779,0.283 -6.55,-0.21 -8.88,0 -0.386,-0.075 0.018,-0.341 0.48,-0.24 z"
         id="path36337" />
      <path
         style="clip-rule:evenodd;fill:#606162;fill-rule:evenodd"
         d="m 200.641,237.36 c 0.16,0 0.319,0 0.479,0 -0.656,0.384 -1.586,0.494 -2.64,0.48 -0.24,0 -0.48,0 -0.72,0 0.752,-0.368 1.774,-0.466 2.881,-0.48 z"
         id="path36339" />
      <path
         style="clip-rule:evenodd;fill:#2e3030;fill-rule:evenodd"
         d="m 198.48,237.841 c -0.931,0.589 -2.847,0.193 -3.84,0.72 -0.8,0 -1.601,0 -2.4,0 1.389,-0.691 3.623,-0.537 5.521,-0.72 0.239,0 0.479,0 0.719,0 z"
         id="path36341" />
      <path
         style="clip-rule:evenodd;fill:#2e3030;fill-rule:evenodd"
         d="m 185.521,119.04 c 2.869,0.011 5.861,-0.102 8.399,0.24 0.24,0 0.48,0 0.721,0 0,0.08 0,0.16 0,0.24 -3.677,-0.305 -7.604,-0.305 -11.28,0 0.182,-0.698 1.977,0.218 2.16,-0.48 z"
         id="path36343" />
    </g>
  </g>
</svg>
