<?xml version="1.0" encoding="UTF-8" standalone="no"?>
<svg
   xmlns:dc="http://purl.org/dc/elements/1.1/"
   xmlns:cc="http://creativecommons.org/ns#"
   xmlns:rdf="http://www.w3.org/1999/02/22-rdf-syntax-ns#"
   xmlns:svg="http://www.w3.org/2000/svg"
   xmlns="http://www.w3.org/2000/svg"
   id="svg8"
   version="1.1"
   viewBox="0 0 16.933333 16.933333"
   height="64"
   width="64">
  <title
     id="title9790">villa</title>
  <defs
     id="defs2" />
  <metadata
     id="metadata5">
    <rdf:RDF>
      <cc:Work
         rdf:about="">
        <dc:format>image/svg+xml</dc:format>
        <dc:type
           rdf:resource="http://purl.org/dc/dcmitype/StillImage" />
        <dc:title>villa</dc:title>
      </cc:Work>
    </rdf:RDF>
  </metadata>
  <g
     transform="translate(0,-280.06667)"
     id="layer1">
    <g
       transform="matrix(0.0353176,0,0,0.0353176,2.4273541,285.50179)"
       id="g41361">
      <path
         style="clip-rule:evenodd;fill:#e1e1e1;fill-rule:evenodd"
         d="m 162.48,0.279 c 0.885,-0.555 2.796,-0.083 4.08,-0.24 0,0.08 0,0.16 0,0.24 -0.88,0 -1.76,0 -2.64,0 -0.48,0 -0.96,0 -1.44,0 z"
         id="path41108" />
      <path
         style="clip-rule:evenodd;fill:#bababb;fill-rule:evenodd"
         d="m 166.56,0.279 c 0,-0.08 0,-0.16 0,-0.24 2.96,0 5.92,0 8.879,0 0,0.08 0,0.16 0,0.24 -2.959,0 -5.919,0 -8.879,0 z"
         id="path41110" />
      <path
         style="clip-rule:evenodd;fill:#e1e1e1;fill-rule:evenodd"
         d="m 175.439,0.279 c 0,-0.08 0,-0.16 0,-0.24 1.284,0.156 3.195,-0.315 4.08,0.24 -0.479,0 -0.96,0 -1.439,0 -0.88,0 -1.761,0 -2.641,0 z"
         id="path41112" />
      <path
         style="clip-rule:evenodd;fill:#e1e1e1;fill-rule:evenodd"
         d="m 159.36,0.52 c -2.185,-0.103 0.581,-0.365 1.44,-0.24 0,0.08 0,0.16 0,0.24 -0.48,0 -0.96,0 -1.44,0 z"
         id="path41114" />
      <path
         style="clip-rule:evenodd;fill:#bababb;fill-rule:evenodd"
         d="m 160.8,0.52 c 0,-0.08 0,-0.16 0,-0.24 0.56,0 1.12,0 1.68,0 0.48,0 0.96,0 1.44,0 0,0.08 0,0.16 0,0.24 -0.72,0 -1.44,0 -2.16,0 -0.32,0 -0.64,0 -0.96,0 z"
         id="path41116" />
      <path
         style="clip-rule:evenodd;fill:#bababb;fill-rule:evenodd"
         d="m 178.08,0.52 c 0,-0.08 0,-0.16 0,-0.24 0.479,0 0.96,0 1.439,0 0.561,0 1.12,0 1.681,0 0,0.08 0,0.16 0,0.24 -0.32,0 -0.641,0 -0.96,0 -0.72,0 -1.44,0 -2.16,0 z"
         id="path41118" />
      <path
         style="clip-rule:evenodd;fill:#474747;fill-rule:evenodd"
         d="m 159.36,0.759 c 0,-0.08 0,-0.16 0,-0.24 0.48,0 0.96,0 1.44,0 0.32,0 0.64,0 0.96,0 0,0.08 0,0.16 0,0.24 -0.48,0 -0.96,0 -1.44,0 -0.32,0 -0.64,0 -0.96,0 z"
         id="path41120" />
      <path
         style="clip-rule:evenodd;fill:#202020;fill-rule:evenodd"
         d="m 161.76,0.759 c 0,-0.08 0,-0.16 0,-0.24 0.72,0 1.44,0 2.16,0 0.48,0 0.96,0 1.44,0 -0.726,0.554 -2.476,0.085 -3.6,0.24 z"
         id="path41122" />
      <path
         style="clip-rule:evenodd;fill:#202020;fill-rule:evenodd"
         d="m 176.64,0.52 c 0.48,0 0.96,0 1.44,0 0.72,0 1.439,0 2.16,0 0,0.08 0,0.16 0,0.24 -1.125,-0.156 -2.874,0.313 -3.6,-0.24 z"
         id="path41124" />
      <path
         style="clip-rule:evenodd;fill:#474747;fill-rule:evenodd"
         d="m 180.24,0.759 c 0,-0.08 0,-0.16 0,-0.24 0.319,0 0.64,0 0.96,0 0.422,0.138 1.41,-0.29 1.439,0.24 -0.319,0 -0.64,0 -0.96,0 -0.479,0 -0.959,0 -1.439,0 z"
         id="path41126" />
      <path
         style="clip-rule:evenodd;fill:#e1e1e1;fill-rule:evenodd"
         d="m 92.88,18.279 c 1.408,-0.832 2.752,-1.728 4.56,-2.16 -1.306,0.854 -2.747,1.573 -4.32,2.16 -0.08,0 -0.16,0 -0.24,0 z"
         id="path41128" />
      <path
         style="clip-rule:evenodd;fill:#bababb;fill-rule:evenodd"
         d="m 53.04,45.399 c 0.315,-0.085 0.377,-0.422 0.72,-0.48 -0.657,1.023 -1.743,1.617 -2.4,2.64 -0.194,0.045 -0.239,0.241 -0.48,0.24 0.576,-0.944 1.584,-1.456 2.16,-2.4 z"
         id="path41130" />
      <path
         style="clip-rule:evenodd;fill:#e1e1e1;fill-rule:evenodd"
         d="m 50.4,48.04 c 0.779,-0.98 1.66,-1.86 2.64,-2.64 -0.576,0.944 -1.584,1.456 -2.16,2.4 -0.194,0.045 -0.239,0.24 -0.48,0.24 z"
         id="path41132" />
      <path
         style="clip-rule:evenodd;fill:#bababb;fill-rule:evenodd"
         d="m 44.64,53.799 c 1.82,-2.02 3.74,-3.94 5.76,-5.76 -1.82,2.021 -3.74,3.94 -5.76,5.76 z"
         id="path41134" />
      <path
         style="clip-rule:evenodd;fill:#e1e1e1;fill-rule:evenodd"
         d="m 42.24,56.199 c 0.7,-0.9 1.5,-1.7 2.4,-2.4 0,0.08 0,0.16 0,0.24 -0.944,0.577 -1.456,1.585 -2.4,2.16 z"
         id="path41136" />
      <path
         style="clip-rule:evenodd;fill:#bababb;fill-rule:evenodd"
         d="m 313.439,73.959 c 0.175,-0.655 -0.477,-0.483 -0.479,-0.96 0.996,0.684 1.401,1.958 2.16,2.88 -0.343,-0.058 -0.405,-0.395 -0.721,-0.48 -0.483,-0.316 -0.811,-0.788 -0.96,-1.44 z"
         id="path41138" />
      <path
         style="clip-rule:evenodd;fill:#e1e1e1;fill-rule:evenodd"
         d="m 300,56.439 c -0.944,-0.576 -1.456,-1.584 -2.4,-2.16 -0.045,-0.194 -0.24,-0.239 -0.24,-0.48 0.98,0.78 1.861,1.66 2.64,2.64 z"
         id="path41140" />
      <path
         style="clip-rule:evenodd;fill:#e1e1e1;fill-rule:evenodd"
         d="m 296.16,52.359 c -1.221,-1.02 -2.341,-2.14 -3.36,-3.36 1.221,1.02 2.34,2.14 3.36,3.36 z"
         id="path41142" />
      <path
         style="clip-rule:evenodd;fill:#bababb;fill-rule:evenodd"
         d="m 297.359,53.799 c -2.1,-1.9 -4.1,-3.9 -6,-6 0.632,0.249 0.809,0.952 1.44,1.2 1.02,1.22 2.14,2.34 3.36,3.36 0.249,0.632 0.952,0.809 1.2,1.44 z"
         id="path41144" />
      <path
         style="clip-rule:evenodd;fill:#e1e1e1;fill-rule:evenodd"
         d="m 290.88,47.56 c -0.495,-0.865 -1.425,-1.295 -1.92,-2.16 0.9,0.7 1.7,1.5 2.399,2.4 -0.194,-0.046 -0.239,-0.241 -0.479,-0.24 z"
         id="path41146" />
      <path
         style="clip-rule:evenodd;fill:#bababb;fill-rule:evenodd"
         d="m 290.399,47.319 c -0.656,-1.023 -1.743,-1.617 -2.399,-2.64 0.489,0.071 0.471,0.649 0.96,0.72 0.495,0.865 1.425,1.295 1.92,2.16 -0.194,-0.045 -0.239,-0.24 -0.481,-0.24 z"
         id="path41148" />
      <path
         style="clip-rule:evenodd;fill:#202020;fill-rule:evenodd"
         d="m 245.52,16.6 c 1.25,0.99 3.07,1.41 4.32,2.4 -2.29,-0.67 -4.109,-1.811 -6,-2.88 0.878,-0.159 0.921,0.519 1.68,0.48 z"
         id="path41150" />
      <path
         style="clip-rule:evenodd;fill:#202020;fill-rule:evenodd"
         d="m 255.359,21.879 c 0.846,0.274 1.713,0.527 2.16,1.2 -0.89,-0.15 -1.405,-0.675 -2.16,-0.96 0.001,-0.079 0,-0.16 0,-0.24 z"
         id="path41152" />
      <path
         style="clip-rule:evenodd;fill:#474747;fill-rule:evenodd"
         d="m 265.439,27.879 c 1.92,0.881 3.6,2.001 5.04,3.36 -1.84,-0.879 -3.18,-2.259 -5.04,-3.12 0,-0.079 0,-0.16 0,-0.24 z"
         id="path41154" />
      <path
         style="clip-rule:evenodd;fill:#474747;fill-rule:evenodd"
         d="m 271.2,31.719 c 0.752,0.208 1.325,0.595 1.68,1.2 -0.834,-0.046 -0.911,-0.849 -1.68,-0.96 0,-0.08 0,-0.16 0,-0.24 z"
         id="path41156" />
      <path
         style="clip-rule:evenodd;fill:#202020;fill-rule:evenodd"
         d="m 290.399,47.319 c 0.241,0 0.286,0.194 0.48,0.24 2.14,2.34 4.38,4.58 6.72,6.72 0.058,0.343 0.396,0.405 0.48,0.72 -2.659,-2.459 -5.22,-5.02 -7.68,-7.68 z"
         id="path41158" />
      <path
         style="clip-rule:evenodd;fill:#474747;fill-rule:evenodd"
         d="m 298.08,55 c 0.943,0.576 1.456,1.584 2.399,2.16 0.838,1.722 2.56,2.56 3.36,4.32 -2.055,-1.945 -3.707,-4.293 -5.76,-6.24 10e-4,-0.08 10e-4,-0.161 10e-4,-0.24 z"
         id="path41160" />
      <path
         style="clip-rule:evenodd;fill:#010101;fill-rule:evenodd"
         d="m 316.8,79 c 1.037,2.322 2.636,4.084 3.84,6.24 0.462,1.298 1.087,2.434 1.92,3.36 -0.039,0.279 0.053,0.427 0.24,0.48 0.274,0.845 0.527,1.712 1.2,2.16 0.826,2.054 1.786,3.974 2.88,5.76 0.199,1.32 0.842,2.198 1.44,3.12 0.054,0.985 0.508,1.571 0.96,2.16 0.995,1.165 0.827,3.492 1.92,4.56 1.771,5.108 3.527,10.232 5.279,15.36 -0.023,0.743 0.109,1.331 0.48,1.68 1.737,7.383 3.359,14.88 4.56,22.8 0,0.641 0,1.28 0,1.92 -113.684,0 -227.354,0 -341.04,0 0.908,-10.611 3.417,-19.622 5.76,-28.8 1.031,-2.489 1.91,-5.13 2.64,-7.92 1.169,-2.511 2.245,-5.114 3.12,-7.92 0.389,-0.41 0.727,-0.874 0.72,-1.68 0.452,-0.589 0.906,-1.175 0.96,-2.16 0.598,-0.922 1.241,-1.8 1.44,-3.12 0.934,-1.466 1.734,-3.066 2.4,-4.8 0.759,-0.601 1.08,-1.64 1.44,-2.64 0.322,-0.158 0.447,-0.513 0.48,-0.96 0.833,-0.926 1.458,-2.062 1.92,-3.36 0.899,-1.021 1.616,-2.224 2.16,-3.6 0.608,-0.432 0.902,-1.178 1.2,-1.92 0.484,-0.316 0.812,-0.788 0.96,-1.44 0.802,-0.798 1.443,-1.757 1.92,-2.88 0.484,-0.316 0.812,-0.788 0.96,-1.44 0.943,-0.977 1.756,-2.084 2.4,-3.36 1.227,-1.174 2.181,-2.619 3.12,-4.08 0.686,-0.594 1.318,-1.242 1.68,-2.16 0.954,-0.806 1.747,-1.773 2.4,-2.88 0.648,-0.393 1.142,-0.938 1.44,-1.68 0.708,-0.492 1.333,-1.066 1.68,-1.92 1.185,-0.815 1.978,-2.022 2.88,-3.12 2.5,-2.3 4.9,-4.7 7.2,-7.2 2.4,-2 4.739,-4.061 6.96,-6.24 3.116,-2.324 6.149,-4.73 9.12,-7.2 1.276,-0.644 2.384,-1.457 3.36,-2.4 0.411,0.011 0.622,-0.178 0.72,-0.48 1.635,-0.765 2.936,-1.864 4.32,-2.88 0.652,-0.148 1.124,-0.476 1.44,-0.96 0.742,-0.298 1.488,-0.592 1.92,-1.2 0.976,-0.304 1.785,-0.775 2.4,-1.44 0.697,-0.184 1.381,-0.379 1.68,-0.96 0.791,-0.089 1.199,-0.561 1.68,-0.96 0.696,-0.184 1.38,-0.379 1.68,-0.96 0.279,0.039 0.427,-0.053 0.48,-0.24 3.788,-1.732 7.504,-3.537 11.04,-5.52 0.279,0.039 0.427,-0.053 0.48,-0.24 1.481,-0.359 2.758,-0.922 3.84,-1.68 0.596,0.036 0.996,-0.124 1.2,-0.48 13.404,-5.235 27.813,-9.467 44.16,-11.76 1.371,-0.069 2.768,-0.112 3.84,-0.48 0.729,-0.15 2.067,0.307 2.4,-0.24 2.203,-0.037 4.372,-0.107 6.24,-0.48 0.48,0 0.96,0 1.44,0 1.125,-0.155 2.874,0.314 3.6,-0.24 3.76,0 7.52,0 11.28,0 0.727,0.554 2.476,0.084 3.601,0.24 0.479,0 0.96,0 1.439,0 16.434,1.167 30.921,4.28 44.4,8.4 0.038,0.281 0.438,0.202 0.72,0.24 4.153,1.687 8.427,3.253 12.72,4.8 0.411,0.39 0.874,0.727 1.681,0.72 0.588,0.452 1.174,0.906 2.159,0.96 0.007,0.233 0.294,0.187 0.48,0.24 1.891,1.069 3.71,2.21 6,2.88 0.893,0.547 1.681,1.199 2.88,1.44 0.447,0.672 1.314,0.925 2.16,1.2 0.007,0.233 0.294,0.186 0.479,0.24 0,0.08 0.001,0.16 0,0.24 0.755,0.285 1.271,0.81 2.16,0.96 2.496,1.744 5.216,3.264 7.92,4.8 0,0.08 0,0.16 0,0.24 1.86,0.86 3.2,2.24 5.04,3.12 0.105,0.295 0.308,0.493 0.721,0.48 0,0.08 0,0.16 0,0.24 0.769,0.111 0.846,0.914 1.68,0.96 1.805,1.555 3.726,2.994 5.76,4.32 0.653,0.787 1.472,1.409 2.4,1.92 0.774,0.825 1.602,1.598 2.64,2.16 2.122,2.118 4.408,4.072 6.72,6 2.46,2.66 5.021,5.22 7.681,7.68 0,0.08 0,0.16 0,0.24 2.053,1.947 3.705,4.295 5.76,6.24 1.001,1.479 2.073,2.886 3.36,4.08 0.361,0.918 0.993,1.566 1.68,2.16 0.935,1.706 2.138,3.142 3.36,4.56 0.199,0.76 0.699,1.22 1.199,1.68 0.148,0.652 0.477,1.124 0.96,1.44 0.608,1.392 1.513,2.487 2.401,3.6 z"
         id="path41162" />
      <path
         style="clip-rule:evenodd;fill:#474747;fill-rule:evenodd"
         d="m 324,91.239 c -0.673,-0.447 -0.926,-1.314 -1.2,-2.16 0.7,0.339 0.762,1.318 1.2,1.92 0,0.081 0,0.16 0,0.24 z"
         id="path41164" />
      <path
         style="clip-rule:evenodd;fill:#202020;fill-rule:evenodd"
         d="m 326.88,97 c 0.538,0.262 0.422,1.178 0.96,1.439 -0.039,0.76 0.638,0.803 0.48,1.681 -0.598,-0.922 -1.241,-1.8 -1.44,-3.12 z"
         id="path41166" />
      <path
         style="clip-rule:evenodd;fill:#474747;fill-rule:evenodd"
         d="m 328.32,100.12 c 0.451,0.588 0.905,1.174 0.96,2.16 -0.452,-0.589 -0.906,-1.175 -0.96,-2.16 z"
         id="path41168" />
      <path
         style="clip-rule:evenodd;fill:#474747;fill-rule:evenodd"
         d="m 12.72,102.28 c 0.054,-0.986 0.508,-1.572 0.96,-2.16 -0.054,0.985 -0.509,1.571 -0.96,2.16 z"
         id="path41170" />
      <path
         style="clip-rule:evenodd;fill:#202020;fill-rule:evenodd"
         d="m 14.4,97.959 c 0.494,-0.066 0.226,-0.895 0.72,-0.96 -0.199,1.32 -0.842,2.198 -1.44,3.12 -0.091,-1.05 0.686,-1.234 0.72,-2.16 z"
         id="path41172" />
      <path
         style="clip-rule:evenodd;fill:#474747;fill-rule:evenodd"
         d="m 17.52,92.199 c -0.037,-0.597 0.377,-0.743 0.48,-1.2 0.348,-0.452 0.353,-1.247 0.96,-1.44 -0.36,1 -0.681,2.039 -1.44,2.64 z"
         id="path41174" />
      <path
         style="clip-rule:evenodd;fill:#474747;fill-rule:evenodd"
         d="m 23.52,81.64 c 0.183,-0.857 0.619,-1.461 1.2,-1.92 -0.298,0.741 -0.592,1.488 -1.2,1.92 z"
         id="path41176" />
      <path
         style="clip-rule:evenodd;fill:#474747;fill-rule:evenodd"
         d="m 38.16,61 c 0.632,-0.249 0.809,-0.952 1.44,-1.2 -0.298,0.742 -0.792,1.288 -1.44,1.68 0,-0.161 0,-0.32 0,-0.48 z"
         id="path41178" />
      <path
         style="clip-rule:evenodd;fill:#202020;fill-rule:evenodd"
         d="m 39.6,59.799 c 0.347,-0.853 0.972,-1.428 1.68,-1.92 -0.347,0.854 -0.972,1.428 -1.68,1.92 z"
         id="path41180" />
      <path
         style="clip-rule:evenodd;fill:#474747;fill-rule:evenodd"
         d="m 41.52,57.16 c 1.023,-0.657 1.617,-1.744 2.64,-2.4 -0.902,1.098 -1.695,2.305 -2.88,3.12 0.045,-0.194 0.241,-0.239 0.24,-0.48 0,-0.081 0,-0.161 0,-0.24 z"
         id="path41182" />
      <path
         style="clip-rule:evenodd;fill:#202020;fill-rule:evenodd"
         d="m 44.16,54.759 c 0.058,-0.342 0.396,-0.405 0.48,-0.72 2.18,-1.98 4.26,-4.06 6.24,-6.24 0.241,10e-4 0.286,-0.194 0.48,-0.24 -2.3,2.501 -4.7,4.9 -7.2,7.2 z"
         id="path41184" />
      <path
         style="clip-rule:evenodd;fill:#474747;fill-rule:evenodd"
         d="m 67.44,34.12 c 0.932,-0.988 2.054,-1.787 3.36,-2.4 -0.976,0.943 -2.084,1.756 -3.36,2.4 z"
         id="path41186" />
      <path
         style="clip-rule:evenodd;fill:#202020;fill-rule:evenodd"
         d="m 81.6,24.759 c 0.3,-0.58 0.984,-0.776 1.68,-0.96 -0.3,0.581 -0.984,0.777 -1.68,0.96 z"
         id="path41188" />
      <path
         style="clip-rule:evenodd;fill:#202020;fill-rule:evenodd"
         d="m 84.96,22.839 c 0.299,-0.581 0.983,-0.776 1.68,-0.96 -0.3,0.581 -0.984,0.777 -1.68,0.96 z"
         id="path41190" />
      <path
         style="clip-rule:evenodd;fill:#202020;fill-rule:evenodd"
         d="m 88.56,20.679 c 1.492,-0.828 3.202,-1.438 4.56,-2.4 1.574,-0.586 3.014,-1.306 4.32,-2.16 0.24,0 0.48,0 0.72,0 -3.536,1.983 -7.252,3.788 -11.04,5.52 0.192,-0.607 0.988,-0.612 1.44,-0.96 z"
         id="path41192" />
      <path
         style="clip-rule:evenodd;fill:#474747;fill-rule:evenodd"
         d="m 98.64,15.879 c 1.082,-0.758 2.359,-1.321 3.84,-1.68 -1.082,0.759 -2.359,1.322 -3.84,1.68 z"
         id="path41194" />
      <path
         style="clip-rule:evenodd;fill:#474747;fill-rule:evenodd"
         d="m 241.2,14.919 c 0.985,0.054 1.571,0.508 2.159,0.96 -0.985,-0.054 -1.571,-0.508 -2.159,-0.96 z"
         id="path41196" />
      <path
         style="clip-rule:evenodd;fill:#bababb;fill-rule:evenodd"
         d="m 249.84,19 c -1.25,-0.99 -3.07,-1.41 -4.32,-2.4 2.749,1.251 5.572,2.428 7.92,4.08 -0.307,-0.013 -0.332,-0.308 -0.72,-0.24 -1.199,-0.242 -1.988,-0.893 -2.88,-1.44 z"
         id="path41198" />
      <path
         style="clip-rule:evenodd;fill:#bababb;fill-rule:evenodd"
         d="m 88.56,20.679 c 1.124,-1.116 2.93,-1.55 4.32,-2.4 0.08,0 0.16,0 0.24,0 -1.358,0.962 -3.068,1.573 -4.56,2.4 z"
         id="path41200" />
      <path
         style="clip-rule:evenodd;fill:#474747;fill-rule:evenodd"
         d="m 253.439,20.679 c 0.452,0.348 1.248,0.353 1.44,0.96 -0.846,-0.275 -1.713,-0.528 -2.16,-1.2 0.388,-0.067 0.414,0.228 0.72,0.24 z"
         id="path41202" />
      <path
         style="clip-rule:evenodd;fill:#474747;fill-rule:evenodd"
         d="m 77.28,27.399 c 0.459,-0.581 1.063,-1.017 1.92,-1.2 -0.432,0.609 -1.178,0.903 -1.92,1.2 z"
         id="path41204" />
      <path
         style="clip-rule:evenodd;fill:#474747;fill-rule:evenodd"
         d="m 71.52,31.239 c 1.201,-1.198 2.641,-2.159 4.32,-2.88 -1.384,1.016 -2.685,2.116 -4.32,2.88 z"
         id="path41206" />
      <path
         style="clip-rule:evenodd;fill:#474747;fill-rule:evenodd"
         d="m 278.64,37.239 c 1.029,0.411 1.803,1.077 2.4,1.92 -0.929,-0.511 -1.747,-1.133 -2.4,-1.92 z"
         id="path41208" />
      <path
         style="clip-rule:evenodd;fill:#474747;fill-rule:evenodd"
         d="m 283.68,41.319 c 1.732,0.827 2.588,2.533 4.32,3.36 0.656,1.023 1.743,1.617 2.399,2.64 -2.311,-1.927 -4.597,-3.882 -6.719,-6 z"
         id="path41210" />
      <path
         style="clip-rule:evenodd;fill:#474747;fill-rule:evenodd"
         d="m 51.36,47.56 c 0.657,-1.023 1.743,-1.617 2.4,-2.64 1.806,-0.914 2.736,-2.704 4.56,-3.6 -2.221,2.179 -4.56,4.239 -6.96,6.24 z"
         id="path41212" />
      <path
         style="clip-rule:evenodd;fill:#474747;fill-rule:evenodd"
         d="m 297.6,54.279 c -2.34,-2.14 -4.58,-4.38 -6.72,-6.72 0.24,-10e-4 0.285,0.194 0.479,0.24 1.9,2.1 3.9,4.1 6,6 0,0.241 0.196,0.286 0.241,0.48 z"
         id="path41214" />
      <path
         style="clip-rule:evenodd;fill:#474747;fill-rule:evenodd"
         d="m 50.4,48.04 c 0.241,0 0.286,-0.194 0.48,-0.24 -1.98,2.18 -4.06,4.26 -6.24,6.24 0,-0.08 0,-0.16 0,-0.24 2.02,-1.821 3.94,-3.74 5.76,-5.76 z"
         id="path41216" />
      <path
         style="clip-rule:evenodd;fill:#bababb;fill-rule:evenodd"
         d="m 42.24,56.199 c 0.944,-0.576 1.456,-1.583 2.4,-2.16 -0.084,0.315 -0.422,0.377 -0.48,0.72 -1.023,0.657 -1.617,1.743 -2.64,2.4 0.07,-0.489 0.649,-0.47 0.72,-0.96 z"
         id="path41218" />
      <path
         style="clip-rule:evenodd;fill:#bababb;fill-rule:evenodd"
         d="m 298.08,55 c -0.085,-0.315 -0.423,-0.377 -0.48,-0.72 0.944,0.576 1.456,1.584 2.4,2.16 0.085,0.315 0.423,0.377 0.479,0.72 -0.943,-0.577 -1.456,-1.584 -2.399,-2.16 z"
         id="path41220" />
      <path
         style="clip-rule:evenodd;fill:#bababb;fill-rule:evenodd"
         d="m 38.16,61 c 1.122,-1.198 2.007,-2.633 3.36,-3.6 0,0.241 -0.195,0.286 -0.24,0.48 -0.708,0.492 -1.333,1.067 -1.68,1.92 -0.632,0.248 -0.808,0.951 -1.44,1.2 z"
         id="path41222" />
      <path
         style="clip-rule:evenodd;fill:#474747;fill-rule:evenodd"
         d="m 34.08,66.52 c 0.357,-0.923 0.924,-1.635 1.68,-2.16 -0.362,0.918 -0.994,1.566 -1.68,2.16 z"
         id="path41224" />
      <path
         style="clip-rule:evenodd;fill:#474747;fill-rule:evenodd"
         d="m 308.88,67.719 c -0.687,-0.594 -1.318,-1.241 -1.68,-2.16 0.755,0.525 1.322,1.237 1.68,2.16 z"
         id="path41226" />
      <path
         style="clip-rule:evenodd;fill:#474747;fill-rule:evenodd"
         d="m 28.56,73.959 c 0.613,-1.306 1.412,-2.428 2.4,-3.36 -0.644,1.276 -1.457,2.384 -2.4,3.36 z"
         id="path41228" />
      <path
         style="clip-rule:evenodd;fill:#474747;fill-rule:evenodd"
         d="m 313.439,73.959 c -0.5,-0.46 -1,-0.92 -1.199,-1.68 0.346,0.134 0.585,0.375 0.72,0.72 0.003,0.477 0.654,0.306 0.479,0.96 z"
         id="path41230" />
      <path
         style="clip-rule:evenodd;fill:#474747;fill-rule:evenodd"
         d="m 25.68,78.279 c 0.403,-1.197 1.043,-2.156 1.92,-2.88 -0.477,1.123 -1.119,2.082 -1.92,2.88 z"
         id="path41232" />
      <path
         style="clip-rule:evenodd;fill:#474747;fill-rule:evenodd"
         d="m 316.8,79 c -0.888,-1.113 -1.793,-2.207 -2.4,-3.6 0.315,0.085 0.378,0.422 0.721,0.48 0.319,1.279 1.434,1.765 1.679,3.12 z"
         id="path41234" />
      <path
         style="clip-rule:evenodd;fill:#474747;fill-rule:evenodd"
         d="m 19.44,88.6 c 0.462,-1.298 1.086,-2.434 1.92,-3.36 -0.462,1.298 -1.087,2.433 -1.92,3.36 z"
         id="path41236" />
      <path
         style="clip-rule:evenodd;fill:#474747;fill-rule:evenodd"
         d="m 322.56,88.6 c -0.833,-0.926 -1.458,-2.062 -1.92,-3.36 0.834,0.926 1.458,2.061 1.92,3.36 z"
         id="path41238" />
      <path
         style="clip-rule:evenodd;fill:#bababb;fill-rule:evenodd"
         d="m 14.4,97.959 c 1.091,-2.429 2.109,-4.931 3.6,-6.96 -0.103,0.457 -0.517,0.603 -0.48,1.2 -0.667,1.734 -1.466,3.334 -2.4,4.8 -0.494,0.066 -0.226,0.894 -0.72,0.96 z"
         id="path41240" />
      <path
         style="clip-rule:evenodd;fill:#bababb;fill-rule:evenodd"
         d="m 324,91.239 c 0,-0.08 0,-0.16 0,-0.24 1.571,2.188 2.668,4.852 3.84,7.439 -0.538,-0.262 -0.422,-1.178 -0.96,-1.439 -1.094,-1.786 -2.054,-3.706 -2.88,-5.76 z"
         id="path41242" />
      <path
         style="clip-rule:evenodd;fill:#474747;fill-rule:evenodd"
         d="m 8.88,111.879 c 0.813,-2.866 1.82,-5.54 3.12,-7.92 -0.875,2.806 -1.951,5.41 -3.12,7.92 z"
         id="path41244" />
      <path
         style="clip-rule:evenodd;fill:#bababb;fill-rule:evenodd"
         d="m 342,148.599 c -112.781,0.8 -228.968,0.8 -342,0 113.44,0.401 228.56,0.401 342,0 z"
         id="path41246" />
      <path
         style="clip-rule:evenodd;fill:#474747;fill-rule:evenodd"
         d="m 166.56,0.279 c 2.96,0 5.92,0 8.879,0 0.88,0 1.761,0 2.641,0 0,0.08 0,0.16 0,0.24 -0.48,0 -0.96,0 -1.44,0 -3.76,0 -7.52,0 -11.28,0 -0.48,0 -0.96,0 -1.44,0 0,-0.08 0,-0.16 0,-0.24 0.88,0 1.76,0 2.64,0 z"
         id="path41248" />
      <path
         style="clip-rule:evenodd;fill:#e1e1e1;fill-rule:evenodd"
         d="m 182.64,0.759 c -0.029,-0.53 -1.018,-0.102 -1.439,-0.24 0,-0.08 0,-0.16 0,-0.24 1.383,-0.023 2.754,-0.034 3.6,0.48 -0.721,0 -1.442,0 -2.161,0 z"
         id="path41250" />
      <path
         style="clip-rule:evenodd;fill:#202020;fill-rule:evenodd"
         d="m 182.64,0.759 c 0.72,0 1.44,0 2.16,0 15.226,1.334 29.082,4.038 41.28,8.4 -13.479,-4.121 -27.967,-7.233 -44.4,-8.4 0.32,0 0.64,0 0.96,0 z"
         id="path41252" />
      <path
         style="clip-rule:evenodd;fill:#202020;fill-rule:evenodd"
         d="m 153.36,1.239 c 1.768,-0.392 3.833,-0.487 6,-0.48 0.32,0 0.64,0 0.96,0 -1.868,0.373 -4.037,0.443 -6.24,0.48 -0.24,0 -0.48,0 -0.72,0 z"
         id="path41254" />
      <path
         style="clip-rule:evenodd;fill:#474747;fill-rule:evenodd"
         d="m 151.2,1.479 c 0.255,-0.545 1.509,-0.091 2.16,-0.24 0.24,0 0.48,0 0.72,0 -0.333,0.547 -1.671,0.09 -2.4,0.24 -0.16,0 -0.32,0 -0.48,0 z"
         id="path41256" />
      <path
         style="clip-rule:evenodd;fill:#202020;fill-rule:evenodd"
         d="m 147.36,1.959 c 1.031,-0.409 2.377,-0.503 3.84,-0.48 0.16,0 0.32,0 0.48,0 -1.072,0.368 -2.469,0.411 -3.84,0.48 -0.16,0 -0.32,0 -0.48,0 z"
         id="path41258" />
      <path
         style="clip-rule:evenodd;fill:#474747;fill-rule:evenodd"
         d="m 103.68,13.719 c 12.877,-5.603 27.208,-9.752 43.68,-11.76 0.16,0 0.32,0 0.48,0 -16.347,2.293 -30.756,6.525 -44.16,11.76 z"
         id="path41260" />
      <path
         style="clip-rule:evenodd;fill:#474747;fill-rule:evenodd"
         d="m 226.8,9.399 c 4.547,1.292 8.816,2.864 12.72,4.8 -4.293,-1.547 -8.567,-3.113 -12.72,-4.8 z"
         id="path41262" />
      <path
         style="clip-rule:evenodd;fill:#202020;fill-rule:evenodd"
         d="m 6.24,119.799 c 0.631,-2.89 1.51,-5.529 2.64,-7.92 -0.73,2.79 -1.609,5.431 -2.64,7.92 z"
         id="path41264" />
      <path
         style="clip-rule:evenodd;fill:#474747;fill-rule:evenodd"
         d="m 331.2,106.839 c 2.151,4.729 3.936,9.824 5.279,15.36 -1.751,-5.127 -3.507,-10.251 -5.279,-15.36 z"
         id="path41266" />
      <path
         style="clip-rule:evenodd;fill:#474747;fill-rule:evenodd"
         d="m 0,148.599 c 1.459,-10.221 3.2,-20.159 6.24,-28.8 -2.342,9.178 -4.852,18.188 -5.76,28.8 113.686,0 227.356,0 341.04,0 0,-0.64 0,-1.279 0,-1.92 0,-0.16 0,-0.319 0,-0.479 0.525,0.435 0.041,1.879 0.48,2.399 C 228.56,149 113.44,149 0,148.599 Z"
         id="path41268" />
      <path
         style="clip-rule:evenodd;fill:#202020;fill-rule:evenodd"
         d="m 336.96,123.879 c 2.126,6.834 3.663,14.257 4.56,22.32 0,0.16 0,0.319 0,0.479 -1.201,-7.919 -2.823,-15.416 -4.56,-22.799 z"
         id="path41270" />
    </g>
  </g>
</svg>
