<?xml version="1.0" encoding="UTF-8" standalone="no"?>
<svg
   xmlns:dc="http://purl.org/dc/elements/1.1/"
   xmlns:cc="http://creativecommons.org/ns#"
   xmlns:rdf="http://www.w3.org/1999/02/22-rdf-syntax-ns#"
   xmlns:svg="http://www.w3.org/2000/svg"
   xmlns="http://www.w3.org/2000/svg"
   id="svg8"
   version="1.1"
   viewBox="0 0 16.933333 16.933333"
   height="64"
   width="64">
  <title
     id="title9790">windmill</title>
  <defs
     id="defs2" />
  <metadata
     id="metadata5">
    <rdf:RDF>
      <cc:Work
         rdf:about="">
        <dc:format>image/svg+xml</dc:format>
        <dc:type
           rdf:resource="http://purl.org/dc/dcmitype/StillImage" />
        <dc:title>windmill</dc:title>
      </cc:Work>
    </rdf:RDF>
  </metadata>
  <g
     transform="translate(0,-280.06667)"
     id="layer1">
    <g
       transform="matrix(0.0264882,0,0,0.0264882,2.4750191,281.81892)"
       id="g48620">
      <path
         style="clip-rule:evenodd;fill:#f3f3f3;fill-rule:evenodd"
         d="M 60,7.2 C 61.1,5.9 62.3,4.7 63.6,3.6 62.5,4.9 61.3,6.1 60,7.2 Z"
         id="path48154" />
      <path
         style="clip-rule:evenodd;fill:#f3f3f3;fill-rule:evenodd"
         d="m 56.16,10.8 c 1.1,-1.3 2.3,-2.5 3.6,-3.6 -1.1,1.3 -2.3,2.5 -3.6,3.6 z"
         id="path48156" />
      <path
         style="clip-rule:evenodd;fill:#f3f3f3;fill-rule:evenodd"
         d="m 52.56,14.16 c 1.02,-1.22 2.14,-2.34 3.36,-3.36 -1.02,1.221 -2.14,2.34 -3.36,3.36 z"
         id="path48158" />
      <path
         style="clip-rule:evenodd;fill:#f3f3f3;fill-rule:evenodd"
         d="m 48.72,17.76 c 1.1,-1.3 2.3,-2.5 3.6,-3.6 -1.1,1.3 -2.299,2.5 -3.6,3.6 z"
         id="path48160" />
      <path
         style="clip-rule:evenodd;fill:#f3f3f3;fill-rule:evenodd"
         d="m 45.12,21.12 c 1.02,-1.22 2.14,-2.34 3.36,-3.36 -1.02,1.22 -2.14,2.34 -3.36,3.36 z"
         id="path48162" />
      <path
         style="clip-rule:evenodd;fill:#f3f3f3;fill-rule:evenodd"
         d="m 41.28,24.72 c 1.1,-1.3 2.3,-2.5 3.6,-3.6 -1.1,1.3 -2.3,2.5 -3.6,3.6 z"
         id="path48164" />
      <path
         style="clip-rule:evenodd;fill:#f3f3f3;fill-rule:evenodd"
         d="m 37.44,28.32 c 1.1,-1.3 2.3,-2.5 3.6,-3.6 -1.1,1.301 -2.3,2.5 -3.6,3.6 z"
         id="path48166" />
      <path
         style="clip-rule:evenodd;fill:#f3f3f3;fill-rule:evenodd"
         d="m 33.84,31.68 c 1.02,-1.22 2.14,-2.34 3.36,-3.36 -1.02,1.221 -2.139,2.34 -3.36,3.36 z"
         id="path48168" />
      <path
         style="clip-rule:evenodd;fill:#f3f3f3;fill-rule:evenodd"
         d="m 30,35.28 c 1.1,-1.3 2.3,-2.5 3.6,-3.6 -1.1,1.3 -2.3,2.5 -3.6,3.6 z"
         id="path48170" />
      <path
         style="clip-rule:evenodd;fill:#f3f3f3;fill-rule:evenodd"
         d="m 26.4,38.64 c 1.02,-1.22 2.14,-2.34 3.36,-3.36 -1.02,1.22 -2.14,2.34 -3.36,3.36 z"
         id="path48172" />
      <path
         style="clip-rule:evenodd;fill:#f3f3f3;fill-rule:evenodd"
         d="m 22.56,42.24 c 1.1,-1.3 2.3,-2.5 3.6,-3.6 -1.1,1.3 -2.3,2.5 -3.6,3.6 z"
         id="path48174" />
      <path
         style="clip-rule:evenodd;fill:#f3f3f3;fill-rule:evenodd"
         d="m 18.96,45.6 c 1.02,-1.22 2.14,-2.34 3.36,-3.36 -1.02,1.22 -2.14,2.341 -3.36,3.36 z"
         id="path48176" />
      <path
         style="clip-rule:evenodd;fill:#f3f3f3;fill-rule:evenodd"
         d="m 15.12,49.2 c 1.1,-1.3 2.3,-2.5 3.6,-3.6 -1.1,1.3 -2.3,2.5 -3.6,3.6 z"
         id="path48178" />
      <path
         style="clip-rule:evenodd;fill:#f3f3f3;fill-rule:evenodd"
         d="m 11.28,52.8 c 1.1,-1.3 2.3,-2.5 3.6,-3.6 -1.1,1.3 -2.3,2.5 -3.6,3.6 z"
         id="path48180" />
      <path
         style="clip-rule:evenodd;fill:#f3f3f3;fill-rule:evenodd"
         d="M 7.68,56.16 C 8.7,54.94 9.82,53.82 11.04,52.8 10.021,54.021 8.9,55.141 7.68,56.16 Z"
         id="path48182" />
      <path
         style="clip-rule:evenodd;fill:#f3f3f3;fill-rule:evenodd"
         d="m 3.84,59.76 c 1.1,-1.3 2.3,-2.5 3.6,-3.6 -1.1,1.3 -2.3,2.5 -3.6,3.6 z"
         id="path48184" />
      <path
         style="clip-rule:evenodd;fill:#bbbbbb;fill-rule:evenodd"
         d="m 63.6,3.6 c 1.862,-1.338 3.578,-2.823 6,-3.6 0.32,0 0.64,0 0.96,0 C 65.341,1.656 61.962,5.32 58.08,9.12 42.449,24.42 25.781,39.196 9.6,54.72 5.371,58.777 1.469,60.899 0,66.72 0,66.4 0,66.08 0,65.76 c 0.958,-2.322 2.023,-4.537 3.84,-6 1.3,-1.1 2.5,-2.3 3.6,-3.6 0.08,0 0.16,0 0.24,0 1.22,-1.02 2.34,-2.14 3.36,-3.36 0.08,0 0.16,0 0.24,0 1.3,-1.1 2.5,-2.3 3.6,-3.6 0.08,0 0.16,0 0.24,0 1.3,-1.1 2.5,-2.3 3.6,-3.6 0.08,0 0.16,0 0.24,0 1.22,-1.02 2.34,-2.14 3.36,-3.36 0.08,0 0.16,0 0.24,0 1.3,-1.1 2.5,-2.3 3.6,-3.6 0.08,0 0.16,0 0.24,0 1.22,-1.02 2.34,-2.14 3.36,-3.36 0.08,0 0.16,0 0.24,0 1.3,-1.1 2.5,-2.3 3.6,-3.6 0.08,0 0.16,0 0.24,0 1.221,-1.02 2.34,-2.14 3.36,-3.36 0.08,0 0.16,0 0.24,0 1.3,-1.1 2.5,-2.3 3.6,-3.6 0.08,0 0.16,0 0.24,0 1.3,-1.1 2.5,-2.3 3.6,-3.6 0.08,0 0.16,0 0.24,0 1.22,-1.02 2.34,-2.14 3.36,-3.36 0.08,0 0.16,0 0.24,0 1.3,-1.1 2.5,-2.299 3.6,-3.6 0.08,0 0.16,0 0.24,0 1.22,-1.02 2.34,-2.14 3.36,-3.36 0.08,0 0.16,0 0.24,0 1.3,-1.1 2.5,-2.3 3.6,-3.6 0.08,0 0.16,0 0.24,0 1.3,-1.1 2.5,-2.3 3.6,-3.6 z"
         id="path48186" />
      <path
         style="clip-rule:evenodd;fill:#454545;fill-rule:evenodd"
         d="M 0,66.72 C 1.469,60.899 5.371,58.777 9.6,54.72 25.781,39.196 42.449,24.42 58.08,9.12 61.962,5.32 65.341,1.656 70.56,0 c 0.08,0 0.16,0 0.24,0 -2.552,1.128 -5.268,2.092 -6.96,4.08 -1.3,1.1 -2.5,2.3 -3.6,3.6 -0.08,0 -0.16,0 -0.24,0 -1.3,1.1 -2.5,2.3 -3.6,3.6 -0.08,0 -0.16,0 -0.24,0 -1.22,1.02 -2.34,2.14 -3.36,3.36 -0.08,0 -0.16,0 -0.24,0 -1.3,1.1 -2.5,2.3 -3.6,3.6 -0.08,0 -0.16,0 -0.24,0 -1.22,1.02 -2.34,2.14 -3.36,3.36 -0.08,0 -0.16,0 -0.24,0 -1.3,1.1 -2.5,2.3 -3.6,3.6 -0.08,0 -0.16,0 -0.24,0 -1.3,1.1 -2.5,2.3 -3.6,3.6 -0.08,0 -0.16,0 -0.24,0 -1.22,1.02 -2.34,2.14 -3.36,3.36 -0.08,0 -0.16,0 -0.24,0 -1.3,1.1 -2.5,2.3 -3.6,3.6 -0.08,0 -0.16,0 -0.24,0 -1.22,1.02 -2.34,2.14 -3.36,3.36 -0.08,0 -0.16,0 -0.24,0 -1.3,1.1 -2.5,2.3 -3.6,3.6 -0.08,0 -0.16,0 -0.24,0 -1.22,1.02 -2.34,2.14 -3.36,3.36 -0.08,0 -0.16,0 -0.24,0 -1.3,1.1 -2.5,2.3 -3.6,3.6 -0.08,0 -0.16,0 -0.24,0 -1.3,1.1 -2.5,2.3 -3.6,3.6 -0.08,0 -0.16,0 -0.24,0 -1.22,1.02 -2.34,2.14 -3.36,3.36 -0.08,0 -0.16,0 -0.24,0 -1.3,1.1 -2.5,2.3 -3.6,3.6 C 1.772,61.533 1.256,64.617 0,66.96 0,66.88 0,66.8 0,66.72 Z"
         id="path48188" />
      <path
         style="clip-rule:evenodd;fill:#0f0f0f;fill-rule:evenodd"
         d="m 388.081,3.6 c 1.3,1.1 2.5,2.3 3.6,3.6 -1.3,-1.1 -2.5,-2.3 -3.6,-3.6 z"
         id="path48190" />
      <path
         style="clip-rule:evenodd;fill:#0f0f0f;fill-rule:evenodd"
         d="m 391.921,7.2 c 1.22,1.02 2.34,2.14 3.36,3.36 -1.22,-1.02 -2.341,-2.14 -3.36,-3.36 z"
         id="path48192" />
      <path
         style="clip-rule:evenodd;fill:#0f0f0f;fill-rule:evenodd"
         d="m 395.521,10.56 c 1.301,1.1 2.501,2.3 3.601,3.6 -1.302,-1.1 -2.502,-2.3 -3.601,-3.6 z"
         id="path48194" />
      <path
         style="clip-rule:evenodd;fill:#0f0f0f;fill-rule:evenodd"
         d="m 399.36,14.16 c 1.301,1.1 2.501,2.3 3.601,3.6 -1.301,-1.1 -2.5,-2.3 -3.601,-3.6 z"
         id="path48196" />
      <path
         style="clip-rule:evenodd;fill:#0f0f0f;fill-rule:evenodd"
         d="m 403.201,17.76 c 1.22,1.02 2.34,2.14 3.359,3.36 -1.219,-1.02 -2.339,-2.14 -3.359,-3.36 z"
         id="path48198" />
      <path
         style="clip-rule:evenodd;fill:#0f0f0f;fill-rule:evenodd"
         d="m 406.801,21.12 c 1.3,1.1 2.5,2.3 3.6,3.6 -1.3,-1.1 -2.501,-2.3 -3.6,-3.6 z"
         id="path48200" />
      <path
         style="clip-rule:evenodd;fill:#0f0f0f;fill-rule:evenodd"
         d="m 410.641,24.72 c 1.221,1.02 2.341,2.14 3.36,3.36 -1.221,-1.019 -2.341,-2.14 -3.36,-3.36 z"
         id="path48202" />
      <path
         style="clip-rule:evenodd;fill:#0f0f0f;fill-rule:evenodd"
         d="m 414.241,28.08 c 1.3,1.1 2.5,2.3 3.6,3.6 -1.3,-1.1 -2.5,-2.3 -3.6,-3.6 z"
         id="path48204" />
      <path
         style="clip-rule:evenodd;fill:#0f0f0f;fill-rule:evenodd"
         d="m 418.081,31.68 c 1.22,1.02 2.34,2.14 3.359,3.36 -1.219,-1.019 -2.339,-2.14 -3.359,-3.36 z"
         id="path48206" />
      <path
         style="clip-rule:evenodd;fill:#0f0f0f;fill-rule:evenodd"
         d="m 421.681,35.04 c 1.301,1.1 2.5,2.3 3.601,3.6 -1.302,-1.1 -2.502,-2.3 -3.601,-3.6 z"
         id="path48208" />
      <path
         style="clip-rule:evenodd;fill:#0f0f0f;fill-rule:evenodd"
         d="m 425.521,38.64 c 1.301,1.1 2.501,2.3 3.601,3.6 -1.302,-1.1 -2.501,-2.3 -3.601,-3.6 z"
         id="path48210" />
      <path
         style="clip-rule:evenodd;fill:#0f0f0f;fill-rule:evenodd"
         d="m 429.361,42.24 c 1.22,1.02 2.34,2.14 3.359,3.36 -1.219,-1.019 -2.339,-2.14 -3.359,-3.36 z"
         id="path48212" />
      <path
         style="clip-rule:evenodd;fill:#0f0f0f;fill-rule:evenodd"
         d="m 432.961,45.6 c 1.3,1.1 2.5,2.3 3.6,3.6 -1.3,-1.1 -2.5,-2.3 -3.6,-3.6 z"
         id="path48214" />
      <path
         style="clip-rule:evenodd;fill:#0f0f0f;fill-rule:evenodd"
         d="m 436.801,49.2 c 1.221,1.02 2.34,2.14 3.36,3.36 -1.221,-1.019 -2.341,-2.14 -3.36,-3.36 z"
         id="path48216" />
      <path
         style="clip-rule:evenodd;fill:#0f0f0f;fill-rule:evenodd"
         d="m 440.4,52.56 c 1.301,1.1 2.501,2.3 3.601,3.6 -1.301,-1.099 -2.5,-2.3 -3.601,-3.6 z"
         id="path48218" />
      <path
         style="clip-rule:evenodd;fill:#0f0f0f;fill-rule:evenodd"
         d="m 444.241,56.16 c 1.22,1.02 2.34,2.14 3.359,3.36 -1.219,-1.02 -2.339,-2.14 -3.359,-3.36 z"
         id="path48220" />
      <path
         style="clip-rule:evenodd;fill:#0f0f0f;fill-rule:evenodd"
         d="m 447.361,384.241 c 0.9,0.699 1.7,1.499 2.399,2.399 -0.9,-0.699 -1.699,-1.498 -2.399,-2.399 z"
         id="path48222" />
      <path
         style="clip-rule:evenodd;fill:#0f0f0f;fill-rule:evenodd"
         d="m 446.161,405.36 c 1.1,-1.3 2.3,-2.5 3.6,-3.6 -1.1,1.301 -2.3,2.501 -3.6,3.6 z"
         id="path48224" />
      <path
         style="clip-rule:evenodd;fill:#0f0f0f;fill-rule:evenodd"
         d="m 442.321,408.961 c 1.1,-1.301 2.3,-2.5 3.6,-3.601 -1.1,1.301 -2.3,2.501 -3.6,3.601 z"
         id="path48226" />
      <path
         style="clip-rule:evenodd;fill:#0f0f0f;fill-rule:evenodd"
         d="m 438.721,412.32 c 1.02,-1.22 2.14,-2.34 3.36,-3.359 -1.019,1.22 -2.14,2.34 -3.36,3.359 z"
         id="path48228" />
      <path
         style="clip-rule:evenodd;fill:#0f0f0f;fill-rule:evenodd"
         d="m 434.881,415.921 c 1.1,-1.301 2.3,-2.5 3.6,-3.601 -1.1,1.301 -2.3,2.501 -3.6,3.601 z"
         id="path48230" />
      <path
         style="clip-rule:evenodd;fill:#0f0f0f;fill-rule:evenodd"
         d="m 431.041,419.521 c 1.1,-1.3 2.3,-2.5 3.6,-3.6 -1.1,1.3 -2.3,2.5 -3.6,3.6 z"
         id="path48232" />
      <path
         style="clip-rule:evenodd;fill:#0f0f0f;fill-rule:evenodd"
         d="m 427.44,422.881 c 1.021,-1.221 2.14,-2.34 3.36,-3.36 -1.019,1.22 -2.139,2.34 -3.36,3.36 z"
         id="path48234" />
      <path
         style="clip-rule:evenodd;fill:#0f0f0f;fill-rule:evenodd"
         d="m 423.601,426.48 c 1.1,-1.3 2.3,-2.5 3.601,-3.6 -1.1,1.301 -2.301,2.501 -3.601,3.6 z"
         id="path48236" />
      <path
         style="clip-rule:evenodd;fill:#0f0f0f;fill-rule:evenodd"
         d="m 420.001,429.841 c 1.02,-1.22 2.14,-2.34 3.36,-3.36 -1.02,1.22 -2.14,2.34 -3.36,3.36 z"
         id="path48238" />
      <path
         style="clip-rule:evenodd;fill:#0f0f0f;fill-rule:evenodd"
         d="m 416.161,433.44 c 1.1,-1.3 2.3,-2.5 3.6,-3.6 -1.1,1.301 -2.3,2.501 -3.6,3.6 z"
         id="path48240" />
      <path
         style="clip-rule:evenodd;fill:#0f0f0f;fill-rule:evenodd"
         d="m 412.32,437.041 c 1.101,-1.301 2.3,-2.5 3.601,-3.601 -1.1,1.301 -2.3,2.501 -3.601,3.601 z"
         id="path48242" />
      <path
         style="clip-rule:evenodd;fill:#0f0f0f;fill-rule:evenodd"
         d="m 408.721,440.4 c 1.02,-1.22 2.14,-2.34 3.36,-3.359 -1.019,1.22 -2.14,2.34 -3.36,3.359 z"
         id="path48244" />
      <path
         style="clip-rule:evenodd;fill:#0f0f0f;fill-rule:evenodd"
         d="m 404.881,444.001 c 1.1,-1.301 2.3,-2.5 3.6,-3.601 -1.1,1.301 -2.3,2.501 -3.6,3.601 z"
         id="path48246" />
      <path
         style="clip-rule:evenodd;fill:#0f0f0f;fill-rule:evenodd"
         d="m 401.281,447.361 c 1.02,-1.221 2.14,-2.341 3.359,-3.36 -1.019,1.22 -2.139,2.34 -3.359,3.36 z"
         id="path48248" />
      <path
         style="clip-rule:evenodd;fill:#0f0f0f;fill-rule:evenodd"
         d="m 397.44,450.961 c 1.101,-1.301 2.3,-2.5 3.601,-3.6 -1.1,1.3 -2.3,2.5 -3.601,3.6 z"
         id="path48250" />
      <path
         style="clip-rule:evenodd;fill:#0f0f0f;fill-rule:evenodd"
         d="m 393.841,454.321 c 1.02,-1.221 2.14,-2.341 3.36,-3.36 -1.02,1.22 -2.14,2.34 -3.36,3.36 z"
         id="path48252" />
      <path
         style="clip-rule:evenodd;fill:#0f0f0f;fill-rule:evenodd"
         d="m 390.001,457.921 c 1.1,-1.3 2.3,-2.5 3.6,-3.6 -1.1,1.3 -2.3,2.5 -3.6,3.6 z"
         id="path48254" />
      <path
         style="clip-rule:evenodd;fill:#0f0f0f;fill-rule:evenodd"
         d="m 387.121,460.561 c 0.779,-0.98 1.659,-1.86 2.64,-2.64 -0.78,0.98 -1.659,1.86 -2.64,2.64 z"
         id="path48256" />
      <path
         style="clip-rule:evenodd;fill:#0f0f0f;fill-rule:evenodd"
         d="m 80.4,460.801 c 0.699,-0.9 1.499,-1.7 2.4,-2.399 -0.699,0.9 -1.499,1.7 -2.4,2.399 z"
         id="path48258" />
      <path
         style="clip-rule:evenodd;fill:#0f0f0f;fill-rule:evenodd"
         d="m 65.04,460.321 c -1.06,-0.86 -2.021,-1.82 -2.88,-2.881 1.061,0.861 2.021,1.821 2.88,2.881 z"
         id="path48260" />
      <path
         style="clip-rule:evenodd;fill:#0f0f0f;fill-rule:evenodd"
         d="m 61.92,457.44 c -1.3,-1.1 -2.5,-2.3 -3.6,-3.6 1.3,1.1 2.5,2.301 3.6,3.6 z"
         id="path48262" />
      <path
         style="clip-rule:evenodd;fill:#0f0f0f;fill-rule:evenodd"
         d="m 58.08,453.841 c -1.22,-1.02 -2.34,-2.14 -3.36,-3.36 1.22,1.02 2.341,2.14 3.36,3.36 z"
         id="path48264" />
      <path
         style="clip-rule:evenodd;fill:#0f0f0f;fill-rule:evenodd"
         d="m 54.48,450.48 c -1.3,-1.1 -2.5,-2.3 -3.6,-3.6 1.3,1.1 2.5,2.301 3.6,3.6 z"
         id="path48266" />
      <path
         style="clip-rule:evenodd;fill:#0f0f0f;fill-rule:evenodd"
         d="m 50.64,446.881 c -1.3,-1.1 -2.5,-2.3 -3.6,-3.6 1.3,1.1 2.501,2.3 3.6,3.6 z"
         id="path48268" />
      <path
         style="clip-rule:evenodd;fill:#0f0f0f;fill-rule:evenodd"
         d="m 46.8,443.281 c -1.22,-1.021 -2.34,-2.141 -3.36,-3.36 1.22,1.019 2.34,2.14 3.36,3.36 z"
         id="path48270" />
      <path
         style="clip-rule:evenodd;fill:#0f0f0f;fill-rule:evenodd"
         d="m 43.2,439.921 c -1.3,-1.1 -2.5,-2.3 -3.6,-3.6 1.3,1.1 2.5,2.3 3.6,3.6 z"
         id="path48272" />
      <path
         style="clip-rule:evenodd;fill:#0f0f0f;fill-rule:evenodd"
         d="m 39.36,436.321 c -1.22,-1.021 -2.34,-2.141 -3.36,-3.36 1.22,1.019 2.34,2.14 3.36,3.36 z"
         id="path48274" />
      <path
         style="clip-rule:evenodd;fill:#0f0f0f;fill-rule:evenodd"
         d="m 35.76,432.961 c -1.3,-1.1 -2.5,-2.3 -3.6,-3.6 1.3,1.1 2.5,2.299 3.6,3.6 z"
         id="path48276" />
      <path
         style="clip-rule:evenodd;fill:#0f0f0f;fill-rule:evenodd"
         d="m 31.92,429.361 c -1.22,-1.021 -2.34,-2.141 -3.36,-3.36 1.22,1.02 2.34,2.14 3.36,3.36 z"
         id="path48278" />
      <path
         style="clip-rule:evenodd;fill:#0f0f0f;fill-rule:evenodd"
         d="m 28.32,426.001 c -1.3,-1.1 -2.5,-2.3 -3.6,-3.601 1.301,1.101 2.5,2.3 3.6,3.601 z"
         id="path48280" />
      <path
         style="clip-rule:evenodd;fill:#0f0f0f;fill-rule:evenodd"
         d="m 24.48,422.4 c -1.3,-1.1 -2.5,-2.3 -3.6,-3.6 1.3,1.1 2.5,2.301 3.6,3.6 z"
         id="path48282" />
      <path
         style="clip-rule:evenodd;fill:#0f0f0f;fill-rule:evenodd"
         d="m 20.64,418.801 c -1.22,-1.02 -2.34,-2.14 -3.36,-3.36 1.22,1.02 2.34,2.139 3.36,3.36 z"
         id="path48284" />
      <path
         style="clip-rule:evenodd;fill:#0f0f0f;fill-rule:evenodd"
         d="m 17.04,415.44 c -1.3,-1.1 -2.5,-2.3 -3.6,-3.6 1.3,1.1 2.5,2.301 3.6,3.6 z"
         id="path48286" />
      <path
         style="clip-rule:evenodd;fill:#0f0f0f;fill-rule:evenodd"
         d="m 13.2,411.841 c -1.22,-1.02 -2.34,-2.14 -3.36,-3.36 1.22,1.02 2.34,2.139 3.36,3.36 z"
         id="path48288" />
      <path
         style="clip-rule:evenodd;fill:#0f0f0f;fill-rule:evenodd"
         d="m 9.6,408.48 c -1.3,-1.1 -2.5,-2.3 -3.6,-3.6 1.3,1.1 2.5,2.301 3.6,3.6 z"
         id="path48290" />
      <path
         style="clip-rule:evenodd;fill:#0f0f0f;fill-rule:evenodd"
         d="m 5.76,404.881 c -1.14,-0.939 -2.18,-1.979 -3.12,-3.12 1.14,0.939 2.18,1.979 3.12,3.12 z"
         id="path48292" />
      <path
         style="clip-rule:evenodd;fill:#0f0f0f;fill-rule:evenodd"
         d="m 4.08,60.24 c 1.1,-1.3 2.3,-2.5 3.6,-3.6 -1.1,1.3 -2.3,2.5 -3.6,3.6 z"
         id="path48294" />
      <path
         style="clip-rule:evenodd;fill:#0f0f0f;fill-rule:evenodd"
         d="m 7.92,56.64 c 1.02,-1.22 2.14,-2.34 3.36,-3.36 -1.02,1.22 -2.14,2.34 -3.36,3.36 z"
         id="path48296" />
      <path
         style="clip-rule:evenodd;fill:#0f0f0f;fill-rule:evenodd"
         d="m 11.52,53.28 c 1.1,-1.3 2.3,-2.5 3.6,-3.6 -1.1,1.3 -2.3,2.5 -3.6,3.6 z"
         id="path48298" />
      <path
         style="clip-rule:evenodd;fill:#0f0f0f;fill-rule:evenodd"
         d="m 15.36,49.68 c 1.1,-1.3 2.3,-2.5 3.6,-3.6 -1.1,1.3 -2.3,2.5 -3.6,3.6 z"
         id="path48300" />
      <path
         style="clip-rule:evenodd;fill:#0f0f0f;fill-rule:evenodd"
         d="m 19.2,46.08 c 1.02,-1.22 2.14,-2.34 3.36,-3.36 -1.019,1.22 -2.14,2.341 -3.36,3.36 z"
         id="path48302" />
      <path
         style="clip-rule:evenodd;fill:#0f0f0f;fill-rule:evenodd"
         d="m 22.8,42.72 c 1.1,-1.3 2.3,-2.5 3.6,-3.6 -1.1,1.3 -2.3,2.5 -3.6,3.6 z"
         id="path48304" />
      <path
         style="clip-rule:evenodd;fill:#0f0f0f;fill-rule:evenodd"
         d="m 26.64,39.12 c 1.02,-1.22 2.14,-2.34 3.36,-3.36 -1.02,1.22 -2.14,2.341 -3.36,3.36 z"
         id="path48306" />
      <path
         style="clip-rule:evenodd;fill:#0f0f0f;fill-rule:evenodd"
         d="m 30.24,35.76 c 1.1,-1.3 2.3,-2.5 3.6,-3.6 -1.1,1.3 -2.3,2.5 -3.6,3.6 z"
         id="path48308" />
      <path
         style="clip-rule:evenodd;fill:#0f0f0f;fill-rule:evenodd"
         d="m 34.08,32.16 c 1.02,-1.22 2.14,-2.34 3.36,-3.36 -1.02,1.221 -2.14,2.34 -3.36,3.36 z"
         id="path48310" />
      <path
         style="clip-rule:evenodd;fill:#0f0f0f;fill-rule:evenodd"
         d="m 37.68,28.8 c 1.1,-1.3 2.3,-2.5 3.6,-3.6 -1.1,1.3 -2.3,2.5 -3.6,3.6 z"
         id="path48312" />
      <path
         style="clip-rule:evenodd;fill:#0f0f0f;fill-rule:evenodd"
         d="m 41.52,25.2 c 1.1,-1.3 2.3,-2.5 3.6,-3.6 -1.099,1.3 -2.3,2.5 -3.6,3.6 z"
         id="path48314" />
      <path
         style="clip-rule:evenodd;fill:#0f0f0f;fill-rule:evenodd"
         d="m 45.36,21.6 c 1.02,-1.22 2.14,-2.34 3.36,-3.36 -1.02,1.22 -2.139,2.34 -3.36,3.36 z"
         id="path48316" />
      <path
         style="clip-rule:evenodd;fill:#0f0f0f;fill-rule:evenodd"
         d="m 48.96,18.24 c 1.1,-1.3 2.3,-2.5 3.6,-3.6 -1.1,1.3 -2.3,2.5 -3.6,3.6 z"
         id="path48318" />
      <path
         style="clip-rule:evenodd;fill:#0f0f0f;fill-rule:evenodd"
         d="m 52.8,14.64 c 1.02,-1.22 2.14,-2.34 3.36,-3.36 -1.02,1.22 -2.139,2.34 -3.36,3.36 z"
         id="path48320" />
      <path
         style="clip-rule:evenodd;fill:#0f0f0f;fill-rule:evenodd"
         d="m 56.4,11.28 c 1.1,-1.3 2.3,-2.5 3.6,-3.6 -1.1,1.3 -2.3,2.5 -3.6,3.6 z"
         id="path48322" />
      <path
         style="clip-rule:evenodd;fill:#0f0f0f;fill-rule:evenodd"
         d="m 60.24,7.68 c 1.1,-1.3 2.3,-2.5 3.6,-3.6 -1.1,1.3 -2.299,2.5 -3.6,3.6 z"
         id="path48324" />
      <path
         style="clip-rule:evenodd;fill:#454545;fill-rule:evenodd"
         d="M 203.76,169.68 C 165.822,118.45 127.323,65.419 89.04,13.44 84.774,7.648 82.359,2.158 75.12,0 c 0.08,0 0.16,0 0.24,0 6.846,1.904 9.652,7.342 13.92,13.2 37.675,51.717 77.255,105.458 114.48,156.48 z"
         id="path48326" />
      <path
         style="clip-rule:evenodd;fill:#bbbbbb;fill-rule:evenodd"
         d="M 203.76,169.68 C 166.535,118.658 126.955,64.917 89.28,13.2 85.013,7.342 82.206,1.904 75.36,0 c 0.32,0 0.64,0 0.96,0 6.156,2.135 8.944,7.507 12.96,12.96 38.182,51.842 76.686,104.853 114.48,156.48 7.615,-4.385 14.995,-9.005 22.56,-13.44 7.686,4.074 14.548,8.972 21.84,13.44 37.628,-50.635 77.003,-104.277 114.961,-156.24 3.954,-5.414 6.651,-11.001 12.96,-13.2 0.319,0 0.64,0 0.96,0 -6.976,1.931 -9.692,7.661 -13.92,13.44 -17.705,24.203 -35.815,49.02 -53.521,72.96 -21.104,28.537 -40.925,56.565 -61.44,83.28 -7.07,-4.529 -14.205,-8.995 -21.359,-13.44 -7.976,4.105 -15.226,8.935 -22.8,13.44 -0.081,0 -0.161,0 -0.241,0 z"
         id="path48328" />
      <path
         style="clip-rule:evenodd;fill:#454545;fill-rule:evenodd"
         d="m 204,169.68 c 7.575,-4.505 14.825,-9.335 22.8,-13.44 7.154,4.445 14.289,8.911 21.359,13.44 20.516,-26.714 40.336,-54.743 61.44,-83.28 17.705,-23.941 35.815,-48.757 53.521,-72.96 4.228,-5.779 6.944,-11.509 13.92,-13.44 0.08,0 0.16,0 0.239,0 -6.982,2.102 -9.861,7.892 -14.159,13.68 -17.946,24.167 -35.83,48.94 -53.521,72.96 -15.603,21.185 -30.423,41.775 -45.84,62.88 -5.09,6.967 -10.141,13.865 -15.601,20.4 -7.182,-4.498 -14.18,-9.181 -21.6,-13.44 -7.763,4.155 -14.792,9.046 -22.558,13.2 z"
         id="path48330" />
      <path
         style="clip-rule:evenodd;fill:#454545;fill-rule:evenodd"
         d="m 388.081,3.6 c -1.542,-1.818 -4.245,-2.475 -6.48,-3.6 0.08,0 0.16,0 0.24,0 8.116,3.162 14.406,11.333 20.64,17.04 13.871,12.698 26.913,25.035 41.04,38.16 3.947,3.667 7.479,6.144 8.88,11.28 0,0.08 0,0.16 0,0.24 -1.328,-2.671 -2.161,-5.838 -4.8,-7.2 -1.02,-1.22 -2.14,-2.34 -3.359,-3.36 -0.08,0 -0.16,0 -0.24,0 -1.1,-1.3 -2.3,-2.5 -3.601,-3.6 -0.079,0 -0.159,0 -0.239,0 -1.021,-1.22 -2.14,-2.34 -3.36,-3.36 -0.08,0 -0.16,0 -0.24,0 -1.1,-1.3 -2.3,-2.5 -3.6,-3.6 -0.08,0 -0.16,0 -0.24,0 -1.02,-1.22 -2.14,-2.34 -3.359,-3.36 -0.08,0 -0.16,0 -0.24,0 -1.1,-1.3 -2.3,-2.5 -3.601,-3.6 -0.08,0 -0.16,0 -0.239,0 -1.101,-1.3 -2.3,-2.5 -3.601,-3.6 -0.08,0 -0.16,0 -0.24,0 -1.02,-1.22 -2.14,-2.34 -3.359,-3.36 -0.08,0 -0.16,0 -0.24,0 -1.1,-1.3 -2.3,-2.5 -3.6,-3.6 -0.08,0 -0.16,0 -0.24,0 -1.02,-1.22 -2.14,-2.34 -3.36,-3.36 -0.08,0 -0.16,0 -0.24,0 -1.1,-1.3 -2.3,-2.5 -3.6,-3.6 -0.08,0 -0.16,0 -0.24,0 -1.02,-1.22 -2.14,-2.34 -3.359,-3.36 -0.08,0 -0.16,0 -0.24,0 -1.1,-1.3 -2.3,-2.5 -3.601,-3.6 -0.08,0 -0.159,0 -0.239,0 -1.1,-1.3 -2.3,-2.5 -3.601,-3.6 -0.08,0 -0.16,0 -0.239,0 -1.021,-1.22 -2.141,-2.34 -3.36,-3.36 -0.08,0 -0.16,0 -0.24,0 -1.103,-1.3 -2.303,-2.5 -3.603,-3.6 z"
         id="path48332" />
      <path
         style="clip-rule:evenodd;fill:#bbbbbb;fill-rule:evenodd"
         d="M 452.4,66.48 C 450.999,61.344 447.467,58.867 443.52,55.2 429.393,42.075 416.351,29.738 402.48,17.04 396.247,11.333 389.957,3.162 381.84,0 c 0.32,0 0.64,0 0.96,0 2.124,0.756 3.843,1.917 5.52,3.12 1.101,1.3 2.3,2.5 3.601,3.6 0.08,0 0.16,0 0.24,0 1.02,1.22 2.14,2.34 3.359,3.36 0.08,0 0.16,0 0.24,0 1.1,1.3 2.3,2.5 3.6,3.6 0.08,0 0.16,0 0.24,0 1.1,1.3 2.3,2.5 3.601,3.6 0.079,0 0.16,0 0.239,0 1.021,1.22 2.14,2.34 3.36,3.36 0.08,0 0.16,0 0.24,0 1.1,1.3 2.3,2.5 3.6,3.6 0.08,0 0.16,0 0.24,0 1.02,1.22 2.14,2.34 3.36,3.36 0.079,0 0.16,0 0.239,0 1.101,1.3 2.3,2.5 3.601,3.6 0.08,0 0.16,0 0.24,0 1.02,1.22 2.14,2.34 3.359,3.36 0.08,0 0.16,0 0.24,0 1.1,1.3 2.3,2.5 3.6,3.6 0.08,0 0.16,0 0.24,0 1.1,1.3 2.3,2.5 3.601,3.6 0.079,0 0.159,0 0.239,0 1.021,1.22 2.14,2.34 3.36,3.36 0.08,0 0.16,0 0.24,0 1.1,1.3 2.3,2.5 3.6,3.6 0.08,0 0.16,0 0.24,0 1.02,1.22 2.14,2.34 3.359,3.36 0.08,0 0.16,0 0.24,0 1.1,1.3 2.3,2.5 3.601,3.6 0.079,0 0.16,0 0.239,0 1.021,1.22 2.141,2.34 3.36,3.36 2.094,1.586 3.477,3.883 4.56,6.48 0.002,0.32 0.002,0.64 0.002,0.96 z"
         id="path48334" />
      <path
         style="clip-rule:evenodd;fill:#f3f3f3;fill-rule:evenodd"
         d="m 447.841,59.04 c -1.22,-1.02 -2.34,-2.14 -3.36,-3.36 1.22,1.02 2.34,2.14 3.36,3.36 z"
         id="path48336" />
      <path
         style="clip-rule:evenodd;fill:#f3f3f3;fill-rule:evenodd"
         d="m 444.241,55.68 c -1.301,-1.1 -2.501,-2.3 -3.601,-3.6 1.301,1.1 2.501,2.3 3.601,3.6 z"
         id="path48338" />
      <path
         style="clip-rule:evenodd;fill:#f3f3f3;fill-rule:evenodd"
         d="m 440.4,52.08 c -1.22,-1.02 -2.34,-2.14 -3.359,-3.36 1.22,1.02 2.34,2.14 3.359,3.36 z"
         id="path48340" />
      <path
         style="clip-rule:evenodd;fill:#f3f3f3;fill-rule:evenodd"
         d="m 436.801,48.72 c -1.3,-1.1 -2.5,-2.3 -3.6,-3.6 1.3,1.1 2.5,2.3 3.6,3.6 z"
         id="path48342" />
      <path
         style="clip-rule:evenodd;fill:#f3f3f3;fill-rule:evenodd"
         d="m 432.961,45.12 c -1.221,-1.02 -2.34,-2.14 -3.36,-3.36 1.22,1.02 2.34,2.14 3.36,3.36 z"
         id="path48344" />
      <path
         style="clip-rule:evenodd;fill:#f3f3f3;fill-rule:evenodd"
         d="m 429.361,41.76 c -1.301,-1.1 -2.501,-2.3 -3.601,-3.6 1.302,1.1 2.501,2.3 3.601,3.6 z"
         id="path48346" />
      <path
         style="clip-rule:evenodd;fill:#f3f3f3;fill-rule:evenodd"
         d="m 425.521,38.16 c -1.3,-1.1 -2.5,-2.3 -3.6,-3.6 1.3,1.1 2.5,2.3 3.6,3.6 z"
         id="path48348" />
      <path
         style="clip-rule:evenodd;fill:#f3f3f3;fill-rule:evenodd"
         d="m 421.681,34.56 c -1.22,-1.02 -2.34,-2.14 -3.359,-3.36 1.219,1.02 2.339,2.14 3.359,3.36 z"
         id="path48350" />
      <path
         style="clip-rule:evenodd;fill:#f3f3f3;fill-rule:evenodd"
         d="m 418.081,31.2 c -1.301,-1.1 -2.5,-2.3 -3.601,-3.6 1.301,1.1 2.501,2.3 3.601,3.6 z"
         id="path48352" />
      <path
         style="clip-rule:evenodd;fill:#f3f3f3;fill-rule:evenodd"
         d="m 414.241,27.6 c -1.221,-1.02 -2.341,-2.14 -3.36,-3.36 1.221,1.02 2.34,2.14 3.36,3.36 z"
         id="path48354" />
      <path
         style="clip-rule:evenodd;fill:#f3f3f3;fill-rule:evenodd"
         d="m 410.641,24.24 c -1.3,-1.1 -2.5,-2.3 -3.6,-3.6 1.3,1.1 2.5,2.3 3.6,3.6 z"
         id="path48356" />
      <path
         style="clip-rule:evenodd;fill:#f3f3f3;fill-rule:evenodd"
         d="m 406.801,20.64 c -1.221,-1.02 -2.34,-2.14 -3.36,-3.36 1.22,1.02 2.34,2.14 3.36,3.36 z"
         id="path48358" />
      <path
         style="clip-rule:evenodd;fill:#f3f3f3;fill-rule:evenodd"
         d="m 403.201,17.28 c -1.301,-1.1 -2.501,-2.3 -3.601,-3.6 1.301,1.1 2.501,2.3 3.601,3.6 z"
         id="path48360" />
      <path
         style="clip-rule:evenodd;fill:#f3f3f3;fill-rule:evenodd"
         d="m 399.36,13.68 c -1.3,-1.1 -2.5,-2.3 -3.6,-3.6 1.301,1.1 2.501,2.3 3.6,3.6 z"
         id="path48362" />
      <path
         style="clip-rule:evenodd;fill:#f3f3f3;fill-rule:evenodd"
         d="m 395.521,10.08 c -1.22,-1.02 -2.34,-2.14 -3.359,-3.36 1.219,1.02 2.339,2.14 3.359,3.36 z"
         id="path48364" />
      <path
         style="clip-rule:evenodd;fill:#f3f3f3;fill-rule:evenodd"
         d="m 391.921,6.72 c -1.301,-1.1 -2.5,-2.3 -3.601,-3.6 1.301,1.1 2.501,2.3 3.601,3.6 z"
         id="path48366" />
      <path
         style="clip-rule:evenodd;fill:#454545;fill-rule:evenodd"
         d="m 0,71.52 c 0,-0.08 0,-0.16 0,-0.24 1.827,5.999 6.857,9.512 12,13.92 50.793,43.542 100.797,86.58 152.16,130.08 1.895,1.604 4.625,3.643 4.8,4.8 0.171,1.131 -0.795,4.69 -1.2,6.96 -0.885,4.959 -1.545,8.655 -2.4,13.68 -0.388,2.277 -0.498,4.934 -1.2,6.72 -0.974,2.479 -6.874,6.577 -9.84,9.12 -44.062,37.772 -87.337,74.988 -131.52,112.561 -3.101,2.637 -6.576,5.7 -10.08,8.64 -5.396,4.527 -10.608,7.471 -12.72,14.4 0,-0.08 0,-0.16 0,-0.24 1.841,-6.608 7.003,-9.707 12.24,-14.16 50.509,-42.949 101.663,-86.944 151.68,-129.84 0.886,-6.055 2.35,-13.874 3.6,-20.88 0.383,-2.146 1.427,-5.528 1.2,-6.96 -0.326,-2.06 -8.278,-7.809 -10.08,-9.36 C 109.93,168.796 61.414,127.389 12.48,85.441 7.338,81.032 1.734,78.148 0,71.52 Z"
         id="path48368" />
      <path
         style="clip-rule:evenodd;fill:#bbbbbb;fill-rule:evenodd"
         d="m 0,71.52 c 1.734,6.628 7.338,9.512 12.48,13.92 48.935,41.948 97.45,83.354 146.16,125.28 1.802,1.551 9.754,7.3 10.08,9.36 0.227,1.432 -0.817,4.813 -1.2,6.96 -1.25,7.006 -2.714,14.825 -3.6,20.88 C 113.903,290.816 62.749,334.811 12.24,377.76 7.003,382.213 1.841,385.312 0,391.92 c 0,-0.4 0,-0.8 0,-1.2 0.593,-1.567 1.42,-2.9 2.16,-4.32 0.9,-0.699 1.7,-1.499 2.4,-2.399 53.263,-45.137 106.101,-90.7 159.12,-136.081 0.933,-6.323 2.333,-13.778 3.6,-20.88 0.39,-2.187 1.438,-5.517 1.2,-6.96 -0.369,-2.244 -8.38,-7.697 -10.32,-9.36 C 109.11,168.673 60.69,127.407 11.52,85.2 6.886,81.223 1.902,77.833 0,72.48 0,72.16 0,71.84 0,71.52 Z"
         id="path48370" />
      <path
         style="clip-rule:evenodd;fill:#454545;fill-rule:evenodd"
         d="M 447.361,384.241 C 395.317,339.434 342.99,295.162 290.4,250.081 c -1.769,-1.517 -4.428,-3.715 -4.8,-4.56 -0.638,-1.446 -0.439,-4.079 -0.72,-6.24 -0.581,-4.472 -1.297,-7.201 -1.92,-12 -0.274,-2.109 -0.946,-5.134 -0.721,-6.24 0.444,-2.175 8.416,-7.721 10.32,-9.36 49.198,-42.345 97.509,-83.815 147.12,-126 5.375,-4.57 10.381,-7.561 12.72,-14.16 0,0.08 0,0.16 0,0.24 -1.848,6.547 -7.464,9.415 -12.72,13.92 -52.247,44.788 -105.438,90.389 -157.2,135.12 0.801,5.635 1.539,12.185 2.4,18.48 0.273,2.005 0.341,4.5 0.96,6 0.966,2.34 7.862,7.235 10.08,9.12 48.673,41.389 96.141,82.438 144.72,124.08 4.841,4.149 10.182,6.836 11.76,13.2 0,0.08 0,0.16 0,0.24 -1.033,-1.606 -1.271,-4.008 -2.64,-5.28 -0.697,-0.901 -1.497,-1.701 -2.398,-2.4 z"
         id="path48372" />
      <path
         style="clip-rule:evenodd;fill:#bbbbbb;fill-rule:evenodd"
         d="m 452.4,391.681 c -1.578,-6.364 -6.919,-9.051 -11.76,-13.2 -48.579,-41.643 -96.047,-82.691 -144.72,-124.08 -2.218,-1.885 -9.114,-6.78 -10.08,-9.12 -0.619,-1.5 -0.687,-3.995 -0.96,-6 -0.861,-6.295 -1.6,-12.845 -2.4,-18.48 51.763,-44.731 104.953,-90.333 157.2,-135.12 5.256,-4.505 10.872,-7.373 12.72,-13.92 0,0.32 0,0.64 0,0.96 -2.302,5.44 -7.218,8.895 -12.239,13.2 -52.297,44.83 -105.785,89.859 -157.44,134.88 0.396,3.82 1.085,7.971 1.68,12.24 0.553,3.962 0.392,8.603 1.68,12 1.009,2.656 6.86,6.586 9.841,9.12 50.34,42.806 101.669,87.352 151.68,129.6 0.78,0.98 1.66,1.86 2.641,2.64 0.814,1.346 1.526,2.794 2.159,4.32 -0.002,0.32 -0.002,0.639 -0.002,0.96 z"
         id="path48374" />
      <path
         style="clip-rule:evenodd;fill:#f3f3f3;fill-rule:evenodd"
         d="m 2.16,386.4 c 0.699,-0.9 1.5,-1.7 2.4,-2.399 -0.7,0.9 -1.499,1.7 -2.4,2.399 z"
         id="path48376" />
      <path
         style="clip-rule:evenodd;fill:#f3f3f3;fill-rule:evenodd"
         d="m 450.241,386.4 c -0.98,-0.779 -1.86,-1.659 -2.641,-2.64 0.981,0.78 1.861,1.66 2.641,2.64 z"
         id="path48378" />
      <path
         style="clip-rule:evenodd;fill:#454545;fill-rule:evenodd"
         d="m 319.2,516.961 c -0.685,-26.051 -4.388,-51.057 -7.439,-75.84 -3.044,-24.72 -6.328,-49.217 -9.601,-73.92 1.96,1.414 3.35,3.52 4.801,5.52 18.566,25.592 37.32,51.538 56.64,77.521 4.251,5.717 9.184,16.226 20.16,12.239 1.234,-0.448 2.092,-1.12 3.36,-1.92 0.98,-0.779 1.86,-1.659 2.64,-2.64 0.08,0 0.16,0 0.24,0 1.3,-1.1 2.5,-2.3 3.6,-3.6 0.08,-0.001 0.16,0 0.24,0 1.22,-1.021 2.34,-2.141 3.36,-3.36 0.079,0 0.159,0 0.239,0 1.301,-1.1 2.501,-2.3 3.601,-3.6 0.08,0 0.16,0 0.24,0 1.22,-1.021 2.34,-2.141 3.359,-3.36 0.08,0 0.16,0 0.24,0 1.3,-1.1 2.5,-2.3 3.6,-3.601 0.08,0 0.16,0 0.24,0 1.221,-1.02 2.341,-2.14 3.36,-3.359 0.08,0 0.16,0 0.239,0 1.301,-1.1 2.501,-2.3 3.601,-3.601 0.08,0 0.16,10e-4 0.24,0 1.3,-1.1 2.5,-2.3 3.6,-3.6 0.08,0 0.16,0 0.24,0 1.22,-1.02 2.34,-2.14 3.36,-3.36 0.079,0 0.159,0 0.239,0 1.301,-1.1 2.501,-2.3 3.601,-3.6 0.079,0 0.16,0 0.239,0 1.221,-1.02 2.341,-2.14 3.36,-3.36 0.08,0 0.16,0 0.24,0 1.3,-1.1 2.5,-2.3 3.6,-3.6 0.08,0 0.16,0 0.24,0 1.3,-1.1 2.5,-2.3 3.6,-3.601 0.08,0 0.16,0 0.24,0 1.221,-1.02 2.341,-2.14 3.36,-3.359 0.08,0 0.16,0 0.24,0 1.3,-1.1 2.5,-2.3 3.6,-3.601 0.08,0 0.16,0.001 0.24,0 1.3,-1.1 2.5,-2.3 3.6,-3.6 1.368,-1.271 1.606,-3.674 2.64,-5.28 0,0.08 0,0.16 0,0.24 -1.474,5.513 -5.573,8.318 -9.84,12.24 -16.779,15.424 -32.846,30.632 -49.92,46.56 -2.824,2.635 -5.698,6.086 -8.64,7.2 -11.118,4.212 -15.953,-6.393 -20.4,-12.479 -20.085,-27.495 -41.346,-56.116 -61.2,-82.801 3.353,24.683 6.559,49.134 9.601,73.921 3.024,24.654 6.803,49.648 7.439,75.6 -0.079,10e-4 -0.159,10e-4 -0.239,10e-4 z"
         id="path48380" />
      <path
         style="clip-rule:evenodd;fill:#bbbbbb;fill-rule:evenodd"
         d="m 319.44,516.961 c -0.637,-25.951 -4.415,-50.945 -7.439,-75.6 -3.042,-24.787 -6.248,-49.238 -9.601,-73.921 19.854,26.685 41.115,55.306 61.2,82.801 4.447,6.087 9.282,16.691 20.4,12.479 2.941,-1.114 5.815,-4.565 8.64,-7.2 17.074,-15.928 33.141,-31.136 49.92,-46.56 4.267,-3.922 8.366,-6.728 9.84,-12.24 0,0.32 0,0.64 0,0.96 -0.633,1.526 -1.345,2.975 -2.159,4.32 -1.381,1.18 -2.66,2.46 -3.841,3.84 -0.08,0 -0.159,0 -0.239,0 -1.301,1.1 -2.501,2.3 -3.601,3.6 -0.08,0 -0.159,0 -0.239,0 -1.221,1.021 -2.341,2.14 -3.36,3.36 -0.08,0 -0.16,0 -0.24,0 -1.3,1.1 -2.5,2.3 -3.6,3.6 -0.08,0 -0.16,0 -0.24,0 -1.3,1.101 -2.5,2.3 -3.6,3.601 -0.08,0 -0.16,0 -0.24,0 -1.221,1.02 -2.341,2.14 -3.36,3.36 -0.08,-10e-4 -0.16,0 -0.24,0 -1.3,1.1 -2.5,2.299 -3.6,3.6 -0.08,0 -0.16,0 -0.24,0 -1.22,1.02 -2.34,2.14 -3.359,3.36 -0.08,0 -0.16,0 -0.24,0 -1.301,1.1 -2.5,2.3 -3.601,3.6 -0.079,0 -0.159,0 -0.239,0 -1.301,1.1 -2.501,2.3 -3.601,3.6 -0.08,0 -0.16,0 -0.24,0 -1.22,1.021 -2.34,2.14 -3.359,3.36 -0.08,0 -0.16,0 -0.24,0 -1.3,1.1 -2.5,2.3 -3.6,3.6 -0.08,0 -0.16,0 -0.24,0 -1.221,1.021 -2.34,2.141 -3.36,3.36 -0.08,0 -0.159,0 -0.239,0 -1.301,1.1 -2.501,2.3 -3.601,3.6 -0.08,0 -0.16,0.001 -0.24,0 -1.22,1.021 -2.34,2.141 -3.359,3.36 -0.08,0 -0.16,0 -0.24,0 -1.3,1.1 -2.5,2.3 -3.6,3.601 -0.08,0 -0.16,0 -0.24,0 -0.98,0.779 -1.86,1.659 -2.641,2.64 -3.102,2.83 -10.142,3.453 -14.399,0.96 -3.473,-2.033 -6.689,-7.668 -9.36,-11.28 -19.898,-26.907 -41.547,-56.742 -60.72,-82.56 3.049,24.717 6.483,49.058 9.359,73.68 2.869,24.551 6.98,49.259 7.44,75.12 -0.081,-10e-4 -0.161,-10e-4 -0.242,-10e-4 z"
         id="path48382" />
      <path
         style="clip-rule:evenodd;fill:#f3f3f3;fill-rule:evenodd"
         d="m 387.36,461.041 c 0.78,-0.98 1.66,-1.86 2.641,-2.64 -0.78,0.98 -1.66,1.861 -2.641,2.64 z"
         id="path48384" />
      <path
         style="clip-rule:evenodd;fill:#f3f3f3;fill-rule:evenodd"
         d="m 390.241,458.401 c 1.1,-1.301 2.3,-2.501 3.6,-3.601 -1.1,1.302 -2.3,2.501 -3.6,3.601 z"
         id="path48386" />
      <path
         style="clip-rule:evenodd;fill:#f3f3f3;fill-rule:evenodd"
         d="m 394.081,454.801 c 1.02,-1.22 2.14,-2.34 3.359,-3.36 -1.019,1.22 -2.139,2.34 -3.359,3.36 z"
         id="path48388" />
      <path
         style="clip-rule:evenodd;fill:#f3f3f3;fill-rule:evenodd"
         d="m 397.681,451.44 c 1.1,-1.3 2.3,-2.5 3.601,-3.6 -1.101,1.301 -2.301,2.501 -3.601,3.6 z"
         id="path48390" />
      <path
         style="clip-rule:evenodd;fill:#f3f3f3;fill-rule:evenodd"
         d="m 401.521,447.841 c 1.021,-1.22 2.14,-2.34 3.36,-3.36 -1.02,1.22 -2.14,2.34 -3.36,3.36 z"
         id="path48392" />
      <path
         style="clip-rule:evenodd;fill:#f3f3f3;fill-rule:evenodd"
         d="m 405.121,444.48 c 1.1,-1.3 2.3,-2.5 3.6,-3.6 -1.1,1.301 -2.3,2.501 -3.6,3.6 z"
         id="path48394" />
      <path
         style="clip-rule:evenodd;fill:#f3f3f3;fill-rule:evenodd"
         d="m 408.961,440.881 c 1.02,-1.221 2.14,-2.34 3.359,-3.36 -1.019,1.22 -2.139,2.34 -3.359,3.36 z"
         id="path48396" />
      <path
         style="clip-rule:evenodd;fill:#f3f3f3;fill-rule:evenodd"
         d="m 412.561,437.521 c 1.1,-1.3 2.3,-2.5 3.601,-3.6 -1.101,1.3 -2.301,2.5 -3.601,3.6 z"
         id="path48398" />
      <path
         style="clip-rule:evenodd;fill:#f3f3f3;fill-rule:evenodd"
         d="m 416.4,433.921 c 1.101,-1.3 2.3,-2.5 3.601,-3.6 -1.1,1.3 -2.3,2.5 -3.601,3.6 z"
         id="path48400" />
      <path
         style="clip-rule:evenodd;fill:#f3f3f3;fill-rule:evenodd"
         d="m 420.241,430.321 c 1.02,-1.221 2.14,-2.341 3.359,-3.36 -1.019,1.22 -2.139,2.34 -3.359,3.36 z"
         id="path48402" />
      <path
         style="clip-rule:evenodd;fill:#f3f3f3;fill-rule:evenodd"
         d="m 423.841,426.961 c 1.1,-1.301 2.3,-2.5 3.6,-3.6 -1.1,1.3 -2.3,2.5 -3.6,3.6 z"
         id="path48404" />
      <path
         style="clip-rule:evenodd;fill:#f3f3f3;fill-rule:evenodd"
         d="m 427.681,423.361 c 1.02,-1.221 2.14,-2.341 3.36,-3.36 -1.02,1.22 -2.14,2.34 -3.36,3.36 z"
         id="path48406" />
      <path
         style="clip-rule:evenodd;fill:#f3f3f3;fill-rule:evenodd"
         d="m 431.281,420.001 c 1.1,-1.301 2.3,-2.5 3.6,-3.601 -1.1,1.301 -2.3,2.501 -3.6,3.601 z"
         id="path48408" />
      <path
         style="clip-rule:evenodd;fill:#f3f3f3;fill-rule:evenodd"
         d="m 435.121,416.4 c 1.1,-1.3 2.3,-2.5 3.6,-3.6 -1.1,1.301 -2.3,2.501 -3.6,3.6 z"
         id="path48410" />
      <path
         style="clip-rule:evenodd;fill:#f3f3f3;fill-rule:evenodd"
         d="m 438.961,412.801 c 1.02,-1.221 2.14,-2.34 3.36,-3.36 -1.02,1.22 -2.14,2.34 -3.36,3.36 z"
         id="path48412" />
      <path
         style="clip-rule:evenodd;fill:#f3f3f3;fill-rule:evenodd"
         d="m 442.561,409.44 c 1.1,-1.3 2.3,-2.5 3.601,-3.6 -1.1,1.301 -2.301,2.501 -3.601,3.6 z"
         id="path48414" />
      <path
         style="clip-rule:evenodd;fill:#f3f3f3;fill-rule:evenodd"
         d="m 446.4,405.841 c 1.181,-1.38 2.46,-2.66 3.841,-3.84 -1.18,1.38 -2.46,2.66 -3.841,3.84 z"
         id="path48416" />
      <path
         style="clip-rule:evenodd;fill:#454545;fill-rule:evenodd"
         d="m 82.8,458.401 c 18.077,-24.768 36.88,-50.246 55.2,-75.12 1.152,-1.564 1.932,-3.681 3.84,-4.561 -7.628,45.253 -15.338,90.42 -23.04,135.601 15.638,2 32.274,1.68 48.96,1.68 33.577,0 67.561,-0.242 101.041,-0.24 16.811,10e-4 33.463,-0.299 49.439,1.2 -0.08,0 -0.159,0 -0.239,0 -48.337,-1.584 -100.371,-0.717 -150.721,-0.72 -16.669,-10e-4 -33.115,0.292 -48.72,-1.681 7.655,-45.145 15.284,-90.316 23.04,-135.359 -1.712,1.195 -2.855,3.153 -4.08,4.8 -16.81,22.606 -33.032,45.572 -50.16,68.64 -4.16,5.603 -8.669,13.881 -18.96,10.08 -2.799,-1.034 -6.195,-4.613 -8.88,-7.2 C 43.054,439.661 26.955,424.329 10.08,408.961 5.756,405.023 1.52,402.667 0,396.48 c 0,-0.08 0,-0.159 0,-0.239 0.935,1.784 1.294,4.146 2.64,5.52 0.939,1.141 1.979,2.181 3.12,3.12 0.08,0 0.16,0 0.24,0 1.1,1.3 2.3,2.5 3.6,3.6 0.08,0 0.16,0 0.24,0 1.02,1.221 2.14,2.341 3.36,3.36 0.08,0 0.16,0 0.24,0 1.1,1.3 2.3,2.5 3.6,3.6 0.08,0 0.16,0 0.24,0 1.02,1.221 2.14,2.341 3.36,3.36 0.08,0 0.16,0 0.24,0 1.1,1.3 2.3,2.5 3.6,3.6 0.08,0 0.16,0 0.24,0 1.1,1.301 2.3,2.501 3.6,3.601 0.08,0 0.16,0 0.24,0 1.02,1.22 2.14,2.34 3.36,3.36 0.08,0 0.16,0 0.24,0 1.1,1.3 2.3,2.5 3.6,3.6 0.08,0 0.16,0 0.24,0 1.02,1.22 2.14,2.34 3.36,3.36 0.08,-10e-4 0.16,0 0.24,0 1.1,1.3 2.3,2.5 3.6,3.6 0.08,0 0.16,0 0.24,0 1.02,1.22 2.14,2.34 3.36,3.36 0.08,0 0.16,0 0.24,0 1.1,1.3 2.3,2.5 3.6,3.6 0.08,0 0.16,0 0.24,0 1.1,1.3 2.3,2.5 3.6,3.6 0.08,0 0.16,0 0.24,0 1.02,1.221 2.14,2.341 3.36,3.36 0.08,0 0.16,0 0.24,0 1.1,1.3 2.3,2.5 3.6,3.6 0.08,0 0.16,0 0.24,0 0.859,1.061 1.82,2.021 2.88,2.881 3.073,3.478 11.842,3.755 15.36,0.479 0.901,-0.7 1.701,-1.5 2.4,-2.401 z"
         id="path48418" />
      <path
         style="clip-rule:evenodd;fill:#bbbbbb;fill-rule:evenodd"
         d="m 0,396.48 c 1.52,6.187 5.756,8.543 10.08,12.48 16.875,15.367 32.974,30.699 49.44,46.56 2.685,2.587 6.081,6.166 8.88,7.2 10.291,3.801 14.8,-4.478 18.96,-10.08 17.128,-23.067 33.35,-46.033 50.16,-68.64 1.224,-1.646 2.367,-3.604 4.08,-4.8 -7.756,45.043 -15.385,90.215 -23.04,135.359 15.605,1.973 32.051,1.68 48.72,1.681 50.35,0.003 102.384,-0.864 150.721,0.72 -0.96,0 -1.92,0 -2.88,0 -47.884,-1.152 -99.143,-0.48 -148.801,-0.479 -16.438,0 -32.879,0.438 -48,-1.921 7.678,-44.961 15.144,-90.136 23.04,-134.88 -19.334,25.387 -38.931,52.589 -58.08,78.96 -0.98,0.78 -1.86,1.66 -2.64,2.641 -3.852,3.245 -12.427,2.944 -15.84,-0.48 -0.86,-1.061 -1.82,-2.021 -2.88,-2.88 -0.08,0 -0.16,0 -0.24,0 -1.1,-1.3 -2.3,-2.5 -3.6,-3.6 -0.08,-0.001 -0.16,0 -0.24,0 -1.02,-1.221 -2.14,-2.341 -3.36,-3.36 -0.08,0 -0.16,0 -0.24,0 -1.1,-1.301 -2.3,-2.5 -3.6,-3.6 -0.08,0 -0.16,0 -0.24,0 -1.1,-1.301 -2.3,-2.501 -3.6,-3.601 -0.08,0 -0.16,0 -0.24,0 -1.02,-1.22 -2.14,-2.34 -3.36,-3.36 -0.08,0 -0.16,0 -0.24,0 -1.1,-1.3 -2.3,-2.5 -3.6,-3.6 -0.08,0 -0.16,0 -0.24,0 -1.02,-1.22 -2.14,-2.34 -3.36,-3.36 -0.08,0 -0.16,10e-4 -0.24,0 -1.1,-1.3 -2.3,-2.5 -3.6,-3.6 -0.08,0 -0.16,0 -0.24,0 -1.02,-1.22 -2.14,-2.34 -3.36,-3.36 -0.08,0 -0.16,0 -0.24,0 -1.1,-1.3 -2.3,-2.5 -3.6,-3.6 -0.08,0 -0.16,0 -0.24,0 -1.1,-1.3 -2.3,-2.5 -3.6,-3.6 -0.08,0 -0.16,0 -0.24,0 -1.02,-1.221 -2.14,-2.341 -3.36,-3.36 -0.08,0 -0.16,0 -0.24,0 -1.1,-1.301 -2.299,-2.5 -3.6,-3.601 -0.08,0 -0.16,0 -0.24,0 -1.02,-1.22 -2.14,-2.34 -3.36,-3.359 -0.08,0 -0.16,0 -0.24,0 -1.1,-1.301 -2.3,-2.5 -3.6,-3.601 -0.08,0 -0.16,0.001 -0.24,0 C 4.5,404.139 3.38,403.019 2.16,402 1.42,400.58 0.593,399.247 0,397.68 c 0,-0.399 0,-0.799 0,-1.2 z"
         id="path48420" />
      <path
         style="clip-rule:evenodd;fill:#f3f3f3;fill-rule:evenodd"
         d="m 2.16,402.001 c 1.22,1.02 2.34,2.14 3.36,3.359 -1.22,-1.019 -2.34,-2.139 -3.36,-3.359 z"
         id="path48422" />
      <path
         style="clip-rule:evenodd;fill:#f3f3f3;fill-rule:evenodd"
         d="m 5.76,405.36 c 1.3,1.101 2.5,2.3 3.6,3.601 -1.3,-1.1 -2.5,-2.3 -3.6,-3.601 z"
         id="path48424" />
      <path
         style="clip-rule:evenodd;fill:#f3f3f3;fill-rule:evenodd"
         d="m 9.6,408.961 c 1.22,1.02 2.34,2.14 3.36,3.359 -1.22,-1.019 -2.34,-2.139 -3.36,-3.359 z"
         id="path48426" />
      <path
         style="clip-rule:evenodd;fill:#f3f3f3;fill-rule:evenodd"
         d="m 13.2,412.32 c 1.3,1.101 2.5,2.3 3.6,3.601 -1.3,-1.1 -2.5,-2.3 -3.6,-3.601 z"
         id="path48428" />
      <path
         style="clip-rule:evenodd;fill:#f3f3f3;fill-rule:evenodd"
         d="m 17.04,415.921 c 1.22,1.02 2.34,2.14 3.36,3.36 -1.22,-1.02 -2.34,-2.14 -3.36,-3.36 z"
         id="path48430" />
      <path
         style="clip-rule:evenodd;fill:#f3f3f3;fill-rule:evenodd"
         d="m 20.64,419.281 c 1.3,1.1 2.5,2.3 3.6,3.6 -1.3,-1.1 -2.5,-2.3 -3.6,-3.6 z"
         id="path48432" />
      <path
         style="clip-rule:evenodd;fill:#f3f3f3;fill-rule:evenodd"
         d="m 24.48,422.881 c 1.3,1.1 2.5,2.3 3.6,3.6 -1.3,-1.1 -2.5,-2.3 -3.6,-3.6 z"
         id="path48434" />
      <path
         style="clip-rule:evenodd;fill:#f3f3f3;fill-rule:evenodd"
         d="m 28.32,426.48 c 1.221,1.021 2.34,2.141 3.36,3.36 -1.22,-1.019 -2.34,-2.139 -3.36,-3.36 z"
         id="path48436" />
      <path
         style="clip-rule:evenodd;fill:#f3f3f3;fill-rule:evenodd"
         d="m 31.92,429.841 c 1.3,1.1 2.5,2.3 3.6,3.6 -1.3,-1.1 -2.5,-2.3 -3.6,-3.6 z"
         id="path48438" />
      <path
         style="clip-rule:evenodd;fill:#f3f3f3;fill-rule:evenodd"
         d="m 35.76,433.44 c 1.22,1.021 2.34,2.141 3.36,3.36 -1.22,-1.019 -2.34,-2.139 -3.36,-3.36 z"
         id="path48440" />
      <path
         style="clip-rule:evenodd;fill:#f3f3f3;fill-rule:evenodd"
         d="m 39.36,436.801 c 1.3,1.1 2.5,2.3 3.6,3.6 -1.3,-1.1 -2.5,-2.299 -3.6,-3.6 z"
         id="path48442" />
      <path
         style="clip-rule:evenodd;fill:#f3f3f3;fill-rule:evenodd"
         d="m 43.2,440.4 c 1.22,1.021 2.34,2.141 3.36,3.36 -1.22,-1.019 -2.34,-2.139 -3.36,-3.36 z"
         id="path48444" />
      <path
         style="clip-rule:evenodd;fill:#f3f3f3;fill-rule:evenodd"
         d="m 46.8,443.761 c 1.3,1.1 2.5,2.3 3.6,3.601 -1.3,-1.101 -2.5,-2.3 -3.6,-3.601 z"
         id="path48446" />
      <path
         style="clip-rule:evenodd;fill:#f3f3f3;fill-rule:evenodd"
         d="m 50.64,447.361 c 1.3,1.1 2.5,2.299 3.6,3.6 -1.3,-1.1 -2.5,-2.3 -3.6,-3.6 z"
         id="path48448" />
      <path
         style="clip-rule:evenodd;fill:#f3f3f3;fill-rule:evenodd"
         d="m 54.48,450.961 c 1.22,1.02 2.34,2.14 3.36,3.36 -1.22,-1.02 -2.34,-2.14 -3.36,-3.36 z"
         id="path48450" />
      <path
         style="clip-rule:evenodd;fill:#f3f3f3;fill-rule:evenodd"
         d="m 58.08,454.321 c 1.3,1.1 2.5,2.3 3.6,3.6 -1.3,-1.1 -2.5,-2.3 -3.6,-3.6 z"
         id="path48452" />
      <path
         style="clip-rule:evenodd;fill:#f3f3f3;fill-rule:evenodd"
         d="m 61.92,457.921 c 1.061,0.859 2.021,1.819 2.88,2.88 -1.06,-0.86 -2.02,-1.82 -2.88,-2.88 z"
         id="path48454" />
      <path
         style="clip-rule:evenodd;fill:#f3f3f3;fill-rule:evenodd"
         d="m 80.64,461.281 c 0.78,-0.98 1.66,-1.86 2.64,-2.641 -0.78,0.981 -1.659,1.861 -2.64,2.641 z"
         id="path48456" />
      <path
         style="clip-rule:evenodd;fill:#010101;fill-rule:evenodd"
         d="m 75.12,0 c 7.239,2.158 9.654,7.648 13.92,13.44 38.283,51.979 76.782,105.01 114.72,156.24 0.08,0 0.16,0 0.24,0 7.766,-4.154 14.794,-9.045 22.56,-13.2 7.42,4.259 14.418,8.942 21.6,13.44 5.46,-6.535 10.511,-13.433 15.601,-20.4 15.417,-21.105 30.237,-41.695 45.84,-62.88 17.69,-24.02 35.574,-48.792 53.521,-72.96 4.297,-5.788 7.176,-11.578 14.158,-13.68 1.44,0 2.881,0 4.32,0 2.235,1.125 4.938,1.782 6.48,3.6 1.1,1.3 2.3,2.5 3.6,3.6 0.08,0 0.16,0 0.24,0 1.02,1.22 2.14,2.34 3.36,3.36 0.079,0 0.159,0 0.239,0 1.1,1.3 2.3,2.5 3.601,3.6 0.08,0 0.159,0 0.239,0 1.101,1.3 2.3,2.5 3.601,3.6 0.08,0 0.16,0 0.24,0 1.02,1.221 2.14,2.34 3.359,3.36 0.08,0 0.16,0 0.24,0 1.1,1.3 2.3,2.5 3.6,3.6 0.08,0 0.16,0 0.24,0 1.02,1.22 2.14,2.34 3.36,3.36 0.08,0 0.16,0 0.24,0 1.1,1.3 2.3,2.5 3.6,3.6 0.08,0 0.16,0 0.24,0 1.02,1.22 2.14,2.34 3.359,3.36 0.08,0 0.16,0 0.24,0 1.1,1.3 2.3,2.5 3.601,3.6 0.079,0 0.159,0 0.239,0 1.101,1.3 2.3,2.5 3.601,3.6 0.08,0 0.16,0 0.24,0 1.02,1.22 2.14,2.34 3.359,3.36 0.08,0 0.16,0 0.24,0 1.1,1.3 2.3,2.5 3.6,3.6 0.08,0 0.16,0 0.24,0 1.02,1.22 2.14,2.34 3.36,3.36 0.08,0 0.16,0 0.239,0 1.101,1.3 2.3,2.5 3.601,3.6 0.08,0 0.16,0 0.24,0 1.02,1.22 2.14,2.34 3.359,3.36 2.639,1.362 3.472,4.529 4.8,7.2 0,1.6 0,3.2 0,4.8 -2.339,6.599 -7.345,9.59 -12.72,14.16 -49.611,42.185 -97.922,83.656 -147.12,126 -1.904,1.639 -9.876,7.185 -10.32,9.36 -0.226,1.105 0.446,4.131 0.721,6.24 0.623,4.799 1.339,7.528 1.92,12 0.28,2.162 0.082,4.794 0.72,6.24 0.372,0.845 3.031,3.043 4.8,4.56 52.59,45.082 104.917,89.353 156.961,134.161 0.699,0.9 1.499,1.7 2.399,2.399 1.368,1.272 1.606,3.674 2.64,5.28 0,1.52 0,3.04 0,4.56 -1.033,1.606 -1.271,4.009 -2.64,5.28 -1.3,1.1 -2.5,2.3 -3.6,3.6 -0.08,10e-4 -0.16,0 -0.24,0 -1.3,1.101 -2.5,2.3 -3.6,3.601 -0.08,0 -0.16,0 -0.24,0 -1.221,1.02 -2.341,2.14 -3.36,3.359 -0.08,0 -0.16,0 -0.24,0 -1.3,1.101 -2.5,2.3 -3.6,3.601 -0.08,0 -0.16,0 -0.24,0 -1.3,1.1 -2.5,2.3 -3.6,3.6 -0.08,0 -0.16,0 -0.24,0 -1.221,1.021 -2.34,2.14 -3.36,3.36 -0.079,0 -0.16,0 -0.239,0 -1.301,1.1 -2.501,2.3 -3.601,3.6 -0.08,0 -0.16,0 -0.239,0 -1.221,1.021 -2.341,2.141 -3.36,3.36 -0.08,0 -0.16,0 -0.24,0 -1.3,1.1 -2.5,2.3 -3.6,3.6 -0.08,0.001 -0.16,0 -0.24,0 -1.301,1.101 -2.5,2.3 -3.601,3.601 -0.079,0 -0.159,0 -0.239,0 -1.221,1.02 -2.341,2.14 -3.36,3.359 -0.08,0 -0.16,0 -0.24,0 -1.3,1.101 -2.5,2.3 -3.6,3.601 -0.08,0 -0.16,0 -0.24,0 -1.22,1.02 -2.34,2.14 -3.359,3.36 -0.08,0 -0.16,0 -0.24,0 -1.301,1.1 -2.5,2.299 -3.601,3.6 -0.08,0 -0.16,0 -0.239,0 -1.221,1.02 -2.341,2.14 -3.36,3.36 -0.08,0 -0.16,-10e-4 -0.24,0 -1.3,1.1 -2.5,2.3 -3.6,3.6 -0.08,0 -0.16,0 -0.24,0 -0.98,0.779 -1.86,1.659 -2.64,2.64 -1.269,0.8 -2.126,1.472 -3.36,1.92 -10.977,3.986 -15.909,-6.522 -20.16,-12.239 -19.319,-25.982 -38.073,-51.929 -56.64,-77.521 -1.451,-2 -2.841,-4.105 -4.801,-5.52 3.272,24.703 6.557,49.2 9.601,73.92 3.052,24.783 6.755,49.789 7.439,75.84 -0.319,0 -0.64,0 -0.96,0 -15.977,-1.499 -32.629,-1.199 -49.439,-1.2 -33.479,-0.002 -67.464,0.24 -101.041,0.24 -16.686,0 -33.322,0.32 -48.96,-1.68 7.702,-45.181 15.412,-90.348 23.04,-135.601 -1.908,0.88 -2.688,2.996 -3.84,4.561 -18.32,24.874 -37.123,50.353 -55.2,75.12 -0.901,0.699 -1.701,1.499 -2.4,2.399 -3.519,3.275 -12.287,2.998 -15.36,-0.479 -0.859,-1.061 -1.819,-2.021 -2.88,-2.881 -0.08,0 -0.16,0 -0.24,0 -1.1,-1.3 -2.3,-2.5 -3.6,-3.6 -0.08,0 -0.16,0 -0.24,0 -1.02,-1.22 -2.14,-2.34 -3.36,-3.36 -0.08,0 -0.16,0 -0.24,0 -1.1,-1.3 -2.3,-2.5 -3.6,-3.6 -0.08,0 -0.16,0 -0.24,0 -1.1,-1.3 -2.3,-2.5 -3.6,-3.6 -0.08,0 -0.16,0 -0.24,0 -1.02,-1.221 -2.14,-2.341 -3.36,-3.36 -0.08,0 -0.16,0 -0.24,0 -1.1,-1.3 -2.3,-2.5 -3.6,-3.6 -0.08,0 -0.16,-0.001 -0.24,0 -1.02,-1.221 -2.14,-2.341 -3.36,-3.36 -0.08,0 -0.16,0 -0.24,0 -1.1,-1.301 -2.3,-2.5 -3.6,-3.6 -0.08,0 -0.16,0 -0.24,0 -1.02,-1.221 -2.14,-2.341 -3.36,-3.36 -0.08,0 -0.16,0 -0.24,0 -1.1,-1.301 -2.299,-2.5 -3.6,-3.601 -0.08,0 -0.16,0 -0.24,0 -1.1,-1.3 -2.3,-2.5 -3.6,-3.6 -0.08,0 -0.16,0 -0.24,0 -1.02,-1.221 -2.14,-2.34 -3.36,-3.36 -0.08,0 -0.16,0 -0.24,0 -1.1,-1.3 -2.3,-2.5 -3.6,-3.6 -0.08,0 -0.16,0 -0.24,0 -1.02,-1.221 -2.14,-2.34 -3.36,-3.36 -0.08,0 -0.16,0 -0.24,0 -1.1,-1.3 -2.3,-2.5 -3.6,-3.6 -0.08,0 -0.16,0 -0.24,0 -0.939,-1.141 -1.979,-2.181 -3.12,-3.12 -1.346,-1.374 -1.705,-3.735 -2.64,-5.52 0,-1.36 0,-2.721 0,-4.08 2.112,-6.93 7.324,-9.873 12.72,-14.4 3.503,-2.939 6.979,-6.003 10.08,-8.64 44.184,-37.573 87.458,-74.789 131.521,-112.561 2.966,-2.543 8.866,-6.641 9.84,-9.12 0.702,-1.786 0.812,-4.442 1.2,-6.72 0.855,-5.025 1.515,-8.721 2.4,-13.68 0.405,-2.27 1.371,-5.829 1.2,-6.96 -0.175,-1.157 -2.906,-3.196 -4.8,-4.8 C 112.797,171.78 62.793,128.742 12,85.2 6.857,80.792 1.827,77.279 0,71.28 0,69.84 0,68.4 0,66.96 c 1.256,-2.343 1.772,-5.427 4.08,-6.72 1.3,-1.1 2.5,-2.3 3.6,-3.6 0.08,0 0.16,0 0.24,0 1.22,-1.02 2.34,-2.14 3.36,-3.36 0.08,0 0.16,0 0.24,0 1.3,-1.1 2.5,-2.3 3.6,-3.6 0.08,0 0.16,0 0.24,0 1.3,-1.1 2.5,-2.3 3.6,-3.6 0.08,0 0.16,0 0.24,0 1.22,-1.02 2.34,-2.14 3.36,-3.36 0.08,0 0.16,0 0.24,0 1.3,-1.1 2.5,-2.3 3.6,-3.6 0.08,0 0.16,0 0.24,0 1.22,-1.02 2.34,-2.14 3.36,-3.36 0.08,0 0.16,0 0.24,0 1.3,-1.1 2.5,-2.3 3.6,-3.6 0.08,0 0.16,0 0.24,0 1.22,-1.02 2.34,-2.14 3.36,-3.36 0.08,0 0.16,0 0.24,0 1.3,-1.1 2.5,-2.3 3.6,-3.6 0.08,0 0.16,0 0.24,0 1.3,-1.1 2.5,-2.3 3.6,-3.6 0.08,0 0.16,0 0.24,0 1.221,-1.02 2.34,-2.14 3.36,-3.36 0.08,0 0.16,0 0.24,0 1.3,-1.1 2.5,-2.3 3.6,-3.6 0.08,0 0.16,0 0.24,0 1.22,-1.02 2.34,-2.14 3.36,-3.36 0.08,0 0.16,0 0.24,0 1.3,-1.1 2.5,-2.3 3.6,-3.6 0.08,0 0.16,0 0.24,0 1.3,-1.1 2.5,-2.3 3.6,-3.6 1.693,-1.988 4.408,-2.952 6.96,-4.08 1.44,0 2.88,0 4.32,0 z"
         id="path48458" />
    </g>
  </g>
</svg>
