<?xml version="1.0" encoding="utf-8"?>
<!-- Generator: Adobe Illustrator 13.0.0, SVG Export Plug-In . SVG Version: 6.00 Build 14948)  -->
<!DOCTYPE svg PUBLIC "-//W3C//DTD SVG 1.1//EN" "http://www.w3.org/Graphics/SVG/1.1/DTD/svg11.dtd">
<svg version="1.1" id="Layer_1" xmlns="http://www.w3.org/2000/svg" xmlns:xlink="http://www.w3.org/1999/xlink" x="0px" y="0px"
	 width="464.881px" height="106.32px" viewBox="0 0 464.881 106.32" enable-background="new 0 0 464.881 106.32"
	 xml:space="preserve">
<path fill="#D6D4D4" d="M63.36,0.24c0-0.08,0-0.16,0-0.24c35.04,0,70.081,0,105.12,0c0,0.08,0,0.16,0,0.24
	c-34.64,0-69.281,0-103.92,0C64.16,0.24,63.76,0.24,63.36,0.24z"/>
<path fill="#A19E9F" d="M168.48,0.24c0-0.08,0-0.16,0-0.24c17.44,0,34.88,0,52.32,0c0,0.08,0,0.16,0,0.24
	C203.36,0.24,185.92,0.24,168.48,0.24z"/>
<path fill="#5F5D5E" d="M220.8,0.24c0-0.08,0-0.16,0-0.24c34.561,0,69.121,0,103.681,0C290.401,0.56,255.28,0.08,220.8,0.24z"/>
<path fill="#090B0C" d="M376.561,0c8.48,0,16.961,0,25.44,0c13.349,14.091,26.841,28.04,40.56,41.76c0,0.08,0,0.16,0,0.24
	c2.54,2.74,5.182,5.38,7.921,7.92c0,0.08,0,0.16,0,0.24c4.593,4.928,9.556,9.484,13.92,14.64
	c-14.316,13.523-28.253,27.428-42.479,41.04c-1.578-0.662-2.222-2.259-3.6-3.12c0-0.078-0.001-0.158,0-0.238
	c-13.762-14.16-27.467-28.374-41.28-42.48c-0.08,0-0.16,0-0.24,0c-34.16-0.398-70-0.398-104.16,0c-17.199,0-34.399,0-51.6,0
	c-38.028,0-77.409,0-115.44,0c-5.565,0-11.998-0.948-16.56,0c-1.873,0.391-4.521,3.562-6.24,5.28
	c-14.083,14.083-26.375,27.386-40.56,40.56C28.42,91.82,14.5,77.9,0.48,64.08c20.465-21.536,42.174-41.826,62.64-63.36
	c0.08,0,0.16,0,0.24,0C81.12,0.56,99.52,1.04,116.88,0.48c17.2,0,34.4,0,51.6,0C237.913,0.395,307.801,0.759,376.561,0z"/>
<path fill="#5F5D5E" d="M64.56,0.48c0-0.08,0-0.16,0-0.24c34.639,0,69.281,0,103.92,0c0,0.08,0,0.16,0,0.24c-17.2,0-34.4,0-51.6,0
	C99.44,0.48,82,0.48,64.56,0.48z"/>
<path fill="#2A2A2A" d="M63.36,0.719c-0.041-0.521,0.851-0.108,1.2-0.239c17.44,0,34.88,0,52.32,0
	C99.52,1.04,81.12,0.56,63.36,0.719z"/>
<path fill="#2A2A2A" d="M272.642,60c34.159-0.398,69.999-0.398,104.159,0c-17.279,0-34.561,0-51.84,0
	C307.521,60,290.081,60,272.642,60z"/>
<path fill="#5F5D5E" d="M221.041,60.24c0-0.08,0-0.16,0-0.24c17.2,0,34.399,0,51.601,0c17.439,0,34.88,0,52.319,0
	c0,0.08,0,0.16,0,0.24C290.321,60.24,255.681,60.24,221.041,60.24z"/>
<path fill="#5F5D5E" d="M88.32,60.48c9.12-0.562,19.28-0.08,28.8-0.24c0,0.08,0,0.16,0,0.24C107.52,60.48,97.92,60.48,88.32,60.48z"
	/>
<path fill="#A19E9F" d="M117.12,60.48c0-0.08,0-0.16,0-0.24c34.639,0,69.281,0,103.92,0c0,0.08,0,0.16,0,0.24
	c-17.36,0-34.72,0-52.08,0C151.68,60.48,134.4,60.48,117.12,60.48z"/>
<path fill="#D6D4D4" d="M34.56,28.8C43.98,19.18,53.5,9.66,63.12,0.24C53.7,9.86,44.18,19.38,34.56,28.8z"/>
<path fill="#D6D4D4" d="M0,63.36c3.1-2.74,5.78-5.9,8.88-8.642C6.02,57.78,3.06,60.74,0,63.601C0,63.521,0,63.44,0,63.36z"/>
<path fill="#2A2A2A" d="M220.8,0.24C255.28,0.08,290.401,0.56,324.48,0c17.359,0,34.721,0,52.079,0
	C307.8,0.759,237.913,0.395,168.48,0.48c0-0.08,0-0.16,0-0.24C185.92,0.24,203.36,0.24,220.8,0.24z"/>
<path fill="#2A2A2A" d="M402.001,0c0.16,0,0.319,0,0.479,0c0,0.08,0,0.16,0,0.24c0.07,0.489,0.648,0.47,0.721,0.96
	c1.898,2.1,3.898,4.1,6,6c0.495,0.865,1.425,1.295,1.92,2.16c1.898,2.1,3.898,4.1,6,6c0.495,0.865,1.425,1.295,1.92,2.16
	c1.899,2.1,3.899,4.1,6,6c0.495,0.864,1.425,1.295,1.92,2.16c1.899,2.1,3.899,4.1,6,6c0.495,0.864,1.425,1.295,1.92,2.159
	c1.9,2.101,3.9,4.101,6,6c0.414,0.787,1.268,1.135,1.681,1.92C428.842,28.04,415.35,14.091,402.001,0z"/>
<path fill="#2A2A2A" d="M442.561,42c2.222,1.859,4.021,4.142,6.24,6c0.414,0.786,1.268,1.134,1.681,1.92
	C447.741,47.38,445.101,44.74,442.561,42z"/>
<path fill="#2A2A2A" d="M450.48,50.16c2.221,1.859,4.02,4.141,6.239,6c0.414,0.786,1.268,1.134,1.681,1.92
	c1.899,2.102,3.899,4.102,6,6c0.128,0.193,0.251,0.39,0.239,0.72c-0.298,0.502-0.696,0.902-1.198,1.2
	c-0.865,0.495-1.297,1.425-2.16,1.92c-2.102,1.9-4.102,3.9-6,6c-0.865,0.495-1.296,1.425-2.16,1.92c-2.102,1.9-4.102,3.9-6,6
	c-0.865,0.495-1.295,1.426-2.16,1.92c-2.101,1.9-4.101,3.9-6,6c-0.865,0.495-1.295,1.427-2.16,1.921c-2.1,1.899-4.1,3.899-6,6.001
	c-0.865,0.494-1.295,1.425-2.16,1.92c-2.1,1.898-4.1,3.898-6,6c-0.295,0.104-0.491,0.307-0.479,0.72c-0.24,0-0.48,0-0.721,0
	c-0.331-0.708-1.108-0.972-1.439-1.68c-0.414-0.787-1.267-1.135-1.68-1.922c1.378,0.861,2.021,2.458,3.6,3.12
	c14.228-13.612,28.163-27.517,42.479-41.04C460.036,59.645,455.073,55.088,450.48,50.16z"/>
<path fill="#2A2A2A" d="M418.321,102.48c-2.142-1.779-3.86-3.98-6.001-5.762c-0.495-0.863-1.424-1.295-1.92-2.158
	c-1.899-2.102-3.899-4.102-6-6c-0.495-0.865-1.426-1.296-1.92-2.16c-1.899-2.102-3.899-4.102-6-6
	c-0.495-0.865-1.426-1.295-1.921-2.16c-1.898-2.101-3.898-4.101-6-6c-0.494-0.865-1.425-1.295-1.92-2.16c-1.898-2.1-3.898-4.1-6-6
	c-1.188-1.371-2.43-2.689-3.6-4.08C390.854,74.106,404.561,88.32,418.321,102.48z"/>
<path fill="#2A2A2A" d="M63.12,0.719C42.654,22.254,20.945,42.544,0.48,64.08C14.5,77.9,28.42,91.82,42.24,105.84
	C56.425,92.666,68.717,79.363,82.8,65.28c1.719-1.719,4.367-4.891,6.24-5.28c4.562-0.948,10.995,0,16.56,0
	c38.031,0,77.413,0,115.44,0c0,0.08,0,0.16,0,0.24c-34.64,0-69.281,0-103.92,0c-9.52,0.16-19.68-0.32-28.8,0.24
	c-0.08,0-0.16,0-0.24,0c-5.38,5.18-10.66,10.46-15.84,15.84c-8.5,8.859-17.42,17.3-25.92,26.16c-1.3,1.1-2.5,2.3-3.6,3.6
	C28.26,92.221,14.1,78.061,0.24,63.601C20.5,43.54,40.66,23.38,60.72,3.12C61.419,2.219,62.22,1.419,63.12,0.719z"/>
<path fill="#D6D4D4" d="M460.801,60c-1.501-1.139-2.578-2.701-4.08-3.84c-0.576-0.944-1.584-1.456-2.16-2.4
	C456.741,55.74,458.821,57.82,460.801,60z"/>
<path fill="#D6D4D4" d="M452.881,51.84c-1.501-1.139-2.579-2.7-4.08-3.84c-0.576-0.943-1.584-1.456-2.16-2.399
	C448.821,47.58,450.901,49.66,452.881,51.84z"/>
<path fill="#D6D4D4" d="M444.961,43.68c-1.501-1.14-2.579-2.701-4.08-3.841c-0.576-0.943-1.584-1.456-2.16-2.399
	C440.901,39.42,442.98,41.5,444.961,43.68z"/>
<path fill="#D6D4D4" d="M437.041,35.52c-1.501-1.14-2.579-2.701-4.08-3.84c-0.495-0.865-1.425-1.296-1.92-2.16
	C433.141,31.42,435.141,33.42,437.041,35.52z"/>
<path fill="#D6D4D4" d="M429.121,27.36c-1.502-1.139-2.579-2.701-4.08-3.84c-0.495-0.865-1.425-1.295-1.92-2.16
	C425.221,23.26,427.221,25.26,429.121,27.36z"/>
<path fill="#D6D4D4" d="M421.201,19.2c-1.502-1.139-2.579-2.702-4.08-3.84c-0.495-0.865-1.425-1.295-1.92-2.16
	C417.301,15.1,419.301,17.1,421.201,19.2z"/>
<path fill="#D6D4D4" d="M413.281,11.04c-1.502-1.139-2.579-2.701-4.08-3.84c-0.495-0.865-1.425-1.295-1.92-2.16
	C409.381,6.94,411.381,8.94,413.281,11.04z"/>
<path fill="#D6D4D4" d="M405.601,3.12c-1.182-0.818-1.938-2.062-3.119-2.88c0-0.08,0-0.16,0-0.24c0.079,0,0.159,0,0.239,0
	C403.538,1.182,404.783,1.938,405.601,3.12z"/>
<path fill="#A19E9F" d="M34.56,28.8C44.18,19.38,53.7,9.86,63.12,0.24c0.08,0,0.16,0,0.24,0c0.4,0,0.8,0,1.2,0c0,0.08,0,0.16,0,0.24
	c-0.349,0.131-1.24-0.28-1.2,0.239c-0.08,0-0.16,0-0.24,0c-0.9,0.699-1.701,1.5-2.4,2.4C43.3,20.18,26.3,37.66,8.88,54.719
	C17.3,45.94,26.14,37.58,34.56,28.8z"/>
<path fill="#A19E9F" d="M403.201,1.2c-0.071-0.49-0.649-0.471-0.721-0.96c1.183,0.817,1.938,2.062,3.119,2.88
	c0.414,0.786,1.268,1.134,1.682,1.92C405.779,3.901,404.702,2.339,403.201,1.2z"/>
<path fill="#5F5D5E" d="M409.201,7.2c-2.102-1.9-4.102-3.9-6-6c1.501,1.139,2.578,2.701,4.08,3.84
	C407.776,5.905,408.706,6.335,409.201,7.2z"/>
<path fill="#5F5D5E" d="M8.88,54.719C26.3,37.66,43.3,20.18,60.72,3.12C40.66,23.38,20.5,43.54,0.24,63.601
	c13.86,14.46,28.02,28.62,42.48,42.479c1.1-1.3,2.3-2.5,3.6-3.6c-1.059,1.421-2.542,2.418-3.6,3.84c-0.16,0-0.32,0-0.48,0
	C28.26,92.14,14.18,78.061,0,64.08c0-0.16,0-0.32,0-0.479C3.06,60.74,6.02,57.78,8.88,54.719z"/>
<path fill="#A19E9F" d="M411.121,9.36c-0.495-0.865-1.425-1.295-1.92-2.16c1.501,1.139,2.578,2.701,4.08,3.84
	c0.495,0.865,1.425,1.295,1.92,2.16C413.699,12.062,412.622,10.499,411.121,9.36z"/>
<path fill="#5F5D5E" d="M417.121,15.36c-2.102-1.9-4.102-3.9-6-6c1.501,1.139,2.578,2.702,4.08,3.84
	C415.696,14.065,416.626,14.495,417.121,15.36z"/>
<path fill="#A19E9F" d="M419.041,17.52c-0.495-0.865-1.425-1.295-1.92-2.16c1.501,1.139,2.578,2.702,4.08,3.84
	c0.495,0.865,1.425,1.295,1.92,2.16C421.619,20.221,420.542,18.659,419.041,17.52z"/>
<path fill="#5F5D5E" d="M425.041,23.52c-2.101-1.9-4.101-3.9-6-6c1.501,1.139,2.578,2.701,4.08,3.84
	C423.616,22.225,424.546,22.655,425.041,23.52z"/>
<path fill="#A19E9F" d="M426.961,25.68c-0.495-0.865-1.425-1.296-1.92-2.16c1.501,1.139,2.578,2.701,4.08,3.84
	c0.495,0.865,1.425,1.295,1.92,2.16C429.539,28.381,428.462,26.819,426.961,25.68z"/>
<path fill="#5F5D5E" d="M432.961,31.68c-2.101-1.9-4.101-3.9-6-6c1.501,1.139,2.578,2.7,4.08,3.84
	C431.536,30.385,432.466,30.815,432.961,31.68z"/>
<path fill="#A19E9F" d="M434.881,33.84c-0.495-0.864-1.425-1.295-1.92-2.159c1.501,1.139,2.579,2.7,4.08,3.84
	c0.414,0.786,1.266,1.134,1.68,1.92C437.3,36.381,436.303,34.898,434.881,33.84z"/>
<path fill="#5F5D5E" d="M440.881,39.84c-2.1-1.899-4.1-3.899-6-6c1.422,1.06,2.419,2.542,3.84,3.601
	C439.297,38.384,440.305,38.896,440.881,39.84z"/>
<path fill="#A19E9F" d="M442.561,41.76c-0.412-0.786-1.266-1.134-1.68-1.92c1.501,1.14,2.579,2.702,4.08,3.841
	c0.414,0.785,1.267,1.134,1.68,1.92C445.14,44.461,444.062,42.899,442.561,41.76z"/>
<path fill="#5F5D5E" d="M442.561,42c0-0.08,0-0.16,0-0.24c1.503,1.14,2.579,2.701,4.08,3.841c0.576,0.943,1.584,1.456,2.16,2.399
	C446.58,46.141,444.781,43.859,442.561,42z"/>
<path fill="#A19E9F" d="M450.48,49.92c-0.413-0.786-1.267-1.134-1.681-1.92c1.501,1.14,2.579,2.701,4.08,3.84
	c0.414,0.787,1.268,1.135,1.68,1.92C453.06,52.622,451.982,51.059,450.48,49.92z"/>
<path fill="#5F5D5E" d="M450.48,50.16c0-0.08,0-0.16,0-0.24c1.502,1.14,2.578,2.702,4.079,3.84c0.576,0.944,1.584,1.456,2.16,2.4
	C454.5,54.301,452.701,52.02,450.48,50.16z"/>
<path fill="#A19E9F" d="M458.4,58.08c-0.413-0.786-1.267-1.134-1.681-1.92c1.502,1.139,2.579,2.701,4.08,3.84
	c1.26,1.46,2.62,2.82,4.08,4.08c0,0.24,0,0.48,0,0.72c-0.08,0-0.16,0-0.24,0c0.012-0.33-0.111-0.525-0.239-0.72
	C462.501,61.98,460.501,59.98,458.4,58.08z"/>
<path fill="#5F5D5E" d="M464.4,64.08c-2.101-1.898-4.101-3.898-6-6C460.501,59.98,462.501,61.98,464.4,64.08z"/>
<path fill="#D6D4D4" d="M221.041,60.48c0-0.08,0-0.16,0-0.24c34.64,0,69.28,0,103.92,0c11.755,0,25.582,0,38.16,0
	c4.328,0,9.159-0.733,12.72,0c2.312,0.476,2.951,2.678,4.8,3.84c0.495,0.865,1.426,1.295,1.92,2.16
	c-2.782-1.564-3.516-5.101-6.72-5.76c-5.145-1.061-13.714,0-19.439,0C311.948,60.48,264.752,60.48,221.041,60.48z"/>
<path fill="#A19E9F" d="M380.641,64.08c-1.849-1.162-2.487-3.364-4.8-3.84c-3.561-0.733-8.392,0-12.72,0c-12.578,0-26.405,0-38.16,0
	c0-0.08,0-0.16,0-0.24c17.279,0,34.561,0,51.84,0c0.08,0,0.16,0,0.24,0C378.211,61.39,379.451,62.709,380.641,64.08z"/>
<path fill="#5F5D5E" d="M72.24,76.32c5.18-5.38,10.46-10.66,15.84-15.84C82.9,65.86,77.62,71.141,72.24,76.32z"/>
<path fill="#A19E9F" d="M72.24,76.32c5.38-5.18,10.66-10.46,15.84-15.84c0.08,0,0.16,0,0.24,0c-13.9,14.1-27.9,28.1-42,42
	C54.82,93.62,63.74,85.18,72.24,76.32z"/>
<path fill="#A19E9F" d="M382.561,66.24c1.503,1.139,2.579,2.701,4.08,3.84c0.495,0.865,1.426,1.295,1.92,2.16
	c-1.58-1.219-2.737-2.861-4.318-4.08C383.827,67.374,382.975,67.026,382.561,66.24z"/>
<path fill="#D6D4D4" d="M384.241,68.16c1.581,1.219,2.737,2.861,4.318,4.08c0.495,0.865,1.426,1.295,1.921,2.16
	C388.301,72.42,386.221,70.34,384.241,68.16z"/>
<path fill="#A19E9F" d="M390.48,74.4c1.502,1.139,2.578,2.701,4.079,3.84c0.495,0.865,1.426,1.295,1.921,2.16
	c-1.581-1.219-2.738-2.861-4.319-4.08C391.747,75.534,390.895,75.187,390.48,74.4z"/>
<path fill="#D6D4D4" d="M392.161,76.32c1.581,1.219,2.738,2.861,4.319,4.08c0.494,0.864,1.425,1.295,1.92,2.16
	C396.221,80.58,394.141,78.5,392.161,76.32z"/>
<path fill="#A19E9F" d="M398.4,82.561c1.502,1.139,2.578,2.7,4.08,3.84c0.494,0.864,1.425,1.295,1.92,2.16
	c-1.581-1.22-2.738-2.861-4.319-4.08C399.667,83.694,398.814,83.347,398.4,82.561z"/>
<path fill="#D6D4D4" d="M400.081,84.48c1.581,1.219,2.738,2.86,4.319,4.08c0.494,0.863,1.425,1.295,1.92,2.158
	C404.141,88.74,402.061,86.66,400.081,84.48z"/>
<path fill="#A19E9F" d="M406.32,90.719c1.502,1.141,2.579,2.702,4.08,3.842c0.496,0.863,1.425,1.295,1.92,2.158
	c-1.581-1.219-2.738-2.859-4.319-4.078C407.587,91.854,406.734,91.507,406.32,90.719z"/>
<path fill="#D6D4D4" d="M408.001,92.641c1.581,1.219,2.738,2.859,4.319,4.078c0.496,0.865,1.426,1.297,1.921,2.16
	C412.061,96.9,409.98,94.82,408.001,92.641z"/>
<path fill="#A19E9F" d="M414.241,98.88c1.501,1.14,2.578,2.701,4.08,3.84c0.413,0.787,1.266,1.135,1.68,1.922
	c-1.501-1.14-2.579-2.702-4.08-3.842C415.507,100.014,414.654,99.666,414.241,98.88z"/>
<path fill="#D6D4D4" d="M415.921,100.8c1.501,1.14,2.579,2.702,4.08,3.842c0.331,0.708,1.108,0.972,1.439,1.68
	c-0.079,0-0.159,0-0.239,0C419.581,104.34,417.54,102.781,415.921,100.8z"/>
<path fill="#D6D4D4" d="M42.72,106.32c1.059-1.422,2.542-2.419,3.6-3.84c14.1-13.9,28.1-27.9,42-42c9.6,0,19.2,0,28.8,0
	c17.28,0,34.56,0,51.84,0c-21.986,0.437-46.972,0.238-70.08,0.238c-3.351,0-7.362-0.597-9.84,0c-1.861,0.449-4.191,3.712-6,5.521
	c-13.854,13.854-26.471,26.12-40.08,40.08C42.88,106.32,42.8,106.32,42.72,106.32z"/>
<path fill="#5F5D5E" d="M382.561,66.24c-0.494-0.865-1.425-1.295-1.92-2.16c2.102,1.9,4.102,3.9,6,6
	C385.14,68.941,384.062,67.379,382.561,66.24z"/>
<path fill="#D6D4D4" d="M0,64.561c0-0.08,0-0.16,0-0.24c5.54,5.34,10.98,10.779,16.32,16.32C10.74,75.42,5.58,69.78,0,64.561z"/>
<path fill="#A19E9F" d="M16.32,80.641C10.98,75.1,5.54,69.66,0,64.32c0-0.08,0-0.16,0-0.24c14.18,13.98,28.26,28.061,42.24,42.24
	c-0.08,0-0.16,0-0.24,0C33.54,97.66,24.98,89.1,16.32,80.641z"/>
<path fill="#D6D4D4" d="M424.801,103.681c-0.657,1.021-1.743,1.615-2.399,2.64c-0.08,0-0.159,0-0.239,0
	c-0.013-0.413,0.185-0.615,0.479-0.72C423.506,105.105,423.936,104.176,424.801,103.681z"/>
<path fill="#D6D4D4" d="M426.721,102c1.22-1.581,2.861-2.737,4.08-4.318c0.865-0.495,1.295-1.427,2.16-1.922
	C430.98,97.94,428.901,100.021,426.721,102z"/>
<path fill="#D6D4D4" d="M434.881,94.08c1.219-1.581,2.861-2.738,4.08-4.32c0.865-0.494,1.295-1.425,2.16-1.92
	C439.141,90.021,437.061,92.101,434.881,94.08z"/>
<path fill="#D6D4D4" d="M443.041,86.16c1.219-1.581,2.861-2.739,4.08-4.32c0.864-0.495,1.295-1.425,2.16-1.92
	C447.301,82.101,445.221,84.181,443.041,86.16z"/>
<path fill="#D6D4D4" d="M451.201,78.24c1.219-1.581,2.86-2.739,4.08-4.32c0.863-0.495,1.295-1.425,2.16-1.92
	C455.461,74.181,453.381,76.26,451.201,78.24z"/>
<path fill="#D6D4D4" d="M459.361,70.32c1.219-1.581,2.859-2.739,4.08-4.32c0.502-0.298,0.9-0.698,1.198-1.2c0.08,0,0.16,0,0.24,0
	c0,0.08,0,0.16,0,0.24C462.9,66.659,461.342,68.701,459.361,70.32z"/>
<path fill="#A19E9F" d="M461.281,67.92c0.863-0.495,1.295-1.425,2.16-1.92c-1.221,1.581-2.861,2.739-4.08,4.32
	c-0.787,0.414-1.135,1.266-1.92,1.68C458.58,70.499,460.143,69.422,461.281,67.92z"/>
<path fill="#5F5D5E" d="M455.281,73.92c1.898-2.1,3.898-4.1,6-6c-1.14,1.502-2.701,2.579-3.84,4.08
	C456.576,72.495,456.146,73.425,455.281,73.92z"/>
<path fill="#5F5D5E" d="M390.48,74.4c-0.495-0.865-1.426-1.295-1.921-2.16c2.102,1.899,4.102,3.899,6,6
	C393.06,77.102,391.982,75.539,390.48,74.4z"/>
<path fill="#A19E9F" d="M453.121,75.84c0.864-0.495,1.295-1.425,2.16-1.92c-1.219,1.581-2.861,2.739-4.08,4.32
	c-0.786,0.414-1.134,1.267-1.92,1.68C450.42,78.419,451.982,77.342,453.121,75.84z"/>
<path fill="#5F5D5E" d="M447.121,81.84c1.898-2.1,3.898-4.1,6-6c-1.139,1.502-2.701,2.579-3.84,4.08
	C448.416,80.415,447.985,81.344,447.121,81.84z"/>
<path fill="#5F5D5E" d="M398.4,82.561c-0.495-0.865-1.426-1.296-1.92-2.16c2.101,1.898,4.101,3.898,6,6
	C400.979,85.262,399.902,83.699,398.4,82.561z"/>
<path fill="#A19E9F" d="M444.961,83.76c0.865-0.494,1.295-1.425,2.16-1.92c-1.219,1.581-2.861,2.739-4.08,4.32
	c-0.786,0.414-1.134,1.267-1.92,1.68C442.26,86.339,443.822,85.262,444.961,83.76z"/>
<path fill="#5F5D5E" d="M438.961,89.76c1.899-2.1,3.899-4.1,6-6c-1.139,1.503-2.701,2.579-3.84,4.08
	C440.256,88.335,439.826,89.265,438.961,89.76z"/>
<path fill="#5F5D5E" d="M406.32,90.719c-0.495-0.863-1.426-1.295-1.92-2.158c2.101,1.898,4.101,3.898,6,6
	C408.899,93.422,407.822,91.859,406.32,90.719z"/>
<path fill="#A19E9F" d="M436.801,91.68c0.865-0.494,1.295-1.426,2.16-1.921c-1.219,1.582-2.861,2.739-4.08,4.32
	c-0.786,0.414-1.134,1.268-1.92,1.68C434.1,94.259,435.662,93.182,436.801,91.68z"/>
<path fill="#5F5D5E" d="M430.801,97.681c1.9-2.102,3.9-4.102,6-6.001c-1.139,1.502-2.701,2.578-3.84,4.079
	C432.096,96.255,431.666,97.186,430.801,97.681z"/>
<path fill="#5F5D5E" d="M414.241,98.88c-0.495-0.863-1.425-1.295-1.921-2.16c2.141,1.78,3.859,3.981,6.001,5.762
	c-0.001,0.08,0,0.16,0,0.238C416.819,101.581,415.742,100.019,414.241,98.88z"/>
<path fill="#A19E9F" d="M428.641,99.601c0.865-0.495,1.295-1.426,2.16-1.92c-1.219,1.581-2.86,2.737-4.08,4.318
	c-0.786,0.414-1.134,1.268-1.92,1.682C425.939,102.179,427.502,101.102,428.641,99.601z"/>
<path fill="#5F5D5E" d="M422.641,105.601c1.9-2.102,3.9-4.102,6-6c-1.139,1.501-2.7,2.578-3.84,4.08
	C423.936,104.176,423.506,105.105,422.641,105.601z"/>
</svg>
