<?xml version="1.0" encoding="utf-8"?>
<!-- Generator: Adobe Illustrator 13.0.0, SVG Export Plug-In . SVG Version: 6.00 Build 14948)  -->
<!DOCTYPE svg PUBLIC "-//W3C//DTD SVG 1.1//EN" "http://www.w3.org/Graphics/SVG/1.1/DTD/svg11.dtd">
<svg version="1.1" id="Layer_1" xmlns="http://www.w3.org/2000/svg" xmlns:xlink="http://www.w3.org/1999/xlink" x="0px" y="0px"
	 width="223.2px" height="299.761px" viewBox="0 0 223.2 299.761" enable-background="new 0 0 223.2 299.761" xml:space="preserve">
<path fill="#DCDADA" d="M199.2,66.24c0.202-1.824,0.313,1.015,0.24,1.68c-0.08,0-0.16,0-0.24,0C199.2,67.36,199.2,66.8,199.2,66.24z
	"/>
<path fill="#B2AFB0" d="M199.2,67.92c0.08,0,0.16,0,0.24,0c0,54.321,0,108.64,0,162.96C198.881,177.041,199.36,122.159,199.2,67.92z
	"/>
<path fill="#2E2D2D" d="M0,253.201c0.789,3.771,0.378,8.741,0.48,13.199c-0.08,0-0.16,0-0.24,0c0-1.439,0-2.88,0-4.32
	c-0.158-1.842,0.317-4.316-0.24-5.76C0,255.28,0,254.24,0,253.201z"/>
<path fill="#5A5757" d="M0,256.32c0.558,1.442,0.082,3.918,0.24,5.76c-0.08,0-0.16,0-0.24,0C0,260.16,0,258.24,0,256.32z"/>
<path fill="#B2AFB0" d="M0,262.08c0.08,0,0.16,0,0.24,0c0,1.44,0,2.881,0,4.32c-0.16,3.762,0.319,8.159-0.24,11.521
	C0,272.641,0,267.36,0,262.08z"/>
<path fill="#B2AFB0" d="M54.24,298.32c-0.808-0.15-2.229,0.311-2.64-0.238C52.408,298.232,53.829,297.771,54.24,298.32z"/>
<path fill="#B2AFB0" d="M57.6,298.561c-0.651-0.147-1.905,0.306-2.16-0.24c1.12,0,2.24,0,3.36,0c0,0.08,0,0.16,0,0.24
	C58.4,298.561,58,298.561,57.6,298.561z"/>
<path fill="#5A5757" d="M58.8,298.561c0-0.08,0-0.16,0-0.24c0.48,0,0.96,0,1.44,0c0.4,0,0.8,0,1.2,0c0,0.08,0,0.16,0,0.24
	c-0.4,0-0.8,0-1.2,0C59.76,298.561,59.28,298.561,58.8,298.561z"/>
<path fill="#2E2D2D" d="M61.44,298.561c0-0.08,0-0.16,0-0.24c1.603,0.158,3.837-0.315,5.04,0.24c-0.64,0-1.28,0-1.92,0
	C63.52,298.561,62.48,298.561,61.44,298.561z"/>
<path fill="#B2AFB0" d="M163.681,298.561c0.332-0.547,1.67-0.09,2.399-0.24C165.749,298.869,164.411,298.41,163.681,298.561z"/>
<path fill="#DCDADA" d="M57.6,298.561c0.4,0,0.8,0,1.2,0c0.48,0,0.96,0,1.44,0c0,0.08,0,0.16,0,0.239
	C59.432,298.648,58.011,299.109,57.6,298.561z"/>
<path fill="#B2AFB0" d="M60.24,298.8c0-0.079,0-0.159,0-0.239c0.4,0,0.8,0,1.2,0c1.04,0,2.08,0,3.12,0c0,0.08,0,0.16,0,0.239
	c-0.48,0-0.96,0-1.44,0C62.16,298.8,61.2,298.8,60.24,298.8z"/>
<path fill="#5A5757" d="M64.56,298.8c0-0.079,0-0.159,0-0.239c0.64,0,1.28,0,1.92,0c0.56,0,1.12,0,1.68,0c0,0.08,0,0.16,0,0.239
	c-0.56,0-1.12,0-1.68,0C65.84,298.8,65.2,298.8,64.56,298.8z"/>
<path fill="#2E2D2D" d="M68.16,298.8c0-0.079,0-0.159,0-0.239c2.001,0.157,4.638-0.317,6.24,0.239c-0.8,0-1.6,0-2.4,0
	C70.72,298.8,69.44,298.8,68.16,298.8z"/>
<path fill="#B2AFB0" d="M159.84,298.8c0.41-0.549,1.832-0.088,2.641-0.239C162.069,299.109,160.648,298.648,159.84,298.8z"/>
<path fill="#DCDADA" d="M63.12,298.8c0.48,0,0.96,0,1.44,0c0.64,0,1.28,0,1.92,0c0,0.08,0,0.16,0,0.24
	C65.435,298.886,63.767,299.354,63.12,298.8z"/>
<path fill="#B2AFB0" d="M66.48,299.041c0-0.08,0-0.16,0-0.24c0.56,0,1.12,0,1.68,0c1.28,0,2.56,0,3.84,0c0,0.08,0,0.16,0,0.24
	c-0.64,0-1.28,0-1.92,0C68.88,299.041,67.68,299.041,66.48,299.041z"/>
<path fill="#5A5757" d="M72,299.041c0-0.08,0-0.16,0-0.24c0.8,0,1.6,0,2.4,0c0.8,0,1.6,0,2.4,0c0,0.08,0,0.16,0,0.24
	c-0.8,0-1.6,0-2.4,0C73.6,299.041,72.8,299.041,72,299.041z"/>
<path fill="#2E2D2D" d="M76.8,299.041c0-0.08,0-0.16,0-0.24c2.401,0.158,5.438-0.317,7.44,0.24c-0.96,0-1.92,0-2.88,0
	C79.84,299.041,78.32,299.041,76.8,299.041z"/>
<path fill="#2E2D2D" d="M148.561,299.041c0.964-0.556,2.956-0.084,4.318-0.24c0,0.08,0,0.16,0,0.24c-0.879,0-1.76,0-2.639,0
	C149.681,299.041,149.12,299.041,148.561,299.041z"/>
<path fill="#5A5757" d="M152.879,299.041c0-0.08,0-0.16,0-0.24c0.4,0,0.802,0,1.201,0c0.479,0,0.959,0,1.439,0c0,0.08,0,0.16,0,0.24
	c-0.48,0-0.96,0-1.439,0C153.681,299.041,153.28,299.041,152.879,299.041z"/>
<path fill="#B2AFB0" d="M155.521,299.041c0-0.08,0-0.16,0-0.24c1.04,0,2.08,0,3.12,0c-0.256,0.546-1.51,0.092-2.16,0.24
	C156.161,299.041,155.84,299.041,155.521,299.041z"/>
<path fill="#DCDADA" d="M70.08,299.041c0.64,0,1.28,0,1.92,0c0.8,0,1.6,0,2.4,0c0,0.08,0,0.16,0,0.239
	C73.037,299.125,71.044,299.596,70.08,299.041z"/>
<path fill="#B2AFB0" d="M74.4,299.28c0-0.079,0-0.159,0-0.239c0.8,0,1.6,0,2.4,0c1.52,0,3.04,0,4.56,0c0,0.08,0,0.16,0,0.239
	c-0.72,0-1.44,0-2.16,0C77.6,299.28,76,299.28,74.4,299.28z"/>
<path fill="#5A5757" d="M81.36,299.28c0-0.079,0-0.159,0-0.239c0.96,0,1.92,0,2.88,0c0.72,0,1.44,0,2.16,0c0,0.08,0,0.16,0,0.239
	c-0.72,0-1.44,0-2.16,0C83.28,299.28,82.32,299.28,81.36,299.28z"/>
<path fill="#2E2D2D" d="M86.4,299.28c0-0.079,0-0.159,0-0.239c2.081,0.158,4.798-0.317,6.48,0.239c-0.72,0-1.44,0-2.16,0
	C89.28,299.28,87.84,299.28,86.4,299.28z"/>
<path fill="#2E2D2D" d="M141.36,299.28c1.441-0.558,3.918-0.081,5.76-0.239c0,0.08,0,0.16,0,0.239c-1.119,0-2.24,0-3.358,0
	C142.959,299.28,142.161,299.28,141.36,299.28z"/>
<path fill="#5A5757" d="M147.12,299.28c0-0.079,0-0.159,0-0.239c0.48,0,0.961,0,1.44,0c0.56,0,1.12,0,1.681,0c0,0.08,0,0.16,0,0.239
	c-0.561,0-1.121,0-1.681,0C148.081,299.28,147.601,299.28,147.12,299.28z"/>
<path fill="#B2AFB0" d="M150.241,299.28c0-0.079,0-0.159,0-0.239c0.879,0,1.76,0,2.639,0c0.4,0,0.802,0,1.201,0
	c0,0.08,0,0.16,0,0.239c-0.801,0-1.601,0-2.399,0C151.2,299.28,150.721,299.28,150.241,299.28z"/>
<path fill="#DCDADA" d="M154.081,299.28c0-0.079,0-0.159,0-0.239c0.479,0,0.959,0,1.439,0c0.318,0,0.641,0,0.96,0
	C156.147,299.587,154.81,299.13,154.081,299.28z"/>
<path fill="#DCDADA" d="M79.2,299.28c0.72,0,1.44,0,2.16,0c0.96,0,1.92,0,2.88,0c0,0.08,0,0.16,0,0.24
	C82.638,299.363,80.403,299.837,79.2,299.28z"/>
<path fill="#B2AFB0" d="M84.24,299.521c0-0.08,0-0.16,0-0.24c0.72,0,1.44,0,2.16,0c1.44,0,2.88,0,4.32,0c0,0.08,0,0.16,0,0.24
	c-0.64,0-1.28,0-1.92,0C87.28,299.521,85.76,299.521,84.24,299.521z"/>
<path fill="#5A5757" d="M90.72,299.521c0-0.08,0-0.16,0-0.24c0.72,0,1.44,0,2.16,0c0.56,0,1.12,0,1.68,0c0,0.08,0,0.16,0,0.24
	c-0.56,0-1.12,0-1.68,0C92.16,299.521,91.44,299.521,90.72,299.521z"/>
<path fill="#5A5757" d="M139.2,299.521c0-0.08,0-0.16,0-0.24c0.721,0,1.44,0,2.16,0c0.801,0,1.6,0,2.4,0c0,0.08,0,0.16,0,0.24
	c-0.801,0-1.602,0-2.4,0C140.641,299.521,139.92,299.521,139.2,299.521z"/>
<path fill="#B2AFB0" d="M143.761,299.521c0-0.08,0-0.16,0-0.24c1.118,0,2.239,0,3.358,0c0.48,0,0.961,0,1.44,0c0,0.08,0,0.16,0,0.24
	c-1.04,0-2.08,0-3.12,0C144.879,299.521,144.32,299.521,143.761,299.521z"/>
<path fill="#DCDADA" d="M148.561,299.521c0-0.08,0-0.16,0-0.24c0.561,0,1.12,0,1.68,0c0.48,0,0.961,0,1.44,0
	C151.112,299.833,149.526,299.367,148.561,299.521z"/>
<path fill="#DCDADA" d="M88.8,299.761c0-0.08,0-0.16,0-0.24c0.64,0,1.28,0,1.92,0c0.72,0,1.44,0,2.16,0c0,0.08,0,0.16,0,0.24
	C91.52,299.761,90.16,299.761,88.8,299.761z"/>
<path fill="#B2AFB0" d="M92.88,299.761c0-0.08,0-0.16,0-0.24c0.56,0,1.12,0,1.68,0c0.64,0,1.28,0,1.92,0c0,0.08,0,0.16,0,0.24
	C95.28,299.761,94.08,299.761,92.88,299.761z"/>
<path fill="#5A5757" d="M96.48,299.761c0-0.08,0-0.16,0-0.24c2.561,0.159,5.759-0.318,7.92,0.24
	C101.76,299.761,99.12,299.761,96.48,299.761z"/>
<path fill="#5A5757" d="M129.12,299.761c1.922-0.559,4.879-0.081,7.2-0.24c0,0.08,0,0.16,0,0.24
	C133.92,299.761,131.521,299.761,129.12,299.761z"/>
<path fill="#B2AFB0" d="M136.32,299.761c0-0.08,0-0.16,0-0.24c0.96,0,1.921,0,2.88,0c0.721,0,1.44,0,2.16,0c0,0.08,0,0.16,0,0.24
	C139.681,299.761,138,299.761,136.32,299.761z"/>
<path fill="#DCDADA" d="M141.36,299.761c0-0.08,0-0.16,0-0.24c0.801,0,1.6,0,2.4,0c0.56,0,1.119,0,1.68,0c0,0.08,0,0.16,0,0.24
	C144.081,299.761,142.721,299.761,141.36,299.761z"/>
<path fill="#B2AFB0" d="M44.4,23.76c0.315-0.085,0.377-0.423,0.72-0.479c-0.495,0.865-1.425,1.295-1.92,2.16
	c-0.582,0.379-1.062,0.859-1.44,1.44c-0.944,0.576-1.456,1.584-2.4,2.16c0.046-0.194,0.241-0.239,0.24-0.48
	C41.3,27.06,42.9,25.46,44.4,23.76z"/>
<path fill="#DCDADA" d="M39.6,28.56c1.5-1.7,3.1-3.3,4.8-4.8C42.9,25.46,41.3,27.06,39.6,28.56z"/>
<path fill="#DCDADA" d="M28.56,45.36c0.295-1.384,0.855-2.505,1.68-3.36C29.814,43.254,29.255,44.375,28.56,45.36z"/>
<path fill="#B2AFB0" d="M1.92,240.24c0.7-0.9,1.5-1.699,2.4-2.398c-0.162,0.558-0.797,0.643-0.96,1.199
	c-0.204-0.045-0.226,0.094-0.24,0.24C2.562,239.443,2.478,240.078,1.92,240.24z"/>
<path fill="#2E2D2D" d="M114.721,0c1.119,0,2.238,0,3.359,0c14.654,1.265,27.112,4.727,38.16,9.6c1.465,0.934,3.065,1.733,4.799,2.4
	c0.027,0.454,0.795,0.167,0.722,0.72C148.75,5.811,133.286,1.354,114.721,0z"/>
<path fill="#5A5757" d="M162.241,12.96c0.695,0.184,1.381,0.38,1.68,0.96C163.224,13.736,162.54,13.541,162.241,12.96z"/>
<path fill="#2E2D2D" d="M169.2,17.28c0.752,0.208,1.325,0.594,1.68,1.2C170.129,18.272,169.555,17.885,169.2,17.28z"/>
<path fill="#2E2D2D" d="M172.801,19.92c1.878,1.002,3.195,2.564,4.8,3.84c1.5,1.7,3.101,3.3,4.8,4.8
	c1.307,1.575,2.842,2.918,3.84,4.8C182.168,28.472,177.661,24.019,172.801,19.92z"/>
<path fill="#2E2D2D" d="M188.161,36c-0.605-0.354-0.992-0.928-1.201-1.68C187.565,34.675,187.952,35.248,188.161,36z"/>
<path fill="#2E2D2D" d="M190.32,39.36c-0.581-0.458-1.017-1.063-1.2-1.92C189.702,37.899,190.137,38.503,190.32,39.36z"/>
<path fill="#090B0C" d="M190.32,39.36c0.474,0.166,0.64,0.64,0.72,1.2c0.36,1,0.683,2.039,1.44,2.64
	c0.106,0.613,0.337,1.104,0.72,1.44c2.922,6.758,5.271,14.089,5.76,23.28c0,54.321,0,108.64,0,162.96
	c0.771,0.75,2.244,0.797,3.602,0.961c4.943,1.455,9.684,3.115,13.92,5.279c1.059,0.381,2.034,0.846,2.641,1.68
	c1.996,1.765,3.471,4.051,4.08,7.199c0,11.36,0,22.722,0,34.08c-1,2.922-2.807,5.035-4.801,6.961
	c-0.624,0.735-1.318,1.401-2.4,1.681c-0.695,0.184-1.379,0.38-1.68,0.96c-0.613,0.105-1.104,0.337-1.439,0.72
	c-16.446,5.953-38.096,6.704-58.801,8.399c-0.398,0-0.799,0-1.199,0c-1.363,0.156-3.355-0.314-4.319,0.24c-0.479,0-0.96,0-1.44,0
	c-1.842,0.158-4.316-0.317-5.76,0.239c-0.72,0-1.439,0-2.16,0c-6.342-0.021-12.582,0.058-18.479,0.479c-2.16,0-4.32,0-6.48,0
	c-6.329-0.391-12.958-0.48-19.68-0.479c-0.56,0-1.12,0-1.68,0c-1.682-0.558-4.399-0.081-6.48-0.239c-0.72,0-1.44,0-2.16,0
	c-2.001-0.559-5.039-0.082-7.44-0.24c-0.8,0-1.6,0-2.4,0c-1.603-0.557-4.239-0.082-6.24-0.239c-0.56,0-1.12,0-1.68,0
	c-1.203-0.558-3.438-0.082-5.04-0.24c-0.4,0-0.8,0-1.2,0c-21.252-1.706-43.362-2.558-56.88-12c-0.213-0.106-0.429-0.211-0.48-0.479
	c-1.208-1.592-2.105-3.494-2.88-5.521c0-0.479,0-0.96,0-1.438c1.084-3.236,0.187-8.454,0.48-12.48
	c-0.102-4.458,0.309-9.429-0.48-13.199c0-2.561,0-5.121,0-7.681c0.635-1.205,0.866-2.813,1.44-4.08
	c-0.013-0.413,0.185-0.614,0.48-0.72c0.481-0.398,1.116-0.645,1.2-1.439c0.014-0.146,0.036-0.285,0.24-0.24
	c1.4-0.92,2.758-1.883,4.08-2.881c0.447-0.031,0.802-0.156,0.96-0.479c4.557-1.924,9.998-2.963,15.12-4.32
	c0-49.861,0-102.124,0-152.64c0-8.78,0.058-16.481,1.92-23.52c1.794-6.782,4.624-12.154,7.68-17.52
	c0.148-0.652,0.476-1.124,0.96-1.44c1.058-1.022,1.899-2.261,2.64-3.6c0.016-0.704,0.548-0.892,0.96-1.2
	c1.435-1.365,2.725-2.875,4.08-4.32c0-0.08,0-0.16,0-0.24c2.461-2.099,4.855-4.264,7.2-6.48c0.789-0.891,1.743-1.617,2.88-2.16
	c1.601-0.799,3.041-1.759,4.32-2.88c1.366-0.554,2.54-1.3,3.6-2.16c1.156-0.444,2.363-0.837,3.12-1.68
	c0.774-0.186,1.418-0.501,1.92-0.96C76.906,4.906,91.002,1.242,107.52,0c2.4,0,4.8,0,7.201,0
	c18.564,1.354,34.029,5.811,47.039,12.72c0.279-0.039,0.428,0.053,0.48,0.24c0.299,0.581,0.982,0.776,1.68,0.96
	c0.561,0.08,1.033,0.246,1.199,0.72c0.459,0.581,1.063,1.017,1.92,1.2c0.885,0.315,1.604,0.798,2.16,1.44
	c0.354,0.604,0.93,0.992,1.68,1.2c0.828,0.292,1.447,0.793,1.922,1.44c4.859,4.099,9.367,8.552,13.438,13.44
	c0.353,0.209,0.761,0.359,0.72,0.96c0.209,0.751,0.596,1.325,1.201,1.68c0.483,0.316,0.812,0.788,0.959,1.44
	C189.304,38.296,189.739,38.901,190.32,39.36z"/>
<path fill="#2E2D2D" d="M192.48,43.2c-0.759-0.601-1.08-1.641-1.44-2.64c0.701,0.339,0.762,1.318,1.201,1.92
	C192.368,42.673,192.491,42.87,192.48,43.2z"/>
<path fill="#2E2D2D" d="M193.2,44.64c0.262,0.059,0.163,0.477,0.48,0.48c2.59,6.21,5.062,12.537,5.279,21.12c0,0.56,0,1.12,0,1.68
	C198.471,58.729,196.122,51.398,193.2,44.64z"/>
<path fill="#5A5757" d="M199.2,67.92c0.16,54.239-0.318,109.121,0.24,162.96c0.996,0.443,2.5,0.381,3.359,0.961
	c-0.079,0-0.159,0-0.239,0c-1.356-0.164-2.83-0.211-3.601-0.961c0-54.32,0-108.639,0-162.96c0-0.56,0-1.12,0-1.68
	c0.08,0,0.16,0,0.24,0C199.2,66.8,199.2,67.36,199.2,67.92z"/>
<path fill="#2E2D2D" d="M202.561,231.841c0.08,0,0.16,0,0.24,0c3.82,0.578,6.762,2.037,10.08,3.119
	c0.984,0.694,2.104,1.254,3.359,1.681c0.045,0.194,0.24,0.239,0.239,0.479C212.245,234.957,207.504,233.296,202.561,231.841z"/>
<path fill="#2E2D2D" d="M219.12,238.8c2.166,1.035,3.133,3.27,4.08,5.521c0,0.562,0,1.12,0,1.681
	C222.59,242.851,221.116,240.564,219.12,238.8z"/>
<path fill="#2E2D2D" d="M223.2,280.08c0,0.24,0,0.48,0,0.721c-0.541,1.299-1.035,2.644-1.92,3.601
	c-0.98,0.779-1.859,1.66-2.64,2.642c-0.08,0-0.16,0-0.24,0C220.395,285.115,222.202,283.001,223.2,280.08z"/>
<path fill="#2E2D2D" d="M214.32,289.681c0.3-0.58,0.983-0.776,1.681-0.96c-0.066,0.493-0.642,0.479-0.961,0.72
	C214.848,289.567,214.65,289.691,214.32,289.681z"/>
<path fill="#2E2D2D" d="M154.081,298.8c20.705-1.695,42.354-2.446,58.801-8.399c-0.061,0.261-0.479,0.163-0.48,0.479
	c-13.006,4.914-30.052,5.789-46.32,7.439c-0.729,0.15-2.066-0.307-2.398,0.24c-0.4,0-0.801,0-1.2,0
	c-0.81,0.152-2.229-0.311-2.642,0.24c-0.398,0-0.799,0-1.198,0c-1.04,0-2.08,0-3.12,0C155.04,298.8,154.561,298.8,154.081,298.8z"/>
<path fill="#2E2D2D" d="M120.721,299.761c5.896-0.424,12.138-0.502,18.479-0.48c0,0.08,0,0.16,0,0.24c-0.959,0-1.92,0-2.88,0
	c-2.321,0.159-5.278-0.318-7.2,0.24C126.32,299.761,123.521,299.761,120.721,299.761z"/>
<path fill="#2E2D2D" d="M94.56,299.521c0-0.08,0-0.16,0-0.24c6.722-0.001,13.352,0.09,19.681,0.48c-3.281,0-6.561,0-9.841,0
	c-2.162-0.559-5.359-0.081-7.92-0.24C95.84,299.521,95.2,299.521,94.56,299.521z"/>
<path fill="#2E2D2D" d="M3.36,286.32c13.518,9.442,35.628,10.293,56.88,12c-0.48,0-0.96,0-1.44,0c-1.12,0-2.24,0-3.36,0
	c-0.4,0-0.8,0-1.2,0c-0.411-0.549-1.832-0.088-2.64-0.238c-17.664-1.617-35.378-3.184-47.28-10.562
	C4.158,286.962,3.522,286.878,3.36,286.32z"/>
<path fill="#2E2D2D" d="M0,280.32c0.774,2.025,1.671,3.93,2.88,5.521c-0.558-0.163-0.643-0.799-1.2-0.961
	c-0.538-1.223-1.231-2.289-1.68-3.601C0,280.96,0,280.641,0,280.32z"/>
<path fill="#5A5757" d="M0.48,266.4c-0.293,4.025,0.604,9.244-0.48,12.48c0-0.32,0-0.641,0-0.961c0.56-3.36,0.081-7.76,0.24-11.521
	C0.32,266.4,0.4,266.4,0.48,266.4z"/>
<path fill="#2E2D2D" d="M1.44,241.44c-0.574,1.267-0.805,2.875-1.44,4.08c0-0.399,0-0.8,0-1.2
	C0.589,243.47,0.526,241.966,1.44,241.44z"/>
<path fill="#2E2D2D" d="M3.12,239.28c-0.084,0.796-0.719,1.041-1.2,1.44c0-0.16,0-0.32,0-0.48
	C2.478,240.078,2.562,239.443,3.12,239.28z"/>
<path fill="#2E2D2D" d="M7.44,236.16c-1.322,0.998-2.68,1.961-4.08,2.881c0.163-0.558,0.798-0.643,0.96-1.199c0.16,0,0.32,0,0.48,0
	c0.389-0.731,1.218-1.022,1.92-1.44C6.913,236.273,7.109,236.15,7.44,236.16z"/>
<path fill="#2E2D2D" d="M28.56,45.36c0.695-0.985,1.254-2.106,1.68-3.36c1.156-1.244,1.602-3.198,2.88-4.32
	c-3.056,5.366-5.886,10.738-7.68,17.52c-1.862,7.039-1.92,14.74-1.92,23.52c0,50.516,0,102.78,0,152.64
	c-5.122,1.356-10.563,2.396-15.12,4.32c0.066-0.494,0.894-0.228,0.96-0.72c3.978-1.543,8.5-2.541,12.96-3.602
	c0.502,0.102,0.636-0.164,0.96-0.24c0-54.959,0-109.919,0-164.879C23.786,58.026,26.017,51.537,28.56,45.36z"/>
<path fill="#2E2D2D" d="M36.72,32.64c-0.741,1.339-1.583,2.578-2.64,3.6C34.733,34.813,35.668,33.668,36.72,32.64z"/>
<path fill="#2E2D2D" d="M37.68,31.44c0.109-1.011,1.135-1.105,1.44-1.92c1.023-0.657,1.617-1.743,2.64-2.4
	C40.405,28.564,39.115,30.075,37.68,31.44z"/>
<path fill="#2E2D2D" d="M48.96,20.4c-2.344,2.216-4.739,4.381-7.2,6.48c0.378-0.581,0.858-1.061,1.44-1.44
	c0.9-0.699,1.7-1.5,2.4-2.4C46.77,22.209,47.58,21.02,48.96,20.4z"/>
<path fill="#2E2D2D" d="M56.16,15.36c-1.279,1.121-2.719,2.081-4.32,2.88C53.042,17.042,54.481,16.081,56.16,15.36z"/>
<path fill="#2E2D2D" d="M59.76,13.2c0.493-0.788,1.644-0.917,2.4-1.44c0.193-0.127,0.39-0.25,0.72-0.24
	C62.123,12.363,60.916,12.756,59.76,13.2z"/>
<path fill="#DCDADA" d="M212.881,234.96c1.384,0.295,2.505,0.854,3.359,1.681C214.986,236.214,213.866,235.655,212.881,234.96z"/>
<path fill="#DCDADA" d="M181.681,27.36c-0.979-0.779-1.86-1.659-2.642-2.64C180.021,25.5,180.9,26.38,181.681,27.36z"/>
<path fill="#B2AFB0" d="M181.92,27.84c-1.301-1.1-2.5-2.3-3.601-3.6c0.343,0.057,0.405,0.395,0.72,0.479
	c0.78,0.98,1.66,1.86,2.642,2.64C181.68,27.601,181.875,27.646,181.92,27.84z"/>
<path fill="#DCDADA" d="M156.241,9.6c1.864,0.534,3.465,1.334,4.799,2.4C159.307,11.333,157.706,10.534,156.241,9.6z"/>
<path fill="#B2AFB0" d="M62.16,11.76c0.757-0.843,1.964-1.236,3.12-1.68c-0.06,0.261-0.478,0.163-0.48,0.48
	c-0.502,0.458-1.146,0.774-1.92,0.96C62.55,11.51,62.353,11.633,62.16,11.76z"/>
<path fill="#5A5757" d="M56.16,15.36c0.977-0.943,2.18-1.66,3.6-2.16C58.7,14.06,57.526,14.806,56.16,15.36z"/>
<path fill="#5A5757" d="M165.12,14.64c0.856,0.184,1.461,0.619,1.92,1.2C166.184,15.657,165.579,15.221,165.12,14.64z"/>
<path fill="#5A5757" d="M45.12,23.28c0.241,0,0.286-0.195,0.48-0.24c-0.7,0.9-1.5,1.701-2.4,2.4
	C43.695,24.575,44.625,24.145,45.12,23.28z"/>
<path fill="#5A5757" d="M182.4,28.56c-1.7-1.5-3.3-3.1-4.8-4.8c0.343,0.057,0.404,0.396,0.72,0.48c1.101,1.3,2.3,2.5,3.601,3.6
	C181.978,28.183,182.315,28.245,182.4,28.56z"/>
<path fill="#5A5757" d="M39.36,29.04c0.944-0.576,1.457-1.584,2.4-2.16c0,0.08,0,0.16,0,0.24c-1.023,0.657-1.617,1.743-2.64,2.4
	C39.119,29.279,39.314,29.234,39.36,29.04z"/>
<path fill="#B2AFB0" d="M192.48,43.2c0.011-0.331-0.112-0.527-0.239-0.72c0.758,0.601,1.079,1.641,1.439,2.64
	c-0.317-0.003-0.221-0.421-0.48-0.48C192.817,44.304,192.586,43.813,192.48,43.2z"/>
<path fill="#B2AFB0" d="M22.32,231.36c0.041-0.278,0.379-0.261,0.72-0.239c0.16-54.877-0.32-110.402,0.24-164.88
	c0,54.96,0,109.919,0,164.88C22.956,231.196,22.822,231.462,22.32,231.36z"/>
<path fill="#B2AFB0" d="M6.72,236.4c0.601-0.759,1.64-1.079,2.64-1.439c-0.066,0.494-0.894,0.227-0.96,0.721
	c-0.158,0.322-0.513,0.447-0.96,0.479C7.109,236.15,6.913,236.273,6.72,236.4z"/>
<path fill="#B2AFB0" d="M1.68,284.88c0.557,0.162,0.642,0.798,1.2,0.961c0.051,0.269,0.267,0.373,0.48,0.479
	c0.163,0.559,0.798,0.643,0.96,1.2C3.34,286.742,2.459,285.861,1.68,284.88z"/>
<path fill="#5A5757" d="M218.641,287.041c0.779-0.979,1.658-1.86,2.641-2.641c0,0.08,0,0.16,0,0.24c-0.9,0.699-1.701,1.499-2.4,2.4
	C218.801,287.041,218.721,287.041,218.641,287.041z"/>
<path fill="#B2AFB0" d="M218.881,287.041c0.699-0.9,1.498-1.701,2.398-2.399C220.581,285.541,219.782,286.341,218.881,287.041z"/>
<path fill="#B2AFB0" d="M214.32,289.681c0.33,0.011,0.527-0.113,0.72-0.24c-0.601,0.76-1.64,1.08-2.64,1.439
	c0.003-0.316,0.421-0.219,0.479-0.479C213.217,290.018,213.708,289.787,214.32,289.681z"/>
<path fill="#2E2D2D" d="M65.28,10.08C76.373,4.853,89.187,1.347,104.16,0c1.12,0,2.24,0,3.36,0
	C91.002,1.242,76.906,4.906,64.8,10.56C64.803,10.243,65.221,10.341,65.28,10.08z"/>
</svg>
