<?xml version="1.0" encoding="utf-8"?>
<!-- Generator: Adobe Illustrator 13.0.0, SVG Export Plug-In . SVG Version: 6.00 Build 14948)  -->
<!DOCTYPE svg PUBLIC "-//W3C//DTD SVG 1.1//EN" "http://www.w3.org/Graphics/SVG/1.1/DTD/svg11.dtd">
<svg version="1.1" id="Layer_1" xmlns="http://www.w3.org/2000/svg" xmlns:xlink="http://www.w3.org/1999/xlink" x="0px" y="0px"
	 width="241.372px" height="495.451px" viewBox="0 0 241.372 495.451" enable-background="new 0 0 241.372 495.451"
	 xml:space="preserve">
<path fill="#D3D3D3" d="M145.932-0.465c2.801-0.559,6.64-0.081,9.84-0.24c0,0.08,0,0.16,0,0.24c-0.159,0-0.318,0-0.479,0
	c-2.08,0-4.16,0-6.24,0C148.012-0.465,146.972-0.465,145.932-0.465z"/>
<path fill="#949494" d="M155.771-0.465c0-0.08,0-0.16,0-0.24c1.04,0,2.08,0,3.12,0s2.08,0,3.119,0c0,0.08,0,0.16,0,0.24
	C159.932-0.465,157.852-0.465,155.771-0.465z"/>
<path fill="#D3D3D3" d="M133.211-0.225c2.722-0.559,6.479-0.081,9.601-0.24c0,0.08,0,0.16,0,0.24c-0.159,0-0.319,0-0.479,0
	c-2,0-4,0-6,0C135.292-0.225,134.252-0.225,133.211-0.225z"/>
<path fill="#949494" d="M142.812-0.225c0-0.08,0-0.16,0-0.24c1.04,0,2.08,0,3.12,0s2.08,0,3.119,0c0,0.08,0,0.16,0,0.24
	C146.972-0.225,144.892-0.225,142.812-0.225z"/>
<path fill="#4B4B4B" d="M149.051-0.225c0-0.08,0-0.16,0-0.24c2.08,0,4.16,0,6.24,0c0,0.08,0,0.16,0,0.24c-1.92,0-3.84,0-5.76,0
	C149.372-0.225,149.211-0.225,149.051-0.225z"/>
<path fill="#252424" d="M155.292-0.225c0-0.08,0-0.16,0-0.24c0.16,0,0.32,0,0.479,0c2.08,0,4.16,0,6.24,0c0.079,0,0.159,0,0.239,0
	C160.411,0.094,157.534-0.383,155.292-0.225z"/>
<path fill="#D3D3D3" d="M120.252,0.016c2.721-0.56,6.479-0.081,9.6-0.24c0,0.08,0,0.16,0,0.24c-0.08,0-0.16,0-0.239,0
	c-2.079,0-4.159,0-6.239,0C122.333,0.016,121.292,0.016,120.252,0.016z"/>
<path fill="#949494" d="M129.852,0.016c0-0.08,0-0.16,0-0.24c1.12,0,2.24,0,3.359,0c1.041,0,2.08,0,3.121,0c0,0.08,0,0.16,0,0.24
	C134.172,0.016,132.012,0.016,129.852,0.016z"/>
<path fill="#252424" d="M142.333,0.016c0-0.08,0-0.16,0-0.24c0.16,0,0.319,0,0.479,0c2.08,0,4.16,0,6.24,0c0.16,0,0.32,0,0.48,0
	C147.61,0.333,144.653-0.144,142.333,0.016z"/>
<path fill="#D3D3D3" d="M107.292,0.255c2.801-0.559,6.639-0.081,9.839-0.24c0,0.08,0,0.16,0,0.24c-0.08,0-0.159,0-0.239,0
	c-2.08,0-4.16,0-6.24,0C109.532,0.255,108.412,0.255,107.292,0.255z"/>
<path fill="#949494" d="M117.131,0.255c0-0.08,0-0.16,0-0.24c1.041,0,2.08,0,3.121,0c1.039,0,2.08,0,3.119,0c0,0.08,0,0.16,0,0.24
	C121.292,0.255,119.211,0.255,117.131,0.255z"/>
<path fill="#4B4B4B" d="M123.372,0.255c0-0.08,0-0.16,0-0.24c2.08,0,4.16,0,6.24,0c0,0.08,0,0.16,0,0.24c-2,0-4,0-6,0
	C123.532,0.255,123.452,0.255,123.372,0.255z"/>
<path fill="#252424" d="M129.612,0.255c0-0.08,0-0.16,0-0.24c0.079,0,0.159,0,0.239,0c2.16,0,4.319,0,6.479,0c0.08,0,0.16,0,0.24,0
	C134.73,0.574,131.854,0.097,129.612,0.255z"/>
<path fill="#D3D3D3" d="M94.572,0.495c2.721-0.559,6.479-0.081,9.6-0.24c0,0.08,0,0.16,0,0.24c-0.16,0-0.32,0-0.48,0c-2,0-4,0-6,0
	C96.652,0.495,95.612,0.495,94.572,0.495z"/>
<path fill="#949494" d="M104.172,0.495c0-0.08,0-0.16,0-0.24c1.04,0,2.08,0,3.12,0c1.12,0,2.24,0,3.36,0c0,0.08,0,0.16,0,0.24
	C108.492,0.495,106.332,0.495,104.172,0.495z"/>
<path fill="#4B4B4B" d="M110.652,0.495c0-0.08,0-0.16,0-0.24c2.08,0,4.16,0,6.24,0c0,0.08,0,0.16,0,0.24c-2,0-4,0-6,0
	C110.812,0.495,110.732,0.495,110.652,0.495z"/>
<path fill="#252424" d="M116.892,0.495c0-0.08,0-0.16,0-0.24c0.08,0,0.159,0,0.239,0c2.08,0,4.16,0,6.24,0c0.08,0,0.16,0,0.24,0
	C121.85,0.813,119.053,0.337,116.892,0.495z"/>
<path fill="#949494" d="M91.452,0.735c0-0.08,0-0.16,0-0.24c1.04,0,2.08,0,3.12,0c1.04,0,2.08,0,3.12,0c0,0.08,0,0.16,0,0.24
	C95.612,0.735,93.532,0.735,91.452,0.735z"/>
<path fill="#4B4B4B" d="M97.692,0.735c0-0.08,0-0.16,0-0.24c2,0,4,0,6,0c0,0.08,0,0.16,0,0.24c-1.92,0-3.84,0-5.76,0
	C97.852,0.735,97.772,0.735,97.692,0.735z"/>
<path fill="#252424" d="M103.692,0.735c0-0.08,0-0.16,0-0.24c0.16,0,0.32,0,0.48,0c2.16,0,4.32,0,6.48,0c0.08,0,0.16,0,0.24,0
	C108.97,1.054,106.013,0.577,103.692,0.735z"/>
<path fill="#4B4B4B" d="M84.972,0.976c0-0.08,0-0.16,0-0.24c2,0,4,0,6,0c0,0.08,0,0.16,0,0.24c-1.92,0-3.84,0-5.76,0
	C85.132,0.976,85.052,0.976,84.972,0.976z"/>
<path fill="#252424" d="M90.972,0.976c0-0.08,0-0.16,0-0.24c0.16,0,0.32,0,0.48,0c2.08,0,4.16,0,6.24,0c0.08,0,0.16,0,0.24,0
	C96.09,1.293,93.213,0.816,90.972,0.976z"/>
<path fill="#252424" d="M82.572,2.175c0-0.4,0-0.8,0-1.2c0.8,0,1.6,0,2.4,0c0.08,0,0.16,0,0.24,0
	c-0.894,0.466-2.862-0.143-2.64,1.44C82.572,2.335,82.572,2.255,82.572,2.175z"/>
<path fill="#4B4B4B" d="M82.332,2.175c0.08,0,0.16,0,0.24,0c0,0.08,0,0.16,0,0.24c0,2.4,0,4.8,0,7.2c-0.08,0-0.16,0-0.24,0
	C82.332,7.135,82.332,4.655,82.332,2.175z"/>
<path fill="#252424" d="M82.332,9.615c0.08,0,0.16,0,0.24,0c-0.159,2.801,0.319,6.239-0.24,8.64c0-0.08,0-0.16,0-0.24
	c0-2.64,0-5.28,0-7.92C82.332,9.936,82.332,9.775,82.332,9.615z"/>
<path fill="#949494" d="M82.092,10.095c0.08,0,0.16,0,0.24,0c0,2.64,0,5.28,0,7.92c-0.08,0-0.16,0-0.24,0c0-1.36,0-2.72,0-4.08
	C82.092,12.655,82.092,11.375,82.092,10.095z"/>
<path fill="#D3D3D3" d="M82.092,13.936c0,1.36,0,2.72,0,4.08c0,2.479,0,4.96,0,7.439c0,0.16,0,0.32,0,0.48c-0.08,0-0.16,0-0.24,0
	C82.011,22.015,81.532,17.456,82.092,13.936z"/>
<path fill="#4B4B4B" d="M82.092,18.016c0.08,0,0.16,0,0.24,0c0,0.08,0,0.16,0,0.24c0,2.4,0,4.8,0,7.2c-0.08,0-0.16,0-0.24,0
	C82.092,22.976,82.092,20.495,82.092,18.016z"/>
<path fill="#252424" d="M82.092,25.455c0.08,0,0.16,0,0.24,0c-0.159,2.721,0.319,6.079-0.24,8.4c0-0.08,0-0.16,0-0.24
	c0-2.56,0-5.12,0-7.68C82.092,25.775,82.092,25.615,82.092,25.455z"/>
<path fill="#949494" d="M81.852,25.936c0.08,0,0.16,0,0.24,0c0,2.56,0,5.12,0,7.68c-0.08,0-0.16,0-0.24,0c0-1.28,0-2.56,0-3.84
	C81.852,28.495,81.852,27.215,81.852,25.936z"/>
<path fill="#D3D3D3" d="M81.852,29.775c0,1.28,0,2.56,0,3.84c0,2.56,0,5.12,0,7.68c0,0.08,0,0.16,0,0.24c-0.08,0-0.16,0-0.24,0
	C81.771,37.695,81.292,33.216,81.852,29.775z"/>
<path fill="#252424" d="M81.852,41.535c0-0.08,0-0.16,0-0.24c0.08,0,0.16,0,0.24,0c-0.159,2.721,0.319,6.079-0.24,8.4
	c0-0.08,0-0.16,0-0.24C81.852,46.815,81.852,44.175,81.852,41.535z"/>
<path fill="#949494" d="M81.612,41.535c0.08,0,0.16,0,0.24,0c0,2.64,0,5.28,0,7.92c-0.08,0-0.16,0-0.24,0c0-1.28,0-2.56,0-3.84
	C81.612,44.255,81.612,42.896,81.612,41.535z"/>
<path fill="#D3D3D3" d="M81.612,45.615c0,1.28,0,2.56,0,3.84c0,2.56,0,5.12,0,7.68c0,0.08,0,0.16,0,0.24c-0.08,0-0.16,0-0.24,0
	C81.531,53.535,81.053,49.056,81.612,45.615z"/>
<path fill="#4B4B4B" d="M81.612,49.455c0.08,0,0.16,0,0.24,0c0,0.08,0,0.16,0,0.24c0,2.48,0,4.96,0,7.44c-0.08,0-0.16,0-0.24,0
	C81.612,54.575,81.612,52.015,81.612,49.455z"/>
<path fill="#252424" d="M81.612,57.375c0-0.08,0-0.16,0-0.24c0.08,0,0.16,0,0.24,0c-0.159,2.721,0.319,6.079-0.24,8.4
	c0-0.08,0-0.16,0-0.24C81.612,62.655,81.612,60.015,81.612,57.375z"/>
<path fill="#949494" d="M81.372,57.375c0.08,0,0.16,0,0.24,0c0,2.64,0,5.28,0,7.92c-0.08,0-0.16,0-0.24,0c0-1.36,0-2.72,0-4.08
	C81.372,59.936,81.372,58.655,81.372,57.375z"/>
<path fill="#D3D3D3" d="M81.372,61.215c0,1.36,0,2.72,0,4.08c0,2.56,0,5.12,0,7.68c0,0.08,0,0.16,0,0.24c-0.08,0-0.16,0-0.24,0
	C81.292,69.295,80.812,64.736,81.372,61.215z"/>
<path fill="#4B4B4B" d="M81.372,65.295c0.08,0,0.16,0,0.24,0c0,0.08,0,0.16,0,0.24c0,2.48,0,4.96,0,7.44c-0.08,0-0.16,0-0.24,0
	C81.372,70.416,81.372,67.855,81.372,65.295z"/>
<path fill="#252424" d="M81.372,73.215c0-0.08,0-0.16,0-0.24c0.08,0,0.16,0,0.24,0c-0.159,2.641,0.319,5.918-0.24,8.16
	C81.372,78.495,81.372,75.855,81.372,73.215z"/>
<path fill="#949494" d="M81.132,73.215c0.08,0,0.16,0,0.24,0c0,2.64,0,5.28,0,7.92c-0.08,0-0.16,0-0.24,0c0-1.36,0-2.72,0-4.08
	C81.132,75.775,81.132,74.495,81.132,73.215z"/>
<path fill="#4B4B4B" d="M81.132,81.135c0.08,0,0.16,0,0.24,0c0,1.68,0,3.36,0,5.04c-0.08,0-0.16,0-0.24,0
	C81.132,84.495,81.132,82.815,81.132,81.135z"/>
<path fill="#D3D3D3" d="M57.852,86.896c2.641-0.559,6.319-0.081,9.36-0.24c0,0.08,0,0.16,0,0.24c-0.16,0-0.32,0-0.48,0
	c-1.92,0-3.84,0-5.76,0C59.932,86.896,58.892,86.896,57.852,86.896z"/>
<path fill="#949494" d="M67.212,86.896c0-0.08,0-0.16,0-0.24c0.96,0,1.92,0,2.88,0c1.04,0,2.08,0,3.12,0c0,0.08,0,0.16,0,0.24
	C71.212,86.896,69.212,86.896,67.212,86.896z"/>
<path fill="#4B4B4B" d="M73.212,86.896c0-0.08,0-0.16,0-0.24c2,0,4,0,6,0c0,0.08,0,0.16,0,0.24c-1.92,0-3.84,0-5.76,0
	C73.372,86.896,73.292,86.896,73.212,86.896z"/>
<path fill="#D3D3D3" d="M45.372,87.135c2.641-0.559,6.319-0.081,9.36-0.24c0,0.08,0,0.16,0,0.24c-0.16,0-0.32,0-0.48,0
	c-1.92,0-3.84,0-5.76,0C47.452,87.135,46.412,87.135,45.372,87.135z"/>
<path fill="#949494" d="M54.732,87.135c0-0.08,0-0.16,0-0.24c1.04,0,2.08,0,3.12,0s2.08,0,3.12,0c0,0.08,0,0.16,0,0.24
	C58.892,87.135,56.812,87.135,54.732,87.135z"/>
<path fill="#4B4B4B" d="M60.972,87.135c0-0.08,0-0.16,0-0.24c1.92,0,3.84,0,5.76,0c0,0.08,0,0.16,0,0.24c-1.84,0-3.68,0-5.52,0
	C61.132,87.135,61.052,87.135,60.972,87.135z"/>
<path fill="#252424" d="M66.732,87.135c0-0.08,0-0.16,0-0.24c0.16,0,0.32,0,0.48,0c2,0,4,0,6,0c0.08,0,0.16,0,0.24,0
	C71.69,87.454,68.893,86.977,66.732,87.135z"/>
<path fill="#D3D3D3" d="M32.892,87.375c2.641-0.559,6.319-0.081,9.36-0.24c0,0.08,0,0.16,0,0.24c-0.08,0-0.16,0-0.24,0c-2,0-4,0-6,0
	C34.972,87.375,33.932,87.375,32.892,87.375z"/>
<path fill="#949494" d="M42.252,87.375c0-0.08,0-0.16,0-0.24c1.04,0,2.08,0,3.12,0s2.08,0,3.12,0c0,0.08,0,0.16,0,0.24
	C46.412,87.375,44.332,87.375,42.252,87.375z"/>
<path fill="#4B4B4B" d="M48.492,87.375c0-0.08,0-0.16,0-0.24c1.92,0,3.84,0,5.76,0c0,0.08,0,0.16,0,0.24c-1.84,0-3.68,0-5.52,0
	C48.652,87.375,48.572,87.375,48.492,87.375z"/>
<path fill="#252424" d="M54.252,87.375c0-0.08,0-0.16,0-0.24c0.16,0,0.32,0,0.48,0c2.08,0,4.16,0,6.24,0c0.08,0,0.16,0,0.24,0
	C59.37,87.693,56.493,87.217,54.252,87.375z"/>
<path fill="#D3D3D3" d="M20.412,87.615c2.641-0.559,6.319-0.081,9.36-0.24c0,0.08,0,0.16,0,0.24c-0.08,0-0.16,0-0.24,0c-2,0-4,0-6,0
	C22.492,87.615,21.452,87.615,20.412,87.615z"/>
<path fill="#949494" d="M29.772,87.615c0-0.08,0-0.16,0-0.24c1.04,0,2.08,0,3.12,0s2.08,0,3.12,0c0,0.08,0,0.16,0,0.24
	C33.932,87.615,31.852,87.615,29.772,87.615z"/>
<path fill="#4B4B4B" d="M36.012,87.615c0-0.08,0-0.16,0-0.24c2,0,4,0,6,0c0,0.08,0,0.16,0,0.24c-1.92,0-3.84,0-5.76,0
	C36.172,87.615,36.092,87.615,36.012,87.615z"/>
<path fill="#252424" d="M42.012,87.615c0-0.08,0-0.16,0-0.24c0.08,0,0.16,0,0.24,0c2.08,0,4.16,0,6.24,0c0.08,0,0.16,0,0.24,0
	C46.97,87.934,44.173,87.457,42.012,87.615z"/>
<path fill="#D3D3D3" d="M7.932,87.855c2.721-0.559,6.479-0.081,9.6-0.24c0,0.08,0,0.16,0,0.24c-0.16,0-0.32,0-0.48,0c-2,0-4,0-6,0
	C10.012,87.855,8.972,87.855,7.932,87.855z"/>
<path fill="#949494" d="M17.532,87.855c0-0.08,0-0.16,0-0.24c0.96,0,1.92,0,2.88,0c1.04,0,2.08,0,3.12,0c0,0.08,0,0.16,0,0.24
	C21.532,87.855,19.532,87.855,17.532,87.855z"/>
<path fill="#4B4B4B" d="M23.532,87.855c0-0.08,0-0.16,0-0.24c2,0,4,0,6,0c0,0.08,0,0.16,0,0.24c-1.92,0-3.84,0-5.76,0
	C23.692,87.855,23.612,87.855,23.532,87.855z"/>
<path fill="#252424" d="M29.532,87.855c0-0.08,0-0.16,0-0.24c0.08,0,0.16,0,0.24,0c2.08,0,4.16,0,6.24,0c0.08,0,0.16,0,0.24,0
	C34.49,88.173,31.693,87.697,29.532,87.855z"/>
<path fill="#949494" d="M5.052,88.095c0-0.08,0-0.16,0-0.24c0.96,0,1.92,0,2.88,0c1.04,0,2.08,0,3.12,0c0,0.08,0,0.16,0,0.24
	C9.052,88.095,7.052,88.095,5.052,88.095z"/>
<path fill="#4B4B4B" d="M11.052,88.095c0-0.08,0-0.16,0-0.24c2,0,4,0,6,0c0,0.08,0,0.16,0,0.24c-1.92,0-3.84,0-5.76,0
	C11.212,88.095,11.132,88.095,11.052,88.095z"/>
<path fill="#252424" d="M17.052,88.095c0-0.08,0-0.16,0-0.24c0.16,0,0.32,0,0.48,0c2,0,4,0,6,0c0.08,0,0.16,0,0.24,0
	C22.01,88.414,19.213,87.937,17.052,88.095z"/>
<path fill="#949494" d="M2.412,116.175c0.16-9.28-0.32-19.2,0.24-28.08c0,23.521,0,47.041,0,70.561c-0.08,0-0.16,0-0.24,0
	C2.412,144.495,2.412,130.335,2.412,116.175z"/>
<path fill="#252424" d="M242.892,142.095c0.08,0,0.159,0,0.239,0c0,0.16,0,0.32,0,0.48c0,7.28,0,14.56,0,21.84
	c-0.08,0-0.159,0-0.239,0C242.892,156.976,242.892,149.535,242.892,142.095z"/>
<path fill="#949494" d="M243.131,142.575c0.08,0,0.16,0,0.24,0c0,7.28,0,14.56,0,21.84c-0.08,0-0.16,0-0.24,0
	C243.131,157.135,243.131,149.855,243.131,142.575z"/>
<path fill="#4B4B4B" d="M239.292,164.655c0-0.08,0-0.16,0-0.24c1.201,0,2.399,0,3.601,0c0.08,0,0.16,0,0.239,0
	C242.327,164.97,240.497,164.5,239.292,164.655z"/>
<path fill="#949494" d="M163.452,164.896c0-0.08,0-0.16,0-0.24c25.2,0,50.399,0,75.6,0c0,0.08,0,0.16,0,0.24
	c-14.239,0-28.479,0-42.719,0C185.372,164.896,174.413,164.896,163.452,164.896z"/>
<path fill="#D3D3D3" d="M163.211,228.495c0.16-21.12-0.319-42.88,0.24-63.6c10.961,0,21.92,0,32.881,0
	c-10.48,0.56-22,0.08-32.881,0.24c0,21.2,0,42.4,0,63.6c-0.08,0-0.16,0-0.24,0C163.211,228.655,163.211,228.575,163.211,228.495z"/>
<path fill="#252424" d="M24.492,165.855c0-0.08,0-0.16,0-0.24c7.68,0.16,16-0.32,23.28,0.24c-7.68,0-15.36,0-23.04,0
	C24.652,165.855,24.572,165.855,24.492,165.855z"/>
<path fill="#949494" d="M24.732,166.095c0-0.08,0-0.16,0-0.24c7.68,0,15.36,0,23.04,0c0,0.08,0,0.16,0,0.24c-3.84,0-7.68,0-11.52,0
	S28.572,166.095,24.732,166.095z"/>
<path fill="#4B4B4B" d="M47.772,166.095c0-0.08,0-0.16,0-0.24c7.52,0,15.04,0,22.56,0c0,0.08,0,0.16,0,0.24
	C62.812,166.095,55.292,166.095,47.772,166.095z"/>
<path fill="#D3D3D3" d="M36.252,166.095c3.84,0,7.68,0,11.52,0c7.52,0,15.04,0,22.56,0c0.16,0,0.32,0,0.48,0c0,0.08,0,0.16,0,0.24
	C59.372,166.175,47.292,166.655,36.252,166.095z"/>
<path fill="#D3D3D3" d="M81.372,166.335c0.557,1.363,0.082,3.758,0.24,5.52C81.055,170.493,81.53,168.098,81.372,166.335z"/>
<path fill="#D3D3D3" d="M81.612,177.855c0.08,0,0.16,0,0.24,0c0,0.16,0,0.32,0,0.48c0,3.84,0,7.68,0,11.52c0,1.92,0,3.84,0,5.76
	C81.292,190.175,81.771,183.695,81.612,177.855z"/>
<path fill="#4B4B4B" d="M81.852,178.335c0.08,0,0.16,0,0.24,0c0,3.76,0,7.52,0,11.28c0,0.08,0,0.16,0,0.24c-0.08,0-0.16,0-0.24,0
	C81.852,186.016,81.852,182.175,81.852,178.335z"/>
<path fill="#252424" d="M82.092,189.855c0-0.08,0-0.16,0-0.24c0.56,3.601,0.081,8.24,0.24,12.24c-0.08,0-0.16,0-0.24,0
	c0-0.08,0-0.16,0-0.24C82.092,197.695,82.092,193.775,82.092,189.855z"/>
<path fill="#949494" d="M81.852,189.855c0.08,0,0.16,0,0.24,0c0,3.92,0,7.84,0,11.76c-0.08,0-0.16,0-0.24,0c0-2,0-4,0-6
	C81.852,193.695,81.852,191.775,81.852,189.855z"/>
<path fill="#D3D3D3" d="M81.852,201.615c0.08,0,0.16,0,0.24,0c0,0.08,0,0.16,0,0.24c0,3.92,0,7.84,0,11.76c0,1.92,0,3.84,0,5.76
	C81.532,213.935,82.012,207.456,81.852,201.615z"/>
<path fill="#4B4B4B" d="M82.092,201.855c0.08,0,0.16,0,0.24,0c0,3.84,0,7.68,0,11.52c0,0.08,0,0.16,0,0.24c-0.08,0-0.16,0-0.24,0
	C82.092,209.695,82.092,205.775,82.092,201.855z"/>
<path fill="#949494" d="M82.092,213.615c0.08,0,0.16,0,0.24,0c0,3.92,0,7.84,0,11.76c-0.08,0-0.16,0-0.24,0c0-2,0-4,0-6
	C82.092,217.456,82.092,215.535,82.092,213.615z"/>
<path fill="#D3D3D3" d="M82.092,225.375c0.08,0,0.16,0,0.24,0c0,0.24,0,0.48,0,0.72c0,3.76,0,7.52,0,11.28c0,1.92,0,3.84,0,5.76
	C81.772,237.695,82.251,231.215,82.092,225.375z"/>
<path fill="#4B4B4B" d="M82.332,226.095c0.08,0,0.16,0,0.24,0c0,3.68,0,7.36,0,11.04c0,0.08,0,0.16,0,0.24c-0.08,0-0.16,0-0.24,0
	C82.332,233.615,82.332,229.855,82.332,226.095z"/>
<path fill="#252424" d="M162.972,228.495c0.079,0,0.159,0,0.239,0c0,0.08,0,0.16,0,0.24c0,24.161,0,48.321,0,72.48
	C162.652,277.456,163.131,252.655,162.972,228.495z"/>
<path fill="#252424" d="M82.572,237.375c0-0.08,0-0.16,0-0.24c0.56,3.601,0.081,8.24,0.24,12.24c-0.08,0-0.16,0-0.24,0
	c0-0.08,0-0.16,0-0.24C82.572,245.215,82.572,241.295,82.572,237.375z"/>
<path fill="#949494" d="M82.332,237.375c0.08,0,0.16,0,0.24,0c0,3.92,0,7.84,0,11.76c-0.08,0-0.16,0-0.24,0c0-2,0-4,0-6
	C82.332,241.215,82.332,239.295,82.332,237.375z"/>
<path fill="#D3D3D3" d="M82.332,249.135c0.08,0,0.16,0,0.24,0c0,0.08,0,0.16,0,0.24c0,3.92,0,7.84,0,11.76c0,1.921,0,3.841,0,5.761
	C82.012,261.455,82.492,254.976,82.332,249.135z"/>
<path fill="#4B4B4B" d="M82.572,249.375c0.08,0,0.16,0,0.24,0c0,3.76,0,7.521,0,11.28c0,0.16,0,0.32,0,0.479c-0.08,0-0.16,0-0.24,0
	C82.572,257.215,82.572,253.295,82.572,249.375z"/>
<path fill="#252424" d="M82.812,260.655c0.559,3.681,0.08,8.398,0.24,12.479c-0.08,0-0.16,0-0.24,0c0-0.079,0-0.159,0-0.239
	c0-3.92,0-7.84,0-11.761C82.812,260.976,82.812,260.815,82.812,260.655z"/>
<path fill="#949494" d="M82.572,261.135c0.08,0,0.16,0,0.24,0c0,3.921,0,7.841,0,11.761c-0.08,0-0.16,0-0.24,0c0-2,0-4,0-6
	C82.572,264.976,82.572,263.056,82.572,261.135z"/>
<path fill="#D3D3D3" d="M82.572,272.896c0.08,0,0.16,0,0.24,0c0,0.08,0,0.16,0,0.24c0,3.92,0,7.84,0,11.76c0,1.92,0,3.84,0,5.761
	C82.252,285.215,82.731,278.735,82.572,272.896z"/>
<path fill="#4B4B4B" d="M82.812,273.135c0.08,0,0.16,0,0.24,0c0,3.841,0,7.681,0,11.521c0,0.08,0,0.16,0,0.24c-0.08,0-0.16,0-0.24,0
	C82.812,280.976,82.812,277.056,82.812,273.135z"/>
<path fill="#252424" d="M83.052,284.896c0-0.08,0-0.16,0-0.239c0.56,3.601,0.081,8.239,0.24,12.239c-0.08,0-0.16,0-0.24,0
	c0-0.08,0-0.16,0-0.239C83.052,292.735,83.052,288.815,83.052,284.896z"/>
<path fill="#949494" d="M82.812,284.896c0.08,0,0.16,0,0.24,0c0,3.92,0,7.84,0,11.761c-0.08,0-0.16,0-0.24,0c0-2,0-4,0-6
	C82.812,288.735,82.812,286.815,82.812,284.896z"/>
<path fill="#D3D3D3" d="M231.612,388.335c0.254-2.386,0.283,1.753,0.239,2.641c-0.08,0-0.16,0-0.239,0c0-0.16,0-0.32,0-0.479
	C231.612,389.774,231.612,389.056,231.612,388.335z"/>
<path fill="#4B4B4B" d="M14.892,398.655c-0.4-2.322-0.4-6.318,0-8.641c0,2.801,0,5.601,0,8.399
	C14.892,398.495,14.892,398.575,14.892,398.655z"/>
<path fill="#949494" d="M231.612,390.976c0.079,0,0.159,0,0.239,0c0,2.24,0,4.479,0,6.721c-0.08,0-0.16,0-0.239,0
	C231.612,395.455,231.612,393.216,231.612,390.976z"/>
<path fill="#4B4B4B" d="M127.211,494.176c0-0.08,0-0.16,0-0.24c0.801,0,1.601,0,2.4,0c0.079,0,0.159,0,0.239,0
	C129.441,494.484,128.02,494.023,127.211,494.176z"/>
<path fill="#949494" d="M119.292,494.415c0-0.08,0-0.16,0-0.239c2.561,0,5.121,0,7.681,0c0,0.079,0,0.159,0,0.239
	C124.413,494.415,121.852,494.415,119.292,494.415z"/>
<path fill="#D3D3D3" d="M82.092,10.095c0.151-3.049-0.308-6.708,0.24-9.36c2.573-0.547,6.15-0.089,9.12-0.24c0,0.08,0,0.16,0,0.24
	c-0.16,0-0.32,0-0.48,0c-2,0-4,0-6,0c-0.8,0-1.6,0-2.4,0c-0.276,0.284-0.271,0.848-0.24,1.44c0,2.48,0,4.96,0,7.44
	c0,0.16,0,0.32,0,0.479C82.252,10.095,82.172,10.095,82.092,10.095z"/>
<path fill="#D3D3D3" d="M2.412,116.175c-0.425-5.092-0.24-13.966-0.24-21.12c0-3.235-1.227-8.691,2.88-7.2c0,0.08,0,0.16,0,0.24
	c-0.8,0-1.6,0-2.4,0C2.092,96.976,2.572,106.895,2.412,116.175z"/>
<path fill="#D3D3D3" d="M2.412,158.655c0.08,0,0.16,0,0.24,0c0,0.08,0,0.16,0,0.24c0,2.24,0,4.48,0,6.72
	c6.802,0.558,14.638,0.082,21.84,0.24c0.08,0,0.16,0,0.24,0c0,0.08,0,0.16,0,0.24c-7.362-0.158-15.358,0.318-22.32-0.24
	C2.412,163.456,2.412,161.055,2.412,158.655z"/>
<path fill="#D3D3D3" d="M82.572,301.455c0.519-1.161,0.11-3.249,0.24-4.8c0.08,0,0.16,0,0.24,0c0,0.08,0,0.16,0,0.24
	C82.811,298.334,83.581,300.784,82.572,301.455z"/>
<path fill="#D3D3D3" d="M68.172,308.176c1.327-1.075,3.215-2.862,5.04-2.641C71.598,306.481,69.976,307.42,68.172,308.176z"/>
<path fill="#D3D3D3" d="M39.612,330.017c2.38-2.58,4.86-5.062,7.44-7.44c-0.737,1.103-1.902,1.776-2.64,2.88
	c-0.821,0.62-1.541,1.34-2.16,2.16C41.229,328.272,40.635,329.358,39.612,330.017z"/>
<path fill="#D3D3D3" d="M29.052,344.655c0.545-2.256,1.728-3.872,3.36-5.04c-0.903,1.817-2.283,3.157-3.12,5.04
	C29.212,344.655,29.132,344.655,29.052,344.655z"/>
<path fill="#D3D3D3" d="M23.292,355.455c0.336-1.903,0.74-3.74,2.16-4.56c-0.511,1.647-1.492,2.828-1.92,4.56
	C23.452,355.455,23.372,355.455,23.292,355.455z"/>
<path fill="#D3D3D3" d="M19.692,363.615c-0.171,1.108-0.484,2.075-0.96,2.88C18.809,365.292,19.123,364.326,19.692,363.615z"/>
<path fill="#D3D3D3" d="M26.652,439.695c-1.491-1.629-2.673-3.566-3.36-6c0.261,0.06,0.163,0.478,0.48,0.479
	C24.807,435.94,25.799,437.748,26.652,439.695z"/>
<path fill="#D3D3D3" d="M47.532,466.096c-3.1-2.501-5.9-5.301-8.4-8.399c0.489,0.069,0.471,0.648,0.96,0.72
	c0.249,0.632,0.952,0.809,1.2,1.44c1.26,1.46,2.62,2.819,4.08,4.079C46.192,464.555,46.913,465.274,47.532,466.096z"/>
<path fill="#D3D3D3" d="M56.892,473.295c-1.696-0.544-3.085-1.395-3.84-2.88c1.443,0.717,2.397,1.924,3.84,2.641
	C56.892,473.136,56.892,473.216,56.892,473.295z"/>
<path fill="#D3D3D3" d="M61.932,476.655c-2.019-0.381-3.377-1.422-4.32-2.88c1.581,0.738,2.679,1.961,4.32,2.64
	C61.932,476.495,61.932,476.575,61.932,476.655z"/>
<path fill="#D3D3D3" d="M75.852,484.096c-3.13-0.55-5.494-1.865-7.44-3.601c2.676,0.924,4.638,2.562,7.44,3.36
	C75.852,483.936,75.852,484.016,75.852,484.096z"/>
<path fill="#D3D3D3" d="M85.452,488.176c1.109,0.17,2.076,0.484,2.88,0.96C87.129,489.059,86.163,488.744,85.452,488.176z"/>
<path fill="#D3D3D3" d="M193.932,469.936c-1.076,1.725-2.753,2.848-4.801,3.601C190.636,472.239,192.191,470.995,193.932,469.936z"
	/>
<path fill="#D3D3D3" d="M200.652,464.415c-0.813,0.866-1.427,1.934-2.642,2.4c0.555-1.048,1.732-1.469,2.4-2.4
	C200.493,464.415,200.572,464.415,200.652,464.415z"/>
<path fill="#D3D3D3" d="M200.892,464.415c1.42-1.62,2.94-3.14,4.562-4.56C204.032,461.476,202.512,462.995,200.892,464.415z"/>
<path fill="#D3D3D3" d="M205.452,459.615c0.721-0.96,1.383-1.979,2.399-2.641C207.385,458.188,206.317,458.801,205.452,459.615z"/>
<path fill="#D3D3D3" d="M226.572,363.375c0.568,0.711,0.884,1.679,0.96,2.88C227.057,365.451,226.743,364.483,226.572,363.375z"/>
<path fill="#D3D3D3" d="M214.092,339.854c1.457,0.942,2.498,2.303,2.88,4.32C215.932,342.815,214.973,341.375,214.092,339.854z"/>
<path fill="#D3D3D3" d="M204.731,328.097c0.945,0.895,2.096,1.584,2.641,2.879c-0.66-0.459-1.222-1.02-1.681-1.681
	C205.529,328.737,204.895,328.653,204.731,328.097z"/>
<path fill="#D3D3D3" d="M204.731,327.854c-1.141-0.938-2.18-1.979-3.119-3.119C202.752,325.675,203.792,326.715,204.731,327.854z"/>
<path fill="#D3D3D3" d="M201.372,324.735c-0.558-0.162-0.643-0.799-1.199-0.961s-0.644-0.797-1.2-0.959
	c-0.085-0.315-0.423-0.379-0.479-0.721C199.786,322.642,200.477,323.79,201.372,324.735z"/>
<path fill="#D3D3D3" d="M184.333,311.774c1.894,0.347,3.203,1.277,4.08,2.641c-1.593-0.566-2.488-1.832-4.08-2.398
	C184.333,311.937,184.333,311.854,184.333,311.774z"/>
<path fill="#D3D3D3" d="M170.413,304.335c3.031,0.646,5.561,1.799,7.438,3.602c-2.649-0.949-4.677-2.524-7.438-3.36
	C170.413,304.495,170.413,304.415,170.413,304.335z"/>
<path fill="#D3D3D3" d="M163.452,270.976c0.561,9.601,0.08,20.239,0.239,30.24c0.595-0.031,0.408,0.293,0,0.239
	C163.133,291.774,163.611,281.058,163.452,270.976z"/>
<path fill="#D3D3D3" d="M239.292,164.655c1.205-0.156,3.035,0.313,3.84-0.24c0.08,0,0.16,0,0.24,0
	c-0.601,0.999-2.953,0.246-4.32,0.48c0-0.08,0-0.16,0-0.24C239.131,164.655,239.211,164.655,239.292,164.655z"/>
<path fill="#D3D3D3" d="M195.131,86.416c15.521-0.4,32.721-0.4,48.24,0c0,18.72,0,37.439,0,56.16c-0.08,0-0.16,0-0.24,0
	c0-0.16,0-0.32,0-0.48c0-18.48,0-36.959,0-55.44c-1.547-0.532-4.06-0.101-6-0.24C223.131,86.416,209.131,86.416,195.131,86.416z"/>
<path fill="#D3D3D3" d="M158.892-0.705c0.917-0.429,3.392-0.357,4.319,0c0,20.48,0,40.96,0,61.44c-0.08,0-0.16,0-0.239,0
	c0-0.08,0-0.16,0-0.24c0-20.32,0-40.64,0-60.96c-0.214-0.186-0.542-0.258-0.96-0.24C160.972-0.705,159.932-0.705,158.892-0.705z"/>
<path fill="#4B4B4B" d="M162.012-0.465c0-0.08,0-0.16,0-0.24c0.418-0.018,0.746,0.054,0.96,0.24c0,20.32,0,40.64,0,60.96
	c-0.08,0-0.16,0-0.24,0c0-20.16,0-40.32,0-60.479c-0.05-0.27-0.267-0.374-0.479-0.48C162.172-0.465,162.092-0.465,162.012-0.465z"/>
<path fill="#252424" d="M162.731,60.495c0.08,0,0.16,0,0.24,0c0,0.08,0,0.16,0,0.24c0,8.56,0,17.12,0,25.68
	c24.24,0.56,49.521,0.08,74.16,0.24c0.08,0,0.16,0,0.24,0c-24.32,0.4-50.32,0.4-74.642,0
	C162.731,77.936,162.731,69.215,162.731,60.495z"/>
<path fill="#252424" d="M162.972,164.896c11.881-1.113,25.614-0.164,37.92-0.48c12.801,0,25.601,0,38.399,0c0,0.08,0,0.16,0,0.24
	c-0.08,0-0.16,0-0.24,0c-25.199,0-50.398,0-75.6,0C163.258,164.701,163.213,164.896,162.972,164.896z"/>
<path fill="#4B4B4B" d="M197.051,321.136c0.505,0.295,0.937,0.664,1.441,0.961c0.057,0.342,0.395,0.403,0.479,0.719
	c-0.745-0.375-1.26-0.98-1.92-1.439C197.051,321.295,197.051,321.215,197.051,321.136z"/>
<path fill="#252424" d="M198.972,322.815c0.558,0.162,0.644,0.797,1.2,0.959c0.248,0.633,0.951,0.81,1.199,1.44
	C200.472,324.517,199.67,323.716,198.972,322.815z"/>
<path fill="#4B4B4B" d="M201.372,325.216c-0.248-0.632-0.951-0.809-1.199-1.439c0.558,0.162,0.643,0.798,1.199,0.959
	c1.021,1.222,2.141,2.341,3.359,3.361c0.163,0.557,0.798,0.641,0.96,1.198c-0.631-0.248-0.808-0.951-1.438-1.198
	C203.393,327.035,202.433,326.075,201.372,325.216z"/>
<path fill="#252424" d="M204.252,328.097c0.631,0.247,0.809,0.95,1.438,1.198c0.459,0.661,1.021,1.222,1.681,1.681
	c0.359,0.36,0.43,1.012,0.961,1.2c0,0.079,0,0.159,0,0.239C206.896,331.05,205.607,329.54,204.252,328.097z"/>
<path fill="#252424" d="M220.812,350.896c0.642,0.801,1.292,1.588,1.44,2.881C221.637,352.95,221.159,351.989,220.812,350.896z"/>
<path fill="#252424" d="M222.731,433.695c-0.501,1.897-1.381,3.419-2.398,4.8c0.529-1.79,1.629-3.01,2.16-4.8
	C222.572,433.695,222.651,433.695,222.731,433.695z"/>
<path fill="#4B4B4B" d="M203.771,461.056c1.521-1.84,3.09-3.631,4.801-5.279c-0.216,0.424-0.579,0.699-0.721,1.199
	c-1.017,0.662-1.681,1.681-2.399,2.641C204.743,459.947,204.48,460.724,203.771,461.056z"/>
<path fill="#4B4B4B" d="M196.812,467.535c1.579-1.621,3.25-3.149,5.04-4.561c-0.248,0.633-0.951,0.809-1.199,1.439
	c-0.08,0-0.16,0-0.24,0c-0.668,0.933-1.847,1.354-2.399,2.4C197.513,466.956,197.236,467.319,196.812,467.535z"/>
<path fill="#252424" d="M173.051,482.896c0.986-0.695,2.107-1.255,3.361-1.681C175.557,482.041,174.437,482.6,173.051,482.896z"/>
<path fill="#252424" d="M47.532,466.096c-0.619-0.82-1.339-1.541-2.16-2.16c-1.26-1.46-2.62-2.819-4.08-4.079
	c-0.249-0.633-0.952-0.81-1.2-1.44c3.052,2.789,5.849,5.831,8.88,8.641C48.468,466.76,48.036,466.391,47.532,466.096z"/>
<path fill="#252424" d="M39.612,330.255c0.98-0.779,1.86-1.658,2.64-2.64c0.619-0.82,1.339-1.54,2.16-2.16
	c1.06-0.858,2.02-1.819,2.88-2.88c0.504-0.297,0.936-0.664,1.44-0.96c-3.533,3.348-6.938,6.821-10.32,10.319
	C38.8,331.362,39.274,330.877,39.612,330.255z"/>
<path fill="#4B4B4B" d="M82.572,301.455c1.009-0.671,0.239-3.121,0.48-4.56c0.08,0,0.16,0,0.24,0
	c-0.13,1.549,0.278,3.639-0.24,4.799c-0.24,0-0.48,0-0.72,0C82.288,301.491,82.425,301.469,82.572,301.455z"/>
<path fill="#252424" d="M70.332,166.095c0-0.08,0-0.16,0-0.24c3.846,0.154,8.312-0.312,11.76,0.24c0,4.08,0,8.16,0,12.24
	c-0.08,0-0.16,0-0.24,0c0-0.16,0-0.32,0-0.48c0-3.84,0-7.68,0-11.52c-3.209-0.551-7.434-0.087-11.04-0.24
	C70.652,166.095,70.492,166.095,70.332,166.095z"/>
<path fill="#4B4B4B" d="M2.652,158.896c0.08,0,0.16,0,0.24,0c0.915,2.211-1.293,4.929,0,6.48c0.543,0.652,3.572,0.24,5.04,0.24
	c5.54,0,12.638,0,16.56,0c0,0.08,0,0.16,0,0.24c-7.202-0.158-15.038,0.317-21.84-0.24C2.652,163.375,2.652,161.135,2.652,158.896z"
	/>
<path fill="#252424" d="M79.212,86.655c0.602-0.198,2.066,0.467,1.92-0.48c0.08,0,0.16,0,0.24,0c0.152,1.112-1.312,0.608-2.16,0.72
	C79.212,86.815,79.212,86.735,79.212,86.655z"/>
<path fill="#949494" d="M82.332,2.175c-0.032-0.592-0.037-1.156,0.24-1.44c0.8,0,1.6,0,2.4,0c0,0.08,0,0.16,0,0.24
	c-0.8,0-1.6,0-2.4,0c0,0.4,0,0.8,0,1.2C82.492,2.175,82.412,2.175,82.332,2.175z"/>
<path fill="#949494" d="M162.972,60.735c0.079,0,0.159,0,0.239,0c0,8.56,0,17.12,0,25.68c10.641,0,21.281,0,31.92,0c14,0,28,0,42,0
	c0,0.08,0,0.16,0,0.24c-24.639-0.16-49.92,0.32-74.159-0.24C162.972,77.855,162.972,69.295,162.972,60.735z"/>
<path fill="#4B4B4B" d="M237.131,86.655c0-0.08,0-0.16,0-0.24c1.94,0.139,4.453-0.292,6,0.24c0,18.479,0,36.96,0,55.439
	c-0.08,0-0.159,0-0.239,0c0-18.4,0-36.8,0-55.2c-1.392-0.528-3.735-0.104-5.521-0.24C237.292,86.655,237.211,86.655,237.131,86.655z
	"/>
<path fill="#4B4B4B" d="M162.972,164.896c0.241,0,0.286-0.194,0.479-0.24c0,0.08,0,0.16,0,0.24c-0.561,20.72-0.08,42.48-0.24,63.6
	c-0.08,0-0.16,0-0.239,0C162.972,207.296,162.972,186.095,162.972,164.896z"/>
<path fill="#949494" d="M70.812,166.335c0-0.08,0-0.16,0-0.24c3.606,0.153,7.831-0.311,11.04,0.24c0,3.84,0,7.68,0,11.52
	c-0.08,0-0.16,0-0.24,0c0-2,0-4,0-6c-0.158-1.762,0.317-4.157-0.24-5.52C77.852,166.335,74.332,166.335,70.812,166.335z"/>
<path fill="#949494" d="M163.211,228.735c0.08,0,0.16,0,0.24,0c0,14.08,0,28.161,0,42.241c0.159,10.08-0.318,20.799,0.239,30.479
	c-0.079,0-0.159,0-0.239,0c-0.146-0.014-0.283-0.036-0.24-0.239C163.211,277.056,163.211,252.896,163.211,228.735z"/>
<path fill="#949494" d="M44.412,325.455c0.737-1.103,1.902-1.777,2.64-2.88c0.08,0,0.16,0,0.24,0
	C46.432,323.636,45.472,324.597,44.412,325.455z"/>
<path fill="#949494" d="M204.731,328.097c-1.22-1.021-2.34-2.141-3.359-3.361c0.08,0,0.16,0,0.24,0
	c0.939,1.142,1.979,2.182,3.119,3.121C204.731,327.937,204.731,328.017,204.731,328.097z"/>
<path fill="#949494" d="M39.612,330.017c1.023-0.658,1.617-1.744,2.64-2.4c-0.78,0.98-1.66,1.859-2.64,2.64
	C39.612,330.176,39.612,330.097,39.612,330.017z"/>
<path fill="#4B4B4B" d="M39.132,457.695c-0.296-0.504-0.664-0.937-0.96-1.44c0.841,0.52,1.397,1.323,1.92,2.16
	C39.603,458.345,39.621,457.766,39.132,457.695z"/>
<path fill="#949494" d="M203.771,461.056c0.709-0.332,0.972-1.107,1.681-1.439c0,0.08,0,0.16,0,0.24
	c-1.619,1.42-3.141,2.938-4.561,4.56c-0.08,0-0.16,0-0.239,0c0.248-0.632,0.951-0.808,1.199-1.439
	C202.391,462.234,203.032,461.595,203.771,461.056z"/>
<path fill="#4B4B4B" d="M45.372,463.936c-1.46-1.26-2.82-2.619-4.08-4.079C42.752,461.115,44.112,462.476,45.372,463.936z"/>
<path fill="#4B4B4B" d="M136.333-0.225c2,0,4,0,6,0c0,0.08,0,0.16,0,0.24c-1.92,0-3.84,0-5.761,0c-0.079,0-0.159,0-0.239,0
	C136.333-0.064,136.333-0.145,136.333-0.225z"/>
<path fill="#4B4B4B" d="M82.092,33.855c0,2.48,0,4.96,0,7.44c-0.08,0-0.16,0-0.24,0c0-2.56,0-5.12,0-7.68c0.08,0,0.16,0,0.24,0
	C82.092,33.695,82.092,33.775,82.092,33.855z"/>
<path fill="#D3D3D3" d="M70.092,86.655c1.588-1.661,8.684,1.323,10.56-0.24c1.49-1.242-0.827-7.798,0.48-9.36c0,1.36,0,2.72,0,4.08
	c0,1.68,0,3.36,0,5.04c0.146,0.947-1.318,0.282-1.92,0.48c-2,0-4,0-6,0C72.172,86.655,71.132,86.655,70.092,86.655z"/>
<path fill="#252424" d="M2.652,88.095c0.8,0,1.6,0,2.4,0c2,0,4,0,6,0c0.08,0,0.16,0,0.24,0c-2.321,0.559-5.679,0.081-8.4,0.24
	c0,23.52,0,47.04,0,70.56c-0.08,0-0.16,0-0.24,0c0-0.08,0-0.16,0-0.24C2.652,135.136,2.652,111.615,2.652,88.095z"/>
<path fill="#252424" d="M82.332,226.095c0-0.24,0-0.48,0-0.72c0-3.92,0-7.84,0-11.76c0-0.08,0-0.16,0-0.24
	c0.559,3.76,0.08,8.56,0.24,12.72C82.492,226.095,82.412,226.095,82.332,226.095z"/>
<path fill="#252424" d="M226.092,362.896c0.261,0.061,0.162,0.478,0.479,0.479c0.171,1.108,0.484,2.076,0.96,2.88
	c0,0.32,0,0.641,0,0.961C226.9,365.929,226.422,364.485,226.092,362.896z"/>
<path fill="#252424" d="M19.692,363.615c0.261-0.06,0.163-0.478,0.48-0.479c-0.33,1.59-0.808,3.031-1.44,4.319
	c0-0.319,0-0.64,0-0.96C19.208,365.69,19.521,364.726,19.692,363.615z"/>
<path fill="#252424" d="M17.292,372.735c0.188,0.988-0.369,1.23-0.24,2.16c-0.08,0-0.16,0-0.24,0
	c-0.188-0.988,0.368-1.231,0.24-2.16C17.132,372.735,17.212,372.735,17.292,372.735z"/>
<path fill="#252424" d="M229.211,373.455c0.556,1.364,0.867,2.974,0.961,4.8C229.68,376.827,229.368,375.22,229.211,373.455z"/>
<path fill="#252424" d="M14.892,386.176c0.574-2.307,0.44-5.319,1.2-7.44c-0.393,3.769-0.817,7.504-1.2,11.281
	C14.892,388.735,14.892,387.455,14.892,386.176z"/>
<path fill="#252424" d="M230.652,381.375c0.408,1.031,0.503,2.377,0.479,3.841c0,0.159,0,0.319,0,0.479
	C230.763,384.464,230.711,382.916,230.652,381.375z"/>
<path fill="#4B4B4B" d="M231.131,385.216c0.709,0.491-0.228,2.627,0.48,3.119c0,0.721,0,1.439,0,2.16c-0.08,0-0.16,0-0.24,0
	c0.071-1.752-0.425-2.936-0.24-4.801C231.131,385.535,231.131,385.375,231.131,385.216z"/>
<path fill="#D3D3D3" d="M14.892,386.176c0,1.279,0,2.56,0,3.841c-0.4,2.32-0.4,6.316,0,8.64c0,1.2,0,2.399,0,3.6
	c-0.175,1.376-0.434-2.346-0.48-3.358c-0.159-3.504-0.001-7.858,0.24-10.801C14.708,387.406,14.532,384.616,14.892,386.176z"/>
<path fill="#252424" d="M231.612,397.695c0.188,1.627-0.328,2.553-0.24,4.08c-0.184,1.815-0.218,3.781-0.72,5.279
	c0.517-5.245,0.899-10.62,0.72-16.561c0.08,0,0.16,0,0.24,0c0,0.159,0,0.319,0,0.479
	C231.612,393.216,231.612,395.455,231.612,397.695z"/>
<path fill="#D3D3D3" d="M231.372,401.775c-0.088-1.527,0.428-2.453,0.24-4.08c0.079,0,0.159,0,0.239,0
	C231.752,399.116,232.157,401.04,231.372,401.775z"/>
<path fill="#252424" d="M14.892,398.415c0.364,3.236,0.695,6.505,0.96,9.84c-0.65-1.669-0.421-4.218-0.96-6c0-1.199,0-2.398,0-3.6
	C14.892,398.575,14.892,398.495,14.892,398.415z"/>
<path fill="#010101" d="M230.652,407.056c0.354,1.556-0.755,1.646-0.479,3.12c-0.647,2.474-1.182,5.06-1.68,7.681
	c-0.354,0.768-0.688,1.553-0.722,2.64c-0.472,0.89-0.888,1.833-0.96,3.12c-0.281,0.039-0.202,0.438-0.239,0.72
	c-0.474,0.407-0.646,1.116-0.721,1.92c-1.089,2.433-2.101,4.94-3.12,7.44c-0.08,0-0.158,0-0.238,0c-0.531,1.79-1.631,3.01-2.16,4.8
	c-3.459,6.222-7.51,11.851-11.76,17.28c-1.712,1.648-3.279,3.439-4.802,5.279c-0.739,0.539-1.381,1.18-1.92,1.92
	c-1.79,1.41-3.461,2.938-5.04,4.561c-1.105,0.653-2.072,1.446-2.88,2.399c-1.74,1.061-3.296,2.305-4.8,3.601
	c-4.204,2.596-8.297,5.303-12.721,7.681c-1.254,0.426-2.375,0.984-3.359,1.681c-4.624,2.096-9.493,3.946-14.399,5.76
	c-1.03,0.01-1.769,0.312-2.399,0.72c-0.744-0.023-1.332,0.109-1.68,0.48c-1.049,0.071-1.992,0.249-2.642,0.72
	c-0.38,0.021-0.915-0.115-0.96,0.24c-1.623,0.137-3.068,0.45-4.319,0.96c-0.35,0.131-1.241-0.28-1.2,0.239
	c-5.188,0.732-10.423,1.417-15.84,1.921c-0.801,0-1.601,0-2.4,0c-4.326,0.007-8.713,0.073-12.719-0.24
	c-1.301-0.06-2.335-0.385-3.84-0.24c-3.986-0.654-8.028-1.252-12-1.92c-0.521-0.359-1.351-0.409-2.16-0.479
	c-1.114-0.485-2.401-0.799-3.84-0.96c-0.979-0.461-2.115-0.766-3.36-0.96c-1.769-0.791-3.69-1.431-5.76-1.92
	c-2.478-1.123-5.105-2.096-7.68-3.12c0-0.08,0-0.159,0-0.239c-2.802-0.799-4.764-2.438-7.44-3.36
	c-2.001-1.439-4.306-2.574-6.48-3.84c0-0.08,0-0.16,0-0.24c-1.641-0.679-2.739-1.9-4.32-2.64c-0.104-0.295-0.307-0.493-0.72-0.48
	c0-0.079,0-0.159,0-0.239c-1.443-0.717-2.397-1.924-3.84-2.641c-1.237-1.242-2.64-2.319-4.08-3.359
	c-3.031-2.81-5.828-5.852-8.88-8.641c-0.523-0.837-1.079-1.642-1.92-2.16c-4.163-5.195-8.05-10.67-11.52-16.56
	c-0.853-1.947-1.845-3.755-2.88-5.521c-1.02-2.819-2.236-5.443-3.36-8.16c-0.076-0.804-0.248-1.513-0.72-1.92
	c0.021-0.341,0.04-0.68-0.24-0.721c-0.009-1.03-0.312-1.767-0.72-2.398c0.021-0.342,0.04-0.681-0.24-0.722
	c-0.072-1.047-0.25-1.99-0.72-2.64c-0.021-0.779-0.124-1.478-0.48-1.92c0.018-0.897-0.101-1.659-0.48-2.16
	c-0.208-1.872-0.491-3.669-0.96-5.28c-0.265-3.335-0.596-6.604-0.96-9.84c0-2.8,0-5.6,0-8.398c0.383-3.777,0.807-7.514,1.2-11.281
	c0.383-1.137,0.623-2.416,0.72-3.84c0.08,0,0.16,0,0.24,0c-0.128-0.928,0.429-1.172,0.24-2.16c0.615-1.625,1.08-3.398,1.44-5.279
	c0.632-1.288,1.11-2.729,1.44-4.318c1.052-2.55,2.124-5.078,3.12-7.682c0.08,0,0.16,0,0.24,0c0.428-1.73,1.409-2.911,1.92-4.561
	c1.373-1.907,2.437-4.123,3.6-6.239c0.08,0,0.16,0,0.24,0c0.837-1.884,2.217-3.224,3.12-5.04c2.036-2.523,4.06-5.061,6-7.68
	c3.382-3.498,6.787-6.974,10.32-10.32c6.024-4.936,12.445-9.475,19.44-13.439c1.804-0.756,3.426-1.693,5.04-2.641
	c3.135-1.186,6.088-2.553,9.12-3.84c0.24,0,0.48,0,0.72,0c0.519-1.161,0.11-3.25,0.24-4.801c-0.16-4,0.319-8.64-0.24-12.239
	c0-3.841,0-7.681,0-11.521c-0.16-4.08,0.319-8.799-0.24-12.479c0-3.761,0-7.521,0-11.28c-0.16-4,0.319-8.64-0.24-12.24
	c0-3.68,0-7.36,0-11.04c-0.16-4.16,0.319-8.959-0.24-12.72c0-3.84,0-7.68,0-11.52c-0.16-4,0.319-8.64-0.24-12.24
	c0-3.76,0-7.52,0-11.28c0-4.08,0-8.16,0-12.24c-3.448-0.552-7.914-0.086-11.76-0.24c-7.52,0-15.04,0-22.56,0
	c-7.28-0.56-15.6-0.08-23.28-0.24c-3.922,0-11.021,0-16.56,0c-1.467,0-4.496,0.412-5.04-0.24c-1.293-1.551,0.915-4.269,0-6.48
	c0-23.52,0-47.041,0-70.56c2.721-0.159,6.079,0.319,8.4-0.24c1.92,0,3.84,0,5.76,0c2.162-0.159,4.958,0.318,6.72-0.24
	c1.92,0,3.84,0,5.76,0c2.162-0.159,4.958,0.318,6.72-0.24c1.92,0,3.84,0,5.76,0c2.162-0.158,4.958,0.318,6.72-0.24
	c1.84,0,3.68,0,5.52,0c2.241-0.159,5.118,0.318,6.96-0.24c1.84,0,3.68,0,5.52,0c2.161-0.159,4.958,0.318,6.72-0.24
	c1.92,0,3.84,0,5.76,0c0.848-0.112,2.312,0.392,2.16-0.72c0-1.68,0-3.36,0-5.04c0.559-2.241,0.081-5.519,0.24-8.16
	c0-2.48,0-4.96,0-7.44c0.559-2.321,0.081-5.679,0.24-8.4c0-2.48,0-4.96,0-7.44c0.559-2.321,0.081-5.679,0.24-8.4
	c0-2.48,0-4.96,0-7.44c0.559-2.321,0.081-5.679,0.24-8.4c0-2.4,0-4.8,0-7.2c0.559-2.401,0.081-5.839,0.24-8.64c0-2.4,0-4.8,0-7.2
	c-0.222-1.583,1.747-0.974,2.64-1.44c1.92,0,3.84,0,5.76,0c2.242-0.159,5.118,0.318,6.96-0.24c1.92,0,3.84,0,5.76,0
	c2.321-0.159,5.278,0.318,7.2-0.24c2,0,4,0,6,0c2.161-0.158,4.958,0.318,6.72-0.24c2,0,4,0,6,0c2.241-0.159,5.118,0.318,6.961-0.24
	c1.92,0,3.84,0,5.76,0c2.32-0.159,5.277,0.318,7.199-0.24c1.92,0,3.84,0,5.76,0c2.242-0.159,5.119,0.318,6.961-0.24
	c0.213,0.106,0.43,0.211,0.479,0.48c0,20.16,0,40.32,0,60.479c0,8.72,0,17.44,0,26.16c24.32,0.4,50.32,0.4,74.641,0
	c1.783,0.136,4.129-0.288,5.521,0.24c0,18.4,0,36.8,0,55.2c0,7.44,0,14.88,0,22.32c-1.2,0-2.399,0-3.601,0
	c-12.799,0-25.6,0-38.399,0c-12.306,0.316-26.039-0.633-37.92,0.48c0,21.2,0,42.4,0,63.6c0.159,24.16-0.319,48.961,0.239,72.721
	c-0.043,0.203,0.095,0.227,0.24,0.239c2.172,1.106,4.601,1.96,6.961,2.88c0,0.08,0,0.16,0,0.24c2.764,0.836,4.789,2.411,7.438,3.359
	c2.001,1.439,4.308,2.574,6.479,3.84c0,0.08,0,0.16,0,0.24c1.592,0.567,2.488,1.832,4.08,2.399c2.816,2.304,5.738,4.501,8.641,6.722
	c0,0.078,0,0.158,0,0.238c0.66,0.459,1.175,1.064,1.92,1.439c0.699,0.9,1.5,1.701,2.4,2.4c1.061,0.859,2.021,1.819,2.879,2.881
	c1.355,1.443,2.646,2.953,4.08,4.318c1.853,2.549,3.859,4.939,5.76,7.439c0.882,1.521,1.841,2.961,2.881,4.32
	c1.188,2.333,2.554,4.486,3.84,6.721c0.348,1.094,0.825,2.055,1.439,2.879c1.301,3.021,2.572,6.068,3.84,9.121
	c0.33,1.59,0.81,3.031,1.441,4.319c0.491,2.147,0.987,4.291,1.68,6.239c0.154,1.766,0.468,3.372,0.959,4.8
	c0.048,1.154,0.115,2.285,0.48,3.12c0.059,1.541,0.11,3.089,0.479,4.32c-0.185,1.865,0.312,3.048,0.24,4.8
	C231.553,396.436,231.168,401.811,230.652,407.056z"/>
<path fill="#252424" d="M230.172,410.176c-0.284,2.835-0.801,5.438-1.68,7.681C228.991,415.234,229.524,412.648,230.172,410.176z"/>
<path fill="#252424" d="M16.812,413.535c0.379,0.501,0.498,1.263,0.48,2.16C16.913,415.194,16.794,414.433,16.812,413.535z"/>
<path fill="#252424" d="M17.772,417.615c0.47,0.648,0.647,1.593,0.72,2.64C18.021,419.605,17.844,418.663,17.772,417.615z"/>
<path fill="#252424" d="M226.812,423.615c0.073-1.287,0.489-2.23,0.96-3.12C227.7,421.783,227.284,422.727,226.812,423.615z"/>
<path fill="#252424" d="M18.732,420.976c0.407,0.634,0.71,1.369,0.72,2.399C19.045,422.742,18.741,422.006,18.732,420.976z"/>
<path fill="#4B4B4B" d="M19.692,424.096c0.473,0.407,0.644,1.116,0.72,1.92C19.939,425.608,19.768,424.899,19.692,424.096z"/>
<path fill="#4B4B4B" d="M225.852,426.255c0.076-0.804,0.247-1.513,0.721-1.92C226.497,425.14,226.325,425.849,225.852,426.255z"/>
<path fill="#252424" d="M83.532,487.216c2.07,0.489,3.991,1.129,5.76,1.92c-0.32,0-0.64,0-0.96,0c-0.805-0.476-1.771-0.79-2.88-0.96
	C85.045,487.622,83.85,487.857,83.532,487.216z"/>
<path fill="#252424" d="M156.252,489.375c0.633-0.406,1.369-0.71,2.399-0.72C158.019,489.062,157.282,489.366,156.252,489.375z"/>
<path fill="#252424" d="M151.932,490.575c0.648-0.472,1.593-0.647,2.641-0.72C153.922,490.326,152.979,490.503,151.932,490.575z"/>
<path fill="#252424" d="M92.652,490.096c1.438,0.161,2.726,0.475,3.84,0.96C94.979,490.969,93.691,490.656,92.652,490.096z"/>
<path fill="#252424" d="M146.652,491.775c1.251-0.51,2.696-0.823,4.319-0.96C149.721,491.324,148.275,491.639,146.652,491.775z"/>
<path fill="#252424" d="M129.612,493.936c5.417-0.503,10.652-1.188,15.84-1.92c-3.625,1.096-8.218,1.224-12.24,1.92
	c-1.119,0-2.239,0-3.359,0C129.771,493.936,129.691,493.936,129.612,493.936z"/>
<path fill="#252424" d="M98.652,491.535c3.972,0.668,8.014,1.266,12,1.92C106.269,493.198,102.259,492.568,98.652,491.535z"/>
<path fill="#4B4B4B" d="M110.652,493.455c1.505-0.146,2.539,0.182,3.84,0.24c0,0.08,0,0.16,0,0.239c-0.48,0-0.96,0-1.44,0
	C112.793,493.234,110.911,494.156,110.652,493.455z"/>
<path fill="#D3D3D3" d="M114.492,493.936c1.807-0.128,2.936,0.426,4.799,0.24c0,0.079,0,0.159,0,0.239
	c-2.5,0.182-4.259-0.38-6.72-0.239c-0.438-0.187,0.144-0.259,0.48-0.24C113.532,493.936,114.012,493.936,114.492,493.936z"/>
<path fill="#252424" d="M119.292,494.176c-1.865,0.186-2.992-0.368-4.799-0.24c0-0.079,0-0.159,0-0.239
	c4.006,0.313,8.394,0.247,12.719,0.239c0,0.08,0,0.16,0,0.24c-0.08,0-0.16,0-0.239,0
	C124.413,494.176,121.852,494.176,119.292,494.176z"/>
<path fill="#D3D3D3" d="M129.852,493.936c1.12,0,2.24,0,3.359,0c1.428,0.147-1.703,0.424-2.879,0.479
	c-1.233,0.061-2.584-0.048-3.36,0c0-0.08,0-0.16,0-0.239c0.079,0,0.159,0,0.239,0C128.02,494.023,129.441,494.484,129.852,493.936z"
	/>
</svg>
