<?xml version="1.0" encoding="utf-8"?>
<!-- Generator: Adobe Illustrator 13.0.0, SVG Export Plug-In . SVG Version: 6.00 Build 14948)  -->
<!DOCTYPE svg PUBLIC "-//W3C//DTD SVG 1.1//EN" "http://www.w3.org/Graphics/SVG/1.1/DTD/svg11.dtd">
<svg version="1.1" id="Layer_1" xmlns="http://www.w3.org/2000/svg" xmlns:xlink="http://www.w3.org/1999/xlink" x="0px" y="0px"
	 width="307.2px" height="300.961px" viewBox="0 0 307.2 300.961" enable-background="new 0 0 307.2 300.961" xml:space="preserve">
<path fill="#2C2C2C" d="M159.36,0.24c1.125,0.155,2.874-0.314,3.6,0.24C161.836,0.325,160.086,0.794,159.36,0.24z"/>
<path fill="#2C2C2C" d="M140.64,0.72c0.179-0.542,1.346-0.094,1.92-0.24c0.16,0,0.32,0,0.479,0
	C142.708,1.027,141.37,0.569,140.64,0.72z"/>
<path fill="#2C2C2C" d="M163.92,0.48c0.641,0,1.279,0,1.92,0c0.16,0,0.32,0,0.479,0c0,0.08,0,0.16,0,0.24
	C165.59,0.569,164.252,1.027,163.92,0.48z"/>
<path fill="#676767" d="M306.961,146.16c0.08,0,0.16,0,0.238,0c0,2.88,0,5.76,0,8.641c-0.078,0-0.16,0-0.238,0
	C306.961,151.92,306.961,149.041,306.961,146.16z"/>
<path fill="#2C2C2C" d="M306.721,158.88c0,0.722,0,1.44,0,2.16c0,0.24,0,0.479,0,0.721c-0.08,0-0.16,0-0.24,0
	C306.633,160.873,306.17,159.369,306.721,158.88z"/>
<path fill="#A2A2A2" d="M47.76,41.04c1.71-1.01,2.733-2.707,4.56-3.6c-1.42,1.46-2.844,2.917-4.56,4.08
	c-0.865,0.495-1.295,1.425-2.16,1.92C46.176,42.496,47.184,41.984,47.76,41.04z"/>
<path fill="#D7D7D7" d="M39.84,48.96c2.54-2.74,5.18-5.38,7.92-7.92c-0.576,0.944-1.584,1.456-2.16,2.4c-1.3,1.1-2.5,2.3-3.6,3.6
	C41.135,47.535,40.705,48.465,39.84,48.96z"/>
<path fill="#D7D7D7" d="M22.8,71.76c0.979-2.381,2.002-4.718,4.08-6C25.485,67.726,24.282,69.882,22.8,71.76z"/>
<path fill="#2C2C2C" d="M144,0.48c0.729-0.711,3.111,0.231,3.84-0.48c0.72,0,1.44,0,2.16,0C148.349,0.509,146.183,0.502,144,0.48z"
	/>
<path fill="#2C2C2C" d="M199.44,6.96c2.38,0.42,4.359,1.241,6.24,2.16C203.57,8.43,201.35,7.851,199.44,6.96z"/>
<path fill="#2C2C2C" d="M218.881,14.4c0.934,0.266,1.734,0.664,2.398,1.2C220.347,15.334,219.543,14.936,218.881,14.4z"/>
<path fill="#2C2C2C" d="M225.36,17.52c0.898,0.142,1.396,0.683,1.92,1.2C226.679,18.282,225.7,18.221,225.36,17.52z"/>
<path fill="#2C2C2C" d="M229.92,20.16c-0.61-0.27-1.17-0.59-1.68-0.96c0.576-0.715,1.033,0.71,1.68,0.72
	C229.92,20,229.92,20.08,229.92,20.16z"/>
<path fill="#2C2C2C" d="M232.081,21.36c-0.61-0.27-1.17-0.589-1.681-0.96C230.813,19.925,231.959,20.747,232.081,21.36z"/>
<path fill="#2C2C2C" d="M257.521,39.84c1.142,0.94,2.181,1.98,3.12,3.12C259.5,42.021,258.459,40.98,257.521,39.84z"/>
<path fill="#2C2C2C" d="M261.12,43.2c1.461,1.26,2.82,2.62,4.08,4.08C263.741,46.021,262.381,44.66,261.12,43.2z"/>
<path fill="#2C2C2C" d="M265.44,47.76c1.061,0.859,2.021,1.819,2.88,2.88C267.26,49.78,266.299,48.82,265.44,47.76z"/>
<path fill="#2C2C2C" d="M278.641,63.36c-0.605-0.355-0.992-0.928-1.2-1.68C277.141,60.461,278.264,62.972,278.641,63.36z"/>
<path fill="#2C2C2C" d="M281.042,66.72c-0.605-0.354-0.992-0.928-1.201-1.68C280.355,64.541,280.482,66.466,281.042,66.72z"/>
<path fill="#2C2C2C" d="M282.48,69.12c0.981,0.378,1.05,1.67,1.681,2.4C283.342,70.978,283.106,69.854,282.48,69.12z"/>
<path fill="#2C2C2C" d="M284.161,71.76c1.518,1.363,2.354,3.406,3.359,5.28C286.18,75.501,285.351,73.45,284.161,71.76z"/>
<path fill="#2C2C2C" d="M289.2,80.4c0.788,0.493,0.918,1.644,1.44,2.4C289.854,82.308,289.725,81.157,289.2,80.4z"/>
<path fill="#2C2C2C" d="M292.081,85.92c0.537,0.664,0.935,1.466,1.199,2.4C292.745,87.656,292.347,86.854,292.081,85.92z"/>
<path fill="#2C2C2C" d="M294.48,90.96c-0.562-0.399-0.616-1.303-0.96-1.92c0.959-0.079,0.507,1.254,0.96,1.68
	C294.48,90.8,294.48,90.88,294.48,90.96z"/>
<path fill="#676767" d="M295.2,92.64c-0.479-0.319-0.533-1.065-0.72-1.68c0-0.08,0-0.16,0-0.24
	C294.907,91.173,295.271,91.689,295.2,92.64z"/>
<path fill="#2C2C2C" d="M296.4,95.52c-0.627-0.653-0.748-1.811-1.2-2.64C296.245,93.116,295.997,94.644,296.4,95.52z"/>
<path fill="#2C2C2C" d="M300.48,193.92c-0.42,2.38-1.239,4.359-2.16,6.24C299.01,198.051,299.59,195.829,300.48,193.92z"/>
<path fill="#2C2C2C" d="M293.521,212.16c0.131,1.092-0.655,1.266-0.96,1.92C292.747,213.307,293.062,212.662,293.521,212.16z"/>
<path fill="#2C2C2C" d="M288.961,221.04c0.438-0.603,0.498-1.58,1.199-1.92C290.02,220.02,289.478,220.518,288.961,221.04z"/>
<path fill="#2C2C2C" d="M286.561,225.359c0.602-1.159,1.24-2.279,1.92-3.359C288.599,222.924,287.532,224.729,286.561,225.359z"/>
<path fill="#2C2C2C" d="M266.161,252.48c0.779-0.98,1.659-1.86,2.641-2.641C268.021,250.82,267.141,251.701,266.161,252.48z"/>
<path fill="#2C2C2C" d="M260.161,258.721c1.899-2.101,3.899-4.101,6-6C264.26,254.82,262.26,256.82,260.161,258.721z"/>
<path fill="#2C2C2C" d="M257.28,261.359c0.78-0.979,1.66-1.859,2.641-2.64C259.141,259.701,258.26,260.581,257.28,261.359z"/>
<path fill="#2C2C2C" d="M244.801,271.439c0.354-0.604,0.928-0.991,1.68-1.199C247.7,269.939,245.188,271.062,244.801,271.439z"/>
<path fill="#2C2C2C" d="M234,278.641c0.543-0.816,1.666-1.054,2.399-1.68C235.903,277.823,234.938,278.217,234,278.641z"/>
<path fill="#2C2C2C" d="M226.801,282.721c0.339-0.701,1.318-0.762,1.92-1.199C228.636,282.477,227.282,282.163,226.801,282.721z"/>
<path fill="#2C2C2C" d="M217.92,287.041c0.588-0.613,1.58-0.821,2.399-1.2c0,0.08,0,0.16,0,0.239
	C219.526,286.406,218.779,286.779,217.92,287.041z"/>
<path fill="#2C2C2C" d="M215.761,288.001c0.399-0.562,1.304-0.617,1.92-0.96C217.661,287.98,216.381,287.66,215.761,288.001z"/>
<path fill="#2C2C2C" d="M158.641,300.961c1.527-0.633,3.861-0.459,6-0.48c0.16,0,0.318,0,0.479,0c0,0.08,0,0.16,0,0.24
	c-1.045,0.154-2.713-0.312-3.358,0.24C160.721,300.961,159.681,300.961,158.641,300.961z"/>
<path fill="#676767" d="M90.48,287.521c2.581,1.18,5.396,2.123,7.92,3.359C95.384,290.137,92.742,289.02,90.48,287.521z"/>
<path fill="#2C2C2C" d="M88.8,286.801c0.613,0.106,1.104,0.336,1.44,0.721C89.525,287.516,88.778,287.543,88.8,286.801z"/>
<path fill="#2C2C2C" d="M87.6,286.32c-2.429-1.092-4.931-2.108-6.96-3.6C82.933,283.948,85.441,284.96,87.6,286.32z"/>
<path fill="#2C2C2C" d="M70.32,276.721c0.734,0.627,1.857,0.862,2.4,1.68c-0.952-0.327-1.718-0.842-2.4-1.438
	C70.32,276.881,70.32,276.801,70.32,276.721z"/>
<path fill="#2C2C2C" d="M48.48,260.16c-0.786-0.413-1.134-1.266-1.92-1.68c-1.74-1.94-3.58-3.78-5.52-5.521
	c-0.332-0.709-1.108-0.972-1.44-1.681C42.66,254.141,45.62,257.102,48.48,260.16z"/>
<path fill="#2C2C2C" d="M25.92,233.761c-0.9-0.62-1.336-1.704-1.92-2.641C24.839,231.802,25.244,232.917,25.92,233.761z"/>
<path fill="#2C2C2C" d="M18.48,221.761c0.68,1.08,1.32,2.2,1.92,3.359C19.428,224.488,18.362,222.686,18.48,221.761z"/>
<path fill="#2C2C2C" d="M18,220.801c-0.787-0.492-0.917-1.644-1.44-2.4C17.347,218.895,17.477,220.044,18,220.801z"/>
<path fill="#2C2C2C" d="M15.12,215.279c-0.615-0.823-1.094-1.785-1.44-2.879C14.295,213.227,14.774,214.188,15.12,215.279z"/>
<path fill="#676767" d="M12.48,209.761c0.383,0.337,0.613,0.826,0.72,1.439C12.458,211.223,12.485,210.477,12.48,209.761z"/>
<path fill="#2C2C2C" d="M11.76,208.08c0.383,0.337,0.613,0.827,0.72,1.439C11.738,209.543,11.765,208.796,11.76,208.08z"/>
<path fill="#2C2C2C" d="M0,154.08c0.521,1.479,0.5,3.501,0.48,5.521c-0.71-0.65,0.23-2.953-0.48-3.602C0,155.359,0,154.721,0,154.08
	z"/>
<path fill="#2C2C2C" d="M7.92,102.96c0.364-0.836,0.118-2.282,0.96-2.64C8.71,101.35,8.488,102.329,7.92,102.96z"/>
<path fill="#676767" d="M12.72,90.72c-0.186,0.615-0.24,1.36-0.72,1.68c-0.071-0.951,0.293-1.467,0.72-1.92
	C12.72,90.56,12.72,90.64,12.72,90.72z"/>
<path fill="#2C2C2C" d="M13.44,89.28c-0.107,0.613-0.336,1.104-0.72,1.439c0-0.08,0-0.16,0-0.24
	C12.748,89.868,12.765,89.245,13.44,89.28z"/>
<path fill="#2C2C2C" d="M13.92,88.08c1.091-2.429,2.109-4.931,3.6-6.96C16.293,83.413,15.281,85.921,13.92,88.08z"/>
<path fill="#2C2C2C" d="M21.12,74.64c-0.348,0.452-0.353,1.247-0.96,1.44C20.179,75.299,20.467,74.787,21.12,74.64z"/>
<path fill="#2C2C2C" d="M21.12,74.4c0.432-0.929,0.74-1.98,1.68-2.4C22.174,72.734,21.938,73.857,21.12,74.4z"/>
<path fill="#2C2C2C" d="M37.68,51.84c0.699-0.9,1.5-1.7,2.4-2.4C39.38,50.341,38.581,51.141,37.68,51.84z"/>
<path fill="#2C2C2C" d="M40.08,49.2c0.495-0.865,1.425-1.295,1.92-2.16c1.3-1.1,2.5-2.3,3.6-3.6c0.865-0.495,1.295-1.425,2.16-1.92
	C45.3,44.18,42.74,46.74,40.08,49.2z"/>
<path fill="#2C2C2C" d="M82.56,17.28c0.757-0.843,1.964-1.236,3.12-1.68C84.804,16.324,83.571,16.69,82.56,17.28z"/>
<path fill="#2C2C2C" d="M87.84,14.64c0.236-0.644,1.003-0.757,1.68-0.96c0.08,0,0.16,0,0.24,0
	C89.258,14.138,88.614,14.454,87.84,14.64z"/>
<path fill="#676767" d="M89.52,13.68c0.454-0.427,0.969-0.791,1.92-0.72c-0.32,0.48-1.065,0.535-1.68,0.72
	C89.68,13.68,89.6,13.68,89.52,13.68z"/>
<path fill="#2C2C2C" d="M93.84,12c0.925-0.995,2.422-1.417,4.08-1.68C96.682,11.001,95.251,11.491,93.84,12z"/>
<path fill="#2C2C2C" d="M98.16,10.32c0.042-0.758,0.949-0.65,1.68-0.72C99.382,9.942,98.798,10.158,98.16,10.32z"/>
<path fill="#676767" d="M100.08,9.6c0.295-0.825,1.41-0.83,2.4-0.96C101.804,9.084,100.983,9.383,100.08,9.6z"/>
<path fill="#D7D7D7" d="M265.681,47.28c-1.62-1.42-3.142-2.94-4.562-4.561C262.741,44.14,264.26,45.66,265.681,47.28z"/>
<path fill="#A2A2A2" d="M253.92,36.72c2.822,1.577,4.629,4.172,7.199,6c1.42,1.62,2.94,3.14,4.562,4.561
	c1.375,1.984,3.337,3.383,4.56,5.52c-0.771-0.587-1.517-1.204-1.92-2.16c-0.859-1.061-1.818-2.021-2.88-2.88
	c-0.046-0.194-0.239-0.239-0.239-0.479c-1.261-1.46-2.619-2.82-4.08-4.08c-0.195-0.046-0.24-0.241-0.479-0.24
	c-0.938-1.14-1.979-2.18-3.12-3.12C256.108,39.012,255.017,37.864,253.92,36.72z"/>
<path fill="#676767" d="M42,47.04c1.1-1.3,2.3-2.5,3.6-3.6C44.5,44.74,43.3,45.94,42,47.04z"/>
<path fill="#A2A2A2" d="M39.84,48.96c0.865-0.495,1.295-1.425,2.16-1.92c-0.495,0.865-1.425,1.295-1.92,2.16c0,0.08,0,0.16,0,0.24
	c-0.9,0.7-1.701,1.5-2.4,2.4c-0.158,0.883-0.885,1.195-1.44,1.68C37.133,51.693,38.83,50.67,39.84,48.96z"/>
<path fill="#2C2C2C" d="M288.721,79.2c-0.475-0.166-0.641-0.64-0.721-1.2C288.247,77.464,288.827,78.591,288.721,79.2z"/>
<path fill="#2C2C2C" d="M18.96,78.24c-0.08,0.56-0.246,1.034-0.72,1.2C18.134,78.832,18.713,77.704,18.96,78.24z"/>
<path fill="#D7D7D7" d="M226.081,282.961c-1.24,1.721-3.473,2.448-5.761,3.119c0-0.079,0-0.159,0-0.239
	C222.241,284.881,224.161,283.92,226.081,282.961z"/>
<path fill="#D7D7D7" d="M260.4,258.961c1.899-2.102,3.899-4.102,6-6C264.5,255.061,262.5,257.061,260.4,258.961z"/>
<path fill="#A2A2A2" d="M270.48,247.921c-1.032,2.009-2.899,3.181-4.08,5.04c-2.101,1.898-4.101,3.898-6,6
	c-1.903,1.296-3.263,3.137-5.28,4.318c0.588-0.771,1.205-1.516,2.16-1.92c0.98-0.778,1.86-1.658,2.641-2.64c0.08,0,0.16,0,0.24,0
	c2.101-1.899,4.101-3.899,6-6c0-0.079,0-0.159,0-0.239c0.979-0.779,1.859-1.66,2.641-2.641
	C269.034,248.874,269.849,248.489,270.48,247.921z"/>
<path fill="#D7D7D7" d="M42.96,255.12c-2.177-1.742-3.908-3.933-5.52-6.239c0.787,0.732,1.772,1.268,2.16,2.398
	c0.332,0.71,1.108,0.973,1.44,1.682C41.535,253.825,42.465,254.256,42.96,255.12z"/>
<path fill="#D7D7D7" d="M44.64,256.801c0.786,0.413,1.134,1.266,1.92,1.68c0.414,0.787,1.266,1.135,1.68,1.92
	C46.94,259.301,45.74,258.102,44.64,256.801z"/>
<path fill="#676767" d="M42.96,255.12c-0.495-0.864-1.425-1.295-1.92-2.159c1.94,1.739,3.78,3.579,5.52,5.52
	c-0.786-0.414-1.134-1.267-1.92-1.68C43.979,256.342,43.419,255.781,42.96,255.12z"/>
<path fill="#A2A2A2" d="M48.24,260.4c-0.414-0.787-1.267-1.135-1.68-1.92c0.786,0.414,1.134,1.267,1.92,1.68
	c1.132,0.389,1.667,1.373,2.4,2.16C49.991,261.689,49.184,260.977,48.24,260.4z"/>
<path fill="#2C2C2C" d="M231.12,280.32c0.193-0.607,0.988-0.611,1.44-0.961C232.413,280.014,231.901,280.301,231.12,280.32z"/>
<path fill="#2C2C2C" d="M229.44,281.279c0.191-0.605,0.988-0.61,1.439-0.959C230.733,280.975,230.221,281.262,229.44,281.279z"/>
<path fill="#2C2C2C" d="M77.76,281.279c0.56,0.08,1.034,0.246,1.2,0.722C78.352,282.105,77.224,281.527,77.76,281.279z"/>
<path fill="#A2A2A2" d="M142.32,0c1.84,0,3.68,0,5.52,0c-0.729,0.711-3.111-0.231-3.84,0.48c-0.32,0-0.64,0-0.96,0
	c-0.16,0-0.32,0-0.479,0C142.561,0.239,142.366,0.194,142.32,0z"/>
<path fill="#676767" d="M166.32,0.48c3.722,0.199,7.283,0.557,10.56,1.2c0,0.08,0,0.16,0,0.24c-3.506-0.413-7.023-0.815-10.56-1.2
	C166.32,0.64,166.32,0.56,166.32,0.48z"/>
<path fill="#2C2C2C" d="M176.879,1.68c3.556,0.605,7.539,0.782,10.32,2.16c-3.395-0.686-6.867-1.292-10.32-1.92
	C176.879,1.84,176.879,1.76,176.879,1.68z"/>
<path fill="#2C2C2C" d="M188.4,4.08c1.966-0.124,5.067,0.691,6.72,1.68C192.799,5.281,190.56,4.721,188.4,4.08z"/>
<path fill="#2C2C2C" d="M206.641,9.36c0.73,0.069,1.638-0.038,1.68,0.72c-0.759,0.039-0.802-0.638-1.68-0.48
	C206.641,9.52,206.641,9.44,206.641,9.36z"/>
<path fill="#2C2C2C" d="M208.561,10.08c0.73,0.069,1.639-0.038,1.68,0.72c-0.759,0.04-0.802-0.638-1.68-0.48
	C208.561,10.24,208.561,10.16,208.561,10.08z"/>
<path fill="#2C2C2C" d="M211.681,11.28c1.151-0.113,1.575,0.504,2.159,0.96C213.081,11.959,212.2,11.801,211.681,11.28z"/>
<path fill="#2C2C2C" d="M214.32,12.48c0.947-0.3,2.647,0.707,3.36,1.44C216.474,13.527,215.461,12.939,214.32,12.48z"/>
<path fill="#010101" d="M221.28,15.6c1.521,0.477,2.691,1.309,4.08,1.92c0.34,0.701,1.318,0.762,1.92,1.2
	c0.655-0.175,0.483,0.478,0.961,0.48c0.51,0.37,1.068,0.69,1.68,0.96c0.24-0.001,0.285,0.194,0.479,0.24
	c0.511,0.371,1.069,0.69,1.681,0.96c7.924,4.476,14.949,9.851,21.84,15.36c1.097,1.145,2.188,2.292,3.601,3.12
	c0.938,1.141,1.979,2.181,3.12,3.12c0.24,0,0.285,0.194,0.479,0.24c1.262,1.46,2.621,2.82,4.08,4.08c0,0.241,0.194,0.286,0.24,0.479
	c0.859,1.06,1.818,2.021,2.88,2.88c0.403,0.957,1.147,1.573,1.921,2.16c2.401,2.958,4.801,5.919,7.199,8.88
	c0.208,0.752,0.596,1.325,1.2,1.68c0.2,0.76,0.7,1.22,1.2,1.68c0.207,0.752,0.595,1.326,1.199,1.68
	c0.271,1.007,1.004,1.555,1.439,2.4c0.626,0.734,0.861,1.857,1.68,2.4c0,0.08,0,0.16,0,0.24c1.19,1.689,2.021,3.741,3.36,5.28
	c0.032,0.447,0.157,0.802,0.479,0.96c0.08,0.56,0.246,1.034,0.721,1.2c-0.037,0.597,0.377,0.743,0.479,1.2
	c0.524,0.756,0.653,1.907,1.44,2.4c0.315,1.205,0.989,2.049,1.438,3.12c0.268,0.934,0.664,1.736,1.2,2.4
	c-0.01,0.33,0.113,0.527,0.24,0.72c0.344,0.617,0.399,1.521,0.96,1.92c0.186,0.615,0.238,1.361,0.721,1.68c0,0.08,0,0.16,0,0.24
	c0.451,0.829,0.572,1.987,1.199,2.64c0.701,2.019,1.512,3.93,2.16,6c0.449,1.39,0.788,2.893,1.439,4.08
	c0.723,2.158,1.467,4.293,1.92,6.72c0.334,1.585,0.623,3.218,1.201,4.56c0.039,0.359-0.086,0.886,0.238,0.96
	c0.311,2.65,0.857,5.062,1.439,7.44c0.195,2.205,0.486,4.314,0.961,6.24c0.148,0.651-0.305,1.904,0.24,2.16
	c0.051,1.708,0.109,3.41,0.479,4.8c0,0.24,0,0.48,0,0.72c0.385,5.936,0.202,12.438,0.24,18.72c0,0.32,0,0.641,0,0.96
	c-0.551,0.489-0.088,1.993-0.24,2.881c-0.451,4.669-1.029,9.21-1.68,13.681c-0.916,4.846-2.008,9.513-3.12,14.16
	c-0.49,1.35-0.935,2.744-1.2,4.318c-0.891,1.909-1.471,4.131-2.16,6.24c-0.074,0.324-0.342,0.459-0.238,0.96
	c-0.344,0.458-0.56,1.042-0.722,1.681c-0.138,0.502-0.595,0.686-0.479,1.439c-0.469,0.57-0.604,1.476-0.959,2.16
	c0,0.08,0,0.16,0,0.24c-0.797,1.282-1.326,2.832-1.92,4.318c-0.246,0.314-0.235,0.885-0.48,1.2c-0.458,0.502-0.773,1.146-0.96,1.92
	c-0.729,1.75-1.647,3.312-2.399,5.04c-0.701,0.34-0.762,1.318-1.199,1.92c0.174,0.654-0.479,0.482-0.48,0.96
	c-0.68,1.08-1.318,2.2-1.92,3.36c-4.671,8.209-10.18,15.582-16.08,22.561c-0.632,0.568-1.445,0.953-1.68,1.92
	c-0.98,0.779-1.86,1.659-2.641,2.641c0,0.08,0,0.16,0,0.24c-2.101,1.898-4.101,3.898-6,6c-0.08,0-0.16,0-0.24,0
	c-0.979,0.778-1.859,1.658-2.641,2.639c-0.956,0.404-1.572,1.147-2.16,1.921c-2.895,2.306-5.849,4.552-8.64,6.96
	c-0.752,0.208-1.325,0.595-1.681,1.199c-2.93,1.711-5.299,3.981-8.399,5.521c-0.733,0.626-1.856,0.862-2.399,1.68
	c-0.851-0.129-0.59,0.851-1.439,0.721c-0.452,0.349-1.247,0.353-1.439,0.96c-0.08,0-0.16,0-0.24,0
	c-0.451,0.349-1.248,0.354-1.439,0.96c-0.33-0.01-0.527,0.113-0.72,0.24c-0.603,0.438-1.581,0.498-1.921,1.199
	c-0.33-0.011-0.526,0.113-0.721,0.24c-1.92,0.959-3.84,1.92-5.76,2.88c-0.82,0.38-1.812,0.587-2.4,1.2c-0.078,0-0.158,0-0.238,0
	c-0.616,0.343-1.521,0.398-1.92,0.96c-0.756,0.125-1.34,0.421-1.92,0.72c-1.238,0.603-2.776,0.904-3.842,1.68
	c-3.27,1.132-6.613,2.187-9.84,3.361c-0.865,0.092-1.602,0.317-2.16,0.719c-1.373,0.547-3.025,0.813-4.56,1.201
	c-1.267,0.254-2.579,0.461-3.601,0.959c-0.358,0.041-0.885-0.086-0.959,0.24c-3.828,0.652-7.575,1.387-11.28,2.16
	c-1.269,0.012-2.453,0.105-3.36,0.479c-0.574,0.146-1.74-0.301-1.92,0.24c-0.65,0.148-1.904-0.305-2.16,0.24
	c-0.808,0.15-2.229-0.311-2.64,0.239c-0.888,0.153-2.392-0.312-2.88,0.239c-2.139,0.021-4.473-0.151-6,0.48c-3.36,0-6.72,0-10.08,0
	c-5.521-0.799-11.719-0.922-17.28-1.682c-0.835-0.364-1.967-0.434-3.12-0.479c-2.883-0.638-5.773-1.267-8.88-1.681
	c-0.418,0.019-0.747-0.054-0.96-0.239c-2.079-0.722-4.32-1.279-6.72-1.681c-1.329-0.751-3.232-0.929-4.8-1.439
	c-1.188-0.651-2.69-0.989-4.08-1.44c-0.533-0.187-0.936-0.504-1.68-0.479c-0.04-0.279-0.379-0.261-0.72-0.24
	c-0.407-0.473-1.116-0.644-1.92-0.72c-2.524-1.235-5.34-2.181-7.92-3.36c-0.08,0-0.16,0-0.24,0c-0.336-0.383-0.827-0.612-1.44-0.72
	c-0.457-0.104-0.603-0.518-1.2-0.479c-2.159-1.36-4.667-2.372-6.96-3.6c-0.601-0.199-0.942-0.658-1.68-0.721
	c-0.166-0.475-0.64-0.641-1.2-0.721c-1.608-1.032-3.268-2.012-5.04-2.881c-0.542-0.816-1.666-1.053-2.4-1.68
	c-7.054-4.227-13.234-9.326-19.44-14.4c-0.732-0.786-1.268-1.771-2.4-2.159c-2.86-3.06-5.82-6.021-8.88-8.88
	c-0.388-1.133-1.373-1.668-2.16-2.399c-4.063-4.817-8.225-9.536-11.52-15.12c-0.676-0.844-1.081-1.959-1.92-2.641
	c-1.221-1.979-2.65-3.749-3.6-6c-0.6-1.159-1.24-2.279-1.92-3.359c-0.003-0.478-0.655-0.306-0.48-0.96
	c-0.523-0.757-0.653-1.907-1.44-2.399c-0.315-1.205-0.99-2.051-1.44-3.121c-0.346-1.094-0.825-2.055-1.44-2.879
	c0.037-0.598-0.377-0.743-0.48-1.2c-0.107-0.613-0.337-1.104-0.72-1.439c0-0.079,0-0.159,0-0.239
	c-0.107-0.613-0.336-1.104-0.72-1.44c0-0.08,0-0.16,0-0.239c-0.622-1.539-1.172-3.148-1.92-4.561c-0.03-0.85-0.394-1.365-0.72-1.92
	c-0.099-1.102-0.525-1.875-0.96-2.641c-0.171-1.109-0.485-2.076-0.96-2.88c-0.073-1.288-0.489-2.231-0.96-3.12
	c-0.139-1.302-0.456-2.425-0.96-3.359c-0.5-2.779-1.161-5.399-1.92-7.92c0.139-0.779-0.164-1.116-0.24-1.681
	c-1.214-6.065-1.939-12.622-2.64-19.2c0-0.319,0-0.641,0-0.959c0.02-2.021,0.042-4.043-0.48-5.521c0-2.319,0-4.64,0-6.96
	c0.838-10.762,1.954-21.246,4.08-30.72c-0.018-0.418,0.054-0.747,0.24-0.96c0.588-1.732,1.15-3.491,1.44-5.52
	c0.474-0.566,0.565-1.515,0.72-2.4c0.471-0.889,0.888-1.832,0.96-3.12c0.539-0.101,0.007-1.273,0.48-1.44
	c0.568-0.631,0.79-1.61,0.96-2.64c0.28-0.041,0.261-0.379,0.24-0.72c0.473-0.407,0.644-1.116,0.72-1.92
	c0.498-0.623,0.818-1.422,0.96-2.4c0.603-0.757,0.887-1.833,1.2-2.88c0.48-0.32,0.535-1.065,0.72-1.68
	c0.383-0.336,0.613-0.827,0.72-1.44c0.103-0.457,0.517-0.603,0.48-1.2c1.361-2.159,2.373-4.667,3.6-6.96
	c0.199-0.601,0.658-0.942,0.72-1.68c0.474-0.166,0.64-0.64,0.72-1.2c0.444-0.676,1.012-1.228,1.2-2.16
	c0.607-0.193,0.612-0.988,0.96-1.44c0-0.08,0-0.16,0-0.24c0.817-0.543,1.054-1.666,1.68-2.4c0-0.08,0-0.16,0-0.24
	c1.482-1.878,2.686-4.035,4.08-6c2.764-4.437,6.22-8.18,9.36-12.24c0.555-0.485,1.282-0.797,1.44-1.68c0.9-0.699,1.7-1.499,2.4-2.4
	c0-0.08,0-0.16,0-0.24c2.66-2.46,5.22-5.02,7.68-7.68c1.716-1.164,3.14-2.62,4.56-4.08c9.103-7.697,18.886-14.714,30.24-20.16
	c1.011-0.59,2.244-0.957,3.12-1.68c0.755-0.285,1.27-0.81,2.16-0.96c0.774-0.186,1.418-0.502,1.92-0.96
	c0.615-0.186,1.36-0.24,1.68-0.72c1.044-0.076,1.519-0.721,2.4-0.96c1.411-0.509,2.841-0.999,4.08-1.68c0.08,0,0.16,0,0.24,0
	c0.638-0.162,1.222-0.377,1.68-0.72c0.08,0,0.16,0,0.24,0c0.903-0.217,1.724-0.516,2.4-0.96c11.425-3.936,23.753-6.967,38.16-7.92
	c0.729-0.151,2.067,0.307,2.4-0.24c0.32,0,0.64,0,0.96,0c2.182,0.022,4.348,0.029,6-0.48c2.4,0,4.8,0,7.201,0
	c0.256,0.545,1.508,0.091,2.159,0.24c0.728,0.554,2.476,0.084,3.601,0.24c0.319,0,0.641,0,0.959,0c0.334,0.547,1.672,0.089,2.4,0.24
	c3.535,0.384,7.055,0.787,10.561,1.2c3.453,0.628,6.926,1.234,10.32,1.92c0.577-0.098,0.521,0.438,1.199,0.24
	c2.159,0.641,4.398,1.201,6.721,1.68c1.351,0.49,2.746,0.935,4.319,1.2c1.909,0.891,4.13,1.47,6.24,2.16
	c0.323,0.075,0.458,0.341,0.96,0.24c0,0.08,0,0.16,0,0.24c0.878-0.158,0.921,0.519,1.68,0.48c0.08,0,0.16,0,0.24,0
	c0,0.08,0,0.16,0,0.24c0.878-0.158,0.921,0.52,1.68,0.48c0.502,0.138,0.686,0.595,1.44,0.48c0.519,0.521,1.399,0.679,2.159,0.96
	c0.24-0.001,0.285,0.194,0.479,0.24c1.142,0.459,2.153,1.047,3.36,1.44c0.457,0.103,0.604,0.517,1.199,0.48
	C219.543,14.936,220.347,15.334,221.28,15.6z"/>
<path fill="#2C2C2C" d="M12,92.4c-0.313,1.046-0.598,2.123-1.2,2.88C11.151,94.271,11.117,92.877,12,92.4z"/>
<path fill="#2C2C2C" d="M9.84,97.68c-0.076,0.804-0.247,1.513-0.72,1.92C9.472,99.072,9.091,97.812,9.84,97.68z"/>
<path fill="#676767" d="M298.561,101.52c0.895,0.946,1.232,2.448,1.439,4.08C299.349,104.413,299.01,102.91,298.561,101.52z"/>
<path fill="#2C2C2C" d="M7.44,104.4c-0.072,1.288-0.489,2.231-0.96,3.12C6.363,106.043,7.088,105.409,7.44,104.4z"/>
<path fill="#2C2C2C" d="M301.92,112.32c0.906,1.014,1.137,2.705,1.201,4.56C302.543,115.538,302.254,113.906,301.92,112.32z"/>
<path fill="#2C2C2C" d="M5.76,109.92c-0.29,2.029-0.852,3.788-1.44,5.52C4.442,113.242,5.091,111.572,5.76,109.92z"/>
<path fill="#2C2C2C" d="M303.36,117.84c0.471-0.48,0.501,1.576,0.721,2.64c0.256,1.239,0.801,2.81,0.721,3.84c0,0.32,0,0.64,0,0.96
	C304.219,122.902,303.67,120.49,303.36,117.84z"/>
<path fill="#2C2C2C" d="M4.08,116.4c-2.126,9.474-3.242,19.958-4.08,30.72c0-0.72,0-1.44,0-2.16c0.557-1.283,0.082-3.598,0.24-5.28
	C1.229,131.629,1.954,123.314,4.08,116.4z"/>
<path fill="#676767" d="M304.801,124.32c0.533,1.867,0.846,3.954,0.959,6.24c0,0.32,0,0.64,0,0.96
	c-0.475-1.925-0.764-4.035-0.959-6.24C304.801,124.96,304.801,124.64,304.801,124.32z"/>
<path fill="#2C2C2C" d="M305.76,131.521c0-0.32,0-0.64,0-0.96c0.541,0.179,0.095,1.346,0.24,1.92c0,0.4,0,0.8,0,1.2
	C305.456,133.425,305.909,132.171,305.76,131.521z"/>
<path fill="#676767" d="M306,132.48c0.508,1.651,0.502,3.818,0.479,6c-0.369-1.391-0.429-3.092-0.479-4.8
	C306,133.28,306,132.88,306,132.48z"/>
<path fill="#A2A2A2" d="M0.24,139.68c-0.158,1.682,0.317,3.997-0.24,5.28c0-1.84,0-3.68,0-5.52
	C0.146,139.454,0.284,139.476,0.24,139.68z"/>
<path fill="#D7D7D7" d="M307.2,140.88c0,1.76,0,3.52,0,5.28c-0.078,0-0.158,0-0.238,0c0-1.68,0-3.36,0-5.04
	C306.975,140.974,306.997,140.836,307.2,140.88z"/>
<path fill="#676767" d="M306.721,161.761c-0.283,4.837-0.817,9.423-1.68,13.681c-0.08,0-0.16,0-0.24,0
	c0.648-4.471,1.229-9.012,1.68-13.681C306.561,161.761,306.641,161.761,306.721,161.761z"/>
<path fill="#2C2C2C" d="M0.48,160.561c0.701,6.578,1.426,13.135,2.64,19.2c-0.08,0-0.16,0-0.24,0
	c-1.081-5.56-2.007-11.272-2.4-17.521C0.48,161.682,0.48,161.12,0.48,160.561z"/>
<path fill="#2C2C2C" d="M305.042,175.439c-0.875,4.965-1.547,10.136-3.36,14.16c1.112-4.646,2.204-9.313,3.12-14.16
	C304.881,175.439,304.961,175.439,305.042,175.439z"/>
<path fill="#676767" d="M3.36,181.439c-0.488-0.23-0.518-0.922-0.48-1.68c0.08,0,0.16,0,0.24,0
	C3.196,180.324,3.499,180.661,3.36,181.439z"/>
<path fill="#2C2C2C" d="M5.28,189.359c-1.084-2.194-1.553-5.006-1.92-7.92C4.119,183.961,4.779,186.581,5.28,189.359z"/>
<path fill="#2C2C2C" d="M7.2,195.841c-0.352-1.009-1.078-1.644-0.96-3.12C6.711,193.609,7.127,194.553,7.2,195.841z"/>
<path fill="#676767" d="M9.12,201.359c-0.689-0.51-0.863-1.536-0.96-2.639C8.595,199.484,9.021,200.26,9.12,201.359z"/>
<path fill="#676767" d="M298.081,201.12c-0.068,0.731,0.039,1.639-0.721,1.681C297.522,202.162,297.738,201.578,298.081,201.12z"/>
<path fill="#2C2C2C" d="M9.84,203.279c-0.608-0.271-0.696-1.062-0.72-1.92C9.446,201.915,9.81,202.432,9.84,203.279z"/>
<path fill="#676767" d="M11.76,207.841c-1.042-1.118-1.642-2.679-1.92-4.562C10.588,204.691,11.139,206.302,11.76,207.841z"/>
<path fill="#676767" d="M296.881,204.24c-0.1,0.941-0.094,1.986-0.961,2.16C296.275,205.716,296.413,204.812,296.881,204.24z"/>
<path fill="#2C2C2C" d="M295.92,206.641c-0.414,1.668-0.967,3.193-1.92,4.319C294.595,209.475,295.124,207.924,295.92,206.641z"/>
<path fill="#2C2C2C" d="M213.84,288.721c-0.703,1.137-2.551,1.129-3.84,1.68C211.064,289.625,212.603,289.322,213.84,288.721z"/>
<path fill="#2C2C2C" d="M98.4,290.881c0.804,0.076,1.513,0.247,1.92,0.721C99.792,291.249,98.532,291.629,98.4,290.881z"/>
<path fill="#676767" d="M101.04,291.841c0.744-0.024,1.147,0.293,1.68,0.479c0,0.08,0,0.16,0,0.24
	C102.005,292.477,101.259,292.422,101.04,291.841z"/>
<path fill="#2C2C2C" d="M102.72,292.32c1.39,0.449,2.892,0.787,4.08,1.439c-1.872,0.111-2.483-1.037-4.08-1.199
	C102.72,292.48,102.72,292.4,102.72,292.32z"/>
<path fill="#676767" d="M200.161,293.761c-0.31,0.651-1.193,0.728-2.16,0.72C198.559,294.079,199.293,293.854,200.161,293.761z"/>
<path fill="#2C2C2C" d="M111.6,295.2c2.4,0.399,4.642,0.959,6.72,1.681C115.938,296.463,113.44,296.16,111.6,295.2z"/>
<path fill="#2C2C2C" d="M193.44,295.682c-0.689,0.83-2.091,0.948-3.6,0.959C190.861,296.143,192.174,295.936,193.44,295.682z"/>
<path fill="#2C2C2C" d="M119.28,297.12c3.107,0.414,5.997,1.043,8.88,1.681c-0.32,0-0.64,0-0.96,0
	C124.472,298.329,121.613,297.988,119.28,297.12z"/>
<path fill="#2C2C2C" d="M188.881,296.881c0.404,0.303-1.012,0.562-1.682,0.721c-2.936,0.694-6.199,1.103-8.88,1.439
	c-0.239,0-0.479,0-0.72,0C181.306,298.268,185.053,297.533,188.881,296.881z"/>
<path fill="#676767" d="M127.2,298.801c0.32,0,0.64,0,0.96,0c1.153,0.047,2.285,0.114,3.12,0.479c-0.32,0-0.64,0-0.96,0
	C129.377,299.023,127.972,299.229,127.2,298.801z"/>
<path fill="#2C2C2C" d="M130.32,299.279c0.32,0,0.64,0,0.96,0c5.562,0.76,11.759,0.883,17.28,1.682c-0.56,0-1.12,0-1.68,0
	c-1.204-0.557-3.438-0.083-5.04-0.24C138.107,300.134,133.936,299.984,130.32,299.279z"/>
<path fill="#676767" d="M178.32,299.041c-0.813,0.386-1.907,0.491-3.12,0.479c-0.318,0-0.64,0-0.959,0
	c0.906-0.373,2.092-0.468,3.359-0.479C177.84,299.041,178.081,299.041,178.32,299.041z"/>
<path fill="#2C2C2C" d="M174.241,299.521c0.319,0,0.641,0,0.959,0c-0.179,0.541-1.346,0.094-1.92,0.239c-0.32,0-0.64,0-0.96,0
	C172.499,299.221,173.667,299.667,174.241,299.521z"/>
<path fill="#676767" d="M172.32,299.761c0.32,0,0.64,0,0.96,0c-0.179,0.541-1.346,0.095-1.92,0.24c-0.4,0-0.8,0-1.199,0
	C170.417,299.456,171.668,299.909,172.32,299.761z"/>
<path fill="#2C2C2C" d="M170.161,300.001c0.399,0,0.799,0,1.199,0c-0.333,0.547-1.671,0.089-2.4,0.239c-0.479,0-0.959,0-1.438,0
	C167.931,299.691,169.353,300.152,170.161,300.001z"/>
<path fill="#676767" d="M167.521,300.24c0.479,0,0.96,0,1.438,0c-0.805,0.555-2.635,0.084-3.84,0.24c-0.16,0-0.318,0-0.479,0
	C165.129,299.93,166.633,300.395,167.521,300.24z"/>
<path fill="#A2A2A2" d="M141.84,300.721c1.603,0.157,3.836-0.316,5.04,0.24c-1.76,0-3.52,0-5.28,0
	C141.614,300.814,141.636,300.677,141.84,300.721z"/>
<path fill="#676767" d="M157.2,0c2.562,0,5.12,0,7.68,0c-0.17,0.652,1.133-0.172,0.961,0.48c-0.641,0-1.279,0-1.92,0
	c-0.319,0-0.641,0-0.961,0c-0.726-0.554-2.475-0.084-3.6-0.24C158.709,0.091,157.456,0.545,157.2,0z"/>
<path fill="#A2A2A2" d="M307.2,154.801c0,1.76,0,3.52,0,5.279c-0.65-0.172,0.172,1.132-0.479,0.96c0-0.72,0-1.438,0-2.16
	c0-0.319,0-0.64,0-0.96c0.553-0.566,0.086-2.152,0.24-3.119C307.04,154.801,307.122,154.801,307.2,154.801z"/>
<path fill="#A2A2A2" d="M0,156c0.71,0.648-0.23,2.951,0.48,3.602c0,0.318,0,0.64,0,0.959c0,0.561,0,1.121,0,1.681
	c-0.396-0.005-0.134-0.666-0.48-0.72C0,159.682,0,157.84,0,156z"/>
<path fill="#D7D7D7" d="M161.761,300.961c0.646-0.554,2.313-0.086,3.358-0.24c0.146,0.014,0.284,0.036,0.24,0.24
	C164.161,300.961,162.959,300.961,161.761,300.961z"/>
<path fill="#2C2C2C" d="M306.961,141.12c0,1.68,0,3.36,0,5.04c0,2.88,0,5.76,0,8.641c-0.154,0.967,0.312,2.553-0.24,3.119
	c-0.038-6.281,0.145-12.784-0.24-18.72C307.174,139.307,306.268,141.014,306.961,141.12z"/>
</svg>
