<?xml version="1.0" encoding="utf-8"?>
<!-- Generator: Adobe Illustrator 13.0.0, SVG Export Plug-In . SVG Version: 6.00 Build 14948)  -->
<!DOCTYPE svg PUBLIC "-//W3C//DTD SVG 1.1//EN" "http://www.w3.org/Graphics/SVG/1.1/DTD/svg11.dtd">
<svg version="1.1" id="Layer_1" xmlns="http://www.w3.org/2000/svg" xmlns:xlink="http://www.w3.org/1999/xlink" x="0px" y="0px"
	 width="319.441px" height="386.041px" viewBox="0 0 319.441 386.041" enable-background="new 0 0 319.441 386.041"
	 xml:space="preserve">
<path d="M15.36,0.08c5.04,0,10.08,0,15.12,0c3.481,0.999,7.278,1.682,9.84,3.6c0.08,0,0.16,0,0.24,0
	c2.303,1.857,4.383,3.937,6.24,6.24c1.828,2.652,2.236,6.724,3.36,10.08c1.005,5.315,2.232,10.408,3.6,15.36c0,0.08,0,0.16,0,0.24
	c0.084,1.115,0.308,2.092,0.72,2.88c-0.077,0.557,0.039,0.921,0.24,1.2c0.084,1.115,0.308,2.092,0.72,2.88
	c-0.076,0.557,0.039,0.921,0.24,1.2c0.534,2.746,1.077,5.483,1.92,7.92c2.049,9.711,4.29,19.23,6.72,28.56
	c0.684,3.956,1.592,7.688,2.64,11.28c0,0.08,0,0.16,0,0.24c0.085,1.115,0.308,2.092,0.72,2.88c-0.077,0.557,0.039,0.921,0.24,1.2
	c0.085,1.115,0.308,2.092,0.72,2.88c-0.077,0.557,0.039,0.921,0.24,1.2c0.085,1.115,0.308,2.092,0.72,2.88
	c-0.077,0.557,0.039,0.921,0.24,1.2c0.534,2.746,1.077,5.483,1.92,7.92c1.729,8.351,3.649,16.51,5.76,24.48
	c0.684,3.956,1.592,7.688,2.64,11.28c0,0.08,0,0.16,0,0.24c0.085,1.115,0.308,2.092,0.72,2.88c-0.077,0.557,0.039,0.921,0.24,1.2
	c0.085,1.115,0.308,2.092,0.72,2.88c-0.077,0.557,0.039,0.921,0.24,1.2c0.085,1.115,0.308,2.092,0.72,2.88
	c-0.077,0.557,0.039,0.921,0.24,1.2c0.534,2.747,1.077,5.483,1.92,7.92c1.729,8.351,3.649,16.51,5.76,24.48
	c1.005,5.315,2.232,10.408,3.6,15.36c0,0.08,0,0.159,0,0.239c0.084,1.115,0.308,2.092,0.72,2.88c-0.076,0.558,0.039,0.922,0.24,1.2
	c0.085,1.115,0.308,2.092,0.72,2.88c-0.076,0.557,0.039,0.922,0.24,1.2c0.534,2.746,1.077,5.482,1.92,7.92
	c1.729,8.352,3.649,16.511,5.76,24.479c1.004,5.315,2.232,10.407,3.6,15.36c0,0.079,0,0.158,0,0.238
	c0.085,1.115,0.308,2.093,0.72,2.881c-0.077,0.557,0.039,0.922,0.24,1.199c0.085,1.115,0.308,2.093,0.72,2.881
	c-0.077,0.557,0.039,0.922,0.24,1.199c0.534,2.746,1.077,5.483,1.92,7.92c1.729,8.353,3.649,16.512,5.76,24.48
	c1.005,5.314,2.232,10.407,3.6,15.359c0,0.08,0,0.16,0,0.24c0.085,1.114,0.308,2.092,0.72,2.879
	c-0.077,0.558,0.039,0.923,0.24,1.201c0.085,1.114,0.308,2.092,0.72,2.879c-0.077,0.558,0.039,0.922,0.24,1.201
	c0.534,2.746,1.077,5.482,1.92,7.92c2.049,9.711,4.29,19.229,6.72,28.561c0.684,3.956,1.592,7.688,2.64,11.279c0,0.08,0,0.16,0,0.24
	c0.084,1.114,0.308,2.092,0.72,2.879c-0.077,0.558,0.039,0.922,0.24,1.201c0.084,1.114,0.308,2.092,0.72,2.879
	c0.048,0.912,0.212,1.709,0.48,2.4c-45.359,0-90.721,0-136.08,0C0,257.515,0,129.047,0,0.56C4.684-0.036,10.712,0.712,15.36,0.08z"
	/>
<path fill="#D3D1D0" d="M198.24,293.601c0.967-0.399,3.594-0.399,4.561,0C201.28,293.601,199.761,293.601,198.24,293.601z"/>
<path fill="#D3D1D0" d="M277.44,293.601c0.968-0.399,3.595-0.399,4.562,0C280.48,293.601,278.96,293.601,277.44,293.601z"/>
<path fill="#9E9B9B" d="M197.041,293.84c-0.041-0.521,0.852-0.108,1.199-0.239c1.521,0,3.04,0,4.561,0
	c0.359,0.041,0.887-0.086,0.961,0.239C201.521,293.84,199.28,293.84,197.041,293.84z"/>
<path fill="#9E9B9B" d="M276.24,293.84c-0.039-0.521,0.852-0.108,1.2-0.239c1.521,0,3.04,0,4.562,0
	c0.357,0.041,0.886-0.086,0.959,0.239C280.721,293.84,278.48,293.84,276.24,293.84z"/>
<path fill="#292827" d="M197.041,294.081c0-0.08,0-0.16,0-0.24c2.239,0,4.479,0,6.721,0c0.08,0,0.158,0,0.238,0
	c0,0.08,0,0.16,0,0.24C201.681,294.081,199.36,294.081,197.041,294.081z"/>
<path fill="#292827" d="M276.24,294.081c0-0.08,0-0.16,0-0.24c2.24,0,4.48,0,6.721,0c0.08,0,0.16,0,0.24,0c0,0.08,0,0.16,0,0.24
	C280.88,294.081,278.561,294.081,276.24,294.081z"/>
<path fill="#D3D1D0" d="M156.72,302.24c0.336-0.397,2.304-0.397,2.64,0C158.48,302.24,157.6,302.24,156.72,302.24z"/>
<path fill="#D3D1D0" d="M235.921,302.24c0.412-0.397,2.466-0.397,2.879,0C237.841,302.24,236.88,302.24,235.921,302.24z"/>
<path fill="#D3D1D0" d="M315.121,302.24c0.414-0.397,2.467-0.397,2.881,0C317.041,302.24,316.082,302.24,315.121,302.24z"/>
<path fill="#292827" d="M157.2,302.479c2.4,0,4.799,0,7.2,0C162.558,302.879,159.043,302.879,157.2,302.479z"/>
<path fill="#292827" d="M236.4,302.479c2.4,0,4.801,0,7.2,0C241.757,302.879,238.244,302.879,236.4,302.479z"/>
<path fill="#292827" d="M196.32,323.121c2.242-0.399,6.158-0.399,8.4,0C201.919,323.121,199.121,323.121,196.32,323.121z"/>
<path fill="#292827" d="M275.521,323.121c2.162-0.399,5.998-0.399,8.16,0C280.96,323.121,278.24,323.121,275.521,323.121z"/>
<path fill="#292827" d="M161.761,331.521c0.726-0.555,2.475-0.084,3.6-0.24c-0.104,0.537-1.183,0.098-1.68,0.24
	C163.041,331.521,162.4,331.521,161.761,331.521z"/>
<path fill="#292827" d="M235.681,331.521c0-0.08,0-0.16,0-0.24c1.045,0.154,2.713-0.312,3.359,0.24c-0.561,0-1.119,0-1.681,0
	C236.8,331.521,236.24,331.521,235.681,331.521z"/>
<path fill="#292827" d="M241.201,331.521c0.646-0.554,2.314-0.086,3.359-0.24c0,0.08,0,0.16,0,0.24c-0.561,0-1.12,0-1.68,0
	C242.32,331.521,241.761,331.521,241.201,331.521z"/>
<path fill="#292827" d="M314.88,331.521c0-0.08,0-0.16,0-0.24c1.045,0.154,2.713-0.312,3.359,0.24c-0.561,0-1.119,0-1.68,0
	C316.001,331.521,315.441,331.521,314.88,331.521z"/>
<path fill="#605D5D" d="M157.92,331.76c0-0.079,0-0.159,0-0.239c0.64,0,1.28,0,1.92,0c0.64,0,1.281,0,1.919,0
	c0.641,0,1.279,0,1.921,0c0,0.08,0,0.16,0,0.239C161.761,331.76,159.84,331.76,157.92,331.76z"/>
<path fill="#605D5D" d="M237.36,331.76c0-0.079,0-0.159,0-0.239c0.562,0,1.12,0,1.681,0c0.721,0,1.439,0,2.16,0
	c0.561,0,1.119,0,1.68,0c0,0.08,0,0.16,0,0.239C241.041,331.76,239.201,331.76,237.36,331.76z"/>
<path fill="#605D5D" d="M316.56,331.76c0-0.079,0-0.159,0-0.239c0.562,0,1.121,0,1.682,0c0.24,0,0.479,0,0.721,0
	c0.16,0,0.318,0,0.479,0c0,0.08,0,0.16,0,0.239C318.48,331.76,317.521,331.76,316.56,331.76z"/>
<path fill="#D3D1D0" d="M163.681,331.76c2.117,0.378-8.15,0.361-5.76,0C159.84,331.76,161.761,331.76,163.681,331.76z"/>
<path fill="#D3D1D0" d="M242.88,331.76c2.162,0.378-7.952,0.36-5.521,0C239.201,331.76,241.041,331.76,242.88,331.76z"/>
<path fill="#D3D1D0" d="M319.441,332c-0.814-0.006-4.691,0.095-2.881-0.24c0.959,0,1.92,0,2.881,0
	C319.441,331.84,319.441,331.92,319.441,332z"/>
<path fill="#D3D1D0" d="M198.24,347.36c0.967-0.398,3.594-0.398,4.561,0C201.28,347.36,199.761,347.36,198.24,347.36z"/>
<path fill="#D3D1D0" d="M277.44,347.36c0.968-0.398,3.595-0.398,4.562,0C280.48,347.36,278.96,347.36,277.44,347.36z"/>
<path fill="#9E9B9B" d="M197.041,347.601c-0.041-0.521,0.852-0.108,1.199-0.24c1.521,0,3.04,0,4.561,0
	c0.35,0.132,1.24-0.28,1.199,0.24C201.681,347.601,199.36,347.601,197.041,347.601z"/>
<path fill="#9E9B9B" d="M276.24,347.601c-0.039-0.521,0.852-0.108,1.2-0.24c1.521,0,3.04,0,4.562,0
	c0.349,0.132,1.24-0.28,1.199,0.24C280.88,347.601,278.561,347.601,276.24,347.601z"/>
<path fill="#292827" d="M197.041,347.84c0-0.08,0-0.159,0-0.239c2.319,0,4.641,0,6.959,0c0,0.08,0,0.159,0,0.239
	C201.681,347.84,199.36,347.84,197.041,347.84z"/>
<path fill="#292827" d="M276.24,347.84c0-0.08,0-0.159,0-0.239c2.32,0,4.641,0,6.961,0c0,0.08,0,0.159,0,0.239
	C280.88,347.84,278.561,347.84,276.24,347.84z"/>
<path fill="#D3D1D0" d="M156.96,356c0.336-0.397,2.304-0.397,2.64,0C158.72,356,157.84,356,156.96,356z"/>
<path fill="#D3D1D0" d="M235.921,356c0.412-0.397,2.466-0.397,2.879,0C237.841,356,236.88,356,235.921,356z"/>
<path fill="#D3D1D0" d="M315.121,356c0.414-0.397,2.467-0.397,2.881,0C317.041,356,316.082,356,315.121,356z"/>
<path fill="#292827" d="M157.44,356.241c2.32,0,4.64,0,6.96,0C162.638,356.64,159.203,356.64,157.44,356.241z"/>
<path fill="#292827" d="M236.4,356.241c2.4,0,4.801,0,7.2,0C241.757,356.64,238.244,356.64,236.4,356.241z"/>
<path fill="#292827" d="M196.32,376.88c2.242-0.398,6.158-0.398,8.4,0C201.919,376.88,199.121,376.88,196.32,376.88z"/>
<path fill="#292827" d="M275.521,376.88c2.242-0.398,6.158-0.398,8.4,0C281.121,376.88,278.32,376.88,275.521,376.88z"/>
<path fill="#292827" d="M161.521,385.281c0.807-0.556,2.637-0.085,3.84-0.24c0,0.08,0,0.16,0,0.24c-0.64,0-1.279,0-1.92,0
	S162.16,385.281,161.521,385.281z"/>
<path fill="#292827" d="M235.681,385.281c0-0.08,0-0.16,0-0.24c1.124,0.155,2.874-0.313,3.6,0.24c-0.64,0-1.279,0-1.92,0
	C236.8,385.281,236.24,385.281,235.681,385.281z"/>
<path fill="#292827" d="M240.96,385.281c0.727-0.556,2.476-0.085,3.601-0.24c0,0.08,0,0.16,0,0.24c-0.562,0-1.12,0-1.681,0
	C242.24,385.281,241.601,385.281,240.96,385.281z"/>
<path fill="#605D5D" d="M237.36,385.521c0-0.08,0-0.16,0-0.24c0.64,0,1.28,0,1.92,0c0.562,0,1.12,0,1.681,0c0.641,0,1.279,0,1.92,0
	c0,0.08,0,0.16,0,0.24C241.041,385.521,239.201,385.521,237.36,385.521z"/>
<path fill="#605D5D" d="M316.56,385.521c0-0.08,0-0.16,0-0.24c0.641,0,1.281,0,1.922,0c0.158,0,0.318,0,0.479,0s0.32,0,0.48,0
	c0,0.08,0,0.16,0,0.24C318.48,385.521,317.521,385.521,316.56,385.521z"/>
<path fill="#D3D1D0" d="M242.88,385.521c2.162,0.377-7.952,0.359-5.521,0C239.201,385.521,241.041,385.521,242.88,385.521z"/>
<path fill="#D3D1D0" d="M319.441,385.76c-0.814-0.006-4.691,0.095-2.881-0.239c0.959,0,1.92,0,2.881,0
	C319.441,385.601,319.441,385.681,319.441,385.76z"/>
<path fill="#292827" d="M40.32,3.68c-2.562-1.918-6.359-2.602-9.84-3.6c0.64,0,1.28,0,1.92,0C35.3,1.02,38.522,1.637,40.32,3.68z"/>
<path fill="#292827" d="M40.56,3.68c0.798,0.402,1.299,1.101,2.16,1.44c0.779,0.98,1.66,1.86,2.64,2.64
	c0.379,0.741,0.827,1.413,1.44,1.92c0,0.08,0,0.16,0,0.24C44.943,7.617,42.863,5.537,40.56,3.68z"/>
<path fill="#605D5D" d="M50.16,20c-1.124-3.356-1.532-7.428-3.36-10.08c0-0.08,0-0.16,0-0.24c1.986,2.334,2.67,5.969,3.36,9.6
	C50.16,19.52,50.16,19.76,50.16,20z"/>
<path fill="#292827" d="M50.16,19.28c1.25,5.31,2.783,10.337,3.6,16.08c-1.368-4.952-2.595-10.045-3.6-15.36
	C50.16,19.76,50.16,19.52,50.16,19.28z"/>
<path fill="#292827" d="M53.76,35.6c0.492,0.468,0.309,1.611,0.72,2.16c0,0.24,0,0.48,0,0.72
	C54.068,37.691,53.845,36.715,53.76,35.6z"/>
<path fill="#292827" d="M54.72,39.68c0.08,0,0.16,0,0.24,0c-0.014,0.895,0.242,1.518,0.48,2.16c0,0.24,0,0.48,0,0.72
	C55.028,41.771,54.805,40.795,54.72,39.68z"/>
<path fill="#605D5D" d="M57.6,50.959c2.334,9.426,4.575,18.945,6.72,28.56c0,0.24,0,0.48,0,0.72
	c-2.431-9.33-4.671-18.849-6.72-28.56C57.6,51.44,57.6,51.2,57.6,50.959z"/>
<path fill="#292827" d="M64.32,79.52c0.932,3.948,2.136,7.624,2.64,12c-1.048-3.592-1.956-7.324-2.64-11.28
	C64.32,80,64.32,79.76,64.32,79.52z"/>
<path fill="#292827" d="M66.96,91.76c0.492,0.468,0.309,1.611,0.72,2.16c0,0.24,0,0.48,0,0.72
	C67.268,93.852,67.045,92.875,66.96,91.76z"/>
<path fill="#292827" d="M67.92,95.84c0.08,0,0.16,0,0.24,0c-0.015,0.895,0.242,1.518,0.48,2.16c0,0.24,0,0.48,0,0.72
	C68.228,97.932,68.005,96.955,67.92,95.84z"/>
<path fill="#292827" d="M68.88,99.92c0.08,0,0.16,0,0.24,0c-0.015,0.895,0.242,1.518,0.48,2.16c0,0.24,0,0.48,0,0.72
	C69.188,102.012,68.965,101.035,68.88,99.92z"/>
<path fill="#605D5D" d="M71.76,111.2c2.014,8.066,3.936,16.225,5.76,24.48c0,0.24,0,0.48,0,0.72c-2.11-7.97-4.031-16.129-5.76-24.48
	C71.76,111.68,71.76,111.44,71.76,111.2z"/>
<path fill="#292827" d="M77.52,135.68c0.932,3.948,2.136,7.624,2.64,12c-1.048-3.592-1.956-7.324-2.64-11.28
	C77.52,136.16,77.52,135.92,77.52,135.68z"/>
<path fill="#292827" d="M80.16,147.92c0.492,0.468,0.309,1.611,0.72,2.16c0,0.24,0,0.48,0,0.72
	C80.468,150.012,80.245,149.035,80.16,147.92z"/>
<path fill="#292827" d="M81.12,152c0.08,0,0.16,0,0.24,0c-0.015,0.895,0.242,1.518,0.48,2.16c0,0.24,0,0.48,0,0.72
	C81.428,154.092,81.205,153.115,81.12,152z"/>
<path fill="#292827" d="M82.08,156.08c0.08,0,0.16,0,0.24,0c-0.015,0.894,0.242,1.518,0.48,2.16c0,0.24,0,0.479,0,0.72
	C82.388,158.172,82.165,157.195,82.08,156.08z"/>
<path fill="#605D5D" d="M84.96,167.36c2.014,8.066,3.936,16.225,5.76,24.48c0,0.24,0,0.48,0,0.72
	c-2.111-7.97-4.031-16.129-5.76-24.48C84.96,167.84,84.96,167.6,84.96,167.36z"/>
<path fill="#292827" d="M90.72,191.84c1.262,5.298,2.766,10.354,3.6,16.081c-1.368-4.952-2.595-10.045-3.6-15.36
	C90.72,192.32,90.72,192.08,90.72,191.84z"/>
<path fill="#292827" d="M94.32,208.16c0.492,0.469,0.309,1.61,0.72,2.159c0,0.24,0,0.48,0,0.721
	C94.628,210.251,94.405,209.274,94.32,208.16z"/>
<path fill="#292827" d="M95.28,212.24c0.08,0,0.16,0,0.24,0c-0.014,0.895,0.242,1.519,0.48,2.159c0,0.24,0,0.48,0,0.721
	C95.588,214.332,95.365,213.354,95.28,212.24z"/>
<path fill="#605D5D" d="M98.16,223.521c2.014,8.065,3.936,16.225,5.76,24.479c0,0.239,0,0.479,0,0.72
	c-2.111-7.97-4.031-16.129-5.76-24.479C98.16,224,98.16,223.76,98.16,223.521z"/>
<path fill="#292827" d="M103.92,248c1.25,5.31,2.782,10.337,3.6,16.08c-1.368-4.953-2.595-10.045-3.6-15.36
	C103.92,248.479,103.92,248.24,103.92,248z"/>
<path fill="#292827" d="M107.52,264.319c0.492,0.47,0.309,1.611,0.72,2.16c0,0.24,0,0.48,0,0.721
	C107.828,266.412,107.605,265.435,107.52,264.319z"/>
<path fill="#292827" d="M108.48,268.399c0.08,0,0.16,0,0.24,0c-0.015,0.896,0.242,1.52,0.48,2.16c0,0.24,0,0.48,0,0.721
	C108.788,270.492,108.565,269.515,108.48,268.399z"/>
<path fill="#605D5D" d="M111.36,279.681c2.014,8.065,3.936,16.225,5.76,24.479c0,0.239,0,0.479,0,0.72
	c-2.11-7.97-4.031-16.129-5.76-24.48C111.36,280.16,111.36,279.92,111.36,279.681z"/>
<path fill="#292827" d="M117.12,304.161c1.25,5.311,2.783,10.337,3.6,16.079c-1.368-4.952-2.595-10.044-3.6-15.359
	C117.12,304.64,117.12,304.399,117.12,304.161z"/>
<path fill="#292827" d="M120.72,320.479c0.492,0.47,0.309,1.611,0.72,2.16c0,0.24,0,0.48,0,0.721
	C121.028,322.571,120.805,321.595,120.72,320.479z"/>
<path fill="#292827" d="M121.68,324.56c0.08,0,0.16,0,0.24,0c-0.015,0.896,0.242,1.52,0.48,2.16c0,0.24,0,0.48,0,0.721
	C121.988,326.651,121.765,325.675,121.68,324.56z"/>
<path fill="#605D5D" d="M124.56,335.84c2.334,9.427,4.576,18.944,6.72,28.56c0,0.24,0,0.48,0,0.722
	c-2.431-9.33-4.671-18.851-6.72-28.562C124.56,336.319,124.56,336.081,124.56,335.84z"/>
<path fill="#292827" d="M131.28,364.399c0.932,3.949,2.136,7.625,2.64,12c-1.048-3.592-1.957-7.322-2.64-11.278
	C131.28,364.88,131.28,364.64,131.28,364.399z"/>
<path fill="#292827" d="M133.92,376.64c0.492,0.469,0.309,1.611,0.72,2.16c0,0.24,0,0.48,0,0.721
	C134.229,378.731,134.005,377.755,133.92,376.64z"/>
<path fill="#292827" d="M134.88,380.72c0.08,0,0.16,0,0.24,0c-0.014,0.896,0.242,1.52,0.48,2.16c0,0.24,0,0.48,0,0.721
	C135.188,382.812,134.965,381.835,134.88,380.72z"/>
<path fill="#D3D1D0" d="M159.36,385.041c0.578,0.942,2.753,0.286,4.08,0.479C165.984,385.526,159.093,386.543,159.36,385.041z"/>
<path fill="#605D5D" d="M45.36,7.76c-0.98-0.78-1.86-1.66-2.64-2.64C43.848,5.751,44.729,6.631,45.36,7.76z"/>
<path fill="#292827" d="M208.08,294.319c1.901,0.341,3.879,0.603,5.28,1.44c-1.776-0.383-3.569-0.751-5.28-1.2
	C208.08,294.479,208.08,294.399,208.08,294.319z"/>
<path fill="#292827" d="M213.601,295.76c2.104,0.537,4.254,1.026,5.76,2.16C217.494,297.147,215.408,296.593,213.601,295.76z"/>
<path fill="#292827" d="M219.601,297.92c4.004,1.517,8.018,3.022,12.72,3.84c0,0.08,0,0.16,0,0.24
	C227.423,301.297,223.223,299.897,219.601,297.92z"/>
<path fill="#605D5D" d="M245.28,302c2.484,0.323,3.312-1.008,5.761-0.722c-1.438,0.562-3.08,0.921-5.041,0.961
	c-0.238,0-0.479,0-0.72,0C245.28,302.16,245.28,302.081,245.28,302z"/>
<path fill="#292827" d="M252.24,301.041c2.561-1.521,6.094-2.067,8.881-3.36C258.597,299.237,255.447,300.167,252.24,301.041z"/>
<path fill="#292827" d="M261.36,297.681c0.698-0.503,1.451-0.949,2.399-1.201c0.16,0,0.32,0,0.479,0
	C263.397,296.998,262.376,297.337,261.36,297.681z"/>
<path fill="#605D5D" d="M263.761,296.479c1.016-0.504,2.018-1.021,3.6-0.959c-0.841,0.52-2.001,0.719-3.119,0.959
	C264.08,296.479,263.921,296.479,263.761,296.479z"/>
<path fill="#292827" d="M269.521,295.041c0.611-0.908,2.626-0.414,3.84-0.722C272.28,294.759,270.837,294.837,269.521,295.041z"/>
<path fill="#292827" d="M288.721,294.56c1.129-0.168,1.429,0.491,2.159,0.721c-0.895,0.015-1.519-0.241-2.159-0.479
	C288.721,294.72,288.721,294.64,288.721,294.56z"/>
<path fill="#292827" d="M291.121,295.28c4.342,0.617,7.482,2.438,10.801,4.08C298.423,297.897,294.916,296.446,291.121,295.28z"/>
<path fill="#292827" d="M302.16,299.36c1.391,0.449,2.894,0.787,4.08,1.439C304.742,300.459,303.261,300.101,302.16,299.36z"/>
<path fill="#292827" d="M306.48,300.8c1.717,0.284,3.311,0.69,5.039,0.96c0,0.08,0,0.16,0,0.24
	C309.658,301.783,307.873,301.489,306.48,300.8z"/>
<path fill="#292827" d="M315.601,302.479c1.199,0,2.4,0,3.6,0c0.08,0,0.16,0,0.24,0c0,9.682,0,19.36,0,29.041
	c-0.16,0-0.318,0-0.479,0c0.559-9.041,0.08-19.119,0.238-28.561C318.55,302.25,316.25,303.19,315.601,302.479z"/>
<path fill="#292827" d="M295.681,325.76c5.42,1.939,10.369,4.353,16.801,5.28c-0.4,0-0.801,0-1.201,0
	c-6.382-0.738-10.898-3.341-16.08-5.28C295.36,325.76,295.521,325.76,295.681,325.76z"/>
<path fill="#292827" d="M253.681,329.601c4.947-1.611,9.006-4.113,14.398-5.281C263.027,325.827,258.972,328.332,253.681,329.601z"
	/>
<path fill="#292827" d="M250.8,330.319c0.697-0.422,1.693-0.547,2.641-0.719c-0.234,0.564-1.385,0.215-1.68,0.719
	C251.44,330.319,251.121,330.319,250.8,330.319z"/>
<path fill="#292827" d="M211.919,324.319c7.095,1.628,12.229,5.213,19.682,6.48c-0.32,0-0.641,0-0.96,0
	c-7.228-1.093-12.06-4.58-18.722-6.24C211.919,324.479,211.919,324.399,211.919,324.319z"/>
<path fill="#292827" d="M185.761,325.28c0.633-0.406,1.369-0.711,2.398-0.721c0.24,0,0.48,0,0.721,0
	C188.14,325.101,186.778,325.019,185.761,325.28z"/>
<path fill="#292827" d="M181.44,326.96c1.091-0.83,2.612-1.229,4.08-1.682c-0.933,0.828-2.694,0.826-3.601,1.682
	C181.761,326.96,181.601,326.96,181.44,326.96z"/>
<path fill="#292827" d="M145.44,315.92c1.135,4.545,2.214,9.146,3.12,13.92c3.32,0.999,7.34,1.3,11.28,1.681c-0.64,0-1.28,0-1.92,0
	c-3.737,0.058-6.655-0.705-9.6-1.439c-0.896-4.865-2.151-9.369-3.12-14.16C145.28,315.92,145.36,315.92,145.44,315.92z"/>
<path fill="#292827" d="M143.76,308.479c0.526,1.636,0.859,3.461,1.2,5.28c-0.08,0-0.16,0-0.24,0c-0.18-1.979-1.047-3.272-1.2-5.28
	C143.6,308.479,143.68,308.479,143.76,308.479z"/>
<path fill="#292827" d="M142.08,301.041c0.526,1.634,0.859,3.461,1.2,5.278c-0.08,0-0.16,0-0.24,0
	c-0.18-1.979-1.047-3.271-1.2-5.278C141.92,301.041,142,301.041,142.08,301.041z"/>
<path fill="#292827" d="M141.36,298.88c-0.016-0.04,0.02-0.479,0-0.48c3.397,0.435,7.54,3.156,11.76,3.36c0,0.08,0,0.16,0,0.24
	c-4.359-0.36-8.369-2.351-11.52-3.12C141.521,298.88,141.44,298.88,141.36,298.88z"/>
<path fill="#605D5D" d="M166.08,302c2.484,0.323,3.312-1.008,5.76-0.722c-1.438,0.562-3.08,0.921-5.039,0.961
	c-0.239,0-0.479,0-0.721,0C166.08,302.16,166.08,302.081,166.08,302z"/>
<path fill="#292827" d="M177.36,299.601c-1.214,0.705-2.76,1.08-4.319,1.439C173.975,300.054,175.685,299.844,177.36,299.601z"/>
<path fill="#292827" d="M177.601,299.601c0.461-0.818,1.617-0.943,2.641-1.201C179.587,299.026,178.537,299.256,177.601,299.601z"/>
<path fill="#292827" d="M180.48,298.399c1.146-0.853,2.691-1.309,4.08-1.92c0.16,0,0.32,0,0.479,0
	C183.628,297.228,182.019,297.778,180.48,298.399z"/>
<path fill="#605D5D" d="M184.561,296.479c1.017-0.504,2.019-1.021,3.601-0.959c-0.842,0.52-2.002,0.719-3.121,0.959
	C184.88,296.479,184.721,296.479,184.561,296.479z"/>
<path fill="#292827" d="M190.32,295.041c0.612-0.908,2.626-0.414,3.84-0.722C193.08,294.759,191.638,294.837,190.32,295.041z"/>
<path fill="#292827" d="M208.08,348.081c1.795,0.445,4.035,0.445,5.28,1.439c-1.776-0.383-3.569-0.75-5.28-1.201
	C208.08,348.241,208.08,348.161,208.08,348.081z"/>
<path fill="#292827" d="M213.601,349.521c2.146,0.494,4.318,0.961,5.76,2.16C217.494,350.907,215.408,350.353,213.601,349.521z"/>
<path fill="#292827" d="M219.601,351.681c2.579,0.86,4.945,1.934,7.439,2.879C224.289,353.872,221.736,352.985,219.601,351.681z"/>
<path fill="#292827" d="M227.28,354.56c1.716,0.284,3.31,0.69,5.04,0.961c0,0.08,0,0.16,0,0.239
	C230.457,355.543,228.671,355.25,227.28,354.56z"/>
<path fill="#605D5D" d="M245.28,355.76c2.484,0.324,3.312-1.008,5.761-0.72c-1.438,0.562-3.08,0.92-5.041,0.96
	c-0.238,0-0.479,0-0.72,0C245.28,355.92,245.28,355.84,245.28,355.76z"/>
<path fill="#605D5D" d="M256.561,353.36c-1.288,0.633-2.729,1.109-4.319,1.439C253.175,353.813,254.884,353.604,256.561,353.36z"/>
<path fill="#292827" d="M256.8,353.36c0.908-1.172,2.849-1.312,4.32-1.92C259.947,352.347,258.298,352.778,256.8,353.36z"/>
<path fill="#292827" d="M261.36,351.44c0.698-0.502,1.451-0.948,2.399-1.199c0.16,0,0.32,0,0.479,0
	C263.397,350.757,262.376,351.097,261.36,351.44z"/>
<path fill="#605D5D" d="M263.761,350.241c1.016-0.504,2.018-1.022,3.6-0.96c-0.841,0.519-2.001,0.718-3.119,0.96
	C264.08,350.241,263.921,350.241,263.761,350.241z"/>
<path fill="#292827" d="M269.521,348.8c0.611-0.906,2.626-0.414,3.84-0.72C272.28,348.521,270.837,348.597,269.521,348.8z"/>
<path fill="#292827" d="M288.721,348.319c5.122,0.878,9.342,2.658,13.2,4.802c-4.145-1.777-8.321-3.521-13.2-4.562
	C288.721,348.479,288.721,348.399,288.721,348.319z"/>
<path fill="#292827" d="M302.16,353.121c1.492,0.348,2.95,0.729,4.08,1.438C304.742,354.219,303.261,353.86,302.16,353.121z"/>
<path fill="#292827" d="M315.841,356.241c1.119,0,2.24,0,3.359,0c0.08,0,0.16,0,0.24,0c0,9.68,0,19.359,0,29.04
	c-0.16,0-0.32,0-0.48,0c0.559-9.042,0.082-19.119,0.24-28.562C318.63,356.011,316.412,356.95,315.841,356.241z"/>
<path fill="#292827" d="M287.761,377.36c11.041,1.839,17.89,7.871,30.721,7.92c-0.641,0-1.281,0-1.922,0
	c-12.084-0.074-18.357-5.961-28.799-7.68C287.761,377.521,287.761,377.44,287.761,377.36z"/>
<path fill="#292827" d="M270.48,377.601c0.656-0.385,1.586-0.494,2.641-0.479c-0.149,0.569-1.478-0.037-1.681,0.479
	C271.121,377.601,270.8,377.601,270.48,377.601z"/>
<path fill="#292827" d="M260.16,380.96c1.965-1.236,4.418-1.982,6.961-2.641c-2.01,1.031-4.623,1.457-6.479,2.641
	C260.48,380.96,260.32,380.96,260.16,380.96z"/>
<path fill="#292827" d="M254.4,383.121c0.805-0.476,1.771-0.789,2.88-0.96c0.16,0,0.32,0,0.479,0
	c-0.725,0.475-2.061,0.337-2.641,0.96C254.88,383.121,254.641,383.121,254.4,383.121z"/>
<path fill="#292827" d="M216.48,379.521c5.368,1.992,10.377,4.342,16.8,5.279c-0.399,0-0.8,0-1.2,0
	c-6.392-0.729-10.959-3.281-16.08-5.279C216.16,379.521,216.32,379.521,216.48,379.521z"/>
<path fill="#292827" d="M208.561,377.36c1.91,0.17,3.571,0.588,5.04,1.199c-1.825-0.175-3.229-0.771-5.04-0.959
	C208.561,377.521,208.561,377.44,208.561,377.36z"/>
<path fill="#292827" d="M174.48,383.36c2.307-0.895,4.604-1.797,6.96-2.641c0.16,0,0.319,0,0.479,0
	C179.496,381.656,177.317,382.837,174.48,383.36z"/>
<path fill="#292827" d="M169.201,384.56c1.631-0.449,3.309-0.852,5.039-1.199c-0.896,0.783-2.621,0.738-3.84,1.199
	C170,384.56,169.601,384.56,169.201,384.56z"/>
<path fill="#605D5D" d="M159.12,382.161c0.38,0.898,0.53,2.029,0.72,3.12c0.56,0,1.121,0,1.68,0c0.64,0,1.28,0,1.92,0
	c0,0.079,0,0.159,0,0.239c-1.327-0.193-3.502,0.463-4.08-0.479c0.239-1.358-0.719-1.521-0.48-2.88
	C158.96,382.161,159.04,382.161,159.12,382.161z"/>
<path fill="#292827" d="M157.44,374.72c0.681,2.359,1.182,4.897,1.68,7.44c-0.08,0-0.16,0-0.24,0
	c-0.394-2.646-1.252-4.828-1.68-7.44C157.28,374.72,157.36,374.72,157.44,374.72z"/>
<path fill="#605D5D" d="M156.48,370.399c0.343,1.418,0.796,2.726,0.96,4.32c-0.08,0-0.16,0-0.24,0c-0.41-1.35-0.787-2.732-0.96-4.32
	C156.32,370.399,156.4,370.399,156.48,370.399z"/>
<path fill="#292827" d="M154.8,362.96c0.681,2.357,1.182,4.896,1.68,7.439c-0.08,0-0.16,0-0.24,0
	c-0.419-2.621-1.289-4.791-1.68-7.439C154.64,362.96,154.72,362.96,154.8,362.96z"/>
<path fill="#292827" d="M154.08,360.8c0.083-1.722-1.759-3.947-0.48-5.279c0,0.08,0,0.16,0,0.239
	c-0.499,1.464,0.679,3.318,0.72,5.04C154.24,360.8,154.16,360.8,154.08,360.8z"/>
<path fill="#605D5D" d="M166.08,355.76c2.484,0.324,3.312-1.008,5.76-0.72c-1.438,0.562-3.08,0.92-5.039,0.96
	c-0.239,0-0.479,0-0.721,0C166.08,355.92,166.08,355.84,166.08,355.76z"/>
<path fill="#292827" d="M175.919,353.84c-0.803,0.476-1.771,0.789-2.879,0.96c0.226-0.895,1.551-0.689,2.399-0.96
	C175.601,353.84,175.761,353.84,175.919,353.84z"/>
<path fill="#292827" d="M177.601,353.36c1.859-1.5,4.777-1.941,6.96-3.119c0.16,0,0.319,0,0.479,0
	C182.623,351.341,180.158,352.397,177.601,353.36z"/>
<path fill="#605D5D" d="M184.561,350.241c1.017-0.504,2.019-1.022,3.601-0.96c-0.842,0.519-2.002,0.718-3.121,0.96
	C184.88,350.241,184.721,350.241,184.561,350.241z"/>
<path fill="#292827" d="M190.32,348.8c0.514-1.008,2.418-0.622,3.84-0.72C193.08,348.521,191.638,348.597,190.32,348.8z"/>
<path fill="#605D5D" d="M54.48,38.479c0-0.24,0-0.48,0-0.72c0.356,0.444,0.46,1.14,0.48,1.92c-0.08,0-0.16,0-0.24,0
	C54.519,39.401,54.403,39.036,54.48,38.479z"/>
<path fill="#605D5D" d="M55.44,42.56c0-0.24,0-0.48,0-0.72c0.356,0.443,0.46,1.14,0.48,1.92c-0.08,0-0.16,0-0.24,0
	C55.479,43.481,55.364,43.116,55.44,42.56z"/>
<path fill="#292827" d="M55.92,43.76c0.437,2.523,1.334,4.586,1.68,7.2c0,0.24,0,0.48,0,0.72c-0.843-2.437-1.386-5.174-1.92-7.92
	C55.76,43.76,55.84,43.76,55.92,43.76z"/>
<path fill="#605D5D" d="M67.68,94.64c0-0.24,0-0.48,0-0.72c0.356,0.443,0.459,1.14,0.48,1.92c-0.08,0-0.16,0-0.24,0
	C67.719,95.561,67.604,95.196,67.68,94.64z"/>
<path fill="#605D5D" d="M68.64,98.72c0-0.24,0-0.479,0-0.72c0.356,0.443,0.46,1.14,0.48,1.92c-0.08,0-0.16,0-0.24,0
	C68.679,99.641,68.563,99.276,68.64,98.72z"/>
<path fill="#605D5D" d="M69.6,102.8c0-0.24,0-0.48,0-0.72c0.356,0.444,0.46,1.141,0.48,1.92c-0.08,0-0.16,0-0.24,0
	C69.639,103.721,69.523,103.356,69.6,102.8z"/>
<path fill="#292827" d="M70.08,104c0.437,2.523,1.334,4.586,1.68,7.2c0,0.24,0,0.48,0,0.72c-0.843-2.437-1.386-5.174-1.92-7.92
	C69.92,104,70,104,70.08,104z"/>
<path fill="#605D5D" d="M80.88,150.8c0-0.24,0-0.48,0-0.72c0.356,0.443,0.459,1.14,0.48,1.92c-0.08,0-0.16,0-0.24,0
	C80.919,151.721,80.804,151.356,80.88,150.8z"/>
<path fill="#605D5D" d="M81.84,154.88c0-0.24,0-0.48,0-0.72c0.356,0.444,0.459,1.141,0.48,1.92c-0.08,0-0.16,0-0.24,0
	C81.879,155.801,81.764,155.437,81.84,154.88z"/>
<path fill="#605D5D" d="M82.8,158.96c0-0.24,0-0.48,0-0.72c0.356,0.444,0.459,1.141,0.48,1.92c-0.08,0-0.16,0-0.24,0
	C82.839,159.881,82.724,159.517,82.8,158.96z"/>
<path fill="#292827" d="M83.28,160.16c0.437,2.524,1.333,4.586,1.68,7.2c0,0.24,0,0.48,0,0.72c-0.843-2.437-1.386-5.174-1.92-7.92
	C83.12,160.16,83.2,160.16,83.28,160.16z"/>
<path fill="#605D5D" d="M95.04,211.04c0-0.239,0-0.479,0-0.721c0.356,0.443,0.46,1.142,0.48,1.921c-0.08,0-0.16,0-0.24,0
	C95.079,211.961,94.964,211.597,95.04,211.04z"/>
<path fill="#605D5D" d="M96,215.12c0-0.239,0-0.479,0-0.721c0.356,0.443,0.46,1.142,0.48,1.92c-0.08,0-0.16,0-0.24,0
	C96.039,216.042,95.924,215.676,96,215.12z"/>
<path fill="#292827" d="M96.48,216.319c0.437,2.523,1.334,4.587,1.68,7.201c0,0.239,0,0.479,0,0.72
	c-0.843-2.437-1.386-5.175-1.92-7.921C96.32,216.319,96.4,216.319,96.48,216.319z"/>
<path fill="#605D5D" d="M108.24,267.2c0-0.239,0-0.479,0-0.721c0.356,0.443,0.46,1.142,0.48,1.92c-0.08,0-0.16,0-0.24,0
	C108.279,268.122,108.164,267.756,108.24,267.2z"/>
<path fill="#605D5D" d="M109.2,271.28c0-0.239,0-0.479,0-0.721c0.356,0.443,0.46,1.142,0.48,1.92c-0.08,0-0.16,0-0.24,0
	C109.239,272.202,109.124,271.836,109.2,271.28z"/>
<path fill="#292827" d="M109.68,272.479c0.437,2.523,1.334,4.586,1.68,7.201c0,0.239,0,0.479,0,0.719
	c-0.843-2.437-1.386-5.174-1.92-7.92C109.52,272.479,109.6,272.479,109.68,272.479z"/>
<path fill="#605D5D" d="M194.4,294.319c0.17-0.869,1.749-0.329,2.641-0.479c0,0.08,0,0.16,0,0.24
	C196.199,294.199,195.479,294.438,194.4,294.319z"/>
<path fill="#605D5D" d="M204,293.84c1.551-0.028,2.994,0.048,4.08,0.479c0,0.08,0,0.16,0,0.24c-1.425-0.096-2.834-0.207-4.08-0.479
	C204,294,204,293.92,204,293.84z"/>
<path fill="#605D5D" d="M273.841,294.319c-0.034-0.992,1.67-0.25,2.398-0.479c0,0.08,0,0.16,0,0.24
	C275.428,294.147,274.862,294.462,273.841,294.319z"/>
<path fill="#605D5D" d="M283.201,293.84c2.105-0.024,3.938,0.222,5.521,0.72c0,0.08,0,0.16,0,0.24
	c-1.868-0.212-3.747-0.412-5.521-0.72C283.201,294,283.201,293.92,283.201,293.84z"/>
<path fill="#605D5D" d="M141.6,298.88c0.284,0.596,0.348,1.412,0.48,2.16c-0.08,0-0.16,0-0.24,0c-0.081-0.8-0.695-1.064-0.48-2.16
	C141.44,298.88,141.521,298.88,141.6,298.88z"/>
<path d="M251.041,301.28c0.278-0.201,0.644-0.316,1.199-0.239c3.207-0.874,6.356-1.804,8.881-3.36c0.08,0,0.159,0,0.239,0
	c1.017-0.343,2.037-0.683,2.88-1.199c1.119-0.241,2.279-0.44,3.12-0.961c0.644-0.237,1.267-0.494,2.16-0.479
	c1.317-0.203,2.76-0.281,3.84-0.721c0.16,0,0.32,0,0.479,0c1.021,0.143,1.588-0.172,2.399-0.239c2.32,0,4.642,0,6.96,0
	c1.773,0.308,3.652,0.508,5.521,0.72c0.642,0.238,1.266,0.494,2.16,0.479c0.08,0,0.16,0,0.238,0
	c3.795,1.166,7.305,2.617,10.801,4.08c0.08,0,0.16,0,0.24,0c1.1,0.74,2.58,1.101,4.079,1.44c0.08,0,0.16,0,0.24,0
	c1.392,0.688,3.177,0.982,5.04,1.2c1.049,0.312,2.238,0.48,3.602,0.479c0.158,0,0.318,0,0.479,0c0.648,0.711,2.949-0.229,3.6,0.48
	c-0.158,9.439,0.318,19.52-0.238,28.561c-0.24,0-0.48,0-0.721,0c-0.646-0.554-2.314-0.086-3.359-0.24
	c-0.633-0.248-1.473-0.287-2.4-0.239c-6.432-0.929-11.38-3.341-16.8-5.28c-0.46-0.421-1.251-0.509-1.921-0.72
	c-0.213-0.187-0.541-0.258-0.959-0.24c-2.721-0.881-5.559-1.643-9.12-1.68c-2.162-0.399-5.998-0.399-8.16,0
	c-0.651,0.147-1.903-0.306-2.16,0.239c-1.96,0.041-3.603,0.398-5.04,0.959c-0.08,0-0.16,0-0.24,0
	c-5.394,1.168-9.451,3.67-14.398,5.281c-0.08,0-0.16,0-0.24,0c-0.947,0.172-1.941,0.297-2.641,0.719
	c-2.102,0.301-4.172,0.629-6.239,0.961c-1.045,0.154-2.713-0.312-3.36,0.24c-0.72,0-1.438,0-2.16,0
	c-0.646-0.554-2.313-0.086-3.358-0.24c-1.271-0.249-2.572-0.469-4.08-0.479c-7.451-1.269-12.587-4.854-19.681-6.479
	c-2.198-0.602-4.4-1.199-7.199-1.199c-2.242-0.4-6.158-0.4-8.4,0c-1.463-0.023-2.809,0.07-3.84,0.479
	c-1.65,0.109-3.096,0.424-4.32,0.961c-1.029,0.01-1.767,0.312-2.398,0.719c-0.08,0-0.16,0-0.24,0
	c-1.468,0.453-2.988,0.852-4.08,1.682c-1.25,0.35-2.395,0.807-3.359,1.439c-2.521,0.68-4.953,1.445-7.439,2.16
	c-1.105,0.014-2.129,0.11-2.88,0.479c-0.574,0.146-1.741-0.302-1.921,0.239c-0.159,0-0.319,0-0.479,0
	c-1.125,0.156-2.874-0.313-3.6,0.24c-0.642,0-1.28,0-1.92,0c-3.94-0.381-7.959-0.682-11.28-1.681
	c-0.906-4.774-1.985-9.375-3.12-13.92c-0.133-0.748-0.196-1.563-0.48-2.16c-0.341-1.819-0.674-3.646-1.2-5.28
	c-0.132-0.746-0.196-1.562-0.48-2.16c-0.341-1.817-0.674-3.646-1.2-5.278c-0.132-0.748-0.196-1.563-0.48-2.16
	c3.151,0.771,7.161,2.759,11.52,3.12c1.028,0.332,2.189,0.529,3.6,0.479c0.16,0,0.32,0,0.48,0c1.843,0.399,5.357,0.399,7.2,0
	c0.729-0.149,2.067,0.309,2.4-0.239c1.959-0.04,3.601-0.398,5.039-0.96c0.279-0.201,0.644-0.316,1.199-0.239
	c1.562-0.358,3.106-0.733,4.32-1.44c0.08,0,0.16,0,0.24,0c0.936-0.344,1.986-0.572,2.641-1.199c0.079,0,0.159,0,0.239,0
	c1.538-0.621,3.147-1.172,4.56-1.92c1.119-0.242,2.279-0.44,3.121-0.961c0.643-0.237,1.266-0.494,2.159-0.479
	c1.317-0.203,2.761-0.281,3.841-0.721c0.08,0,0.159,0,0.239,0c1.078,0.117,1.798-0.121,2.64-0.239c2.32,0,4.642,0,6.961,0
	c1.246,0.272,2.654,0.385,4.08,0.479c1.711,0.448,3.502,0.816,5.279,1.199c0.08,0,0.16,0,0.24,0c1.807,0.833,3.893,1.387,5.76,2.16
	c0.08,0,0.16,0,0.24,0c3.622,1.979,7.822,3.377,12.721,4.08c1.049,0.312,2.238,0.48,3.6,0.479c0.16,0,0.32,0,0.479,0
	c1.843,0.399,5.356,0.399,7.2,0c0.729-0.149,2.066,0.309,2.398-0.24C247.96,302.2,249.602,301.841,251.041,301.28z"/>
<path fill="#605D5D" d="M153.12,301.76c1.545-0.185,2.12,0.601,3.6,0.479c0,0.08,0,0.16,0,0.24c-1.411,0.051-2.572-0.147-3.6-0.479
	C153.12,301.92,153.12,301.84,153.12,301.76z"/>
<path fill="#605D5D" d="M232.32,301.76c1.545-0.185,2.12,0.601,3.602,0.479c0,0.08,0,0.16,0,0.24c-1.361,0-2.553-0.168-3.602-0.479
	C232.32,301.92,232.32,301.84,232.32,301.76z"/>
<path fill="#605D5D" d="M311.521,301.76c1.545-0.185,2.119,0.601,3.602,0.479c0,0.08,0,0.16,0,0.24
	c-1.361,0-2.553-0.168-3.602-0.479C311.521,301.92,311.521,301.84,311.521,301.76z"/>
<path fill="#D3D1D0" d="M162.24,302.24c0.807-0.554,2.637-0.085,3.84-0.239c0,0.08,0,0.159,0,0.239
	C164.8,302.24,163.521,302.24,162.24,302.24z"/>
<path fill="#D3D1D0" d="M241.44,302.24c0.806-0.554,2.636-0.085,3.84-0.239c0,0.08,0,0.159,0,0.239
	C244,302.24,242.721,302.24,241.44,302.24z"/>
<path fill="#605D5D" d="M143.28,306.319c0.284,0.598,0.348,1.414,0.48,2.16c-0.08,0-0.16,0-0.24,0
	c-0.081-0.799-0.696-1.063-0.48-2.16C143.12,306.319,143.2,306.319,143.28,306.319z"/>
<path fill="#605D5D" d="M144.96,313.76c0.284,0.597,0.347,1.412,0.48,2.16c-0.08,0-0.16,0-0.24,0c-0.08-0.8-0.695-1.063-0.48-2.16
	C144.8,313.76,144.88,313.76,144.96,313.76z"/>
<path fill="#605D5D" d="M121.44,323.36c0-0.239,0-0.479,0-0.721c0.356,0.443,0.459,1.141,0.48,1.92c-0.08,0-0.16,0-0.24,0
	C121.479,324.282,121.364,323.917,121.44,323.36z"/>
<path fill="#D3D1D0" d="M202.8,323.36c1.046,0.154,2.714-0.312,3.359,0.24C205.115,323.446,203.447,323.914,202.8,323.36z"/>
<path fill="#D3D1D0" d="M282.001,323.36c1.045,0.154,2.713-0.312,3.358,0.24C284.315,323.446,282.647,323.914,282.001,323.36z"/>
<path fill="#605D5D" d="M193.681,323.601c-1.469,0.451-3.119,0.721-4.801,0.959c-0.239,0-0.479,0-0.721,0
	c1.225-0.535,2.67-0.851,4.32-0.959C192.88,323.601,193.28,323.601,193.681,323.601z"/>
<path fill="#292827" d="M274.08,323.601c-2.317-0.16-3.604,0.713-5.76,0.719c1.438-0.561,3.08-0.918,5.04-0.959
	c0.24,0,0.479,0,0.72,0C274.08,323.44,274.08,323.521,274.08,323.601z"/>
<path fill="#605D5D" d="M293.761,325.041c0.669,0.211,1.46,0.299,1.92,0.72c-0.16,0-0.32,0-0.48,0
	C294.603,325.638,293.753,325.769,293.761,325.041z"/>
<path fill="#605D5D" d="M181.44,326.96c0.16,0,0.319,0,0.479,0c-1.144,0.457-2.137,1.062-3.359,1.439c-0.16,0-0.32,0-0.48,0
	C179.046,327.767,180.19,327.31,181.44,326.96z"/>
<path fill="#605D5D" d="M122.4,327.44c0-0.239,0-0.479,0-0.721c0.356,0.443,0.459,1.141,0.48,1.92c-0.08,0-0.16,0-0.24,0
	C122.439,328.362,122.324,327.997,122.4,327.44z"/>
<path fill="#292827" d="M178.561,328.399c-2.418,0.623-4.258,1.822-6.96,2.16c-0.32,0-0.641,0-0.96,0
	c2.485-0.713,4.919-1.479,7.438-2.16C178.24,328.399,178.4,328.399,178.561,328.399z"/>
<path fill="#605D5D" d="M250.8,330.319c0.32,0,0.641,0,0.961,0c-2.104,0.697-4.487,1.113-7.2,1.201c0-0.08,0-0.16,0-0.24
	C246.628,330.948,248.699,330.62,250.8,330.319z"/>
<path fill="#605D5D" d="M170.641,330.56c0.319,0,0.64,0,0.96,0c-0.657,0.385-1.586,0.494-2.641,0.48c-0.399,0-0.801,0-1.199,0
	C168.512,330.671,169.535,330.574,170.641,330.56z"/>
<path fill="#605D5D" d="M230.641,330.8c0.319,0,0.64,0,0.96,0c1.508,0.012,2.811,0.23,4.08,0.479c0,0.08,0,0.16,0,0.24
	C233.98,331.3,232.111,331.25,230.641,330.8z"/>
<path fill="#292827" d="M167.761,331.041c0.398,0,0.8,0,1.199,0c-0.567,0.552-2.153,0.086-3.121,0.239
	C166.02,330.739,167.187,331.187,167.761,331.041z"/>
<path fill="#605D5D" d="M311.281,331.041c0.398,0,0.801,0,1.199,0c0.928-0.048,1.77-0.009,2.4,0.239c0,0.08,0,0.16,0,0.24
	C313.736,331.306,312.23,331.45,311.281,331.041z"/>
<path fill="#292827" d="M122.88,328.64c0.437,2.523,1.333,4.586,1.68,7.2c0,0.24,0,0.479,0,0.72c-0.843-2.437-1.386-5.174-1.92-7.92
	C122.72,328.64,122.8,328.64,122.88,328.64z"/>
<path fill="#605D5D" d="M194.4,348.081c0.17-0.87,1.749-0.331,2.641-0.48c0,0.08,0,0.16,0,0.24
	C196.199,347.958,195.479,348.198,194.4,348.081z"/>
<path fill="#605D5D" d="M204,347.601c1.551-0.029,2.994,0.047,4.08,0.479c0,0.08,0,0.16,0,0.239
	c-1.425-0.096-2.834-0.205-4.08-0.479C204,347.76,204,347.681,204,347.601z"/>
<path fill="#605D5D" d="M273.601,348.081c0.17-0.87,1.749-0.331,2.641-0.48c0,0.08,0,0.16,0,0.24
	C275.398,347.958,274.679,348.198,273.601,348.081z"/>
<path fill="#605D5D" d="M283.201,347.601c2.105-0.025,3.938,0.221,5.521,0.719c0,0.08,0,0.16,0,0.24
	c-1.868-0.211-3.747-0.412-5.521-0.72C283.201,347.76,283.201,347.681,283.201,347.601z"/>
<path fill="#605D5D" d="M175.44,353.84c0.384-0.416,1.08-0.521,1.92-0.479c-0.296,0.345-0.825,0.455-1.44,0.479
	C175.761,353.84,175.601,353.84,175.44,353.84z"/>
<path d="M251.041,355.041c0.278-0.201,0.644-0.315,1.199-0.24c1.592-0.329,3.032-0.808,4.32-1.44c0.08,0,0.16,0,0.24,0
	c1.498-0.58,3.146-1.012,4.318-1.92c0.08,0,0.16,0,0.24,0c1.018-0.342,2.037-0.683,2.88-1.198c1.119-0.242,2.279-0.441,3.12-0.96
	c0.643-0.238,1.266-0.495,2.16-0.48c1.316-0.203,2.76-0.279,3.84-0.72c0.08,0,0.16,0,0.24,0c1.078,0.117,1.798-0.122,2.64-0.24
	c2.32,0,4.642,0,6.96,0c1.773,0.308,3.652,0.509,5.521,0.72c4.879,1.041,9.057,2.783,13.199,4.562c0.08,0,0.16,0,0.24,0
	c1.1,0.739,2.58,1.099,4.079,1.438c0.08,0,0.16,0,0.24,0c1.345,0.736,3.253,0.907,5.04,1.201c1.049,0.312,2.238,0.48,3.602,0.479
	c0.238,0,0.479,0,0.719,0c0.57,0.709,2.789-0.229,3.359,0.479c-0.158,9.44,0.318,19.519-0.238,28.561c-0.16,0-0.32,0-0.48,0
	c-12.83-0.051-19.678-6.082-30.721-7.922c-1.082-0.357-2.34-0.538-3.84-0.479c-2.242-0.398-6.157-0.398-8.399,0
	c-0.651,0.148-1.903-0.305-2.16,0.24c-0.08,0-0.159,0-0.239,0c-1.055-0.016-1.983,0.096-2.641,0.479
	c-1.262,0.02-2.257,0.305-3.12,0.722c-0.08,0-0.159,0-0.239,0c-2.543,0.657-4.996,1.403-6.961,2.64
	c-1.045,0.312-2.121,0.598-2.88,1.2c-1.108,0.171-2.075,0.483-2.88,0.96c-0.627,0.093-1.316,0.123-1.68,0.479
	c-1.534,0.228-3.021,0.498-4.32,0.961c-1.326,0.112-2.734,0.145-3.84,0.479c-1.125,0.155-2.874-0.313-3.6,0.24
	c-0.562,0-1.121,0-1.682,0c-0.726-0.556-2.476-0.085-3.6-0.24c-0.633-0.249-1.473-0.287-2.4-0.239
	c-6.423-0.938-11.432-3.289-16.8-5.281c-0.46-0.42-1.251-0.508-1.92-0.719c-0.214-0.188-0.542-0.259-0.96-0.24
	c-1.469-0.612-3.131-1.03-5.04-1.201c-1.082-0.357-2.341-0.538-3.841-0.479c-2.241-0.398-6.157-0.398-8.399,0
	c-0.651,0.148-1.903-0.305-2.159,0.24c-0.498,0.143-1.576-0.297-1.681,0.238c-2.252,0.229-4.276,0.685-6,1.441
	c-1.897,0.422-3.651,0.987-5.04,1.92c-2.357,0.842-4.654,1.746-6.96,2.641c-0.08,0-0.16,0-0.24,0
	c-1.731,0.348-3.409,0.75-5.04,1.199c-1.386,0.055-2.65,0.229-3.84,0.479c-1.204,0.156-3.033-0.313-3.84,0.24
	c-0.561,0-1.12,0-1.68,0c-0.19-1.091-0.34-2.222-0.72-3.12c-0.498-2.543-0.999-5.081-1.68-7.439c-0.164-1.597-0.617-2.904-0.96-4.32
	c-0.498-2.543-0.999-5.081-1.68-7.439c-0.132-0.748-0.196-1.564-0.48-2.16c-0.042-1.722-1.219-3.576-0.72-5.039
	c0.97,0.311,2.047,0.514,3.36,0.479c0.16,0,0.32,0,0.48,0c1.763,0.399,5.197,0.399,6.96,0c0.729-0.151,2.067,0.307,2.399-0.24
	c1.959-0.04,3.602-0.397,5.039-0.96c0.279-0.201,0.645-0.316,1.201-0.24c1.108-0.171,2.076-0.484,2.879-0.959
	c0.615-0.025,1.146-0.137,1.44-0.48c0.08,0,0.16,0,0.24,0c2.558-0.963,5.021-2.02,7.438-3.119c1.119-0.242,2.279-0.441,3.121-0.96
	c0.643-0.238,1.266-0.495,2.159-0.479c1.317-0.203,2.761-0.281,3.841-0.721c0.079,0,0.159,0,0.239,0
	c1.078,0.117,1.798-0.122,2.64-0.24c2.32,0,4.642,0,6.961,0c1.246,0.274,2.654,0.385,4.08,0.479c1.711,0.45,3.502,0.817,5.279,1.2
	c0.08,0,0.16,0,0.24,0c1.807,0.832,3.893,1.387,5.76,2.16c0.08,0,0.16,0,0.24,0c2.136,1.305,4.688,2.19,7.439,2.879
	c0.08,0,0.16,0,0.239,0c1.392,0.689,3.177,0.983,5.04,1.201c1.049,0.312,2.239,0.48,3.602,0.479c0.158,0,0.318,0,0.479,0
	c1.844,0.399,5.357,0.399,7.2,0c0.729-0.151,2.067,0.308,2.399-0.24C247.96,355.96,249.602,355.603,251.041,355.041z"/>
<path fill="#292827" d="M306.48,354.56c1.479,0.521,3.684,0.317,5.039,0.961c0,0.08,0,0.16,0,0.239
	C309.734,355.467,307.824,355.296,306.48,354.56z"/>
<path fill="#605D5D" d="M153.6,355.521c1.461-0.182,2.034,0.525,3.36,0.479c0,0.08,0,0.16,0,0.24c-1.313,0.032-2.39-0.171-3.36-0.48
	C153.6,355.681,153.6,355.601,153.6,355.521z"/>
<path fill="#605D5D" d="M232.32,355.521c1.49-0.131,2.233,0.486,3.602,0.479c0,0.08,0,0.16,0,0.24
	c-1.361,0.001-2.553-0.169-3.602-0.48C232.32,355.681,232.32,355.601,232.32,355.521z"/>
<path fill="#605D5D" d="M311.521,355.521c1.49-0.131,2.232,0.486,3.602,0.479c0,0.08,0,0.16,0,0.24
	c-1.361,0.001-2.553-0.169-3.602-0.48C311.521,355.681,311.521,355.601,311.521,355.521z"/>
<path fill="#D3D1D0" d="M162,356c0.885-0.556,2.797-0.084,4.08-0.24c0,0.08,0,0.16,0,0.24C164.721,356,163.36,356,162,356z"/>
<path fill="#D3D1D0" d="M241.201,356c0.885-0.556,2.797-0.084,4.079-0.24c0,0.08,0,0.16,0,0.24C243.921,356,242.561,356,241.201,356
	z"/>
<path fill="#605D5D" d="M154.32,360.8c0.284,0.596,0.348,1.412,0.48,2.16c-0.08,0-0.16,0-0.24,0c-0.081-0.8-0.696-1.064-0.48-2.16
	C154.16,360.8,154.24,360.8,154.32,360.8z"/>
<path fill="#605D5D" d="M194.16,377.121c0.562,0,1.12,0,1.682,0c-0.256,0.544-1.51,0.091-2.16,0.239c-0.4,0-0.801,0-1.2,0
	C192.583,376.824,193.664,377.263,194.16,377.121z"/>
<path fill="#D3D1D0" d="M202.8,377.121c1.046,0.153,2.714-0.313,3.359,0.239C205.115,377.206,203.447,377.673,202.8,377.121z"/>
<path fill="#D3D1D0" d="M282.001,377.121c1.045,0.153,2.713-0.313,3.358,0.239C284.315,377.206,282.647,377.673,282.001,377.121z"/>
<path fill="#292827" d="M193.681,377.36c-2.08,0.561-4.35,0.932-6.48,1.439c-0.24,0-0.479,0-0.72,0c1.724-0.757,3.748-1.212,6-1.439
	C192.88,377.36,193.28,377.36,193.681,377.36z"/>
<path fill="#605D5D" d="M270.48,377.601c0.32,0,0.641,0,0.96,0c-1.163,0.437-2.463,0.736-4.08,0.721
	C268.224,377.903,269.218,377.619,270.48,377.601z"/>
<path fill="#605D5D" d="M214.561,378.8c0.669,0.211,1.46,0.301,1.92,0.721c-0.16,0-0.319,0-0.479,0
	C215.402,379.397,214.553,379.528,214.561,378.8z"/>
<path fill="#605D5D" d="M134.64,379.521c0-0.24,0-0.479,0-0.721c0.356,0.443,0.46,1.141,0.48,1.92c-0.08,0-0.16,0-0.24,0
	C134.679,380.442,134.563,380.077,134.64,379.521z"/>
<path fill="#605D5D" d="M187.201,378.8c-1.635,0.766-3.675,1.126-5.281,1.92c-0.158,0-0.318,0-0.479,0
	c1.389-0.932,3.143-1.498,5.04-1.92C186.721,378.8,186.96,378.8,187.201,378.8z"/>
<path fill="#605D5D" d="M260.16,380.96c0.16,0,0.32,0,0.48,0c-0.9,0.46-1.79,0.93-2.881,1.2c-0.159,0-0.319,0-0.479,0
	C258.039,381.558,259.115,381.274,260.16,380.96z"/>
<path fill="#605D5D" d="M254.4,383.121c0.24,0,0.48,0,0.721,0c-0.35,0.371-0.937,0.504-1.681,0.479c-0.239,0-0.479,0-0.72,0
	C253.083,383.244,253.773,383.213,254.4,383.121z"/>
<path fill="#605D5D" d="M135.6,383.601c0-0.24,0-0.479,0-0.721c0.687,0.594,0.233,2.327,0.72,3.12c-0.08,0-0.16,0-0.24,0
	C135.812,385.308,135.648,384.513,135.6,383.601z"/>
<path fill="#292827" d="M252.721,383.601c0.239,0,0.479,0,0.72,0c-0.848,0.832-2.859,0.5-4.08,0.959c-0.32,0-0.64,0-0.96,0
	C249.699,384.099,251.187,383.827,252.721,383.601z"/>
<path fill="#605D5D" d="M170.4,384.56c-1.447,0.473-3.146,0.692-5.04,0.722c0-0.08,0-0.16,0-0.24
	c1.188-0.251,2.454-0.426,3.841-0.479C169.601,384.56,170,384.56,170.4,384.56z"/>
<path fill="#605D5D" d="M232.08,384.8c0.4,0,0.801,0,1.2,0c0.929-0.047,1.769-0.009,2.4,0.24c0,0.08,0,0.16,0,0.24
	C234.535,385.065,233.03,385.21,232.08,384.8z"/>
<path fill="#605D5D" d="M249.36,384.56c-1.319,0.521-2.989,0.69-4.8,0.722c0-0.08,0-0.16,0-0.24c1.104-0.336,2.514-0.367,3.84-0.479
	C248.721,384.56,249.041,384.56,249.36,384.56z"/>
<path fill="#D3D1D0" d="M194.641,323.601c0.726-0.555,2.476-0.084,3.601-0.24C197.515,323.915,195.765,323.444,194.641,323.601z"/>
<path fill="#D3D1D0" d="M274.08,323.36c1.121,0,2.24,0,3.36,0c-0.646,0.554-2.313,0.086-3.36,0.24
	C274.08,323.521,274.08,323.44,274.08,323.36z"/>
<path fill="#9E9B9B" d="M156.72,302.24c0.88,0,1.76,0,2.64,0c0.96,0,1.92,0,2.88,0c1.28,0,2.561,0,3.84,0c0.24,0,0.48,0,0.721,0
	c-0.332,0.548-1.67,0.09-2.399,0.239c-2.399,0-4.8,0-7.2,0c-0.16,0-0.32,0-0.48,0C156.72,302.399,156.72,302.319,156.72,302.24z"/>
<path fill="#9E9B9B" d="M235.921,302.24c0.959,0,1.92,0,2.879,0c0.881,0,1.761,0,2.641,0c1.28,0,2.561,0,3.84,0
	c0.24,0,0.48,0,0.721,0c-0.332,0.548-1.67,0.09-2.399,0.239c-2.399,0-4.8,0-7.2,0c-0.16,0-0.32,0-0.479,0
	C235.921,302.399,235.921,302.319,235.921,302.24z"/>
<path fill="#9E9B9B" d="M315.121,302.24c0.961,0,1.92,0,2.881,0c0.348,0.132,1.24-0.28,1.199,0.239c-1.199,0-2.4,0-3.602,0
	c-0.158,0-0.318,0-0.479,0C315.121,302.399,315.121,302.319,315.121,302.24z"/>
<path fill="#9E9B9B" d="M196.32,323.121c2.801,0,5.6,0,8.4,0c2.799,0,5.001,0.599,7.199,1.198c0,0.08,0,0.16,0,0.24
	c-1.823-0.416-3.532-0.947-5.76-0.959c-0.646-0.554-2.314-0.086-3.359-0.24c-1.521,0-3.04,0-4.561,0
	c-1.125,0.156-2.875-0.313-3.601,0.24c-0.32,0-0.642,0-0.96,0c-0.4,0-0.801,0-1.2,0C193.512,323.19,194.857,323.097,196.32,323.121z
	"/>
<path fill="#9E9B9B" d="M275.521,323.121c2.721,0,5.439,0,8.16,0c3.562,0.037,6.4,0.799,9.119,1.68
	c-2.678-0.202-4.52-1.239-7.439-1.2c-0.646-0.553-2.314-0.084-3.359-0.24c-1.521,0-3.039,0-4.561,0c-1.12,0-2.24,0-3.359,0
	c-0.24,0-0.479,0-0.721,0C273.617,322.815,274.869,323.269,275.521,323.121z"/>
<path fill="#9E9B9B" d="M156.96,356c0.88,0,1.76,0,2.64,0c0.8,0,1.601,0,2.399,0c1.36,0,2.722,0,4.08,0c0.24,0,0.48,0,0.721,0
	c-0.332,0.547-1.67,0.089-2.399,0.24c-2.319,0-4.64,0-6.96,0c-0.16,0-0.32,0-0.48,0C156.96,356.161,156.96,356.081,156.96,356z"/>
<path fill="#9E9B9B" d="M235.921,356c0.959,0,1.92,0,2.879,0c0.801,0,1.601,0,2.4,0c1.359,0,2.721,0,4.079,0c0.24,0,0.479,0,0.72,0
	c-0.332,0.547-1.67,0.089-2.398,0.24c-2.4,0-4.801,0-7.2,0c-0.159,0-0.319,0-0.479,0C235.921,356.161,235.921,356.081,235.921,356z"
	/>
<path fill="#9E9B9B" d="M315.121,356c0.961,0,1.92,0,2.881,0c0.348,0.131,1.24-0.28,1.199,0.24c-1.119,0-2.24,0-3.359,0
	c-0.24,0-0.48,0-0.721,0C315.121,356.161,315.121,356.081,315.121,356z"/>
<path fill="#9E9B9B" d="M196.32,376.88c2.801,0,5.6,0,8.4,0c1.498-0.061,2.758,0.121,3.84,0.479c0,0.08,0,0.16,0,0.24
	c-0.812-0.066-1.378-0.382-2.4-0.24c-0.646-0.553-2.313-0.084-3.359-0.238c-2.319,0-4.641,0-6.959,0c-0.562,0-1.12,0-1.682,0
	C194.416,376.576,195.669,377.028,196.32,376.88z"/>
<path fill="#9E9B9B" d="M275.521,376.88c2.8,0,5.602,0,8.4,0c1.498-0.061,2.758,0.121,3.84,0.479c0,0.08,0,0.16,0,0.24
	c-0.812-0.066-1.379-0.382-2.4-0.24c-0.646-0.553-2.314-0.084-3.359-0.238c-2.881,0-5.76,0-8.641,0
	C273.617,376.576,274.869,377.028,275.521,376.88z"/>
<path fill="#292827" d="M0,0.56c4.165-1.115,10.396-0.164,15.36-0.48C10.712,0.712,4.684-0.036,0,0.56z"/>
</svg>
