<?xml version="1.0" encoding="utf-8"?>
<!-- Generator: Adobe Illustrator 13.0.0, SVG Export Plug-In . SVG Version: 6.00 Build 14948)  -->
<!DOCTYPE svg PUBLIC "-//W3C//DTD SVG 1.1//EN" "http://www.w3.org/Graphics/SVG/1.1/DTD/svg11.dtd">
<svg version="1.1" id="Layer_1" xmlns="http://www.w3.org/2000/svg" xmlns:xlink="http://www.w3.org/1999/xlink" x="0px" y="0px"
	 width="511.441px" height="511.441px" viewBox="0 0 511.441 511.441" enable-background="new 0 0 511.441 511.441"
	 xml:space="preserve">
<path d="M255.601,0c0.08,0,0.16,0,0.24,0c85.108,85.308,170.296,170.496,255.602,255.601c0,0.16,0,0.32,0,0.479
	C426.022,340.898,340.9,426.021,256.08,511.441c-0.16,0-0.319,0-0.479,0C170.493,426.134,85.305,340.945,0,255.84
	c0-0.08,0-0.16,0-0.24C85.308,170.493,170.496,85.305,255.601,0z"/>
<path fill="#F3F1F1" d="M0,254.88C85.062,170.018,170.013,85.067,254.88,0c0.08,0,0.16,0,0.24,0
	C170.187,85.134,85.131,170.189,0,255.121C0,255.041,0,254.96,0,254.88z"/>
<path fill="#8B8787" d="M0,255.121C85.131,170.189,170.187,85.134,255.121,0c0.08,0,0.16,0,0.24,0
	C170.34,85.22,85.219,170.342,0,255.36C0,255.28,0,255.201,0,255.121z"/>
<path fill="#3C3B3A" d="M255.84,0c0.08,0,0.161,0,0.24,0c85.021,85.22,170.143,170.342,255.361,255.36c0,0.08,0,0.16,0,0.24
	C426.137,170.496,340.948,85.308,255.84,0z"/>
<path fill="#3C3B3A" d="M256.08,511.441c84.82-85.42,169.941-170.543,255.361-255.361c0,0.08,0,0.16,0,0.24c-0.08,0-0.16,0-0.24,0
	c-85.062,84.861-170.015,169.812-254.881,254.881c0,0.08,0,0.16,0,0.24C256.24,511.441,256.16,511.441,256.08,511.441z"/>
<path fill="#3C3B3A" d="M255.36,511.441C170.34,426.221,85.219,341.1,0,256.08c0-0.08,0-0.16,0-0.24
	c85.305,85.105,170.493,170.293,255.601,255.602C255.521,511.441,255.44,511.441,255.36,511.441z"/>
<path fill="#3C3B3A" d="M0,255.36C85.219,170.342,170.34,85.22,255.36,0c0.08,0,0.16,0,0.24,0
	C170.496,85.305,85.308,170.493,0,255.601C0,255.521,0,255.44,0,255.36z"/>
<path fill="#8B8787" d="M511.441,255.36C426.223,170.342,341.101,85.22,256.08,0c0.08,0,0.16,0,0.24,0
	c84.935,85.134,169.988,170.189,255.121,255.121C511.441,255.2,511.441,255.281,511.441,255.36z"/>
<path fill="#D3D1D1" d="M511.441,255.121C426.31,170.189,341.255,85.134,256.32,0c0.08,0,0.16,0,0.24,0
	c84.861,85.062,169.812,170.013,254.881,254.88C511.441,254.96,511.441,255.041,511.441,255.121z"/>
<path fill="#F3F1F1" d="M511.441,254.88C426.374,170.013,341.423,85.062,256.561,0c0.08,0,0.16,0,0.24,0
	c84.776,84.977,169.664,169.865,254.642,254.641C511.441,254.721,511.441,254.801,511.441,254.88z"/>
<path fill="#8B8787" d="M0,256.32c0-0.08,0-0.16,0-0.24c85.219,85.02,170.34,170.141,255.36,255.361c-0.08,0-0.16,0-0.24,0
	C170.187,426.307,85.131,341.252,0,256.32z"/>
<path fill="#D3D1D1" d="M0,256.561c0-0.08,0-0.16,0-0.24c85.131,84.933,170.187,169.986,255.121,255.122c-0.08,0-0.16,0-0.24,0
	C170.018,426.379,85.067,341.428,0,256.561z"/>
<path fill="#8B8787" d="M256.32,511.201c84.867-85.067,169.817-170.02,254.881-254.881
	C426.339,341.383,341.388,426.334,256.32,511.201z"/>
<path fill="#D3D1D1" d="M256.32,511.201c85.066-84.867,170.019-169.818,254.881-254.881c0.08,0,0.16,0,0.24,0c0,0.08,0,0.16,0,0.24
	c-85.062,84.861-170.015,169.812-254.881,254.881c-0.08,0-0.16,0-0.24,0C256.32,511.361,256.32,511.281,256.32,511.201z"/>
<path fill="#F3F1F1" d="M0,256.801c0-0.08,0-0.16,0-0.24c85.067,84.867,170.018,169.818,254.88,254.882c-0.08,0-0.16,0-0.24,0
	C169.864,426.465,84.976,341.576,0,256.801z"/>
<path fill="#F3F1F1" d="M256.561,511.441c84.867-85.067,169.818-170.02,254.882-254.881c0,0.08,0,0.16,0,0.239
	c-84.978,84.776-169.865,169.664-254.642,254.642C256.721,511.441,256.641,511.441,256.561,511.441z"/>
</svg>
