<?xml version="1.0" encoding="utf-8"?>
<!-- Generator: Adobe Illustrator 13.0.0, SVG Export Plug-In . SVG Version: 6.00 Build 14948)  -->
<!DOCTYPE svg PUBLIC "-//W3C//DTD SVG 1.1//EN" "http://www.w3.org/Graphics/SVG/1.1/DTD/svg11.dtd">
<svg version="1.1" id="Layer_1" xmlns="http://www.w3.org/2000/svg" xmlns:xlink="http://www.w3.org/1999/xlink" x="0px" y="0px"
	 width="387.132px" height="522px" viewBox="0 0 387.132 522" enable-background="new 0 0 387.132 522" xml:space="preserve">
<path fill="#CBC9C9" d="M158.171,20.16c-0.16,47.04,0.32,94.72-0.24,141.36C158.091,114.48,157.611,66.801,158.171,20.16z"/>
<path d="M158.411,20.4c21.84,0,43.68,0,65.521,0c0.159,41.921-0.32,84.48,0.239,126c0.062,2.781-0.422,5.017-0.239,7.92
	c-0.397,0.414-0.397,2.466,0,2.88c-0.045,2.125,0.034,4.125,0.72,5.52c0.041,0.359-0.086,0.886,0.24,0.96
	c0.093,0.867,0.318,1.602,0.72,2.16c0.859,2.34,2.056,4.345,3.841,5.76c0.014,0.146,0.035,0.284,0.239,0.24
	c1.002,1.238,2.2,2.28,3.841,2.88c0.377,0.583,1.021,0.899,1.92,0.96c5.19,2.009,13.916,0.483,20.639,0.96
	c4.242,0.56,9.521,0.081,14.16,0.24c18.961,0,37.92,0,56.881,0c13.199,0,26.4,0,39.602,0c0,18.8,0,37.6,0,56.4
	c-41.715,0.033-84.596-0.045-125.521,0c-2.637,0.084-4.738,0.702-6.479,1.68c-3.051,1.03-5.312,2.847-6.96,5.28
	c-5.083,4.647-3.602,15.023-3.602,25.2c0,7.107,0,14.16,0,20.16c-0.56,10.24-0.08,21.52-0.238,32.16c0,26.561,0,53.119,0,79.68
	c0,34.721,0,69.439,0,104.16c-21.842,0-43.681,0-65.521,0c0-79.438,0-158.885,0-238.32c0-0.8,0-1.6,0-2.4
	c0.096-4.262,0.729-9.423-0.48-12.96c-0.073-1.047-0.25-1.99-0.72-2.64c-0.286-1.233-0.604-2.436-1.44-3.12
	c-0.08-0.56-0.246-1.034-0.72-1.2c-0.33-1.11-1.095-1.785-1.92-2.4c-0.051-0.27-0.266-0.374-0.48-0.48
	c-0.485-0.555-0.797-1.283-1.68-1.44c-0.487-0.714-1.204-1.196-2.16-1.44c-0.336-0.383-0.827-0.613-1.44-0.72
	c-0.87-0.65-2.002-1.038-3.6-0.96c-0.805-0.555-2.636-0.084-3.84-0.24c-11.84,0-23.68,0-35.52,0c-9.681-0.4-21.04-0.4-30.72,0
	c-17.76,0-35.52,0-53.28,0c0-18.8,0-37.6,0-56.4c11.2,0,22.4,0,33.6,0c16.24,0,32.48,0,48.72,0c3.601-0.16,7.839,0.319,11.04-0.24
	c8.95-0.39,17.813,0.587,25.92,0.24c4.225-0.096,7.432-1.208,10.08-2.88c1.073-0.448,2.025-1.015,2.64-1.92
	c0.857-0.263,1.417-0.823,1.68-1.68c0.76-0.52,1.393-1.168,1.68-2.16c3.902-4.928,2.64-14.906,2.64-23.52
	C158.411,104.465,158.411,59.354,158.411,20.4z"/>
<path fill="#242424" d="M223.932,154.32c0,0.88,0,1.76,0,2.64c0,0.08-0.001,0.16,0,0.24
	C223.533,156.786,223.533,154.734,223.932,154.32z"/>
<path fill="#767473" d="M223.932,154.32c0.079,0,0.159,0,0.239,0c0,0.88,0,1.76,0,2.64c-0.08,0-0.16,0-0.239,0
	C223.932,156.08,223.932,155.2,223.932,154.32z"/>
<path fill="#767473" d="M102.731,176.64c3.121-0.559,7.279-0.081,10.8-0.24c0,0.08,0,0.16,0,0.24
	C109.931,176.64,106.331,176.64,102.731,176.64z"/>
<path fill="#767473" d="M256.332,176.64c0-0.08,0-0.16,0-0.24c4.561,0.16,9.76-0.319,13.92,0.24
	C265.611,176.64,260.972,176.64,256.332,176.64z"/>
<path fill="#767473" d="M327.132,176.64c12.799-0.56,26.639-0.08,39.84-0.24c0,0.08,0,0.16,0,0.24c-0.08,0-0.16,0-0.24,0
	C353.531,176.64,340.332,176.64,327.132,176.64z"/>
<path fill="#424040" d="M54.011,176.88c0-0.08,0-0.16,0-0.24c16.24,0,32.48,0,48.72,0c0,0.08,0,0.16,0,0.24
	C86.491,176.88,70.251,176.88,54.011,176.88z"/>
<path fill="#242424" d="M102.731,176.88c0-0.08,0-0.16,0-0.24c3.6,0,7.2,0,10.8,0c0.08,0,0.16,0,0.24,0
	C110.57,177.2,106.332,176.721,102.731,176.88z"/>
<path fill="#242424" d="M256.091,176.64c0.08,0,0.16,0,0.24,0c4.641,0,9.279,0,13.92,0c0,0.08,0,0.16,0,0.24
	C265.611,176.721,260.332,177.2,256.091,176.64z"/>
<path fill="#424040" d="M270.251,176.88c0-0.08,0-0.16,0-0.24c18.961,0,37.92,0,56.881,0c0,0.08,0,0.16,0,0.24
	C308.171,176.88,289.21,176.88,270.251,176.88z"/>
<path fill="#242424" d="M327.132,176.88c0-0.08,0-0.16,0-0.24c13.199,0,26.398,0,39.6,0c0,0.08,0,0.16,0,0.24
	C353.531,176.88,340.332,176.88,327.132,176.88z"/>
<path fill="#242424" d="M73.691,233.28c9.68-0.4,21.04-0.4,30.72,0c-0.08,0-0.16,0-0.24,0
	C94.011,233.28,83.851,233.28,73.691,233.28z"/>
<path fill="#424040" d="M20.171,233.521c0-0.08,0-0.16,0-0.24c0.08,0,0.16,0,0.24,0c17.76,0,35.52,0,53.28,0c0,0.08,0,0.16,0,0.24
	C55.851,233.521,38.011,233.521,20.171,233.521z"/>
<path fill="#767473" d="M73.691,233.521c0-0.08,0-0.16,0-0.24c10.16,0,20.32,0,30.48,0c0,0.08,0,0.16,0,0.24
	C94.011,233.521,83.851,233.521,73.691,233.521z"/>
<path fill="#424040" d="M104.171,233.521c0-0.08,0-0.16,0-0.24c0.08,0,0.16,0,0.24,0c11.84,0,23.68,0,35.52,0c0,0.08,0,0.16,0,0.24
	C128.011,233.521,116.091,233.521,104.171,233.521z"/>
<path fill="#242424" d="M139.931,233.521c0-0.08,0-0.16,0-0.24c1.204,0.156,3.035-0.314,3.84,0.24
	C142.491,233.521,141.211,233.521,139.931,233.521z"/>
<path fill="#767473" d="M143.771,233.76c-1.204-0.156-3.035,0.315-3.84-0.24c1.28,0,2.56,0,3.84,0
	C143.771,233.601,143.771,233.681,143.771,233.76z"/>
<path fill="#767473" d="M158.171,263.28c-0.397-0.259-0.397-2.141,0-2.4C158.171,261.681,158.171,262.48,158.171,263.28z"/>
<path fill="#242424" d="M158.171,260.88c0.08,0,0.16,0,0.24,0c0,0.8,0,1.6,0,2.4c-0.08,0-0.16,0-0.24,0
	C158.171,262.48,158.171,261.681,158.171,260.88z"/>
<path fill="#424040" d="M158.171,263.28c0.08,0,0.16,0,0.24,0c0,79.436,0,158.885,0,238.32c0,0.08,0,0.16,0,0.24
	c-0.08,0-0.16,0-0.24,0C158.171,422.325,158.171,342.797,158.171,263.28z"/>
<path fill="#242424" d="M224.171,285.601c0,0.08,0,0.16,0,0.239c0,10.641,0,21.281,0,31.921c-0.08,0-0.16,0-0.239,0
	C224.091,307.12,223.611,295.84,224.171,285.601z"/>
<path fill="#767473" d="M224.171,285.84c0.08,0,0.16,0,0.24,0c0,10.561,0,21.121,0,31.681c0,0.08,0,0.16,0,0.239
	c-0.08,0-0.16,0-0.24,0C224.171,307.122,224.171,296.48,224.171,285.84z"/>
<path fill="#424040" d="M223.932,317.76c0.079,0,0.159,0,0.239,0c0,26.562,0,53.121,0,79.682c-0.08,0-0.16,0-0.239,0
	C223.932,370.879,223.932,344.321,223.932,317.76z"/>
<path fill="#CBC9C9" d="M135.131,176.64c9.712,0.272,16.074-2.806,20.16-8.16c0.175,0.655-0.477,0.483-0.48,0.96
	c-1.5,1.542-3.91,3.448-5.04,4.56c-2.648,1.672-5.855,2.784-10.08,2.88C138.248,176.723,136.175,177.196,135.131,176.64z"/>
<path fill="#CBC9C9" d="M148.811,235.2c0.502,0.698,1.447,0.953,2.16,1.44c0.882,0.157,1.195,0.885,1.68,1.44
	c-2.296-2.014,0.171,0.745,1.2,1.44c0.428,0.452,0.649,1.111,1.2,1.44c0.474,0.166,0.64,0.64,0.72,1.2c0,0.16,0,0.32,0,0.48
	c-2.704-3.498-5.885-7.928-10.8-8.64c-4.77-0.691-10.174-0.24-15.6-0.24c-35.248,0-74.804,0-109.44,0
	c-0.4-18.561-0.4-38.799,0-57.36c37.845-0.03,77.528-0.452,114.96,0.24c-6.821-0.378-14.194-0.206-21.36-0.24
	c-3.521,0.159-7.679-0.319-10.8,0.24c-16.24,0-32.48,0-48.72,0c-10.8-0.56-22.64-0.08-33.84-0.24c-0.4,18.48-0.4,38.64,0,57.12
	c17.84,0,35.68,0,53.52,0c10.16,0,20.32,0,30.48,0c11.92,0,23.84,0,35.76,0c0.805,0.555,2.636,0.084,3.84,0.24
	c1.707-0.267,2.105,0.775,3.6,0.72C147.984,234.587,148.475,234.817,148.811,235.2z"/>
<path fill="#CBC9C9" d="M158.171,501.84c-0.439-76.588-0.24-155.861-0.24-233.279c0-7.881,0.574-15.688-0.72-23.04
	c0-0.08,0-0.16,0-0.24c0.471,0.65,0.647,1.593,0.72,2.64c0.775,4.099,0.274,8.418,0.24,12.96c-0.397,0.259-0.397,2.141,0,2.4
	C158.171,342.797,158.171,422.325,158.171,501.84z"/>
<path fill="#CBC9C9" d="M158.171,502.081c22,0,44,0,66,0c0.399-34.318,0.399-70.32,0-104.641c0-26.561,0-53.119,0-79.68
	c0.08,0,0.16,0,0.24,0c-0.266,61.546,0.746,123.092,0,184.32C202.891,502.481,179.691,502.481,158.171,502.081z"/>
<path fill="#CBC9C9" d="M224.412,285.84c0.314-12.965-0.634-27.192,0.479-39.359c-0.716,23.124,0.235,47.917-0.479,71.04
	C224.412,306.961,224.412,296.4,224.412,285.84z"/>
<path fill="#424040" d="M228.492,239.76c-1.361,2.079-2.824,4.056-3.601,6.72c-1.113,12.167-0.165,26.396-0.479,39.36
	c-0.08,0-0.16,0-0.24,0c0-0.08,0-0.16,0-0.24c0-6,0-13.053,0-20.16c0-10.177-1.482-20.553,3.601-25.2
	C228.087,240.156,228.148,239.818,228.492,239.76z"/>
<path fill="#CBC9C9" d="M366.972,176.64c0.561,18.48,0.08,38,0.24,56.88c-33.705,0.436-74.039,0.24-109.44,0.24
	c-7.96,0-15.86-1.012-21.84,1.2c-3.04,1.125-5.224,2.751-7.44,4.8c1.361-2.319,3.977-3.384,6.24-4.8
	c1.741-0.978,3.844-1.596,6.479-1.68c41.475,0.527,83.896,0.104,125.762,0.24C366.972,214.561,366.972,195.601,366.972,176.64z"/>
<path fill="#CBC9C9" d="M225.611,165.36c2.825,4.916,6.559,10.201,13.2,10.8c10.094,0.911,21.114-0.262,32.16,0.24
	c31.31,1.422,65.749-1.461,95.999,0c-13.199,0.16-27.039-0.32-39.84,0.24c-18.961,0-37.92,0-56.881,0
	c-4.16-0.559-9.358-0.08-13.92-0.24c-6.883-0.317-15.129,0.729-20.879-0.72c-0.503-0.458-1.146-0.774-1.921-0.96
	c-1.64-0.6-2.838-1.642-3.84-2.88c3.293,2.806-3.046-3.533-0.239-0.24c-1.785-1.415-2.98-3.42-3.841-5.76
	C225.611,165.68,225.611,165.521,225.611,165.36z"/>
<path fill="#CBC9C9" d="M158.171,19.92c21.521-0.4,44.72-0.399,66.241,0c0.438,33.904,0.239,69.248,0.239,103.92
	c0,13.475-0.622,27.791,0.479,39.84c-0.08,0-0.16,0-0.239,0c-0.326-0.074-0.199-0.601-0.24-0.96
	c-0.095-1.986-0.625-3.535-0.479-5.76c0-0.88,0-1.76,0-2.64c-0.187-2.986,0.356-5.243,0.24-8.16c0-42,0-84,0-126
	C202.811,19.6,180.172,20.08,158.171,19.92z"/>
<path fill="#767473" d="M158.171,20.16c0-0.08,0-0.16,0-0.24c22.001,0.16,44.64-0.32,66.241,0.24c0,42,0,84,0,126
	c-0.08,0-0.16,0-0.24,0c0-38.313,0-78.45,0-118.08c0-2.141,0.389-7.214,0-7.68c-0.834-1.001-14.521-0.24-16.319-0.24
	c-16.727,0-33.119,0-49.44,0C158.331,20.16,158.251,20.16,158.171,20.16z"/>
<path fill="#242424" d="M158.411,20.4c0-0.08,0-0.16,0-0.24c16.321,0,32.714,0,49.44,0c1.799,0,15.484-0.761,16.318,0.24
	c0.39,0.466,0,5.54,0,7.68c0,39.63,0,79.767,0,118.08c0,0.08,0,0.16,0,0.24c-0.56-41.521-0.08-84.08-0.238-126
	C202.091,20.4,180.251,20.4,158.411,20.4z"/>
<path fill="#242424" d="M233.531,174.72c0.773,0.186,1.418,0.502,1.92,0.96C234.552,175.619,233.908,175.304,233.531,174.72z"/>
<path fill="#424040" d="M366.732,176.88c0-0.08,0-0.16,0-0.24c0.078,0,0.158,0,0.238,0c0,18.96,0,37.92,0,56.88
	c-41.863-0.136-84.286,0.287-125.76-0.24c40.926-0.045,83.807,0.033,125.521,0C366.732,214.48,366.732,195.68,366.732,176.88z"/>
<path fill="#242424" d="M227.771,240.24c1.646-2.433,3.909-4.25,6.96-5.28c-2.265,1.416-4.879,2.481-6.239,4.8
	C228.148,239.818,228.087,240.156,227.771,240.24z"/>
<path fill="#242424" d="M223.932,397.44c0.079,0,0.159,0,0.239,0c0,34.801,0,69.602,0,104.4c-21.92,0-43.84,0-65.76,0
	c0-0.08,0-0.16,0-0.24c21.84,0,43.68,0,65.521,0C223.932,466.881,223.932,432.161,223.932,397.44z"/>
<path fill="#424040" d="M155.771,242.161c0.836,0.684,1.154,1.886,1.44,3.12c0,0.08,0,0.16,0,0.24
	c-0.642-0.798-0.858-2.022-1.44-2.88C155.771,242.48,155.771,242.32,155.771,242.161z"/>
<path fill="#242424" d="M155.051,240.96c-0.551-0.329-0.772-0.988-1.2-1.44c-0.071-0.489-0.649-0.471-0.72-0.96
	C153.956,239.175,154.721,239.85,155.051,240.96z"/>
<path fill="#242424" d="M148.811,235.2c0.956,0.245,1.673,0.727,2.16,1.44C150.258,236.153,149.313,235.898,148.811,235.2z"/>
<path fill="#242424" d="M20.171,233.28c0-16.001,0-32.738,0-49.68c0-1.807-0.365-6.595,0-6.96c0.532-0.532,7.561,0,8.64,0
	c8.591,0,16.991,0,25.2,0c0,0.08,0,0.16,0,0.24c-11.2,0-22.4,0-33.6,0c0,18.8,0,37.6,0,56.4
	C20.331,233.28,20.251,233.28,20.171,233.28z"/>
<path fill="#767473" d="M152.411,172.08c-0.615,0.905-1.567,1.473-2.64,1.92c1.13-1.112,3.541-3.019,5.04-4.56
	c-0.071,0.489-0.649,0.471-0.72,0.96C153.43,170.859,152.87,171.419,152.411,172.08z"/>
<path fill="#242424" d="M154.091,170.4c0.071-0.489,0.649-0.471,0.72-0.96c0.003-0.477,0.655-0.305,0.48-0.96
	c0.241,0,0.286-0.194,0.48-0.24C155.483,169.232,154.851,169.88,154.091,170.4z"/>
<path fill="#424040" d="M152.411,172.08c0.459-0.661,1.019-1.221,1.68-1.68C153.828,171.257,153.268,171.817,152.411,172.08z"/>
<path fill="#767473" d="M229.451,171.601c-2.806-3.293,3.533,3.045,0.24,0.24C229.487,171.885,229.464,171.747,229.451,171.601z"/>
<path fill="#767473" d="M20.171,233.521c-0.4-18.48-0.4-38.64,0-57.12c11.2,0.16,23.04-0.32,33.84,0.24c-8.209,0-16.609,0-25.2,0
	c-1.08,0-8.108-0.532-8.64,0c-0.365,0.365,0,5.153,0,6.96c0,16.941,0,33.678,0,49.68C20.171,233.36,20.171,233.44,20.171,233.521z"
	/>
<path fill="#767473" d="M153.851,239.521c-1.029-0.695-3.497-3.454-1.2-1.44c0.214,0.106,0.429,0.21,0.48,0.48
	C153.202,239.05,153.78,239.031,153.851,239.521z"/>
<path fill="#767473" d="M224.171,397.44c0.399,34.32,0.399,70.32,0,104.641c-22,0-44,0-66,0c0-0.08,0-0.16,0-0.24
	c0.08,0,0.16,0,0.24,0c21.92,0,43.84,0,65.76,0C224.171,467.042,224.171,432.241,224.171,397.44z"/>
<path fill="#424040" d="M224.412,146.16c0.116,2.917-0.427,5.174-0.24,8.16c-0.08,0-0.16,0-0.239,0
	c-0.183-2.903,0.301-5.139,0.239-7.92c0-0.08,0-0.16,0-0.24C224.251,146.16,224.332,146.16,224.412,146.16z"/>
<path fill="#424040" d="M224.651,162.72c-0.687-1.395-0.765-3.395-0.72-5.52c-0.001-0.08,0-0.16,0-0.24c0.078,0,0.158,0,0.238,0
	C224.026,159.185,224.557,160.734,224.651,162.72z"/>
<path fill="#424040" d="M225.611,165.84c-0.4-0.559-0.627-1.293-0.72-2.16c0.079,0,0.159,0,0.239,0c0.039,0.68,0.439,1,0.479,1.68
	C225.611,165.521,225.611,165.68,225.611,165.84z"/>
<path fill="#424040" d="M158.411,20.4c0,38.954,0,84.065,0,124.32c0,8.614,1.262,18.592-2.64,23.521
	c-0.194,0.046-0.239,0.241-0.48,0.24c1.188-2.012,2.466-3.935,2.64-6.96c0.56-46.641,0.08-94.32,0.24-141.36c0.08,0,0.16,0,0.24,0
	C158.411,20.24,158.411,20.32,158.411,20.4z"/>
<path fill="#424040" d="M235.451,175.68c5.752,1.449,13.998,0.403,20.881,0.72c0,0.08,0,0.16,0,0.24c-0.08,0-0.16,0-0.24,0
	C249.369,176.164,240.643,177.689,235.451,175.68z"/>
<path fill="#424040" d="M139.691,176.88c-8.107,0.347-16.97-0.63-25.92-0.24c-0.08,0-0.16,0-0.24,0c0-0.08,0-0.16,0-0.24
	c7.166,0.034,14.539-0.139,21.36,0.24c0.08,0,0.16,0,0.24,0C136.175,177.196,138.248,176.723,139.691,176.88z"/>
<path fill="#424040" d="M143.771,233.521c1.598-0.078,2.73,0.31,3.6,0.96c-1.495,0.055-1.893-0.987-3.6-0.72
	C143.771,233.681,143.771,233.601,143.771,233.521z"/>
<path fill="#424040" d="M157.931,247.92c1.208,3.537,0.576,8.698,0.48,12.96c-0.08,0-0.16,0-0.24,0
	C158.205,256.339,158.706,252.02,157.931,247.92z"/>
</svg>
