<?xml version="1.0" encoding="utf-8"?>
<!-- Generator: Adobe Illustrator 13.0.0, SVG Export Plug-In . SVG Version: 6.00 Build 14948)  -->
<!DOCTYPE svg PUBLIC "-//W3C//DTD SVG 1.1//EN" "http://www.w3.org/Graphics/SVG/1.1/DTD/svg11.dtd">
<svg version="1.1" id="Layer_1" xmlns="http://www.w3.org/2000/svg" xmlns:xlink="http://www.w3.org/1999/xlink" x="0px" y="0px"
	 width="299.977px" height="246.221px" viewBox="0 0 299.977 246.221" enable-background="new 0 0 299.977 246.221"
	 xml:space="preserve">
<path fill="#242423" d="M219.342,60.475c2.08,0,4.16,0,6.239,0C224.597,61.271,220.326,61.271,219.342,60.475z"/>
<path fill="#D7D7D7" d="M54.715,17.278C63.998,6.847,77.426,3.287,94.072,0c1.28,0,2.56,0,3.84,0c0.079,1.359-2.959-0.398-2.88,0.96
	c-4.253,0.066-7.878,0.763-11.039,1.92c-6.027,1.812-11.672,4.006-17.279,6.239c-1.393,0.368-2.76,0.759-3.358,1.92
	C60.541,13.185,57.744,15.347,54.715,17.278z"/>
<path fill="#D7D7D7" d="M70.554,22.558c-1.621,1.098-11.204,2.762-13.92,0c-0.41-1.531,0.756-1.484,0.961-2.4
	c-2.169,0.545-4.443-1.284-3.36-2.399c0.533,1.548,2.642,1.519,4.8,1.439c-0.194,2.381-2.591,2.938,0.48,3.84
	C62.919,24.513,66.92,22.451,70.554,22.558z"/>
<path fill="#D7D7D7" d="M73.434,22.078c0.077-0.562,0.875-0.405,1.439-0.479c1.76,0,3.521,0,5.279,0
	c-0.061,1.327-0.916,1.647,0.479,0.96c-0.276,1.163-1.812,1.066-2.88,1.439c0-0.16,0-0.32,0-0.479c0.691-0.27,1.171-0.749,1.44-1.44
	C77.273,22.078,75.354,22.078,73.434,22.078z"/>
<path fill="#949494" d="M78.713,29.277c-0.155-2.1-3.052-0.555-2.399,0c-1.184,0.062-2.312,0.073-2.879-0.479
	c-0.043-3.243,1.212-5.188,4.318-5.279c0,0.159,0,0.319,0,0.479c-0.996,1.244-3.468,1.011-2.879,3.84
	C74.92,28.628,80.903,26.684,78.713,29.277z"/>
<path fill="#D7D7D7" d="M114.23,36.477c0.013,0.467,0.587,0.373,0.96,0.479c0.203,1.003-0.329,1.271-0.48,1.92
	c0.116,0.845,0.826,1.095,1.92,0.96c0.108,0.691,1.434,0.167,1.44,0.96c-1.759,0.158-2.667-0.532-3.84-0.96
	c0.04-0.76-0.231-1.831,0.479-1.92c-0.979-1.116-5.451-1.247-3.359-3.84c0,0.48,0,0.96,0,1.44
	C111.792,36.355,112.851,36.576,114.23,36.477z"/>
<path fill="#D7D7D7" d="M106.551,46.556c5.792-0.511,13.591,1.126,18.238,3.359c-0.319,0-0.64,0-0.96,0
	c-0.76-0.04-1.831,0.23-1.919-0.479C117.469,47.797,111.998,47.189,106.551,46.556z"/>
<path fill="#575757" d="M50.876,49.916c8.3-1.878,13.585-3.837,23.038-4.319c9.508-0.398,19.469-0.883,28.317,0.479
	c1.748-0.148,3.124,0.076,4.319,0.48c5.446,0.633,10.917,1.24,15.359,2.88c-22.013-5.073-52.074-5.032-72.474,1.439
	C49.544,50.185,50.869,50.708,50.876,49.916z"/>
<path fill="#D7D7D7" d="M44.636,52.795c0.676-2.363,3.668-2.411,6.239-2.879c-0.007,0.792-1.332,0.27-1.439,0.96
	C48.084,51.764,46.274,52.194,44.636,52.795z"/>
<path fill="#D7D7D7" d="M12.479,74.394c3.102-5.059,7.438-8.881,12.479-11.999c-0.091,0.389-0.48,0.478-0.479,0.96
	c-0.617,0.821-0.993,1.887-2.4,1.919c-1.674,1.046-3.283,2.157-4.32,3.84c-0.407-0.088-0.452,0.187-0.479,0.479
	C15.125,70.641,14.513,73.229,12.479,74.394z"/>
<path fill="#D7D7D7" d="M4.8,88.792c0.085-4.074,1.547-6.772,4.319-8.159C7.369,83.042,6.31,86.143,4.8,88.792z"/>
<path fill="#D7D7D7" d="M0,102.231c1.078,0.37,0.014-3.733,0.96-1.92c0.028,2.107-0.192,3.967-0.96,5.279
	C0,104.471,0,103.352,0,102.231z"/>
<path fill="#242423" d="M97.912,0c1.12,0,2.24,0,3.359,0c-1.326,1.074-3.805,0.995-6.239,0.96C94.953-0.399,97.991,1.359,97.912,0z"
	/>
<path fill="#242423" d="M149.268,11.519c-1.461,0.021-1.866-1.014-2.88-1.44c0-0.16,0-0.32,0-0.479
	c1.393,0.367,2.761,0.759,3.359,1.92C149.587,11.519,149.428,11.519,149.268,11.519z"/>
<path fill="#242423" d="M156.947,17.278c2.44,2.04,4.68,4.279,6.719,6.72C161.227,21.958,158.986,19.719,156.947,17.278z"/>
<path fill="#242423" d="M172.786,41.276c0.159,0,0.319,0,0.479,0c2.48,1.188,3.619-3.09,5.76-3.839
	C177.367,38.732,175.107,43.753,172.786,41.276z"/>
<path fill="#575757" d="M188.624,30.237c-0.632,0.968-1.575,1.624-2.88,1.92c0.092-0.389,0.482-0.479,0.48-0.96
	C187.14,30.993,187.093,29.826,188.624,30.237z"/>
<path fill="#242423" d="M192.464,27.838c-0.597,1.322-2.45,1.389-3.358,2.399C189.721,28.935,190.53,27.824,192.464,27.838z"/>
<path fill="#242423" d="M285.097,18.718c5.654,3.305,9.865,8.053,13.919,12.959c0,0.16,0,0.32,0,0.48c-9.761,0-19.52,0-29.278,0
	c8.479-1.119,19.038-0.161,28.318-0.48C294.625,26.469,289.582,22.872,285.097,18.718z"/>
<path fill="#242423" d="M276.457,65.754c3.566,2.833,6.509,6.291,9.601,9.6c0.645,0.955,0.914,2.285,1.438,3.359
	C284.474,73.737,280.292,69.918,276.457,65.754z"/>
<path fill="#242423" d="M282.696,118.07c0.932-2.269,2.788-3.611,3.84-5.76c0.909,1.411-1.875,3.229-2.398,4.8
	C283.506,117.28,283.382,117.955,282.696,118.07z"/>
<path fill="#010101" d="M282.696,118.07c-0.434,0.846-1.073,1.486-1.92,1.92c-1.263-0.497-1.616-1.903-2.879-2.4
	c0.088-0.407-0.188-0.453-0.48-0.479c-0.757-1.163-1.717-2.123-2.88-2.88c0-0.16,0-0.32,0-0.48c-1.732-2.586-2.342-6.298-3.84-9.119
	c0.533-2.9-3.161-2.787-3.359-0.479c-0.467,0.013-0.372,0.587-0.479,0.96c-0.253,0.386-0.5,0.779-0.479,1.439
	c-1.04,1.065-2.615,2.115-3.84,0.48c0-0.16,0-0.32,0-0.48c0.036-2.275-3.142-1.338-3.358-3.359
	c-1.065-2.135-2.382-4.019-4.319-5.279c-0.16,0-0.32,0-0.48,0c-0.973-1.427-2.407-2.392-4.318-2.88
	c-1.328-1.072-2.933-1.868-4.801-2.4c-0.639-0.961-2.131-1.068-3.358-1.439c-1.022-1.238-3.794-1.191-3.84,0.96
	c-1.312,2.05,0.461,7.181-1.44,8.639c-1.779,0.34-2.06-0.819-3.839-0.479c-0.202-1.078-2.547-0.014-2.88-0.96
	c-1.072-1.168-3.134-1.347-4.8-1.919c-0.775,0.135-0.826-0.454-1.44-0.48c-1.001-0.758-2.523-0.996-4.319-0.96
	c-0.979-1.102-3.985-0.174-5.76-0.48c-0.323,2.403,1.282,2.879,2.4,3.84c0.032,1.407,1.097,1.782,1.92,2.399
	c0.885,1.995,1.916,3.844,3.359,5.28c0.065,0.894,0.314,1.604,0.96,1.92c3.4,7.907,3.656,20.447,0,28.317c0,0.159,0,0.319,0,0.479
	c-1.277,2.722-2.846,5.154-3.841,8.159c-1.365,0.874-1.843,2.637-2.88,3.84c-1.753,2.886-4.128,5.15-6.238,7.679
	c-1.71,2.771-5.011,3.949-6.721,6.721c-1.406,0.031-1.781,1.097-2.398,1.92c-1.521,0.398-2.439,1.398-3.359,2.398
	c-0.16,0-0.32,0-0.479,0c-1.182,0.899-2.658,1.501-3.841,2.4c-1.698,1.021-3.85,1.589-5.278,2.88
	c-0.559-0.078-0.854,0.105-0.96,0.479c-1.469-0.349-1.412,0.827-2.88,0.479c0.077-0.558-0.105-0.854-0.479-0.959
	c0.91-3.444-1.877-2.451-2.88-2.88c0.088-0.408-0.188-0.453-0.48-0.48c-0.768-3.612,0.839-6.951,1.92-10.078
	c0.686-0.916,1.116-2.085,1.44-3.359c2.401-4.822,5.062-11.865,3.359-19.198c-0.559-0.078-0.854,0.105-0.96,0.479
	c-1.488-0.049-2.293,0.587-3.359,0.96c-2.285,1.234-3.763,3.276-7.2,3.358c-0.254-0.386-0.5-0.778-0.479-1.438
	c1.566,0.059,1.963-4.329,0-2.399c-1.99-0.131-1.87,0.63-3.359,0c-0.062-0.86,0.587-1.013,0.479-1.92
	c1.491-0.908,1.856-2.941,2.399-4.8c1.454-3.187,1.839-7.44,1.919-11.999c-0.387-0.333-1.313-0.747-1.438,0
	c-1.561,0.041-2.952,0.247-3.84,0.96c-0.761,0.04-1.83-0.231-1.921,0.48c-1.606,0.151-3.024,0.493-3.84,1.438
	c-2.153,0.266-3.543,1.632-4.799-0.479c0.672-2.912-2.483-1.995-3.359-3.359c-0.354-2.274,0.539-3.3,0.479-5.28
	c-4.948,1.132-6.332,5.827-9.6,8.64c0.35,1.31-0.954,0.966-0.96,1.92c-0.428,0.213-0.858,0.422-0.96,0.96
	c-1.295,0.945-2.297,2.184-2.88,3.84c-1.284,1.115-2.25,2.55-2.88,4.318c-1.596,1.284-2.143,3.616-3.359,5.28
	c0.073,1.193-0.754,1.485-0.96,2.399c-1.346,0.895-1.852,2.629-2.399,4.318c0.021,1.461-1.014,1.866-1.44,2.881
	c-1.751,3.848-3.264,7.936-4.8,11.998c-0.25,3.109-1.84,4.88-2.399,7.681c-1.035,2.645-1.993,5.366-2.399,8.639
	c-0.869,1.853-1.498,3.942-1.439,6.72c-0.839,0.441-1.061,1.501-0.961,2.881c-1.851,7.429-3.542,15.017-4.319,23.518
	c-0.812,0.949-0.524,2.996-0.96,4.32c-1.497,10.502-2.4,21.598-3.84,32.156c-12.479,0-24.958,0-37.438,0
	c-0.385-1.664,0.715-1.845,0.48-3.358c-0.698-0.742-2.457-0.423-3.84-0.48c0-1.12,0-2.238,0-3.358
	c1.018-5.862,1.805-11.954,2.399-18.239c1.061-0.06,0.204-2.035,0.48-2.879c1.139-3.661,1.932-7.668,2.399-11.999
	c1.323-3.478,2.054-7.546,2.879-11.521c0.922-1.958,1.53-4.229,1.92-6.72c0.562-0.077,0.405-0.875,0.48-1.438
	c1.119-2.722,1.979-5.699,2.88-8.641c-0.135-0.773,0.454-0.826,0.48-1.438c1.658-3.461,2.895-7.345,4.318-11.039
	c0.686-0.916,1.116-2.084,1.44-3.359c0.685-0.916,1.116-2.085,1.439-3.359c0.645-0.315,0.895-1.025,0.96-1.921
	c1.868-2.932,3.468-6.132,4.801-9.599c2.302-3.938,4.623-7.855,6.719-11.999c1.162-0.918,2.033-2.127,2.399-3.84
	c2.732-3.027,4.673-6.847,7.199-10.079c0-0.16,0-0.32,0-0.479c1.294-0.946,2.296-2.185,2.88-3.841
	c0.703-0.417,1.521-0.719,1.44-1.92c0.584-1.016,1.806-1.394,1.92-2.88c0.823-0.617,1.887-0.992,1.92-2.398
	c0.702-0.417,1.521-0.72,1.439-1.92c-1.734-0.441-3.876,2.833-5.279,4.318c-0.582,1.178-2.236,1.283-2.4,2.88
	c-1.416,0.984-2.667,2.134-3.359,3.84c-0.554,1.386-3.199,3.177-4.8,1.921c0-1.12,0-2.24,0-3.36c-1.119,0-2.239,0-3.359,0
	c0.061-2.125-2.499-0.428-2.88,0c-2.646,1.834-4.886,4.074-6.72,6.72c0,0.16,0,0.319,0,0.479c-2.079,1.438-2.906,4.133-4.319,6.238
	c-0.736,1.824-1.825,3.295-2.879,4.801c-0.411,1.509-1.814,2.024-1.92,3.84c-1.062,0.379-1.201,1.679-1.92,2.398
	c-3.254-0.104-3.757-2.963-5.761-4.318c-2.28-0.278-2.555-2.564-3.358-4.319c-0.25-0.71-0.71-1.21-0.96-1.92
	c-0.854,0.266-1.993,0.246-2.4,0.96c-0.16,0-0.32,0-0.479,0c-1.642,0.919-3.41,1.709-4.32,3.359
	c-2.626,1.054-3.926,3.433-5.279,5.76c-1.782,1.578-3.233,3.484-4.32,5.76c-1.386,0.693-1.852,2.308-2.88,3.359
	c-0.774,0.136-0.825-0.453-1.438-0.479c-2.359-3.562-6.615-5.225-7.681-10.08c-0.839-2.04-0.356-5.4-0.479-8.159
	c0.719-1.041,0.818-2.7,0.96-4.318c1.078-0.202,0.013-2.547,0.96-2.88c0.917-1.003,1.548-2.292,1.92-3.839
	c1.37-1.351,2.533-2.907,3.36-4.801c2.76-2.358,5.319-4.919,7.679-7.679c2.865-1.614,5.297-3.663,7.679-5.76
	c1.305-0.296,2.248-0.952,2.88-1.92c0.16,0,0.32,0,0.48,0c1.426-0.975,3.315-1.484,4.32-2.879c0.16,0,0.319,0,0.479,0
	c3.213-1.747,6.552-3.367,9.6-5.28c1.612,0.013,2.539-0.661,3.359-1.44c1.162-0.598,2.331-1.188,3.839-1.439
	c1.807-0.914,4.104-1.337,5.761-2.399c3.6-1.359,7.856-2.062,11.039-3.84c-0.597-1.817-6.312-1.031-7.681-0.479
	c-2.372,0.026-4.326,0.474-5.759,1.439c-0.681-0.042-1.359-0.08-1.44,0.48c-3.629,0.85-6.619,2.34-9.599,3.839
	c-0.558-0.078-0.854,0.105-0.96,0.479c-1.7,0.062-2.731,0.789-3.84,1.44c-0.896,0.383-1.758,0.802-2.88,0.96
	c-0.682-0.041-1.359-0.079-1.439,0.479c-0.698,0.264-2.48-0.561-2.399,0.48c-1.09-0.511-0.184-3.017-0.48-4.32
	c-0.697,0.264-2.48-0.561-2.4,0.48c-0.319,0-0.64,0-0.96,0c-0.659-2.088,0.146-2.675,0-5.279c-2.326,0.073-3.875,0.925-5.278,1.92
	c-1.476,0.125-2.159,1.041-3.36,1.44c-1.203,1.037-2.966,1.514-3.84,2.879c-1.132,0.147-0.894,1.667-2.4,1.439
	c-2.684,2.116-5.493,4.106-7.679,6.721c-2.373,1.266-5.732,5.503-8.639,1.919c-0.093-1.508-0.893-2.309-2.4-2.399
	c-0.56-0.88-1.254-1.625-1.92-2.399c-1.192-0.072-1.992,0.247-2.4,0.96c-0.558-0.078-0.854,0.105-0.959,0.479
	c-1.304,0.296-2.248,0.952-2.88,1.92c-1.201-0.082-1.502,0.737-1.92,1.439c-0.16,0-0.319,0-0.479,0
	c-4.757,4.203-8.884,9.036-13.919,12.959c-1.604,0.315-2.348,1.493-3.84,1.92c-0.82-0.102-1.242,0.817-1.439,0
	c0-1.28,0-2.561,0-3.84c-0.387-0.333-1.315-0.747-1.44,0c-1.122,0.157-1.982,0.577-2.88,0.96c0-0.96,0-1.919,0-2.879
	c1.268-1.934,1.271-5.128,1.44-8.16c0.719-1.041,0.817-2.701,0.96-4.319c0.981-2.218,1.645-4.755,2.399-7.2
	c1.511-2.648,2.569-5.75,4.319-8.159c-0.26-1.699,1.7-1.18,1.44-2.88c2.3-2.659,4.8-5.118,6.719-8.158
	c0.027-0.293,0.072-0.568,0.479-0.48c2.101-0.621,3.019-2.422,4.32-3.84c1.407-0.032,1.783-1.097,2.4-1.919
	c1.77-0.631,3.205-1.595,4.319-2.88c0.16,0,0.32,0,0.479,0c0.909-1.013,2.763-1.077,3.36-2.4c0.613-0.026,0.664-0.615,1.439-0.479
	c1.376-0.864,3.215-1.266,4.32-2.4c1.896-0.984,4.117-1.642,6.239-2.4c1.638-0.601,3.447-1.03,4.8-1.919
	c20.399-6.472,50.461-6.513,72.474-1.439c0.089,0.71,1.16,0.439,1.919,0.479c2.636,1.043,5.538,1.822,8.64,2.399
	c0.826-1.827-1.151-4.461-2.399-5.759c-0.658-1.103-1.978-1.543-2.88-2.4c-0.737-1.023-2.132-1.387-3.36-1.92
	c-0.613-0.026-0.665-0.615-1.439-0.48c-1.675-0.885-3.214-1.905-5.76-1.919c-2.509,0.044,0.492-3.279-2.399-3.359
	c-0.406-0.713-1.545-0.695-2.4-0.96c0-0.48,0-0.96,0-1.44c0.374-0.105,0.559-0.401,0.48-0.96c0.562-0.078,0.404-0.875,0.479-1.439
	c-5.022-1.698-14.066-1.929-20.158-0.96c-4.92-0.281-8.604,0.674-12.959,0.96c-0.479,0-0.96,0-1.439,0
	c-0.396-1.356,0.677-1.243,0.479-2.4c2.189-2.593-3.793-0.649-3.839-1.439c-0.589-2.828,1.883-2.596,2.879-3.84
	c1.067-0.373,2.604-0.276,2.88-1.439c0.41-2.811-3.934-0.866-5.759-1.44c-1.618,0.143-3.278,0.241-4.319,0.96
	c-4.001-0.002-6.603,1.398-11.039,0.96c-3.071-0.901-0.675-1.459-0.48-3.84c-2.158,0.079-4.267,0.107-4.8-1.438
	c0.027-0.294,0.072-0.568,0.479-0.48c3.028-1.931,5.825-4.094,8.641-6.239c1.392-0.367,2.76-0.759,3.358-1.92
	c5.606-2.232,11.252-4.427,17.279-6.239c3.882-0.438,7.575-1.063,11.039-1.92c2.435,0.035,4.914,0.114,6.239-0.96
	c3.2,0,6.398,0,9.599,0c5.203,1.518,11.617,1.822,17.279,2.88c2.765,1.234,6.148,1.851,9.119,2.881
	c1.089,0.99,3.179,0.98,4.319,1.919c0.16,0,0.32,0,0.48,0c1.104,1.135,2.942,1.535,4.319,2.399c1.014,0.427,1.419,1.461,2.88,1.44
	c0.632,0.968,1.575,1.624,2.88,1.92c0.417,0.703,0.719,1.521,1.92,1.439c0.573,1.188,1.644,1.876,2.88,2.399
	c2.039,2.44,4.279,4.68,6.719,6.72c0.169,1.591,1.438,2.082,2.4,2.88c0.63,1.77,1.595,3.204,2.88,4.319
	c0.968,2.712,2.271,5.089,3.359,7.68c-0.396,1.356,0.677,1.243,0.479,2.399c2.321,2.477,4.581-2.544,6.239-3.839
	c2.438-1.562,4.792-3.208,6.719-5.28c1.305-0.296,2.248-0.952,2.88-1.92c0.16,0,0.32,0,0.48,0c0.907-1.011,2.763-1.077,3.358-2.399
	c1.462,0.021,1.866-1.014,2.88-1.439c2.649-1.352,5.268-2.733,7.681-4.32c1.658-0.421,3.324-0.835,4.318-1.92c0.16,0,0.32,0,0.48,0
	c2.646-1.19,5.643-2.036,8.159-3.358c0.16,0,0.318,0,0.479,0c14.359-5.16,35.246-9.035,53.275-4.801
	c1.894,1.146,4.656,1.424,6.72,2.4c0.16,0,0.32,0,0.48,0c1.104,1.135,2.942,1.536,4.318,2.4c1.823,0.096,1.821,2.018,3.84,1.919
	c4.485,4.152,9.528,7.75,12.959,12.959c-9.279,0.318-19.838-0.64-28.317,0.479c-0.681-0.041-1.358-0.079-1.439,0.48
	c-1.047-0.087-1.526,0.393-1.439,1.439c-1.481,1.669,0.525,3.934,0,6.239c-3.024-0.501-7.74-1.849-11.039-0.479
	c-2.33-0.091-3.901,0.578-5.279,1.439c-5.556,0.844-9.286,3.513-16.318,2.88c-0.023,2.104-0.336,4.496,1.439,4.8
	c0.219,2.022,2.347,2.134,3.36,3.359c0.29,1.149,0.688,2.189,0.479,3.84c-7.311-1.291-15.341,0.149-20.158,2.88
	c-0.558-0.078-0.854,0.106-0.96,0.48c-0.177,0.815,0.374,0.904,0.96,0.96c0.984,0.796,5.255,0.796,6.239,0
	c13.011-0.057,25.851-2.827,38.397-0.48c4.686,1.395,8.813,3.344,12.479,5.759c3.835,4.164,8.018,7.982,11.039,12.959
	c0.838,1.402,0.953,3.527,1.92,4.801c-0.041,0.681-0.079,1.358,0.48,1.439c0.767,4.514,1.227,9.332,0.959,14.878
	c-0.901,1.658-0.714,4.406-1.439,6.24c-0.991,1.089-0.98,3.178-1.92,4.319c-0.25,0.71-0.71,1.21-0.96,1.92
	C285.484,114.459,283.628,115.802,282.696,118.07z"/>
<path fill="#575757" d="M277.897,117.59c1.263,0.497,1.616,1.903,2.879,2.4C279.663,121.227,278.364,118.591,277.897,117.59z"/>
<path fill="#242423" d="M274.537,114.23c1.163,0.757,2.123,1.717,2.88,2.88c-1.507,0.227-1.268-1.292-2.398-1.44
	C275.152,114.896,274.563,114.844,274.537,114.23z"/>
<path fill="#575757" d="M262.538,106.551c-1.829,0.23-0.978-2.222-3.358-1.439c-0.066-0.895-0.315-1.604-0.961-1.92
	c0-0.16,0-0.32,0-0.48c0.39,0.091,0.479,0.481,0.961,0.48C259.396,105.213,262.574,104.275,262.538,106.551z"/>
<path fill="#242423" d="M258.219,102.711c-0.447-2.271-2.346-3.094-3.358-4.799c1.938,1.261,3.254,3.146,4.319,5.279
	C258.697,103.193,258.607,102.802,258.219,102.711z"/>
<path fill="#242423" d="M254.379,97.912c-1.399-0.52-1.807-2.034-3.84-1.92c-0.091-0.389-0.48-0.479-0.479-0.96
	C251.971,95.521,253.406,96.485,254.379,97.912z"/>
<path fill="#242423" d="M215.982,99.352c-1.118-0.961-2.725-1.437-2.4-3.839c1.773,0.306,4.781-0.622,5.76,0.479
	c-0.479,0-0.96,0-1.438,0C213.256,95.07,213.978,97.688,215.982,99.352z"/>
<path fill="#242423" d="M221.262,107.031c-1.443-1.437-2.476-3.285-3.359-5.28c1.233,0.046,0.686,1.874,1.92,1.92
	C220.467,104.626,220.736,105.956,221.262,107.031z"/>
<path fill="#242423" d="M196.784,168.466c0.92-1,1.839-2,3.359-2.398c-0.093,0.389-0.481,0.479-0.48,0.96
	C198.917,167.719,197.793,168.035,196.784,168.466z"/>
<path fill="#242423" d="M192.464,170.866c1.183-0.899,2.659-1.501,3.841-2.4c-0.525,1.715-2.604,1.876-3.841,2.881
	C192.464,171.186,192.464,171.025,192.464,170.866z"/>
<path fill="#575757" d="M186.225,174.226c1.377,0.656-3.486,1.886-3.359,0c0-0.16,0-0.32,0-0.479
	c0.374,0.105,0.558,0.401,0.479,0.959C184.812,175.054,184.757,173.878,186.225,174.226z"/>
<path fill="#575757" d="M170.386,139.188c-0.767-0.722,0.014-2.021,0.96-2.399c0.106,0.907-0.541,1.06-0.479,1.92
	c1.489,0.63,1.369-0.131,3.359,0c-0.593,0.688-1.65,0.909-2.88,0.959C170.957,139.577,170.867,139.187,170.386,139.188z"/>
<path fill="#242423" d="M174.226,119.99c0.125-0.747,1.053-0.333,1.438,0c-0.08,4.559-0.465,8.812-1.919,11.999
	c-0.377-1.978,0.736-2.463,0.479-4.319c1.082-0.356,0.188-2.691,0.479-3.84C175.594,123.371,175.516,119.857,174.226,119.99z"/>
<path fill="#242423" d="M142.548,129.109c0.583-1.656,1.585-2.895,2.879-3.84c-0.538,1.221-1.179,2.341-1.919,3.358
	C143.12,128.721,143.03,129.111,142.548,129.109z"/>
<path fill="#242423" d="M132.949,145.427c0.549-1.689,1.055-3.425,2.399-4.318C135.025,143.025,133.743,143.981,132.949,145.427z"/>
<path fill="#242423" d="M91.672,156.467c1.154-3.33,3.53-7.981,4.801-9.599C95.14,150.335,93.54,153.535,91.672,156.467z"/>
<path fill="#242423" d="M103.191,134.869c-0.115-2.035,2.035-1.806,1.92-3.84c0.16,0,0.32,0,0.479,0
	C105.224,132.742,104.354,133.951,103.191,134.869z"/>
<path fill="#242423" d="M115.67,116.63c-0.584,1.656-1.586,2.895-2.88,3.84c0.362-1.397,1.141-2.38,1.92-3.359
	C115.099,117.019,115.189,116.629,115.67,116.63z"/>
<path fill="#242423" d="M120.95,109.431c0.169-0.631,0.845-0.756,0.96-1.44c-2.349,0.531-2.846,2.914-4.8,3.839
	c1.403-1.486,3.545-4.761,5.279-4.319C122.471,108.712,121.652,109.014,120.95,109.431z"/>
<path fill="#242423" d="M111.351,118.55c0.692-1.707,1.943-2.855,3.359-3.84C113.75,116.15,112.908,117.708,111.351,118.55z"/>
<path fill="#242423" d="M89.272,130.549c1.413-2.105,2.24-4.8,4.319-6.238c0,0.159,0,0.319,0,0.479
	C91.922,126.479,91.407,129.324,89.272,130.549z"/>
<path fill="#242423" d="M84.473,139.188c0.104-1.814,1.509-2.331,1.92-3.84c2.141-1.062-0.277,1.507-0.48,2.399
	C84.806,137.602,85.38,139.135,84.473,139.188z"/>
<path fill="#575757" d="M76.793,137.269c2.004,1.355,2.506,4.214,5.761,4.318c-0.078,0.562-0.875,0.405-1.44,0.48
	C78.726,141.416,78.072,139.029,76.793,137.269z"/>
<path fill="#242423" d="M65.274,135.349c0.91-1.65,2.679-2.44,4.32-3.359c-0.481,1.278-1.938,1.582-2.881,2.399
	C66.084,134.559,65.959,135.233,65.274,135.349z"/>
<path fill="#242423" d="M50.396,115.67c0.141-0.979,1.298-0.94,1.439-1.92c1.642-1.239,3.081-2.678,4.319-4.318
	c0.979-0.143,0.941-1.3,1.92-1.44C55.716,110.751,53.156,113.311,50.396,115.67z"/>
<path fill="#575757" d="M68.634,100.312c-0.632,0.968-1.575,1.624-2.88,1.92c0.092-0.39,0.481-0.479,0.48-0.96
	C67.15,101.067,67.103,99.9,68.634,100.312z"/>
<path fill="#242423" d="M73.434,97.432c-1.005,1.395-2.895,1.904-4.32,2.879C69.324,98.121,72.001,98.399,73.434,97.432z"/>
<path fill="#575757" d="M68.634,88.312c-0.08-1.041,1.703-0.218,2.4-0.48c0.297,1.303-0.609,3.81,0.48,4.32
	c-0.081-1.041,1.701-0.217,2.399-0.48c-0.79,0.615-2.604,1.243-3.359,0.48c0-1.28,0-2.561,0-3.84
	C69.914,88.312,69.274,88.312,68.634,88.312z"/>
<path fill="#242423" d="M36.477,99.352c2.906,3.583,6.266-0.653,8.639-1.919c-0.169,0.63-0.845,0.755-0.96,1.439
	C43.237,100.505,37.107,103.31,36.477,99.352z"/>
<path fill="#242423" d="M9.599,112.311c5.035-3.923,9.162-8.756,13.919-12.959c-2.277,3.002-5.402,5.156-7.68,8.159
	c-1.321,0.919-2.441,2.038-3.359,3.359C11.307,111.138,11.457,112.728,9.599,112.311z"/>
<path fill="#242423" d="M2.88,110.391c0.125-0.747,1.054-0.333,1.44,0c0,1.279,0,2.56,0,3.84
	C2.794,113.997,5.127,109.904,2.88,110.391z"/>
<path fill="#242423" d="M12.479,74.394c2.034-1.166,2.646-3.753,4.799-4.801c-1.919,3.041-4.419,5.5-6.719,8.159
	C10.921,76.355,11.699,75.374,12.479,74.394z"/>
<path fill="#242423" d="M22.078,65.274c-1.302,1.418-2.22,3.219-4.32,3.84C18.795,67.432,20.404,66.32,22.078,65.274z"/>
<path fill="#242423" d="M24.958,62.395c1.814-0.105,2.331-1.51,3.84-1.92c-1.114,1.284-2.55,2.249-4.319,2.88
	C24.477,62.873,24.867,62.784,24.958,62.395z"/>
<path fill="#242423" d="M32.637,58.075c-0.598,1.323-2.451,1.388-3.36,2.4C29.895,59.172,30.704,58.062,32.637,58.075z"/>
<path fill="#242423" d="M123.83,42.236c1.229,0.533,2.623,0.896,3.36,1.92C125.62,43.966,124.086,43.74,123.83,42.236z"/>
<path fill="#242423" d="M114.23,36.477c2.892,0.08-0.109,3.403,2.399,3.359c-1.094,0.135-1.804-0.115-1.92-0.96
	c0.151-0.648,0.684-0.917,0.48-1.92C114.818,36.85,114.244,36.944,114.23,36.477z"/>
<path fill="#575757" d="M63.355,11.039c0.599-1.161,1.967-1.552,3.358-1.92C66.115,10.28,64.747,10.672,63.355,11.039z"/>
<path fill="#D7D7D7" d="M280.776,15.839c8.707,2.973,13.24,10.118,19.199,15.838c0,0.48,0,0.961,0,1.44
	c-10.69,0.829-24.778-1.739-33.118,1.44c0-0.16,0-0.32,0-0.48c-0.087-1.047,0.394-1.527,1.439-1.439
	c9.291-1.606,22.52,2.168,30.719,0c0.593-0.157,0.49-0.926,0-0.961c-4.054-4.906-8.265-9.654-13.919-12.959
	c-2.02,0.1-2.018-1.823-3.841-1.919C281.166,16.41,280.775,16.32,280.776,15.839z"/>
<path fill="#D7D7D7" d="M269.737,11.999c2.254-0.704,5.986,0.108,6.72,2.4C274.394,13.423,271.631,13.146,269.737,11.999z"/>
<path fill="#D7D7D7" d="M225.102,13.439c-0.16,0-0.32,0-0.48,0c5.033-1.847,10.587-3.172,17.279-3.36
	C236.248,11.147,230.503,12.121,225.102,13.439z"/>
<path fill="#D7D7D7" d="M195.344,26.398c1.163-2.997,4.522-3.797,7.681-4.8c0,0.159,0,0.319,0,0.479
	C200.61,23.665,197.993,25.047,195.344,26.398z"/>
<path fill="#D7D7D7" d="M173.266,41.276c4.714-2.965,7.572-7.785,12.959-10.079c0.002,0.48-0.39,0.571-0.48,0.96
	c-1.927,2.072-4.281,3.717-6.719,5.28C176.886,38.187,175.747,42.465,173.266,41.276z"/>
<path fill="#D7D7D7" d="M151.667,12.479c7.392,4.769,13.589,10.729,17.759,18.718c-0.159,0-0.319,0-0.479,0
	c-1.285-1.115-2.25-2.55-2.88-4.319c-3.158-4.842-6.958-9.041-11.999-11.999c-1.201,0.081-1.503-0.736-1.92-1.439
	C152.057,13.05,151.666,12.96,151.667,12.479z"/>
<path fill="#D7D7D7" d="M121.91,1.44c5.312-0.35,12.339,1.736,16.318,4.319c-0.32,0-0.641,0-0.96,0
	c-2.971-1.029-6.354-1.646-9.119-2.88C126.528,1.941,124.199,1.71,121.91,1.44z"/>
<path fill="#575757" d="M142.068,7.679c2.123-0.044,3.464,0.695,4.319,1.92c0,0.159,0,0.319,0,0.479
	C145.012,9.215,143.173,8.814,142.068,7.679z"/>
<path fill="#575757" d="M149.748,11.519c1.31-0.351,0.966,0.954,1.919,0.96c-0.001,0.48,0.391,0.57,0.48,0.96
	c-1.305-0.296-2.248-0.952-2.88-1.92C149.428,11.519,149.587,11.519,149.748,11.519z"/>
<path fill="#575757" d="M276.938,14.399c2.297-0.537,2.336,1.184,3.839,1.439c-0.001,0.481,0.39,0.571,0.479,0.96
	C279.881,15.935,278.042,15.534,276.938,14.399z"/>
<path fill="#949494" d="M154.067,14.879c5.041,2.958,8.841,7.157,11.999,11.999c-0.963-0.798-2.231-1.289-2.4-2.88
	c-2.039-2.439-4.277-4.68-6.719-6.72C155.711,16.755,154.641,16.065,154.067,14.879z"/>
<path fill="#575757" d="M74.874,21.598c0-0.16,0-0.32,0-0.48c1.826,0.574,6.169-1.37,5.759,1.44c-1.396,0.688-0.54,0.367-0.479-0.96
	C78.394,21.598,76.634,21.598,74.874,21.598z"/>
<path fill="#D7D7D7" d="M115.67,207.823c0.928,1.429,0.274,5.377-0.96,6.239c0.404-1.196,0.628-2.571,0.48-4.32
	C115.842,209.594,115.589,208.541,115.67,207.823z"/>
<path fill="#575757" d="M119.51,186.225c-1.03,9.165-2.034,13.919-3.84,21.599c-0.082,0.718,0.171,1.771-0.479,1.919
	C115.968,201.241,117.66,193.653,119.51,186.225z"/>
<path fill="#D7D7D7" d="M121.91,176.625c0.727,2.037-0.036,5.363-1.439,6.721C120.412,180.567,121.042,178.477,121.91,176.625z"/>
<path fill="#D7D7D7" d="M143.508,128.629c-1.124,2.396-2.397,4.643-4.319,6.24c-0.135-0.775,0.454-0.826,0.479-1.439
	c0.63-1.771,1.596-3.204,2.88-4.319C143.03,129.111,143.12,128.721,143.508,128.629z"/>
<path fill="#D7D7D7" d="M147.348,122.39c3.236-2.042,5.674-4.886,8.158-7.68c1.041-0.081,0.219,1.703,0.48,2.4
	c-1.188,1.392-0.847,0.572-0.48-0.96c-2.839,1.004-5.879,5.957-9.118,8.159C146.394,123.355,147.697,123.699,147.348,122.39z"/>
<path fill="#D7D7D7" d="M165.106,122.87c-0.705,2.481-5.585,2.534-5.76-0.479c0.159,0,0.319,0,0.479,0
	c1.256,2.111,2.646,0.745,4.799,0.479C164.786,122.87,164.946,122.87,165.106,122.87z"/>
<path fill="#D7D7D7" d="M170.386,139.188c-0.538-0.103-0.747-0.532-0.961-0.96c1.729-1.791,2.202-4.838,4.32-6.239
	c-0.543,1.857-0.908,3.892-2.399,4.8C170.399,137.167,169.62,138.468,170.386,139.188z"/>
<path fill="#949494" d="M171.346,139.668c1.229-0.05,2.287-0.271,2.88-0.959c1.963-1.93,1.566,2.458,0,2.399
	c1.605-2.178-1.852,0.829-0.479-0.48C175.245,138.399,171.881,141.306,171.346,139.668z"/>
<path fill="#949494" d="M182.865,174.226c-0.324-2.236-4.041-1.079-3.84-3.841c0.16,0,0.32,0,0.479,0
	c0.293,0.027,0.568,0.072,0.48,0.48c1.003,0.429,3.79-0.564,2.88,2.88C182.865,173.905,182.865,174.065,182.865,174.226z"/>
<path fill="#D7D7D7" d="M211.183,156.947c-3.386,3.813-6.909,7.489-11.521,10.079c-0.001-0.481,0.389-0.571,0.48-0.96
	c0.616-0.823,0.991-1.889,2.398-1.92C206.16,162.483,208.198,159.242,211.183,156.947z"/>
<path fill="#D7D7D7" d="M222.222,137.749c-0.049,4.111-1.769,6.552-3.841,8.64c0-0.16,0-0.319,0-0.479
	C219.377,142.903,220.944,140.471,222.222,137.749z"/>
<path fill="#D7D7D7" d="M225.102,116.63c0.719,0.439,2.078,8.851,0,10.56C226.245,123.834,225.006,120.354,225.102,116.63z"/>
<path fill="#D7D7D7" d="M219.822,103.671c-1.234-0.046-0.688-1.874-1.92-1.92c-0.823-0.617-1.888-0.992-1.92-2.399
	c-2.005-1.664-2.728-4.282,1.92-3.359c-0.062,1.06-2.036,0.204-2.88,0.48C215.216,98.367,219.151,100.655,219.822,103.671z"/>
<path fill="#D7D7D7" d="M238.54,92.152c1.843,6.191-2.28,12.351-5.759,8.639c1.545-0.104,2.03,0.85,3.839,0.48
	c2.44-1.08,1.092-5.947,1.44-9.119C238.221,92.152,238.381,92.152,238.54,92.152z"/>
<path fill="#D7D7D7" d="M250.539,95.992c-1.805-0.888-5.822-1.674-5.279-3.36c1.868,0.532,3.473,1.328,4.801,2.4
	C250.058,95.514,250.448,95.604,250.539,95.992z"/>
<path fill="#D7D7D7" d="M267.338,104.151c0.854-0.426,1.221-1.34,2.88-0.96c-0.04,0.681-0.078,1.358,0.479,1.439
	c1.498,2.821,2.106,6.533,3.84,9.119c-2.683-2.275-3.774-6.143-4.8-10.079c-1.95-0.452-1.477,2.786-2.88,1.44
	C266.966,104.739,266.871,104.165,267.338,104.151z"/>
<path fill="#D7D7D7" d="M284.137,117.11c-0.686,1.875-1.966,3.155-3.841,3.84c-2.121-1.398-3.812-3.228-5.278-5.28
	c1.132,0.148,0.893,1.667,2.398,1.44c0.293,0.027,0.568,0.072,0.48,0.479c0.467,1,1.766,3.638,2.879,2.4
	c0.847-0.434,1.486-1.074,1.92-1.92C283.382,117.955,283.506,117.28,284.137,117.11z"/>
<path fill="#D7D7D7" d="M289.416,83.513c3.164,1.365,3.698,19.381,0,23.037c0-0.159,0-0.319,0-0.479
	c0.727-1.834,0.538-4.582,1.439-6.24c1.054-4.418,0.612-11.488-0.959-14.878C289.337,84.872,289.375,84.194,289.416,83.513z"/>
<path fill="#D7D7D7" d="M286.057,75.354c-3.092-3.31-6.033-6.767-9.601-9.6c-3.664-2.415-7.793-4.364-12.479-5.759
	c-0.078-0.562-0.875-0.405-1.44-0.479C273.285,59.968,280.97,67.641,286.057,75.354z"/>
<path fill="#D7D7D7" d="M239.98,44.635c1.043,0.921-3.51,0.304-4.8,0.48c-0.427,4.585,4.023,4.295,4.8,7.679
	c-0.39-0.091-0.479-0.48-0.96-0.479c-1.015-1.227-3.143-1.337-3.36-3.359c-0.692-1.067-1.205-2.313-0.96-4.32
	C236.46,44.635,238.221,44.635,239.98,44.635z"/>
<path fill="#D7D7D7" d="M263.498,40.316c-6.075-0.635-9.734,1.144-14.397,1.92c0.107-0.691,1.433-0.167,1.438-0.96
	c1.378-0.862,2.949-1.531,5.279-1.439C258.227,40.148,261.888,39.208,263.498,40.316z"/>
<path fill="#575757" d="M266.857,34.557c0.059,2.061,1.196,4.928,0,6.719c-1.755,0.315-1.841-1.038-3.359-0.96
	c-1.609-1.109-5.271-0.168-7.68-0.479c3.299-1.37,8.015-0.021,11.039,0.479c0.525-2.308-1.481-4.57,0-6.239
	C266.857,34.237,266.857,34.397,266.857,34.557z"/>
<path fill="#575757" d="M124.79,49.916c2.915-0.035,4.218,1.541,7.2,1.44c-0.241-1.999-1.679-2.801-1.92-4.8
	c1.248,1.298,3.226,3.933,2.4,5.759c-3.103-0.578-6.004-1.356-8.641-2.399C124.15,49.916,124.47,49.916,124.79,49.916z"/>
<path fill="#575757" d="M34.077,57.594c0.494-1.745,2.333-2.146,4.32-2.399C37.292,56.331,35.453,56.731,34.077,57.594z"/>
<path fill="#949494" d="M219.342,59.035c0.16,0,0.32,0,0.48,0c-1.29,1.885,4.032,0.568,5.759,0.96c0,0.16,0,0.32,0,0.48
	c-2.079,0-4.159,0-6.239,0c-0.586-0.056-1.137-0.145-0.96-0.96C218.488,59.141,218.784,58.957,219.342,59.035z"/>
<path fill="#D7D7D7" d="M95.512,86.873c1.963-2.037,5.503-2.497,8.639-3.359c-0.76-1-3.358-0.162-4.32-0.961
	c1.368-0.551,7.084-1.337,7.681,0.48c-3.183,1.778-7.439,2.48-11.039,3.84C96.152,86.873,95.832,86.873,95.512,86.873z"/>
<path fill="#D7D7D7" d="M73.914,97.432c1.936-3.186,5.729-4.512,9.6-5.761c0,0.16,0,0.32,0,0.48
	C80.466,94.065,77.127,95.686,73.914,97.432z"/>
<path fill="#D7D7D7" d="M54.235,110.871c3.309-3.89,7.249-7.149,11.999-9.599c0.001,0.48-0.389,0.57-0.48,0.96
	c-2.382,2.097-4.813,4.146-7.679,5.76c-0.979,0.141-0.941,1.298-1.92,1.44c-0.691,0.269-1.171,0.749-1.44,1.438
	C54.556,110.871,54.396,110.871,54.235,110.871z"/>
<path fill="#D7D7D7" d="M46.556,120.469c1.389-3.729,3.918-6.32,6.719-8.64c-0.142,0.979-1.298,0.941-1.439,1.92
	c-0.142,0.979-1.299,0.941-1.439,1.92c-0.827,1.894-1.99,3.45-3.36,4.8C46.876,120.469,46.716,120.469,46.556,120.469z"/>
<path fill="#D7D7D7" d="M51.356,149.748c-7.236-2.064-12.293-14.29-7.2-22.559c-0.142,1.618-0.241,3.277-0.96,4.318
	c-0.645,1.62-1.204,7.272,0.479,8.159C44.741,144.523,48.997,146.187,51.356,149.748z"/>
<path fill="#D7D7D7" d="M71.034,131.989c-6.378,3.861-10.393,10.085-15.359,15.358c0-0.16,0-0.32,0-0.479
	c1.085-2.274,2.538-4.182,4.32-5.76c2.44-2.039,4.68-4.279,6.719-6.72c0.943-0.817,2.399-1.121,2.88-2.399c0.16,0,0.32,0,0.48,0
	C70.394,131.989,70.714,131.989,71.034,131.989z"/>
<path fill="#D7D7D7" d="M85.913,137.749c-0.715,2.017-2.215,5.771-4.8,4.319c0.565-0.075,1.362,0.082,1.44-0.48
	c0.719-0.721,0.858-2.021,1.92-2.398C85.38,139.135,84.806,137.602,85.913,137.749z"/>
<path fill="#D7D7D7" d="M103.191,117.11c0.06,1.06,2.036,0.204,2.88,0.479c0.276,0.845-0.58,2.82,0.479,2.88
	c1.602,1.257,4.247-0.534,4.8-1.92c1.558-0.842,2.398-2.399,3.359-3.84c0.979-0.141,0.941-1.298,1.92-1.439
	c1.611-0.885,0.238-0.059,0.48,1.439c0.082,1.201-0.737,1.502-1.44,1.92c-0.48-0.001-0.57,0.39-0.96,0.48
	c-0.634-1.201,1.897-1.502,0.48-1.92c-2.55,2.409-3.479,6.438-8.159,6.72c-1.432-0.328-1.609-1.911-1.44-3.84
	c-2.125,0.525-2.387-0.813-3.84-0.96c-3.002,2.277-5.156,5.402-8.159,7.68c0-0.16,0-0.319,0-0.479s0-0.319,0-0.479
	c2.815-1.665,5.056-3.904,6.72-6.72C100.692,116.682,103.252,114.985,103.191,117.11z"/>
<path fill="#D7D7D7" d="M105.111,131.029c2.011-3.908,3.874-7.965,7.679-10.079c-2.526,3.232-4.467,7.052-7.199,10.079
	C105.431,131.029,105.271,131.029,105.111,131.029z"/>
<path fill="#D7D7D7" d="M72.474,216.942c0.17-7.191,2.144-16.733,5.278-22.56c-0.826,3.975-1.557,8.043-2.879,11.521
	C73.576,209.085,73.104,213.093,72.474,216.942z"/>
<path fill="#D7D7D7" d="M70.554,229.421c-1.21-1.089,0.127-6.232,0.479-5.76C71.411,226.118,70.361,227.148,70.554,229.421z"/>
<path fill="#D7D7D7" d="M26.398,97.912c-4.641,4.319-8.754,9.164-13.919,12.958c0.918-1.322,2.038-2.44,3.359-3.359
	c2.92-2.52,5.641-5.238,8.159-8.159c0.417-0.702,0.719-1.521,1.92-1.439C26.078,97.912,26.238,97.912,26.398,97.912z"/>
<path fill="#D7D7D7" d="M52.795,90.712c-2.095,3.504-5.178,6.021-8.639,8.16c0.115-0.685,0.791-0.81,0.96-1.439
	C47.302,94.818,50.112,92.828,52.795,90.712z"/>
<path fill="#D7D7D7" d="M75.354,91.192c0.928,1.521-2.98,1.621-4.799,1.92c-0.799-0.962,0.04-3.561-0.96-4.32
	c-0.743,1.322-2.882,0.047-3.36-0.479c-0.148-1.748,0.077-3.123,0.479-4.319c-2-0.241-2.116,1.403-4.318,0.96
	c1.404-0.995,2.953-1.847,5.278-1.92c0.146,2.604-0.659,3.191,0,5.279c0.32,0,0.641,0,0.96,0c0.641,0,1.28,0,1.921,0
	c0,1.279,0,2.56,0,3.84c0.756,0.763,2.569,0.135,3.359-0.48C73.995,91.113,74.672,91.151,75.354,91.192z"/>
<path fill="#575757" d="M55.195,89.272c0.874-1.366,2.637-1.843,3.84-2.879C58.376,87.974,57.033,88.871,55.195,89.272z"/>
<path fill="#575757" d="M90.712,89.272c0.607-1.792,2.925-1.876,4.801-2.399c0.319,0,0.64,0,0.96,0
	C94.815,87.936,92.518,88.358,90.712,89.272z"/>
<path fill="#575757" d="M83.513,91.672c1.037-0.401,1.637-1.242,3.359-0.96c-0.821,0.779-1.747,1.453-3.359,1.44
	C83.513,91.992,83.513,91.833,83.513,91.672z"/>
<path fill="#242423" d="M34.077,96.952c-1.776-0.144-1.727-2.113-4.32-1.439c0.408-0.713,1.208-1.032,2.4-0.961
	C32.823,95.327,33.517,96.072,34.077,96.952z"/>
<path fill="#575757" d="M25.918,97.912c0.632-0.968,1.576-1.624,2.88-1.92c1.169,0.741-1.78,1.381-2.399,1.92
	C26.238,97.912,26.078,97.912,25.918,97.912z"/>
<path fill="#575757" d="M15.839,107.51c2.277-3.002,5.402-5.156,7.68-8.159c0.16,0,0.319,0,0.479,0
	C21.479,102.272,18.759,104.992,15.839,107.51z"/>
<path fill="#575757" d="M238.061,92.152c-0.35,3.172,1,8.04-1.44,9.119c-1.809,0.369-2.294-0.585-3.839-0.48c0-0.16,0-0.319,0-0.479
	c1.779-0.34,2.06,0.819,3.839,0.479C238.521,99.333,236.75,94.202,238.061,92.152z"/>
<path fill="#575757" d="M267.338,104.151c0.198-2.308,3.894-2.421,3.359,0.479c-0.559-0.081-0.521-0.759-0.479-1.439
	C268.558,102.812,268.191,103.725,267.338,104.151z"/>
<path fill="#575757" d="M266.378,106.551c1.188,2.44-4.572,2.966-3.84,0.48C263.762,108.666,265.338,107.616,266.378,106.551z"/>
<path fill="#575757" d="M117.11,111.831c1.954-0.926,2.451-3.309,4.8-3.839c-0.115,0.685-0.791,0.81-0.96,1.44
	c-0.033,1.406-1.097,1.781-1.92,2.398c0.281-0.999,1.008-1.551,1.44-2.398c-1.481,1.077-2.763,2.357-3.841,3.839
	c-0.979,0.142-0.94,1.299-1.92,1.439C114.874,113.114,116.529,113.009,117.11,111.831z"/>
<path fill="#575757" d="M54.235,110.871c0.16,0,0.32,0,0.479,0c0.27-0.69,0.749-1.171,1.44-1.438
	c-1.239,1.641-2.679,3.081-4.319,4.318c0.142-0.979,1.298-0.94,1.439-1.92C53.377,111.292,53.808,111.083,54.235,110.871z"/>
<path fill="#949494" d="M116.63,113.271c1.078-1.481,2.358-2.762,3.841-3.839c-0.433,0.848-1.159,1.4-1.44,2.398
	c-0.114,1.486-1.336,1.864-1.92,2.88C116.868,113.213,118.242,112.387,116.63,113.271z"/>
<path fill="#575757" d="M155.987,117.11c-0.263-0.697,0.561-2.48-0.48-2.4c-2.484,2.794-4.922,5.638-8.158,7.68
	c3.268-2.812,4.65-7.508,9.6-8.64c0.06,1.98-0.835,3.005-0.48,5.28c0.877,1.364,4.032,0.447,3.36,3.359c-0.16,0-0.32,0-0.479,0
	C159.02,119.837,154.979,120.997,155.987,117.11z"/>
<path fill="#575757" d="M103.191,117.11c1.12,0,2.24,0,3.359,0c0,1.12,0,2.24,0,3.359c-1.06-0.06-0.203-2.035-0.479-2.88
	C105.228,117.314,103.251,118.17,103.191,117.11z"/>
<path fill="#949494" d="M100.312,117.11c-1.664,2.814-3.904,5.055-6.72,6.72C95.426,121.184,97.666,118.944,100.312,117.11z"/>
<path fill="#575757" d="M73.434,132.949c-0.586-0.055-1.138-0.144-0.96-0.96c-0.48,0-0.96,0-1.44,0c-0.32,0-0.64,0-0.96,0
	c0.407-0.714,1.545-0.694,2.4-0.96C72.724,131.739,73.184,132.239,73.434,132.949z"/>
<path fill="#949494" d="M65.274,135.349c0.685-0.115,0.81-0.79,1.439-0.96c-2.039,2.439-4.278,4.681-6.719,6.72
	C61.348,138.781,62.648,136.402,65.274,135.349z"/>
<path fill="#242423" d="M139.188,134.869c-0.918,1.321-1.08,3.399-2.88,3.84c1.217-1.664,1.764-3.996,3.359-5.279
	C139.642,134.043,139.053,134.094,139.188,134.869z"/>
<path fill="#575757" d="M181.425,140.148c-1.493,1.314-5.302,4.588-7.679,1.92c0.107-0.373,0.013-0.947,0.479-0.96
	c-0.021,0.66,0.226,1.054,0.479,1.438c3.438-0.082,4.915-2.124,7.2-3.358C181.813,139.577,181.424,139.667,181.425,140.148z"/>
<path fill="#575757" d="M218.382,146.388c-0.688,1.393-1.151,3.007-2.88,3.359c1.037-1.203,1.515-2.966,2.88-3.84
	C218.382,146.068,218.382,146.228,218.382,146.388z"/>
<path fill="#949494" d="M55.675,147.348c-0.683,1.235-1.124,2.716-2.88,2.88c1.028-1.053,1.494-2.666,2.88-3.359
	C55.675,147.027,55.675,147.188,55.675,147.348z"/>
<path fill="#949494" d="M209.263,157.427c1.114-0.323,1.284-1.595,2.398-1.92c-0.025,0.614-0.615,0.665-0.479,1.44
	c-2.984,2.295-5.022,5.536-8.641,7.199C204.253,161.376,207.553,160.197,209.263,157.427z"/>
<path fill="#575757" d="M187.185,173.746c1.43-1.291,3.58-1.858,5.278-2.88c0,0.159,0,0.319,0,0.479
	C191.258,172.699,189.68,173.681,187.185,173.746z"/>
<path fill="#949494" d="M71.994,246.22c1.42-3.82-2.675-2.125-3.36-3.841c0.298-1.303-0.608-3.809,0.48-4.318
	c0.297,1.303-0.609,3.809,0.48,4.318c1.383,0.059,3.142-0.262,3.84,0.48c0.234,1.515-0.865,1.694-0.48,3.358
	C72.634,246.22,72.314,246.22,71.994,246.22z"/>
<path fill="#575757" d="M83.993,2.88c3.161-1.157,6.786-1.854,11.039-1.92C91.568,1.816,87.875,2.442,83.993,2.88z"/>
<path fill="#575757" d="M115.67,0c1.094,1.467,4.555,0.565,6.24,1.44c2.289,0.271,4.618,0.501,6.239,1.439
	C122.487,1.822,116.073,1.517,110.87,0C112.471,0,114.07,0,115.67,0z"/>
<path fill="#575757" d="M138.229,5.76c1.207,0.554,3.292,0.229,3.359,1.92c-1.141-0.938-3.23-0.93-4.319-1.92
	C137.589,5.76,137.909,5.76,138.229,5.76z"/>
<path fill="#D7D7D7" d="M259.179,10.079c-3.313-0.686-7.542-0.458-11.521-0.479c-0.718-0.082-1.771,0.171-1.92-0.48
	C249.983,9.675,256.503,7.956,259.179,10.079z"/>
<path fill="#575757" d="M216.462,16.799c1.589-2.411,6.012-1.988,8.641-3.359c5.4-1.318,11.146-2.292,16.799-3.36
	c1.772-0.306,4.781,0.622,5.759-0.479c3.979,0.021,8.206-0.206,11.521,0.479c4.172-0.012,7.858,0.46,10.559,1.92
	C251.708,7.764,230.821,11.639,216.462,16.799z"/>
<path fill="#575757" d="M207.823,20.158c1.632-2.208,4.896-2.783,8.159-3.359C213.466,18.122,210.471,18.967,207.823,20.158z"/>
<path fill="#242423" d="M70.554,22.078c1.041-0.719,2.701-0.818,4.319-0.96c0,0.16,0,0.32,0,0.48
	c-0.564,0.074-1.362-0.083-1.439,0.479C72.474,22.078,71.514,22.078,70.554,22.078z"/>
<path fill="#575757" d="M207.343,20.158c-0.994,1.085-2.66,1.499-4.318,1.92c0-0.16,0-0.32,0-0.479
	C204.468,21.123,205.165,19.9,207.343,20.158z"/>
<path fill="#575757" d="M59.515,23.038c4.438,0.438,7.038-0.962,11.039-0.96c0,0.16,0,0.32,0,0.48
	C66.92,22.451,62.919,24.513,59.515,23.038z"/>
<path fill="#242423" d="M110.391,31.677c-4.896-1.344-11.599-0.88-17.759-0.96c6.092-0.968,15.136-0.737,20.158,0.96
	c-0.075,0.565,0.083,1.362-0.479,1.44c0-0.32,0-0.64,0-0.96C112.222,31.447,111.151,31.717,110.391,31.677z"/>
<path fill="#575757" d="M86.393,31.677c-2.398-0.459-4.896,1.479-6.721,0c4.354-0.285,8.039-1.24,12.959-0.96
	C91.648,32.133,87.377,30.262,86.393,31.677z"/>
<path fill="#575757" d="M172.306,38.877c-1.09-2.591-2.393-4.967-3.359-7.68c0.159,0,0.319,0,0.479,0
	C170.416,33.727,172.25,35.413,172.306,38.877z"/>
<path fill="#949494" d="M268.298,32.637c0.081-0.56,0.76-0.521,1.439-0.48c9.76,0,19.519,0,29.278,0c0-0.16,0-0.32,0-0.48
	c0.49,0.035,0.593,0.804,0,0.961C290.816,34.806,277.589,31.031,268.298,32.637z"/>
<path fill="#575757" d="M111.831,34.077c0,0.48,0,0.96,0,1.44c0.855,0.265,1.994,0.247,2.4,0.96c-1.379,0.099-2.438-0.122-2.88-0.96
	c0-0.48,0-0.96,0-1.44C111.349,33.811,111.739,33.532,111.831,34.077z"/>
<path fill="#575757" d="M116.63,39.837c2.546,0.014,4.085,1.035,5.76,1.919c-2.014,0.254-2.682-0.838-4.319-0.959
	C118.063,40.004,116.739,40.528,116.63,39.837z"/>
<path fill="#575757" d="M235.66,48.956c-1.775-0.304-1.464-2.695-1.438-4.8c7.031,0.633,10.763-2.036,16.317-2.88
	c-0.007,0.793-1.331,0.269-1.438,0.96c-2.887,0.955-6.06,1.621-9.119,2.399c-1.76,0-3.521,0-5.28,0
	C234.455,46.642,234.968,47.888,235.66,48.956z"/>
<path fill="#D7D7D7" d="M73.914,45.596c-0.511,0.021-1.219-0.227-0.479-0.48c9.096-0.23,21.167-1.602,28.797,0.96
	C93.383,44.714,83.422,45.198,73.914,45.596z"/>
<path fill="#575757" d="M239.98,52.795c0,1.44,0,2.88,0,4.32c-1.156,0.196-1.044-0.876-2.4-0.48c-1.457-0.797-6.223-0.797-7.679,0
	c-3.492,0.349-6.345,1.335-9.12,2.4c-0.319,0-0.64,0-0.959,0c-0.16,0-0.32,0-0.48,0c4.817-2.729,12.849-4.17,20.158-2.88
	c0.21-1.65-0.188-2.69-0.479-3.84C239.502,52.314,239.592,52.705,239.98,52.795z"/>
<path fill="#D7D7D7" d="M220.781,59.035c12.337,2.073,26.427-3.299,38.397,0c-11.368-1.691-22.067,1.233-33.599,0.96
	c-1.727-0.392-7.049,0.925-5.759-0.96C220.142,59.035,220.462,59.035,220.781,59.035z"/>
<path fill="#575757" d="M225.581,59.995c11.53,0.273,22.229-2.651,33.599-0.96c1.558-0.278,2.231,0.327,3.358,0.48
	c0.565,0.074,1.362-0.083,1.44,0.479c-12.548-2.347-25.388,0.424-38.397,0.48C225.581,60.315,225.581,60.155,225.581,59.995z"/>
<path fill="#575757" d="M99.832,82.552c-1.434,0.967-3.387,1.413-5.759,1.44C95.506,83.027,97.459,82.581,99.832,82.552z"/>
<path fill="#575757" d="M92.632,84.473c0.511-0.021,1.22,0.226,0.48,0.479c-3.742,0.737-5.995,2.965-10.079,3.359
	C86.013,86.813,89.003,85.323,92.632,84.473z"/>
<path fill="#575757" d="M289.896,84.953c1.571,3.391,2.013,10.46,0.959,14.878C291.123,94.285,290.663,89.466,289.896,84.953z"/>
<path fill="#575757" d="M82.073,88.792c0.755,0.632-2.262,1.55-3.84,1.44C79.342,89.581,80.374,88.853,82.073,88.792z"/>
<path fill="#575757" d="M2.4,95.992c0.274-2.925,0.655-5.745,2.399-7.2C4.044,91.237,3.382,93.774,2.4,95.992z"/>
<path fill="#242423" d="M240.94,91.192c-0.8,0-1.602,0-2.4,0c0,0.32,0,0.64,0,0.96c-0.159,0-0.318,0-0.479,0
	c0.046-2.151,2.816-2.198,3.84-0.96C241.58,91.192,241.26,91.192,240.94,91.192z"/>
<path fill="#575757" d="M241.9,91.192c1.229,0.371,2.721,0.479,3.358,1.439c-2.029,0.11-3.084-0.756-4.318-1.439
	C241.26,91.192,241.58,91.192,241.9,91.192z"/>
<path fill="#575757" d="M219.342,95.992c1.796-0.036,3.318,0.202,4.319,0.96C221.866,96.987,220.344,96.75,219.342,95.992z"/>
<path fill="#575757" d="M225.102,97.432c1.666,0.572,3.728,0.751,4.8,1.919C227.754,99.259,226.111,98.661,225.102,97.432z"/>
<path fill="#242423" d="M0,105.591c0.768-1.312,0.988-3.171,0.96-5.279c0.16,0,0.32,0,0.48,0c-0.169,3.03-0.173,6.227-1.44,8.16
	C0,107.51,0,106.551,0,105.591z"/>
<path fill="#575757" d="M289.416,106.551c-0.342,1.578-0.228,3.612-1.92,3.84c0.938-1.142,0.929-3.23,1.92-4.319
	C289.416,106.231,289.416,106.391,289.416,106.551z"/>
<path fill="#575757" d="M222.222,108.951c1.415,0.196,1.963,5.388,2.88,7.679c-0.097,3.725,1.144,7.204,0,10.56
	c-0.207,4.112-0.871,7.769-2.88,10.079C225.879,129.398,225.623,116.858,222.222,108.951z"/>
<path fill="#575757" d="M174.226,119.99c-0.49,1.109-2.207,0.993-3.84,0.96C171.273,120.237,172.666,120.031,174.226,119.99z"/>
<path fill="#575757" d="M47.036,120.469c-0.372,1.548-1.003,2.837-1.92,3.84c-0.11-1.87,1.031-2.488,1.44-3.84
	C46.716,120.469,46.876,120.469,47.036,120.469z"/>
<path fill="#575757" d="M168.466,121.43c2.211,0.353-2.562,1.001-3.358,1.438c-0.16,0-0.32,0-0.48,0
	C165.44,121.924,166.858,121.582,168.466,121.43z"/>
<path fill="#D7D7D7" d="M174.226,127.67c-0.229-2.078,0.232-9.292,0.479-3.84C174.413,124.978,175.308,127.312,174.226,127.67z"/>
<path fill="#575757" d="M43.196,131.509c0.123,2.759-0.359,6.119,0.479,8.159C41.992,138.781,42.553,133.129,43.196,131.509z"/>
<path fill="#575757" d="M185.265,138.229c0.105-0.374,0.401-0.559,0.96-0.479c1.7,7.333-0.958,14.376-3.359,19.198
	c0.46-4.021,2.53-6.429,2.879-10.56C186.389,144.769,186.949,139.116,185.265,138.229z"/>
<path fill="#575757" d="M131.509,148.308c-0.283,3.399-2.635,8.881-4.8,11.999C128.245,156.243,129.758,152.155,131.509,148.308z"/>
<path fill="#575757" d="M89.272,161.747c-0.258-1.57,0.965-4.112,1.439-3.36C90.388,159.662,89.957,160.831,89.272,161.747z"/>
<path fill="#575757" d="M181.425,160.307c-1.082,3.127-2.688,6.466-1.92,10.078c-0.158,0-0.318,0-0.479,0
	C176.647,167.188,179.661,162.421,181.425,160.307z"/>
<path fill="#575757" d="M87.833,165.106c-1.424,3.694-2.661,7.578-4.318,11.039C84.481,171.993,85.569,167.962,87.833,165.106z"/>
<path fill="#575757" d="M124.31,167.986c-0.245,3.435-1.023,6.336-2.399,8.639C122.316,173.353,123.275,170.631,124.31,167.986z"/>
<path fill="#575757" d="M83.033,177.585c-0.9,2.94-1.761,5.919-2.88,8.641C80.474,182.705,81.334,179.727,83.033,177.585z"/>
<path fill="#575757" d="M79.673,187.664c-0.39,2.49-0.998,4.762-1.92,6.72C77.863,191.614,78.369,189.239,79.673,187.664z"/>
<path fill="#575757" d="M72.474,216.942c0.63-3.851,1.102-7.857,2.399-11.039c-0.468,4.331-1.261,8.338-2.399,11.999
	C72.474,217.582,72.474,217.262,72.474,216.942z"/>
<path fill="#242423" d="M115.19,209.742c0.147,1.749-0.076,3.124-0.48,4.32c-0.16,0-0.319,0-0.479,0
	C114.667,212.738,114.38,210.691,115.19,209.742z"/>
<path fill="#575757" d="M114.71,214.062c-0.87,10.969-2.775,20.901-3.359,32.156c-0.32,0-0.641,0-0.96,0
	c1.439-10.56,2.343-21.654,3.84-32.156C114.391,214.062,114.55,214.062,114.71,214.062z"/>
<path fill="#575757" d="M71.994,220.781c-0.595,6.285-1.382,12.377-2.399,18.239c-0.121-3.642,0.392-6.647,0.96-9.601
	c-0.193-2.271,0.855-3.303,0.479-5.76C72.393,223.74,70.635,220.703,71.994,220.781z"/>
<path fill="#D7D7D7" d="M92.632,30.717c6.16,0.08,12.863-0.384,17.759,0.96c-8.361-0.619-15.478-0.213-23.998,0
	C87.377,30.262,91.648,32.133,92.632,30.717z"/>
<path fill="#D7D7D7" d="M229.901,56.635c1.456-0.797,6.222-0.797,7.679,0C235.021,56.635,232.461,56.635,229.901,56.635z"/>
<path fill="#D7D7D7" d="M2.88,110.391c2.247-0.487-0.086,3.605,1.44,3.84c0.197,0.817,0.619-0.102,1.439,0
	c0.22,1.5-1.025,1.534-2.399,1.439c-0.432-1.329,0.986-4.506-0.96-4.319c-1.356-0.396-1.244,0.677-2.4,0.479c0-0.16,0-0.32,0-0.479
	C0.897,110.968,1.758,110.549,2.88,110.391z"/>
<path fill="#D7D7D7" d="M185.265,138.229c1.685,0.888,1.124,6.54,0.479,8.159c0-2.399,0-4.801,0-7.199
	c-2.189-0.432-2.72,0.799-4.319,0.96c-0.001-0.481,0.39-0.571,0.48-0.96C182.972,138.815,183.776,138.181,185.265,138.229z"/>
</svg>
